<?xml version="1.0" encoding="UTF-8" standalone="no"?>
<!DOCTYPE svg PUBLIC "-//W3C//DTD SVG 1.1//EN"
 "http://www.w3.org/Graphics/SVG/1.1/DTD/svg11.dtd">
<!-- Generated by graphviz version 3.0.0 (20221109.1736)
 -->
<!-- Title: denoptim.graph.rings.RingClosingAttractor.isCompatible Pages: 1 -->
<svg width="1896pt" height="186pt"
 viewBox="0.00 0.00 1896.00 186.00" xmlns="http://www.w3.org/2000/svg" xmlns:xlink="http://www.w3.org/1999/xlink">
<g id="graph0" class="graph" transform="scale(1 1) rotate(0) translate(4 182)">
<title>denoptim.graph.rings.RingClosingAttractor.isCompatible</title>
<polygon fill="white" stroke="transparent" points="-4,4 -4,-182 1892,-182 1892,4 -4,4"/>
<!-- Node1 -->
<g id="node1" class="node">
<title>Node1</title>
<g id="a_node1"><a xlink:title="Evaluate compatibility between this RingClosingAttractor and another one.">
<polygon fill="#bfbfbf" stroke="black" points="1743,-61.5 1743,-91.5 1888,-91.5 1888,-61.5 1743,-61.5"/>
<text text-anchor="start" x="1751" y="-79.5" font-family="Helvetica,sans-Serif" font-size="10.00">denoptim.graph.rings.Ring</text>
<text text-anchor="middle" x="1815.5" y="-68.5" font-family="Helvetica,sans-Serif" font-size="10.00">ClosingAttractor.isCompatible</text>
</a>
</g>
</g>
<!-- Node2 -->
<g id="node2" class="node">
<title>Node2</title>
<g id="a_node2"><a xlink:href="classdenoptim_1_1graph_1_1rings_1_1_cyclic_graph_handler_1_1_ring_size_manager.html#a68b1aa5cd1df8bb959064588e994b74e" target="_top" xlink:title=" ">
<polygon fill="white" stroke="black" points="1511,-56 1511,-97 1707,-97 1707,-56 1511,-56"/>
<text text-anchor="start" x="1519" y="-85" font-family="Helvetica,sans-Serif" font-size="10.00">denoptim.graph.rings.Cyclic</text>
<text text-anchor="start" x="1519" y="-74" font-family="Helvetica,sans-Serif" font-size="10.00">GraphHandler.RingSizeManager.calculate</text>
<text text-anchor="middle" x="1609" y="-63" font-family="Helvetica,sans-Serif" font-size="10.00">CompatibilityOfAllRCAPairs</text>
</a>
</g>
</g>
<!-- Node1&#45;&gt;Node2 -->
<g id="edge1" class="edge">
<title>Node1&#45;&gt;Node2</title>
<path fill="none" stroke="midnightblue" d="M1732.76,-76.5C1724.29,-76.5 1715.62,-76.5 1707.01,-76.5"/>
<polygon fill="midnightblue" stroke="midnightblue" points="1732.98,-80 1742.98,-76.5 1732.98,-73 1732.98,-80"/>
</g>
<!-- Node3 -->
<g id="node3" class="node">
<title>Node3</title>
<g id="a_node3"><a xlink:href="classdenoptim_1_1graph_1_1rings_1_1_cyclic_graph_handler_1_1_ring_size_manager.html#a0fc0f3889f18d330fc50f28a4264ca21" target="_top" xlink:title=" ">
<polygon fill="white" stroke="black" points="1293,-83 1293,-124 1466,-124 1466,-83 1293,-83"/>
<text text-anchor="start" x="1301" y="-112" font-family="Helvetica,sans-Serif" font-size="10.00">denoptim.graph.rings.Cyclic</text>
<text text-anchor="start" x="1301" y="-101" font-family="Helvetica,sans-Serif" font-size="10.00">GraphHandler.RingSizeManager.add</text>
<text text-anchor="middle" x="1379.5" y="-90" font-family="Helvetica,sans-Serif" font-size="10.00">RingClosingBond</text>
</a>
</g>
</g>
<!-- Node2&#45;&gt;Node3 -->
<g id="edge2" class="edge">
<title>Node2&#45;&gt;Node3</title>
<path fill="none" stroke="midnightblue" d="M1500.72,-89.23C1489.13,-90.61 1477.46,-91.99 1466.18,-93.33"/>
<polygon fill="midnightblue" stroke="midnightblue" points="1501.34,-92.68 1510.86,-88.03 1500.52,-85.73 1501.34,-92.68"/>
</g>
<!-- Node16 -->
<g id="node16" class="node">
<title>Node16</title>
<g id="a_node16"><a xlink:href="classdenoptim_1_1graph_1_1rings_1_1_cyclic_graph_handler_1_1_ring_size_manager.html#a9b1b85afae57c94c9059527bd796259c" target="_top" xlink:title=" ">
<polygon fill="white" stroke="black" points="1284,-34.5 1284,-64.5 1475,-64.5 1475,-34.5 1284,-34.5"/>
<text text-anchor="start" x="1292" y="-52.5" font-family="Helvetica,sans-Serif" font-size="10.00">denoptim.graph.rings.Cyclic</text>
<text text-anchor="middle" x="1379.5" y="-41.5" font-family="Helvetica,sans-Serif" font-size="10.00">GraphHandler.RingSizeManager.initialize</text>
</a>
</g>
</g>
<!-- Node2&#45;&gt;Node16 -->
<g id="edge19" class="edge">
<title>Node2&#45;&gt;Node16</title>
<path fill="none" stroke="midnightblue" d="M1500.83,-63.78C1492.25,-62.76 1483.63,-61.74 1475.15,-60.73"/>
<polygon fill="midnightblue" stroke="midnightblue" points="1500.52,-67.27 1510.86,-64.97 1501.34,-60.32 1500.52,-67.27"/>
</g>
<!-- Node4 -->
<g id="node4" class="node">
<title>Node4</title>
<g id="a_node4"><a xlink:href="classdenoptim_1_1graph_1_1rings_1_1_cyclic_graph_handler.html#a08b02946eaac7c2cbbe6e71332d702e6" target="_top" xlink:title="Identifies a random combination of ring closing paths and returns it as list of DENOPTIMRings ready t...">
<polygon fill="white" stroke="black" points="1065,-83 1065,-124 1247,-124 1247,-83 1065,-83"/>
<text text-anchor="start" x="1073" y="-112" font-family="Helvetica,sans-Serif" font-size="10.00">denoptim.graph.rings.Cyclic</text>
<text text-anchor="start" x="1073" y="-101" font-family="Helvetica,sans-Serif" font-size="10.00">GraphHandler.getRandomCombination</text>
<text text-anchor="middle" x="1156" y="-90" font-family="Helvetica,sans-Serif" font-size="10.00">OfRings</text>
</a>
</g>
</g>
<!-- Node3&#45;&gt;Node4 -->
<g id="edge3" class="edge">
<title>Node3&#45;&gt;Node4</title>
<path fill="none" stroke="midnightblue" d="M1282.6,-103.5C1270.84,-103.5 1258.85,-103.5 1247.18,-103.5"/>
<polygon fill="midnightblue" stroke="midnightblue" points="1282.86,-107 1292.86,-103.5 1282.86,-100 1282.86,-107"/>
</g>
<!-- Node5 -->
<g id="node5" class="node">
<title>Node5</title>
<g id="a_node5"><a xlink:href="classdenoptim_1_1ga_1_1_e_a_utils.html#a1ddb932d4618434d435e4f85ce5e5eb5" target="_top" xlink:title="Evaluates the possibility of closing rings in a given graph and if any ring can be closed,...">
<polygon fill="white" stroke="black" points="885,-88.5 885,-118.5 1016,-118.5 1016,-88.5 885,-88.5"/>
<text text-anchor="start" x="893" y="-106.5" font-family="Helvetica,sans-Serif" font-size="10.00">denoptim.ga.EAUtils.setup</text>
<text text-anchor="middle" x="950.5" y="-95.5" font-family="Helvetica,sans-Serif" font-size="10.00">Rings</text>
</a>
</g>
</g>
<!-- Node4&#45;&gt;Node5 -->
<g id="edge4" class="edge">
<title>Node4&#45;&gt;Node5</title>
<path fill="none" stroke="midnightblue" d="M1054.84,-103.5C1041.72,-103.5 1028.56,-103.5 1016.24,-103.5"/>
<polygon fill="midnightblue" stroke="midnightblue" points="1054.85,-107 1064.85,-103.5 1054.85,-100 1054.85,-107"/>
</g>
<!-- Node6 -->
<g id="node6" class="node">
<title>Node6</title>
<g id="a_node6"><a xlink:href="classdenoptim_1_1ga_1_1_e_a_utils.html#a8122818f58919fce84dce75e7506025a" target="_top" xlink:title=" ">
<polygon fill="white" stroke="black" points="701,-147.5 701,-177.5 828,-177.5 828,-147.5 701,-147.5"/>
<text text-anchor="start" x="709" y="-165.5" font-family="Helvetica,sans-Serif" font-size="10.00">denoptim.ga.EAUtils.build</text>
<text text-anchor="middle" x="764.5" y="-154.5" font-family="Helvetica,sans-Serif" font-size="10.00">CandidateByMutation</text>
</a>
</g>
</g>
<!-- Node5&#45;&gt;Node6 -->
<g id="edge5" class="edge">
<title>Node5&#45;&gt;Node6</title>
<path fill="none" stroke="midnightblue" d="M892.93,-121.64C867.09,-129.92 836.86,-139.62 812.32,-147.49"/>
<polygon fill="midnightblue" stroke="midnightblue" points="894.14,-124.93 902.59,-118.54 892,-118.26 894.14,-124.93"/>
</g>
<!-- Node13 -->
<g id="node13" class="node">
<title>Node13</title>
<g id="a_node13"><a xlink:href="classdenoptim_1_1ga_1_1_e_a_utils.html#ad3d2daeb11e68a356e971ca1846596b5" target="_top" xlink:title=" ">
<polygon fill="white" stroke="black" points="701,-98.5 701,-128.5 828,-128.5 828,-98.5 701,-98.5"/>
<text text-anchor="start" x="709" y="-116.5" font-family="Helvetica,sans-Serif" font-size="10.00">denoptim.ga.EAUtils.build</text>
<text text-anchor="middle" x="764.5" y="-105.5" font-family="Helvetica,sans-Serif" font-size="10.00">CandidateFromScratch</text>
</a>
</g>
</g>
<!-- Node5&#45;&gt;Node13 -->
<g id="edge13" class="edge">
<title>Node5&#45;&gt;Node13</title>
<path fill="none" stroke="midnightblue" d="M874.81,-107.56C859.31,-108.4 843.12,-109.28 828.1,-110.1"/>
<polygon fill="midnightblue" stroke="midnightblue" points="875.09,-111.05 884.89,-107.01 874.71,-104.06 875.09,-111.05"/>
</g>
<!-- Node15 -->
<g id="node15" class="node">
<title>Node15</title>
<g id="a_node15"><a xlink:href="classdenoptim_1_1ga_1_1_e_a_utils.html#a0b958439d79fae30f14530213ad22e3a" target="_top" xlink:title="Generates up to a pair of new offspring by performing a crossover operation.">
<polygon fill="white" stroke="black" points="701,-49.5 701,-79.5 828,-79.5 828,-49.5 701,-49.5"/>
<text text-anchor="start" x="709" y="-67.5" font-family="Helvetica,sans-Serif" font-size="10.00">denoptim.ga.EAUtils.build</text>
<text text-anchor="middle" x="764.5" y="-56.5" font-family="Helvetica,sans-Serif" font-size="10.00">CandidatesByXOver</text>
</a>
</g>
</g>
<!-- Node5&#45;&gt;Node15 -->
<g id="edge18" class="edge">
<title>Node5&#45;&gt;Node15</title>
<path fill="none" stroke="midnightblue" d="M874.81,-87.67C859.31,-84.38 843.12,-80.95 828.1,-77.77"/>
<polygon fill="midnightblue" stroke="midnightblue" points="874.38,-91.16 884.89,-89.8 875.83,-84.31 874.38,-91.16"/>
</g>
<!-- Node7 -->
<g id="node7" class="node">
<title>Node7</title>
<g id="a_node7"><a xlink:href="classdenoptim_1_1ga_1_1_evolutionary_algorithm.html#a0c2e353b243250b4959a3f86608f1020" target="_top" xlink:title="Generates one offspring according to the method where crossover and mutation are decoupled,...">
<polygon fill="white" stroke="black" points="526,-98.5 526,-128.5 656,-128.5 656,-98.5 526,-98.5"/>
<text text-anchor="start" x="534" y="-116.5" font-family="Helvetica,sans-Serif" font-size="10.00">denoptim.ga.Evolutionary</text>
<text text-anchor="middle" x="591" y="-105.5" font-family="Helvetica,sans-Serif" font-size="10.00">Algorithm.makeOffspringA</text>
</a>
</g>
</g>
<!-- Node6&#45;&gt;Node7 -->
<g id="edge6" class="edge">
<title>Node6&#45;&gt;Node7</title>
<path fill="none" stroke="midnightblue" d="M700.87,-144.61C682.42,-139.34 662.44,-133.62 644.68,-128.55"/>
<polygon fill="midnightblue" stroke="midnightblue" points="700.07,-148.02 710.64,-147.4 701.99,-141.29 700.07,-148.02"/>
</g>
<!-- Node12 -->
<g id="node12" class="node">
<title>Node12</title>
<g id="a_node12"><a xlink:href="classdenoptim_1_1ga_1_1_evolutionary_algorithm.html#ae7a90a911b109ed47b3acf54193acc35" target="_top" xlink:title="Generates one offspring according to the method where crossover and mutation are coupled,...">
<polygon fill="white" stroke="black" points="526,-147.5 526,-177.5 656,-177.5 656,-147.5 526,-147.5"/>
<text text-anchor="start" x="534" y="-165.5" font-family="Helvetica,sans-Serif" font-size="10.00">denoptim.ga.Evolutionary</text>
<text text-anchor="middle" x="591" y="-154.5" font-family="Helvetica,sans-Serif" font-size="10.00">Algorithm.makeOffspringB</text>
</a>
</g>
</g>
<!-- Node6&#45;&gt;Node12 -->
<g id="edge11" class="edge">
<title>Node6&#45;&gt;Node12</title>
<path fill="none" stroke="midnightblue" d="M690.61,-162.5C679.12,-162.5 667.3,-162.5 656.03,-162.5"/>
<polygon fill="midnightblue" stroke="midnightblue" points="690.61,-166 700.61,-162.5 690.61,-159 690.61,-166"/>
</g>
<!-- Node8 -->
<g id="node8" class="node">
<title>Node8</title>
<g id="a_node8"><a xlink:href="classdenoptim_1_1ga_1_1_evolutionary_algorithm.html#a596b2f5f0b097c5b67a6e5163bd6fe66" target="_top" xlink:title="Generates a given number of new candidate items and adds them to the current population.">
<polygon fill="white" stroke="black" points="353,-103.5 353,-133.5 487,-133.5 487,-103.5 353,-103.5"/>
<text text-anchor="start" x="361" y="-121.5" font-family="Helvetica,sans-Serif" font-size="10.00">denoptim.ga.Evolutionary</text>
<text text-anchor="middle" x="420" y="-110.5" font-family="Helvetica,sans-Serif" font-size="10.00">Algorithm.evolvePopulation</text>
</a>
</g>
</g>
<!-- Node7&#45;&gt;Node8 -->
<g id="edge7" class="edge">
<title>Node7&#45;&gt;Node8</title>
<path fill="none" stroke="midnightblue" d="M515.48,-115.7C506.05,-115.98 496.45,-116.27 487.16,-116.54"/>
<polygon fill="midnightblue" stroke="midnightblue" points="515.73,-119.2 525.63,-115.4 515.53,-112.2 515.73,-119.2"/>
</g>
<!-- Node9 -->
<g id="node9" class="node">
<title>Node9</title>
<g id="a_node9"><a xlink:href="classdenoptim_1_1ga_1_1_evolutionary_algorithm.html#a6bfc2fa59b199da6259b5b6bad3d6de7" target="_top" xlink:title=" ">
<polygon fill="white" stroke="black" points="190,-78.5 190,-108.5 314,-108.5 314,-78.5 190,-78.5"/>
<text text-anchor="start" x="198" y="-96.5" font-family="Helvetica,sans-Serif" font-size="10.00">denoptim.ga.Evolutionary</text>
<text text-anchor="middle" x="252" y="-85.5" font-family="Helvetica,sans-Serif" font-size="10.00">Algorithm.run</text>
</a>
</g>
</g>
<!-- Node8&#45;&gt;Node9 -->
<g id="edge8" class="edge">
<title>Node8&#45;&gt;Node9</title>
<path fill="none" stroke="midnightblue" d="M342.9,-107.04C333.21,-105.58 323.41,-104.1 314.01,-102.69"/>
<polygon fill="midnightblue" stroke="midnightblue" points="342.51,-110.52 352.92,-108.55 343.55,-103.6 342.51,-110.52"/>
</g>
<!-- Node10 -->
<g id="node10" class="node">
<title>Node10</title>
<g id="a_node10"><a xlink:href="classdenoptim_1_1ga_1_1_evolutionary_algorithm.html#a0f2063b722b7291daf83d62acaa683d3" target="_top" xlink:title=" ">
<polygon fill="white" stroke="black" points="0,-103.5 0,-133.5 154,-133.5 154,-103.5 0,-103.5"/>
<text text-anchor="start" x="8" y="-121.5" font-family="Helvetica,sans-Serif" font-size="10.00">denoptim.ga.Evolutionary</text>
<text text-anchor="middle" x="77" y="-110.5" font-family="Helvetica,sans-Serif" font-size="10.00">Algorithm.EvolutionaryAlgorithm</text>
</a>
</g>
</g>
<!-- Node9&#45;&gt;Node10 -->
<g id="edge9" class="edge">
<title>Node9&#45;&gt;Node10</title>
<path fill="none" stroke="midnightblue" d="M179.44,-103.84C171.09,-105.05 162.54,-106.28 154.12,-107.5"/>
<polygon fill="midnightblue" stroke="midnightblue" points="180.12,-107.28 189.52,-102.38 179.12,-100.35 180.12,-107.28"/>
</g>
<!-- Node11 -->
<g id="node11" class="node">
<title>Node11</title>
<g id="a_node11"><a xlink:href="classdenoptim_1_1programs_1_1denovo_1_1_g_a_runner.html#a7cafd6d78727b89dce3e2c8d06f0dd7c" target="_top" xlink:title=" ">
<polygon fill="white" stroke="black" points="9.5,-54.5 9.5,-84.5 144.5,-84.5 144.5,-54.5 9.5,-54.5"/>
<text text-anchor="start" x="17.5" y="-72.5" font-family="Helvetica,sans-Serif" font-size="10.00">denoptim.programs.denovo.</text>
<text text-anchor="middle" x="77" y="-61.5" font-family="Helvetica,sans-Serif" font-size="10.00">GARunner.runProgram</text>
</a>
</g>
</g>
<!-- Node9&#45;&gt;Node11 -->
<g id="edge10" class="edge">
<title>Node9&#45;&gt;Node11</title>
<path fill="none" stroke="midnightblue" d="M179.48,-83.58C167.92,-81.97 156,-80.32 144.57,-78.73"/>
<polygon fill="midnightblue" stroke="midnightblue" points="179.13,-87.06 189.52,-84.97 180.1,-80.13 179.13,-87.06"/>
</g>
<!-- Node12&#45;&gt;Node8 -->
<g id="edge12" class="edge">
<title>Node12&#45;&gt;Node8</title>
<path fill="none" stroke="midnightblue" d="M522.42,-144.91C507.95,-141.14 492.78,-137.19 478.71,-133.53"/>
<polygon fill="midnightblue" stroke="midnightblue" points="521.75,-148.35 532.31,-147.48 523.52,-141.57 521.75,-148.35"/>
</g>
<!-- Node13&#45;&gt;Node7 -->
<g id="edge16" class="edge">
<title>Node13&#45;&gt;Node7</title>
<path fill="none" stroke="midnightblue" d="M690.61,-113.5C679.12,-113.5 667.3,-113.5 656.03,-113.5"/>
<polygon fill="midnightblue" stroke="midnightblue" points="690.61,-117 700.61,-113.5 690.61,-110 690.61,-117"/>
</g>
<!-- Node13&#45;&gt;Node12 -->
<g id="edge17" class="edge">
<title>Node13&#45;&gt;Node12</title>
<path fill="none" stroke="midnightblue" d="M700.87,-131.39C682.42,-136.66 662.44,-142.38 644.68,-147.45"/>
<polygon fill="midnightblue" stroke="midnightblue" points="701.99,-134.71 710.64,-128.6 700.07,-127.98 701.99,-134.71"/>
</g>
<!-- Node14 -->
<g id="node14" class="node">
<title>Node14</title>
<g id="a_node14"><a xlink:href="classdenoptim_1_1ga_1_1_evolutionary_algorithm.html#ad43588620dab3340e0d8b0042ec73618" target="_top" xlink:title="Fills up the population with candidates build from scratch.">
<polygon fill="white" stroke="black" points="350,-54.5 350,-84.5 490,-84.5 490,-54.5 350,-54.5"/>
<text text-anchor="start" x="358" y="-72.5" font-family="Helvetica,sans-Serif" font-size="10.00">denoptim.ga.Evolutionary</text>
<text text-anchor="middle" x="420" y="-61.5" font-family="Helvetica,sans-Serif" font-size="10.00">Algorithm.initializePopulation</text>
</a>
</g>
</g>
<!-- Node13&#45;&gt;Node14 -->
<g id="edge14" class="edge">
<title>Node13&#45;&gt;Node14</title>
<path fill="none" stroke="midnightblue" d="M696.09,-96.22C682.87,-93.28 669.05,-90.53 656,-88.5 600.59,-79.87 537.19,-75.03 490.21,-72.4"/>
<polygon fill="midnightblue" stroke="midnightblue" points="695.54,-99.68 706.06,-98.49 697.09,-92.86 695.54,-99.68"/>
</g>
<!-- Node14&#45;&gt;Node9 -->
<g id="edge15" class="edge">
<title>Node14&#45;&gt;Node9</title>
<path fill="none" stroke="midnightblue" d="M339.6,-80.98C331.08,-82.21 322.5,-83.45 314.24,-84.65"/>
<polygon fill="midnightblue" stroke="midnightblue" points="340.17,-84.43 349.56,-79.54 339.16,-77.51 340.17,-84.43"/>
</g>
<!-- Node16&#45;&gt;Node4 -->
<g id="edge24" class="edge">
<title>Node16&#45;&gt;Node4</title>
<path fill="none" stroke="midnightblue" d="M1307,-66.93C1286,-72.05 1262.84,-77.7 1241.13,-82.99"/>
<polygon fill="midnightblue" stroke="midnightblue" points="1307.91,-70.31 1316.8,-64.54 1306.26,-63.51 1307.91,-70.31"/>
</g>
<!-- Node17 -->
<g id="node17" class="node">
<title>Node17</title>
<g id="a_node17"><a xlink:href="classdenoptim_1_1graph_1_1rings_1_1_cyclic_graph_handler.html#a3ce96322723f45d9285a248ebcef94d3" target="_top" xlink:title="Identifies all possible ring closing paths and returns them as list of DENOPTIMRings ready to be appe...">
<polygon fill="white" stroke="black" points="1064,-23 1064,-64 1248,-64 1248,-23 1064,-23"/>
<text text-anchor="start" x="1072" y="-52" font-family="Helvetica,sans-Serif" font-size="10.00">denoptim.graph.rings.Cyclic</text>
<text text-anchor="start" x="1072" y="-41" font-family="Helvetica,sans-Serif" font-size="10.00">GraphHandler.getPossibleCombination</text>
<text text-anchor="middle" x="1156" y="-30" font-family="Helvetica,sans-Serif" font-size="10.00">OfRings</text>
</a>
</g>
</g>
<!-- Node16&#45;&gt;Node17 -->
<g id="edge20" class="edge">
<title>Node16&#45;&gt;Node17</title>
<path fill="none" stroke="midnightblue" d="M1273.85,-46.67C1265.25,-46.43 1256.59,-46.2 1248.1,-45.97"/>
<polygon fill="midnightblue" stroke="midnightblue" points="1273.83,-50.17 1283.92,-46.94 1274.02,-43.17 1273.83,-50.17"/>
</g>
<!-- Node17&#45;&gt;Node5 -->
<g id="edge23" class="edge">
<title>Node17&#45;&gt;Node5</title>
<path fill="none" stroke="midnightblue" d="M1075.58,-66.92C1051.02,-74.16 1024.63,-81.94 1002.53,-88.46"/>
<polygon fill="midnightblue" stroke="midnightblue" points="1076.65,-70.25 1085.25,-64.06 1074.67,-63.54 1076.65,-70.25"/>
</g>
<!-- Node18 -->
<g id="node18" class="node">
<title>Node18</title>
<g id="a_node18"><a xlink:href="classdenoptim_1_1graph_1_1_d_graph.html#a7a4743d014e860237f4b20703ef9779b" target="_top" xlink:title="Evaluates the possibility of closing rings in this graph and generates all alternative graphs resulti...">
<polygon fill="white" stroke="black" points="873,-9.5 873,-39.5 1028,-39.5 1028,-9.5 873,-9.5"/>
<text text-anchor="start" x="881" y="-27.5" font-family="Helvetica,sans-Serif" font-size="10.00">denoptim.graph.DGraph.make</text>
<text text-anchor="middle" x="950.5" y="-16.5" font-family="Helvetica,sans-Serif" font-size="10.00">AllGraphsWithDifferentRingSets</text>
</a>
</g>
</g>
<!-- Node17&#45;&gt;Node18 -->
<g id="edge21" class="edge">
<title>Node17&#45;&gt;Node18</title>
<path fill="none" stroke="midnightblue" d="M1053.84,-34.06C1045.2,-33.25 1036.56,-32.44 1028.16,-31.66"/>
<polygon fill="midnightblue" stroke="midnightblue" points="1053.68,-37.56 1063.96,-35 1054.33,-30.59 1053.68,-37.56"/>
</g>
<!-- Node19 -->
<g id="node19" class="node">
<title>Node19</title>
<g id="a_node19"><a xlink:href="classdenoptim_1_1combinatorial_1_1_graph_building_task.html#a3eaee724fc921194fa158714aafe182d" target="_top" xlink:title="Calls the task.">
<polygon fill="white" stroke="black" points="692,-0.5 692,-30.5 837,-30.5 837,-0.5 692,-0.5"/>
<text text-anchor="start" x="700" y="-18.5" font-family="Helvetica,sans-Serif" font-size="10.00">denoptim.combinatorial.Graph</text>
<text text-anchor="middle" x="764.5" y="-7.5" font-family="Helvetica,sans-Serif" font-size="10.00">BuildingTask.call</text>
</a>
</g>
</g>
<!-- Node18&#45;&gt;Node19 -->
<g id="edge22" class="edge">
<title>Node18&#45;&gt;Node19</title>
<path fill="none" stroke="midnightblue" d="M862.75,-20.26C854.15,-19.84 845.49,-19.41 837.07,-19"/>
<polygon fill="midnightblue" stroke="midnightblue" points="862.64,-23.76 872.8,-20.75 862.98,-16.76 862.64,-23.76"/>
</g>
</g>
</svg>
