<?xml version="1.0" encoding="UTF-8" standalone="no"?>
<!DOCTYPE svg PUBLIC "-//W3C//DTD SVG 1.1//EN"
 "http://www.w3.org/Graphics/SVG/1.1/DTD/svg11.dtd">
<!-- Generated by graphviz version 3.0.0 (20221109.1736)
 -->
<!-- Title: denoptim.graph.Edge.getSrcAPID Pages: 1 -->
<!--zoomable 279 -->
<svg id="main" version="1.1" xmlns="http://www.w3.org/2000/svg" xmlns:xlink="http://www.w3.org/1999/xlink" xml:space="preserve" onload="init(evt)">
<style type="text/css"><![CDATA[
.edge:hover path { stroke: red; }
.edge:hover polygon { stroke: red; fill: red; }
]]></style>
<script type="text/javascript"><![CDATA[
var edges = document.getElementsByTagName('g');
if (edges && edges.length) {
  for (var i=0;i<edges.length;i++) {
    if (edges[i].id.substr(0,4)=='edge') {
      edges[i].setAttribute('class','edge');
    }
  }
}
]]></script>
        <defs>
                <circle id="rim" cx="0" cy="0" r="7"/>
                <circle id="rim2" cx="0" cy="0" r="3.5"/>
                <g id="zoomPlus">
                        <use xlink:href="#rim" fill="#404040">
                                <set attributeName="fill" to="#808080" begin="zoomplus.mouseover" end="zoomplus.mouseout"/>
                        </use>
                        <path d="M-4,0h8M0,-4v8" fill="none" stroke="white" stroke-width="1.5" pointer-events="none"/>
                </g>
                <g id="zoomMin">
                        <use xlink:href="#rim" fill="#404040">
                                <set attributeName="fill" to="#808080" begin="zoomminus.mouseover" end="zoomminus.mouseout"/>
                        </use>
                        <path d="M-4,0h8" fill="none" stroke="white" stroke-width="1.5" pointer-events="none"/>
                </g>
                <g id="dirArrow">
                        <path fill="none" stroke="white" stroke-width="1.5" d="M0,-3.0v7 M-2.5,-0.5L0,-3.0L2.5,-0.5"/>
                </g>
               <g id="resetDef">
                       <use xlink:href="#rim2" fill="#404040">
                               <set attributeName="fill" to="#808080" begin="reset.mouseover" end="reset.mouseout"/>
                       </use>
               </g>
        </defs>

<script type="text/javascript">
var viewWidth = 2109;
var viewHeight = 279;
var sectionId = 'dynsection-11';
</script>
<script xlink:href="svgpan.js"/>
<svg id="graph" class="graph">
<g id="viewport">
<title>denoptim.graph.Edge.getSrcAPID</title>
<polygon fill="white" stroke="transparent" points="-4,4 -4,-274.5 2105,-274.5 2105,4 -4,4"/>
<!-- Node1 -->
<g id="node1" class="node">
<title>Node1</title>
<g id="a_node1"><a xlink:title=" ">
<polygon fill="#bfbfbf" stroke="black" points="1940,-117.5 1940,-136.5 2101,-136.5 2101,-117.5 1940,-117.5"/>
<text text-anchor="middle" x="2020.5" y="-124.5" font-family="Helvetica,sans-Serif" font-size="10.00">denoptim.graph.Edge.getSrcAPID</text>
</a>
</g>
</g>
<!-- Node2 -->
<g id="node2" class="node">
<title>Node2</title>
<g id="a_node2"><a xlink:href="classdenoptim_1_1graph_1_1_d_graph.html#a4df69c91a742d22f8d14d44489aeac15" target="_top" xlink:title="Edit this graph according to a given list of edit tasks.">
<polygon fill="white" stroke="black" points="1755.5,-237 1755.5,-267 1891.5,-267 1891.5,-237 1755.5,-237"/>
<text text-anchor="start" x="1763.5" y="-255" font-family="Helvetica,sans-Serif" font-size="10.00">denoptim.graph.DGraph.edit</text>
<text text-anchor="middle" x="1823.5" y="-244" font-family="Helvetica,sans-Serif" font-size="10.00">Graph</text>
</a>
</g>
</g>
<!-- Node1&#45;&gt;Node2 -->
<g id="edge1" class="edge">
<title>Node1&#45;&gt;Node2</title>
<path fill="none" stroke="midnightblue" d="M2003.4,-144.19C1982.37,-165.74 1943.56,-202.58 1904,-225 1895.88,-229.6 1886.86,-233.59 1877.88,-236.98"/>
<polygon fill="midnightblue" stroke="midnightblue" points="2006.15,-146.37 2010.55,-136.73 2001.1,-141.53 2006.15,-146.37"/>
</g>
<!-- Node4 -->
<g id="node4" class="node">
<title>Node4</title>
<g id="a_node4"><a xlink:href="classdenoptim_1_1graph_1_1rings_1_1_cyclic_graph_handler.html#a8dcec9483dc562e8696ea90a65842327" target="_top" xlink:title="Method to analyze a pair of vertices and evaluate whether they respect the criteria for being the two...">
<polygon fill="white" stroke="black" points="1747,-186 1747,-216 1900,-216 1900,-186 1747,-186"/>
<text text-anchor="start" x="1755" y="-204" font-family="Helvetica,sans-Serif" font-size="10.00">denoptim.graph.rings.Cyclic</text>
<text text-anchor="middle" x="1823.5" y="-193" font-family="Helvetica,sans-Serif" font-size="10.00">GraphHandler.evaluateRCVPair</text>
</a>
</g>
</g>
<!-- Node1&#45;&gt;Node4 -->
<g id="edge3" class="edge">
<title>Node1&#45;&gt;Node4</title>
<path fill="none" stroke="midnightblue" d="M1989.18,-140.81C1966.07,-151.11 1933.33,-165.2 1904,-176 1894.63,-179.45 1884.54,-182.86 1874.79,-185.99"/>
<polygon fill="midnightblue" stroke="midnightblue" points="1990.77,-143.94 1998.46,-136.65 1987.9,-137.55 1990.77,-143.94"/>
</g>
<!-- Node23 -->
<g id="node23" class="node">
<title>Node23</title>
<g id="a_node23"><a xlink:href="classdenoptim_1_1graph_1_1_d_graph.html#a5bac29c23eccedca8d2371ad372d87b6" target="_top" xlink:title=" ">
<polygon fill="white" stroke="black" points="1756.5,-137 1756.5,-167 1890.5,-167 1890.5,-137 1756.5,-137"/>
<text text-anchor="start" x="1764.5" y="-155" font-family="Helvetica,sans-Serif" font-size="10.00">denoptim.graph.DGraph.get</text>
<text text-anchor="middle" x="1823.5" y="-144" font-family="Helvetica,sans-Serif" font-size="10.00">BondingAPIndex</text>
</a>
</g>
</g>
<!-- Node1&#45;&gt;Node23 -->
<g id="edge28" class="edge">
<title>Node1&#45;&gt;Node23</title>
<path fill="none" stroke="midnightblue" d="M1935.01,-137.83C1920.14,-139.74 1904.86,-141.7 1890.59,-143.53"/>
<polygon fill="midnightblue" stroke="midnightblue" points="1935.75,-141.27 1945.22,-136.52 1934.86,-134.32 1935.75,-141.27"/>
</g>
<!-- Node24 -->
<g id="node24" class="node">
<title>Node24</title>
<g id="a_node24"><a xlink:href="classdenoptim_1_1ga_1_1_graph_operations.html#a7a13e1b1304c0857ae6fa97b744e7289" target="_top" xlink:title="Method to select fragments that increase the likeliness of generating closable chains.">
<polygon fill="white" stroke="black" points="1743,-88 1743,-118 1904,-118 1904,-88 1743,-88"/>
<text text-anchor="start" x="1751" y="-106" font-family="Helvetica,sans-Serif" font-size="10.00">denoptim.ga.GraphOperations.get</text>
<text text-anchor="middle" x="1823.5" y="-95" font-family="Helvetica,sans-Serif" font-size="10.00">FragmentForClosableChain</text>
</a>
</g>
</g>
<!-- Node1&#45;&gt;Node24 -->
<g id="edge29" class="edge">
<title>Node1&#45;&gt;Node24</title>
<path fill="none" stroke="midnightblue" d="M1932.16,-116.25C1922.89,-115.11 1913.49,-113.95 1904.31,-112.82"/>
<polygon fill="midnightblue" stroke="midnightblue" points="1931.8,-119.73 1942.15,-117.48 1932.65,-112.78 1931.8,-119.73"/>
</g>
<!-- Node27 -->
<g id="node27" class="node">
<title>Node27</title>
<g id="a_node27"><a xlink:href="classdenoptim_1_1graph_1_1rings_1_1_path_sub_graph.html#a5c018cc9952d2cac46a5d44f8bf06d8c" target="_top" xlink:title="Constructs a new PathSubGraph specifying the first and last vertex of the path.">
<polygon fill="white" stroke="black" points="1759.5,-39 1759.5,-69 1887.5,-69 1887.5,-39 1759.5,-39"/>
<text text-anchor="start" x="1767.5" y="-57" font-family="Helvetica,sans-Serif" font-size="10.00">denoptim.graph.rings.Path</text>
<text text-anchor="middle" x="1823.5" y="-46" font-family="Helvetica,sans-Serif" font-size="10.00">SubGraph.PathSubGraph</text>
</a>
</g>
</g>
<!-- Node1&#45;&gt;Node27 -->
<g id="edge32" class="edge">
<title>Node1&#45;&gt;Node27</title>
<path fill="none" stroke="midnightblue" d="M1989.64,-113.28C1966.52,-102.92 1933.57,-88.7 1904,-78 1895.46,-74.91 1886.31,-71.89 1877.36,-69.08"/>
<polygon fill="midnightblue" stroke="midnightblue" points="1988.35,-116.54 1998.9,-117.46 1991.23,-110.16 1988.35,-116.54"/>
</g>
<!-- Node28 -->
<g id="node28" class="node">
<title>Node28</title>
<g id="a_node28"><a xlink:href="classdenoptim_1_1graph_1_1_edge.html#a9a7430e5a0df146b404ca4d30e0beee4" target="_top" xlink:title=" ">
<polygon fill="white" stroke="black" points="1752,-0.5 1752,-19.5 1895,-19.5 1895,-0.5 1752,-0.5"/>
<text text-anchor="middle" x="1823.5" y="-7.5" font-family="Helvetica,sans-Serif" font-size="10.00">denoptim.graph.Edge.toString</text>
</a>
</g>
</g>
<!-- Node1&#45;&gt;Node28 -->
<g id="edge33" class="edge">
<title>Node1&#45;&gt;Node28</title>
<path fill="none" stroke="midnightblue" d="M2004.03,-109.57C1983.41,-87.44 1944.77,-49.66 1904,-29 1896.41,-25.15 1888,-22.06 1879.59,-19.59"/>
<polygon fill="midnightblue" stroke="midnightblue" points="2001.69,-112.19 2011.02,-117.21 2006.86,-107.47 2001.69,-112.19"/>
</g>
<!-- Node3 -->
<g id="node3" class="node">
<title>Node3</title>
<g id="a_node3"><a xlink:href="classdenoptim_1_1programs_1_1grapheditor_1_1_graph_editor.html#a649a62e3d4635ef4c19424fa49e6dcd4" target="_top" xlink:title=" ">
<polygon fill="white" stroke="black" points="1533,-238 1533,-268 1685,-268 1685,-238 1533,-238"/>
<text text-anchor="start" x="1541" y="-256" font-family="Helvetica,sans-Serif" font-size="10.00">denoptim.programs.grapheditor.</text>
<text text-anchor="middle" x="1609" y="-245" font-family="Helvetica,sans-Serif" font-size="10.00">GraphEditor.runProgram</text>
</a>
</g>
</g>
<!-- Node2&#45;&gt;Node3 -->
<g id="edge2" class="edge">
<title>Node2&#45;&gt;Node3</title>
<path fill="none" stroke="midnightblue" d="M1745.2,-252.36C1725.67,-252.46 1704.72,-252.55 1685.29,-252.65"/>
<polygon fill="midnightblue" stroke="midnightblue" points="1745.28,-255.86 1755.26,-252.32 1745.25,-248.86 1745.28,-255.86"/>
</g>
<!-- Node5 -->
<g id="node5" class="node">
<title>Node5</title>
<g id="a_node5"><a xlink:href="classdenoptim_1_1graph_1_1rings_1_1_cyclic_graph_handler_1_1_ring_size_manager.html#a68b1aa5cd1df8bb959064588e994b74e" target="_top" xlink:title=" ">
<polygon fill="white" stroke="black" points="1511,-178.5 1511,-219.5 1707,-219.5 1707,-178.5 1511,-178.5"/>
<text text-anchor="start" x="1519" y="-207.5" font-family="Helvetica,sans-Serif" font-size="10.00">denoptim.graph.rings.Cyclic</text>
<text text-anchor="start" x="1519" y="-196.5" font-family="Helvetica,sans-Serif" font-size="10.00">GraphHandler.RingSizeManager.calculate</text>
<text text-anchor="middle" x="1609" y="-185.5" font-family="Helvetica,sans-Serif" font-size="10.00">CompatibilityOfAllRCAPairs</text>
</a>
</g>
</g>
<!-- Node4&#45;&gt;Node5 -->
<g id="edge4" class="edge">
<title>Node4&#45;&gt;Node5</title>
<path fill="none" stroke="midnightblue" d="M1736.9,-200.19C1727.13,-200.1 1717.11,-200.01 1707.2,-199.91"/>
<polygon fill="midnightblue" stroke="midnightblue" points="1736.95,-203.69 1746.98,-200.29 1737.02,-196.7 1736.95,-203.69"/>
</g>
<!-- Node6 -->
<g id="node6" class="node">
<title>Node6</title>
<g id="a_node6"><a xlink:href="classdenoptim_1_1graph_1_1rings_1_1_cyclic_graph_handler_1_1_ring_size_manager.html#a0fc0f3889f18d330fc50f28a4264ca21" target="_top" xlink:title=" ">
<polygon fill="white" stroke="black" points="1293,-155.5 1293,-196.5 1466,-196.5 1466,-155.5 1293,-155.5"/>
<text text-anchor="start" x="1301" y="-184.5" font-family="Helvetica,sans-Serif" font-size="10.00">denoptim.graph.rings.Cyclic</text>
<text text-anchor="start" x="1301" y="-173.5" font-family="Helvetica,sans-Serif" font-size="10.00">GraphHandler.RingSizeManager.add</text>
<text text-anchor="middle" x="1379.5" y="-162.5" font-family="Helvetica,sans-Serif" font-size="10.00">RingClosingBond</text>
</a>
</g>
</g>
<!-- Node5&#45;&gt;Node6 -->
<g id="edge5" class="edge">
<title>Node5&#45;&gt;Node6</title>
<path fill="none" stroke="midnightblue" d="M1500.72,-188.15C1489.13,-186.98 1477.46,-185.8 1466.18,-184.66"/>
<polygon fill="midnightblue" stroke="midnightblue" points="1500.56,-191.66 1510.86,-189.18 1501.26,-184.69 1500.56,-191.66"/>
</g>
<!-- Node19 -->
<g id="node19" class="node">
<title>Node19</title>
<g id="a_node19"><a xlink:href="classdenoptim_1_1graph_1_1rings_1_1_cyclic_graph_handler_1_1_ring_size_manager.html#a9b1b85afae57c94c9059527bd796259c" target="_top" xlink:title=" ">
<polygon fill="white" stroke="black" points="1284,-215 1284,-245 1475,-245 1475,-215 1284,-215"/>
<text text-anchor="start" x="1292" y="-233" font-family="Helvetica,sans-Serif" font-size="10.00">denoptim.graph.rings.Cyclic</text>
<text text-anchor="middle" x="1379.5" y="-222" font-family="Helvetica,sans-Serif" font-size="10.00">GraphHandler.RingSizeManager.initialize</text>
</a>
</g>
</g>
<!-- Node5&#45;&gt;Node19 -->
<g id="edge22" class="edge">
<title>Node5&#45;&gt;Node19</title>
<path fill="none" stroke="midnightblue" d="M1500.83,-213.6C1492.25,-214.77 1483.63,-215.95 1475.15,-217.1"/>
<polygon fill="midnightblue" stroke="midnightblue" points="1501.42,-217.05 1510.86,-212.24 1500.48,-210.12 1501.42,-217.05"/>
</g>
<!-- Node7 -->
<g id="node7" class="node">
<title>Node7</title>
<g id="a_node7"><a xlink:href="classdenoptim_1_1graph_1_1rings_1_1_cyclic_graph_handler.html#a08b02946eaac7c2cbbe6e71332d702e6" target="_top" xlink:title="Identifies a random combination of ring closing paths and returns it as list of DENOPTIMRings ready t...">
<polygon fill="white" stroke="black" points="1065,-155.5 1065,-196.5 1247,-196.5 1247,-155.5 1065,-155.5"/>
<text text-anchor="start" x="1073" y="-184.5" font-family="Helvetica,sans-Serif" font-size="10.00">denoptim.graph.rings.Cyclic</text>
<text text-anchor="start" x="1073" y="-173.5" font-family="Helvetica,sans-Serif" font-size="10.00">GraphHandler.getRandomCombination</text>
<text text-anchor="middle" x="1156" y="-162.5" font-family="Helvetica,sans-Serif" font-size="10.00">OfRings</text>
</a>
</g>
</g>
<!-- Node6&#45;&gt;Node7 -->
<g id="edge6" class="edge">
<title>Node6&#45;&gt;Node7</title>
<path fill="none" stroke="midnightblue" d="M1282.6,-176C1270.84,-176 1258.85,-176 1247.18,-176"/>
<polygon fill="midnightblue" stroke="midnightblue" points="1282.86,-179.5 1292.86,-176 1282.86,-172.5 1282.86,-179.5"/>
</g>
<!-- Node8 -->
<g id="node8" class="node">
<title>Node8</title>
<g id="a_node8"><a xlink:href="classdenoptim_1_1ga_1_1_e_a_utils.html#a1ddb932d4618434d435e4f85ce5e5eb5" target="_top" xlink:title="Evaluates the possibility of closing rings in a given graph and if any ring can be closed,...">
<polygon fill="white" stroke="black" points="885,-161 885,-191 1016,-191 1016,-161 885,-161"/>
<text text-anchor="start" x="893" y="-179" font-family="Helvetica,sans-Serif" font-size="10.00">denoptim.ga.EAUtils.setup</text>
<text text-anchor="middle" x="950.5" y="-168" font-family="Helvetica,sans-Serif" font-size="10.00">Rings</text>
</a>
</g>
</g>
<!-- Node7&#45;&gt;Node8 -->
<g id="edge7" class="edge">
<title>Node7&#45;&gt;Node8</title>
<path fill="none" stroke="midnightblue" d="M1054.84,-176C1041.72,-176 1028.56,-176 1016.24,-176"/>
<polygon fill="midnightblue" stroke="midnightblue" points="1054.85,-179.5 1064.85,-176 1054.85,-172.5 1054.85,-179.5"/>
</g>
<!-- Node9 -->
<g id="node9" class="node">
<title>Node9</title>
<g id="a_node9"><a xlink:href="classdenoptim_1_1ga_1_1_e_a_utils.html#a8122818f58919fce84dce75e7506025a" target="_top" xlink:title=" ">
<polygon fill="white" stroke="black" points="701,-142 701,-172 828,-172 828,-142 701,-142"/>
<text text-anchor="start" x="709" y="-160" font-family="Helvetica,sans-Serif" font-size="10.00">denoptim.ga.EAUtils.build</text>
<text text-anchor="middle" x="764.5" y="-149" font-family="Helvetica,sans-Serif" font-size="10.00">CandidateByMutation</text>
</a>
</g>
</g>
<!-- Node8&#45;&gt;Node9 -->
<g id="edge8" class="edge">
<title>Node8&#45;&gt;Node9</title>
<path fill="none" stroke="midnightblue" d="M874.81,-168.29C859.31,-166.69 843.12,-165.02 828.1,-163.46"/>
<polygon fill="midnightblue" stroke="midnightblue" points="874.58,-171.78 884.89,-169.33 875.3,-164.82 874.58,-171.78"/>
</g>
<!-- Node16 -->
<g id="node16" class="node">
<title>Node16</title>
<g id="a_node16"><a xlink:href="classdenoptim_1_1ga_1_1_e_a_utils.html#ad3d2daeb11e68a356e971ca1846596b5" target="_top" xlink:title=" ">
<polygon fill="white" stroke="black" points="701,-93 701,-123 828,-123 828,-93 701,-93"/>
<text text-anchor="start" x="709" y="-111" font-family="Helvetica,sans-Serif" font-size="10.00">denoptim.ga.EAUtils.build</text>
<text text-anchor="middle" x="764.5" y="-100" font-family="Helvetica,sans-Serif" font-size="10.00">CandidateFromScratch</text>
</a>
</g>
</g>
<!-- Node8&#45;&gt;Node16 -->
<g id="edge16" class="edge">
<title>Node8&#45;&gt;Node16</title>
<path fill="none" stroke="midnightblue" d="M903.13,-157.28C882.91,-149.26 858.87,-139.94 837,-132 828.75,-129.01 819.93,-125.93 811.39,-123.03"/>
<polygon fill="midnightblue" stroke="midnightblue" points="901.84,-160.53 912.43,-160.97 904.43,-154.03 901.84,-160.53"/>
</g>
<!-- Node18 -->
<g id="node18" class="node">
<title>Node18</title>
<g id="a_node18"><a xlink:href="classdenoptim_1_1ga_1_1_e_a_utils.html#a0b958439d79fae30f14530213ad22e3a" target="_top" xlink:title="Generates up to a pair of new offspring by performing a crossover operation.">
<polygon fill="white" stroke="black" points="701,-191 701,-221 828,-221 828,-191 701,-191"/>
<text text-anchor="start" x="709" y="-209" font-family="Helvetica,sans-Serif" font-size="10.00">denoptim.ga.EAUtils.build</text>
<text text-anchor="middle" x="764.5" y="-198" font-family="Helvetica,sans-Serif" font-size="10.00">CandidatesByXOver</text>
</a>
</g>
</g>
<!-- Node8&#45;&gt;Node18 -->
<g id="edge21" class="edge">
<title>Node8&#45;&gt;Node18</title>
<path fill="none" stroke="midnightblue" d="M874.81,-188.18C859.31,-190.71 843.12,-193.34 828.1,-195.79"/>
<polygon fill="midnightblue" stroke="midnightblue" points="875.58,-191.6 884.89,-186.53 874.45,-184.69 875.58,-191.6"/>
</g>
<!-- Node10 -->
<g id="node10" class="node">
<title>Node10</title>
<g id="a_node10"><a xlink:href="classdenoptim_1_1ga_1_1_evolutionary_algorithm.html#a0c2e353b243250b4959a3f86608f1020" target="_top" xlink:title="Generates one offspring according to the method where crossover and mutation are decoupled,...">
<polygon fill="white" stroke="black" points="526,-142 526,-172 656,-172 656,-142 526,-142"/>
<text text-anchor="start" x="534" y="-160" font-family="Helvetica,sans-Serif" font-size="10.00">denoptim.ga.Evolutionary</text>
<text text-anchor="middle" x="591" y="-149" font-family="Helvetica,sans-Serif" font-size="10.00">Algorithm.makeOffspringA</text>
</a>
</g>
</g>
<!-- Node9&#45;&gt;Node10 -->
<g id="edge9" class="edge">
<title>Node9&#45;&gt;Node10</title>
<path fill="none" stroke="midnightblue" d="M690.61,-157C679.12,-157 667.3,-157 656.03,-157"/>
<polygon fill="midnightblue" stroke="midnightblue" points="690.61,-160.5 700.61,-157 690.61,-153.5 690.61,-160.5"/>
</g>
<!-- Node15 -->
<g id="node15" class="node">
<title>Node15</title>
<g id="a_node15"><a xlink:href="classdenoptim_1_1ga_1_1_evolutionary_algorithm.html#ae7a90a911b109ed47b3acf54193acc35" target="_top" xlink:title="Generates one offspring according to the method where crossover and mutation are coupled,...">
<polygon fill="white" stroke="black" points="526,-93 526,-123 656,-123 656,-93 526,-93"/>
<text text-anchor="start" x="534" y="-111" font-family="Helvetica,sans-Serif" font-size="10.00">denoptim.ga.Evolutionary</text>
<text text-anchor="middle" x="591" y="-100" font-family="Helvetica,sans-Serif" font-size="10.00">Algorithm.makeOffspringB</text>
</a>
</g>
</g>
<!-- Node9&#45;&gt;Node15 -->
<g id="edge14" class="edge">
<title>Node9&#45;&gt;Node15</title>
<path fill="none" stroke="midnightblue" d="M700.87,-139.11C682.42,-133.84 662.44,-128.12 644.68,-123.05"/>
<polygon fill="midnightblue" stroke="midnightblue" points="700.07,-142.52 710.64,-141.9 701.99,-135.79 700.07,-142.52"/>
</g>
<!-- Node11 -->
<g id="node11" class="node">
<title>Node11</title>
<g id="a_node11"><a xlink:href="classdenoptim_1_1ga_1_1_evolutionary_algorithm.html#a596b2f5f0b097c5b67a6e5163bd6fe66" target="_top" xlink:title="Generates a given number of new candidate items and adds them to the current population.">
<polygon fill="white" stroke="black" points="353,-98 353,-128 487,-128 487,-98 353,-98"/>
<text text-anchor="start" x="361" y="-116" font-family="Helvetica,sans-Serif" font-size="10.00">denoptim.ga.Evolutionary</text>
<text text-anchor="middle" x="420" y="-105" font-family="Helvetica,sans-Serif" font-size="10.00">Algorithm.evolvePopulation</text>
</a>
</g>
</g>
<!-- Node10&#45;&gt;Node11 -->
<g id="edge10" class="edge">
<title>Node10&#45;&gt;Node11</title>
<path fill="none" stroke="midnightblue" d="M522.42,-139.41C507.95,-135.64 492.78,-131.69 478.71,-128.03"/>
<polygon fill="midnightblue" stroke="midnightblue" points="521.75,-142.85 532.31,-141.98 523.52,-136.07 521.75,-142.85"/>
</g>
<!-- Node12 -->
<g id="node12" class="node">
<title>Node12</title>
<g id="a_node12"><a xlink:href="classdenoptim_1_1ga_1_1_evolutionary_algorithm.html#a6bfc2fa59b199da6259b5b6bad3d6de7" target="_top" xlink:title=" ">
<polygon fill="white" stroke="black" points="190,-73 190,-103 314,-103 314,-73 190,-73"/>
<text text-anchor="start" x="198" y="-91" font-family="Helvetica,sans-Serif" font-size="10.00">denoptim.ga.Evolutionary</text>
<text text-anchor="middle" x="252" y="-80" font-family="Helvetica,sans-Serif" font-size="10.00">Algorithm.run</text>
</a>
</g>
</g>
<!-- Node11&#45;&gt;Node12 -->
<g id="edge11" class="edge">
<title>Node11&#45;&gt;Node12</title>
<path fill="none" stroke="midnightblue" d="M342.9,-101.54C333.21,-100.08 323.41,-98.6 314.01,-97.19"/>
<polygon fill="midnightblue" stroke="midnightblue" points="342.51,-105.02 352.92,-103.05 343.55,-98.1 342.51,-105.02"/>
</g>
<!-- Node13 -->
<g id="node13" class="node">
<title>Node13</title>
<g id="a_node13"><a xlink:href="classdenoptim_1_1ga_1_1_evolutionary_algorithm.html#a0f2063b722b7291daf83d62acaa683d3" target="_top" xlink:title=" ">
<polygon fill="white" stroke="black" points="0,-98 0,-128 154,-128 154,-98 0,-98"/>
<text text-anchor="start" x="8" y="-116" font-family="Helvetica,sans-Serif" font-size="10.00">denoptim.ga.Evolutionary</text>
<text text-anchor="middle" x="77" y="-105" font-family="Helvetica,sans-Serif" font-size="10.00">Algorithm.EvolutionaryAlgorithm</text>
</a>
</g>
</g>
<!-- Node12&#45;&gt;Node13 -->
<g id="edge12" class="edge">
<title>Node12&#45;&gt;Node13</title>
<path fill="none" stroke="midnightblue" d="M179.44,-98.34C171.09,-99.55 162.54,-100.78 154.12,-102"/>
<polygon fill="midnightblue" stroke="midnightblue" points="180.12,-101.78 189.52,-96.88 179.12,-94.85 180.12,-101.78"/>
</g>
<!-- Node14 -->
<g id="node14" class="node">
<title>Node14</title>
<g id="a_node14"><a xlink:href="classdenoptim_1_1programs_1_1denovo_1_1_g_a_runner.html#a7cafd6d78727b89dce3e2c8d06f0dd7c" target="_top" xlink:title=" ">
<polygon fill="white" stroke="black" points="9.5,-49 9.5,-79 144.5,-79 144.5,-49 9.5,-49"/>
<text text-anchor="start" x="17.5" y="-67" font-family="Helvetica,sans-Serif" font-size="10.00">denoptim.programs.denovo.</text>
<text text-anchor="middle" x="77" y="-56" font-family="Helvetica,sans-Serif" font-size="10.00">GARunner.runProgram</text>
</a>
</g>
</g>
<!-- Node12&#45;&gt;Node14 -->
<g id="edge13" class="edge">
<title>Node12&#45;&gt;Node14</title>
<path fill="none" stroke="midnightblue" d="M179.48,-78.08C167.92,-76.47 156,-74.82 144.57,-73.23"/>
<polygon fill="midnightblue" stroke="midnightblue" points="179.13,-81.56 189.52,-79.47 180.1,-74.63 179.13,-81.56"/>
</g>
<!-- Node15&#45;&gt;Node11 -->
<g id="edge15" class="edge">
<title>Node15&#45;&gt;Node11</title>
<path fill="none" stroke="midnightblue" d="M515.48,-110.2C506.05,-110.48 496.45,-110.77 487.16,-111.04"/>
<polygon fill="midnightblue" stroke="midnightblue" points="515.73,-113.7 525.63,-109.9 515.53,-106.7 515.73,-113.7"/>
</g>
<!-- Node16&#45;&gt;Node10 -->
<g id="edge19" class="edge">
<title>Node16&#45;&gt;Node10</title>
<path fill="none" stroke="midnightblue" d="M700.87,-125.89C682.42,-131.16 662.44,-136.88 644.68,-141.95"/>
<polygon fill="midnightblue" stroke="midnightblue" points="701.99,-129.21 710.64,-123.1 700.07,-122.48 701.99,-129.21"/>
</g>
<!-- Node16&#45;&gt;Node15 -->
<g id="edge20" class="edge">
<title>Node16&#45;&gt;Node15</title>
<path fill="none" stroke="midnightblue" d="M690.61,-108C679.12,-108 667.3,-108 656.03,-108"/>
<polygon fill="midnightblue" stroke="midnightblue" points="690.61,-111.5 700.61,-108 690.61,-104.5 690.61,-111.5"/>
</g>
<!-- Node17 -->
<g id="node17" class="node">
<title>Node17</title>
<g id="a_node17"><a xlink:href="classdenoptim_1_1ga_1_1_evolutionary_algorithm.html#ad43588620dab3340e0d8b0042ec73618" target="_top" xlink:title="Fills up the population with candidates build from scratch.">
<polygon fill="white" stroke="black" points="350,-49 350,-79 490,-79 490,-49 350,-49"/>
<text text-anchor="start" x="358" y="-67" font-family="Helvetica,sans-Serif" font-size="10.00">denoptim.ga.Evolutionary</text>
<text text-anchor="middle" x="420" y="-56" font-family="Helvetica,sans-Serif" font-size="10.00">Algorithm.initializePopulation</text>
</a>
</g>
</g>
<!-- Node16&#45;&gt;Node17 -->
<g id="edge17" class="edge">
<title>Node16&#45;&gt;Node17</title>
<path fill="none" stroke="midnightblue" d="M696.09,-90.72C682.87,-87.78 669.05,-85.03 656,-83 600.59,-74.37 537.19,-69.53 490.21,-66.9"/>
<polygon fill="midnightblue" stroke="midnightblue" points="695.54,-94.18 706.06,-92.99 697.09,-87.36 695.54,-94.18"/>
</g>
<!-- Node17&#45;&gt;Node12 -->
<g id="edge18" class="edge">
<title>Node17&#45;&gt;Node12</title>
<path fill="none" stroke="midnightblue" d="M339.6,-75.48C331.08,-76.71 322.5,-77.95 314.24,-79.15"/>
<polygon fill="midnightblue" stroke="midnightblue" points="340.17,-78.93 349.56,-74.04 339.16,-72.01 340.17,-78.93"/>
</g>
<!-- Node19&#45;&gt;Node7 -->
<g id="edge27" class="edge">
<title>Node19&#45;&gt;Node7</title>
<path fill="none" stroke="midnightblue" d="M1307,-212.57C1286,-207.45 1262.84,-201.8 1241.13,-196.51"/>
<polygon fill="midnightblue" stroke="midnightblue" points="1306.26,-215.99 1316.8,-214.96 1307.91,-209.19 1306.26,-215.99"/>
</g>
<!-- Node20 -->
<g id="node20" class="node">
<title>Node20</title>
<g id="a_node20"><a xlink:href="classdenoptim_1_1graph_1_1rings_1_1_cyclic_graph_handler.html#a3ce96322723f45d9285a248ebcef94d3" target="_top" xlink:title="Identifies all possible ring closing paths and returns them as list of DENOPTIMRings ready to be appe...">
<polygon fill="white" stroke="black" points="1064,-215.5 1064,-256.5 1248,-256.5 1248,-215.5 1064,-215.5"/>
<text text-anchor="start" x="1072" y="-244.5" font-family="Helvetica,sans-Serif" font-size="10.00">denoptim.graph.rings.Cyclic</text>
<text text-anchor="start" x="1072" y="-233.5" font-family="Helvetica,sans-Serif" font-size="10.00">GraphHandler.getPossibleCombination</text>
<text text-anchor="middle" x="1156" y="-222.5" font-family="Helvetica,sans-Serif" font-size="10.00">OfRings</text>
</a>
</g>
</g>
<!-- Node19&#45;&gt;Node20 -->
<g id="edge23" class="edge">
<title>Node19&#45;&gt;Node20</title>
<path fill="none" stroke="midnightblue" d="M1273.85,-232.83C1265.25,-233.07 1256.59,-233.3 1248.1,-233.53"/>
<polygon fill="midnightblue" stroke="midnightblue" points="1274.02,-236.33 1283.92,-232.56 1273.83,-229.33 1274.02,-236.33"/>
</g>
<!-- Node20&#45;&gt;Node8 -->
<g id="edge26" class="edge">
<title>Node20&#45;&gt;Node8</title>
<path fill="none" stroke="midnightblue" d="M1075.58,-212.58C1051.02,-205.34 1024.63,-197.56 1002.53,-191.04"/>
<polygon fill="midnightblue" stroke="midnightblue" points="1074.67,-215.96 1085.25,-215.44 1076.65,-209.25 1074.67,-215.96"/>
</g>
<!-- Node21 -->
<g id="node21" class="node">
<title>Node21</title>
<g id="a_node21"><a xlink:href="classdenoptim_1_1graph_1_1_d_graph.html#a7a4743d014e860237f4b20703ef9779b" target="_top" xlink:title="Evaluates the possibility of closing rings in this graph and generates all alternative graphs resulti...">
<polygon fill="white" stroke="black" points="873,-230 873,-260 1028,-260 1028,-230 873,-230"/>
<text text-anchor="start" x="881" y="-248" font-family="Helvetica,sans-Serif" font-size="10.00">denoptim.graph.DGraph.make</text>
<text text-anchor="middle" x="950.5" y="-237" font-family="Helvetica,sans-Serif" font-size="10.00">AllGraphsWithDifferentRingSets</text>
</a>
</g>
</g>
<!-- Node20&#45;&gt;Node21 -->
<g id="edge24" class="edge">
<title>Node20&#45;&gt;Node21</title>
<path fill="none" stroke="midnightblue" d="M1053.84,-240.47C1045.2,-240.86 1036.56,-241.24 1028.16,-241.61"/>
<polygon fill="midnightblue" stroke="midnightblue" points="1054.13,-243.96 1063.96,-240.03 1053.82,-236.97 1054.13,-243.96"/>
</g>
<!-- Node22 -->
<g id="node22" class="node">
<title>Node22</title>
<g id="a_node22"><a xlink:href="classdenoptim_1_1combinatorial_1_1_graph_building_task.html#a3eaee724fc921194fa158714aafe182d" target="_top" xlink:title="Calls the task.">
<polygon fill="white" stroke="black" points="692,-240 692,-270 837,-270 837,-240 692,-240"/>
<text text-anchor="start" x="700" y="-258" font-family="Helvetica,sans-Serif" font-size="10.00">denoptim.combinatorial.Graph</text>
<text text-anchor="middle" x="764.5" y="-247" font-family="Helvetica,sans-Serif" font-size="10.00">BuildingTask.call</text>
</a>
</g>
</g>
<!-- Node21&#45;&gt;Node22 -->
<g id="edge25" class="edge">
<title>Node21&#45;&gt;Node22</title>
<path fill="none" stroke="midnightblue" d="M862.75,-249.71C854.15,-250.18 845.49,-250.65 837.07,-251.11"/>
<polygon fill="midnightblue" stroke="midnightblue" points="863,-253.21 872.8,-249.17 862.62,-246.22 863,-253.21"/>
</g>
<!-- Node25 -->
<g id="node25" class="node">
<title>Node25</title>
<g id="a_node25"><a xlink:href="classdenoptim_1_1ga_1_1_graph_operations.html#a649892c4a2b1d4ccd2f97cae6dd7ed98" target="_top" xlink:title=" ">
<polygon fill="white" stroke="black" points="1522,-88 1522,-118 1696,-118 1696,-88 1522,-88"/>
<text text-anchor="start" x="1530" y="-106" font-family="Helvetica,sans-Serif" font-size="10.00">denoptim.ga.GraphOperations.attach</text>
<text text-anchor="middle" x="1609" y="-95" font-family="Helvetica,sans-Serif" font-size="10.00">FragmentInClosableChain</text>
</a>
</g>
</g>
<!-- Node24&#45;&gt;Node25 -->
<g id="edge30" class="edge">
<title>Node24&#45;&gt;Node25</title>
<path fill="none" stroke="midnightblue" d="M1732.7,-103C1720.62,-103 1708.25,-103 1696.23,-103"/>
<polygon fill="midnightblue" stroke="midnightblue" points="1732.77,-106.5 1742.77,-103 1732.77,-99.5 1732.77,-106.5"/>
</g>
<!-- Node26 -->
<g id="node26" class="node">
<title>Node26</title>
<g id="a_node26"><a xlink:href="classdenoptim_1_1ga_1_1_graph_operations.html#a104e82aba7242a457da09540ff0400da" target="_top" xlink:title="function that will keep extending the graph.">
<polygon fill="white" stroke="black" points="1291.5,-88 1291.5,-118 1467.5,-118 1467.5,-88 1291.5,-88"/>
<text text-anchor="start" x="1299.5" y="-106" font-family="Helvetica,sans-Serif" font-size="10.00">denoptim.ga.GraphOperations.extend</text>
<text text-anchor="middle" x="1379.5" y="-95" font-family="Helvetica,sans-Serif" font-size="10.00">Graph</text>
</a>
</g>
</g>
<!-- Node25&#45;&gt;Node26 -->
<g id="edge31" class="edge">
<title>Node25&#45;&gt;Node26</title>
<path fill="none" stroke="midnightblue" d="M1511.92,-103C1497.27,-103 1482.21,-103 1467.76,-103"/>
<polygon fill="midnightblue" stroke="midnightblue" points="1511.99,-106.5 1521.99,-103 1511.99,-99.5 1511.99,-106.5"/>
</g>
</g>
</svg>
        <g id="navigator" transform="translate(0 0)" fill="#404254">
                <rect fill="#f2f5e9" fill-opacity="0.5" stroke="#606060" stroke-width=".5" x="0" y="0" width="60" height="60"/>
                <use id="zoomplus" xlink:href="#zoomPlus" x="17" y="9" onmousedown="handleZoom(evt,'in')"/>
                <use id="zoomminus" xlink:href="#zoomMin" x="42" y="9" onmousedown="handleZoom(evt,'out')"/>
                <use id="reset" xlink:href="#resetDef" x="30" y="36" onmousedown="handleReset()"/>
                <g id="arrowUp" xlink:href="#dirArrow" transform="translate(30 24)" onmousedown="handlePan(0,-1)">
                  <use xlink:href="#rim" fill="#404040">
                        <set attributeName="fill" to="#808080" begin="arrowUp.mouseover" end="arrowUp.mouseout"/>
                  </use>
                  <path fill="none" stroke="white" stroke-width="1.5" d="M0,-3.0v7 M-2.5,-0.5L0,-3.0L2.5,-0.5"/>
                </g>
                <g id="arrowRight" xlink:href="#dirArrow" transform="rotate(90) translate(36 -43)" onmousedown="handlePan(1,0)">
                  <use xlink:href="#rim" fill="#404040">
                        <set attributeName="fill" to="#808080" begin="arrowRight.mouseover" end="arrowRight.mouseout"/>
                  </use>
                  <path fill="none" stroke="white" stroke-width="1.5" d="M0,-3.0v7 M-2.5,-0.5L0,-3.0L2.5,-0.5"/>
                </g>
                <g id="arrowDown" xlink:href="#dirArrow" transform="rotate(180) translate(-30 -48)" onmousedown="handlePan(0,1)">
                  <use xlink:href="#rim" fill="#404040">
                        <set attributeName="fill" to="#808080" begin="arrowDown.mouseover" end="arrowDown.mouseout"/>
                  </use>
                  <path fill="none" stroke="white" stroke-width="1.5" d="M0,-3.0v7 M-2.5,-0.5L0,-3.0L2.5,-0.5"/>
                </g>
                <g id="arrowLeft" xlink:href="#dirArrow" transform="rotate(270) translate(-36 17)" onmousedown="handlePan(-1,0)">
                  <use xlink:href="#rim" fill="#404040">
                        <set attributeName="fill" to="#808080" begin="arrowLeft.mouseover" end="arrowLeft.mouseout"/>
                  </use>
                  <path fill="none" stroke="white" stroke-width="1.5" d="M0,-3.0v7 M-2.5,-0.5L0,-3.0L2.5,-0.5"/>
                </g>
        </g>
        <svg viewBox="0 0 15 15" width="100%" height="30px" preserveAspectRatio="xMaxYMin meet">
         <g id="arrow_out" transform="scale(0.3 0.3)">
          <a xlink:href="classdenoptim_1_1graph_1_1_edge_a9696d3ee0d321b73b06d33bcb8fa86fd_icgraph_org.svg" target="_base">
           <rect id="button" ry="5" rx="5" y="6" x="6" height="38" width="38"
                fill="#f2f5e9" fill-opacity="0.5" stroke="#606060" stroke-width="1.0"/>
           <path id="arrow"
             d="M 11.500037,31.436501 C 11.940474,20.09759 22.043105,11.32322 32.158766,21.979434 L 37.068811,17.246167 C 37.068811,17.246167 37.088388,32 37.088388,32 L 22.160133,31.978069 C 22.160133,31.978069 26.997745,27.140456 26.997745,27.140456 C 18.528582,18.264221 13.291696,25.230495 11.500037,31.436501 z"
             style="fill:#404040;"/>
          </a>
         </g>
        </svg>
</svg>
