<?xml version="1.0" encoding="UTF-8" standalone="no"?>
<!DOCTYPE svg PUBLIC "-//W3C//DTD SVG 1.1//EN"
 "http://www.w3.org/Graphics/SVG/1.1/DTD/svg11.dtd">
<!-- Generated by graphviz version 3.0.0 (20221109.1736)
 -->
<!-- Title: denoptim.graph.DGraph.detectSymVertexSets Pages: 1 -->
<svg width="1289pt" height="504pt"
 viewBox="0.00 0.00 1289.00 504.00" xmlns="http://www.w3.org/2000/svg" xmlns:xlink="http://www.w3.org/1999/xlink">
<g id="graph0" class="graph" transform="scale(1 1) rotate(0) translate(4 500)">
<title>denoptim.graph.DGraph.detectSymVertexSets</title>
<polygon fill="white" stroke="transparent" points="-4,4 -4,-500 1285,-500 1285,4 -4,4"/>
<!-- Node1 -->
<g id="node1" class="node">
<title>Node1</title>
<g id="a_node1"><a xlink:title="Tries to determine the set of symmetric vertices in this graph based on finding compatible Vertexes t...">
<polygon fill="#bfbfbf" stroke="black" points="0,-164.5 0,-194.5 147,-194.5 147,-164.5 0,-164.5"/>
<text text-anchor="start" x="8" y="-182.5" font-family="Helvetica,sans-Serif" font-size="10.00">denoptim.graph.DGraph.detect</text>
<text text-anchor="middle" x="73.5" y="-171.5" font-family="Helvetica,sans-Serif" font-size="10.00">SymVertexSets</text>
</a>
</g>
</g>
<!-- Node2 -->
<g id="node2" class="node">
<title>Node2</title>
<g id="a_node2"><a xlink:href="classdenoptim_1_1graph_1_1_d_graph.html#aadb666e7d30a631bf9b97d77a8aa0b1d" target="_top" xlink:title="Adds a symmetric set of vertices to this graph.">
<polygon fill="white" stroke="black" points="190.5,-252.5 190.5,-282.5 326.5,-282.5 326.5,-252.5 190.5,-252.5"/>
<text text-anchor="start" x="198.5" y="-270.5" font-family="Helvetica,sans-Serif" font-size="10.00">denoptim.graph.DGraph.add</text>
<text text-anchor="middle" x="258.5" y="-259.5" font-family="Helvetica,sans-Serif" font-size="10.00">SymmetricSetOfVertices</text>
</a>
</g>
</g>
<!-- Node1&#45;&gt;Node2 -->
<g id="edge1" class="edge">
<title>Node1&#45;&gt;Node2</title>
<path fill="none" stroke="midnightblue" d="M100.85,-194.62C122.57,-206.83 154.36,-224.13 183,-237.5 191.08,-241.27 199.77,-245.03 208.26,-248.55"/>
<polygon fill="midnightblue" stroke="midnightblue" points="207.14,-251.87 217.72,-252.41 209.78,-245.39 207.14,-251.87"/>
</g>
<!-- Node3 -->
<g id="node3" class="node">
<title>Node3</title>
<g id="a_node3"><a xlink:href="classdenoptim_1_1graph_1_1_d_graph.html#ad38e8849839cb63835e727530ca124d9" target="_top" xlink:title="Checks if the Vertexs that are attached to two given AttachmentPoints apA and apB satisfy these condi...">
<polygon fill="white" stroke="black" points="370,-274.5 370,-304.5 511,-304.5 511,-274.5 370,-274.5"/>
<text text-anchor="start" x="378" y="-292.5" font-family="Helvetica,sans-Serif" font-size="10.00">denoptim.graph.DGraph.are</text>
<text text-anchor="middle" x="440.5" y="-281.5" font-family="Helvetica,sans-Serif" font-size="10.00">ApsUsedBySymmetricUsers</text>
</a>
</g>
</g>
<!-- Node1&#45;&gt;Node3 -->
<g id="edge2" class="edge">
<title>Node1&#45;&gt;Node3</title>
<path fill="none" stroke="midnightblue" d="M142.4,-194.52C206.88,-209.05 299.01,-230.57 334,-242.5 356.51,-250.17 380.8,-260.83 400.4,-270.05"/>
<polygon fill="midnightblue" stroke="midnightblue" points="399.08,-273.3 409.61,-274.44 402.09,-266.98 399.08,-273.3"/>
</g>
<!-- Node21 -->
<g id="node21" class="node">
<title>Node21</title>
<g id="a_node21"><a xlink:href="classdenoptim_1_1graph_1_1_d_graph.html#aa46fb7d3a38e4c4401723a75f7c8d764" target="_top" xlink:title=" ">
<polygon fill="white" stroke="black" points="183,-164.5 183,-194.5 334,-194.5 334,-164.5 183,-164.5"/>
<text text-anchor="start" x="191" y="-182.5" font-family="Helvetica,sans-Serif" font-size="10.00">denoptim.graph.DGraph.find</text>
<text text-anchor="middle" x="258.5" y="-171.5" font-family="Helvetica,sans-Serif" font-size="10.00">SymmetrySetsOfChildVertexes</text>
</a>
</g>
</g>
<!-- Node1&#45;&gt;Node21 -->
<g id="edge26" class="edge">
<title>Node1&#45;&gt;Node21</title>
<path fill="none" stroke="midnightblue" d="M147.09,-179.5C155.55,-179.5 164.24,-179.5 172.85,-179.5"/>
<polygon fill="midnightblue" stroke="midnightblue" points="172.9,-183 182.9,-179.5 172.9,-176 172.9,-183"/>
</g>
<!-- Node25 -->
<g id="node25" class="node">
<title>Node25</title>
<g id="a_node25"><a xlink:href="classdenoptim_1_1graph_1_1_symmetric_a_ps.html#a126704587c1387b8adec43fbfdd16c98" target="_top" xlink:title="Identifies any set of symmetric APs that, although it contains references to different instances of A...">
<polygon fill="white" stroke="black" points="193,-115.5 193,-145.5 324,-145.5 324,-115.5 193,-115.5"/>
<text text-anchor="start" x="201" y="-133.5" font-family="Helvetica,sans-Serif" font-size="10.00">denoptim.graph.Symmetric</text>
<text text-anchor="middle" x="258.5" y="-122.5" font-family="Helvetica,sans-Serif" font-size="10.00">APs.getAllSameAs</text>
</a>
</g>
</g>
<!-- Node1&#45;&gt;Node25 -->
<g id="edge33" class="edge">
<title>Node1&#45;&gt;Node25</title>
<path fill="none" stroke="midnightblue" d="M130.9,-164.4C150.04,-159.27 171.59,-153.5 191.41,-148.2"/>
<polygon fill="midnightblue" stroke="midnightblue" points="192.53,-151.52 201.29,-145.55 190.72,-144.76 192.53,-151.52"/>
</g>
<!-- Node27 -->
<g id="node27" class="node">
<title>Node27</title>
<g id="a_node27"><a xlink:href="classdenoptim_1_1graph_1_1_d_graph.html#a650a0f54382fb930bf57429dd616258a" target="_top" xlink:title=" ">
<polygon fill="white" stroke="black" points="191.5,-66.5 191.5,-96.5 325.5,-96.5 325.5,-66.5 191.5,-66.5"/>
<text text-anchor="start" x="199.5" y="-84.5" font-family="Helvetica,sans-Serif" font-size="10.00">denoptim.graph.DGraph.get</text>
<text text-anchor="middle" x="258.5" y="-73.5" font-family="Helvetica,sans-Serif" font-size="10.00">VertexList</text>
</a>
</g>
</g>
<!-- Node1&#45;&gt;Node27 -->
<g id="edge35" class="edge">
<title>Node1&#45;&gt;Node27</title>
<path fill="none" stroke="midnightblue" d="M93.07,-164.36C113.9,-148 149.21,-122.04 183,-105.5 186.78,-103.65 190.73,-101.9 194.76,-100.25"/>
<polygon fill="midnightblue" stroke="midnightblue" points="196.19,-103.45 204.25,-96.58 193.66,-96.92 196.19,-103.45"/>
</g>
<!-- Node4 -->
<g id="node4" class="node">
<title>Node4</title>
<g id="a_node4"><a xlink:href="classdenoptim_1_1graph_1_1_attachment_point.html#adfc2840f3e5126d847c8d800082f8958" target="_top" xlink:title="Gets the attachment point (AP) that is connected to this AP via the edge user or in any edge user tha...">
<polygon fill="white" stroke="black" points="549.5,-230.5 549.5,-260.5 695.5,-260.5 695.5,-230.5 549.5,-230.5"/>
<text text-anchor="start" x="557.5" y="-248.5" font-family="Helvetica,sans-Serif" font-size="10.00">denoptim.graph.Attachment</text>
<text text-anchor="middle" x="622.5" y="-237.5" font-family="Helvetica,sans-Serif" font-size="10.00">Point.getLinkedAPThroughout</text>
</a>
</g>
</g>
<!-- Node3&#45;&gt;Node4 -->
<g id="edge3" class="edge">
<title>Node3&#45;&gt;Node4</title>
<path fill="none" stroke="midnightblue" d="M502.94,-274.48C518.06,-270.78 534.39,-266.79 549.94,-262.99"/>
<polygon fill="midnightblue" stroke="midnightblue" points="551.15,-266.3 560.03,-260.53 549.48,-259.5 551.15,-266.3"/>
</g>
<!-- Node14 -->
<g id="node14" class="node">
<title>Node14</title>
<g id="a_node14"><a xlink:href="classdenoptim_1_1graph_1_1_attachment_point.html#ac8551521d38644f5109800b665957ee9" target="_top" xlink:title=" ">
<polygon fill="white" stroke="black" points="555,-162.5 555,-192.5 690,-192.5 690,-162.5 555,-162.5"/>
<text text-anchor="start" x="563" y="-180.5" font-family="Helvetica,sans-Serif" font-size="10.00">denoptim.graph.Attachment</text>
<text text-anchor="middle" x="622.5" y="-169.5" font-family="Helvetica,sans-Serif" font-size="10.00">Point.getOwner</text>
</a>
</g>
</g>
<!-- Node3&#45;&gt;Node14 -->
<g id="edge17" class="edge">
<title>Node3&#45;&gt;Node14</title>
<path fill="none" stroke="midnightblue" d="M463.9,-274.33C485.1,-260.09 517.92,-238.38 547,-220.5 559.37,-212.89 573.09,-204.86 585.35,-197.83"/>
<polygon fill="midnightblue" stroke="midnightblue" points="587.44,-200.66 594.39,-192.67 583.97,-194.58 587.44,-200.66"/>
</g>
<!-- Node15 -->
<g id="node15" class="node">
<title>Node15</title>
<g id="a_node15"><a xlink:href="classdenoptim_1_1graph_1_1_fragment.html#a6137d8c74ece46574e14b9a3cd02d00d" target="_top" xlink:title="Checks for isomorphism of the graph representation of this and another fragment.">
<polygon fill="white" stroke="black" points="554.5,-409.5 554.5,-439.5 690.5,-439.5 690.5,-409.5 554.5,-409.5"/>
<text text-anchor="start" x="562.5" y="-427.5" font-family="Helvetica,sans-Serif" font-size="10.00">denoptim.graph.Fragment.is</text>
<text text-anchor="middle" x="622.5" y="-416.5" font-family="Helvetica,sans-Serif" font-size="10.00">IsomorphicTo</text>
</a>
</g>
</g>
<!-- Node3&#45;&gt;Node15 -->
<g id="edge18" class="edge">
<title>Node3&#45;&gt;Node15</title>
<path fill="none" stroke="midnightblue" d="M453.3,-304.63C471.38,-326.93 507.95,-368.75 547,-394.5 553,-398.46 559.61,-402.04 566.33,-405.23"/>
<polygon fill="midnightblue" stroke="midnightblue" points="564.97,-408.46 575.53,-409.35 567.83,-402.07 564.97,-408.46"/>
</g>
<!-- Node19 -->
<g id="node19" class="node">
<title>Node19</title>
<g id="a_node19"><a xlink:href="classdenoptim_1_1graph_1_1_attachment_point.html#ab1226264e663d411606bc5af27dd921e" target="_top" xlink:title="Compares the features of this and another attachment point and decides if the two are same.">
<polygon fill="white" stroke="black" points="555,-336.5 555,-366.5 690,-366.5 690,-336.5 555,-336.5"/>
<text text-anchor="start" x="563" y="-354.5" font-family="Helvetica,sans-Serif" font-size="10.00">denoptim.graph.Attachment</text>
<text text-anchor="middle" x="622.5" y="-343.5" font-family="Helvetica,sans-Serif" font-size="10.00">Point.sameAs</text>
</a>
</g>
</g>
<!-- Node3&#45;&gt;Node19 -->
<g id="edge22" class="edge">
<title>Node3&#45;&gt;Node19</title>
<path fill="none" stroke="midnightblue" d="M484.06,-304.57C503.27,-311.34 526.25,-319.38 547,-326.5 553.33,-328.67 559.97,-330.93 566.56,-333.16"/>
<polygon fill="midnightblue" stroke="midnightblue" points="565.57,-336.52 576.16,-336.39 567.8,-329.88 565.57,-336.52"/>
</g>
<!-- Node20 -->
<g id="node20" class="node">
<title>Node20</title>
<g id="a_node20"><a xlink:href="classdenoptim_1_1graph_1_1_vertex.html#ab5ad2e99d1398d6b1ef5504774fc4921" target="_top" xlink:title="Compares this and another vertex ignoring vertex IDs.">
<polygon fill="white" stroke="black" points="547,-280 547,-299 698,-299 698,-280 547,-280"/>
<text text-anchor="middle" x="622.5" y="-287" font-family="Helvetica,sans-Serif" font-size="10.00">denoptim.graph.Vertex.sameAs</text>
</a>
</g>
</g>
<!-- Node3&#45;&gt;Node20 -->
<g id="edge24" class="edge">
<title>Node3&#45;&gt;Node20</title>
<path fill="none" stroke="midnightblue" d="M511.09,-289.5C519.48,-289.5 528.12,-289.5 536.7,-289.5"/>
<polygon fill="midnightblue" stroke="midnightblue" points="536.72,-293 546.72,-289.5 536.72,-286 536.72,-293"/>
</g>
<!-- Node5 -->
<g id="node5" class="node">
<title>Node5</title>
<g id="a_node5"><a xlink:href="classdenoptim_1_1graph_1_1_attachment_point.html#aa1ae3c328e8ea24ead206b822daca7f7" target="_top" xlink:title="Gets the edge that is using this AP, or null if no edge is using this AP.">
<polygon fill="white" stroke="black" points="752,-163.5 752,-193.5 898,-193.5 898,-163.5 752,-163.5"/>
<text text-anchor="start" x="760" y="-181.5" font-family="Helvetica,sans-Serif" font-size="10.00">denoptim.graph.Attachment</text>
<text text-anchor="middle" x="825" y="-170.5" font-family="Helvetica,sans-Serif" font-size="10.00">Point.getEdgeUserThroughout</text>
</a>
</g>
</g>
<!-- Node4&#45;&gt;Node5 -->
<g id="edge4" class="edge">
<title>Node4&#45;&gt;Node5</title>
<path fill="none" stroke="midnightblue" d="M668.5,-230.46C698.32,-220.5 737.62,-207.36 769.26,-196.79"/>
<polygon fill="midnightblue" stroke="midnightblue" points="770.43,-200.09 778.81,-193.6 768.21,-193.45 770.43,-200.09"/>
</g>
<!-- Node9 -->
<g id="node9" class="node">
<title>Node9</title>
<g id="a_node9"><a xlink:href="classdenoptim_1_1graph_1_1_attachment_point.html#a0e96f6c954de060a628eb3de1b2f4554" target="_top" xlink:title="For vertices that are templates this method returns the attachment point that is embedded in the temp...">
<polygon fill="white" stroke="black" points="955,-274.5 955,-304.5 1090,-304.5 1090,-274.5 955,-274.5"/>
<text text-anchor="start" x="963" y="-292.5" font-family="Helvetica,sans-Serif" font-size="10.00">denoptim.graph.Attachment</text>
<text text-anchor="middle" x="1022.5" y="-281.5" font-family="Helvetica,sans-Serif" font-size="10.00">Point.getEmbeddedAP</text>
</a>
</g>
</g>
<!-- Node4&#45;&gt;Node9 -->
<g id="edge9" class="edge">
<title>Node4&#45;&gt;Node9</title>
<path fill="none" stroke="midnightblue" d="M685.16,-260.54C701,-263.95 718.06,-267.23 734,-269.5 805.03,-279.63 886.68,-284.69 944.78,-287.17"/>
<polygon fill="midnightblue" stroke="midnightblue" points="944.85,-290.68 954.98,-287.6 945.14,-283.69 944.85,-290.68"/>
</g>
<!-- Node10 -->
<g id="node10" class="node">
<title>Node10</title>
<g id="a_node10"><a xlink:href="classdenoptim_1_1graph_1_1_edge.html#a658e275a18a50f12474777f5f28c35e9" target="_top" xlink:title=" ">
<polygon fill="white" stroke="black" points="749.5,-125 749.5,-144 900.5,-144 900.5,-125 749.5,-125"/>
<text text-anchor="middle" x="825" y="-132" font-family="Helvetica,sans-Serif" font-size="10.00">denoptim.graph.Edge.getSrcAP</text>
</a>
</g>
</g>
<!-- Node4&#45;&gt;Node10 -->
<g id="edge11" class="edge">
<title>Node4&#45;&gt;Node10</title>
<path fill="none" stroke="midnightblue" d="M655.06,-230.45C669.07,-222.9 685.24,-212.92 698,-201.5 717.86,-183.71 711.52,-167.84 734,-153.5 737.22,-151.45 740.62,-149.61 744.15,-147.97"/>
<polygon fill="midnightblue" stroke="midnightblue" points="745.78,-151.09 753.71,-144.07 743.13,-144.61 745.78,-151.09"/>
</g>
<!-- Node11 -->
<g id="node11" class="node">
<title>Node11</title>
<g id="a_node11"><a xlink:href="classdenoptim_1_1graph_1_1_edge.html#a20a0c78541321532267b2fda0a6b634b" target="_top" xlink:title=" ">
<polygon fill="white" stroke="black" points="756.5,-318.5 756.5,-348.5 893.5,-348.5 893.5,-318.5 756.5,-318.5"/>
<text text-anchor="start" x="764.5" y="-336.5" font-family="Helvetica,sans-Serif" font-size="10.00">denoptim.graph.Edge.getSrc</text>
<text text-anchor="middle" x="825" y="-325.5" font-family="Helvetica,sans-Serif" font-size="10.00">APThroughout</text>
</a>
</g>
</g>
<!-- Node4&#45;&gt;Node11 -->
<g id="edge12" class="edge">
<title>Node4&#45;&gt;Node11</title>
<path fill="none" stroke="midnightblue" d="M677.6,-260.64C684.67,-263.48 691.65,-266.76 698,-270.5 716.7,-281.53 715.29,-292.49 734,-303.5 741.24,-307.76 749.18,-311.52 757.23,-314.8"/>
<polygon fill="midnightblue" stroke="midnightblue" points="756.13,-318.12 766.72,-318.43 758.63,-311.59 756.13,-318.12"/>
</g>
<!-- Node12 -->
<g id="node12" class="node">
<title>Node12</title>
<g id="a_node12"><a xlink:href="classdenoptim_1_1graph_1_1_edge.html#a44521a3ad1a83e5d0a6be227e35ceffa" target="_top" xlink:title=" ">
<polygon fill="white" stroke="black" points="750,-87 750,-106 900,-106 900,-87 750,-87"/>
<text text-anchor="middle" x="825" y="-94" font-family="Helvetica,sans-Serif" font-size="10.00">denoptim.graph.Edge.getTrgAP</text>
</a>
</g>
</g>
<!-- Node4&#45;&gt;Node12 -->
<g id="edge14" class="edge">
<title>Node4&#45;&gt;Node12</title>
<path fill="none" stroke="midnightblue" d="M659.1,-230.45C672.69,-223.29 687.44,-213.62 698,-201.5 725.22,-170.26 702.07,-141.91 734,-115.5 736.1,-113.76 738.32,-112.17 740.63,-110.72"/>
<polygon fill="midnightblue" stroke="midnightblue" points="742.79,-113.54 749.97,-105.75 739.5,-107.36 742.79,-113.54"/>
</g>
<!-- Node13 -->
<g id="node13" class="node">
<title>Node13</title>
<g id="a_node13"><a xlink:href="classdenoptim_1_1graph_1_1_edge.html#ae5c20718860e84083e008b5bef44e1ae" target="_top" xlink:title=" ">
<polygon fill="white" stroke="black" points="756.5,-230.5 756.5,-260.5 893.5,-260.5 893.5,-230.5 756.5,-230.5"/>
<text text-anchor="start" x="764.5" y="-248.5" font-family="Helvetica,sans-Serif" font-size="10.00">denoptim.graph.Edge.getTrg</text>
<text text-anchor="middle" x="825" y="-237.5" font-family="Helvetica,sans-Serif" font-size="10.00">APThroughout</text>
</a>
</g>
</g>
<!-- Node4&#45;&gt;Node13 -->
<g id="edge15" class="edge">
<title>Node4&#45;&gt;Node13</title>
<path fill="none" stroke="midnightblue" d="M695.6,-245.5C711.96,-245.5 729.42,-245.5 746.01,-245.5"/>
<polygon fill="midnightblue" stroke="midnightblue" points="746.22,-249 756.22,-245.5 746.22,-242 746.22,-249"/>
</g>
<!-- Node5&#45;&gt;Node5 -->
<g id="edge5" class="edge">
<title>Node5&#45;&gt;Node5</title>
<path fill="none" stroke="midnightblue" d="M790.84,-193.66C782.61,-203.06 793.99,-212 825,-212 843.9,-212 855.5,-208.68 859.83,-203.96"/>
<polygon fill="midnightblue" stroke="midnightblue" points="863.3,-203.41 859.16,-193.66 856.31,-203.87 863.3,-203.41"/>
</g>
<!-- Node6 -->
<g id="node6" class="node">
<title>Node6</title>
<g id="a_node6"><a xlink:href="classdenoptim_1_1graph_1_1_vertex.html#a6615f1c869173b8bd6d730c6683b9de4" target="_top" xlink:title="Returns the graph this vertex belongs to or null.">
<polygon fill="white" stroke="black" points="958.5,-187.5 958.5,-217.5 1086.5,-217.5 1086.5,-187.5 958.5,-187.5"/>
<text text-anchor="start" x="966.5" y="-205.5" font-family="Helvetica,sans-Serif" font-size="10.00">denoptim.graph.Vertex.get</text>
<text text-anchor="middle" x="1022.5" y="-194.5" font-family="Helvetica,sans-Serif" font-size="10.00">GraphOwner</text>
</a>
</g>
</g>
<!-- Node5&#45;&gt;Node6 -->
<g id="edge6" class="edge">
<title>Node5&#45;&gt;Node6</title>
<path fill="none" stroke="midnightblue" d="M898.24,-187.37C914.55,-189.37 931.87,-191.5 948.21,-193.5"/>
<polygon fill="midnightblue" stroke="midnightblue" points="947.9,-196.99 958.25,-194.73 948.75,-190.04 947.9,-196.99"/>
</g>
<!-- Node7 -->
<g id="node7" class="node">
<title>Node7</title>
<g id="a_node7"><a xlink:href="classdenoptim_1_1graph_1_1_template.html#aca9a03a1d6e2fd5de8f859f18996ec62" target="_top" xlink:title=" ">
<polygon fill="white" stroke="black" points="952,-138.5 952,-168.5 1093,-168.5 1093,-138.5 952,-138.5"/>
<text text-anchor="start" x="960" y="-156.5" font-family="Helvetica,sans-Serif" font-size="10.00">denoptim.graph.Template.get</text>
<text text-anchor="middle" x="1022.5" y="-145.5" font-family="Helvetica,sans-Serif" font-size="10.00">OuterAPFromInnerAP</text>
</a>
</g>
</g>
<!-- Node5&#45;&gt;Node7 -->
<g id="edge7" class="edge">
<title>Node5&#45;&gt;Node7</title>
<path fill="none" stroke="midnightblue" d="M898.24,-169.26C912.33,-167.46 927.19,-165.56 941.51,-163.73"/>
<polygon fill="midnightblue" stroke="midnightblue" points="942.36,-167.15 951.83,-162.41 941.47,-160.21 942.36,-167.15"/>
</g>
<!-- Node8 -->
<g id="node8" class="node">
<title>Node8</title>
<g id="a_node8"><a xlink:href="classdenoptim_1_1graph_1_1_a_p_tree_map.html#abb77efcfaa507592758e7fd4845bdd80" target="_top" xlink:title=" ">
<polygon fill="white" stroke="black" points="1129,-144 1129,-163 1281,-163 1281,-144 1129,-144"/>
<text text-anchor="middle" x="1205" y="-151" font-family="Helvetica,sans-Serif" font-size="10.00">denoptim.graph.APTreeMap.get</text>
</a>
</g>
</g>
<!-- Node7&#45;&gt;Node8 -->
<g id="edge8" class="edge">
<title>Node7&#45;&gt;Node8</title>
<path fill="none" stroke="midnightblue" d="M1093.03,-153.5C1101.45,-153.5 1110.13,-153.5 1118.74,-153.5"/>
<polygon fill="midnightblue" stroke="midnightblue" points="1118.81,-157 1128.81,-153.5 1118.81,-150 1118.81,-157"/>
</g>
<!-- Node9&#45;&gt;Node9 -->
<g id="edge10" class="edge">
<title>Node9&#45;&gt;Node9</title>
<path fill="none" stroke="midnightblue" d="M990.78,-304.66C983.13,-314.06 993.71,-323 1022.5,-323 1040.05,-323 1050.83,-319.68 1054.84,-314.96"/>
<polygon fill="midnightblue" stroke="midnightblue" points="1058.31,-314.43 1054.22,-304.66 1051.33,-314.85 1058.31,-314.43"/>
</g>
<!-- Node11&#45;&gt;Node9 -->
<g id="edge13" class="edge">
<title>Node11&#45;&gt;Node9</title>
<path fill="none" stroke="midnightblue" d="M892.73,-318.48C909.47,-314.71 927.56,-310.64 944.74,-306.78"/>
<polygon fill="midnightblue" stroke="midnightblue" points="945.75,-310.14 954.74,-304.53 944.21,-303.31 945.75,-310.14"/>
</g>
<!-- Node13&#45;&gt;Node9 -->
<g id="edge16" class="edge">
<title>Node13&#45;&gt;Node9</title>
<path fill="none" stroke="midnightblue" d="M892.73,-260.52C909.47,-264.29 927.56,-268.36 944.74,-272.22"/>
<polygon fill="midnightblue" stroke="midnightblue" points="944.21,-275.69 954.74,-274.47 945.75,-268.86 944.21,-275.69"/>
</g>
<!-- Node16 -->
<g id="node16" class="node">
<title>Node16</title>
<g id="a_node16"><a xlink:href="classdenoptim_1_1graph_1_1_fragment.html#ad9843701125210a688964d85a77bfac4" target="_top" xlink:title="Constructor of an empty fragment.">
<polygon fill="white" stroke="black" points="761,-465.5 761,-495.5 889,-495.5 889,-465.5 761,-465.5"/>
<text text-anchor="start" x="769" y="-483.5" font-family="Helvetica,sans-Serif" font-size="10.00">denoptim.graph.Fragment.</text>
<text text-anchor="middle" x="825" y="-472.5" font-family="Helvetica,sans-Serif" font-size="10.00">Fragment</text>
</a>
</g>
</g>
<!-- Node15&#45;&gt;Node16 -->
<g id="edge19" class="edge">
<title>Node15&#45;&gt;Node16</title>
<path fill="none" stroke="midnightblue" d="M674.6,-439.54C693.27,-444.97 714.57,-451.1 734,-456.5 741.45,-458.57 749.26,-460.71 757.02,-462.81"/>
<polygon fill="midnightblue" stroke="midnightblue" points="756.25,-466.23 766.82,-465.45 758.07,-459.47 756.25,-466.23"/>
</g>
<!-- Node17 -->
<g id="node17" class="node">
<title>Node17</title>
<g id="a_node17"><a xlink:href="classdenoptim_1_1graph_1_1_fragment.html#a366dfaf65191c724b8e393b9d9dc899f" target="_top" xlink:title=" ">
<polygon fill="white" stroke="black" points="754,-416.5 754,-446.5 896,-446.5 896,-416.5 754,-416.5"/>
<text text-anchor="start" x="762" y="-434.5" font-family="Helvetica,sans-Serif" font-size="10.00">denoptim.graph.Fragment.get</text>
<text text-anchor="middle" x="825" y="-423.5" font-family="Helvetica,sans-Serif" font-size="10.00">AttachmentPoints</text>
</a>
</g>
</g>
<!-- Node15&#45;&gt;Node17 -->
<g id="edge20" class="edge">
<title>Node15&#45;&gt;Node17</title>
<path fill="none" stroke="midnightblue" d="M690.54,-426.84C707.58,-427.44 726.05,-428.08 743.67,-428.7"/>
<polygon fill="midnightblue" stroke="midnightblue" points="743.82,-432.2 753.93,-429.05 744.06,-425.21 743.82,-432.2"/>
</g>
<!-- Node18 -->
<g id="node18" class="node">
<title>Node18</title>
<g id="a_node18"><a xlink:href="classdenoptim_1_1graph_1_1_fragment_isomorphism_inspector.html#a7170efe46e1730c48fe2dbf1d5a0aefc" target="_top" xlink:title=" ">
<polygon fill="white" stroke="black" points="734,-367.5 734,-397.5 916,-397.5 916,-367.5 734,-367.5"/>
<text text-anchor="start" x="742" y="-385.5" font-family="Helvetica,sans-Serif" font-size="10.00">denoptim.graph.FragmentIsomorphism</text>
<text text-anchor="middle" x="825" y="-374.5" font-family="Helvetica,sans-Serif" font-size="10.00">Inspector.isomorphismExists</text>
</a>
</g>
</g>
<!-- Node15&#45;&gt;Node18 -->
<g id="edge21" class="edge">
<title>Node15&#45;&gt;Node18</title>
<path fill="none" stroke="midnightblue" d="M690.54,-410.46C707.1,-406.99 725.02,-403.23 742.2,-399.64"/>
<polygon fill="midnightblue" stroke="midnightblue" points="743.13,-403.02 752.2,-397.54 741.7,-396.16 743.13,-403.02"/>
</g>
<!-- Node19&#45;&gt;Node19 -->
<g id="edge23" class="edge">
<title>Node19&#45;&gt;Node19</title>
<path fill="none" stroke="midnightblue" d="M590.78,-366.66C583.13,-376.06 593.71,-385 622.5,-385 640.05,-385 650.83,-381.68 654.84,-376.96"/>
<polygon fill="midnightblue" stroke="midnightblue" points="658.31,-376.43 654.22,-366.66 651.33,-376.85 658.31,-376.43"/>
</g>
<!-- Node20&#45;&gt;Node20 -->
<g id="edge25" class="edge">
<title>Node20&#45;&gt;Node20</title>
<path fill="none" stroke="midnightblue" d="M594.45,-299.26C580.8,-308.07 590.15,-317.5 622.5,-317.5 644.74,-317.5 656.11,-313.04 656.61,-307.39"/>
<polygon fill="midnightblue" stroke="midnightblue" points="659.33,-305.19 650.55,-299.26 653.72,-309.37 659.33,-305.19"/>
</g>
<!-- Node21&#45;&gt;Node3 -->
<g id="edge28" class="edge">
<title>Node21&#45;&gt;Node3</title>
<path fill="none" stroke="midnightblue" d="M308.56,-194.64C317.53,-198.65 326.43,-203.56 334,-209.5 355.55,-226.39 348.66,-242.34 370,-259.5 374.84,-263.39 380.26,-266.87 385.88,-269.95"/>
<polygon fill="midnightblue" stroke="midnightblue" points="384.33,-273.08 394.83,-274.47 387.48,-266.84 384.33,-273.08"/>
</g>
<!-- Node21&#45;&gt;Node4 -->
<g id="edge30" class="edge">
<title>Node21&#45;&gt;Node4</title>
<path fill="none" stroke="midnightblue" d="M297.51,-194.5C309.24,-199.22 322.19,-204.5 334,-209.5 350.12,-216.33 353.03,-221.19 370,-225.5 425.4,-239.58 489.68,-244.5 539.39,-245.94"/>
<polygon fill="midnightblue" stroke="midnightblue" points="539.36,-249.44 549.44,-246.19 539.53,-242.44 539.36,-249.44"/>
</g>
<!-- Node21&#45;&gt;Node14 -->
<g id="edge31" class="edge">
<title>Node21&#45;&gt;Node14</title>
<path fill="none" stroke="midnightblue" d="M334.09,-177.2C346.1,-176.91 358.39,-176.66 370,-176.5 428.61,-175.7 494.92,-176.02 544.73,-176.5"/>
<polygon fill="midnightblue" stroke="midnightblue" points="544.74,-180 554.78,-176.6 544.81,-173 544.74,-180"/>
</g>
<!-- Node22 -->
<g id="node22" class="node">
<title>Node22</title>
<g id="a_node22"><a xlink:href="classdenoptim_1_1graph_1_1_symmetric_set.html#aa3db3c29bdb4ed481b63257a2ffa1b14" target="_top" xlink:title="Adds an item to this list, if not already present.">
<polygon fill="white" stroke="black" points="375,-98.5 375,-128.5 506,-128.5 506,-98.5 375,-98.5"/>
<text text-anchor="start" x="383" y="-116.5" font-family="Helvetica,sans-Serif" font-size="10.00">denoptim.graph.Symmetric</text>
<text text-anchor="middle" x="440.5" y="-105.5" font-family="Helvetica,sans-Serif" font-size="10.00">Set.add</text>
</a>
</g>
</g>
<!-- Node21&#45;&gt;Node22 -->
<g id="edge27" class="edge">
<title>Node21&#45;&gt;Node22</title>
<path fill="none" stroke="midnightblue" d="M305.72,-164.37C315.11,-161.19 324.89,-157.8 334,-154.5 353.27,-147.53 374.34,-139.43 392.55,-132.29"/>
<polygon fill="midnightblue" stroke="midnightblue" points="394.04,-135.46 402.06,-128.54 391.48,-128.95 394.04,-135.46"/>
</g>
<!-- Node23 -->
<g id="node23" class="node">
<title>Node23</title>
<g id="a_node23"><a xlink:href="classdenoptim_1_1graph_1_1_vertex.html#a85aa901ec3fff8e566c0cc32d9c9f84e" target="_top" xlink:title=" ">
<polygon fill="white" stroke="black" points="376.5,-49.5 376.5,-79.5 504.5,-79.5 504.5,-49.5 376.5,-49.5"/>
<text text-anchor="start" x="384.5" y="-67.5" font-family="Helvetica,sans-Serif" font-size="10.00">denoptim.graph.Vertex.get</text>
<text text-anchor="middle" x="440.5" y="-56.5" font-family="Helvetica,sans-Serif" font-size="10.00">AttachmentPoints</text>
</a>
</g>
</g>
<!-- Node21&#45;&gt;Node23 -->
<g id="edge29" class="edge">
<title>Node21&#45;&gt;Node23</title>
<path fill="none" stroke="midnightblue" d="M318.69,-164.4C324.18,-161.63 329.4,-158.36 334,-154.5 359.61,-133.04 344.49,-110.08 370,-88.5 371.54,-87.2 373.14,-85.97 374.81,-84.81"/>
<polygon fill="midnightblue" stroke="midnightblue" points="376.83,-87.68 383.58,-79.52 373.21,-81.69 376.83,-87.68"/>
</g>
<!-- Node24 -->
<g id="node24" class="node">
<title>Node24</title>
<g id="a_node24"><a xlink:href="classdenoptim_1_1graph_1_1_vertex.html#a9542f18a17ab836ed3ade18348b22f3c" target="_top" xlink:title=" ">
<polygon fill="white" stroke="black" points="376.5,-186.5 376.5,-216.5 504.5,-216.5 504.5,-186.5 376.5,-186.5"/>
<text text-anchor="start" x="384.5" y="-204.5" font-family="Helvetica,sans-Serif" font-size="10.00">denoptim.graph.Vertex.get</text>
<text text-anchor="middle" x="440.5" y="-193.5" font-family="Helvetica,sans-Serif" font-size="10.00">SymmetricAPSets</text>
</a>
</g>
</g>
<!-- Node21&#45;&gt;Node24 -->
<g id="edge32" class="edge">
<title>Node21&#45;&gt;Node24</title>
<path fill="none" stroke="midnightblue" d="M334.01,-188.61C344.64,-189.91 355.56,-191.24 366.17,-192.54"/>
<polygon fill="midnightblue" stroke="midnightblue" points="365.87,-196.03 376.22,-193.77 366.72,-189.08 365.87,-196.03"/>
</g>
<!-- Node26 -->
<g id="node26" class="node">
<title>Node26</title>
<g id="a_node26"><a xlink:href="classdenoptim_1_1graph_1_1_symmetric_a_ps.html#ad9c4e2505401b818c31793385f23946f" target="_top" xlink:title="Checks if this collection SymmetricAPs is analogous to the other one, i.e., they contain AttachmentPo...">
<polygon fill="white" stroke="black" points="375,-0.5 375,-30.5 506,-30.5 506,-0.5 375,-0.5"/>
<text text-anchor="start" x="383" y="-18.5" font-family="Helvetica,sans-Serif" font-size="10.00">denoptim.graph.Symmetric</text>
<text text-anchor="middle" x="440.5" y="-7.5" font-family="Helvetica,sans-Serif" font-size="10.00">APs.sameAs</text>
</a>
</g>
</g>
<!-- Node25&#45;&gt;Node26 -->
<g id="edge34" class="edge">
<title>Node25&#45;&gt;Node26</title>
<path fill="none" stroke="midnightblue" d="M318.69,-115.4C324.18,-112.63 329.4,-109.36 334,-105.5 359.61,-84.04 344.49,-61.08 370,-39.5 371.54,-38.2 373.14,-36.97 374.81,-35.81"/>
<polygon fill="midnightblue" stroke="midnightblue" points="376.83,-38.68 383.58,-30.52 373.21,-32.69 376.83,-38.68"/>
</g>
</g>
</svg>
