<?xml version="1.0" encoding="UTF-8" standalone="no"?>
<!DOCTYPE svg PUBLIC "-//W3C//DTD SVG 1.1//EN"
 "http://www.w3.org/Graphics/SVG/1.1/DTD/svg11.dtd">
<!-- Generated by graphviz version 3.0.0 (20221109.1736)
 -->
<!-- Title: denoptim.programs.RunTimeParameters.containsParameters Pages: 1 -->
<!--zoomable 561 -->
<svg id="main" version="1.1" xmlns="http://www.w3.org/2000/svg" xmlns:xlink="http://www.w3.org/1999/xlink" xml:space="preserve" onload="init(evt)">
<style type="text/css"><![CDATA[
.edge:hover path { stroke: red; }
.edge:hover polygon { stroke: red; fill: red; }
]]></style>
<script type="text/javascript"><![CDATA[
var edges = document.getElementsByTagName('g');
if (edges && edges.length) {
  for (var i=0;i<edges.length;i++) {
    if (edges[i].id.substr(0,4)=='edge') {
      edges[i].setAttribute('class','edge');
    }
  }
}
]]></script>
        <defs>
                <circle id="rim" cx="0" cy="0" r="7"/>
                <circle id="rim2" cx="0" cy="0" r="3.5"/>
                <g id="zoomPlus">
                        <use xlink:href="#rim" fill="#404040">
                                <set attributeName="fill" to="#808080" begin="zoomplus.mouseover" end="zoomplus.mouseout"/>
                        </use>
                        <path d="M-4,0h8M0,-4v8" fill="none" stroke="white" stroke-width="1.5" pointer-events="none"/>
                </g>
                <g id="zoomMin">
                        <use xlink:href="#rim" fill="#404040">
                                <set attributeName="fill" to="#808080" begin="zoomminus.mouseover" end="zoomminus.mouseout"/>
                        </use>
                        <path d="M-4,0h8" fill="none" stroke="white" stroke-width="1.5" pointer-events="none"/>
                </g>
                <g id="dirArrow">
                        <path fill="none" stroke="white" stroke-width="1.5" d="M0,-3.0v7 M-2.5,-0.5L0,-3.0L2.5,-0.5"/>
                </g>
               <g id="resetDef">
                       <use xlink:href="#rim2" fill="#404040">
                               <set attributeName="fill" to="#808080" begin="reset.mouseover" end="reset.mouseout"/>
                       </use>
               </g>
        </defs>

<script type="text/javascript">
var viewWidth = 1302;
var viewHeight = 561;
var sectionId = 'dynsection-4';
</script>
<script xlink:href="svgpan.js"/>
<svg id="graph" class="graph">
<g id="viewport">
<title>denoptim.programs.RunTimeParameters.containsParameters</title>
<polygon fill="white" stroke="transparent" points="-4,4 -4,-556.94 1298,-556.94 1298,4 -4,4"/>
<!-- Node1 -->
<g id="node1" class="node">
<title>Node1</title>
<g id="a_node1"><a xlink:title=" ">
<polygon fill="#bfbfbf" stroke="black" points="1138,-225.5 1138,-255.5 1294,-255.5 1294,-225.5 1138,-225.5"/>
<text text-anchor="start" x="1146" y="-243.5" font-family="Helvetica,sans-Serif" font-size="10.00">denoptim.programs.RunTime</text>
<text text-anchor="middle" x="1216" y="-232.5" font-family="Helvetica,sans-Serif" font-size="10.00">Parameters.containsParameters</text>
</a>
</g>
</g>
<!-- Node2 -->
<g id="node2" class="node">
<title>Node2</title>
<g id="a_node2"><a xlink:href="classdenoptim_1_1molecularmodeling_1_1_multi_molecular_model_builder.html#a6a8e314f3fb37f66c32c8c4d5695b8a4" target="_top" xlink:title="Given the graph representation of the molecular constitution, along with the 3D coordinates of the fr...">
<polygon fill="white" stroke="black" points="242,-448 242,-489 400,-489 400,-448 242,-448"/>
<text text-anchor="start" x="250" y="-477" font-family="Helvetica,sans-Serif" font-size="10.00">denoptim.molecularmodeling.</text>
<text text-anchor="start" x="250" y="-466" font-family="Helvetica,sans-Serif" font-size="10.00">MultiMolecularModelBuilder.build</text>
<text text-anchor="middle" x="321" y="-455" font-family="Helvetica,sans-Serif" font-size="10.00">Multi3DStructure</text>
</a>
</g>
</g>
<!-- Node1&#45;&gt;Node2 -->
<g id="edge1" class="edge">
<title>Node1&#45;&gt;Node2</title>
<path fill="none" stroke="midnightblue" d="M1211.41,-265.61C1202.81,-315.3 1175.92,-425.37 1102,-471.5 871.52,-615.33 523.23,-531.88 383.35,-489.05"/>
<polygon fill="midnightblue" stroke="midnightblue" points="1214.88,-266.13 1213.02,-255.69 1207.97,-265 1214.88,-266.13"/>
</g>
<!-- Node4 -->
<g id="node4" class="node">
<title>Node4</title>
<g id="a_node4"><a xlink:href="classdenoptim_1_1molecularmodeling_1_1_ring_closure_tool.html#a065481cf3ca3229eee8b417fa3f7c0b5" target="_top" xlink:title="Makes new rings by connecting pairs of atoms that hold properly arranged RingClosingAttractors.">
<polygon fill="white" stroke="black" points="918,-431.5 918,-461.5 1060,-461.5 1060,-431.5 918,-431.5"/>
<text text-anchor="start" x="926" y="-449.5" font-family="Helvetica,sans-Serif" font-size="10.00">denoptim.molecularmodeling.</text>
<text text-anchor="middle" x="989" y="-438.5" font-family="Helvetica,sans-Serif" font-size="10.00">RingClosureTool.closeRings</text>
</a>
</g>
</g>
<!-- Node1&#45;&gt;Node4 -->
<g id="edge3" class="edge">
<title>Node1&#45;&gt;Node4</title>
<path fill="none" stroke="midnightblue" d="M1206.92,-265.07C1192.53,-304.8 1158.52,-382.73 1102,-422.5 1089.72,-431.14 1074.94,-436.77 1060.21,-440.42"/>
<polygon fill="midnightblue" stroke="midnightblue" points="1210.23,-266.2 1210.24,-255.61 1203.63,-263.89 1210.23,-266.2"/>
</g>
<!-- Node7 -->
<g id="node7" class="node">
<title>Node7</title>
<g id="a_node7"><a xlink:href="classdenoptim_1_1combinatorial_1_1_combinatorial_explorer_by_layer.html#a8f359a45038dc604a5e437d63a35e1a2" target="_top" xlink:title="Constructor.">
<polygon fill="white" stroke="black" points="898,-372 898,-413 1080,-413 1080,-372 898,-372"/>
<text text-anchor="start" x="906" y="-401" font-family="Helvetica,sans-Serif" font-size="10.00">denoptim.combinatorial.Combinatorial</text>
<text text-anchor="start" x="906" y="-390" font-family="Helvetica,sans-Serif" font-size="10.00">ExplorerByLayer.CombinatorialExplorer</text>
<text text-anchor="middle" x="989" y="-379" font-family="Helvetica,sans-Serif" font-size="10.00">ByLayer</text>
</a>
</g>
</g>
<!-- Node1&#45;&gt;Node7 -->
<g id="edge7" class="edge">
<title>Node1&#45;&gt;Node7</title>
<path fill="none" stroke="midnightblue" d="M1199.81,-263.96C1180.46,-291.92 1144.4,-338.05 1102,-363.5 1095.2,-367.58 1087.83,-371.1 1080.23,-374.12"/>
<polygon fill="midnightblue" stroke="midnightblue" points="1202.78,-265.81 1205.49,-255.57 1196.98,-261.89 1202.78,-265.81"/>
</g>
<!-- Node8 -->
<g id="node8" class="node">
<title>Node8</title>
<g id="a_node8"><a xlink:href="classdenoptim_1_1programs_1_1fitnessevaluator_1_1_fitness_evaluation_task.html#a916d0f71da568a6824263a70b3d3ad4a" target="_top" xlink:title=" ">
<polygon fill="white" stroke="black" points="880.5,-323.5 880.5,-353.5 1097.5,-353.5 1097.5,-323.5 880.5,-323.5"/>
<text text-anchor="start" x="888.5" y="-341.5" font-family="Helvetica,sans-Serif" font-size="10.00">denoptim.programs.fitnessevaluator.</text>
<text text-anchor="middle" x="989" y="-330.5" font-family="Helvetica,sans-Serif" font-size="10.00">FitnessEvaluationTask.FitnessEvaluationTask</text>
</a>
</g>
</g>
<!-- Node1&#45;&gt;Node8 -->
<g id="edge8" class="edge">
<title>Node1&#45;&gt;Node8</title>
<path fill="none" stroke="midnightblue" d="M1188.48,-261.95C1166.54,-278.66 1133.9,-301.18 1102,-314.5 1093.74,-317.95 1084.93,-320.92 1076,-323.49"/>
<polygon fill="midnightblue" stroke="midnightblue" points="1190.87,-264.53 1196.63,-255.64 1186.58,-259 1190.87,-264.53"/>
</g>
<!-- Node9 -->
<g id="node9" class="node">
<title>Node9</title>
<g id="a_node9"><a xlink:href="classdenoptim_1_1ga_1_1_evolutionary_algorithm.html#ad43588620dab3340e0d8b0042ec73618" target="_top" xlink:title="Fills up the population with candidates build from scratch.">
<polygon fill="white" stroke="black" points="919,-274.5 919,-304.5 1059,-304.5 1059,-274.5 919,-274.5"/>
<text text-anchor="start" x="927" y="-292.5" font-family="Helvetica,sans-Serif" font-size="10.00">denoptim.ga.Evolutionary</text>
<text text-anchor="middle" x="989" y="-281.5" font-family="Helvetica,sans-Serif" font-size="10.00">Algorithm.initializePopulation</text>
</a>
</g>
</g>
<!-- Node1&#45;&gt;Node9 -->
<g id="edge9" class="edge">
<title>Node1&#45;&gt;Node9</title>
<path fill="none" stroke="midnightblue" d="M1137.57,-257.7C1125.66,-260.33 1113.5,-263 1102,-265.5 1088.11,-268.53 1073.24,-271.73 1059.02,-274.78"/>
<polygon fill="midnightblue" stroke="midnightblue" points="1138.48,-261.08 1147.5,-255.51 1136.98,-254.25 1138.48,-261.08"/>
</g>
<!-- Node13 -->
<g id="node13" class="node">
<title>Node13</title>
<g id="a_node13"><a xlink:href="classdenoptim_1_1ga_1_1_offspring_evaluation_task.html#ab222efa0ae1a954ba00305d123484264" target="_top" xlink:title=" ">
<polygon fill="white" stroke="black" points="911.5,-225.5 911.5,-255.5 1066.5,-255.5 1066.5,-225.5 911.5,-225.5"/>
<text text-anchor="start" x="919.5" y="-243.5" font-family="Helvetica,sans-Serif" font-size="10.00">denoptim.ga.OffspringEvaluation</text>
<text text-anchor="middle" x="989" y="-232.5" font-family="Helvetica,sans-Serif" font-size="10.00">Task.OffspringEvaluationTask</text>
</a>
</g>
</g>
<!-- Node1&#45;&gt;Node13 -->
<g id="edge13" class="edge">
<title>Node1&#45;&gt;Node13</title>
<path fill="none" stroke="midnightblue" d="M1127.77,-240.5C1107.61,-240.5 1086.31,-240.5 1066.64,-240.5"/>
<polygon fill="midnightblue" stroke="midnightblue" points="1127.88,-244 1137.88,-240.5 1127.88,-237 1127.88,-244"/>
</g>
<!-- Node14 -->
<g id="node14" class="node">
<title>Node14</title>
<g id="a_node14"><a xlink:href="classdenoptim_1_1ga_1_1_e_a_utils.html#a45d4e9ec6a308aa73891efa1d501dd5e" target="_top" xlink:title="Perform fitness&#45;based, class&#45;compatible selection of parents that can do crossover operations.">
<polygon fill="white" stroke="black" points="906,-187 906,-206 1072,-206 1072,-187 906,-187"/>
<text text-anchor="middle" x="989" y="-194" font-family="Helvetica,sans-Serif" font-size="10.00">denoptim.ga.EAUtils.performFBCC</text>
</a>
</g>
</g>
<!-- Node1&#45;&gt;Node14 -->
<g id="edge14" class="edge">
<title>Node1&#45;&gt;Node14</title>
<path fill="none" stroke="midnightblue" d="M1136.08,-223.4C1124.66,-221.02 1113.04,-218.66 1102,-216.5 1083.58,-212.9 1063.41,-209.22 1045.32,-206.01"/>
<polygon fill="midnightblue" stroke="midnightblue" points="1135.55,-226.86 1146.05,-225.48 1136.98,-220.01 1135.55,-226.86"/>
</g>
<!-- Node16 -->
<g id="node16" class="node">
<title>Node16</title>
<g id="a_node16"><a xlink:href="classdenoptim_1_1programs_1_1genetweeker_1_1_gene_ops_runner_parameters.html#a98b6c6b389e456945a968edc31086451" target="_top" xlink:title="Processes all parameters and initialize related objects.">
<polygon fill="white" stroke="black" points="876,-137.5 876,-167.5 1102,-167.5 1102,-137.5 876,-137.5"/>
<text text-anchor="start" x="884" y="-155.5" font-family="Helvetica,sans-Serif" font-size="10.00">denoptim.programs.genetweeker.</text>
<text text-anchor="middle" x="989" y="-144.5" font-family="Helvetica,sans-Serif" font-size="10.00">GeneOpsRunnerParameters.processParameters</text>
</a>
</g>
</g>
<!-- Node1&#45;&gt;Node16 -->
<g id="edge16" class="edge">
<title>Node1&#45;&gt;Node16</title>
<path fill="none" stroke="midnightblue" d="M1183.98,-219.98C1161.92,-206.2 1131.15,-188.61 1102,-177.5 1092.04,-173.7 1081.35,-170.4 1070.67,-167.56"/>
<polygon fill="midnightblue" stroke="midnightblue" points="1182.26,-223.03 1192.58,-225.43 1186.01,-217.12 1182.26,-223.03"/>
</g>
<!-- Node17 -->
<g id="node17" class="node">
<title>Node17</title>
<g id="a_node17"><a xlink:href="classdenoptim_1_1programs_1_1genetweeker_1_1_gene_ops_runner.html#a3c2407eb1204a7b25600d3d347d98447" target="_top" xlink:title=" ">
<polygon fill="white" stroke="black" points="672.5,-93.5 672.5,-123.5 831.5,-123.5 831.5,-93.5 672.5,-93.5"/>
<text text-anchor="start" x="680.5" y="-111.5" font-family="Helvetica,sans-Serif" font-size="10.00">denoptim.programs.genetweeker.</text>
<text text-anchor="middle" x="752" y="-100.5" font-family="Helvetica,sans-Serif" font-size="10.00">GeneOpsRunner.runProgram</text>
</a>
</g>
</g>
<!-- Node1&#45;&gt;Node17 -->
<g id="edge20" class="edge">
<title>Node1&#45;&gt;Node17</title>
<path fill="none" stroke="midnightblue" d="M1199.46,-217.02C1180.19,-190.17 1144.62,-147.49 1102,-128.5 1015.52,-89.97 904.84,-90.97 831.57,-97.63"/>
<polygon fill="midnightblue" stroke="midnightblue" points="1196.76,-219.27 1205.36,-225.46 1202.5,-215.26 1196.76,-219.27"/>
</g>
<!-- Node18 -->
<g id="node18" class="node">
<title>Node18</title>
<g id="a_node18"><a xlink:href="classdenoptim_1_1programs_1_1genetweeker_1_1_gene_ops_runner.html#adb60b4cb2cda6a912a831974c5303df4" target="_top" xlink:title=" ">
<polygon fill="white" stroke="black" points="909.5,-49.5 909.5,-79.5 1068.5,-79.5 1068.5,-49.5 909.5,-49.5"/>
<text text-anchor="start" x="917.5" y="-67.5" font-family="Helvetica,sans-Serif" font-size="10.00">denoptim.programs.genetweeker.</text>
<text text-anchor="middle" x="989" y="-56.5" font-family="Helvetica,sans-Serif" font-size="10.00">GeneOpsRunner.runMutation</text>
</a>
</g>
</g>
<!-- Node1&#45;&gt;Node18 -->
<g id="edge18" class="edge">
<title>Node1&#45;&gt;Node18</title>
<path fill="none" stroke="midnightblue" d="M1203,-216.61C1185.37,-184 1149.37,-126 1102,-94.5 1091.94,-87.81 1080.45,-82.61 1068.74,-78.57"/>
<polygon fill="midnightblue" stroke="midnightblue" points="1199.91,-218.27 1207.67,-225.48 1206.1,-215 1199.91,-218.27"/>
</g>
<!-- Node19 -->
<g id="node19" class="node">
<title>Node19</title>
<g id="a_node19"><a xlink:href="classdenoptim_1_1programs_1_1grapheditor_1_1_graph_editor.html#a649a62e3d4635ef4c19424fa49e6dcd4" target="_top" xlink:title=" ">
<polygon fill="white" stroke="black" points="913,-0.5 913,-30.5 1065,-30.5 1065,-0.5 913,-0.5"/>
<text text-anchor="start" x="921" y="-18.5" font-family="Helvetica,sans-Serif" font-size="10.00">denoptim.programs.grapheditor.</text>
<text text-anchor="middle" x="989" y="-7.5" font-family="Helvetica,sans-Serif" font-size="10.00">GraphEditor.runProgram</text>
</a>
</g>
</g>
<!-- Node1&#45;&gt;Node19 -->
<g id="edge21" class="edge">
<title>Node1&#45;&gt;Node19</title>
<path fill="none" stroke="midnightblue" d="M1208.33,-215.57C1195.45,-172.47 1162.89,-84.35 1102,-39.5 1091.19,-31.54 1078.3,-26.11 1065.17,-22.43"/>
<polygon fill="midnightblue" stroke="midnightblue" points="1204.99,-216.62 1211.12,-225.26 1211.72,-214.69 1204.99,-216.62"/>
</g>
<!-- Node3 -->
<g id="node3" class="node">
<title>Node3</title>
<g id="a_node3"><a xlink:href="classdenoptim_1_1programs_1_1moldecularmodelbuilder_1_1_molecular_model_builder.html#ad2e44290de6a861274def677044e9754" target="_top" xlink:title=" ">
<polygon fill="white" stroke="black" points="0,-453.5 0,-483.5 206,-483.5 206,-453.5 0,-453.5"/>
<text text-anchor="start" x="8" y="-471.5" font-family="Helvetica,sans-Serif" font-size="10.00">denoptim.programs.moldecularmodelbuilder.</text>
<text text-anchor="middle" x="103" y="-460.5" font-family="Helvetica,sans-Serif" font-size="10.00">MolecularModelBuilder.runProgram</text>
</a>
</g>
</g>
<!-- Node2&#45;&gt;Node3 -->
<g id="edge2" class="edge">
<title>Node2&#45;&gt;Node3</title>
<path fill="none" stroke="midnightblue" d="M231.55,-468.5C223.14,-468.5 214.57,-468.5 206.05,-468.5"/>
<polygon fill="midnightblue" stroke="midnightblue" points="231.71,-472 241.71,-468.5 231.71,-465 231.71,-472"/>
</g>
<!-- Node5 -->
<g id="node5" class="node">
<title>Node5</title>
<g id="a_node5"><a xlink:href="classdenoptim_1_1molecularmodeling_1_1_ring_closure_tool.html#abd87e8b7391948be1c3156eb9d131be7" target="_top" xlink:title="Attempts to close rings by finding the conformation that allows to join heads and tails of atom speci...">
<polygon fill="white" stroke="black" points="664,-431.5 664,-461.5 840,-461.5 840,-431.5 664,-431.5"/>
<text text-anchor="start" x="672" y="-449.5" font-family="Helvetica,sans-Serif" font-size="10.00">denoptim.molecularmodeling.</text>
<text text-anchor="middle" x="752" y="-438.5" font-family="Helvetica,sans-Serif" font-size="10.00">RingClosureTool.attemptRingClosure</text>
</a>
</g>
</g>
<!-- Node4&#45;&gt;Node5 -->
<g id="edge4" class="edge">
<title>Node4&#45;&gt;Node5</title>
<path fill="none" stroke="midnightblue" d="M907.66,-446.5C885.96,-446.5 862.38,-446.5 840.31,-446.5"/>
<polygon fill="midnightblue" stroke="midnightblue" points="907.81,-450 917.81,-446.5 907.81,-443 907.81,-450"/>
</g>
<!-- Node6 -->
<g id="node6" class="node">
<title>Node6</title>
<g id="a_node6"><a xlink:href="classdenoptim_1_1molecularmodeling_1_1_ring_closure_tool.html#a26896649739e0a5e63dd88079c6efe7a" target="_top" xlink:title="Performs one or more attempts to close rings by conformational adaptation.">
<polygon fill="white" stroke="black" points="436,-431.5 436,-461.5 628,-461.5 628,-431.5 436,-431.5"/>
<text text-anchor="start" x="444" y="-449.5" font-family="Helvetica,sans-Serif" font-size="10.00">denoptim.molecularmodeling.</text>
<text text-anchor="middle" x="532" y="-438.5" font-family="Helvetica,sans-Serif" font-size="10.00">RingClosureTool.attemptAllRingClosures</text>
</a>
</g>
</g>
<!-- Node5&#45;&gt;Node6 -->
<g id="edge5" class="edge">
<title>Node5&#45;&gt;Node6</title>
<path fill="none" stroke="midnightblue" d="M653.64,-446.5C645.19,-446.5 636.63,-446.5 628.19,-446.5"/>
<polygon fill="midnightblue" stroke="midnightblue" points="653.9,-450 663.9,-446.5 653.9,-443 653.9,-450"/>
</g>
<!-- Node6&#45;&gt;Node2 -->
<g id="edge6" class="edge">
<title>Node6&#45;&gt;Node2</title>
<path fill="none" stroke="midnightblue" d="M425.85,-457.57C417.22,-458.48 408.59,-459.39 400.2,-460.27"/>
<polygon fill="midnightblue" stroke="midnightblue" points="426.4,-461.03 435.98,-456.5 425.67,-454.07 426.4,-461.03"/>
</g>
<!-- Node10 -->
<g id="node10" class="node">
<title>Node10</title>
<g id="a_node10"><a xlink:href="classdenoptim_1_1ga_1_1_evolutionary_algorithm.html#a6bfc2fa59b199da6259b5b6bad3d6de7" target="_top" xlink:title=" ">
<polygon fill="white" stroke="black" points="690,-274.5 690,-304.5 814,-304.5 814,-274.5 690,-274.5"/>
<text text-anchor="start" x="698" y="-292.5" font-family="Helvetica,sans-Serif" font-size="10.00">denoptim.ga.Evolutionary</text>
<text text-anchor="middle" x="752" y="-281.5" font-family="Helvetica,sans-Serif" font-size="10.00">Algorithm.run</text>
</a>
</g>
</g>
<!-- Node9&#45;&gt;Node10 -->
<g id="edge10" class="edge">
<title>Node9&#45;&gt;Node10</title>
<path fill="none" stroke="midnightblue" d="M908.48,-289.5C877.67,-289.5 842.96,-289.5 814.16,-289.5"/>
<polygon fill="midnightblue" stroke="midnightblue" points="908.76,-293 918.76,-289.5 908.76,-286 908.76,-293"/>
</g>
<!-- Node11 -->
<g id="node11" class="node">
<title>Node11</title>
<g id="a_node11"><a xlink:href="classdenoptim_1_1ga_1_1_evolutionary_algorithm.html#a0f2063b722b7291daf83d62acaa683d3" target="_top" xlink:title=" ">
<polygon fill="white" stroke="black" points="455,-299.5 455,-329.5 609,-329.5 609,-299.5 455,-299.5"/>
<text text-anchor="start" x="463" y="-317.5" font-family="Helvetica,sans-Serif" font-size="10.00">denoptim.ga.Evolutionary</text>
<text text-anchor="middle" x="532" y="-306.5" font-family="Helvetica,sans-Serif" font-size="10.00">Algorithm.EvolutionaryAlgorithm</text>
</a>
</g>
</g>
<!-- Node10&#45;&gt;Node11 -->
<g id="edge11" class="edge">
<title>Node10&#45;&gt;Node11</title>
<path fill="none" stroke="midnightblue" d="M679.79,-297.67C657.19,-300.26 632.11,-303.13 609.17,-305.76"/>
<polygon fill="midnightblue" stroke="midnightblue" points="680.45,-301.11 689.98,-296.5 679.65,-294.16 680.45,-301.11"/>
</g>
<!-- Node12 -->
<g id="node12" class="node">
<title>Node12</title>
<g id="a_node12"><a xlink:href="classdenoptim_1_1programs_1_1denovo_1_1_g_a_runner.html#a7cafd6d78727b89dce3e2c8d06f0dd7c" target="_top" xlink:title=" ">
<polygon fill="white" stroke="black" points="464.5,-250.5 464.5,-280.5 599.5,-280.5 599.5,-250.5 464.5,-250.5"/>
<text text-anchor="start" x="472.5" y="-268.5" font-family="Helvetica,sans-Serif" font-size="10.00">denoptim.programs.denovo.</text>
<text text-anchor="middle" x="532" y="-257.5" font-family="Helvetica,sans-Serif" font-size="10.00">GARunner.runProgram</text>
</a>
</g>
</g>
<!-- Node10&#45;&gt;Node12 -->
<g id="edge12" class="edge">
<title>Node10&#45;&gt;Node12</title>
<path fill="none" stroke="midnightblue" d="M679.91,-281.67C654.13,-278.84 625.12,-275.64 599.74,-272.85"/>
<polygon fill="midnightblue" stroke="midnightblue" points="679.66,-285.17 689.98,-282.78 680.43,-278.21 679.66,-285.17"/>
</g>
<!-- Node15 -->
<g id="node15" class="node">
<title>Node15</title>
<g id="a_node15"><a xlink:href="classdenoptim_1_1ga_1_1_e_a_utils.html#a0b958439d79fae30f14530213ad22e3a" target="_top" xlink:title="Generates up to a pair of new offspring by performing a crossover operation.">
<polygon fill="white" stroke="black" points="688.5,-181.5 688.5,-211.5 815.5,-211.5 815.5,-181.5 688.5,-181.5"/>
<text text-anchor="start" x="696.5" y="-199.5" font-family="Helvetica,sans-Serif" font-size="10.00">denoptim.ga.EAUtils.build</text>
<text text-anchor="middle" x="752" y="-188.5" font-family="Helvetica,sans-Serif" font-size="10.00">CandidatesByXOver</text>
</a>
</g>
</g>
<!-- Node14&#45;&gt;Node15 -->
<g id="edge15" class="edge">
<title>Node14&#45;&gt;Node15</title>
<path fill="none" stroke="midnightblue" d="M895.62,-196.5C868.76,-196.5 840.07,-196.5 815.51,-196.5"/>
<polygon fill="midnightblue" stroke="midnightblue" points="895.81,-200 905.81,-196.5 895.81,-193 895.81,-200"/>
</g>
<!-- Node16&#45;&gt;Node17 -->
<g id="edge17" class="edge">
<title>Node16&#45;&gt;Node17</title>
<path fill="none" stroke="midnightblue" d="M897.87,-135.62C876.05,-131.54 852.9,-127.21 831.66,-123.23"/>
<polygon fill="midnightblue" stroke="midnightblue" points="897.31,-139.08 907.78,-137.48 898.6,-132.2 897.31,-139.08"/>
</g>
<!-- Node18&#45;&gt;Node17 -->
<g id="edge19" class="edge">
<title>Node18&#45;&gt;Node17</title>
<path fill="none" stroke="midnightblue" d="M899.3,-81.11C877.01,-85.28 853.25,-89.73 831.5,-93.8"/>
<polygon fill="midnightblue" stroke="midnightblue" points="900.24,-84.49 909.42,-79.21 898.95,-77.61 900.24,-84.49"/>
</g>
</g>
</svg>
        <g id="navigator" transform="translate(0 0)" fill="#404254">
                <rect fill="#f2f5e9" fill-opacity="0.5" stroke="#606060" stroke-width=".5" x="0" y="0" width="60" height="60"/>
                <use id="zoomplus" xlink:href="#zoomPlus" x="17" y="9" onmousedown="handleZoom(evt,'in')"/>
                <use id="zoomminus" xlink:href="#zoomMin" x="42" y="9" onmousedown="handleZoom(evt,'out')"/>
                <use id="reset" xlink:href="#resetDef" x="30" y="36" onmousedown="handleReset()"/>
                <g id="arrowUp" xlink:href="#dirArrow" transform="translate(30 24)" onmousedown="handlePan(0,-1)">
                  <use xlink:href="#rim" fill="#404040">
                        <set attributeName="fill" to="#808080" begin="arrowUp.mouseover" end="arrowUp.mouseout"/>
                  </use>
                  <path fill="none" stroke="white" stroke-width="1.5" d="M0,-3.0v7 M-2.5,-0.5L0,-3.0L2.5,-0.5"/>
                </g>
                <g id="arrowRight" xlink:href="#dirArrow" transform="rotate(90) translate(36 -43)" onmousedown="handlePan(1,0)">
                  <use xlink:href="#rim" fill="#404040">
                        <set attributeName="fill" to="#808080" begin="arrowRight.mouseover" end="arrowRight.mouseout"/>
                  </use>
                  <path fill="none" stroke="white" stroke-width="1.5" d="M0,-3.0v7 M-2.5,-0.5L0,-3.0L2.5,-0.5"/>
                </g>
                <g id="arrowDown" xlink:href="#dirArrow" transform="rotate(180) translate(-30 -48)" onmousedown="handlePan(0,1)">
                  <use xlink:href="#rim" fill="#404040">
                        <set attributeName="fill" to="#808080" begin="arrowDown.mouseover" end="arrowDown.mouseout"/>
                  </use>
                  <path fill="none" stroke="white" stroke-width="1.5" d="M0,-3.0v7 M-2.5,-0.5L0,-3.0L2.5,-0.5"/>
                </g>
                <g id="arrowLeft" xlink:href="#dirArrow" transform="rotate(270) translate(-36 17)" onmousedown="handlePan(-1,0)">
                  <use xlink:href="#rim" fill="#404040">
                        <set attributeName="fill" to="#808080" begin="arrowLeft.mouseover" end="arrowLeft.mouseout"/>
                  </use>
                  <path fill="none" stroke="white" stroke-width="1.5" d="M0,-3.0v7 M-2.5,-0.5L0,-3.0L2.5,-0.5"/>
                </g>
        </g>
        <svg viewBox="0 0 15 15" width="100%" height="30px" preserveAspectRatio="xMaxYMin meet">
         <g id="arrow_out" transform="scale(0.3 0.3)">
          <a xlink:href="classdenoptim_1_1programs_1_1_run_time_parameters_a132443dda8e8278736100a7ff759f666_icgraph_org.svg" target="_base">
           <rect id="button" ry="5" rx="5" y="6" x="6" height="38" width="38"
                fill="#f2f5e9" fill-opacity="0.5" stroke="#606060" stroke-width="1.0"/>
           <path id="arrow"
             d="M 11.500037,31.436501 C 11.940474,20.09759 22.043105,11.32322 32.158766,21.979434 L 37.068811,17.246167 C 37.068811,17.246167 37.088388,32 37.088388,32 L 22.160133,31.978069 C 22.160133,31.978069 26.997745,27.140456 26.997745,27.140456 C 18.528582,18.264221 13.291696,25.230495 11.500037,31.436501 z"
             style="fill:#404040;"/>
          </a>
         </g>
        </svg>
</svg>
