<?xml version="1.0" encoding="UTF-8" standalone="no"?>
<!DOCTYPE svg PUBLIC "-//W3C//DTD SVG 1.1//EN"
 "http://www.w3.org/Graphics/SVG/1.1/DTD/svg11.dtd">
<!-- Generated by graphviz version 3.0.0 (20221109.1736)
 -->
<!-- Title: denoptim.ga.GraphOperations.getRCVForSrcAp Pages: 1 -->
<svg width="534pt" height="186pt"
 viewBox="0.00 0.00 534.00 186.00" xmlns="http://www.w3.org/2000/svg" xmlns:xlink="http://www.w3.org/1999/xlink">
<g id="graph0" class="graph" transform="scale(1 1) rotate(0) translate(4 182)">
<title>denoptim.ga.GraphOperations.getRCVForSrcAp</title>
<polygon fill="white" stroke="transparent" points="-4,4 -4,-182 530,-182 530,4 -4,4"/>
<!-- Node1 -->
<g id="node1" class="node">
<title>Node1</title>
<g id="a_node1"><a xlink:title="Select a compatible ring&#45;closing vertex for the given attachment point.">
<polygon fill="#bfbfbf" stroke="black" points="0,-73.5 0,-103.5 161,-103.5 161,-73.5 0,-73.5"/>
<text text-anchor="start" x="8" y="-91.5" font-family="Helvetica,sans-Serif" font-size="10.00">denoptim.ga.GraphOperations.get</text>
<text text-anchor="middle" x="80.5" y="-80.5" font-family="Helvetica,sans-Serif" font-size="10.00">RCVForSrcAp</text>
</a>
</g>
</g>
<!-- Node2 -->
<g id="node2" class="node">
<title>Node2</title>
<g id="a_node2"><a xlink:href="classdenoptim_1_1graph_1_1_attachment_point.html#a31bed4cb29f6437bf8a888a1dda3fd95" target="_top" xlink:title="Returns the Attachment Point class.">
<polygon fill="white" stroke="black" points="197,-147.5 197,-177.5 332,-177.5 332,-147.5 197,-147.5"/>
<text text-anchor="start" x="205" y="-165.5" font-family="Helvetica,sans-Serif" font-size="10.00">denoptim.graph.Attachment</text>
<text text-anchor="middle" x="264.5" y="-154.5" font-family="Helvetica,sans-Serif" font-size="10.00">Point.getAPClass</text>
</a>
</g>
</g>
<!-- Node1&#45;&gt;Node2 -->
<g id="edge1" class="edge">
<title>Node1&#45;&gt;Node2</title>
<path fill="none" stroke="midnightblue" d="M114.88,-103.6C137.82,-113.82 169.07,-127.43 197,-138.5 201.47,-140.27 206.13,-142.07 210.82,-143.83"/>
<polygon fill="midnightblue" stroke="midnightblue" points="209.83,-147.2 220.43,-147.4 212.27,-140.63 209.83,-147.2"/>
</g>
<!-- Node3 -->
<g id="node3" class="node">
<title>Node3</title>
<g id="a_node3"><a xlink:href="classdenoptim_1_1graph_1_1_vertex.html#a200f775296c4c9804e3a2b59e065be8a" target="_top" xlink:title="Returns the index of the building block that should correspond to the position of the building block ...">
<polygon fill="white" stroke="black" points="200.5,-98.5 200.5,-128.5 328.5,-128.5 328.5,-98.5 200.5,-98.5"/>
<text text-anchor="start" x="208.5" y="-116.5" font-family="Helvetica,sans-Serif" font-size="10.00">denoptim.graph.Vertex.get</text>
<text text-anchor="middle" x="264.5" y="-105.5" font-family="Helvetica,sans-Serif" font-size="10.00">BuildingBlockId</text>
</a>
</g>
</g>
<!-- Node1&#45;&gt;Node3 -->
<g id="edge2" class="edge">
<title>Node1&#45;&gt;Node3</title>
<path fill="none" stroke="midnightblue" d="M161.06,-99.43C170.79,-100.76 180.69,-102.13 190.32,-103.45"/>
<polygon fill="midnightblue" stroke="midnightblue" points="189.85,-106.92 200.23,-104.81 190.8,-99.98 189.85,-106.92"/>
</g>
<!-- Node4 -->
<g id="node4" class="node">
<title>Node4</title>
<g id="a_node4"><a xlink:href="classdenoptim_1_1graph_1_1_vertex.html#a46dadb5fd30f1877db91e97ae55c2dd8" target="_top" xlink:title=" ">
<polygon fill="white" stroke="black" points="200.5,-49.5 200.5,-79.5 328.5,-79.5 328.5,-49.5 200.5,-49.5"/>
<text text-anchor="start" x="208.5" y="-67.5" font-family="Helvetica,sans-Serif" font-size="10.00">denoptim.graph.Vertex.get</text>
<text text-anchor="middle" x="264.5" y="-56.5" font-family="Helvetica,sans-Serif" font-size="10.00">BuildingBlockType</text>
</a>
</g>
</g>
<!-- Node1&#45;&gt;Node4 -->
<g id="edge3" class="edge">
<title>Node1&#45;&gt;Node4</title>
<path fill="none" stroke="midnightblue" d="M161.06,-78.01C170.69,-76.74 180.48,-75.45 190.01,-74.19"/>
<polygon fill="midnightblue" stroke="midnightblue" points="190.77,-77.62 200.23,-72.84 189.86,-70.68 190.77,-77.62"/>
</g>
<!-- Node5 -->
<g id="node5" class="node">
<title>Node5</title>
<g id="a_node5"><a xlink:href="classdenoptim_1_1graph_1_1_a_p_class.html#a12ddb416c705a90f1e9bccb1b0de2749" target="_top" xlink:title="Check compatibility as defined in the compatibility matrix considering this AP as source and the othe...">
<polygon fill="white" stroke="black" points="198,-0.5 198,-30.5 331,-30.5 331,-0.5 198,-0.5"/>
<text text-anchor="start" x="206" y="-18.5" font-family="Helvetica,sans-Serif" font-size="10.00">denoptim.graph.APClass.is</text>
<text text-anchor="middle" x="264.5" y="-7.5" font-family="Helvetica,sans-Serif" font-size="10.00">CPMapCompatibleWith</text>
</a>
</g>
</g>
<!-- Node1&#45;&gt;Node5 -->
<g id="edge4" class="edge">
<title>Node1&#45;&gt;Node5</title>
<path fill="none" stroke="midnightblue" d="M116.76,-73.48C139.57,-63.85 169.94,-51.2 197,-40.5 202.16,-38.46 207.56,-36.36 212.96,-34.29"/>
<polygon fill="midnightblue" stroke="midnightblue" points="214.52,-37.44 222.62,-30.62 212.03,-30.9 214.52,-37.44"/>
</g>
<!-- Node6 -->
<g id="node6" class="node">
<title>Node6</title>
<g id="a_node6"><a xlink:href="classdenoptim_1_1fragspace_1_1_fragment_space.html#ada04f68d55f8ff85345e2a6c6d1ad840" target="_top" xlink:title="Returns a list of APClasses compatible with the given APClass.">
<polygon fill="white" stroke="black" points="368,-0.5 368,-30.5 526,-30.5 526,-0.5 368,-0.5"/>
<text text-anchor="start" x="376" y="-18.5" font-family="Helvetica,sans-Serif" font-size="10.00">denoptim.fragspace.Fragment</text>
<text text-anchor="middle" x="447" y="-7.5" font-family="Helvetica,sans-Serif" font-size="10.00">Space.getCompatibleAPClasses</text>
</a>
</g>
</g>
<!-- Node5&#45;&gt;Node6 -->
<g id="edge5" class="edge">
<title>Node5&#45;&gt;Node6</title>
<path fill="none" stroke="midnightblue" d="M331.18,-15.5C339.82,-15.5 348.78,-15.5 357.73,-15.5"/>
<polygon fill="midnightblue" stroke="midnightblue" points="357.79,-19 367.79,-15.5 357.79,-12 357.79,-19"/>
</g>
</g>
</svg>
