<?xml version="1.0" encoding="UTF-8" standalone="no"?>
<!DOCTYPE svg PUBLIC "-//W3C//DTD SVG 1.1//EN"
 "http://www.w3.org/Graphics/SVG/1.1/DTD/svg11.dtd">
<!-- Generated by graphviz version 3.0.0 (20221109.1736)
 -->
<!-- Title: denoptim.graph.Edge.getSrcAPClass Pages: 1 -->
<svg width="2090pt" height="306pt"
 viewBox="0.00 0.00 2090.00 305.50" xmlns="http://www.w3.org/2000/svg" xmlns:xlink="http://www.w3.org/1999/xlink">
<g id="graph0" class="graph" transform="scale(1 1) rotate(0) translate(4 301.5)">
<title>denoptim.graph.Edge.getSrcAPClass</title>
<polygon fill="white" stroke="transparent" points="-4,4 -4,-301.5 2086,-301.5 2086,4 -4,4"/>
<!-- Node1 -->
<g id="node1" class="node">
<title>Node1</title>
<g id="a_node1"><a xlink:title=" ">
<polygon fill="#bfbfbf" stroke="black" points="1945,-105.5 1945,-135.5 2082,-135.5 2082,-105.5 1945,-105.5"/>
<text text-anchor="start" x="1953" y="-123.5" font-family="Helvetica,sans-Serif" font-size="10.00">denoptim.graph.Edge.getSrc</text>
<text text-anchor="middle" x="2013.5" y="-112.5" font-family="Helvetica,sans-Serif" font-size="10.00">APClass</text>
</a>
</g>
</g>
<!-- Node2 -->
<g id="node2" class="node">
<title>Node2</title>
<g id="a_node2"><a xlink:href="classdenoptim_1_1graph_1_1rings_1_1_cyclic_graph_handler.html#a8dcec9483dc562e8696ea90a65842327" target="_top" xlink:title="Method to analyze a pair of vertices and evaluate whether they respect the criteria for being the two...">
<polygon fill="white" stroke="black" points="1755,-136.5 1755,-166.5 1908,-166.5 1908,-136.5 1755,-136.5"/>
<text text-anchor="start" x="1763" y="-154.5" font-family="Helvetica,sans-Serif" font-size="10.00">denoptim.graph.rings.Cyclic</text>
<text text-anchor="middle" x="1831.5" y="-143.5" font-family="Helvetica,sans-Serif" font-size="10.00">GraphHandler.evaluateRCVPair</text>
</a>
</g>
</g>
<!-- Node1&#45;&gt;Node2 -->
<g id="edge1" class="edge">
<title>Node1&#45;&gt;Node2</title>
<path fill="none" stroke="midnightblue" d="M1935.03,-133.84C1926.16,-135.37 1917.12,-136.93 1908.27,-138.45"/>
<polygon fill="midnightblue" stroke="midnightblue" points="1935.7,-137.28 1944.96,-132.13 1934.51,-130.38 1935.7,-137.28"/>
</g>
<!-- Node21 -->
<g id="node21" class="node">
<title>Node21</title>
<g id="a_node21"><a xlink:href="classdenoptim_1_1ga_1_1_graph_operations.html#a4f66827484cc4de0ac568545fb2033c2" target="_top" xlink:title="Evaluate AP class&#45;compatibility of a pair of edges with respect to crossover.">
<polygon fill="white" stroke="black" points="1754,-81.5 1754,-111.5 1909,-111.5 1909,-81.5 1754,-81.5"/>
<text text-anchor="start" x="1762" y="-99.5" font-family="Helvetica,sans-Serif" font-size="10.00">denoptim.ga.GraphOperations.is</text>
<text text-anchor="middle" x="1831.5" y="-88.5" font-family="Helvetica,sans-Serif" font-size="10.00">CrossoverPossible</text>
</a>
</g>
</g>
<!-- Node1&#45;&gt;Node21 -->
<g id="edge26" class="edge">
<title>Node1&#45;&gt;Node21</title>
<path fill="none" stroke="midnightblue" d="M1935.01,-110.17C1926.45,-109.03 1917.74,-107.86 1909.19,-106.73"/>
<polygon fill="midnightblue" stroke="midnightblue" points="1934.59,-113.64 1944.96,-111.5 1935.51,-106.7 1934.59,-113.64"/>
</g>
<!-- Node3 -->
<g id="node3" class="node">
<title>Node3</title>
<g id="a_node3"><a xlink:href="classdenoptim_1_1graph_1_1rings_1_1_cyclic_graph_handler_1_1_ring_size_manager.html#a68b1aa5cd1df8bb959064588e994b74e" target="_top" xlink:title=" ">
<polygon fill="white" stroke="black" points="1522,-156 1522,-197 1718,-197 1718,-156 1522,-156"/>
<text text-anchor="start" x="1530" y="-185" font-family="Helvetica,sans-Serif" font-size="10.00">denoptim.graph.rings.Cyclic</text>
<text text-anchor="start" x="1530" y="-174" font-family="Helvetica,sans-Serif" font-size="10.00">GraphHandler.RingSizeManager.calculate</text>
<text text-anchor="middle" x="1620" y="-163" font-family="Helvetica,sans-Serif" font-size="10.00">CompatibilityOfAllRCAPairs</text>
</a>
</g>
</g>
<!-- Node2&#45;&gt;Node3 -->
<g id="edge2" class="edge">
<title>Node2&#45;&gt;Node3</title>
<path fill="none" stroke="midnightblue" d="M1744.66,-161.74C1735.89,-162.79 1726.93,-163.86 1718.05,-164.92"/>
<polygon fill="midnightblue" stroke="midnightblue" points="1745.35,-165.19 1754.87,-160.53 1744.52,-158.24 1745.35,-165.19"/>
</g>
<!-- Node4 -->
<g id="node4" class="node">
<title>Node4</title>
<g id="a_node4"><a xlink:href="classdenoptim_1_1graph_1_1rings_1_1_cyclic_graph_handler_1_1_ring_size_manager.html#a0fc0f3889f18d330fc50f28a4264ca21" target="_top" xlink:title=" ">
<polygon fill="white" stroke="black" points="1304,-156 1304,-197 1477,-197 1477,-156 1304,-156"/>
<text text-anchor="start" x="1312" y="-185" font-family="Helvetica,sans-Serif" font-size="10.00">denoptim.graph.rings.Cyclic</text>
<text text-anchor="start" x="1312" y="-174" font-family="Helvetica,sans-Serif" font-size="10.00">GraphHandler.RingSizeManager.add</text>
<text text-anchor="middle" x="1390.5" y="-163" font-family="Helvetica,sans-Serif" font-size="10.00">RingClosingBond</text>
</a>
</g>
</g>
<!-- Node3&#45;&gt;Node4 -->
<g id="edge3" class="edge">
<title>Node3&#45;&gt;Node4</title>
<path fill="none" stroke="midnightblue" d="M1511.72,-176.5C1500.13,-176.5 1488.46,-176.5 1477.18,-176.5"/>
<polygon fill="midnightblue" stroke="midnightblue" points="1511.86,-180 1521.86,-176.5 1511.86,-173 1511.86,-180"/>
</g>
<!-- Node17 -->
<g id="node17" class="node">
<title>Node17</title>
<g id="a_node17"><a xlink:href="classdenoptim_1_1graph_1_1rings_1_1_cyclic_graph_handler_1_1_ring_size_manager.html#a9b1b85afae57c94c9059527bd796259c" target="_top" xlink:title=" ">
<polygon fill="white" stroke="black" points="1295,-215.5 1295,-245.5 1486,-245.5 1486,-215.5 1295,-215.5"/>
<text text-anchor="start" x="1303" y="-233.5" font-family="Helvetica,sans-Serif" font-size="10.00">denoptim.graph.rings.Cyclic</text>
<text text-anchor="middle" x="1390.5" y="-222.5" font-family="Helvetica,sans-Serif" font-size="10.00">GraphHandler.RingSizeManager.initialize</text>
</a>
</g>
</g>
<!-- Node3&#45;&gt;Node17 -->
<g id="edge20" class="edge">
<title>Node3&#45;&gt;Node17</title>
<path fill="none" stroke="midnightblue" d="M1522.61,-199.38C1499.73,-204.81 1475.9,-210.47 1454.92,-215.45"/>
<polygon fill="midnightblue" stroke="midnightblue" points="1523.42,-202.78 1532.34,-197.07 1521.81,-195.97 1523.42,-202.78"/>
</g>
<!-- Node5 -->
<g id="node5" class="node">
<title>Node5</title>
<g id="a_node5"><a xlink:href="classdenoptim_1_1graph_1_1rings_1_1_cyclic_graph_handler.html#a08b02946eaac7c2cbbe6e71332d702e6" target="_top" xlink:title="Identifies a random combination of ring closing paths and returns it as list of DENOPTIMRings ready t...">
<polygon fill="white" stroke="black" points="1076,-196 1076,-237 1258,-237 1258,-196 1076,-196"/>
<text text-anchor="start" x="1084" y="-225" font-family="Helvetica,sans-Serif" font-size="10.00">denoptim.graph.rings.Cyclic</text>
<text text-anchor="start" x="1084" y="-214" font-family="Helvetica,sans-Serif" font-size="10.00">GraphHandler.getRandomCombination</text>
<text text-anchor="middle" x="1167" y="-203" font-family="Helvetica,sans-Serif" font-size="10.00">OfRings</text>
</a>
</g>
</g>
<!-- Node4&#45;&gt;Node5 -->
<g id="edge4" class="edge">
<title>Node4&#45;&gt;Node5</title>
<path fill="none" stroke="midnightblue" d="M1293.96,-193.75C1282.08,-195.9 1269.97,-198.09 1258.18,-200.22"/>
<polygon fill="midnightblue" stroke="midnightblue" points="1294.64,-197.19 1303.86,-191.97 1293.4,-190.3 1294.64,-197.19"/>
</g>
<!-- Node6 -->
<g id="node6" class="node">
<title>Node6</title>
<g id="a_node6"><a xlink:href="classdenoptim_1_1ga_1_1_e_a_utils.html#a1ddb932d4618434d435e4f85ce5e5eb5" target="_top" xlink:title="Evaluates the possibility of closing rings in a given graph and if any ring can be closed,...">
<polygon fill="white" stroke="black" points="890.5,-201.5 890.5,-231.5 1021.5,-231.5 1021.5,-201.5 890.5,-201.5"/>
<text text-anchor="start" x="898.5" y="-219.5" font-family="Helvetica,sans-Serif" font-size="10.00">denoptim.ga.EAUtils.setup</text>
<text text-anchor="middle" x="956" y="-208.5" font-family="Helvetica,sans-Serif" font-size="10.00">Rings</text>
</a>
</g>
</g>
<!-- Node5&#45;&gt;Node6 -->
<g id="edge5" class="edge">
<title>Node5&#45;&gt;Node6</title>
<path fill="none" stroke="midnightblue" d="M1065.55,-216.5C1050.62,-216.5 1035.58,-216.5 1021.66,-216.5"/>
<polygon fill="midnightblue" stroke="midnightblue" points="1065.85,-220 1075.85,-216.5 1065.85,-213 1065.85,-220"/>
</g>
<!-- Node7 -->
<g id="node7" class="node">
<title>Node7</title>
<g id="a_node7"><a xlink:href="classdenoptim_1_1ga_1_1_e_a_utils.html#a8122818f58919fce84dce75e7506025a" target="_top" xlink:title=" ">
<polygon fill="white" stroke="black" points="701,-207.5 701,-237.5 828,-237.5 828,-207.5 701,-207.5"/>
<text text-anchor="start" x="709" y="-225.5" font-family="Helvetica,sans-Serif" font-size="10.00">denoptim.ga.EAUtils.build</text>
<text text-anchor="middle" x="764.5" y="-214.5" font-family="Helvetica,sans-Serif" font-size="10.00">CandidateByMutation</text>
</a>
</g>
</g>
<!-- Node6&#45;&gt;Node7 -->
<g id="edge6" class="edge">
<title>Node6&#45;&gt;Node7</title>
<path fill="none" stroke="midnightblue" d="M880.3,-218.87C863.09,-219.41 844.94,-219.98 828.29,-220.51"/>
<polygon fill="midnightblue" stroke="midnightblue" points="880.43,-222.36 890.31,-218.55 880.21,-215.37 880.43,-222.36"/>
</g>
<!-- Node14 -->
<g id="node14" class="node">
<title>Node14</title>
<g id="a_node14"><a xlink:href="classdenoptim_1_1ga_1_1_e_a_utils.html#ad3d2daeb11e68a356e971ca1846596b5" target="_top" xlink:title=" ">
<polygon fill="white" stroke="black" points="701,-158.5 701,-188.5 828,-188.5 828,-158.5 701,-158.5"/>
<text text-anchor="start" x="709" y="-176.5" font-family="Helvetica,sans-Serif" font-size="10.00">denoptim.ga.EAUtils.build</text>
<text text-anchor="middle" x="764.5" y="-165.5" font-family="Helvetica,sans-Serif" font-size="10.00">CandidateFromScratch</text>
</a>
</g>
</g>
<!-- Node6&#45;&gt;Node14 -->
<g id="edge14" class="edge">
<title>Node6&#45;&gt;Node14</title>
<path fill="none" stroke="midnightblue" d="M880.3,-199.55C863.09,-195.64 844.94,-191.53 828.29,-187.75"/>
<polygon fill="midnightblue" stroke="midnightblue" points="879.79,-203.02 890.31,-201.82 881.34,-196.2 879.79,-203.02"/>
</g>
<!-- Node16 -->
<g id="node16" class="node">
<title>Node16</title>
<g id="a_node16"><a xlink:href="classdenoptim_1_1ga_1_1_e_a_utils.html#a0b958439d79fae30f14530213ad22e3a" target="_top" xlink:title="Generates up to a pair of new offspring by performing a crossover operation.">
<polygon fill="white" stroke="black" points="701,-94.5 701,-124.5 828,-124.5 828,-94.5 701,-94.5"/>
<text text-anchor="start" x="709" y="-112.5" font-family="Helvetica,sans-Serif" font-size="10.00">denoptim.ga.EAUtils.build</text>
<text text-anchor="middle" x="764.5" y="-101.5" font-family="Helvetica,sans-Serif" font-size="10.00">CandidatesByXOver</text>
</a>
</g>
</g>
<!-- Node6&#45;&gt;Node16 -->
<g id="edge19" class="edge">
<title>Node6&#45;&gt;Node16</title>
<path fill="none" stroke="midnightblue" d="M920.44,-196.3C896.99,-182.66 865.22,-164.32 837,-148.5 822.69,-140.48 806.67,-131.72 793.43,-124.54"/>
<polygon fill="midnightblue" stroke="midnightblue" points="918.91,-199.46 929.32,-201.47 922.44,-193.41 918.91,-199.46"/>
</g>
<!-- Node8 -->
<g id="node8" class="node">
<title>Node8</title>
<g id="a_node8"><a xlink:href="classdenoptim_1_1ga_1_1_evolutionary_algorithm.html#a0c2e353b243250b4959a3f86608f1020" target="_top" xlink:title="Generates one offspring according to the method where crossover and mutation are decoupled,...">
<polygon fill="white" stroke="black" points="526,-158.5 526,-188.5 656,-188.5 656,-158.5 526,-158.5"/>
<text text-anchor="start" x="534" y="-176.5" font-family="Helvetica,sans-Serif" font-size="10.00">denoptim.ga.Evolutionary</text>
<text text-anchor="middle" x="591" y="-165.5" font-family="Helvetica,sans-Serif" font-size="10.00">Algorithm.makeOffspringA</text>
</a>
</g>
</g>
<!-- Node7&#45;&gt;Node8 -->
<g id="edge7" class="edge">
<title>Node7&#45;&gt;Node8</title>
<path fill="none" stroke="midnightblue" d="M700.87,-204.61C682.42,-199.34 662.44,-193.62 644.68,-188.55"/>
<polygon fill="midnightblue" stroke="midnightblue" points="700.07,-208.02 710.64,-207.4 701.99,-201.29 700.07,-208.02"/>
</g>
<!-- Node13 -->
<g id="node13" class="node">
<title>Node13</title>
<g id="a_node13"><a xlink:href="classdenoptim_1_1ga_1_1_evolutionary_algorithm.html#ae7a90a911b109ed47b3acf54193acc35" target="_top" xlink:title="Generates one offspring according to the method where crossover and mutation are coupled,...">
<polygon fill="white" stroke="black" points="526,-207.5 526,-237.5 656,-237.5 656,-207.5 526,-207.5"/>
<text text-anchor="start" x="534" y="-225.5" font-family="Helvetica,sans-Serif" font-size="10.00">denoptim.ga.Evolutionary</text>
<text text-anchor="middle" x="591" y="-214.5" font-family="Helvetica,sans-Serif" font-size="10.00">Algorithm.makeOffspringB</text>
</a>
</g>
</g>
<!-- Node7&#45;&gt;Node13 -->
<g id="edge12" class="edge">
<title>Node7&#45;&gt;Node13</title>
<path fill="none" stroke="midnightblue" d="M690.61,-222.5C679.12,-222.5 667.3,-222.5 656.03,-222.5"/>
<polygon fill="midnightblue" stroke="midnightblue" points="690.61,-226 700.61,-222.5 690.61,-219 690.61,-226"/>
</g>
<!-- Node9 -->
<g id="node9" class="node">
<title>Node9</title>
<g id="a_node9"><a xlink:href="classdenoptim_1_1ga_1_1_evolutionary_algorithm.html#a596b2f5f0b097c5b67a6e5163bd6fe66" target="_top" xlink:title="Generates a given number of new candidate items and adds them to the current population.">
<polygon fill="white" stroke="black" points="353,-163.5 353,-193.5 487,-193.5 487,-163.5 353,-163.5"/>
<text text-anchor="start" x="361" y="-181.5" font-family="Helvetica,sans-Serif" font-size="10.00">denoptim.ga.Evolutionary</text>
<text text-anchor="middle" x="420" y="-170.5" font-family="Helvetica,sans-Serif" font-size="10.00">Algorithm.evolvePopulation</text>
</a>
</g>
</g>
<!-- Node8&#45;&gt;Node9 -->
<g id="edge8" class="edge">
<title>Node8&#45;&gt;Node9</title>
<path fill="none" stroke="midnightblue" d="M515.48,-175.7C506.05,-175.98 496.45,-176.27 487.16,-176.54"/>
<polygon fill="midnightblue" stroke="midnightblue" points="515.73,-179.2 525.63,-175.4 515.53,-172.2 515.73,-179.2"/>
</g>
<!-- Node10 -->
<g id="node10" class="node">
<title>Node10</title>
<g id="a_node10"><a xlink:href="classdenoptim_1_1ga_1_1_evolutionary_algorithm.html#a6bfc2fa59b199da6259b5b6bad3d6de7" target="_top" xlink:title=" ">
<polygon fill="white" stroke="black" points="190,-138.5 190,-168.5 314,-168.5 314,-138.5 190,-138.5"/>
<text text-anchor="start" x="198" y="-156.5" font-family="Helvetica,sans-Serif" font-size="10.00">denoptim.ga.Evolutionary</text>
<text text-anchor="middle" x="252" y="-145.5" font-family="Helvetica,sans-Serif" font-size="10.00">Algorithm.run</text>
</a>
</g>
</g>
<!-- Node9&#45;&gt;Node10 -->
<g id="edge9" class="edge">
<title>Node9&#45;&gt;Node10</title>
<path fill="none" stroke="midnightblue" d="M342.9,-167.04C333.21,-165.58 323.41,-164.1 314.01,-162.69"/>
<polygon fill="midnightblue" stroke="midnightblue" points="342.51,-170.52 352.92,-168.55 343.55,-163.6 342.51,-170.52"/>
</g>
<!-- Node11 -->
<g id="node11" class="node">
<title>Node11</title>
<g id="a_node11"><a xlink:href="classdenoptim_1_1ga_1_1_evolutionary_algorithm.html#a0f2063b722b7291daf83d62acaa683d3" target="_top" xlink:title=" ">
<polygon fill="white" stroke="black" points="0,-163.5 0,-193.5 154,-193.5 154,-163.5 0,-163.5"/>
<text text-anchor="start" x="8" y="-181.5" font-family="Helvetica,sans-Serif" font-size="10.00">denoptim.ga.Evolutionary</text>
<text text-anchor="middle" x="77" y="-170.5" font-family="Helvetica,sans-Serif" font-size="10.00">Algorithm.EvolutionaryAlgorithm</text>
</a>
</g>
</g>
<!-- Node10&#45;&gt;Node11 -->
<g id="edge10" class="edge">
<title>Node10&#45;&gt;Node11</title>
<path fill="none" stroke="midnightblue" d="M179.44,-163.84C171.09,-165.05 162.54,-166.28 154.12,-167.5"/>
<polygon fill="midnightblue" stroke="midnightblue" points="180.12,-167.28 189.52,-162.38 179.12,-160.35 180.12,-167.28"/>
</g>
<!-- Node12 -->
<g id="node12" class="node">
<title>Node12</title>
<g id="a_node12"><a xlink:href="classdenoptim_1_1programs_1_1denovo_1_1_g_a_runner.html#a7cafd6d78727b89dce3e2c8d06f0dd7c" target="_top" xlink:title=" ">
<polygon fill="white" stroke="black" points="9.5,-114.5 9.5,-144.5 144.5,-144.5 144.5,-114.5 9.5,-114.5"/>
<text text-anchor="start" x="17.5" y="-132.5" font-family="Helvetica,sans-Serif" font-size="10.00">denoptim.programs.denovo.</text>
<text text-anchor="middle" x="77" y="-121.5" font-family="Helvetica,sans-Serif" font-size="10.00">GARunner.runProgram</text>
</a>
</g>
</g>
<!-- Node10&#45;&gt;Node12 -->
<g id="edge11" class="edge">
<title>Node10&#45;&gt;Node12</title>
<path fill="none" stroke="midnightblue" d="M179.48,-143.58C167.92,-141.97 156,-140.32 144.57,-138.73"/>
<polygon fill="midnightblue" stroke="midnightblue" points="179.13,-147.06 189.52,-144.97 180.1,-140.13 179.13,-147.06"/>
</g>
<!-- Node13&#45;&gt;Node9 -->
<g id="edge13" class="edge">
<title>Node13&#45;&gt;Node9</title>
<path fill="none" stroke="midnightblue" d="M522.42,-204.91C507.95,-201.14 492.78,-197.19 478.71,-193.53"/>
<polygon fill="midnightblue" stroke="midnightblue" points="521.75,-208.35 532.31,-207.48 523.52,-201.57 521.75,-208.35"/>
</g>
<!-- Node14&#45;&gt;Node8 -->
<g id="edge17" class="edge">
<title>Node14&#45;&gt;Node8</title>
<path fill="none" stroke="midnightblue" d="M690.61,-173.5C679.12,-173.5 667.3,-173.5 656.03,-173.5"/>
<polygon fill="midnightblue" stroke="midnightblue" points="690.61,-177 700.61,-173.5 690.61,-170 690.61,-177"/>
</g>
<!-- Node14&#45;&gt;Node13 -->
<g id="edge18" class="edge">
<title>Node14&#45;&gt;Node13</title>
<path fill="none" stroke="midnightblue" d="M700.87,-191.39C682.42,-196.66 662.44,-202.38 644.68,-207.45"/>
<polygon fill="midnightblue" stroke="midnightblue" points="701.99,-194.71 710.64,-188.6 700.07,-187.98 701.99,-194.71"/>
</g>
<!-- Node15 -->
<g id="node15" class="node">
<title>Node15</title>
<g id="a_node15"><a xlink:href="classdenoptim_1_1ga_1_1_evolutionary_algorithm.html#ad43588620dab3340e0d8b0042ec73618" target="_top" xlink:title="Fills up the population with candidates build from scratch.">
<polygon fill="white" stroke="black" points="350,-114.5 350,-144.5 490,-144.5 490,-114.5 350,-114.5"/>
<text text-anchor="start" x="358" y="-132.5" font-family="Helvetica,sans-Serif" font-size="10.00">denoptim.ga.Evolutionary</text>
<text text-anchor="middle" x="420" y="-121.5" font-family="Helvetica,sans-Serif" font-size="10.00">Algorithm.initializePopulation</text>
</a>
</g>
</g>
<!-- Node14&#45;&gt;Node15 -->
<g id="edge15" class="edge">
<title>Node14&#45;&gt;Node15</title>
<path fill="none" stroke="midnightblue" d="M696.09,-156.22C682.87,-153.28 669.05,-150.53 656,-148.5 600.59,-139.87 537.19,-135.03 490.21,-132.4"/>
<polygon fill="midnightblue" stroke="midnightblue" points="695.54,-159.68 706.06,-158.49 697.09,-152.86 695.54,-159.68"/>
</g>
<!-- Node15&#45;&gt;Node10 -->
<g id="edge16" class="edge">
<title>Node15&#45;&gt;Node10</title>
<path fill="none" stroke="midnightblue" d="M339.6,-140.98C331.08,-142.21 322.5,-143.45 314.24,-144.65"/>
<polygon fill="midnightblue" stroke="midnightblue" points="340.17,-144.43 349.56,-139.54 339.16,-137.51 340.17,-144.43"/>
</g>
<!-- Node17&#45;&gt;Node5 -->
<g id="edge25" class="edge">
<title>Node17&#45;&gt;Node5</title>
<path fill="none" stroke="midnightblue" d="M1284.84,-223.89C1275.88,-223.32 1266.87,-222.75 1258.04,-222.19"/>
<polygon fill="midnightblue" stroke="midnightblue" points="1284.72,-227.38 1294.92,-224.52 1285.16,-220.4 1284.72,-227.38"/>
</g>
<!-- Node18 -->
<g id="node18" class="node">
<title>Node18</title>
<g id="a_node18"><a xlink:href="classdenoptim_1_1graph_1_1rings_1_1_cyclic_graph_handler.html#a3ce96322723f45d9285a248ebcef94d3" target="_top" xlink:title="Identifies all possible ring closing paths and returns them as list of DENOPTIMRings ready to be appe...">
<polygon fill="white" stroke="black" points="1075,-256 1075,-297 1259,-297 1259,-256 1075,-256"/>
<text text-anchor="start" x="1083" y="-285" font-family="Helvetica,sans-Serif" font-size="10.00">denoptim.graph.rings.Cyclic</text>
<text text-anchor="start" x="1083" y="-274" font-family="Helvetica,sans-Serif" font-size="10.00">GraphHandler.getPossibleCombination</text>
<text text-anchor="middle" x="1167" y="-263" font-family="Helvetica,sans-Serif" font-size="10.00">OfRings</text>
</a>
</g>
</g>
<!-- Node17&#45;&gt;Node18 -->
<g id="edge21" class="edge">
<title>Node17&#45;&gt;Node18</title>
<path fill="none" stroke="midnightblue" d="M1306.9,-247.65C1291.38,-250.88 1275.07,-254.26 1259.3,-257.54"/>
<polygon fill="midnightblue" stroke="midnightblue" points="1307.89,-251.02 1316.97,-245.56 1306.47,-244.17 1307.89,-251.02"/>
</g>
<!-- Node18&#45;&gt;Node6 -->
<g id="edge24" class="edge">
<title>Node18&#45;&gt;Node6</title>
<path fill="none" stroke="midnightblue" d="M1084.43,-253.08C1059.21,-245.84 1032.1,-238.06 1009.4,-231.54"/>
<polygon fill="midnightblue" stroke="midnightblue" points="1083.79,-256.54 1094.37,-255.94 1085.72,-249.81 1083.79,-256.54"/>
</g>
<!-- Node19 -->
<g id="node19" class="node">
<title>Node19</title>
<g id="a_node19"><a xlink:href="classdenoptim_1_1graph_1_1_d_graph.html#a7a4743d014e860237f4b20703ef9779b" target="_top" xlink:title="Evaluates the possibility of closing rings in this graph and generates all alternative graphs resulti...">
<polygon fill="white" stroke="black" points="878.5,-261.5 878.5,-291.5 1033.5,-291.5 1033.5,-261.5 878.5,-261.5"/>
<text text-anchor="start" x="886.5" y="-279.5" font-family="Helvetica,sans-Serif" font-size="10.00">denoptim.graph.DGraph.make</text>
<text text-anchor="middle" x="956" y="-268.5" font-family="Helvetica,sans-Serif" font-size="10.00">AllGraphsWithDifferentRingSets</text>
</a>
</g>
</g>
<!-- Node18&#45;&gt;Node19 -->
<g id="edge22" class="edge">
<title>Node18&#45;&gt;Node19</title>
<path fill="none" stroke="midnightblue" d="M1064.91,-276.5C1054.41,-276.5 1043.87,-276.5 1033.71,-276.5"/>
<polygon fill="midnightblue" stroke="midnightblue" points="1064.94,-280 1074.94,-276.5 1064.94,-273 1064.94,-280"/>
</g>
<!-- Node20 -->
<g id="node20" class="node">
<title>Node20</title>
<g id="a_node20"><a xlink:href="classdenoptim_1_1combinatorial_1_1_graph_building_task.html#a3eaee724fc921194fa158714aafe182d" target="_top" xlink:title="Calls the task.">
<polygon fill="white" stroke="black" points="692,-261.5 692,-291.5 837,-291.5 837,-261.5 692,-261.5"/>
<text text-anchor="start" x="700" y="-279.5" font-family="Helvetica,sans-Serif" font-size="10.00">denoptim.combinatorial.Graph</text>
<text text-anchor="middle" x="764.5" y="-268.5" font-family="Helvetica,sans-Serif" font-size="10.00">BuildingTask.call</text>
</a>
</g>
</g>
<!-- Node19&#45;&gt;Node20 -->
<g id="edge23" class="edge">
<title>Node19&#45;&gt;Node20</title>
<path fill="none" stroke="midnightblue" d="M868.47,-276.5C857.97,-276.5 847.35,-276.5 837.1,-276.5"/>
<polygon fill="midnightblue" stroke="midnightblue" points="868.47,-280 878.47,-276.5 868.47,-273 868.47,-280"/>
</g>
<!-- Node22 -->
<g id="node22" class="node">
<title>Node22</title>
<g id="a_node22"><a xlink:href="classdenoptim_1_1ga_1_1_graph_operations.html#a2396c23acf24d07f255b94eb3a2105b7" target="_top" xlink:title="Identify crossover sites, i.e., subgraphs that can be swapped between two graphs (i....">
<polygon fill="white" stroke="black" points="1533.5,-69.5 1533.5,-99.5 1706.5,-99.5 1706.5,-69.5 1533.5,-69.5"/>
<text text-anchor="start" x="1541.5" y="-87.5" font-family="Helvetica,sans-Serif" font-size="10.00">denoptim.ga.GraphOperations.locate</text>
<text text-anchor="middle" x="1620" y="-76.5" font-family="Helvetica,sans-Serif" font-size="10.00">CompatibleXOverPoints</text>
</a>
</g>
</g>
<!-- Node21&#45;&gt;Node22 -->
<g id="edge27" class="edge">
<title>Node21&#45;&gt;Node22</title>
<path fill="none" stroke="midnightblue" d="M1743.74,-91.53C1731.44,-90.83 1718.8,-90.1 1706.52,-89.4"/>
<polygon fill="midnightblue" stroke="midnightblue" points="1743.79,-95.04 1753.98,-92.12 1744.19,-88.05 1743.79,-95.04"/>
</g>
<!-- Node22&#45;&gt;Node22 -->
<g id="edge33" class="edge">
<title>Node22&#45;&gt;Node22</title>
<path fill="none" stroke="midnightblue" d="M1657.31,-109.96C1652.68,-114.68 1640.25,-118 1620,-118 1586.78,-118 1574.58,-109.06 1583.4,-99.66"/>
<polygon fill="midnightblue" stroke="midnightblue" points="1660.78,-109.39 1656.6,-99.66 1653.8,-109.88 1660.78,-109.39"/>
</g>
<!-- Node23 -->
<g id="node23" class="node">
<title>Node23</title>
<g id="a_node23"><a xlink:href="classdenoptim_1_1ga_1_1_population.html#a31b74cc5407c42fa3a4214029fb08190" target="_top" xlink:title="Returns a list of population members that can do crossover with the specified member.">
<polygon fill="white" stroke="black" points="1324,-98.5 1324,-128.5 1457,-128.5 1457,-98.5 1324,-98.5"/>
<text text-anchor="start" x="1332" y="-116.5" font-family="Helvetica,sans-Serif" font-size="10.00">denoptim.ga.Population.get</text>
<text text-anchor="middle" x="1390.5" y="-105.5" font-family="Helvetica,sans-Serif" font-size="10.00">XoverPartners</text>
</a>
</g>
</g>
<!-- Node22&#45;&gt;Node23 -->
<g id="edge28" class="edge">
<title>Node22&#45;&gt;Node23</title>
<path fill="none" stroke="midnightblue" d="M1523.19,-96.71C1500.97,-99.55 1477.82,-102.5 1457.24,-105.12"/>
<polygon fill="midnightblue" stroke="midnightblue" points="1523.84,-100.16 1533.32,-95.42 1522.95,-93.22 1523.84,-100.16"/>
</g>
<!-- Node27 -->
<g id="node27" class="node">
<title>Node27</title>
<g id="a_node27"><a xlink:href="classdenoptim_1_1programs_1_1genetweeker_1_1_gene_ops_runner.html#ab0f92a94c4fb2334e7d3813e73fc4247" target="_top" xlink:title=" ">
<polygon fill="white" stroke="black" points="1311,-49.5 1311,-79.5 1470,-79.5 1470,-49.5 1311,-49.5"/>
<text text-anchor="start" x="1319" y="-67.5" font-family="Helvetica,sans-Serif" font-size="10.00">denoptim.programs.genetweeker.</text>
<text text-anchor="middle" x="1390.5" y="-56.5" font-family="Helvetica,sans-Serif" font-size="10.00">GeneOpsRunner.runXOver</text>
</a>
</g>
</g>
<!-- Node22&#45;&gt;Node27 -->
<g id="edge34" class="edge">
<title>Node22&#45;&gt;Node27</title>
<path fill="none" stroke="midnightblue" d="M1523.06,-76.07C1505.49,-74.52 1487.35,-72.93 1470.36,-71.43"/>
<polygon fill="midnightblue" stroke="midnightblue" points="1523.05,-79.58 1533.32,-76.97 1523.66,-72.6 1523.05,-79.58"/>
</g>
<!-- Node29 -->
<g id="node29" class="node">
<title>Node29</title>
<g id="a_node29"><a xlink:href="classdenoptim_1_1ga_1_1_graph_operations_test.html#a9fcf8fffef10a59df722c92e94da2815" target="_top" xlink:title=" ">
<polygon fill="white" stroke="black" points="1296,-0.5 1296,-30.5 1485,-30.5 1485,-0.5 1296,-0.5"/>
<text text-anchor="start" x="1304" y="-18.5" font-family="Helvetica,sans-Serif" font-size="10.00">denoptim.ga.GraphOperations</text>
<text text-anchor="middle" x="1390.5" y="-7.5" font-family="Helvetica,sans-Serif" font-size="10.00">Test.testLocateCompatibleXOverPoints</text>
</a>
</g>
</g>
<!-- Node22&#45;&gt;Node29 -->
<g id="edge36" class="edge">
<title>Node22&#45;&gt;Node29</title>
<path fill="none" stroke="midnightblue" d="M1567.84,-66.16C1543.24,-57.6 1513.24,-47.55 1486,-39.5 1475.53,-36.4 1464.34,-33.35 1453.45,-30.5"/>
<polygon fill="midnightblue" stroke="midnightblue" points="1566.74,-69.48 1577.33,-69.48 1569.05,-62.87 1566.74,-69.48"/>
</g>
<!-- Node24 -->
<g id="node24" class="node">
<title>Node24</title>
<g id="a_node24"><a xlink:href="classdenoptim_1_1ga_1_1_e_a_utils.html#a45d4e9ec6a308aa73891efa1d501dd5e" target="_top" xlink:title="Perform fitness&#45;based, class&#45;compatible selection of parents that can do crossover operations.">
<polygon fill="white" stroke="black" points="873,-70 873,-89 1039,-89 1039,-70 873,-70"/>
<text text-anchor="middle" x="956" y="-77" font-family="Helvetica,sans-Serif" font-size="10.00">denoptim.ga.EAUtils.performFBCC</text>
</a>
</g>
</g>
<!-- Node23&#45;&gt;Node24 -->
<g id="edge29" class="edge">
<title>Node23&#45;&gt;Node24</title>
<path fill="none" stroke="midnightblue" d="M1313.44,-96.81C1295.66,-93.5 1276.73,-90.45 1259,-88.5 1184.96,-80.36 1100.14,-78.48 1039.28,-78.42"/>
<polygon fill="midnightblue" stroke="midnightblue" points="1313.28,-100.35 1323.76,-98.79 1314.59,-93.47 1313.28,-100.35"/>
</g>
<!-- Node25 -->
<g id="node25" class="node">
<title>Node25</title>
<g id="a_node25"><a xlink:href="classdenoptim_1_1ga_1_1_population_test.html#a5db0672054a9fc1dbc923310732fdb3a" target="_top" xlink:title=" ">
<polygon fill="white" stroke="black" points="1089.5,-147.5 1089.5,-177.5 1244.5,-177.5 1244.5,-147.5 1089.5,-147.5"/>
<text text-anchor="start" x="1097.5" y="-165.5" font-family="Helvetica,sans-Serif" font-size="10.00">denoptim.ga.PopulationTest.test</text>
<text text-anchor="middle" x="1167" y="-154.5" font-family="Helvetica,sans-Serif" font-size="10.00">Clone</text>
</a>
</g>
</g>
<!-- Node23&#45;&gt;Node25 -->
<g id="edge31" class="edge">
<title>Node23&#45;&gt;Node25</title>
<path fill="none" stroke="midnightblue" d="M1314.04,-130.19C1288.76,-135.78 1260.76,-141.98 1236.08,-147.44"/>
<polygon fill="midnightblue" stroke="midnightblue" points="1314.93,-133.58 1323.94,-128 1313.42,-126.75 1314.93,-133.58"/>
</g>
<!-- Node26 -->
<g id="node26" class="node">
<title>Node26</title>
<g id="a_node26"><a xlink:href="classdenoptim_1_1ga_1_1_population_test.html#a278212ebff2501b7071d342f9a027599" target="_top" xlink:title=" ">
<polygon fill="white" stroke="black" points="1089.5,-98.5 1089.5,-128.5 1244.5,-128.5 1244.5,-98.5 1089.5,-98.5"/>
<text text-anchor="start" x="1097.5" y="-116.5" font-family="Helvetica,sans-Serif" font-size="10.00">denoptim.ga.PopulationTest.test</text>
<text text-anchor="middle" x="1167" y="-105.5" font-family="Helvetica,sans-Serif" font-size="10.00">XOverCompatibility</text>
</a>
</g>
</g>
<!-- Node23&#45;&gt;Node26 -->
<g id="edge32" class="edge">
<title>Node23&#45;&gt;Node26</title>
<path fill="none" stroke="midnightblue" d="M1313.85,-113.5C1291.53,-113.5 1267.09,-113.5 1244.7,-113.5"/>
<polygon fill="midnightblue" stroke="midnightblue" points="1313.94,-117 1323.94,-113.5 1313.94,-110 1313.94,-117"/>
</g>
<!-- Node24&#45;&gt;Node16 -->
<g id="edge30" class="edge">
<title>Node24&#45;&gt;Node16</title>
<path fill="none" stroke="midnightblue" d="M884.65,-90.64C866.12,-93.57 846.27,-96.71 828.18,-99.58"/>
<polygon fill="midnightblue" stroke="midnightblue" points="885.45,-94.05 894.78,-89.03 884.36,-87.14 885.45,-94.05"/>
</g>
<!-- Node28 -->
<g id="node28" class="node">
<title>Node28</title>
<g id="a_node28"><a xlink:href="classdenoptim_1_1programs_1_1genetweeker_1_1_gene_ops_runner.html#a3c2407eb1204a7b25600d3d347d98447" target="_top" xlink:title=" ">
<polygon fill="white" stroke="black" points="1087.5,-10.5 1087.5,-40.5 1246.5,-40.5 1246.5,-10.5 1087.5,-10.5"/>
<text text-anchor="start" x="1095.5" y="-28.5" font-family="Helvetica,sans-Serif" font-size="10.00">denoptim.programs.genetweeker.</text>
<text text-anchor="middle" x="1167" y="-17.5" font-family="Helvetica,sans-Serif" font-size="10.00">GeneOpsRunner.runProgram</text>
</a>
</g>
</g>
<!-- Node27&#45;&gt;Node28 -->
<g id="edge35" class="edge">
<title>Node27&#45;&gt;Node28</title>
<path fill="none" stroke="midnightblue" d="M1300.44,-48.82C1282.71,-45.7 1264.2,-42.44 1246.84,-39.38"/>
<polygon fill="midnightblue" stroke="midnightblue" points="1300.33,-52.35 1310.78,-50.64 1301.54,-45.46 1300.33,-52.35"/>
</g>
</g>
</svg>
