<?xml version="1.0" encoding="UTF-8" standalone="no"?>
<!DOCTYPE svg PUBLIC "-//W3C//DTD SVG 1.1//EN"
 "http://www.w3.org/Graphics/SVG/1.1/DTD/svg11.dtd">
<!-- Generated by graphviz version 3.0.0 (20221109.1736)
 -->
<!-- Title: denoptim.utils.MoleculeUtils.getVertexToAtomIdMap Pages: 1 -->
<svg width="1926pt" height="281pt"
 viewBox="0.00 0.00 1926.00 280.50" xmlns="http://www.w3.org/2000/svg" xmlns:xlink="http://www.w3.org/1999/xlink">
<g id="graph0" class="graph" transform="scale(1 1) rotate(0) translate(4 276.5)">
<title>denoptim.utils.MoleculeUtils.getVertexToAtomIdMap</title>
<polygon fill="white" stroke="transparent" points="-4,4 -4,-276.5 1922,-276.5 1922,4 -4,4"/>
<!-- Node1 -->
<g id="node1" class="node">
<title>Node1</title>
<g id="a_node1"><a xlink:title="Method to generate the map making in relation DENOPTIMVertex ID and atom index in the IAtomContainer ...">
<polygon fill="#bfbfbf" stroke="black" points="1764,-120 1764,-150 1918,-150 1918,-120 1764,-120"/>
<text text-anchor="start" x="1772" y="-138" font-family="Helvetica,sans-Serif" font-size="10.00">denoptim.utils.MoleculeUtils.get</text>
<text text-anchor="middle" x="1841" y="-127" font-family="Helvetica,sans-Serif" font-size="10.00">VertexToAtomIdMap</text>
</a>
</g>
</g>
<!-- Node2 -->
<g id="node2" class="node">
<title>Node2</title>
<g id="a_node2"><a xlink:href="classdenoptim_1_1graph_1_1rings_1_1_cyclic_graph_handler.html#ae14cac1f0746cf7b50db933cab59e4e4" target="_top" xlink:title="Method to evaluate the closability of a single path considering only its constitution.">
<polygon fill="white" stroke="black" points="1553,-163.5 1553,-204.5 1728,-204.5 1728,-163.5 1553,-163.5"/>
<text text-anchor="start" x="1561" y="-192.5" font-family="Helvetica,sans-Serif" font-size="10.00">denoptim.graph.rings.Cyclic</text>
<text text-anchor="start" x="1561" y="-181.5" font-family="Helvetica,sans-Serif" font-size="10.00">GraphHandler.evaluateConstitutional</text>
<text text-anchor="middle" x="1640.5" y="-170.5" font-family="Helvetica,sans-Serif" font-size="10.00">Closability</text>
</a>
</g>
</g>
<!-- Node1&#45;&gt;Node2 -->
<g id="edge1" class="edge">
<title>Node1&#45;&gt;Node2</title>
<path fill="none" stroke="midnightblue" d="M1769.24,-152.47C1754.78,-156.04 1739.43,-159.83 1724.59,-163.49"/>
<polygon fill="midnightblue" stroke="midnightblue" points="1770.22,-155.83 1779.09,-150.03 1768.55,-149.03 1770.22,-155.83"/>
</g>
<!-- Node19 -->
<g id="node19" class="node">
<title>Node19</title>
<g id="a_node19"><a xlink:href="classdenoptim_1_1graph_1_1rings_1_1_cyclic_graph_handler_1_1_ring_size_manager.html#a9b1b85afae57c94c9059527bd796259c" target="_top" xlink:title=" ">
<polygon fill="white" stroke="black" points="1326,-120 1326,-150 1517,-150 1517,-120 1326,-120"/>
<text text-anchor="start" x="1334" y="-138" font-family="Helvetica,sans-Serif" font-size="10.00">denoptim.graph.rings.Cyclic</text>
<text text-anchor="middle" x="1421.5" y="-127" font-family="Helvetica,sans-Serif" font-size="10.00">GraphHandler.RingSizeManager.initialize</text>
</a>
</g>
</g>
<!-- Node1&#45;&gt;Node19 -->
<g id="edge23" class="edge">
<title>Node1&#45;&gt;Node19</title>
<path fill="none" stroke="midnightblue" d="M1753.51,-135C1684.56,-135 1588.11,-135 1517.11,-135"/>
<polygon fill="midnightblue" stroke="midnightblue" points="1753.91,-138.5 1763.91,-135 1753.91,-131.5 1753.91,-138.5"/>
</g>
<!-- Node20 -->
<g id="node20" class="node">
<title>Node20</title>
<g id="a_node20"><a xlink:href="classdenoptim_1_1utils_1_1_molecule_utils.html#a1d0f69b9fe60e2df6c934b129eb2b044" target="_top" xlink:title="Replace used RCAs (i.e., those involved in Rings) while adding the ring closing bonds.">
<polygon fill="white" stroke="black" points="1554,-66 1554,-96 1727,-96 1727,-66 1554,-66"/>
<text text-anchor="start" x="1562" y="-84" font-family="Helvetica,sans-Serif" font-size="10.00">denoptim.utils.MoleculeUtils.remove</text>
<text text-anchor="middle" x="1640.5" y="-73" font-family="Helvetica,sans-Serif" font-size="10.00">UsedRCA</text>
</a>
</g>
</g>
<!-- Node1&#45;&gt;Node20 -->
<g id="edge26" class="edge">
<title>Node1&#45;&gt;Node20</title>
<path fill="none" stroke="midnightblue" d="M1774.85,-117.28C1749.63,-110.41 1721.05,-102.64 1696.84,-96.05"/>
<polygon fill="midnightblue" stroke="midnightblue" points="1774.14,-120.71 1784.71,-119.96 1775.98,-113.96 1774.14,-120.71"/>
</g>
<!-- Node3 -->
<g id="node3" class="node">
<title>Node3</title>
<g id="a_node3"><a xlink:href="classdenoptim_1_1graph_1_1rings_1_1_cyclic_graph_handler.html#abd43d52fe626625dab3da6a32038e57b" target="_top" xlink:title="Method to evaluate the closability of a single path in a graph representing a molecule.">
<polygon fill="white" stroke="black" points="1331.5,-169 1331.5,-199 1511.5,-199 1511.5,-169 1331.5,-169"/>
<text text-anchor="start" x="1339.5" y="-187" font-family="Helvetica,sans-Serif" font-size="10.00">denoptim.graph.rings.Cyclic</text>
<text text-anchor="middle" x="1421.5" y="-176" font-family="Helvetica,sans-Serif" font-size="10.00">GraphHandler.evaluatePathClosability</text>
</a>
</g>
</g>
<!-- Node2&#45;&gt;Node3 -->
<g id="edge2" class="edge">
<title>Node2&#45;&gt;Node3</title>
<path fill="none" stroke="midnightblue" d="M1542.54,-184C1532.23,-184 1521.77,-184 1511.55,-184"/>
<polygon fill="midnightblue" stroke="midnightblue" points="1542.8,-187.5 1552.8,-184 1542.8,-180.5 1542.8,-187.5"/>
</g>
<!-- Node4 -->
<g id="node4" class="node">
<title>Node4</title>
<g id="a_node4"><a xlink:href="classdenoptim_1_1graph_1_1rings_1_1_cyclic_graph_handler.html#a3ce96322723f45d9285a248ebcef94d3" target="_top" xlink:title="Identifies all possible ring closing paths and returns them as list of DENOPTIMRings ready to be appe...">
<polygon fill="white" stroke="black" points="1106,-108.5 1106,-149.5 1290,-149.5 1290,-108.5 1106,-108.5"/>
<text text-anchor="start" x="1114" y="-137.5" font-family="Helvetica,sans-Serif" font-size="10.00">denoptim.graph.rings.Cyclic</text>
<text text-anchor="start" x="1114" y="-126.5" font-family="Helvetica,sans-Serif" font-size="10.00">GraphHandler.getPossibleCombination</text>
<text text-anchor="middle" x="1198" y="-115.5" font-family="Helvetica,sans-Serif" font-size="10.00">OfRings</text>
</a>
</g>
</g>
<!-- Node3&#45;&gt;Node4 -->
<g id="edge3" class="edge">
<title>Node3&#45;&gt;Node4</title>
<path fill="none" stroke="midnightblue" d="M1350.18,-166.54C1328.47,-161.15 1304.35,-155.16 1281.87,-149.58"/>
<polygon fill="midnightblue" stroke="midnightblue" points="1349.43,-169.96 1359.97,-168.97 1351.11,-163.16 1349.43,-169.96"/>
</g>
<!-- Node18 -->
<g id="node18" class="node">
<title>Node18</title>
<g id="a_node18"><a xlink:href="classdenoptim_1_1graph_1_1rings_1_1_cyclic_graph_handler.html#a08b02946eaac7c2cbbe6e71332d702e6" target="_top" xlink:title="Identifies a random combination of ring closing paths and returns it as list of DENOPTIMRings ready t...">
<polygon fill="white" stroke="black" points="1107,-168.5 1107,-209.5 1289,-209.5 1289,-168.5 1107,-168.5"/>
<text text-anchor="start" x="1115" y="-197.5" font-family="Helvetica,sans-Serif" font-size="10.00">denoptim.graph.rings.Cyclic</text>
<text text-anchor="start" x="1115" y="-186.5" font-family="Helvetica,sans-Serif" font-size="10.00">GraphHandler.getRandomCombination</text>
<text text-anchor="middle" x="1198" y="-175.5" font-family="Helvetica,sans-Serif" font-size="10.00">OfRings</text>
</a>
</g>
</g>
<!-- Node3&#45;&gt;Node18 -->
<g id="edge21" class="edge">
<title>Node3&#45;&gt;Node18</title>
<path fill="none" stroke="midnightblue" d="M1321.16,-186.24C1310.46,-186.48 1299.62,-186.73 1289.04,-186.97"/>
<polygon fill="midnightblue" stroke="midnightblue" points="1321.45,-189.74 1331.36,-186.01 1321.29,-182.74 1321.45,-189.74"/>
</g>
<!-- Node5 -->
<g id="node5" class="node">
<title>Node5</title>
<g id="a_node5"><a xlink:href="classdenoptim_1_1graph_1_1_d_graph.html#a7a4743d014e860237f4b20703ef9779b" target="_top" xlink:title="Evaluates the possibility of closing rings in this graph and generates all alternative graphs resulti...">
<polygon fill="white" stroke="black" points="898.5,-104 898.5,-134 1053.5,-134 1053.5,-104 898.5,-104"/>
<text text-anchor="start" x="906.5" y="-122" font-family="Helvetica,sans-Serif" font-size="10.00">denoptim.graph.DGraph.make</text>
<text text-anchor="middle" x="976" y="-111" font-family="Helvetica,sans-Serif" font-size="10.00">AllGraphsWithDifferentRingSets</text>
</a>
</g>
</g>
<!-- Node4&#45;&gt;Node5 -->
<g id="edge4" class="edge">
<title>Node4&#45;&gt;Node5</title>
<path fill="none" stroke="midnightblue" d="M1095.69,-124.39C1081.56,-123.75 1067.23,-123.1 1053.66,-122.48"/>
<polygon fill="midnightblue" stroke="midnightblue" points="1095.78,-127.9 1105.93,-124.86 1096.1,-120.91 1095.78,-127.9"/>
</g>
<!-- Node7 -->
<g id="node7" class="node">
<title>Node7</title>
<g id="a_node7"><a xlink:href="classdenoptim_1_1ga_1_1_e_a_utils.html#a1ddb932d4618434d435e4f85ce5e5eb5" target="_top" xlink:title="Evaluates the possibility of closing rings in a given graph and if any ring can be closed,...">
<polygon fill="white" stroke="black" points="910.5,-174 910.5,-204 1041.5,-204 1041.5,-174 910.5,-174"/>
<text text-anchor="start" x="918.5" y="-192" font-family="Helvetica,sans-Serif" font-size="10.00">denoptim.ga.EAUtils.setup</text>
<text text-anchor="middle" x="976" y="-181" font-family="Helvetica,sans-Serif" font-size="10.00">Rings</text>
</a>
</g>
</g>
<!-- Node4&#45;&gt;Node7 -->
<g id="edge6" class="edge">
<title>Node4&#45;&gt;Node7</title>
<path fill="none" stroke="midnightblue" d="M1111.85,-152.22C1085.09,-159.52 1056.27,-167.38 1032.16,-173.96"/>
<polygon fill="midnightblue" stroke="midnightblue" points="1112.87,-155.57 1121.6,-149.56 1111.03,-148.82 1112.87,-155.57"/>
</g>
<!-- Node6 -->
<g id="node6" class="node">
<title>Node6</title>
<g id="a_node6"><a xlink:href="classdenoptim_1_1combinatorial_1_1_graph_building_task.html#a3eaee724fc921194fa158714aafe182d" target="_top" xlink:title="Calls the task.">
<polygon fill="white" stroke="black" points="696.5,-95 696.5,-125 841.5,-125 841.5,-95 696.5,-95"/>
<text text-anchor="start" x="704.5" y="-113" font-family="Helvetica,sans-Serif" font-size="10.00">denoptim.combinatorial.Graph</text>
<text text-anchor="middle" x="769" y="-102" font-family="Helvetica,sans-Serif" font-size="10.00">BuildingTask.call</text>
</a>
</g>
</g>
<!-- Node5&#45;&gt;Node6 -->
<g id="edge5" class="edge">
<title>Node5&#45;&gt;Node6</title>
<path fill="none" stroke="midnightblue" d="M888.28,-115.19C872.79,-114.51 856.8,-113.81 841.79,-113.15"/>
<polygon fill="midnightblue" stroke="midnightblue" points="888.23,-118.69 898.37,-115.64 888.54,-111.7 888.23,-118.69"/>
</g>
<!-- Node8 -->
<g id="node8" class="node">
<title>Node8</title>
<g id="a_node8"><a xlink:href="classdenoptim_1_1ga_1_1_e_a_utils.html#a8122818f58919fce84dce75e7506025a" target="_top" xlink:title=" ">
<polygon fill="white" stroke="black" points="705.5,-144 705.5,-174 832.5,-174 832.5,-144 705.5,-144"/>
<text text-anchor="start" x="713.5" y="-162" font-family="Helvetica,sans-Serif" font-size="10.00">denoptim.ga.EAUtils.build</text>
<text text-anchor="middle" x="769" y="-151" font-family="Helvetica,sans-Serif" font-size="10.00">CandidateByMutation</text>
</a>
</g>
</g>
<!-- Node7&#45;&gt;Node8 -->
<g id="edge7" class="edge">
<title>Node7&#45;&gt;Node8</title>
<path fill="none" stroke="midnightblue" d="M900.34,-178.07C878.07,-174.82 853.91,-171.28 832.51,-168.15"/>
<polygon fill="midnightblue" stroke="midnightblue" points="900.02,-181.56 910.42,-179.55 901.03,-174.64 900.02,-181.56"/>
</g>
<!-- Node15 -->
<g id="node15" class="node">
<title>Node15</title>
<g id="a_node15"><a xlink:href="classdenoptim_1_1ga_1_1_e_a_utils.html#ad3d2daeb11e68a356e971ca1846596b5" target="_top" xlink:title=" ">
<polygon fill="white" stroke="black" points="705.5,-242 705.5,-272 832.5,-272 832.5,-242 705.5,-242"/>
<text text-anchor="start" x="713.5" y="-260" font-family="Helvetica,sans-Serif" font-size="10.00">denoptim.ga.EAUtils.build</text>
<text text-anchor="middle" x="769" y="-249" font-family="Helvetica,sans-Serif" font-size="10.00">CandidateFromScratch</text>
</a>
</g>
</g>
<!-- Node7&#45;&gt;Node15 -->
<g id="edge15" class="edge">
<title>Node7&#45;&gt;Node15</title>
<path fill="none" stroke="midnightblue" d="M922.1,-207.35C898.8,-215.35 871.08,-224.76 846,-233 837.06,-235.94 827.51,-239 818.3,-241.93"/>
<polygon fill="midnightblue" stroke="midnightblue" points="923.47,-210.58 931.79,-204.01 921.19,-203.96 923.47,-210.58"/>
</g>
<!-- Node17 -->
<g id="node17" class="node">
<title>Node17</title>
<g id="a_node17"><a xlink:href="classdenoptim_1_1ga_1_1_e_a_utils.html#a0b958439d79fae30f14530213ad22e3a" target="_top" xlink:title="Generates up to a pair of new offspring by performing a crossover operation.">
<polygon fill="white" stroke="black" points="705.5,-193 705.5,-223 832.5,-223 832.5,-193 705.5,-193"/>
<text text-anchor="start" x="713.5" y="-211" font-family="Helvetica,sans-Serif" font-size="10.00">denoptim.ga.EAUtils.build</text>
<text text-anchor="middle" x="769" y="-200" font-family="Helvetica,sans-Serif" font-size="10.00">CandidatesByXOver</text>
</a>
</g>
</g>
<!-- Node7&#45;&gt;Node17 -->
<g id="edge20" class="edge">
<title>Node7&#45;&gt;Node17</title>
<path fill="none" stroke="midnightblue" d="M900.34,-195.92C878.07,-197.98 853.91,-200.22 832.51,-202.21"/>
<polygon fill="midnightblue" stroke="midnightblue" points="900.78,-199.39 910.42,-194.99 900.14,-192.42 900.78,-199.39"/>
</g>
<!-- Node9 -->
<g id="node9" class="node">
<title>Node9</title>
<g id="a_node9"><a xlink:href="classdenoptim_1_1ga_1_1_evolutionary_algorithm.html#a0c2e353b243250b4959a3f86608f1020" target="_top" xlink:title="Generates one offspring according to the method where crossover and mutation are decoupled,...">
<polygon fill="white" stroke="black" points="526,-196 526,-226 656,-226 656,-196 526,-196"/>
<text text-anchor="start" x="534" y="-214" font-family="Helvetica,sans-Serif" font-size="10.00">denoptim.ga.Evolutionary</text>
<text text-anchor="middle" x="591" y="-203" font-family="Helvetica,sans-Serif" font-size="10.00">Algorithm.makeOffspringA</text>
</a>
</g>
</g>
<!-- Node8&#45;&gt;Node9 -->
<g id="edge8" class="edge">
<title>Node8&#45;&gt;Node9</title>
<path fill="none" stroke="midnightblue" d="M707.3,-176.93C686.27,-183.15 662.94,-190.04 642.79,-195.99"/>
<polygon fill="midnightblue" stroke="midnightblue" points="708.5,-180.23 717.09,-174.04 706.51,-173.52 708.5,-180.23"/>
</g>
<!-- Node14 -->
<g id="node14" class="node">
<title>Node14</title>
<g id="a_node14"><a xlink:href="classdenoptim_1_1ga_1_1_evolutionary_algorithm.html#ae7a90a911b109ed47b3acf54193acc35" target="_top" xlink:title="Generates one offspring according to the method where crossover and mutation are coupled,...">
<polygon fill="white" stroke="black" points="526,-147 526,-177 656,-177 656,-147 526,-147"/>
<text text-anchor="start" x="534" y="-165" font-family="Helvetica,sans-Serif" font-size="10.00">denoptim.ga.Evolutionary</text>
<text text-anchor="middle" x="591" y="-154" font-family="Helvetica,sans-Serif" font-size="10.00">Algorithm.makeOffspringB</text>
</a>
</g>
</g>
<!-- Node8&#45;&gt;Node14 -->
<g id="edge13" class="edge">
<title>Node8&#45;&gt;Node14</title>
<path fill="none" stroke="midnightblue" d="M695.18,-160.24C682.23,-160.46 668.82,-160.69 656.13,-160.91"/>
<polygon fill="midnightblue" stroke="midnightblue" points="695.51,-163.74 705.45,-160.07 695.4,-156.74 695.51,-163.74"/>
</g>
<!-- Node10 -->
<g id="node10" class="node">
<title>Node10</title>
<g id="a_node10"><a xlink:href="classdenoptim_1_1ga_1_1_evolutionary_algorithm.html#a596b2f5f0b097c5b67a6e5163bd6fe66" target="_top" xlink:title="Generates a given number of new candidate items and adds them to the current population.">
<polygon fill="white" stroke="black" points="353,-193 353,-223 487,-223 487,-193 353,-193"/>
<text text-anchor="start" x="361" y="-211" font-family="Helvetica,sans-Serif" font-size="10.00">denoptim.ga.Evolutionary</text>
<text text-anchor="middle" x="420" y="-200" font-family="Helvetica,sans-Serif" font-size="10.00">Algorithm.evolvePopulation</text>
</a>
</g>
</g>
<!-- Node9&#45;&gt;Node10 -->
<g id="edge9" class="edge">
<title>Node9&#45;&gt;Node10</title>
<path fill="none" stroke="midnightblue" d="M515.48,-209.68C506.05,-209.51 496.45,-209.34 487.16,-209.17"/>
<polygon fill="midnightblue" stroke="midnightblue" points="515.57,-213.18 525.63,-209.86 515.69,-206.18 515.57,-213.18"/>
</g>
<!-- Node11 -->
<g id="node11" class="node">
<title>Node11</title>
<g id="a_node11"><a xlink:href="classdenoptim_1_1ga_1_1_evolutionary_algorithm.html#a6bfc2fa59b199da6259b5b6bad3d6de7" target="_top" xlink:title=" ">
<polygon fill="white" stroke="black" points="190,-217 190,-247 314,-247 314,-217 190,-217"/>
<text text-anchor="start" x="198" y="-235" font-family="Helvetica,sans-Serif" font-size="10.00">denoptim.ga.Evolutionary</text>
<text text-anchor="middle" x="252" y="-224" font-family="Helvetica,sans-Serif" font-size="10.00">Algorithm.run</text>
</a>
</g>
</g>
<!-- Node10&#45;&gt;Node11 -->
<g id="edge10" class="edge">
<title>Node10&#45;&gt;Node11</title>
<path fill="none" stroke="midnightblue" d="M342.9,-219C333.21,-220.4 323.41,-221.82 314.01,-223.18"/>
<polygon fill="midnightblue" stroke="midnightblue" points="343.52,-222.45 352.92,-217.55 342.52,-215.52 343.52,-222.45"/>
</g>
<!-- Node12 -->
<g id="node12" class="node">
<title>Node12</title>
<g id="a_node12"><a xlink:href="classdenoptim_1_1ga_1_1_evolutionary_algorithm.html#a0f2063b722b7291daf83d62acaa683d3" target="_top" xlink:title=" ">
<polygon fill="white" stroke="black" points="0,-242 0,-272 154,-272 154,-242 0,-242"/>
<text text-anchor="start" x="8" y="-260" font-family="Helvetica,sans-Serif" font-size="10.00">denoptim.ga.Evolutionary</text>
<text text-anchor="middle" x="77" y="-249" font-family="Helvetica,sans-Serif" font-size="10.00">Algorithm.EvolutionaryAlgorithm</text>
</a>
</g>
</g>
<!-- Node11&#45;&gt;Node12 -->
<g id="edge11" class="edge">
<title>Node11&#45;&gt;Node12</title>
<path fill="none" stroke="midnightblue" d="M179.44,-242.34C171.09,-243.55 162.54,-244.78 154.12,-246"/>
<polygon fill="midnightblue" stroke="midnightblue" points="180.12,-245.78 189.52,-240.88 179.12,-238.85 180.12,-245.78"/>
</g>
<!-- Node13 -->
<g id="node13" class="node">
<title>Node13</title>
<g id="a_node13"><a xlink:href="classdenoptim_1_1programs_1_1denovo_1_1_g_a_runner.html#a7cafd6d78727b89dce3e2c8d06f0dd7c" target="_top" xlink:title=" ">
<polygon fill="white" stroke="black" points="9.5,-193 9.5,-223 144.5,-223 144.5,-193 9.5,-193"/>
<text text-anchor="start" x="17.5" y="-211" font-family="Helvetica,sans-Serif" font-size="10.00">denoptim.programs.denovo.</text>
<text text-anchor="middle" x="77" y="-200" font-family="Helvetica,sans-Serif" font-size="10.00">GARunner.runProgram</text>
</a>
</g>
</g>
<!-- Node11&#45;&gt;Node13 -->
<g id="edge12" class="edge">
<title>Node11&#45;&gt;Node13</title>
<path fill="none" stroke="midnightblue" d="M179.48,-222.08C167.92,-220.47 156,-218.82 144.57,-217.23"/>
<polygon fill="midnightblue" stroke="midnightblue" points="179.13,-225.56 189.52,-223.47 180.1,-218.63 179.13,-225.56"/>
</g>
<!-- Node14&#45;&gt;Node10 -->
<g id="edge14" class="edge">
<title>Node14&#45;&gt;Node10</title>
<path fill="none" stroke="midnightblue" d="M524.81,-179.74C508.75,-184.11 491.71,-188.75 476.17,-192.98"/>
<polygon fill="midnightblue" stroke="midnightblue" points="525.93,-183.07 534.66,-177.06 524.09,-176.31 525.93,-183.07"/>
</g>
<!-- Node15&#45;&gt;Node9 -->
<g id="edge18" class="edge">
<title>Node15&#45;&gt;Node9</title>
<path fill="none" stroke="midnightblue" d="M700.59,-239.38C683.72,-234.97 665.79,-230.29 649.46,-226.02"/>
<polygon fill="midnightblue" stroke="midnightblue" points="699.81,-242.8 710.37,-241.94 701.58,-236.02 699.81,-242.8"/>
</g>
<!-- Node15&#45;&gt;Node14 -->
<g id="edge19" class="edge">
<title>Node15&#45;&gt;Node14</title>
<path fill="none" stroke="midnightblue" d="M698.68,-237.19C696.37,-235.88 694.14,-234.48 692,-233 670.67,-218.21 676.83,-202.49 656,-187 650.93,-183.23 645.21,-179.94 639.34,-177.11"/>
<polygon fill="midnightblue" stroke="midnightblue" points="697.36,-240.45 707.87,-241.85 700.53,-234.2 697.36,-240.45"/>
</g>
<!-- Node16 -->
<g id="node16" class="node">
<title>Node16</title>
<g id="a_node16"><a xlink:href="classdenoptim_1_1ga_1_1_evolutionary_algorithm.html#ad43588620dab3340e0d8b0042ec73618" target="_top" xlink:title="Fills up the population with candidates build from scratch.">
<polygon fill="white" stroke="black" points="350,-242 350,-272 490,-272 490,-242 350,-242"/>
<text text-anchor="start" x="358" y="-260" font-family="Helvetica,sans-Serif" font-size="10.00">denoptim.ga.Evolutionary</text>
<text text-anchor="middle" x="420" y="-249" font-family="Helvetica,sans-Serif" font-size="10.00">Algorithm.initializePopulation</text>
</a>
</g>
</g>
<!-- Node15&#45;&gt;Node16 -->
<g id="edge16" class="edge">
<title>Node15&#45;&gt;Node16</title>
<path fill="none" stroke="midnightblue" d="M694.94,-257C634.59,-257 549.49,-257 490.22,-257"/>
<polygon fill="midnightblue" stroke="midnightblue" points="695.16,-260.5 705.16,-257 695.16,-253.5 695.16,-260.5"/>
</g>
<!-- Node16&#45;&gt;Node11 -->
<g id="edge17" class="edge">
<title>Node16&#45;&gt;Node11</title>
<path fill="none" stroke="midnightblue" d="M339.6,-245.04C331.08,-243.76 322.5,-242.47 314.24,-241.22"/>
<polygon fill="midnightblue" stroke="midnightblue" points="339.15,-248.51 349.56,-246.54 340.2,-241.59 339.15,-248.51"/>
</g>
<!-- Node18&#45;&gt;Node7 -->
<g id="edge22" class="edge">
<title>Node18&#45;&gt;Node7</title>
<path fill="none" stroke="midnightblue" d="M1096.84,-189C1078.13,-189 1059.03,-189 1041.73,-189"/>
<polygon fill="midnightblue" stroke="midnightblue" points="1096.88,-192.5 1106.88,-189 1096.88,-185.5 1096.88,-192.5"/>
</g>
<!-- Node19&#45;&gt;Node4 -->
<g id="edge24" class="edge">
<title>Node19&#45;&gt;Node4</title>
<path fill="none" stroke="midnightblue" d="M1315.85,-132.17C1307.25,-131.93 1298.59,-131.7 1290.1,-131.47"/>
<polygon fill="midnightblue" stroke="midnightblue" points="1315.83,-135.67 1325.92,-132.44 1316.02,-128.67 1315.83,-135.67"/>
</g>
<!-- Node19&#45;&gt;Node18 -->
<g id="edge25" class="edge">
<title>Node19&#45;&gt;Node18</title>
<path fill="none" stroke="midnightblue" d="M1349,-152.43C1328,-157.55 1304.84,-163.2 1283.13,-168.49"/>
<polygon fill="midnightblue" stroke="midnightblue" points="1349.91,-155.81 1358.8,-150.04 1348.26,-149.01 1349.91,-155.81"/>
</g>
<!-- Node21 -->
<g id="node21" class="node">
<title>Node21</title>
<g id="a_node21"><a xlink:href="classdenoptim_1_1molecularmodeling_1_1_three_dim_tree_builder.html#acbaf5061621ed283eecc80a51b523422" target="_top" xlink:title="Created a three&#45;dimensional molecular representation from a given DGraph.">
<polygon fill="white" stroke="black" points="1337,-60.5 1337,-101.5 1506,-101.5 1506,-60.5 1337,-60.5"/>
<text text-anchor="start" x="1345" y="-89.5" font-family="Helvetica,sans-Serif" font-size="10.00">denoptim.molecularmodeling.</text>
<text text-anchor="start" x="1345" y="-78.5" font-family="Helvetica,sans-Serif" font-size="10.00">ThreeDimTreeBuilder.convertGraph</text>
<text text-anchor="middle" x="1421.5" y="-67.5" font-family="Helvetica,sans-Serif" font-size="10.00">To3DAtomContainer</text>
</a>
</g>
</g>
<!-- Node20&#45;&gt;Node21 -->
<g id="edge27" class="edge">
<title>Node20&#45;&gt;Node21</title>
<path fill="none" stroke="midnightblue" d="M1543.39,-81C1531,-81 1518.39,-81 1506.22,-81"/>
<polygon fill="midnightblue" stroke="midnightblue" points="1543.74,-84.5 1553.74,-81 1543.74,-77.5 1543.74,-84.5"/>
</g>
<!-- Node22 -->
<g id="node22" class="node">
<title>Node22</title>
<g id="a_node22"><a xlink:href="classdenoptim_1_1gui_1_1_graph_vertex_mol_viewer_panel.html#afb0f2245fdfc8158581b4cbcf2b239d1" target="_top" xlink:title="Updates the molecular representation of the loaded graph.">
<polygon fill="white" stroke="black" points="1341,-0.5 1341,-41.5 1502,-41.5 1502,-0.5 1341,-0.5"/>
<text text-anchor="start" x="1349" y="-29.5" font-family="Helvetica,sans-Serif" font-size="10.00">denoptim.gui.GraphVertex</text>
<text text-anchor="start" x="1349" y="-18.5" font-family="Helvetica,sans-Serif" font-size="10.00">MolViewerPanel.updateMolevular</text>
<text text-anchor="middle" x="1421.5" y="-7.5" font-family="Helvetica,sans-Serif" font-size="10.00">Viewer</text>
</a>
</g>
</g>
<!-- Node20&#45;&gt;Node22 -->
<g id="edge28" class="edge">
<title>Node20&#45;&gt;Node22</title>
<path fill="none" stroke="midnightblue" d="M1575.07,-63.18C1550.43,-56.37 1522.15,-48.55 1496.68,-41.51"/>
<polygon fill="midnightblue" stroke="midnightblue" points="1574.45,-66.65 1585.02,-65.94 1576.32,-59.9 1574.45,-66.65"/>
</g>
<!-- Node23 -->
<g id="node23" class="node">
<title>Node23</title>
<g id="a_node23"><a xlink:href="classdenoptim_1_1gui_1_1_g_u_i_graph_handler.html#ad54901fb2a09953591c971ffc48f3de1" target="_top" xlink:title=" ">
<polygon fill="white" stroke="black" points="1110.5,-6 1110.5,-36 1285.5,-36 1285.5,-6 1110.5,-6"/>
<text text-anchor="start" x="1118.5" y="-24" font-family="Helvetica,sans-Serif" font-size="10.00">denoptim.gui.GUIGraphHandler.save</text>
<text text-anchor="middle" x="1198" y="-13" font-family="Helvetica,sans-Serif" font-size="10.00">UnsavedChanges</text>
</a>
</g>
</g>
<!-- Node22&#45;&gt;Node23 -->
<g id="edge29" class="edge">
<title>Node22&#45;&gt;Node23</title>
<path fill="none" stroke="midnightblue" d="M1330.69,-21C1315.88,-21 1300.55,-21 1285.82,-21"/>
<polygon fill="midnightblue" stroke="midnightblue" points="1330.85,-24.5 1340.85,-21 1330.85,-17.5 1330.85,-24.5"/>
</g>
<!-- Node24 -->
<g id="node24" class="node">
<title>Node24</title>
<g id="a_node24"><a xlink:href="classdenoptim_1_1gui_1_1_g_u_i_graph_handler.html#af5b000c105018cbd7c262b34f9750044" target="_top" xlink:title="Initialize the panel and add buttons.">
<polygon fill="white" stroke="black" points="882,-11.5 882,-30.5 1070,-30.5 1070,-11.5 882,-11.5"/>
<text text-anchor="middle" x="976" y="-18.5" font-family="Helvetica,sans-Serif" font-size="10.00">denoptim.gui.GUIGraphHandler.initialize</text>
</a>
</g>
</g>
<!-- Node23&#45;&gt;Node24 -->
<g id="edge30" class="edge">
<title>Node23&#45;&gt;Node24</title>
<path fill="none" stroke="midnightblue" d="M1100.06,-21C1090.1,-21 1080,-21 1070.08,-21"/>
<polygon fill="midnightblue" stroke="midnightblue" points="1100.37,-24.5 1110.37,-21 1100.37,-17.5 1100.37,-24.5"/>
</g>
<!-- Node25 -->
<g id="node25" class="node">
<title>Node25</title>
<g id="a_node25"><a xlink:href="classdenoptim_1_1gui_1_1_g_u_i_graph_handler.html#ab7d010d9a384f6b85edce47c95d6723b" target="_top" xlink:title="Constructor.">
<polygon fill="white" stroke="black" points="692,-6 692,-36 846,-36 846,-6 692,-6"/>
<text text-anchor="start" x="700" y="-24" font-family="Helvetica,sans-Serif" font-size="10.00">denoptim.gui.GUIGraphHandler.</text>
<text text-anchor="middle" x="769" y="-13" font-family="Helvetica,sans-Serif" font-size="10.00">GUIGraphHandler</text>
</a>
</g>
</g>
<!-- Node24&#45;&gt;Node25 -->
<g id="edge31" class="edge">
<title>Node24&#45;&gt;Node25</title>
<path fill="none" stroke="midnightblue" d="M871.69,-21C863.07,-21 854.45,-21 846.09,-21"/>
<polygon fill="midnightblue" stroke="midnightblue" points="871.8,-24.5 881.8,-21 871.8,-17.5 871.8,-24.5"/>
</g>
</g>
</svg>
