<?xml version="1.0" encoding="UTF-8" standalone="no"?>
<!DOCTYPE svg PUBLIC "-//W3C//DTD SVG 1.1//EN"
 "http://www.w3.org/Graphics/SVG/1.1/DTD/svg11.dtd">
<!-- Generated by graphviz version 3.0.0 (20221109.1736)
 -->
<!-- Title: denoptim.graph.rings.CyclicGraphHandler.evaluateConstitutionalClosability Pages: 1 -->
<svg width="786pt" height="495pt"
 viewBox="0.00 0.00 786.00 495.00" xmlns="http://www.w3.org/2000/svg" xmlns:xlink="http://www.w3.org/1999/xlink">
<g id="graph0" class="graph" transform="scale(1 1) rotate(0) translate(4 491)">
<title>denoptim.graph.rings.CyclicGraphHandler.evaluateConstitutionalClosability</title>
<polygon fill="white" stroke="transparent" points="-4,4 -4,-491 782,-491 782,4 -4,4"/>
<!-- Node1 -->
<g id="node1" class="node">
<title>Node1</title>
<g id="a_node1"><a xlink:title="Method to evaluate the closability of a single path considering only its constitution.">
<polygon fill="#bfbfbf" stroke="black" points="0,-218 0,-259 175,-259 175,-218 0,-218"/>
<text text-anchor="start" x="8" y="-247" font-family="Helvetica,sans-Serif" font-size="10.00">denoptim.graph.rings.Cyclic</text>
<text text-anchor="start" x="8" y="-236" font-family="Helvetica,sans-Serif" font-size="10.00">GraphHandler.evaluateConstitutional</text>
<text text-anchor="middle" x="87.5" y="-225" font-family="Helvetica,sans-Serif" font-size="10.00">Closability</text>
</a>
</g>
</g>
<!-- Node2 -->
<g id="node2" class="node">
<title>Node2</title>
<g id="a_node2"><a xlink:href="enumdenoptim_1_1graph_1_1_edge_1_1_bond_type.html#a3b106d49993cb7dcc1544211e8a17dfd" target="_top" xlink:title=" ">
<polygon fill="white" stroke="black" points="242,-456.5 242,-486.5 373,-486.5 373,-456.5 242,-456.5"/>
<text text-anchor="start" x="250" y="-474.5" font-family="Helvetica,sans-Serif" font-size="10.00">denoptim.graph.Edge.Bond</text>
<text text-anchor="middle" x="307.5" y="-463.5" font-family="Helvetica,sans-Serif" font-size="10.00">Type.getCDKOrder</text>
</a>
</g>
</g>
<!-- Node1&#45;&gt;Node2 -->
<g id="edge1" class="edge">
<title>Node1&#45;&gt;Node2</title>
<path fill="none" stroke="midnightblue" d="M94.56,-259.09C108.09,-301.31 144.88,-397.92 211,-447.5 217.35,-452.26 224.53,-456.08 232.04,-459.15"/>
<polygon fill="midnightblue" stroke="midnightblue" points="231.09,-462.53 241.69,-462.65 233.48,-455.95 231.09,-462.53"/>
</g>
<!-- Node3 -->
<g id="node3" class="node">
<title>Node3</title>
<g id="a_node3"><a xlink:href="classdenoptim_1_1graph_1_1rings_1_1_ring_closure_parameters.html#afa4e3573a7b37595993ca817af9f2da3" target="_top" xlink:title=" ">
<polygon fill="white" stroke="black" points="220,-397 220,-438 395,-438 395,-397 220,-397"/>
<text text-anchor="start" x="228" y="-426" font-family="Helvetica,sans-Serif" font-size="10.00">denoptim.graph.rings.Ring</text>
<text text-anchor="start" x="228" y="-415" font-family="Helvetica,sans-Serif" font-size="10.00">ClosureParameters.getConstitutional</text>
<text text-anchor="middle" x="307.5" y="-404" font-family="Helvetica,sans-Serif" font-size="10.00">ClosabilityConds</text>
</a>
</g>
</g>
<!-- Node1&#45;&gt;Node3 -->
<g id="edge2" class="edge">
<title>Node1&#45;&gt;Node3</title>
<path fill="none" stroke="midnightblue" d="M99.92,-259.25C118.81,-291.64 159.61,-354.06 211,-388.5 212.87,-389.75 214.8,-390.96 216.77,-392.11"/>
<polygon fill="midnightblue" stroke="midnightblue" points="215.21,-395.24 225.68,-396.84 218.49,-389.06 215.21,-395.24"/>
</g>
<!-- Node4 -->
<g id="node4" class="node">
<title>Node4</title>
<g id="a_node4"><a xlink:href="classdenoptim_1_1programs_1_1_run_time_parameters.html#a5d529ee791990d15bde012d8dcd6b5c1" target="_top" xlink:title="Get the name of the program specific logger.">
<polygon fill="white" stroke="black" points="237.5,-348.5 237.5,-378.5 377.5,-378.5 377.5,-348.5 237.5,-348.5"/>
<text text-anchor="start" x="245.5" y="-366.5" font-family="Helvetica,sans-Serif" font-size="10.00">denoptim.programs.RunTime</text>
<text text-anchor="middle" x="307.5" y="-355.5" font-family="Helvetica,sans-Serif" font-size="10.00">Parameters.getLogger</text>
</a>
</g>
</g>
<!-- Node1&#45;&gt;Node4 -->
<g id="edge3" class="edge">
<title>Node1&#45;&gt;Node4</title>
<path fill="none" stroke="midnightblue" d="M107.73,-259.11C130.3,-282.09 169.91,-318.74 211,-339.5 216.28,-342.17 221.87,-344.55 227.61,-346.68"/>
<polygon fill="midnightblue" stroke="midnightblue" points="226.75,-350.09 237.35,-350.03 229.03,-343.47 226.75,-350.09"/>
</g>
<!-- Node5 -->
<g id="node5" class="node">
<title>Node5</title>
<g id="a_node5"><a xlink:href="classdenoptim_1_1utils_1_1_many_s_m_a_r_t_s_query.html#a3506079a3de962c32b2c715f8cea96e6" target="_top" xlink:title=" ">
<polygon fill="white" stroke="black" points="215,-299.5 215,-329.5 400,-329.5 400,-299.5 215,-299.5"/>
<text text-anchor="start" x="223" y="-317.5" font-family="Helvetica,sans-Serif" font-size="10.00">denoptim.utils.ManySMARTSQuery.get</text>
<text text-anchor="middle" x="307.5" y="-306.5" font-family="Helvetica,sans-Serif" font-size="10.00">Message</text>
</a>
</g>
</g>
<!-- Node1&#45;&gt;Node5 -->
<g id="edge4" class="edge">
<title>Node1&#45;&gt;Node5</title>
<path fill="none" stroke="midnightblue" d="M132.37,-259.08C155.44,-269.4 184.39,-281.57 211,-290.5 217.42,-292.66 224.15,-294.72 230.93,-296.67"/>
<polygon fill="midnightblue" stroke="midnightblue" points="230.29,-300.13 240.87,-299.44 232.17,-293.38 230.29,-300.13"/>
</g>
<!-- Node6 -->
<g id="node6" class="node">
<title>Node6</title>
<g id="a_node6"><a xlink:href="classdenoptim_1_1utils_1_1_many_s_m_a_r_t_s_query.html#aea287dfe72ffc150250c8180706289bd" target="_top" xlink:title=" ">
<polygon fill="white" stroke="black" points="215,-250.5 215,-280.5 400,-280.5 400,-250.5 215,-250.5"/>
<text text-anchor="start" x="223" y="-268.5" font-family="Helvetica,sans-Serif" font-size="10.00">denoptim.utils.ManySMARTSQuery.get</text>
<text text-anchor="middle" x="307.5" y="-257.5" font-family="Helvetica,sans-Serif" font-size="10.00">NumMatchesOfQuery</text>
</a>
</g>
</g>
<!-- Node1&#45;&gt;Node6 -->
<g id="edge5" class="edge">
<title>Node1&#45;&gt;Node6</title>
<path fill="none" stroke="midnightblue" d="M175.29,-249.25C184.89,-250.44 194.74,-251.66 204.51,-252.87"/>
<polygon fill="midnightblue" stroke="midnightblue" points="204.29,-256.37 214.65,-254.12 205.16,-249.42 204.29,-256.37"/>
</g>
<!-- Node7 -->
<g id="node7" class="node">
<title>Node7</title>
<g id="a_node7"><a xlink:href="classdenoptim_1_1graph_1_1rings_1_1_ring_closure_parameters.html#a6940bab85827c126d84f53b8eea6cc2f" target="_top" xlink:title=" ">
<polygon fill="white" stroke="black" points="221,-191 221,-232 394,-232 394,-191 221,-191"/>
<text text-anchor="start" x="229" y="-220" font-family="Helvetica,sans-Serif" font-size="10.00">denoptim.graph.rings.Ring</text>
<text text-anchor="start" x="229" y="-209" font-family="Helvetica,sans-Serif" font-size="10.00">ClosureParameters.getRequiredRing</text>
<text text-anchor="middle" x="307.5" y="-198" font-family="Helvetica,sans-Serif" font-size="10.00">Elements</text>
</a>
</g>
</g>
<!-- Node1&#45;&gt;Node7 -->
<g id="edge6" class="edge">
<title>Node1&#45;&gt;Node7</title>
<path fill="none" stroke="midnightblue" d="M175.29,-227.75C186.86,-226.32 198.78,-224.84 210.49,-223.39"/>
<polygon fill="midnightblue" stroke="midnightblue" points="211.23,-226.83 220.72,-222.12 210.37,-219.88 211.23,-226.83"/>
</g>
<!-- Node8 -->
<g id="node8" class="node">
<title>Node8</title>
<g id="a_node8"><a xlink:href="classdenoptim_1_1utils_1_1_molecule_utils.html#abf225c363ca09f229c7b0939cba3b1da" target="_top" xlink:title="Method to generate the map making in relation DENOPTIMVertex ID and atom index in the IAtomContainer ...">
<polygon fill="white" stroke="black" points="230.5,-142.5 230.5,-172.5 384.5,-172.5 384.5,-142.5 230.5,-142.5"/>
<text text-anchor="start" x="238.5" y="-160.5" font-family="Helvetica,sans-Serif" font-size="10.00">denoptim.utils.MoleculeUtils.get</text>
<text text-anchor="middle" x="307.5" y="-149.5" font-family="Helvetica,sans-Serif" font-size="10.00">VertexToAtomIdMap</text>
</a>
</g>
</g>
<!-- Node1&#45;&gt;Node8 -->
<g id="edge7" class="edge">
<title>Node1&#45;&gt;Node8</title>
<path fill="none" stroke="midnightblue" d="M127.7,-217.94C151.36,-206.12 182.37,-191.65 211,-181.5 217.03,-179.36 223.33,-177.34 229.7,-175.44"/>
<polygon fill="midnightblue" stroke="midnightblue" points="231.1,-178.68 239.74,-172.56 229.17,-171.95 231.1,-178.68"/>
</g>
<!-- Node9 -->
<g id="node9" class="node">
<title>Node9</title>
<g id="a_node9"><a xlink:href="enumdenoptim_1_1graph_1_1_edge_1_1_bond_type.html#a8be61f74c1beaa52e4a53ff70d32a614" target="_top" xlink:title="Checks if it is possible to convert this edge type into a CDK bond.">
<polygon fill="white" stroke="black" points="242,-93.5 242,-123.5 373,-123.5 373,-93.5 242,-93.5"/>
<text text-anchor="start" x="250" y="-111.5" font-family="Helvetica,sans-Serif" font-size="10.00">denoptim.graph.Edge.Bond</text>
<text text-anchor="middle" x="307.5" y="-100.5" font-family="Helvetica,sans-Serif" font-size="10.00">Type.hasCDKAnalogue</text>
</a>
</g>
</g>
<!-- Node1&#45;&gt;Node9 -->
<g id="edge8" class="edge">
<title>Node1&#45;&gt;Node9</title>
<path fill="none" stroke="midnightblue" d="M106.8,-217.97C129.11,-194.18 169.06,-155.46 211,-133.5 217.58,-130.06 224.66,-127.06 231.89,-124.47"/>
<polygon fill="midnightblue" stroke="midnightblue" points="233.43,-127.64 241.81,-121.16 231.22,-121 233.43,-127.64"/>
</g>
<!-- Node10 -->
<g id="node10" class="node">
<title>Node10</title>
<g id="a_node10"><a xlink:href="classdenoptim_1_1utils_1_1_many_s_m_a_r_t_s_query.html#aaffb007354a24c9fb679742e431c9980" target="_top" xlink:title=" ">
<polygon fill="white" stroke="black" points="214,-44.5 214,-74.5 401,-74.5 401,-44.5 214,-44.5"/>
<text text-anchor="start" x="222" y="-62.5" font-family="Helvetica,sans-Serif" font-size="10.00">denoptim.utils.ManySMARTSQuery.has</text>
<text text-anchor="middle" x="307.5" y="-51.5" font-family="Helvetica,sans-Serif" font-size="10.00">Problems</text>
</a>
</g>
</g>
<!-- Node1&#45;&gt;Node10 -->
<g id="edge9" class="edge">
<title>Node1&#45;&gt;Node10</title>
<path fill="none" stroke="midnightblue" d="M99.17,-217.77C117.44,-184.41 157.9,-119.09 211,-84.5 214.13,-82.46 217.41,-80.59 220.81,-78.87"/>
<polygon fill="midnightblue" stroke="midnightblue" points="222.38,-82 230.02,-74.67 219.47,-75.63 222.38,-82"/>
</g>
<!-- Node11 -->
<g id="node11" class="node">
<title>Node11</title>
<g id="a_node11"><a xlink:href="classdenoptim_1_1utils_1_1_molecule_utils.html#a5b9d0a88dd69734a1c54659e07d1294a" target="_top" xlink:title="Replace any PseudoAtoms representing ring closing attractors with H.">
<polygon fill="white" stroke="black" points="211,-6 211,-25 404,-25 404,-6 211,-6"/>
<text text-anchor="middle" x="307.5" y="-13" font-family="Helvetica,sans-Serif" font-size="10.00">denoptim.utils.MoleculeUtils.removeRCA</text>
</a>
</g>
</g>
<!-- Node1&#45;&gt;Node11 -->
<g id="edge10" class="edge">
<title>Node1&#45;&gt;Node11</title>
<path fill="none" stroke="midnightblue" d="M94.69,-217.97C108.35,-176.38 145.2,-82.19 211,-35.5 214.32,-33.14 217.87,-31.05 221.56,-29.19"/>
<polygon fill="midnightblue" stroke="midnightblue" points="223.25,-32.28 231,-25.06 220.44,-25.87 223.25,-32.28"/>
</g>
<!-- Node12 -->
<g id="node12" class="node">
<title>Node12</title>
<g id="a_node12"><a xlink:href="classdenoptim_1_1utils_1_1_molecule_utils.html#a8bca186632882f9399b9511020a43211" target="_top" xlink:title="Gets either the elemental symbol (for standard atoms) of the label (for pseudo&#45;atoms).">
<polygon fill="white" stroke="black" points="440,-0.5 440,-30.5 594,-30.5 594,-0.5 440,-0.5"/>
<text text-anchor="start" x="448" y="-18.5" font-family="Helvetica,sans-Serif" font-size="10.00">denoptim.utils.MoleculeUtils.get</text>
<text text-anchor="middle" x="517" y="-7.5" font-family="Helvetica,sans-Serif" font-size="10.00">SymbolOrLabel</text>
</a>
</g>
</g>
<!-- Node11&#45;&gt;Node12 -->
<g id="edge11" class="edge">
<title>Node11&#45;&gt;Node12</title>
<path fill="none" stroke="midnightblue" d="M404.05,-15.5C412.6,-15.5 421.22,-15.5 429.68,-15.5"/>
<polygon fill="midnightblue" stroke="midnightblue" points="429.9,-19 439.9,-15.5 429.9,-12 429.9,-19"/>
</g>
<!-- Node13 -->
<g id="node13" class="node">
<title>Node13</title>
<g id="a_node13"><a xlink:href="classdenoptim_1_1utils_1_1_molecule_utils.html#af975649c8225c4653efb1135d8360c2d" target="_top" xlink:title="Check element symbol corresponds to real element of Periodic Table.">
<polygon fill="white" stroke="black" points="630,-0.5 630,-30.5 778,-30.5 778,-0.5 630,-0.5"/>
<text text-anchor="start" x="638" y="-18.5" font-family="Helvetica,sans-Serif" font-size="10.00">denoptim.utils.MoleculeUtils.is</text>
<text text-anchor="middle" x="704" y="-7.5" font-family="Helvetica,sans-Serif" font-size="10.00">Element</text>
</a>
</g>
</g>
<!-- Node12&#45;&gt;Node13 -->
<g id="edge12" class="edge">
<title>Node12&#45;&gt;Node13</title>
<path fill="none" stroke="midnightblue" d="M594.05,-15.5C602.57,-15.5 611.29,-15.5 619.89,-15.5"/>
<polygon fill="midnightblue" stroke="midnightblue" points="619.93,-19 629.93,-15.5 619.93,-12 619.93,-19"/>
</g>
<!-- Node13&#45;&gt;Node13 -->
<g id="edge13" class="edge">
<title>Node13&#45;&gt;Node13</title>
<path fill="none" stroke="midnightblue" d="M671.59,-30.66C663.77,-40.06 674.57,-49 704,-49 721.93,-49 732.95,-45.68 737.05,-40.96"/>
<polygon fill="midnightblue" stroke="midnightblue" points="740.52,-40.42 736.41,-30.66 733.54,-40.86 740.52,-40.42"/>
</g>
</g>
</svg>
