<?xml version="1.0" encoding="UTF-8" standalone="no"?>
<!DOCTYPE svg PUBLIC "-//W3C//DTD SVG 1.1//EN"
 "http://www.w3.org/Graphics/SVG/1.1/DTD/svg11.dtd">
<!-- Generated by graphviz version 3.0.0 (20221109.1736)
 -->
<!-- Title: denoptim.graph.rings.PathSubGraph.makeMolecularRepresentation Pages: 1 -->
<svg width="407pt" height="184pt"
 viewBox="0.00 0.00 407.00 183.50" xmlns="http://www.w3.org/2000/svg" xmlns:xlink="http://www.w3.org/1999/xlink">
<g id="graph0" class="graph" transform="scale(1 1) rotate(0) translate(4 179.5)">
<title>denoptim.graph.rings.PathSubGraph.makeMolecularRepresentation</title>
<polygon fill="white" stroke="transparent" points="-4,4 -4,-179.5 403,-179.5 403,4 -4,4"/>
<!-- Node1 -->
<g id="node1" class="node">
<title>Node1</title>
<g id="a_node1"><a xlink:title="Creates the molecular representation, list of atoms and bonds involved in the path between the head a...">
<polygon fill="#bfbfbf" stroke="black" points="0,-67.5 0,-97.5 194,-97.5 194,-67.5 0,-67.5"/>
<text text-anchor="start" x="8" y="-85.5" font-family="Helvetica,sans-Serif" font-size="10.00">denoptim.graph.rings.Path</text>
<text text-anchor="middle" x="97" y="-74.5" font-family="Helvetica,sans-Serif" font-size="10.00">SubGraph.makeMolecularRepresentation</text>
</a>
</g>
</g>
<!-- Node2 -->
<g id="node2" class="node">
<title>Node2</title>
<g id="a_node2"><a xlink:href="classdenoptim_1_1molecularmodeling_1_1_three_dim_tree_builder.html#aa1352172290adaaf3a478ed7a90cf3fc" target="_top" xlink:title="Created a three&#45;dimensional molecular representation from a given DGraph.">
<polygon fill="white" stroke="black" points="230,-116 230,-157 399,-157 399,-116 230,-116"/>
<text text-anchor="start" x="238" y="-145" font-family="Helvetica,sans-Serif" font-size="10.00">denoptim.molecularmodeling.</text>
<text text-anchor="start" x="238" y="-134" font-family="Helvetica,sans-Serif" font-size="10.00">ThreeDimTreeBuilder.convertGraph</text>
<text text-anchor="middle" x="314.5" y="-123" font-family="Helvetica,sans-Serif" font-size="10.00">To3DAtomContainer</text>
</a>
</g>
</g>
<!-- Node1&#45;&gt;Node2 -->
<g id="edge1" class="edge">
<title>Node1&#45;&gt;Node2</title>
<path fill="none" stroke="midnightblue" d="M158.03,-97.54C177.79,-102.49 200.24,-108.12 221.81,-113.52"/>
<polygon fill="midnightblue" stroke="midnightblue" points="221.1,-116.95 231.65,-115.99 222.8,-110.16 221.1,-116.95"/>
</g>
<!-- Node3 -->
<g id="node3" class="node">
<title>Node3</title>
<g id="a_node3"><a xlink:href="classdenoptim_1_1graph_1_1rings_1_1_path_sub_graph.html#aef11c232cbc65e343d11fcce3a6a1ebd" target="_top" xlink:title=" ">
<polygon fill="white" stroke="black" points="244.5,-67.5 244.5,-97.5 384.5,-97.5 384.5,-67.5 244.5,-67.5"/>
<text text-anchor="start" x="252.5" y="-85.5" font-family="Helvetica,sans-Serif" font-size="10.00">denoptim.graph.rings.Path</text>
<text text-anchor="middle" x="314.5" y="-74.5" font-family="Helvetica,sans-Serif" font-size="10.00">SubGraph.getVertexIdInPath</text>
</a>
</g>
</g>
<!-- Node1&#45;&gt;Node3 -->
<g id="edge3" class="edge">
<title>Node1&#45;&gt;Node3</title>
<path fill="none" stroke="midnightblue" d="M194.09,-82.5C207.46,-82.5 221.08,-82.5 234.1,-82.5"/>
<polygon fill="midnightblue" stroke="midnightblue" points="234.4,-86 244.4,-82.5 234.4,-79 234.4,-86"/>
</g>
<!-- Node4 -->
<g id="node4" class="node">
<title>Node4</title>
<g id="a_node4"><a xlink:href="classdenoptim_1_1io_1_1_denoptim_i_o.html#a33af2ecd8e9f62a54855b2a7866262b3" target="_top" xlink:title="Writes IAtomContainer to SDF file.">
<polygon fill="white" stroke="black" points="243,-0.5 243,-30.5 386,-30.5 386,-0.5 243,-0.5"/>
<text text-anchor="start" x="251" y="-18.5" font-family="Helvetica,sans-Serif" font-size="10.00">denoptim.io.DenoptimIO.write</text>
<text text-anchor="middle" x="314.5" y="-7.5" font-family="Helvetica,sans-Serif" font-size="10.00">SDFFile</text>
</a>
</g>
</g>
<!-- Node1&#45;&gt;Node4 -->
<g id="edge4" class="edge">
<title>Node1&#45;&gt;Node4</title>
<path fill="none" stroke="midnightblue" d="M146.36,-67.46C178.55,-57.46 221.02,-44.25 255.1,-33.66"/>
<polygon fill="midnightblue" stroke="midnightblue" points="256.42,-36.91 264.93,-30.6 254.34,-30.23 256.42,-36.91"/>
</g>
<!-- Node2&#45;&gt;Node2 -->
<g id="edge2" class="edge">
<title>Node2&#45;&gt;Node2</title>
<path fill="none" stroke="midnightblue" d="M274.8,-157.36C270.47,-167.04 283.7,-175.5 314.5,-175.5 333.75,-175.5 346.14,-172.2 351.66,-167.36"/>
<polygon fill="midnightblue" stroke="midnightblue" points="355.13,-167.92 354.2,-157.36 348.35,-166.2 355.13,-167.92"/>
</g>
<!-- Node4&#45;&gt;Node4 -->
<g id="edge5" class="edge">
<title>Node4&#45;&gt;Node4</title>
<path fill="none" stroke="midnightblue" d="M276.86,-30.66C267.78,-40.06 280.33,-49 314.5,-49 335.32,-49 348.12,-45.68 352.88,-40.96"/>
<polygon fill="midnightblue" stroke="midnightblue" points="356.35,-40.38 352.14,-30.66 349.37,-40.88 356.35,-40.38"/>
</g>
</g>
</svg>
