<?xml version="1.0" encoding="UTF-8" standalone="no"?>
<!DOCTYPE svg PUBLIC "-//W3C//DTD SVG 1.1//EN"
 "http://www.w3.org/Graphics/SVG/1.1/DTD/svg11.dtd">
<!-- Generated by graphviz version 3.0.0 (20221109.1736)
 -->
<!-- Title: denoptim.programs.denovo.GAParameters.processParameters Pages: 1 -->
<svg width="602pt" height="186pt"
 viewBox="0.00 0.00 602.00 186.00" xmlns="http://www.w3.org/2000/svg" xmlns:xlink="http://www.w3.org/1999/xlink">
<g id="graph0" class="graph" transform="scale(1 1) rotate(0) translate(4 182)">
<title>denoptim.programs.denovo.GAParameters.processParameters</title>
<polygon fill="white" stroke="transparent" points="-4,4 -4,-182 598,-182 598,4 -4,4"/>
<!-- Node1 -->
<g id="node1" class="node">
<title>Node1</title>
<g id="a_node1"><a xlink:title="Processes currently loaded fields.">
<polygon fill="#bfbfbf" stroke="black" points="0,-73.5 0,-103.5 168,-103.5 168,-73.5 0,-73.5"/>
<text text-anchor="start" x="8" y="-91.5" font-family="Helvetica,sans-Serif" font-size="10.00">denoptim.programs.denovo.</text>
<text text-anchor="middle" x="84" y="-80.5" font-family="Helvetica,sans-Serif" font-size="10.00">GAParameters.processParameters</text>
</a>
</g>
</g>
<!-- Node2 -->
<g id="node2" class="node">
<title>Node2</title>
<g id="a_node2"><a xlink:href="classdenoptim_1_1programs_1_1denovo_1_1_g_a_parameters.html#acbac6ae9bd163f332713e3a6c8cb62a1" target="_top" xlink:title="Create the directory that will store the output of the GA run.">
<polygon fill="white" stroke="black" points="204,-147.5 204,-177.5 388,-177.5 388,-147.5 204,-147.5"/>
<text text-anchor="start" x="212" y="-165.5" font-family="Helvetica,sans-Serif" font-size="10.00">denoptim.programs.denovo.</text>
<text text-anchor="middle" x="296" y="-154.5" font-family="Helvetica,sans-Serif" font-size="10.00">GAParameters.createWorkingDirectory</text>
</a>
</g>
</g>
<!-- Node1&#45;&gt;Node2 -->
<g id="edge1" class="edge">
<title>Node1&#45;&gt;Node2</title>
<path fill="none" stroke="midnightblue" d="M118.43,-103.56C142.06,-113.87 174.61,-127.46 204,-137.5 211.11,-139.93 218.6,-142.3 226.1,-144.54"/>
<polygon fill="midnightblue" stroke="midnightblue" points="225.36,-147.96 235.94,-147.41 227.32,-141.25 225.36,-147.96"/>
</g>
<!-- Node4 -->
<g id="node4" class="node">
<title>Node4</title>
<g id="a_node4"><a xlink:href="classdenoptim_1_1programs_1_1_run_time_parameters.html#a0bfbd80ca3352b87f938e7e4c0c438ce" target="_top" xlink:title="Returns the seed.">
<polygon fill="white" stroke="black" points="225.5,-98.5 225.5,-128.5 366.5,-128.5 366.5,-98.5 225.5,-98.5"/>
<text text-anchor="start" x="233.5" y="-116.5" font-family="Helvetica,sans-Serif" font-size="10.00">denoptim.programs.RunTime</text>
<text text-anchor="middle" x="296" y="-105.5" font-family="Helvetica,sans-Serif" font-size="10.00">Parameters.getRandomSeed</text>
</a>
</g>
</g>
<!-- Node1&#45;&gt;Node4 -->
<g id="edge3" class="edge">
<title>Node1&#45;&gt;Node4</title>
<path fill="none" stroke="midnightblue" d="M168.3,-98.42C183.8,-100.26 199.96,-102.19 215.34,-104.02"/>
<polygon fill="midnightblue" stroke="midnightblue" points="214.99,-107.5 225.33,-105.21 215.81,-100.55 214.99,-107.5"/>
</g>
<!-- Node6 -->
<g id="node6" class="node">
<title>Node6</title>
<g id="a_node6"><a xlink:href="classdenoptim_1_1programs_1_1_run_time_parameters.html#abcdf563c6c95b9a293cb0e71738355ff" target="_top" xlink:title="Processes any of the parameter collections contained in this instance.">
<polygon fill="white" stroke="black" points="207,-49.5 207,-79.5 385,-79.5 385,-49.5 207,-49.5"/>
<text text-anchor="start" x="215" y="-67.5" font-family="Helvetica,sans-Serif" font-size="10.00">denoptim.programs.RunTime</text>
<text text-anchor="middle" x="296" y="-56.5" font-family="Helvetica,sans-Serif" font-size="10.00">Parameters.processOtherParameters</text>
</a>
</g>
</g>
<!-- Node1&#45;&gt;Node6 -->
<g id="edge5" class="edge">
<title>Node1&#45;&gt;Node6</title>
<path fill="none" stroke="midnightblue" d="M168.3,-78.98C177.73,-77.9 187.41,-76.8 197.01,-75.7"/>
<polygon fill="midnightblue" stroke="midnightblue" points="197.44,-79.17 206.97,-74.56 196.64,-72.22 197.44,-79.17"/>
</g>
<!-- Node7 -->
<g id="node7" class="node">
<title>Node7</title>
<g id="a_node7"><a xlink:href="classdenoptim_1_1programs_1_1_run_time_parameters.html#ab90df597a50f7903c802309cb87c5aca" target="_top" xlink:title="Starts a program specific randomizer, i.e., a tool for generating random numbers and taking random de...">
<polygon fill="white" stroke="black" points="226,-0.5 226,-30.5 366,-30.5 366,-0.5 226,-0.5"/>
<text text-anchor="start" x="234" y="-18.5" font-family="Helvetica,sans-Serif" font-size="10.00">denoptim.programs.RunTime</text>
<text text-anchor="middle" x="296" y="-7.5" font-family="Helvetica,sans-Serif" font-size="10.00">Parameters.startRandomizer</text>
</a>
</g>
</g>
<!-- Node1&#45;&gt;Node7 -->
<g id="edge6" class="edge">
<title>Node1&#45;&gt;Node7</title>
<path fill="none" stroke="midnightblue" d="M118.15,-73.46C141.77,-63.09 174.46,-49.43 204,-39.5 210.35,-37.37 216.99,-35.3 223.68,-33.34"/>
<polygon fill="midnightblue" stroke="midnightblue" points="224.83,-36.65 233.48,-30.53 222.91,-29.92 224.83,-36.65"/>
</g>
<!-- Node3 -->
<g id="node3" class="node">
<title>Node3</title>
<g id="a_node3"><a xlink:href="classdenoptim_1_1programs_1_1denovo_1_1_g_a_parameters.html#af044aeccd6e679f1835024718507855e" target="_top" xlink:title=" ">
<polygon fill="white" stroke="black" points="424,-147.5 424,-177.5 594,-177.5 594,-147.5 424,-147.5"/>
<text text-anchor="start" x="432" y="-165.5" font-family="Helvetica,sans-Serif" font-size="10.00">denoptim.programs.denovo.</text>
<text text-anchor="middle" x="509" y="-154.5" font-family="Helvetica,sans-Serif" font-size="10.00">GAParameters.setWorkingDirectory</text>
</a>
</g>
</g>
<!-- Node2&#45;&gt;Node3 -->
<g id="edge2" class="edge">
<title>Node2&#45;&gt;Node3</title>
<path fill="none" stroke="midnightblue" d="M388.01,-162.5C396.59,-162.5 405.3,-162.5 413.91,-162.5"/>
<polygon fill="midnightblue" stroke="midnightblue" points="413.95,-166 423.95,-162.5 413.95,-159 413.95,-166"/>
</g>
<!-- Node5 -->
<g id="node5" class="node">
<title>Node5</title>
<g id="a_node5"><a xlink:href="classdenoptim_1_1utils_1_1_randomizer.html#a2d03be3ca70f76f94f4a178f2b12eb37" target="_top" xlink:title=" ">
<polygon fill="white" stroke="black" points="425,-104 425,-123 593,-123 593,-104 425,-104"/>
<text text-anchor="middle" x="509" y="-111" font-family="Helvetica,sans-Serif" font-size="10.00">denoptim.utils.Randomizer.getSeed</text>
</a>
</g>
</g>
<!-- Node4&#45;&gt;Node5 -->
<g id="edge4" class="edge">
<title>Node4&#45;&gt;Node5</title>
<path fill="none" stroke="midnightblue" d="M366.67,-113.5C382.08,-113.5 398.65,-113.5 414.82,-113.5"/>
<polygon fill="midnightblue" stroke="midnightblue" points="414.83,-117 424.83,-113.5 414.83,-110 414.83,-117"/>
</g>
</g>
</svg>
