<?xml version="1.0" encoding="UTF-8" standalone="no"?>
<!DOCTYPE svg PUBLIC "-//W3C//DTD SVG 1.1//EN"
 "http://www.w3.org/Graphics/SVG/1.1/DTD/svg11.dtd">
<!-- Generated by graphviz version 3.0.0 (20221109.1736)
 -->
<!-- Title: denoptim.graph.rings.CyclicGraphHandler.RingSizeManager Pages: 1 -->
<!--zoomable 636 -->
<svg id="main" version="1.1" xmlns="http://www.w3.org/2000/svg" xmlns:xlink="http://www.w3.org/1999/xlink" xml:space="preserve" onload="init(evt)">
<style type="text/css"><![CDATA[
.edge:hover path { stroke: red; }
.edge:hover polygon { stroke: red; fill: red; }
]]></style>
<script type="text/javascript"><![CDATA[
var edges = document.getElementsByTagName('g');
if (edges && edges.length) {
  for (var i=0;i<edges.length;i++) {
    if (edges[i].id.substr(0,4)=='edge') {
      edges[i].setAttribute('class','edge');
    }
  }
}
]]></script>
        <defs>
                <circle id="rim" cx="0" cy="0" r="7"/>
                <circle id="rim2" cx="0" cy="0" r="3.5"/>
                <g id="zoomPlus">
                        <use xlink:href="#rim" fill="#404040">
                                <set attributeName="fill" to="#808080" begin="zoomplus.mouseover" end="zoomplus.mouseout"/>
                        </use>
                        <path d="M-4,0h8M0,-4v8" fill="none" stroke="white" stroke-width="1.5" pointer-events="none"/>
                </g>
                <g id="zoomMin">
                        <use xlink:href="#rim" fill="#404040">
                                <set attributeName="fill" to="#808080" begin="zoomminus.mouseover" end="zoomminus.mouseout"/>
                        </use>
                        <path d="M-4,0h8" fill="none" stroke="white" stroke-width="1.5" pointer-events="none"/>
                </g>
                <g id="dirArrow">
                        <path fill="none" stroke="white" stroke-width="1.5" d="M0,-3.0v7 M-2.5,-0.5L0,-3.0L2.5,-0.5"/>
                </g>
               <g id="resetDef">
                       <use xlink:href="#rim2" fill="#404040">
                               <set attributeName="fill" to="#808080" begin="reset.mouseover" end="reset.mouseout"/>
                       </use>
               </g>
        </defs>

<script type="text/javascript">
var viewWidth = 937;
var viewHeight = 636;
var sectionId = 'dynsection-0';
</script>
<script xlink:href="svgpan.js"/>
<svg id="graph" class="graph">
<g id="viewport">
<title>denoptim.graph.rings.CyclicGraphHandler.RingSizeManager</title>
<polygon fill="white" stroke="transparent" points="-4,4 -4,-631.5 933,-631.5 933,4 -4,4"/>
<!-- Node1 -->
<g id="node1" class="node">
<title>Node1</title>
<g id="a_node1"><a xlink:title="Utility class to calculate and manage the alternative ring sizes achievable by formation of DENOPTIMR...">
<polygon fill="#bfbfbf" stroke="black" points="774,-479.5 774,-509.5 929,-509.5 929,-479.5 774,-479.5"/>
<text text-anchor="start" x="782" y="-497.5" font-family="Helvetica,sans-Serif" font-size="10.00">denoptim.graph.rings.Cyclic</text>
<text text-anchor="middle" x="851.5" y="-486.5" font-family="Helvetica,sans-Serif" font-size="10.00">GraphHandler.RingSizeManager</text>
</a>
</g>
</g>
<!-- Node2 -->
<g id="node2" class="node">
<title>Node2</title>
<g id="a_node2"><a xlink:title=" ">
<polygon fill="white" stroke="black" points="529.5,-608 529.5,-627 613.5,-627 613.5,-608 529.5,-608"/>
<text text-anchor="middle" x="571.5" y="-615" font-family="Helvetica,sans-Serif" font-size="10.00">IAtomContainer</text>
</a>
</g>
</g>
<!-- Node2&#45;&gt;Node1 -->
<g id="edge1" class="edge">
<title>Node2&#45;&gt;Node1</title>
<path fill="none" stroke="#9a32cd" stroke-dasharray="5,2" d="M624.19,-619.35C662.51,-618.67 714.98,-613.31 756,-592.5 794.15,-573.14 825.59,-532.17 840.74,-509.82"/>
<polygon fill="#9a32cd" stroke="#9a32cd" points="623.75,-615.85 613.78,-619.42 623.8,-622.85 623.75,-615.85"/>
<text text-anchor="middle" x="709" y="-619.5" font-family="Helvetica,sans-Serif" font-size="10.00"> mol</text>
</g>
<!-- Node3 -->
<g id="node3" class="node">
<title>Node3</title>
<g id="a_node3"><a xlink:title=" ">
<polygon fill="white" stroke="black" points="176.5,-551.5 176.5,-581.5 308.5,-581.5 308.5,-551.5 176.5,-551.5"/>
<text text-anchor="start" x="184.5" y="-569.5" font-family="Helvetica,sans-Serif" font-size="10.00">ArrayList&lt; denoptim.graph.</text>
<text text-anchor="middle" x="242.5" y="-558.5" font-family="Helvetica,sans-Serif" font-size="10.00">Vertex &gt;</text>
</a>
</g>
</g>
<!-- Node3&#45;&gt;Node1 -->
<g id="edge2" class="edge">
<title>Node3&#45;&gt;Node1</title>
<path fill="none" stroke="#9a32cd" stroke-dasharray="5,2" d="M319.05,-571.86C420.52,-576.84 605.49,-578.07 756,-535.5 778.72,-529.08 803.13,-518.38 821.45,-509.52"/>
<polygon fill="#9a32cd" stroke="#9a32cd" points="319.06,-568.36 308.9,-571.34 318.7,-575.35 319.06,-568.36"/>
<text text-anchor="middle" x="571.5" y="-574.5" font-family="Helvetica,sans-Serif" font-size="10.00"> lstVert</text>
</g>
<!-- Node8 -->
<g id="node8" class="node">
<title>Node8</title>
<g id="a_node8"><a xlink:href="classdenoptim_1_1fragspace_1_1_fragment_space.html" target="_top" xlink:title="Class defining a space of building blocks.">
<polygon fill="white" stroke="black" points="499,-342.5 499,-372.5 644,-372.5 644,-342.5 499,-342.5"/>
<text text-anchor="start" x="507" y="-360.5" font-family="Helvetica,sans-Serif" font-size="10.00">denoptim.fragspace.Fragment</text>
<text text-anchor="middle" x="571.5" y="-349.5" font-family="Helvetica,sans-Serif" font-size="10.00">Space</text>
</a>
</g>
</g>
<!-- Node3&#45;&gt;Node8 -->
<g id="edge8" class="edge">
<title>Node3&#45;&gt;Node8</title>
<path fill="none" stroke="#9a32cd" stroke-dasharray="5,2" d="M296.71,-547.92C311.8,-542.32 328.16,-535.95 343,-529.5 351.2,-525.94 352.53,-523.37 361,-520.5 412.44,-503.08 443.13,-536.42 481,-497.5 515.55,-462 468.32,-426.4 499,-387.5 503.84,-381.37 510.15,-376.48 517.03,-372.58"/>
<polygon fill="#9a32cd" stroke="#9a32cd" points="295.19,-544.75 287,-551.47 297.6,-551.32 295.19,-544.75"/>
<text text-anchor="middle" x="421" y="-556.5" font-family="Helvetica,sans-Serif" font-size="10.00"> cappingLib</text>
<text text-anchor="middle" x="421" y="-545.5" font-family="Helvetica,sans-Serif" font-size="10.00">fragmentLib</text>
<text text-anchor="middle" x="421" y="-534.5" font-family="Helvetica,sans-Serif" font-size="10.00">rcvs</text>
<text text-anchor="middle" x="421" y="-523.5" font-family="Helvetica,sans-Serif" font-size="10.00">scaffoldLib</text>
</g>
<!-- Node4 -->
<g id="node4" class="node">
<title>Node4</title>
<g id="a_node4"><a xlink:title=" ">
<polygon fill="white" stroke="black" points="520.5,-523 520.5,-542 622.5,-542 622.5,-523 520.5,-523"/>
<text text-anchor="middle" x="571.5" y="-530" font-family="Helvetica,sans-Serif" font-size="10.00">ArrayList&lt; Double &gt;</text>
</a>
</g>
</g>
<!-- Node4&#45;&gt;Node1 -->
<g id="edge3" class="edge">
<title>Node4&#45;&gt;Node1</title>
<path fill="none" stroke="#9a32cd" stroke-dasharray="5,2" d="M633.08,-525.41C668.87,-521.1 715.06,-515.31 756,-509.5 761.84,-508.67 767.88,-507.78 773.94,-506.87"/>
<polygon fill="#9a32cd" stroke="#9a32cd" points="632.31,-521.98 622.79,-526.65 633.14,-528.93 632.31,-521.98"/>
<text text-anchor="middle" x="709" y="-523.5" font-family="Helvetica,sans-Serif" font-size="10.00"> weigths</text>
</g>
<!-- Node5 -->
<g id="node5" class="node">
<title>Node5</title>
<g id="a_node5"><a xlink:title=" ">
<polygon fill="white" stroke="black" points="518,-485 518,-504 625,-504 625,-485 518,-485"/>
<text text-anchor="middle" x="571.5" y="-492" font-family="Helvetica,sans-Serif" font-size="10.00">ArrayList&lt; Boolean &gt;</text>
</a>
</g>
</g>
<!-- Node5&#45;&gt;Node1 -->
<g id="edge4" class="edge">
<title>Node5&#45;&gt;Node1</title>
<path fill="none" stroke="#9a32cd" stroke-dasharray="5,2" d="M635.27,-494.5C676.37,-494.5 730.33,-494.5 773.94,-494.5"/>
<polygon fill="#9a32cd" stroke="#9a32cd" points="635.12,-491 625.12,-494.5 635.12,-498 635.12,-491"/>
<text text-anchor="middle" x="709" y="-497.5" font-family="Helvetica,sans-Serif" font-size="10.00"> done</text>
</g>
<!-- Node6 -->
<g id="node6" class="node">
<title>Node6</title>
<g id="a_node6"><a xlink:title=" ">
<polygon fill="white" stroke="black" points="500,-435.5 500,-465.5 643,-465.5 643,-435.5 500,-435.5"/>
<text text-anchor="start" x="508" y="-453.5" font-family="Helvetica,sans-Serif" font-size="10.00">Map&lt; denoptim.graph.Vertex,</text>
<text text-anchor="middle" x="571.5" y="-442.5" font-family="Helvetica,sans-Serif" font-size="10.00"> ArrayList&lt; Integer &gt; &gt;</text>
</a>
</g>
</g>
<!-- Node6&#45;&gt;Node1 -->
<g id="edge5" class="edge">
<title>Node6&#45;&gt;Node1</title>
<path fill="none" stroke="#9a32cd" stroke-dasharray="5,2" d="M653.28,-463.25C685.27,-468.31 722.37,-474.17 756,-479.5 761.82,-480.42 767.85,-481.38 773.91,-482.34"/>
<polygon fill="#9a32cd" stroke="#9a32cd" points="653.51,-459.75 643.08,-461.64 652.41,-466.66 653.51,-459.75"/>
<text text-anchor="middle" x="709" y="-482.5" font-family="Helvetica,sans-Serif" font-size="10.00"> vIdToAtmId</text>
</g>
<!-- Node7 -->
<g id="node7" class="node">
<title>Node7</title>
<g id="a_node7"><a xlink:title=" ">
<polygon fill="white" stroke="black" points="520.5,-397 520.5,-416 622.5,-416 622.5,-397 520.5,-397"/>
<text text-anchor="middle" x="571.5" y="-404" font-family="Helvetica,sans-Serif" font-size="10.00">ArrayList&lt; Integer &gt;</text>
</a>
</g>
</g>
<!-- Node7&#45;&gt;Node1 -->
<g id="edge6" class="edge">
<title>Node7&#45;&gt;Node1</title>
<path fill="none" stroke="#9a32cd" stroke-dasharray="5,2" d="M632.72,-417.22C668.99,-424.51 715.78,-435.4 756,-449.5 779.32,-457.68 804.53,-469.87 823.05,-479.5"/>
<polygon fill="#9a32cd" stroke="#9a32cd" points="633.27,-413.76 622.78,-415.26 631.91,-420.63 633.27,-413.76"/>
<text text-anchor="middle" x="709" y="-452.5" font-family="Helvetica,sans-Serif" font-size="10.00"> ringSizeBias</text>
</g>
<!-- Node8&#45;&gt;Node1 -->
<g id="edge7" class="edge">
<title>Node8&#45;&gt;Node1</title>
<path fill="none" stroke="#9a32cd" stroke-dasharray="5,2" d="M654.43,-371.04C687.37,-378.68 724.84,-390.27 756,-407.5 789.96,-426.27 821.41,-459.72 838.08,-479.22"/>
<polygon fill="#9a32cd" stroke="#9a32cd" points="654.89,-367.56 644.37,-368.8 653.36,-374.39 654.89,-367.56"/>
<text text-anchor="middle" x="709" y="-410.5" font-family="Helvetica,sans-Serif" font-size="10.00"> fragSpace</text>
</g>
<!-- Node16 -->
<g id="node16" class="node">
<title>Node16</title>
<g id="a_node16"><a xlink:href="classdenoptim_1_1fragspace_1_1_fragment_space_parameters.html" target="_top" xlink:title="Parameters defining the fragment space.">
<polygon fill="white" stroke="black" points="779,-198.5 779,-228.5 924,-228.5 924,-198.5 779,-198.5"/>
<text text-anchor="start" x="787" y="-216.5" font-family="Helvetica,sans-Serif" font-size="10.00">denoptim.fragspace.Fragment</text>
<text text-anchor="middle" x="851.5" y="-205.5" font-family="Helvetica,sans-Serif" font-size="10.00">SpaceParameters</text>
</a>
</g>
</g>
<!-- Node8&#45;&gt;Node16 -->
<g id="edge24" class="edge">
<title>Node8&#45;&gt;Node16</title>
<path fill="none" stroke="#9a32cd" stroke-dasharray="5,2" d="M654.36,-339.77C687.29,-330.6 724.77,-317.47 756,-299.5 789.26,-280.36 820.72,-247.81 837.63,-228.72"/>
<polygon fill="#9a32cd" stroke="#9a32cd" points="653.04,-336.5 644.3,-342.49 654.87,-343.25 653.04,-336.5"/>
<text text-anchor="middle" x="709" y="-339.5" font-family="Helvetica,sans-Serif" font-size="10.00"> buildingBlocksSpace</text>
</g>
<!-- Node9 -->
<g id="node9" class="node">
<title>Node9</title>
<g id="a_node9"><a xlink:title=" ">
<polygon fill="white" stroke="black" points="154.5,-479 154.5,-520 330.5,-520 330.5,-479 154.5,-479"/>
<text text-anchor="start" x="162.5" y="-508" font-family="Helvetica,sans-Serif" font-size="10.00">HashMap&lt; denoptim.graph.</text>
<text text-anchor="start" x="162.5" y="-497" font-family="Helvetica,sans-Serif" font-size="10.00">APClass, ArrayList&lt; denoptim.graph.</text>
<text text-anchor="middle" x="242.5" y="-486" font-family="Helvetica,sans-Serif" font-size="10.00">APClass &gt; &gt;</text>
</a>
</g>
</g>
<!-- Node9&#45;&gt;Node8 -->
<g id="edge9" class="edge">
<title>Node9&#45;&gt;Node8</title>
<path fill="none" stroke="#9a32cd" stroke-dasharray="5,2" d="M340.74,-479.58C406.19,-466.15 480.65,-450.82 481,-450.5 502.35,-430.69 479.67,-409.28 499,-387.5 504.45,-381.36 511.36,-376.44 518.73,-372.51"/>
<polygon fill="#9a32cd" stroke="#9a32cd" points="339.83,-476.2 330.74,-481.63 341.24,-483.05 339.83,-476.2"/>
<text text-anchor="middle" x="421" y="-488.5" font-family="Helvetica,sans-Serif" font-size="10.00"> apClassCompatibilityMatrix</text>
<text text-anchor="middle" x="421" y="-477.5" font-family="Helvetica,sans-Serif" font-size="10.00">rcCompatMap</text>
</g>
<!-- Node10 -->
<g id="node10" class="node">
<title>Node10</title>
<g id="a_node10"><a xlink:title=" ">
<polygon fill="white" stroke="black" points="155,-430.5 155,-460.5 330,-460.5 330,-430.5 155,-430.5"/>
<text text-anchor="start" x="163" y="-448.5" font-family="Helvetica,sans-Serif" font-size="10.00">HashMap&lt; denoptim.graph.</text>
<text text-anchor="middle" x="242.5" y="-437.5" font-family="Helvetica,sans-Serif" font-size="10.00">APClass, denoptim.graph.APClass &gt;</text>
</a>
</g>
</g>
<!-- Node10&#45;&gt;Node8 -->
<g id="edge10" class="edge">
<title>Node10&#45;&gt;Node8</title>
<path fill="none" stroke="#9a32cd" stroke-dasharray="5,2" d="M340.22,-439.33C384.72,-433.69 437.23,-422.94 481,-402.5 490.44,-398.09 490.1,-392.91 499,-387.5 508.2,-381.91 518.64,-376.88 528.63,-372.61"/>
<polygon fill="#9a32cd" stroke="#9a32cd" points="339.78,-435.86 330.26,-440.53 340.61,-442.81 339.78,-435.86"/>
<text text-anchor="middle" x="421" y="-438.5" font-family="Helvetica,sans-Serif" font-size="10.00"> cappingMap</text>
</g>
<!-- Node11 -->
<g id="node11" class="node">
<title>Node11</title>
<g id="a_node11"><a xlink:title=" ">
<polygon fill="white" stroke="black" points="165,-392 165,-411 320,-411 320,-392 165,-392"/>
<text text-anchor="middle" x="242.5" y="-399" font-family="Helvetica,sans-Serif" font-size="10.00">Set&lt; denoptim.graph.APClass &gt;</text>
</a>
</g>
</g>
<!-- Node11&#45;&gt;Node8 -->
<g id="edge11" class="edge">
<title>Node11&#45;&gt;Node8</title>
<path fill="none" stroke="#9a32cd" stroke-dasharray="5,2" d="M330.12,-391.86C375.18,-386.61 431.12,-379.72 481,-372.5 486.77,-371.66 492.74,-370.76 498.73,-369.82"/>
<polygon fill="#9a32cd" stroke="#9a32cd" points="329.62,-388.4 320.09,-393.02 330.43,-395.35 329.62,-388.4"/>
<text text-anchor="middle" x="421" y="-390.5" font-family="Helvetica,sans-Serif" font-size="10.00"> forbiddenEndList</text>
</g>
<!-- Node12 -->
<g id="node12" class="node">
<title>Node12</title>
<g id="a_node12"><a xlink:title=" ">
<polygon fill="white" stroke="black" points="172,-342.5 172,-372.5 313,-372.5 313,-342.5 172,-342.5"/>
<text text-anchor="start" x="180" y="-360.5" font-family="Helvetica,sans-Serif" font-size="10.00">HashMap&lt; Integer, ArrayList</text>
<text text-anchor="middle" x="242.5" y="-349.5" font-family="Helvetica,sans-Serif" font-size="10.00">&lt; Integer &gt; &gt;</text>
</a>
</g>
</g>
<!-- Node12&#45;&gt;Node8 -->
<g id="edge12" class="edge">
<title>Node12&#45;&gt;Node8</title>
<path fill="none" stroke="#9a32cd" stroke-dasharray="5,2" d="M323.4,-357.5C377.03,-357.5 447.07,-357.5 498.88,-357.5"/>
<polygon fill="#9a32cd" stroke="#9a32cd" points="323.25,-354 313.25,-357.5 323.25,-361 323.25,-354"/>
<text text-anchor="middle" x="421" y="-360.5" font-family="Helvetica,sans-Serif" font-size="10.00"> fragPoolPerNumAP</text>
</g>
<!-- Node13 -->
<g id="node13" class="node">
<title>Node13</title>
<g id="a_node13"><a xlink:title=" ">
<polygon fill="white" stroke="black" points="168.5,-293.5 168.5,-323.5 316.5,-323.5 316.5,-293.5 168.5,-293.5"/>
<text text-anchor="start" x="176.5" y="-311.5" font-family="Helvetica,sans-Serif" font-size="10.00">HashMap&lt; Integer, ArrayList</text>
<text text-anchor="middle" x="242.5" y="-300.5" font-family="Helvetica,sans-Serif" font-size="10.00">&lt; denoptim.graph.APClass &gt; &gt;</text>
</a>
</g>
</g>
<!-- Node13&#45;&gt;Node8 -->
<g id="edge13" class="edge">
<title>Node13&#45;&gt;Node8</title>
<path fill="none" stroke="#9a32cd" stroke-dasharray="5,2" d="M326.73,-319.92C372.33,-326.3 429.82,-334.55 481,-342.5 486.76,-343.39 492.72,-344.34 498.71,-345.31"/>
<polygon fill="#9a32cd" stroke="#9a32cd" points="326.98,-316.42 316.59,-318.5 326.01,-323.35 326.98,-316.42"/>
<text text-anchor="middle" x="421" y="-345.5" font-family="Helvetica,sans-Serif" font-size="10.00"> apClassesPerFrag</text>
</g>
<!-- Node14 -->
<g id="node14" class="node">
<title>Node14</title>
<g id="a_node14"><a xlink:title=" ">
<polygon fill="white" stroke="black" points="169.5,-234 169.5,-275 315.5,-275 315.5,-234 169.5,-234"/>
<text text-anchor="start" x="177.5" y="-263" font-family="Helvetica,sans-Serif" font-size="10.00">HashMap&lt; denoptim.graph.</text>
<text text-anchor="start" x="177.5" y="-252" font-family="Helvetica,sans-Serif" font-size="10.00">APClass, ArrayList&lt; ArrayList</text>
<text text-anchor="middle" x="242.5" y="-241" font-family="Helvetica,sans-Serif" font-size="10.00">&lt; Integer &gt; &gt; &gt;</text>
</a>
</g>
</g>
<!-- Node14&#45;&gt;Node8 -->
<g id="edge14" class="edge">
<title>Node14&#45;&gt;Node8</title>
<path fill="none" stroke="#9a32cd" stroke-dasharray="5,2" d="M325.65,-267.96C372.12,-276.95 430.81,-290.61 481,-309.5 504.27,-318.26 529.06,-331.93 546.63,-342.44"/>
<polygon fill="#9a32cd" stroke="#9a32cd" points="326.1,-264.49 315.62,-266.06 324.79,-271.36 326.1,-264.49"/>
<text text-anchor="middle" x="421" y="-312.5" font-family="Helvetica,sans-Serif" font-size="10.00"> fragsApsPerApClass</text>
</g>
<!-- Node15 -->
<g id="node15" class="node">
<title>Node15</title>
<g id="a_node15"><a xlink:title=" ">
<polygon fill="white" stroke="black" points="175,-185.5 175,-215.5 310,-215.5 310,-185.5 175,-185.5"/>
<text text-anchor="start" x="183" y="-203.5" font-family="Helvetica,sans-Serif" font-size="10.00">HashMap&lt; denoptim.graph.</text>
<text text-anchor="middle" x="242.5" y="-192.5" font-family="Helvetica,sans-Serif" font-size="10.00">APClass, Double &gt;</text>
</a>
</g>
</g>
<!-- Node15&#45;&gt;Node8 -->
<g id="edge15" class="edge">
<title>Node15&#45;&gt;Node8</title>
<path fill="none" stroke="#9a32cd" stroke-dasharray="5,2" d="M320.37,-208.8C369.14,-216.73 432.03,-232.07 481,-261.5 515.96,-282.51 545.79,-321.08 560.57,-342.37"/>
<polygon fill="#9a32cd" stroke="#9a32cd" points="320.61,-205.29 310.19,-207.22 319.53,-212.21 320.61,-205.29"/>
<text text-anchor="middle" x="421" y="-264.5" font-family="Helvetica,sans-Serif" font-size="10.00"> symmConstraints</text>
</g>
<!-- Node15&#45;&gt;Node16 -->
<g id="edge23" class="edge">
<title>Node15&#45;&gt;Node16</title>
<path fill="none" stroke="#9a32cd" stroke-dasharray="5,2" d="M320.25,-202.14C438.43,-204.67 663.31,-209.49 778.53,-211.96"/>
<polygon fill="#9a32cd" stroke="#9a32cd" points="320.27,-198.64 310.2,-201.93 320.12,-205.64 320.27,-198.64"/>
<text text-anchor="middle" x="571.5" y="-212.5" font-family="Helvetica,sans-Serif" font-size="10.00"> symmConstraintsMap</text>
</g>
<!-- Node16&#45;&gt;Node8 -->
<g id="edge16" class="edge">
<title>Node16&#45;&gt;Node8</title>
<path fill="none" stroke="#9a32cd" stroke-dasharray="5,2" d="M792.39,-231.9C754.12,-245.15 703.58,-264.82 662,-288.5 634.72,-304.04 606.58,-327.11 589.31,-342.22"/>
<polygon fill="#9a32cd" stroke="#9a32cd" points="794.01,-235.05 802.34,-228.51 791.75,-228.42 794.01,-235.05"/>
<text text-anchor="middle" x="709" y="-291.5" font-family="Helvetica,sans-Serif" font-size="10.00"> settings</text>
</g>
<!-- Node17 -->
<g id="node17" class="node">
<title>Node17</title>
<g id="a_node17"><a xlink:href="classdenoptim_1_1programs_1_1_run_time_parameters.html" target="_top" xlink:title="Collection of parameters controlling the behavior of the software.">
<polygon fill="white" stroke="black" points="501.5,-103.5 501.5,-133.5 641.5,-133.5 641.5,-103.5 501.5,-103.5"/>
<text text-anchor="start" x="509.5" y="-121.5" font-family="Helvetica,sans-Serif" font-size="10.00">denoptim.programs.RunTime</text>
<text text-anchor="middle" x="571.5" y="-110.5" font-family="Helvetica,sans-Serif" font-size="10.00">Parameters</text>
</a>
</g>
</g>
<!-- Node17&#45;&gt;Node16 -->
<g id="edge17" class="edge">
<title>Node17&#45;&gt;Node16</title>
<path fill="none" stroke="midnightblue" d="M626.33,-136.9C678.71,-154.79 757.33,-181.66 806.2,-198.36"/>
<polygon fill="midnightblue" stroke="midnightblue" points="627.14,-133.47 616.55,-133.55 624.88,-140.1 627.14,-133.47"/>
</g>
<!-- Node18 -->
<g id="node18" class="node">
<title>Node18</title>
<g id="a_node18"><a xlink:title=" ">
<polygon fill="white" stroke="black" points="219,-147 219,-166 266,-166 266,-147 219,-147"/>
<text text-anchor="middle" x="242.5" y="-154" font-family="Helvetica,sans-Serif" font-size="10.00">Logger</text>
</a>
</g>
</g>
<!-- Node18&#45;&gt;Node17 -->
<g id="edge18" class="edge">
<title>Node18&#45;&gt;Node17</title>
<path fill="none" stroke="#9a32cd" stroke-dasharray="5,2" d="M276.4,-154.04C322.32,-150.44 408.19,-143.12 481,-133.5 487.56,-132.63 494.38,-131.65 501.19,-130.61"/>
<polygon fill="#9a32cd" stroke="#9a32cd" points="275.86,-150.57 266.15,-154.83 276.4,-157.55 275.86,-150.57"/>
<text text-anchor="middle" x="421" y="-149.5" font-family="Helvetica,sans-Serif" font-size="10.00"> logger</text>
</g>
<!-- Node19 -->
<g id="node19" class="node">
<title>Node19</title>
<g id="a_node19"><a xlink:href="classdenoptim_1_1utils_1_1_randomizer.html" target="_top" xlink:title="Tool to generate random numbers and random decisions.">
<polygon fill="white" stroke="black" points="177.5,-109 177.5,-128 307.5,-128 307.5,-109 177.5,-109"/>
<text text-anchor="middle" x="242.5" y="-116" font-family="Helvetica,sans-Serif" font-size="10.00">denoptim.utils.Randomizer</text>
</a>
</g>
</g>
<!-- Node19&#45;&gt;Node17 -->
<g id="edge19" class="edge">
<title>Node19&#45;&gt;Node17</title>
<path fill="none" stroke="#9a32cd" stroke-dasharray="5,2" d="M317.77,-118.5C372.88,-118.5 447.5,-118.5 501.35,-118.5"/>
<polygon fill="#9a32cd" stroke="#9a32cd" points="317.71,-115 307.71,-118.5 317.71,-122 317.71,-115"/>
<text text-anchor="middle" x="421" y="-121.5" font-family="Helvetica,sans-Serif" font-size="10.00"> rng</text>
</g>
<!-- Node20 -->
<g id="node20" class="node">
<title>Node20</title>
<g id="a_node20"><a xlink:title=" ">
<polygon fill="white" stroke="black" points="0,-109 0,-128 92,-128 92,-109 0,-109"/>
<text text-anchor="middle" x="46" y="-116" font-family="Helvetica,sans-Serif" font-size="10.00">MersenneTwister</text>
</a>
</g>
</g>
<!-- Node20&#45;&gt;Node19 -->
<g id="edge20" class="edge">
<title>Node20&#45;&gt;Node19</title>
<path fill="none" stroke="#9a32cd" stroke-dasharray="5,2" d="M102.23,-118.5C125.67,-118.5 153.15,-118.5 177.48,-118.5"/>
<polygon fill="#9a32cd" stroke="#9a32cd" points="102.11,-115 92.11,-118.5 102.11,-122 102.11,-115"/>
<text text-anchor="middle" x="117" y="-121.5" font-family="Helvetica,sans-Serif" font-size="10.00"> mt</text>
</g>
<!-- Node21 -->
<g id="node21" class="node">
<title>Node21</title>
<g id="a_node21"><a xlink:title=" ">
<polygon fill="white" stroke="black" points="142,-49 142,-90 343,-90 343,-49 142,-49"/>
<text text-anchor="start" x="150" y="-78" font-family="Helvetica,sans-Serif" font-size="10.00">Map&lt; denoptim.programs.Run</text>
<text text-anchor="start" x="150" y="-67" font-family="Helvetica,sans-Serif" font-size="10.00">TimeParameters.ParametersType,</text>
<text text-anchor="middle" x="242.5" y="-56" font-family="Helvetica,sans-Serif" font-size="10.00"> denoptim.programs.RunTimeParameters &gt;</text>
</a>
</g>
</g>
<!-- Node21&#45;&gt;Node17 -->
<g id="edge21" class="edge">
<title>Node21&#45;&gt;Node17</title>
<path fill="none" stroke="#9a32cd" stroke-dasharray="5,2" d="M353.34,-84.67C393.53,-90.36 439.36,-97.03 481,-103.5 487.54,-104.52 494.34,-105.6 501.14,-106.71"/>
<polygon fill="#9a32cd" stroke="#9a32cd" points="353.64,-81.17 343.25,-83.24 352.66,-88.11 353.64,-81.17"/>
<text text-anchor="middle" x="421" y="-106.5" font-family="Helvetica,sans-Serif" font-size="10.00"> otherParameters</text>
</g>
<!-- Node22 -->
<g id="node22" class="node">
<title>Node22</title>
<g id="a_node22"><a xlink:href="enumdenoptim_1_1programs_1_1_run_time_parameters_1_1_parameters_type.html" target="_top" xlink:title="Identifier of the type of parameters.">
<polygon fill="white" stroke="black" points="172.5,-0.5 172.5,-30.5 312.5,-30.5 312.5,-0.5 172.5,-0.5"/>
<text text-anchor="start" x="180.5" y="-18.5" font-family="Helvetica,sans-Serif" font-size="10.00">denoptim.programs.RunTime</text>
<text text-anchor="middle" x="242.5" y="-7.5" font-family="Helvetica,sans-Serif" font-size="10.00">Parameters.ParametersType</text>
</a>
</g>
</g>
<!-- Node22&#45;&gt;Node17 -->
<g id="edge22" class="edge">
<title>Node22&#45;&gt;Node17</title>
<path fill="none" stroke="#9a32cd" stroke-dasharray="5,2" d="M322.77,-28.99C369.65,-38.25 429.7,-52.33 481,-71.5 503.85,-80.04 528.27,-93.16 545.82,-103.37"/>
<polygon fill="#9a32cd" stroke="#9a32cd" points="323.16,-25.5 312.67,-27.03 321.83,-32.37 323.16,-25.5"/>
<text text-anchor="middle" x="421" y="-74.5" font-family="Helvetica,sans-Serif" font-size="10.00"> paramType</text>
</g>
</g>
</svg>
        <g id="navigator" transform="translate(0 0)" fill="#404254">
                <rect fill="#f2f5e9" fill-opacity="0.5" stroke="#606060" stroke-width=".5" x="0" y="0" width="60" height="60"/>
                <use id="zoomplus" xlink:href="#zoomPlus" x="17" y="9" onmousedown="handleZoom(evt,'in')"/>
                <use id="zoomminus" xlink:href="#zoomMin" x="42" y="9" onmousedown="handleZoom(evt,'out')"/>
                <use id="reset" xlink:href="#resetDef" x="30" y="36" onmousedown="handleReset()"/>
                <g id="arrowUp" xlink:href="#dirArrow" transform="translate(30 24)" onmousedown="handlePan(0,-1)">
                  <use xlink:href="#rim" fill="#404040">
                        <set attributeName="fill" to="#808080" begin="arrowUp.mouseover" end="arrowUp.mouseout"/>
                  </use>
                  <path fill="none" stroke="white" stroke-width="1.5" d="M0,-3.0v7 M-2.5,-0.5L0,-3.0L2.5,-0.5"/>
                </g>
                <g id="arrowRight" xlink:href="#dirArrow" transform="rotate(90) translate(36 -43)" onmousedown="handlePan(1,0)">
                  <use xlink:href="#rim" fill="#404040">
                        <set attributeName="fill" to="#808080" begin="arrowRight.mouseover" end="arrowRight.mouseout"/>
                  </use>
                  <path fill="none" stroke="white" stroke-width="1.5" d="M0,-3.0v7 M-2.5,-0.5L0,-3.0L2.5,-0.5"/>
                </g>
                <g id="arrowDown" xlink:href="#dirArrow" transform="rotate(180) translate(-30 -48)" onmousedown="handlePan(0,1)">
                  <use xlink:href="#rim" fill="#404040">
                        <set attributeName="fill" to="#808080" begin="arrowDown.mouseover" end="arrowDown.mouseout"/>
                  </use>
                  <path fill="none" stroke="white" stroke-width="1.5" d="M0,-3.0v7 M-2.5,-0.5L0,-3.0L2.5,-0.5"/>
                </g>
                <g id="arrowLeft" xlink:href="#dirArrow" transform="rotate(270) translate(-36 17)" onmousedown="handlePan(-1,0)">
                  <use xlink:href="#rim" fill="#404040">
                        <set attributeName="fill" to="#808080" begin="arrowLeft.mouseover" end="arrowLeft.mouseout"/>
                  </use>
                  <path fill="none" stroke="white" stroke-width="1.5" d="M0,-3.0v7 M-2.5,-0.5L0,-3.0L2.5,-0.5"/>
                </g>
        </g>
        <svg viewBox="0 0 15 15" width="100%" height="30px" preserveAspectRatio="xMaxYMin meet">
         <g id="arrow_out" transform="scale(0.3 0.3)">
          <a xlink:href="classdenoptim_1_1graph_1_1rings_1_1_cyclic_graph_handler_1_1_ring_size_manager__coll__graph_org.svg" target="_base">
           <rect id="button" ry="5" rx="5" y="6" x="6" height="38" width="38"
                fill="#f2f5e9" fill-opacity="0.5" stroke="#606060" stroke-width="1.0"/>
           <path id="arrow"
             d="M 11.500037,31.436501 C 11.940474,20.09759 22.043105,11.32322 32.158766,21.979434 L 37.068811,17.246167 C 37.068811,17.246167 37.088388,32 37.088388,32 L 22.160133,31.978069 C 22.160133,31.978069 26.997745,27.140456 26.997745,27.140456 C 18.528582,18.264221 13.291696,25.230495 11.500037,31.436501 z"
             style="fill:#404040;"/>
          </a>
         </g>
        </svg>
</svg>
