<?xml version="1.0" encoding="UTF-8" standalone="no"?>
<!DOCTYPE svg PUBLIC "-//W3C//DTD SVG 1.1//EN"
 "http://www.w3.org/Graphics/SVG/1.1/DTD/svg11.dtd">
<!-- Generated by graphviz version 3.0.0 (20221109.1736)
 -->
<!-- Title: denoptim.programs.RunTimeParameters.setParameters Pages: 1 -->
<!--zoomable 676 -->
<svg id="main" version="1.1" xmlns="http://www.w3.org/2000/svg" xmlns:xlink="http://www.w3.org/1999/xlink" xml:space="preserve" onload="init(evt)">
<style type="text/css"><![CDATA[
.edge:hover path { stroke: red; }
.edge:hover polygon { stroke: red; fill: red; }
]]></style>
<script type="text/javascript"><![CDATA[
var edges = document.getElementsByTagName('g');
if (edges && edges.length) {
  for (var i=0;i<edges.length;i++) {
    if (edges[i].id.substr(0,4)=='edge') {
      edges[i].setAttribute('class','edge');
    }
  }
}
]]></script>
        <defs>
                <circle id="rim" cx="0" cy="0" r="7"/>
                <circle id="rim2" cx="0" cy="0" r="3.5"/>
                <g id="zoomPlus">
                        <use xlink:href="#rim" fill="#404040">
                                <set attributeName="fill" to="#808080" begin="zoomplus.mouseover" end="zoomplus.mouseout"/>
                        </use>
                        <path d="M-4,0h8M0,-4v8" fill="none" stroke="white" stroke-width="1.5" pointer-events="none"/>
                </g>
                <g id="zoomMin">
                        <use xlink:href="#rim" fill="#404040">
                                <set attributeName="fill" to="#808080" begin="zoomminus.mouseover" end="zoomminus.mouseout"/>
                        </use>
                        <path d="M-4,0h8" fill="none" stroke="white" stroke-width="1.5" pointer-events="none"/>
                </g>
                <g id="dirArrow">
                        <path fill="none" stroke="white" stroke-width="1.5" d="M0,-3.0v7 M-2.5,-0.5L0,-3.0L2.5,-0.5"/>
                </g>
               <g id="resetDef">
                       <use xlink:href="#rim2" fill="#404040">
                               <set attributeName="fill" to="#808080" begin="reset.mouseover" end="reset.mouseout"/>
                       </use>
               </g>
        </defs>

<script type="text/javascript">
var viewWidth = 648;
var viewHeight = 676;
var sectionId = 'dynsection-32';
</script>
<script xlink:href="svgpan.js"/>
<svg id="graph" class="graph">
<g id="viewport">
<title>denoptim.programs.RunTimeParameters.setParameters</title>
<polygon fill="white" stroke="transparent" points="-4,4 -4,-672 644,-672 644,4 -4,4"/>
<!-- Node1 -->
<g id="node1" class="node">
<title>Node1</title>
<g id="a_node1"><a xlink:title=" ">
<polygon fill="#bfbfbf" stroke="black" points="500,-122.5 500,-152.5 640,-152.5 640,-122.5 500,-122.5"/>
<text text-anchor="start" x="508" y="-140.5" font-family="Helvetica,sans-Serif" font-size="10.00">denoptim.programs.RunTime</text>
<text text-anchor="middle" x="570" y="-129.5" font-family="Helvetica,sans-Serif" font-size="10.00">Parameters.setParameters</text>
</a>
</g>
</g>
<!-- Node2 -->
<g id="node2" class="node">
<title>Node2</title>
<g id="a_node2"><a xlink:href="classdenoptim_1_1ga_1_1_population_test.html#a2ef43616462d84e8adced384182ca92c" target="_top" xlink:title=" ">
<polygon fill="white" stroke="black" points="265.5,-398 265.5,-417 436.5,-417 436.5,-398 265.5,-398"/>
<text text-anchor="middle" x="351" y="-405" font-family="Helvetica,sans-Serif" font-size="10.00">denoptim.ga.PopulationTest.prepare</text>
</a>
</g>
</g>
<!-- Node1&#45;&gt;Node2 -->
<g id="edge1" class="edge">
<title>Node1&#45;&gt;Node2</title>
<path fill="none" stroke="midnightblue" d="M550.29,-160.78C504.94,-217.2 390.61,-359.46 359.77,-397.84"/>
<polygon fill="midnightblue" stroke="midnightblue" points="553.17,-162.78 556.71,-152.79 547.72,-158.39 553.17,-162.78"/>
</g>
<!-- Node13 -->
<g id="node13" class="node">
<title>Node13</title>
<g id="a_node13"><a xlink:href="classdenoptim_1_1programs_1_1genetweeker_1_1_gene_ops_runner_parameters.html#a98b6c6b389e456945a968edc31086451" target="_top" xlink:title="Processes all parameters and initialize related objects.">
<polygon fill="white" stroke="black" points="238,-196.5 238,-226.5 464,-226.5 464,-196.5 238,-196.5"/>
<text text-anchor="start" x="246" y="-214.5" font-family="Helvetica,sans-Serif" font-size="10.00">denoptim.programs.genetweeker.</text>
<text text-anchor="middle" x="351" y="-203.5" font-family="Helvetica,sans-Serif" font-size="10.00">GeneOpsRunnerParameters.processParameters</text>
</a>
</g>
</g>
<!-- Node1&#45;&gt;Node13 -->
<g id="edge12" class="edge">
<title>Node1&#45;&gt;Node13</title>
<path fill="none" stroke="midnightblue" d="M532.19,-157.08C512.41,-166.98 487.34,-178.55 464,-186.5 453.06,-190.22 441.33,-193.54 429.73,-196.45"/>
<polygon fill="midnightblue" stroke="midnightblue" points="533.84,-160.17 541.17,-152.52 530.67,-153.93 533.84,-160.17"/>
</g>
<!-- Node15 -->
<g id="node15" class="node">
<title>Node15</title>
<g id="a_node15"><a xlink:href="classdenoptim_1_1programs_1_1genetweeker_1_1_gene_ops_runner.html#adb60b4cb2cda6a912a831974c5303df4" target="_top" xlink:title=" ">
<polygon fill="white" stroke="black" points="271.5,-147.5 271.5,-177.5 430.5,-177.5 430.5,-147.5 271.5,-147.5"/>
<text text-anchor="start" x="279.5" y="-165.5" font-family="Helvetica,sans-Serif" font-size="10.00">denoptim.programs.genetweeker.</text>
<text text-anchor="middle" x="351" y="-154.5" font-family="Helvetica,sans-Serif" font-size="10.00">GeneOpsRunner.runMutation</text>
</a>
</g>
</g>
<!-- Node1&#45;&gt;Node15 -->
<g id="edge14" class="edge">
<title>Node1&#45;&gt;Node15</title>
<path fill="none" stroke="midnightblue" d="M489.55,-146.65C470.39,-148.86 449.92,-151.22 430.78,-153.42"/>
<polygon fill="midnightblue" stroke="midnightblue" points="490.21,-150.1 499.74,-145.48 489.41,-143.15 490.21,-150.1"/>
</g>
<!-- Node16 -->
<g id="node16" class="node">
<title>Node16</title>
<g id="a_node16"><a xlink:href="classdenoptim_1_1ga_1_1_e_a_utils_test.html#a9aa17c44bb5d48c83e350c36cd68af68" target="_top" xlink:title=" ">
<polygon fill="white" stroke="black" points="279.5,-98.5 279.5,-128.5 422.5,-128.5 422.5,-98.5 279.5,-98.5"/>
<text text-anchor="start" x="287.5" y="-116.5" font-family="Helvetica,sans-Serif" font-size="10.00">denoptim.ga.EAUtilsTest.test</text>
<text text-anchor="middle" x="351" y="-105.5" font-family="Helvetica,sans-Serif" font-size="10.00">AvoidRedundantXOver</text>
</a>
</g>
</g>
<!-- Node1&#45;&gt;Node16 -->
<g id="edge16" class="edge">
<title>Node1&#45;&gt;Node16</title>
<path fill="none" stroke="midnightblue" d="M489.51,-128.71C467.68,-126.29 444.15,-123.69 422.84,-121.33"/>
<polygon fill="midnightblue" stroke="midnightblue" points="489.42,-132.22 499.74,-129.84 490.19,-125.26 489.42,-132.22"/>
</g>
<!-- Node17 -->
<g id="node17" class="node">
<title>Node17</title>
<g id="a_node17"><a xlink:href="classdenoptim_1_1ga_1_1_e_a_utils_test.html#ab7a37d3340d35ab586332ce2122e7bb0" target="_top" xlink:title=" ">
<polygon fill="white" stroke="black" points="269.5,-49.5 269.5,-79.5 432.5,-79.5 432.5,-49.5 269.5,-49.5"/>
<text text-anchor="start" x="277.5" y="-67.5" font-family="Helvetica,sans-Serif" font-size="10.00">denoptim.ga.EAUtilsTest.test</text>
<text text-anchor="middle" x="351" y="-56.5" font-family="Helvetica,sans-Serif" font-size="10.00">BuildGraphFromTemplateScaffold</text>
</a>
</g>
</g>
<!-- Node1&#45;&gt;Node17 -->
<g id="edge17" class="edge">
<title>Node1&#45;&gt;Node17</title>
<path fill="none" stroke="midnightblue" d="M532.22,-117.84C512.44,-107.92 487.38,-96.35 464,-88.5 454.01,-85.15 443.35,-82.15 432.74,-79.51"/>
<polygon fill="midnightblue" stroke="midnightblue" points="530.69,-120.99 541.19,-122.41 533.87,-114.75 530.69,-120.99"/>
</g>
<!-- Node18 -->
<g id="node18" class="node">
<title>Node18</title>
<g id="a_node18"><a xlink:href="classdenoptim_1_1io_1_1_denoptim_i_o_test.html#af5c2f9114881ebde82a83f922c0c23fe" target="_top" xlink:title=" ">
<polygon fill="white" stroke="black" points="272,-0.5 272,-30.5 430,-30.5 430,-0.5 272,-0.5"/>
<text text-anchor="start" x="280" y="-18.5" font-family="Helvetica,sans-Serif" font-size="10.00">denoptim.io.DenoptimIOTest.test</text>
<text text-anchor="middle" x="351" y="-7.5" font-family="Helvetica,sans-Serif" font-size="10.00">ReadGenerationFromSummary</text>
</a>
</g>
</g>
<!-- Node1&#45;&gt;Node18 -->
<g id="edge18" class="edge">
<title>Node1&#45;&gt;Node18</title>
<path fill="none" stroke="midnightblue" d="M550.81,-114.41C531.67,-91.76 499.44,-58 464,-39.5 453.51,-34.03 441.85,-29.8 430.12,-26.54"/>
<polygon fill="midnightblue" stroke="midnightblue" points="548.18,-116.73 557.25,-122.21 553.58,-112.27 548.18,-116.73"/>
</g>
<!-- Node3 -->
<g id="node3" class="node">
<title>Node3</title>
<g id="a_node3"><a xlink:href="classdenoptim_1_1ga_1_1_e_a_utils_test.html#ae0baa3684be9b8a4af611083649a9e6d" target="_top" xlink:title=" ">
<polygon fill="white" stroke="black" points="2.5,-637.5 2.5,-667.5 199.5,-667.5 199.5,-637.5 2.5,-637.5"/>
<text text-anchor="start" x="10.5" y="-655.5" font-family="Helvetica,sans-Serif" font-size="10.00">denoptim.ga.EAUtilsTest.test</text>
<text text-anchor="middle" x="101" y="-644.5" font-family="Helvetica,sans-Serif" font-size="10.00">BuildByXOver_Embedded_FixedStructure</text>
</a>
</g>
</g>
<!-- Node2&#45;&gt;Node3 -->
<g id="edge2" class="edge">
<title>Node2&#45;&gt;Node3</title>
<path fill="none" stroke="midnightblue" d="M342.85,-426.72C325.72,-470.03 277.98,-575.61 202,-628.5 197.02,-631.97 191.6,-634.94 185.94,-637.48"/>
<polygon fill="midnightblue" stroke="midnightblue" points="346.14,-427.93 346.47,-417.34 339.61,-425.41 346.14,-427.93"/>
</g>
<!-- Node4 -->
<g id="node4" class="node">
<title>Node4</title>
<g id="a_node4"><a xlink:href="classdenoptim_1_1ga_1_1_e_a_utils_test.html#ad4662f1a3a989020f953f7034d7c1beb" target="_top" xlink:title="NB: the graphs from methods getPairOfTestGraphsB() and getPairOfTestGraphsBxo() and &#160;&#160;getPairOfTestGr...">
<polygon fill="white" stroke="black" points="24.5,-588.5 24.5,-618.5 177.5,-618.5 177.5,-588.5 24.5,-588.5"/>
<text text-anchor="start" x="32.5" y="-606.5" font-family="Helvetica,sans-Serif" font-size="10.00">denoptim.ga.EAUtilsTest.test</text>
<text text-anchor="middle" x="101" y="-595.5" font-family="Helvetica,sans-Serif" font-size="10.00">BuildByXOver_Embedded_Free</text>
</a>
</g>
</g>
<!-- Node2&#45;&gt;Node4 -->
<g id="edge3" class="edge">
<title>Node2&#45;&gt;Node4</title>
<path fill="none" stroke="midnightblue" d="M339.57,-425.99C318.48,-461.62 267.16,-539.74 202,-579.5 194.46,-584.1 186.09,-587.82 177.5,-590.83"/>
<polygon fill="midnightblue" stroke="midnightblue" points="342.72,-427.55 344.7,-417.14 336.66,-424.04 342.72,-427.55"/>
</g>
<!-- Node5 -->
<g id="node5" class="node">
<title>Node5</title>
<g id="a_node5"><a xlink:href="classdenoptim_1_1ga_1_1_e_a_utils_test.html#af8cfc323dd7d12090ddf4b836a3349cf" target="_top" xlink:title="NB: the graphs from methods getPairOfTestGraphsB() and getPairOfTestGraphsBxo() and &#160;&#160;getPairOfTestGr...">
<polygon fill="white" stroke="black" points="0,-539.5 0,-569.5 202,-569.5 202,-539.5 0,-539.5"/>
<text text-anchor="start" x="8" y="-557.5" font-family="Helvetica,sans-Serif" font-size="10.00">denoptim.ga.EAUtilsTest.test</text>
<text text-anchor="middle" x="101" y="-546.5" font-family="Helvetica,sans-Serif" font-size="10.00">BuildByXOver_Embedded_FreeBackwards</text>
</a>
</g>
</g>
<!-- Node2&#45;&gt;Node5 -->
<g id="edge4" class="edge">
<title>Node2&#45;&gt;Node5</title>
<path fill="none" stroke="midnightblue" d="M334.49,-424.69C309.35,-451.49 256.95,-502.97 202,-530.5 195.14,-533.94 187.76,-536.9 180.23,-539.45"/>
<polygon fill="midnightblue" stroke="midnightblue" points="337.18,-426.95 341.39,-417.23 332.04,-422.2 337.18,-426.95"/>
</g>
<!-- Node6 -->
<g id="node6" class="node">
<title>Node6</title>
<g id="a_node6"><a xlink:href="classdenoptim_1_1ga_1_1_e_a_utils_test.html#a52682a0cc73283eafd36d345b6929ea8" target="_top" xlink:title=" ">
<polygon fill="white" stroke="black" points="29.5,-490.5 29.5,-520.5 172.5,-520.5 172.5,-490.5 29.5,-490.5"/>
<text text-anchor="start" x="37.5" y="-508.5" font-family="Helvetica,sans-Serif" font-size="10.00">denoptim.ga.EAUtilsTest.test</text>
<text text-anchor="middle" x="101" y="-497.5" font-family="Helvetica,sans-Serif" font-size="10.00">BuildByXOver_SubGraph</text>
</a>
</g>
</g>
<!-- Node2&#45;&gt;Node6 -->
<g id="edge5" class="edge">
<title>Node2&#45;&gt;Node6</title>
<path fill="none" stroke="midnightblue" d="M324.71,-422.39C295.86,-438.83 246.86,-465.15 202,-481.5 192.61,-484.92 182.54,-488 172.54,-490.71"/>
<polygon fill="midnightblue" stroke="midnightblue" points="326.77,-425.24 333.68,-417.22 323.27,-419.18 326.77,-425.24"/>
</g>
<!-- Node7 -->
<g id="node7" class="node">
<title>Node7</title>
<g id="a_node7"><a xlink:href="classdenoptim_1_1ga_1_1_population_test.html#a5db0672054a9fc1dbc923310732fdb3a" target="_top" xlink:title=" ">
<polygon fill="white" stroke="black" points="23.5,-441.5 23.5,-471.5 178.5,-471.5 178.5,-441.5 23.5,-441.5"/>
<text text-anchor="start" x="31.5" y="-459.5" font-family="Helvetica,sans-Serif" font-size="10.00">denoptim.ga.PopulationTest.test</text>
<text text-anchor="middle" x="101" y="-448.5" font-family="Helvetica,sans-Serif" font-size="10.00">Clone</text>
</a>
</g>
</g>
<!-- Node2&#45;&gt;Node7 -->
<g id="edge6" class="edge">
<title>Node2&#45;&gt;Node7</title>
<path fill="none" stroke="midnightblue" d="M291.69,-419.02C257.84,-425.71 214.8,-434.21 178.28,-441.43"/>
<polygon fill="midnightblue" stroke="midnightblue" points="292.76,-422.38 301.89,-417.01 291.4,-415.51 292.76,-422.38"/>
</g>
<!-- Node8 -->
<g id="node8" class="node">
<title>Node8</title>
<g id="a_node8"><a xlink:href="classdenoptim_1_1utils_1_1_graph_conversion_tool_test.html#a9cf6fcaba3bac28b528db1eb73c21c62" target="_top" xlink:title=" ">
<polygon fill="white" stroke="black" points="2.5,-392.5 2.5,-422.5 199.5,-422.5 199.5,-392.5 2.5,-392.5"/>
<text text-anchor="start" x="10.5" y="-410.5" font-family="Helvetica,sans-Serif" font-size="10.00">denoptim.utils.GraphConversion</text>
<text text-anchor="middle" x="101" y="-399.5" font-family="Helvetica,sans-Serif" font-size="10.00">ToolTest.testGetJGraphKernelFromGraph</text>
</a>
</g>
</g>
<!-- Node2&#45;&gt;Node8 -->
<g id="edge7" class="edge">
<title>Node2&#45;&gt;Node8</title>
<path fill="none" stroke="midnightblue" d="M255.3,-407.5C237.03,-407.5 217.86,-407.5 199.5,-407.5"/>
<polygon fill="midnightblue" stroke="midnightblue" points="255.35,-411 265.35,-407.5 255.35,-404 255.35,-411"/>
</g>
<!-- Node9 -->
<g id="node9" class="node">
<title>Node9</title>
<g id="a_node9"><a xlink:href="classdenoptim_1_1ga_1_1_population_test.html#aa40d0bedbf2ca22b34267aa8491d7ec3" target="_top" xlink:title=" ">
<polygon fill="white" stroke="black" points="23.5,-343.5 23.5,-373.5 178.5,-373.5 178.5,-343.5 23.5,-343.5"/>
<text text-anchor="start" x="31.5" y="-361.5" font-family="Helvetica,sans-Serif" font-size="10.00">denoptim.ga.PopulationTest.test</text>
<text text-anchor="middle" x="101" y="-350.5" font-family="Helvetica,sans-Serif" font-size="10.00">GetMinMax</text>
</a>
</g>
</g>
<!-- Node2&#45;&gt;Node9 -->
<g id="edge8" class="edge">
<title>Node2&#45;&gt;Node9</title>
<path fill="none" stroke="midnightblue" d="M291.69,-395.98C257.84,-389.29 214.8,-380.79 178.28,-373.57"/>
<polygon fill="midnightblue" stroke="midnightblue" points="291.4,-399.49 301.89,-397.99 292.76,-392.62 291.4,-399.49"/>
</g>
<!-- Node10 -->
<g id="node10" class="node">
<title>Node10</title>
<g id="a_node10"><a xlink:href="classdenoptim_1_1ga_1_1_population_test.html#a6725ae8dc980dd79466800b489fc9620" target="_top" xlink:title=" ">
<polygon fill="white" stroke="black" points="23.5,-294.5 23.5,-324.5 178.5,-324.5 178.5,-294.5 23.5,-294.5"/>
<text text-anchor="start" x="31.5" y="-312.5" font-family="Helvetica,sans-Serif" font-size="10.00">denoptim.ga.PopulationTest.test</text>
<text text-anchor="middle" x="101" y="-301.5" font-family="Helvetica,sans-Serif" font-size="10.00">IsInPercentile</text>
</a>
</g>
</g>
<!-- Node2&#45;&gt;Node10 -->
<g id="edge9" class="edge">
<title>Node2&#45;&gt;Node10</title>
<path fill="none" stroke="midnightblue" d="M324.65,-392.91C295.75,-376.78 246.71,-350.9 202,-334.5 191.92,-330.8 181.07,-327.46 170.37,-324.52"/>
<polygon fill="midnightblue" stroke="midnightblue" points="323.21,-396.12 333.64,-397.98 326.65,-390.02 323.21,-396.12"/>
</g>
<!-- Node11 -->
<g id="node11" class="node">
<title>Node11</title>
<g id="a_node11"><a xlink:href="classdenoptim_1_1ga_1_1_population_test.html#a94541e70343daaeaf733289dab8f2dee" target="_top" xlink:title=" ">
<polygon fill="white" stroke="black" points="23.5,-245.5 23.5,-275.5 178.5,-275.5 178.5,-245.5 23.5,-245.5"/>
<text text-anchor="start" x="31.5" y="-263.5" font-family="Helvetica,sans-Serif" font-size="10.00">denoptim.ga.PopulationTest.test</text>
<text text-anchor="middle" x="101" y="-252.5" font-family="Helvetica,sans-Serif" font-size="10.00">PopulationVersion</text>
</a>
</g>
</g>
<!-- Node2&#45;&gt;Node11 -->
<g id="edge10" class="edge">
<title>Node2&#45;&gt;Node11</title>
<path fill="none" stroke="midnightblue" d="M334.43,-390.51C309.21,-364.03 256.69,-313.09 202,-285.5 194.33,-281.63 186.02,-278.33 177.58,-275.53"/>
<polygon fill="midnightblue" stroke="midnightblue" points="331.96,-392.99 341.36,-397.89 337.07,-388.2 331.96,-392.99"/>
</g>
<!-- Node12 -->
<g id="node12" class="node">
<title>Node12</title>
<g id="a_node12"><a xlink:href="classdenoptim_1_1ga_1_1_population_test.html#a278212ebff2501b7071d342f9a027599" target="_top" xlink:title=" ">
<polygon fill="white" stroke="black" points="23.5,-196.5 23.5,-226.5 178.5,-226.5 178.5,-196.5 23.5,-196.5"/>
<text text-anchor="start" x="31.5" y="-214.5" font-family="Helvetica,sans-Serif" font-size="10.00">denoptim.ga.PopulationTest.test</text>
<text text-anchor="middle" x="101" y="-203.5" font-family="Helvetica,sans-Serif" font-size="10.00">XOverCompatibility</text>
</a>
</g>
</g>
<!-- Node2&#45;&gt;Node12 -->
<g id="edge11" class="edge">
<title>Node2&#45;&gt;Node12</title>
<path fill="none" stroke="midnightblue" d="M339.51,-389.17C318.31,-353.85 266.82,-276.34 202,-236.5 194.76,-232.05 186.76,-228.39 178.54,-225.38"/>
<polygon fill="midnightblue" stroke="midnightblue" points="336.58,-391.1 344.67,-397.95 342.62,-387.55 336.58,-391.1"/>
</g>
<!-- Node14 -->
<g id="node14" class="node">
<title>Node14</title>
<g id="a_node14"><a xlink:href="classdenoptim_1_1programs_1_1genetweeker_1_1_gene_ops_runner.html#a3c2407eb1204a7b25600d3d347d98447" target="_top" xlink:title=" ">
<polygon fill="white" stroke="black" points="21.5,-147.5 21.5,-177.5 180.5,-177.5 180.5,-147.5 21.5,-147.5"/>
<text text-anchor="start" x="29.5" y="-165.5" font-family="Helvetica,sans-Serif" font-size="10.00">denoptim.programs.genetweeker.</text>
<text text-anchor="middle" x="101" y="-154.5" font-family="Helvetica,sans-Serif" font-size="10.00">GeneOpsRunner.runProgram</text>
</a>
</g>
</g>
<!-- Node13&#45;&gt;Node14 -->
<g id="edge13" class="edge">
<title>Node13&#45;&gt;Node14</title>
<path fill="none" stroke="midnightblue" d="M263.76,-194.46C235.83,-188.94 205.07,-182.87 177.95,-177.51"/>
<polygon fill="midnightblue" stroke="midnightblue" points="263.42,-197.96 273.91,-196.47 264.77,-191.09 263.42,-197.96"/>
</g>
<!-- Node15&#45;&gt;Node14 -->
<g id="edge15" class="edge">
<title>Node15&#45;&gt;Node14</title>
<path fill="none" stroke="midnightblue" d="M260.87,-162.5C234.64,-162.5 206.13,-162.5 180.6,-162.5"/>
<polygon fill="midnightblue" stroke="midnightblue" points="261.19,-166 271.19,-162.5 261.19,-159 261.19,-166"/>
</g>
</g>
</svg>
        <g id="navigator" transform="translate(0 0)" fill="#404254">
                <rect fill="#f2f5e9" fill-opacity="0.5" stroke="#606060" stroke-width=".5" x="0" y="0" width="60" height="60"/>
                <use id="zoomplus" xlink:href="#zoomPlus" x="17" y="9" onmousedown="handleZoom(evt,'in')"/>
                <use id="zoomminus" xlink:href="#zoomMin" x="42" y="9" onmousedown="handleZoom(evt,'out')"/>
                <use id="reset" xlink:href="#resetDef" x="30" y="36" onmousedown="handleReset()"/>
                <g id="arrowUp" xlink:href="#dirArrow" transform="translate(30 24)" onmousedown="handlePan(0,-1)">
                  <use xlink:href="#rim" fill="#404040">
                        <set attributeName="fill" to="#808080" begin="arrowUp.mouseover" end="arrowUp.mouseout"/>
                  </use>
                  <path fill="none" stroke="white" stroke-width="1.5" d="M0,-3.0v7 M-2.5,-0.5L0,-3.0L2.5,-0.5"/>
                </g>
                <g id="arrowRight" xlink:href="#dirArrow" transform="rotate(90) translate(36 -43)" onmousedown="handlePan(1,0)">
                  <use xlink:href="#rim" fill="#404040">
                        <set attributeName="fill" to="#808080" begin="arrowRight.mouseover" end="arrowRight.mouseout"/>
                  </use>
                  <path fill="none" stroke="white" stroke-width="1.5" d="M0,-3.0v7 M-2.5,-0.5L0,-3.0L2.5,-0.5"/>
                </g>
                <g id="arrowDown" xlink:href="#dirArrow" transform="rotate(180) translate(-30 -48)" onmousedown="handlePan(0,1)">
                  <use xlink:href="#rim" fill="#404040">
                        <set attributeName="fill" to="#808080" begin="arrowDown.mouseover" end="arrowDown.mouseout"/>
                  </use>
                  <path fill="none" stroke="white" stroke-width="1.5" d="M0,-3.0v7 M-2.5,-0.5L0,-3.0L2.5,-0.5"/>
                </g>
                <g id="arrowLeft" xlink:href="#dirArrow" transform="rotate(270) translate(-36 17)" onmousedown="handlePan(-1,0)">
                  <use xlink:href="#rim" fill="#404040">
                        <set attributeName="fill" to="#808080" begin="arrowLeft.mouseover" end="arrowLeft.mouseout"/>
                  </use>
                  <path fill="none" stroke="white" stroke-width="1.5" d="M0,-3.0v7 M-2.5,-0.5L0,-3.0L2.5,-0.5"/>
                </g>
        </g>
        <svg viewBox="0 0 15 15" width="100%" height="30px" preserveAspectRatio="xMaxYMin meet">
         <g id="arrow_out" transform="scale(0.3 0.3)">
          <a xlink:href="classdenoptim_1_1programs_1_1_run_time_parameters_a267f19b2ad078af972f18eba0e83556e_icgraph_org.svg" target="_base">
           <rect id="button" ry="5" rx="5" y="6" x="6" height="38" width="38"
                fill="#f2f5e9" fill-opacity="0.5" stroke="#606060" stroke-width="1.0"/>
           <path id="arrow"
             d="M 11.500037,31.436501 C 11.940474,20.09759 22.043105,11.32322 32.158766,21.979434 L 37.068811,17.246167 C 37.068811,17.246167 37.088388,32 37.088388,32 L 22.160133,31.978069 C 22.160133,31.978069 26.997745,27.140456 26.997745,27.140456 C 18.528582,18.264221 13.291696,25.230495 11.500037,31.436501 z"
             style="fill:#404040;"/>
          </a>
         </g>
        </svg>
</svg>
