<?xml version="1.0" encoding="UTF-8" standalone="no"?>
<!DOCTYPE svg PUBLIC "-//W3C//DTD SVG 1.1//EN"
 "http://www.w3.org/Graphics/SVG/1.1/DTD/svg11.dtd">
<!-- Generated by graphviz version 3.0.0 (20221109.1736)
 -->
<!-- Title: denoptim.graph.Vertex.sameVertexFeatures Pages: 1 -->
<svg width="606pt" height="403pt"
 viewBox="0.00 0.00 606.00 403.00" xmlns="http://www.w3.org/2000/svg" xmlns:xlink="http://www.w3.org/1999/xlink">
<g id="graph0" class="graph" transform="scale(1 1) rotate(0) translate(4 399)">
<title>denoptim.graph.Vertex.sameVertexFeatures</title>
<polygon fill="white" stroke="transparent" points="-4,4 -4,-399 602,-399 602,4 -4,4"/>
<!-- Node1 -->
<g id="node1" class="node">
<title>Node1</title>
<g id="a_node1"><a xlink:title="Compares this and another vertex ignoring vertex IDs.">
<polygon fill="#bfbfbf" stroke="black" points="459,-146.5 459,-176.5 598,-176.5 598,-146.5 459,-146.5"/>
<text text-anchor="start" x="467" y="-164.5" font-family="Helvetica,sans-Serif" font-size="10.00">denoptim.graph.Vertex.same</text>
<text text-anchor="middle" x="528.5" y="-153.5" font-family="Helvetica,sans-Serif" font-size="10.00">VertexFeatures</text>
</a>
</g>
</g>
<!-- Node2 -->
<g id="node2" class="node">
<title>Node2</title>
<g id="a_node2"><a xlink:href="classdenoptim_1_1graph_1_1_empty_vertex.html#a49db24fa07ea13a15f3219d233796fb4" target="_top" xlink:title="Compares this and another vertex ignoring vertex IDs.">
<polygon fill="white" stroke="black" points="245,-296 245,-315 423,-315 423,-296 245,-296"/>
<text text-anchor="middle" x="334" y="-303" font-family="Helvetica,sans-Serif" font-size="10.00">denoptim.graph.EmptyVertex.sameAs</text>
</a>
</g>
</g>
<!-- Node1&#45;&gt;Node2 -->
<g id="edge1" class="edge">
<title>Node1&#45;&gt;Node2</title>
<path fill="none" stroke="midnightblue" d="M499.05,-182.78C456.74,-214.43 378.91,-272.66 348.07,-295.72"/>
<polygon fill="midnightblue" stroke="midnightblue" points="501.35,-185.43 507.26,-176.64 497.16,-179.83 501.35,-185.43"/>
</g>
<!-- Node6 -->
<g id="node6" class="node">
<title>Node6</title>
<g id="a_node6"><a xlink:href="classdenoptim_1_1graph_1_1_fragment.html#a1e138d14fa526fe231303f154b936856" target="_top" xlink:title="Compares this and another fragment ignoring vertex IDs.">
<polygon fill="white" stroke="black" points="252,-194 252,-213 416,-213 416,-194 252,-194"/>
<text text-anchor="middle" x="334" y="-201" font-family="Helvetica,sans-Serif" font-size="10.00">denoptim.graph.Fragment.sameAs</text>
</a>
</g>
</g>
<!-- Node1&#45;&gt;Node6 -->
<g id="edge5" class="edge">
<title>Node1&#45;&gt;Node6</title>
<path fill="none" stroke="midnightblue" d="M449.01,-178.63C425.03,-183.86 399.53,-189.42 378.74,-193.96"/>
<polygon fill="midnightblue" stroke="midnightblue" points="449.79,-182.04 458.82,-176.49 448.3,-175.2 449.79,-182.04"/>
</g>
<!-- Node8 -->
<g id="node8" class="node">
<title>Node8</title>
<g id="a_node8"><a xlink:href="classdenoptim_1_1graph_1_1_template.html#a649893e67ee5c2d9fa0c73b264032da3" target="_top" xlink:title="Compares this and another template ignoring vertex IDs.">
<polygon fill="white" stroke="black" points="252,-124 252,-143 416,-143 416,-124 252,-124"/>
<text text-anchor="middle" x="334" y="-131" font-family="Helvetica,sans-Serif" font-size="10.00">denoptim.graph.Template.sameAs</text>
</a>
</g>
</g>
<!-- Node1&#45;&gt;Node8 -->
<g id="edge7" class="edge">
<title>Node1&#45;&gt;Node8</title>
<path fill="none" stroke="midnightblue" d="M448.9,-150.07C432.8,-147.72 416.01,-145.28 400.43,-143.02"/>
<polygon fill="midnightblue" stroke="midnightblue" points="448.42,-153.53 458.82,-151.51 449.43,-146.61 448.42,-153.53"/>
</g>
<!-- Node13 -->
<g id="node13" class="node">
<title>Node13</title>
<g id="a_node13"><a xlink:href="classdenoptim_1_1graph_1_1_vertex.html#a7c03cfb4a9b0602d7de6952b33818188" target="_top" xlink:title="Compares this and another vertex ignoring vertex IDs.">
<polygon fill="white" stroke="black" points="258.5,-86 258.5,-105 409.5,-105 409.5,-86 258.5,-86"/>
<text text-anchor="middle" x="334" y="-93" font-family="Helvetica,sans-Serif" font-size="10.00">denoptim.graph.Vertex.sameAs</text>
</a>
</g>
</g>
<!-- Node1&#45;&gt;Node13 -->
<g id="edge13" class="edge">
<title>Node1&#45;&gt;Node13</title>
<path fill="none" stroke="midnightblue" d="M489.29,-141.98C469.83,-132.65 445.57,-121.92 423,-114.5 411.86,-110.84 399.7,-107.69 388.07,-105.07"/>
<polygon fill="midnightblue" stroke="midnightblue" points="487.91,-145.2 498.43,-146.43 490.97,-138.91 487.91,-145.2"/>
</g>
<!-- Node3 -->
<g id="node3" class="node">
<title>Node3</title>
<g id="a_node3"><a xlink:href="classdenoptim_1_1io_1_1_denoptim_i_o_test.html#ad2d55573cddc254b2b779b6c9c0c1514" target="_top" xlink:title=" ">
<polygon fill="white" stroke="black" points="25.5,-364.5 25.5,-394.5 183.5,-394.5 183.5,-364.5 25.5,-364.5"/>
<text text-anchor="start" x="33.5" y="-382.5" font-family="Helvetica,sans-Serif" font-size="10.00">denoptim.io.DenoptimIOTest.test</text>
<text text-anchor="middle" x="104.5" y="-371.5" font-family="Helvetica,sans-Serif" font-size="10.00">IOEmptyVertex</text>
</a>
</g>
</g>
<!-- Node2&#45;&gt;Node3 -->
<g id="edge2" class="edge">
<title>Node2&#45;&gt;Node3</title>
<path fill="none" stroke="midnightblue" d="M303.06,-319.1C278.24,-330 241.83,-345.14 209,-355.5 198.71,-358.75 187.72,-361.76 176.88,-364.48"/>
<polygon fill="midnightblue" stroke="midnightblue" points="304.58,-322.26 312.3,-315 301.74,-315.86 304.58,-322.26"/>
</g>
<!-- Node4 -->
<g id="node4" class="node">
<title>Node4</title>
<g id="a_node4"><a xlink:href="classdenoptim_1_1graph_1_1_vertex_test.html#a5ee8f2ce0446cacb71cd1cac63c4dae7" target="_top" xlink:title=" ">
<polygon fill="white" stroke="black" points="29,-315.5 29,-345.5 180,-345.5 180,-315.5 29,-315.5"/>
<text text-anchor="start" x="37" y="-333.5" font-family="Helvetica,sans-Serif" font-size="10.00">denoptim.graph.VertexTest.test</text>
<text text-anchor="middle" x="104.5" y="-322.5" font-family="Helvetica,sans-Serif" font-size="10.00">SameAs_DiffAPNum</text>
</a>
</g>
</g>
<!-- Node2&#45;&gt;Node4 -->
<g id="edge3" class="edge">
<title>Node2&#45;&gt;Node4</title>
<path fill="none" stroke="midnightblue" d="M236.27,-316.13C217.45,-318.2 198,-320.34 180.03,-322.31"/>
<polygon fill="midnightblue" stroke="midnightblue" points="236.79,-319.59 246.34,-315.02 236.02,-312.64 236.79,-319.59"/>
</g>
<!-- Node5 -->
<g id="node5" class="node">
<title>Node5</title>
<g id="a_node5"><a xlink:href="classdenoptim_1_1graph_1_1_vertex_test.html#af9b6ae1fc223d53b07bb0856c8c8c6ce" target="_top" xlink:title=" ">
<polygon fill="white" stroke="black" points="29,-266.5 29,-296.5 180,-296.5 180,-266.5 29,-266.5"/>
<text text-anchor="start" x="37" y="-284.5" font-family="Helvetica,sans-Serif" font-size="10.00">denoptim.graph.VertexTest.test</text>
<text text-anchor="middle" x="104.5" y="-273.5" font-family="Helvetica,sans-Serif" font-size="10.00">SameAs_Equal</text>
</a>
</g>
</g>
<!-- Node2&#45;&gt;Node5 -->
<g id="edge4" class="edge">
<title>Node2&#45;&gt;Node5</title>
<path fill="none" stroke="midnightblue" d="M234.63,-295.12C216.34,-293.19 197.51,-291.21 180.08,-289.37"/>
<polygon fill="midnightblue" stroke="midnightblue" points="234.4,-298.62 244.72,-296.19 235.14,-291.66 234.4,-298.62"/>
</g>
<!-- Node7 -->
<g id="node7" class="node">
<title>Node7</title>
<g id="a_node7"><a xlink:href="classdenoptim_1_1io_1_1_denoptim_i_o_test.html#afa1376c9ab452a7e75cdf00489be1e07" target="_top" xlink:title=" ">
<polygon fill="white" stroke="black" points="25.5,-217.5 25.5,-247.5 183.5,-247.5 183.5,-217.5 25.5,-217.5"/>
<text text-anchor="start" x="33.5" y="-235.5" font-family="Helvetica,sans-Serif" font-size="10.00">denoptim.io.DenoptimIOTest.test</text>
<text text-anchor="middle" x="104.5" y="-224.5" font-family="Helvetica,sans-Serif" font-size="10.00">IOMolFragment</text>
</a>
</g>
</g>
<!-- Node6&#45;&gt;Node7 -->
<g id="edge6" class="edge">
<title>Node6&#45;&gt;Node7</title>
<path fill="none" stroke="midnightblue" d="M248,-214.34C226.98,-217.01 204.56,-219.87 183.87,-222.51"/>
<polygon fill="midnightblue" stroke="midnightblue" points="248.72,-217.77 258.19,-213.04 247.83,-210.83 248.72,-217.77"/>
</g>
<!-- Node8&#45;&gt;Node8 -->
<g id="edge8" class="edge">
<title>Node8&#45;&gt;Node8</title>
<path fill="none" stroke="midnightblue" d="M370.37,-151C370.37,-156.84 358.24,-161.5 334,-161.5 299.52,-161.5 289.55,-152.07 304.1,-143.26"/>
<polygon fill="midnightblue" stroke="midnightblue" points="373,-148.69 363.9,-143.26 367.63,-153.17 373,-148.69"/>
</g>
<!-- Node9 -->
<g id="node9" class="node">
<title>Node9</title>
<g id="a_node9"><a xlink:href="classdenoptim_1_1fragspace_1_1_fragment_space_test.html#a6f2ce8f6a8319b39440b0dc43ede061f" target="_top" xlink:title="Check that the following graph&#39;s fused ring gets added to the fragment library.">
<polygon fill="white" stroke="black" points="0,-158 0,-199 209,-199 209,-158 0,-158"/>
<text text-anchor="start" x="8" y="-187" font-family="Helvetica,sans-Serif" font-size="10.00">denoptim.fragspace.Fragment</text>
<text text-anchor="start" x="8" y="-176" font-family="Helvetica,sans-Serif" font-size="10.00">SpaceTest.testFusedRingAddedToFragment</text>
<text text-anchor="middle" x="104.5" y="-165" font-family="Helvetica,sans-Serif" font-size="10.00">Library</text>
</a>
</g>
</g>
<!-- Node8&#45;&gt;Node9 -->
<g id="edge9" class="edge">
<title>Node8&#45;&gt;Node9</title>
<path fill="none" stroke="midnightblue" d="M274.9,-144.99C254.91,-148.95 231.89,-153.5 209.38,-157.95"/>
<polygon fill="midnightblue" stroke="midnightblue" points="275.62,-148.42 284.75,-143.04 274.26,-141.55 275.62,-148.42"/>
</g>
<!-- Node10 -->
<g id="node10" class="node">
<title>Node10</title>
<g id="a_node10"><a xlink:href="classdenoptim_1_1fragspace_1_1_fragment_space_test.html#a56ef448997df677c5ce4a73737f127e2" target="_top" xlink:title="Checks that a graph with a fused ring containing a scaffold vertex is added to the scaffold library.">
<polygon fill="white" stroke="black" points="3,-98 3,-139 206,-139 206,-98 3,-98"/>
<text text-anchor="start" x="11" y="-127" font-family="Helvetica,sans-Serif" font-size="10.00">denoptim.fragspace.Fragment</text>
<text text-anchor="start" x="11" y="-116" font-family="Helvetica,sans-Serif" font-size="10.00">SpaceTest.testFusedRingAddedToScaffold</text>
<text text-anchor="middle" x="104.5" y="-105" font-family="Helvetica,sans-Serif" font-size="10.00">Library</text>
</a>
</g>
</g>
<!-- Node8&#45;&gt;Node10 -->
<g id="edge10" class="edge">
<title>Node8&#45;&gt;Node10</title>
<path fill="none" stroke="midnightblue" d="M241.66,-127.48C229.97,-126.71 217.96,-125.91 206.14,-125.14"/>
<polygon fill="midnightblue" stroke="midnightblue" points="241.62,-130.98 251.83,-128.15 242.08,-124 241.62,-130.98"/>
</g>
<!-- Node11 -->
<g id="node11" class="node">
<title>Node11</title>
<g id="a_node11"><a xlink:href="classdenoptim_1_1io_1_1_denoptim_i_o_test.html#a9ad0d01f5abd9f5c57e64dc7dd92484f" target="_top" xlink:title=" ">
<polygon fill="white" stroke="black" points="25.5,-49.5 25.5,-79.5 183.5,-79.5 183.5,-49.5 25.5,-49.5"/>
<text text-anchor="start" x="33.5" y="-67.5" font-family="Helvetica,sans-Serif" font-size="10.00">denoptim.io.DenoptimIOTest.test</text>
<text text-anchor="middle" x="104.5" y="-56.5" font-family="Helvetica,sans-Serif" font-size="10.00">IOTemplate</text>
</a>
</g>
</g>
<!-- Node8&#45;&gt;Node11 -->
<g id="edge11" class="edge">
<title>Node8&#45;&gt;Node11</title>
<path fill="none" stroke="midnightblue" d="M262.99,-121.18C256.8,-119.26 250.72,-117.05 245,-114.5 226.97,-106.47 226.97,-96.67 209,-88.5 201.02,-84.87 192.44,-81.77 183.76,-79.11"/>
<polygon fill="midnightblue" stroke="midnightblue" points="262.19,-124.6 272.77,-123.98 264.11,-117.87 262.19,-124.6"/>
</g>
<!-- Node12 -->
<g id="node12" class="node">
<title>Node12</title>
<g id="a_node12"><a xlink:href="classdenoptim_1_1graph_1_1_template_test.html#a50688358b5a557ee51683082427bdc14" target="_top" xlink:title=" ">
<polygon fill="white" stroke="black" points="22.5,-0.5 22.5,-30.5 186.5,-30.5 186.5,-0.5 22.5,-0.5"/>
<text text-anchor="start" x="30.5" y="-18.5" font-family="Helvetica,sans-Serif" font-size="10.00">denoptim.graph.TemplateTest.test</text>
<text text-anchor="middle" x="104.5" y="-7.5" font-family="Helvetica,sans-Serif" font-size="10.00">NestedTemplateCloning</text>
</a>
</g>
</g>
<!-- Node8&#45;&gt;Node12 -->
<g id="edge12" class="edge">
<title>Node8&#45;&gt;Node12</title>
<path fill="none" stroke="midnightblue" d="M252.29,-119.45C249.75,-117.96 247.31,-116.31 245,-114.5 216.23,-91.92 237.5,-63.43 209,-40.5 202.3,-35.11 194.62,-30.86 186.54,-27.5"/>
<polygon fill="midnightblue" stroke="midnightblue" points="250.77,-122.61 261.28,-123.99 253.93,-116.36 250.77,-122.61"/>
</g>
</g>
</svg>
