<?xml version="1.0" encoding="UTF-8" standalone="no"?>
<!DOCTYPE svg PUBLIC "-//W3C//DTD SVG 1.1//EN"
 "http://www.w3.org/Graphics/SVG/1.1/DTD/svg11.dtd">
<!-- Generated by graphviz version 3.0.0 (20221109.1736)
 -->
<!-- Title: denoptim.graph.rings.CyclicGraphHandler.RingSizeManager.initialize Pages: 1 -->
<svg width="1187pt" height="340pt"
 viewBox="0.00 0.00 1187.00 340.00" xmlns="http://www.w3.org/2000/svg" xmlns:xlink="http://www.w3.org/1999/xlink">
<g id="graph0" class="graph" transform="scale(1 1) rotate(0) translate(4 336)">
<title>denoptim.graph.rings.CyclicGraphHandler.RingSizeManager.initialize</title>
<polygon fill="white" stroke="transparent" points="-4,4 -4,-336 1183,-336 1183,4 -4,4"/>
<!-- Node1 -->
<g id="node1" class="node">
<title>Node1</title>
<g id="a_node1"><a xlink:title=" ">
<polygon fill="#bfbfbf" stroke="black" points="0,-57.5 0,-87.5 191,-87.5 191,-57.5 0,-57.5"/>
<text text-anchor="start" x="8" y="-75.5" font-family="Helvetica,sans-Serif" font-size="10.00">denoptim.graph.rings.Cyclic</text>
<text text-anchor="middle" x="95.5" y="-64.5" font-family="Helvetica,sans-Serif" font-size="10.00">GraphHandler.RingSizeManager.initialize</text>
</a>
</g>
</g>
<!-- Node2 -->
<g id="node2" class="node">
<title>Node2</title>
<g id="a_node2"><a xlink:href="classdenoptim_1_1graph_1_1rings_1_1_cyclic_graph_handler_1_1_ring_size_manager.html#a68b1aa5cd1df8bb959064588e994b74e" target="_top" xlink:title=" ">
<polygon fill="white" stroke="black" points="227,-112 227,-153 423,-153 423,-112 227,-112"/>
<text text-anchor="start" x="235" y="-141" font-family="Helvetica,sans-Serif" font-size="10.00">denoptim.graph.rings.Cyclic</text>
<text text-anchor="start" x="235" y="-130" font-family="Helvetica,sans-Serif" font-size="10.00">GraphHandler.RingSizeManager.calculate</text>
<text text-anchor="middle" x="325" y="-119" font-family="Helvetica,sans-Serif" font-size="10.00">CompatibilityOfAllRCAPairs</text>
</a>
</g>
</g>
<!-- Node1&#45;&gt;Node2 -->
<g id="edge1" class="edge">
<title>Node1&#45;&gt;Node2</title>
<path fill="none" stroke="midnightblue" d="M153.61,-87.56C178.69,-94.18 208.7,-102.09 236.5,-109.42"/>
<polygon fill="midnightblue" stroke="midnightblue" points="235.67,-112.82 246.23,-111.99 237.45,-106.05 235.67,-112.82"/>
</g>
<!-- Node18 -->
<g id="node18" class="node">
<title>Node18</title>
<g id="a_node18"><a xlink:href="classdenoptim_1_1graph_1_1rings_1_1_cyclic_graph_handler_1_1_ring_size_manager.html#a5930d214bae6e42b2423e21fcc902fb8" target="_top" xlink:title=" ">
<polygon fill="white" stroke="black" points="242,-52 242,-93 408,-93 408,-52 242,-52"/>
<text text-anchor="start" x="250" y="-81" font-family="Helvetica,sans-Serif" font-size="10.00">denoptim.graph.rings.Cyclic</text>
<text text-anchor="start" x="250" y="-70" font-family="Helvetica,sans-Serif" font-size="10.00">GraphHandler.RingSizeManager.fill</text>
<text text-anchor="middle" x="325" y="-59" font-family="Helvetica,sans-Serif" font-size="10.00">TopologicalMatrix</text>
</a>
</g>
</g>
<!-- Node1&#45;&gt;Node18 -->
<g id="edge20" class="edge">
<title>Node1&#45;&gt;Node18</title>
<path fill="none" stroke="midnightblue" d="M191,-72.5C204.43,-72.5 218.22,-72.5 231.61,-72.5"/>
<polygon fill="midnightblue" stroke="midnightblue" points="231.75,-76 241.75,-72.5 231.75,-69 231.75,-76"/>
</g>
<!-- Node19 -->
<g id="node19" class="node">
<title>Node19</title>
<g id="a_node19"><a xlink:href="classdenoptim_1_1utils_1_1_molecule_utils.html#abf225c363ca09f229c7b0939cba3b1da" target="_top" xlink:title="Method to generate the map making in relation DENOPTIMVertex ID and atom index in the IAtomContainer ...">
<polygon fill="white" stroke="black" points="248,-3.5 248,-33.5 402,-33.5 402,-3.5 248,-3.5"/>
<text text-anchor="start" x="256" y="-21.5" font-family="Helvetica,sans-Serif" font-size="10.00">denoptim.utils.MoleculeUtils.get</text>
<text text-anchor="middle" x="325" y="-10.5" font-family="Helvetica,sans-Serif" font-size="10.00">VertexToAtomIdMap</text>
</a>
</g>
</g>
<!-- Node1&#45;&gt;Node19 -->
<g id="edge21" class="edge">
<title>Node1&#45;&gt;Node19</title>
<path fill="none" stroke="midnightblue" d="M159.87,-57.46C188.1,-50.76 221.52,-42.82 250.81,-35.87"/>
<polygon fill="midnightblue" stroke="midnightblue" points="251.65,-39.27 260.57,-33.55 250.04,-32.46 251.65,-39.27"/>
</g>
<!-- Node3 -->
<g id="node3" class="node">
<title>Node3</title>
<g id="a_node3"><a xlink:href="classdenoptim_1_1graph_1_1rings_1_1_cyclic_graph_handler.html#a8dcec9483dc562e8696ea90a65842327" target="_top" xlink:title="Method to analyze a pair of vertices and evaluate whether they respect the criteria for being the two...">
<polygon fill="white" stroke="black" points="468.5,-191.5 468.5,-221.5 621.5,-221.5 621.5,-191.5 468.5,-191.5"/>
<text text-anchor="start" x="476.5" y="-209.5" font-family="Helvetica,sans-Serif" font-size="10.00">denoptim.graph.rings.Cyclic</text>
<text text-anchor="middle" x="545" y="-198.5" font-family="Helvetica,sans-Serif" font-size="10.00">GraphHandler.evaluateRCVPair</text>
</a>
</g>
</g>
<!-- Node2&#45;&gt;Node3 -->
<g id="edge2" class="edge">
<title>Node2&#45;&gt;Node3</title>
<path fill="none" stroke="midnightblue" d="M377.75,-153.12C402.22,-162.56 431.93,-173.61 459,-182.5 465.26,-184.56 471.82,-186.6 478.4,-188.58"/>
<polygon fill="midnightblue" stroke="midnightblue" points="477.43,-191.94 488.01,-191.42 479.42,-185.23 477.43,-191.94"/>
</g>
<!-- Node15 -->
<g id="node15" class="node">
<title>Node15</title>
<g id="a_node15"><a xlink:href="classdenoptim_1_1graph_1_1rings_1_1_ring_closure_parameters.html#a870b2456fe1fefeae6b8411d2febadf6" target="_top" xlink:title=" ">
<polygon fill="white" stroke="black" points="459,-142.5 459,-172.5 631,-172.5 631,-142.5 459,-142.5"/>
<text text-anchor="start" x="467" y="-160.5" font-family="Helvetica,sans-Serif" font-size="10.00">denoptim.graph.rings.Ring</text>
<text text-anchor="middle" x="545" y="-149.5" font-family="Helvetica,sans-Serif" font-size="10.00">ClosureParameters.getMaxRingSize</text>
</a>
</g>
</g>
<!-- Node2&#45;&gt;Node15 -->
<g id="edge17" class="edge">
<title>Node2&#45;&gt;Node15</title>
<path fill="none" stroke="midnightblue" d="M423.21,-143.65C431.77,-144.63 440.44,-145.62 448.99,-146.6"/>
<polygon fill="midnightblue" stroke="midnightblue" points="448.63,-150.09 458.96,-147.75 449.43,-143.13 448.63,-150.09"/>
</g>
<!-- Node16 -->
<g id="node16" class="node">
<title>Node16</title>
<g id="a_node16"><a xlink:href="classdenoptim_1_1graph_1_1rings_1_1_ring_closing_attractor.html#a1181ea61bfd92dd5bfc3068772cce586" target="_top" xlink:title="Checks whether the constructed RingClosingAttractor does corresponds to a RingClosingAttractor in the...">
<polygon fill="white" stroke="black" points="478,-93.5 478,-123.5 612,-123.5 612,-93.5 478,-93.5"/>
<text text-anchor="start" x="486" y="-111.5" font-family="Helvetica,sans-Serif" font-size="10.00">denoptim.graph.rings.Ring</text>
<text text-anchor="middle" x="545" y="-100.5" font-family="Helvetica,sans-Serif" font-size="10.00">ClosingAttractor.isAttractor</text>
</a>
</g>
</g>
<!-- Node2&#45;&gt;Node16 -->
<g id="edge18" class="edge">
<title>Node2&#45;&gt;Node16</title>
<path fill="none" stroke="midnightblue" d="M423.21,-121.8C438.1,-120.16 453.29,-118.49 467.64,-116.91"/>
<polygon fill="midnightblue" stroke="midnightblue" points="468.38,-120.35 477.94,-115.77 467.61,-113.39 468.38,-120.35"/>
</g>
<!-- Node17 -->
<g id="node17" class="node">
<title>Node17</title>
<g id="a_node17"><a xlink:href="classdenoptim_1_1graph_1_1rings_1_1_ring_closing_attractor.html#a333e897a1d7e04069b2469e453f41920" target="_top" xlink:title="Evaluate compatibility between this RingClosingAttractor and another one.">
<polygon fill="white" stroke="black" points="472.5,-44.5 472.5,-74.5 617.5,-74.5 617.5,-44.5 472.5,-44.5"/>
<text text-anchor="start" x="480.5" y="-62.5" font-family="Helvetica,sans-Serif" font-size="10.00">denoptim.graph.rings.Ring</text>
<text text-anchor="middle" x="545" y="-51.5" font-family="Helvetica,sans-Serif" font-size="10.00">ClosingAttractor.isCompatible</text>
</a>
</g>
</g>
<!-- Node2&#45;&gt;Node17 -->
<g id="edge19" class="edge">
<title>Node2&#45;&gt;Node17</title>
<path fill="none" stroke="midnightblue" d="M397.2,-111.95C405.96,-108.99 414.74,-105.82 423,-102.5 439.6,-95.83 442.35,-91.05 459,-84.5 465.15,-82.08 471.64,-79.76 478.17,-77.59"/>
<polygon fill="midnightblue" stroke="midnightblue" points="479.29,-80.91 487.74,-74.51 477.15,-74.24 479.29,-80.91"/>
</g>
<!-- Node4 -->
<g id="node4" class="node">
<title>Node4</title>
<g id="a_node4"><a xlink:href="classdenoptim_1_1graph_1_1_attachment_point.html#a7e45846280a63bd2bf36b85e502ffa49" target="_top" xlink:title="The index of the source atom in the atom list of the fragment.">
<polygon fill="white" stroke="black" points="673.5,-301.5 673.5,-331.5 821.5,-331.5 821.5,-301.5 673.5,-301.5"/>
<text text-anchor="start" x="681.5" y="-319.5" font-family="Helvetica,sans-Serif" font-size="10.00">denoptim.graph.Attachment</text>
<text text-anchor="middle" x="747.5" y="-308.5" font-family="Helvetica,sans-Serif" font-size="10.00">Point.getAtomPositionNumber</text>
</a>
</g>
</g>
<!-- Node3&#45;&gt;Node4 -->
<g id="edge3" class="edge">
<title>Node3&#45;&gt;Node4</title>
<path fill="none" stroke="midnightblue" d="M565.71,-221.53C588.99,-238.81 629.33,-267.24 667,-286.5 674.83,-290.5 683.32,-294.26 691.74,-297.68"/>
<polygon fill="midnightblue" stroke="midnightblue" points="690.59,-300.99 701.17,-301.39 693.15,-294.48 690.59,-300.99"/>
</g>
<!-- Node5 -->
<g id="node5" class="node">
<title>Node5</title>
<g id="a_node5"><a xlink:href="classdenoptim_1_1graph_1_1_vertex.html#a85aa901ec3fff8e566c0cc32d9c9f84e" target="_top" xlink:title=" ">
<polygon fill="white" stroke="black" points="1051,-213.5 1051,-243.5 1179,-243.5 1179,-213.5 1051,-213.5"/>
<text text-anchor="start" x="1059" y="-231.5" font-family="Helvetica,sans-Serif" font-size="10.00">denoptim.graph.Vertex.get</text>
<text text-anchor="middle" x="1115" y="-220.5" font-family="Helvetica,sans-Serif" font-size="10.00">AttachmentPoints</text>
</a>
</g>
</g>
<!-- Node3&#45;&gt;Node5 -->
<g id="edge4" class="edge">
<title>Node3&#45;&gt;Node5</title>
<path fill="none" stroke="midnightblue" d="M581.27,-221.55C605.02,-230.91 637.31,-242.14 667,-247.5 819.23,-274.98 861.49,-272.58 1015,-253.5 1028.04,-251.88 1041.82,-249.1 1054.83,-245.97"/>
<polygon fill="midnightblue" stroke="midnightblue" points="1055.75,-249.35 1064.6,-243.53 1054.05,-242.56 1055.75,-249.35"/>
</g>
<!-- Node6 -->
<g id="node6" class="node">
<title>Node6</title>
<g id="a_node6"><a xlink:href="classdenoptim_1_1graph_1_1_vertex.html#a44e705b8949b0fd73763e2e92a118b78" target="_top" xlink:title="Looks into the edges that use any of the APs that belong to this vertex and returns the vertex which ...">
<polygon fill="white" stroke="black" points="683.5,-120.5 683.5,-150.5 811.5,-150.5 811.5,-120.5 683.5,-120.5"/>
<text text-anchor="start" x="691.5" y="-138.5" font-family="Helvetica,sans-Serif" font-size="10.00">denoptim.graph.Vertex.get</text>
<text text-anchor="middle" x="747.5" y="-127.5" font-family="Helvetica,sans-Serif" font-size="10.00">Parent</text>
</a>
</g>
</g>
<!-- Node3&#45;&gt;Node6 -->
<g id="edge5" class="edge">
<title>Node3&#45;&gt;Node6</title>
<path fill="none" stroke="midnightblue" d="M607.08,-191.44C615.24,-188.8 623.41,-185.81 631,-182.5 648.18,-174.99 649.93,-168.26 667,-160.5 672.02,-158.22 677.31,-156.06 682.68,-154.04"/>
<polygon fill="midnightblue" stroke="midnightblue" points="684.15,-157.23 692.38,-150.56 681.78,-150.64 684.15,-157.23"/>
</g>
<!-- Node10 -->
<g id="node10" class="node">
<title>Node10</title>
<g id="a_node10"><a xlink:href="classdenoptim_1_1fragspace_1_1_fragment_space.html#a76a6438c28d260a0f676e22e08cf0dbe" target="_top" xlink:title="Returns the compatibility matrix for ring closing fragment&#45;fragment connections or null if not provid...">
<polygon fill="white" stroke="black" points="670,-169.5 670,-199.5 825,-199.5 825,-169.5 670,-169.5"/>
<text text-anchor="start" x="678" y="-187.5" font-family="Helvetica,sans-Serif" font-size="10.00">denoptim.fragspace.Fragment</text>
<text text-anchor="middle" x="747.5" y="-176.5" font-family="Helvetica,sans-Serif" font-size="10.00">Space.getRCCompatibilityMatrix</text>
</a>
</g>
</g>
<!-- Node3&#45;&gt;Node10 -->
<g id="edge10" class="edge">
<title>Node3&#45;&gt;Node10</title>
<path fill="none" stroke="midnightblue" d="M621.51,-198.21C633.95,-196.85 646.93,-195.43 659.62,-194.03"/>
<polygon fill="midnightblue" stroke="midnightblue" points="660.16,-197.49 669.72,-192.92 659.4,-190.54 660.16,-197.49"/>
</g>
<!-- Node11 -->
<g id="node11" class="node">
<title>Node11</title>
<g id="a_node11"><a xlink:href="classdenoptim_1_1graph_1_1_edge.html#a79f950d1cffe6e323eadc8cd36079841" target="_top" xlink:title=" ">
<polygon fill="white" stroke="black" points="679,-36.5 679,-66.5 816,-66.5 816,-36.5 679,-36.5"/>
<text text-anchor="start" x="687" y="-54.5" font-family="Helvetica,sans-Serif" font-size="10.00">denoptim.graph.Edge.getSrc</text>
<text text-anchor="middle" x="747.5" y="-43.5" font-family="Helvetica,sans-Serif" font-size="10.00">APClass</text>
</a>
</g>
</g>
<!-- Node3&#45;&gt;Node11 -->
<g id="edge11" class="edge">
<title>Node3&#45;&gt;Node11</title>
<path fill="none" stroke="midnightblue" d="M617.4,-191.35C622.25,-188.84 626.86,-185.91 631,-182.5 658.32,-160.02 644.29,-138.63 667,-111.5 679.71,-96.31 696.96,-82.71 712.14,-72.31"/>
<polygon fill="midnightblue" stroke="midnightblue" points="714.39,-75.01 720.79,-66.56 710.52,-69.18 714.39,-75.01"/>
</g>
<!-- Node13 -->
<g id="node13" class="node">
<title>Node13</title>
<g id="a_node13"><a xlink:href="classdenoptim_1_1graph_1_1_edge.html#a9696d3ee0d321b73b06d33bcb8fa86fd" target="_top" xlink:title=" ">
<polygon fill="white" stroke="black" points="667,-219 667,-238 828,-238 828,-219 667,-219"/>
<text text-anchor="middle" x="747.5" y="-226" font-family="Helvetica,sans-Serif" font-size="10.00">denoptim.graph.Edge.getSrcAPID</text>
</a>
</g>
</g>
<!-- Node3&#45;&gt;Node13 -->
<g id="edge13" class="edge">
<title>Node3&#45;&gt;Node13</title>
<path fill="none" stroke="midnightblue" d="M621.51,-214.79C632.93,-216.04 644.81,-217.34 656.5,-218.62"/>
<polygon fill="midnightblue" stroke="midnightblue" points="656.38,-222.13 666.7,-219.74 657.15,-215.17 656.38,-222.13"/>
</g>
<!-- Node6&#45;&gt;Node5 -->
<g id="edge6" class="edge">
<title>Node6&#45;&gt;Node5</title>
<path fill="none" stroke="midnightblue" d="M772.1,-120.33C820.5,-91.31 933.34,-34.55 1015,-78.5 1064.51,-105.15 1093.38,-168.61 1106.13,-203.85"/>
<polygon fill="midnightblue" stroke="midnightblue" points="1102.85,-205.1 1109.44,-213.4 1109.47,-202.8 1102.85,-205.1"/>
</g>
<!-- Node7 -->
<g id="node7" class="node">
<title>Node7</title>
<g id="a_node7"><a xlink:href="classdenoptim_1_1graph_1_1_attachment_point.html#ac8551521d38644f5109800b665957ee9" target="_top" xlink:title=" ">
<polygon fill="white" stroke="black" points="872,-164.5 872,-194.5 1007,-194.5 1007,-164.5 872,-164.5"/>
<text text-anchor="start" x="880" y="-182.5" font-family="Helvetica,sans-Serif" font-size="10.00">denoptim.graph.Attachment</text>
<text text-anchor="middle" x="939.5" y="-171.5" font-family="Helvetica,sans-Serif" font-size="10.00">Point.getOwner</text>
</a>
</g>
</g>
<!-- Node6&#45;&gt;Node7 -->
<g id="edge7" class="edge">
<title>Node6&#45;&gt;Node7</title>
<path fill="none" stroke="midnightblue" d="M811.5,-150.09C828.21,-153.96 846.41,-158.17 863.68,-162.17"/>
<polygon fill="midnightblue" stroke="midnightblue" points="863.19,-165.65 873.72,-164.5 864.76,-158.83 863.19,-165.65"/>
</g>
<!-- Node8 -->
<g id="node8" class="node">
<title>Node8</title>
<g id="a_node8"><a xlink:href="classdenoptim_1_1graph_1_1_edge.html#a658e275a18a50f12474777f5f28c35e9" target="_top" xlink:title=" ">
<polygon fill="white" stroke="black" points="864,-88 864,-107 1015,-107 1015,-88 864,-88"/>
<text text-anchor="middle" x="939.5" y="-95" font-family="Helvetica,sans-Serif" font-size="10.00">denoptim.graph.Edge.getSrcAP</text>
</a>
</g>
</g>
<!-- Node6&#45;&gt;Node8 -->
<g id="edge8" class="edge">
<title>Node6&#45;&gt;Node8</title>
<path fill="none" stroke="midnightblue" d="M811.5,-122.9C833.89,-118.42 858.96,-113.41 880.88,-109.02"/>
<polygon fill="midnightblue" stroke="midnightblue" points="881.59,-112.45 890.71,-107.06 880.21,-105.59 881.59,-112.45"/>
</g>
<!-- Node9 -->
<g id="node9" class="node">
<title>Node9</title>
<g id="a_node9"><a xlink:href="classdenoptim_1_1graph_1_1_edge.html#a44521a3ad1a83e5d0a6be227e35ceffa" target="_top" xlink:title=" ">
<polygon fill="white" stroke="black" points="864.5,-126 864.5,-145 1014.5,-145 1014.5,-126 864.5,-126"/>
<text text-anchor="middle" x="939.5" y="-133" font-family="Helvetica,sans-Serif" font-size="10.00">denoptim.graph.Edge.getTrgAP</text>
</a>
</g>
</g>
<!-- Node6&#45;&gt;Node9 -->
<g id="edge9" class="edge">
<title>Node6&#45;&gt;Node9</title>
<path fill="none" stroke="midnightblue" d="M811.5,-135.5C825.15,-135.5 839.79,-135.5 854.11,-135.5"/>
<polygon fill="midnightblue" stroke="midnightblue" points="854.46,-139 864.46,-135.5 854.46,-132 854.46,-139"/>
</g>
<!-- Node12 -->
<g id="node12" class="node">
<title>Node12</title>
<g id="a_node12"><a xlink:href="classdenoptim_1_1graph_1_1_attachment_point.html#a31bed4cb29f6437bf8a888a1dda3fd95" target="_top" xlink:title="Returns the Attachment Point class.">
<polygon fill="white" stroke="black" points="872,-0.5 872,-30.5 1007,-30.5 1007,-0.5 872,-0.5"/>
<text text-anchor="start" x="880" y="-18.5" font-family="Helvetica,sans-Serif" font-size="10.00">denoptim.graph.Attachment</text>
<text text-anchor="middle" x="939.5" y="-7.5" font-family="Helvetica,sans-Serif" font-size="10.00">Point.getAPClass</text>
</a>
</g>
</g>
<!-- Node11&#45;&gt;Node12 -->
<g id="edge12" class="edge">
<title>Node11&#45;&gt;Node12</title>
<path fill="none" stroke="midnightblue" d="M816.02,-38.71C830.9,-35.89 846.75,-32.88 861.96,-30"/>
<polygon fill="midnightblue" stroke="midnightblue" points="862.66,-33.43 871.83,-28.13 861.36,-26.55 862.66,-33.43"/>
</g>
<!-- Node13&#45;&gt;Node7 -->
<g id="edge16" class="edge">
<title>Node13&#45;&gt;Node7</title>
<path fill="none" stroke="midnightblue" d="M789.41,-218.97C801.82,-216.02 815.49,-212.69 828,-209.5 843.09,-205.65 859.29,-201.35 874.51,-197.23"/>
<polygon fill="midnightblue" stroke="midnightblue" points="875.62,-200.55 884.35,-194.56 873.78,-193.8 875.62,-200.55"/>
</g>
<!-- Node14 -->
<g id="node14" class="node">
<title>Node14</title>
<g id="a_node14"><a xlink:href="classdenoptim_1_1graph_1_1_vertex.html#a367c9d31e4bb13c16e865389c154a767" target="_top" xlink:title="Returns the position of the given AP in the list of APs of this vertex.">
<polygon fill="white" stroke="black" points="875.5,-213.5 875.5,-243.5 1003.5,-243.5 1003.5,-213.5 875.5,-213.5"/>
<text text-anchor="start" x="883.5" y="-231.5" font-family="Helvetica,sans-Serif" font-size="10.00">denoptim.graph.Vertex.get</text>
<text text-anchor="middle" x="939.5" y="-220.5" font-family="Helvetica,sans-Serif" font-size="10.00">IndexOfAP</text>
</a>
</g>
</g>
<!-- Node13&#45;&gt;Node14 -->
<g id="edge14" class="edge">
<title>Node13&#45;&gt;Node14</title>
<path fill="none" stroke="midnightblue" d="M828.25,-228.5C840.55,-228.5 853.2,-228.5 865.34,-228.5"/>
<polygon fill="midnightblue" stroke="midnightblue" points="865.4,-232 875.4,-228.5 865.4,-225 865.4,-232"/>
</g>
<!-- Node14&#45;&gt;Node5 -->
<g id="edge15" class="edge">
<title>Node14&#45;&gt;Node5</title>
<path fill="none" stroke="midnightblue" d="M1003.63,-228.5C1015.66,-228.5 1028.36,-228.5 1040.68,-228.5"/>
<polygon fill="midnightblue" stroke="midnightblue" points="1040.92,-232 1050.92,-228.5 1040.92,-225 1040.92,-232"/>
</g>
</g>
</svg>
