<?xml version="1.0" encoding="UTF-8" standalone="no"?>
<!DOCTYPE svg PUBLIC "-//W3C//DTD SVG 1.1//EN"
 "http://www.w3.org/Graphics/SVG/1.1/DTD/svg11.dtd">
<!-- Generated by graphviz version 3.0.0 (20221109.1736)
 -->
<!-- Title: denoptim.graph.Vertex.setMutationTypes Pages: 1 -->
<svg width="1166pt" height="710pt"
 viewBox="0.00 0.00 1166.00 710.00" xmlns="http://www.w3.org/2000/svg" xmlns:xlink="http://www.w3.org/1999/xlink">
<g id="graph0" class="graph" transform="scale(1 1) rotate(0) translate(4 706)">
<title>denoptim.graph.Vertex.setMutationTypes</title>
<polygon fill="white" stroke="transparent" points="-4,4 -4,-706 1162,-706 1162,4 -4,4"/>
<!-- Node1 -->
<g id="node1" class="node">
<title>Node1</title>
<g id="a_node1"><a xlink:title=" ">
<polygon fill="#bfbfbf" stroke="black" points="1030,-98.5 1030,-128.5 1158,-128.5 1158,-98.5 1030,-98.5"/>
<text text-anchor="start" x="1038" y="-116.5" font-family="Helvetica,sans-Serif" font-size="10.00">denoptim.graph.Vertex.set</text>
<text text-anchor="middle" x="1094" y="-105.5" font-family="Helvetica,sans-Serif" font-size="10.00">MutationTypes</text>
</a>
</g>
</g>
<!-- Node2 -->
<g id="node2" class="node">
<title>Node2</title>
<g id="a_node2"><a xlink:href="classdenoptim_1_1graph_1_1_empty_vertex.html#a537720023ac6debd9f4663d61026a423" target="_top" xlink:title="Returns a deep&#45;copy of this vertex.">
<polygon fill="white" stroke="black" points="829,-530 829,-549 994,-549 994,-530 829,-530"/>
<text text-anchor="middle" x="911.5" y="-537" font-family="Helvetica,sans-Serif" font-size="10.00">denoptim.graph.EmptyVertex.clone</text>
</a>
</g>
</g>
<!-- Node1&#45;&gt;Node2 -->
<g id="edge1" class="edge">
<title>Node1&#45;&gt;Node2</title>
<path fill="none" stroke="midnightblue" d="M1082.59,-138.08C1048.21,-219.22 939.23,-476.42 916.63,-529.76"/>
<polygon fill="midnightblue" stroke="midnightblue" points="1085.9,-139.23 1086.58,-128.66 1079.45,-136.5 1085.9,-139.23"/>
</g>
<!-- Node10 -->
<g id="node10" class="node">
<title>Node10</title>
<g id="a_node10"><a xlink:href="classdenoptim_1_1graph_1_1_fragment.html#a3b476687a392e637d2bf2f3b6ccb09a4" target="_top" xlink:title="Returns a deep copy of this fragments.">
<polygon fill="white" stroke="black" points="835.5,-256 835.5,-275 987.5,-275 987.5,-256 835.5,-256"/>
<text text-anchor="middle" x="911.5" y="-263" font-family="Helvetica,sans-Serif" font-size="10.00">denoptim.graph.Fragment.clone</text>
</a>
</g>
</g>
<!-- Node1&#45;&gt;Node10 -->
<g id="edge9" class="edge">
<title>Node1&#45;&gt;Node10</title>
<path fill="none" stroke="midnightblue" d="M1067.34,-135.11C1027.57,-168.6 952.66,-231.68 924.03,-255.79"/>
<polygon fill="midnightblue" stroke="midnightblue" points="1069.64,-137.75 1075.03,-128.63 1065.13,-132.39 1069.64,-137.75"/>
</g>
<!-- Node24 -->
<g id="node24" class="node">
<title>Node24</title>
<g id="a_node24"><a xlink:href="classdenoptim_1_1graph_1_1_template.html#ac7d7400f47d4bad33f3755f1b3d19a3e" target="_top" xlink:title="Returns a deep copy of this template.">
<polygon fill="white" stroke="black" points="836,-104 836,-123 987,-123 987,-104 836,-104"/>
<text text-anchor="middle" x="911.5" y="-111" font-family="Helvetica,sans-Serif" font-size="10.00">denoptim.graph.Template.clone</text>
</a>
</g>
</g>
<!-- Node1&#45;&gt;Node24 -->
<g id="edge26" class="edge">
<title>Node1&#45;&gt;Node24</title>
<path fill="none" stroke="midnightblue" d="M1019.68,-113.5C1008.92,-113.5 997.84,-113.5 987.06,-113.5"/>
<polygon fill="midnightblue" stroke="midnightblue" points="1019.87,-117 1029.87,-113.5 1019.87,-110 1019.87,-117"/>
</g>
<!-- Node27 -->
<g id="node27" class="node">
<title>Node27</title>
<g id="a_node27"><a xlink:href="classdenoptim_1_1graph_1_1_d_graph.html#adc362402e41af41656e820def73de5ad" target="_top" xlink:title="Replaced a given vertex belonging to this graph with a new vertex generated specifically for this pur...">
<polygon fill="white" stroke="black" points="835.5,-54.5 835.5,-84.5 987.5,-84.5 987.5,-54.5 835.5,-54.5"/>
<text text-anchor="start" x="843.5" y="-72.5" font-family="Helvetica,sans-Serif" font-size="10.00">denoptim.graph.DGraph.replace</text>
<text text-anchor="middle" x="911.5" y="-61.5" font-family="Helvetica,sans-Serif" font-size="10.00">Vertex</text>
</a>
</g>
</g>
<!-- Node1&#45;&gt;Node27 -->
<g id="edge31" class="edge">
<title>Node1&#45;&gt;Node27</title>
<path fill="none" stroke="midnightblue" d="M1021.27,-96.01C1005.67,-92.21 989.31,-88.22 974.14,-84.53"/>
<polygon fill="midnightblue" stroke="midnightblue" points="1020.84,-99.51 1031.39,-98.48 1022.5,-92.71 1020.84,-99.51"/>
</g>
<!-- Node28 -->
<g id="node28" class="node">
<title>Node28</title>
<g id="a_node28"><a xlink:href="classdenoptim_1_1graph_1_1_vertex_test.html#a234abebcaf7e7b6e32bdc988b08828ec" target="_top" xlink:title=" ">
<polygon fill="white" stroke="black" points="836,-5.5 836,-35.5 987,-35.5 987,-5.5 836,-5.5"/>
<text text-anchor="start" x="844" y="-23.5" font-family="Helvetica,sans-Serif" font-size="10.00">denoptim.graph.VertexTest.test</text>
<text text-anchor="middle" x="911.5" y="-12.5" font-family="Helvetica,sans-Serif" font-size="10.00">GetMutationSites</text>
</a>
</g>
</g>
<!-- Node1&#45;&gt;Node28 -->
<g id="edge32" class="edge">
<title>Node1&#45;&gt;Node28</title>
<path fill="none" stroke="midnightblue" d="M1067.18,-92.01C1048,-76.95 1020.65,-57.29 994,-44.5 987.09,-41.18 979.62,-38.22 972.11,-35.61"/>
<polygon fill="midnightblue" stroke="midnightblue" points="1065.14,-94.86 1075.13,-98.36 1069.51,-89.39 1065.14,-94.86"/>
</g>
<!-- Node3 -->
<g id="node3" class="node">
<title>Node3</title>
<g id="a_node3"><a xlink:href="classdenoptim_1_1graph_1_1_d_graph_test.html#a0fd4c84840d3eb11b1838a627d9e6956" target="_top" xlink:title="Returns a graph with definition of symmetric vertexes and symmetric APs meant for testing purposes.">
<polygon fill="white" stroke="black" points="614,-647.5 614,-677.5 778,-677.5 778,-647.5 614,-647.5"/>
<text text-anchor="start" x="622" y="-665.5" font-family="Helvetica,sans-Serif" font-size="10.00">denoptim.graph.DGraphTest.make</text>
<text text-anchor="middle" x="696" y="-654.5" font-family="Helvetica,sans-Serif" font-size="10.00">TestGraphM</text>
</a>
</g>
</g>
<!-- Node2&#45;&gt;Node3 -->
<g id="edge2" class="edge">
<title>Node2&#45;&gt;Node3</title>
<path fill="none" stroke="midnightblue" d="M895.3,-556.41C874.42,-578.59 834.67,-617.2 793,-638.5 786.27,-641.94 779.02,-644.91 771.62,-647.46"/>
<polygon fill="midnightblue" stroke="midnightblue" points="897.89,-558.76 902.11,-549.04 892.75,-554.01 897.89,-558.76"/>
</g>
<!-- Node6 -->
<g id="node6" class="node">
<title>Node6</title>
<g id="a_node6"><a xlink:href="classdenoptim_1_1graph_1_1_d_graph_test.html#ade544f5bf2f66ccb7a4f179e84b33c1c" target="_top" xlink:title="Returns a graph with peculiar definition of symmetric vertexes and symmetric APs meant for testing pu...">
<polygon fill="white" stroke="black" points="614,-598.5 614,-628.5 778,-628.5 778,-598.5 614,-598.5"/>
<text text-anchor="start" x="622" y="-616.5" font-family="Helvetica,sans-Serif" font-size="10.00">denoptim.graph.DGraphTest.make</text>
<text text-anchor="middle" x="696" y="-605.5" font-family="Helvetica,sans-Serif" font-size="10.00">TestGraphN</text>
</a>
</g>
</g>
<!-- Node2&#45;&gt;Node6 -->
<g id="edge5" class="edge">
<title>Node2&#45;&gt;Node6</title>
<path fill="none" stroke="midnightblue" d="M881.43,-553.39C857.95,-564.23 823.85,-579.15 793,-589.5 783.39,-592.72 773.11,-595.74 762.98,-598.46"/>
<polygon fill="midnightblue" stroke="midnightblue" points="882.91,-556.56 890.5,-549.16 879.95,-550.21 882.91,-556.56"/>
</g>
<!-- Node7 -->
<g id="node7" class="node">
<title>Node7</title>
<g id="a_node7"><a xlink:href="classdenoptim_1_1graph_1_1_vertex_test.html#ab36c441c57e9852e2be6d810d80fbc87" target="_top" xlink:title=" ">
<polygon fill="white" stroke="black" points="620.5,-451.5 620.5,-481.5 771.5,-481.5 771.5,-451.5 620.5,-451.5"/>
<text text-anchor="start" x="628.5" y="-469.5" font-family="Helvetica,sans-Serif" font-size="10.00">denoptim.graph.VertexTest.test</text>
<text text-anchor="middle" x="696" y="-458.5" font-family="Helvetica,sans-Serif" font-size="10.00">Clone</text>
</a>
</g>
</g>
<!-- Node2&#45;&gt;Node7 -->
<g id="edge6" class="edge">
<title>Node2&#45;&gt;Node7</title>
<path fill="none" stroke="midnightblue" d="M880.18,-525.81C856.7,-515.53 823.19,-501.55 793,-491.5 782.3,-487.94 770.79,-484.56 759.58,-481.51"/>
<polygon fill="midnightblue" stroke="midnightblue" points="879.03,-529.13 889.59,-529.97 881.86,-522.73 879.03,-529.13"/>
</g>
<!-- Node8 -->
<g id="node8" class="node">
<title>Node8</title>
<g id="a_node8"><a xlink:href="classdenoptim_1_1graph_1_1_attachment_point_test.html#a309f26b0bad9acff15e95672089c2432" target="_top" xlink:title=" ">
<polygon fill="white" stroke="black" points="628.5,-549.5 628.5,-579.5 763.5,-579.5 763.5,-549.5 628.5,-549.5"/>
<text text-anchor="start" x="636.5" y="-567.5" font-family="Helvetica,sans-Serif" font-size="10.00">denoptim.graph.Attachment</text>
<text text-anchor="middle" x="696" y="-556.5" font-family="Helvetica,sans-Serif" font-size="10.00">PointTest.testSameAs</text>
</a>
</g>
</g>
<!-- Node2&#45;&gt;Node8 -->
<g id="edge7" class="edge">
<title>Node2&#45;&gt;Node8</title>
<path fill="none" stroke="midnightblue" d="M819.18,-550.19C800.49,-552.38 781.16,-554.65 763.54,-556.71"/>
<polygon fill="midnightblue" stroke="midnightblue" points="819.65,-553.66 829.18,-549.02 818.84,-546.71 819.65,-553.66"/>
</g>
<!-- Node9 -->
<g id="node9" class="node">
<title>Node9</title>
<g id="a_node9"><a xlink:href="classdenoptim_1_1graph_1_1_attachment_point_test.html#af2fc2503c300637c2369eb4347c990c1" target="_top" xlink:title=" ">
<polygon fill="white" stroke="black" points="609.5,-500.5 609.5,-530.5 782.5,-530.5 782.5,-500.5 609.5,-500.5"/>
<text text-anchor="start" x="617.5" y="-518.5" font-family="Helvetica,sans-Serif" font-size="10.00">denoptim.graph.Attachment</text>
<text text-anchor="middle" x="696" y="-507.5" font-family="Helvetica,sans-Serif" font-size="10.00">PointTest.testSameAs_DiffAPClass</text>
</a>
</g>
</g>
<!-- Node2&#45;&gt;Node9 -->
<g id="edge8" class="edge">
<title>Node2&#45;&gt;Node9</title>
<path fill="none" stroke="midnightblue" d="M818.89,-529.2C806.93,-527.86 794.7,-526.48 782.84,-525.15"/>
<polygon fill="midnightblue" stroke="midnightblue" points="818.54,-532.68 828.87,-530.32 819.32,-525.73 818.54,-532.68"/>
</g>
<!-- Node4 -->
<g id="node4" class="node">
<title>Node4</title>
<g id="a_node4"><a xlink:href="classdenoptim_1_1graph_1_1_d_graph_test.html#a05b87ffb43b9710fcea83b0777654e27" target="_top" xlink:title=" ">
<polygon fill="white" stroke="black" points="390.5,-671.5 390.5,-701.5 546.5,-701.5 546.5,-671.5 390.5,-671.5"/>
<text text-anchor="start" x="398.5" y="-689.5" font-family="Helvetica,sans-Serif" font-size="10.00">denoptim.graph.DGraphTest.test</text>
<text text-anchor="middle" x="468.5" y="-678.5" font-family="Helvetica,sans-Serif" font-size="10.00">DetectSymVertexSets</text>
</a>
</g>
</g>
<!-- Node3&#45;&gt;Node4 -->
<g id="edge3" class="edge">
<title>Node3&#45;&gt;Node4</title>
<path fill="none" stroke="midnightblue" d="M603.82,-672.2C584.93,-674.22 565.2,-676.31 546.86,-678.27"/>
<polygon fill="midnightblue" stroke="midnightblue" points="604.33,-675.67 613.91,-671.13 603.59,-668.71 604.33,-675.67"/>
</g>
<!-- Node5 -->
<g id="node5" class="node">
<title>Node5</title>
<g id="a_node5"><a xlink:href="classdenoptim_1_1graph_1_1_d_graph_test.html#ac02ab6b199aee9280e88a14d0026a175" target="_top" xlink:title=" ">
<polygon fill="white" stroke="black" points="383.5,-622.5 383.5,-652.5 553.5,-652.5 553.5,-622.5 383.5,-622.5"/>
<text text-anchor="start" x="391.5" y="-640.5" font-family="Helvetica,sans-Serif" font-size="10.00">denoptim.graph.DGraphTest.test</text>
<text text-anchor="middle" x="468.5" y="-629.5" font-family="Helvetica,sans-Serif" font-size="10.00">FindSymmetrySetsOfChildVertexes</text>
</a>
</g>
</g>
<!-- Node3&#45;&gt;Node5 -->
<g id="edge4" class="edge">
<title>Node3&#45;&gt;Node5</title>
<path fill="none" stroke="midnightblue" d="M603.71,-652.38C587.17,-650.55 569.99,-648.64 553.67,-646.83"/>
<polygon fill="midnightblue" stroke="midnightblue" points="603.58,-655.89 613.91,-653.51 604.35,-648.93 603.58,-655.89"/>
</g>
<!-- Node10&#45;&gt;Node7 -->
<g id="edge21" class="edge">
<title>Node10&#45;&gt;Node7</title>
<path fill="none" stroke="midnightblue" d="M903.21,-284.95C888.39,-321.73 851.13,-401.45 793,-442.5 786.54,-447.06 779.31,-450.75 771.78,-453.75"/>
<polygon fill="midnightblue" stroke="midnightblue" points="906.56,-285.98 906.94,-275.39 900.04,-283.43 906.56,-285.98"/>
</g>
<!-- Node10&#45;&gt;Node10 -->
<g id="edge10" class="edge">
<title>Node10&#45;&gt;Node10</title>
<path fill="none" stroke="midnightblue" d="M945.61,-283.39C945.11,-289.04 933.74,-293.5 911.5,-293.5 879.15,-293.5 869.8,-284.07 883.45,-275.26"/>
<polygon fill="midnightblue" stroke="midnightblue" points="948.33,-281.19 939.55,-275.26 942.72,-285.37 948.33,-281.19"/>
</g>
<!-- Node11 -->
<g id="node11" class="node">
<title>Node11</title>
<g id="a_node11"><a xlink:href="classdenoptim_1_1fragmenter_1_1_fragmenter_tools.html#a37c0e44680ec1c54fcff98dae0832a50" target="_top" xlink:title="Chops one chemical structure by applying the given cutting rules.">
<polygon fill="white" stroke="black" points="617.5,-402.5 617.5,-432.5 774.5,-432.5 774.5,-402.5 617.5,-402.5"/>
<text text-anchor="start" x="625.5" y="-420.5" font-family="Helvetica,sans-Serif" font-size="10.00">denoptim.fragmenter.Fragmenter</text>
<text text-anchor="middle" x="696" y="-409.5" font-family="Helvetica,sans-Serif" font-size="10.00">Tools.fragmentation</text>
</a>
</g>
</g>
<!-- Node10&#45;&gt;Node11 -->
<g id="edge11" class="edge">
<title>Node10&#45;&gt;Node11</title>
<path fill="none" stroke="midnightblue" d="M898.95,-283.78C880.22,-311.83 840.52,-365.24 793,-393.5 787.24,-396.92 781.01,-399.86 774.58,-402.38"/>
<polygon fill="midnightblue" stroke="midnightblue" points="901.94,-285.59 904.47,-275.3 896.08,-281.77 901.94,-285.59"/>
</g>
<!-- Node12 -->
<g id="node12" class="node">
<title>Node12</title>
<g id="a_node12"><a xlink:href="classdenoptim_1_1fragmenter_1_1_clusterable_fragment.html#a1e02c5f6054d5764ff597bd12337345a" target="_top" xlink:title=" ">
<polygon fill="white" stroke="black" points="618,-353.5 618,-383.5 774,-383.5 774,-353.5 618,-353.5"/>
<text text-anchor="start" x="626" y="-371.5" font-family="Helvetica,sans-Serif" font-size="10.00">denoptim.fragmenter.Clusterable</text>
<text text-anchor="middle" x="696" y="-360.5" font-family="Helvetica,sans-Serif" font-size="10.00">Fragment.getTransformedCopy</text>
</a>
</g>
</g>
<!-- Node10&#45;&gt;Node12 -->
<g id="edge12" class="edge">
<title>Node10&#45;&gt;Node12</title>
<path fill="none" stroke="midnightblue" d="M891.31,-281.51C869.01,-299.33 830.48,-327.83 793,-344.5 785.39,-347.89 777.21,-350.85 768.96,-353.43"/>
<polygon fill="midnightblue" stroke="midnightblue" points="893.74,-284.04 899.29,-275.02 889.32,-278.61 893.74,-284.04"/>
</g>
<!-- Node19 -->
<g id="node19" class="node">
<title>Node19</title>
<g id="a_node19"><a xlink:href="classdenoptim_1_1graph_1_1_fragment_test.html#a0a98792d99861bb6673e66a76ff49d31" target="_top" xlink:title=" ">
<polygon fill="white" stroke="black" points="614,-304.5 614,-334.5 778,-334.5 778,-304.5 614,-304.5"/>
<text text-anchor="start" x="622" y="-322.5" font-family="Helvetica,sans-Serif" font-size="10.00">denoptim.graph.FragmentTest.test</text>
<text text-anchor="middle" x="696" y="-311.5" font-family="Helvetica,sans-Serif" font-size="10.00">Clone</text>
</a>
</g>
</g>
<!-- Node10&#45;&gt;Node19 -->
<g id="edge20" class="edge">
<title>Node10&#45;&gt;Node19</title>
<path fill="none" stroke="midnightblue" d="M863.6,-277.53C842.09,-283.03 816.26,-289.62 793,-295.5 781.51,-298.4 769.24,-301.49 757.44,-304.44"/>
<polygon fill="midnightblue" stroke="midnightblue" points="864.65,-280.88 873.47,-275.01 862.91,-274.09 864.65,-280.88"/>
</g>
<!-- Node20 -->
<g id="node20" class="node">
<title>Node20</title>
<g id="a_node20"><a xlink:href="classdenoptim_1_1fragmenter_1_1_conformer_extractor_task_test.html#a2dc64f375774087fc0b4511384f50bc9" target="_top" xlink:title=" ">
<polygon fill="white" stroke="black" points="599,-245 599,-286 793,-286 793,-245 599,-245"/>
<text text-anchor="start" x="607" y="-274" font-family="Helvetica,sans-Serif" font-size="10.00">denoptim.fragmenter.Conformer</text>
<text text-anchor="start" x="607" y="-263" font-family="Helvetica,sans-Serif" font-size="10.00">ExtractorTaskTest.testExtractClusterable</text>
<text text-anchor="middle" x="696" y="-252" font-family="Helvetica,sans-Serif" font-size="10.00">Fragments</text>
</a>
</g>
</g>
<!-- Node10&#45;&gt;Node20 -->
<g id="edge22" class="edge">
<title>Node10&#45;&gt;Node20</title>
<path fill="none" stroke="midnightblue" d="M824.93,-265.5C814.52,-265.5 803.83,-265.5 793.28,-265.5"/>
<polygon fill="midnightblue" stroke="midnightblue" points="825.23,-269 835.23,-265.5 825.23,-262 825.23,-269"/>
</g>
<!-- Node21 -->
<g id="node21" class="node">
<title>Node21</title>
<g id="a_node21"><a xlink:href="classdenoptim_1_1fragmenter_1_1_fragment_alignement_test.html#ad46b9a4324bb5b9bbfc08c73de0e1124" target="_top" xlink:title=" ">
<polygon fill="white" stroke="black" points="602,-196.5 602,-226.5 790,-226.5 790,-196.5 602,-196.5"/>
<text text-anchor="start" x="610" y="-214.5" font-family="Helvetica,sans-Serif" font-size="10.00">denoptim.fragmenter.Fragment</text>
<text text-anchor="middle" x="696" y="-203.5" font-family="Helvetica,sans-Serif" font-size="10.00">AlignementTest.testGetMinimumRMSD</text>
</a>
</g>
</g>
<!-- Node10&#45;&gt;Node21 -->
<g id="edge23" class="edge">
<title>Node10&#45;&gt;Node21</title>
<path fill="none" stroke="midnightblue" d="M863.6,-253.47C842.09,-247.97 816.26,-241.38 793,-235.5 781.51,-232.6 769.24,-229.51 757.44,-226.56"/>
<polygon fill="midnightblue" stroke="midnightblue" points="862.91,-256.91 873.47,-255.99 864.65,-250.12 862.91,-256.91"/>
</g>
<!-- Node22 -->
<g id="node22" class="node">
<title>Node22</title>
<g id="a_node22"><a xlink:href="classdenoptim_1_1graph_1_1_attachment_point_test.html#af88d30ce68477984fe6179325d1540b2" target="_top" xlink:title=" ">
<polygon fill="white" stroke="black" points="606,-98.5 606,-128.5 786,-128.5 786,-98.5 606,-98.5"/>
<text text-anchor="start" x="614" y="-116.5" font-family="Helvetica,sans-Serif" font-size="10.00">denoptim.graph.Attachment</text>
<text text-anchor="middle" x="696" y="-105.5" font-family="Helvetica,sans-Serif" font-size="10.00">PointTest.testHasConnectedSrcAtom</text>
</a>
</g>
</g>
<!-- Node10&#45;&gt;Node22 -->
<g id="edge24" class="edge">
<title>Node10&#45;&gt;Node22</title>
<path fill="none" stroke="midnightblue" d="M898.88,-247.43C880.06,-219.66 840.23,-166.78 793,-138.5 786.5,-134.61 779.4,-131.31 772.09,-128.53"/>
<polygon fill="midnightblue" stroke="midnightblue" points="895.99,-249.4 904.43,-255.81 901.82,-245.54 895.99,-249.4"/>
</g>
<!-- Node23 -->
<g id="node23" class="node">
<title>Node23</title>
<g id="a_node23"><a xlink:href="classdenoptim_1_1graph_1_1_attachment_point_test.html#a4889032266eb87d0f91af8b4e9869360" target="_top" xlink:title=" ">
<polygon fill="white" stroke="black" points="616.5,-147.5 616.5,-177.5 775.5,-177.5 775.5,-147.5 616.5,-147.5"/>
<text text-anchor="start" x="624.5" y="-165.5" font-family="Helvetica,sans-Serif" font-size="10.00">denoptim.graph.Attachment</text>
<text text-anchor="middle" x="696" y="-154.5" font-family="Helvetica,sans-Serif" font-size="10.00">PointTest.testHasSameSrcAtom</text>
</a>
</g>
</g>
<!-- Node10&#45;&gt;Node23 -->
<g id="edge25" class="edge">
<title>Node10&#45;&gt;Node23</title>
<path fill="none" stroke="midnightblue" d="M890.89,-249.5C868.48,-231.95 830.1,-204.08 793,-187.5 784.51,-183.7 775.33,-180.4 766.13,-177.54"/>
<polygon fill="midnightblue" stroke="midnightblue" points="888.92,-252.41 898.93,-255.89 893.28,-246.93 888.92,-252.41"/>
</g>
<!-- Node13 -->
<g id="node13" class="node">
<title>Node13</title>
<g id="a_node13"><a xlink:href="classdenoptim_1_1fragmenter_1_1_fragment_clusterer.html#a1845241fead0bee7fd92feaf6d71e331" target="_top" xlink:title="Once the clustering is done, this method return the list of cluster centroids.">
<polygon fill="white" stroke="black" points="394,-353.5 394,-383.5 543,-383.5 543,-353.5 394,-353.5"/>
<text text-anchor="start" x="402" y="-371.5" font-family="Helvetica,sans-Serif" font-size="10.00">denoptim.fragmenter.Fragment</text>
<text text-anchor="middle" x="468.5" y="-360.5" font-family="Helvetica,sans-Serif" font-size="10.00">Clusterer.getClusterCentroids</text>
</a>
</g>
</g>
<!-- Node12&#45;&gt;Node13 -->
<g id="edge13" class="edge">
<title>Node12&#45;&gt;Node13</title>
<path fill="none" stroke="midnightblue" d="M607.71,-368.5C586.42,-368.5 563.85,-368.5 543.26,-368.5"/>
<polygon fill="midnightblue" stroke="midnightblue" points="607.71,-372 617.71,-368.5 607.71,-365 607.71,-372"/>
</g>
<!-- Node17 -->
<g id="node17" class="node">
<title>Node17</title>
<g id="a_node17"><a xlink:href="classdenoptim_1_1fragmenter_1_1_fragment_clusterer.html#aae37739ae959ab8a85bf01286c5a518e" target="_top" xlink:title="Once the clustering is done, this method return the list of fragments that are nearest to the respect...">
<polygon fill="white" stroke="black" points="374,-402.5 374,-432.5 563,-432.5 563,-402.5 374,-402.5"/>
<text text-anchor="start" x="382" y="-420.5" font-family="Helvetica,sans-Serif" font-size="10.00">denoptim.fragmenter.Fragment</text>
<text text-anchor="middle" x="468.5" y="-409.5" font-family="Helvetica,sans-Serif" font-size="10.00">Clusterer.getNearestToClusterCentroids</text>
</a>
</g>
</g>
<!-- Node12&#45;&gt;Node17 -->
<g id="edge17" class="edge">
<title>Node12&#45;&gt;Node17</title>
<path fill="none" stroke="midnightblue" d="M615.91,-385.69C590.7,-391.16 563.01,-397.18 538.56,-402.49"/>
<polygon fill="midnightblue" stroke="midnightblue" points="616.78,-389.08 625.81,-383.53 615.29,-382.24 616.78,-389.08"/>
</g>
<!-- Node18 -->
<g id="node18" class="node">
<title>Node18</title>
<g id="a_node18"><a xlink:href="classdenoptim_1_1fragmenter_1_1_clusterable_fragment_test.html#a30be40702849bf4781129bf3dabf88e8" target="_top" xlink:title=" ">
<polygon fill="white" stroke="black" points="374.5,-304.5 374.5,-334.5 562.5,-334.5 562.5,-304.5 374.5,-304.5"/>
<text text-anchor="start" x="382.5" y="-322.5" font-family="Helvetica,sans-Serif" font-size="10.00">denoptim.fragmenter.Clusterable</text>
<text text-anchor="middle" x="468.5" y="-311.5" font-family="Helvetica,sans-Serif" font-size="10.00">FragmentTest.testGetTransformedCopy</text>
</a>
</g>
</g>
<!-- Node12&#45;&gt;Node18 -->
<g id="edge19" class="edge">
<title>Node12&#45;&gt;Node18</title>
<path fill="none" stroke="midnightblue" d="M615.91,-351.31C590.7,-345.84 563.01,-339.82 538.56,-334.51"/>
<polygon fill="midnightblue" stroke="midnightblue" points="615.29,-354.76 625.81,-353.47 616.78,-347.92 615.29,-354.76"/>
</g>
<!-- Node14 -->
<g id="node14" class="node">
<title>Node14</title>
<g id="a_node14"><a xlink:href="classdenoptim_1_1fragmenter_1_1_conformer_extractor_task.html#aa21ebdf147f5bdb2685f9e775efd0b10" target="_top" xlink:title=" ">
<polygon fill="white" stroke="black" points="186,-402.5 186,-432.5 338,-432.5 338,-402.5 186,-402.5"/>
<text text-anchor="start" x="194" y="-420.5" font-family="Helvetica,sans-Serif" font-size="10.00">denoptim.fragmenter.Conformer</text>
<text text-anchor="middle" x="262" y="-409.5" font-family="Helvetica,sans-Serif" font-size="10.00">ExtractorTask.call</text>
</a>
</g>
</g>
<!-- Node13&#45;&gt;Node14 -->
<g id="edge14" class="edge">
<title>Node13&#45;&gt;Node14</title>
<path fill="none" stroke="midnightblue" d="M394.87,-385.9C372.24,-391.32 347.5,-397.25 325.63,-402.49"/>
<polygon fill="midnightblue" stroke="midnightblue" points="395.84,-389.27 404.75,-383.53 394.21,-382.46 395.84,-389.27"/>
</g>
<!-- Node16 -->
<g id="node16" class="node">
<title>Node16</title>
<g id="a_node16"><a xlink:href="classdenoptim_1_1fragmenter_1_1_fragment_clusterer_test.html#aa17925160f3f03080e8680c7016fc1c4" target="_top" xlink:title=" ">
<polygon fill="white" stroke="black" points="187.5,-353.5 187.5,-383.5 336.5,-383.5 336.5,-353.5 187.5,-353.5"/>
<text text-anchor="start" x="195.5" y="-371.5" font-family="Helvetica,sans-Serif" font-size="10.00">denoptim.fragmenter.Fragment</text>
<text text-anchor="middle" x="262" y="-360.5" font-family="Helvetica,sans-Serif" font-size="10.00">ClustererTest.testCluster</text>
</a>
</g>
</g>
<!-- Node13&#45;&gt;Node16 -->
<g id="edge16" class="edge">
<title>Node13&#45;&gt;Node16</title>
<path fill="none" stroke="midnightblue" d="M383.78,-368.5C368.13,-368.5 351.89,-368.5 336.57,-368.5"/>
<polygon fill="midnightblue" stroke="midnightblue" points="383.96,-372 393.96,-368.5 383.96,-365 383.96,-372"/>
</g>
<!-- Node15 -->
<g id="node15" class="node">
<title>Node15</title>
<g id="a_node15"><a xlink:href="classdenoptim_1_1programs_1_1fragmenter_1_1_fragmenter.html#aa27df9705e3aed34cc8cb8bc05e6ce85" target="_top" xlink:title=" ">
<polygon fill="white" stroke="black" points="0,-402.5 0,-432.5 150,-432.5 150,-402.5 0,-402.5"/>
<text text-anchor="start" x="8" y="-420.5" font-family="Helvetica,sans-Serif" font-size="10.00">denoptim.programs.fragmenter.</text>
<text text-anchor="middle" x="75" y="-409.5" font-family="Helvetica,sans-Serif" font-size="10.00">Fragmenter.runProgram</text>
</a>
</g>
</g>
<!-- Node14&#45;&gt;Node15 -->
<g id="edge15" class="edge">
<title>Node14&#45;&gt;Node15</title>
<path fill="none" stroke="midnightblue" d="M175.53,-417.5C167.1,-417.5 158.59,-417.5 150.28,-417.5"/>
<polygon fill="midnightblue" stroke="midnightblue" points="175.75,-421 185.75,-417.5 175.75,-414 175.75,-421"/>
</g>
<!-- Node17&#45;&gt;Node14 -->
<g id="edge18" class="edge">
<title>Node17&#45;&gt;Node14</title>
<path fill="none" stroke="midnightblue" d="M363.79,-417.5C355.14,-417.5 346.51,-417.5 338.14,-417.5"/>
<polygon fill="midnightblue" stroke="midnightblue" points="363.93,-421 373.93,-417.5 363.93,-414 363.93,-421"/>
</g>
<!-- Node24&#45;&gt;Node22 -->
<g id="edge29" class="edge">
<title>Node24&#45;&gt;Node22</title>
<path fill="none" stroke="midnightblue" d="M825.58,-113.5C812.67,-113.5 799.31,-113.5 786.3,-113.5"/>
<polygon fill="midnightblue" stroke="midnightblue" points="825.83,-117 835.83,-113.5 825.83,-110 825.83,-117"/>
</g>
<!-- Node24&#45;&gt;Node24 -->
<g id="edge27" class="edge">
<title>Node24&#45;&gt;Node24</title>
<path fill="none" stroke="midnightblue" d="M945.61,-131.39C945.11,-137.04 933.74,-141.5 911.5,-141.5 879.15,-141.5 869.8,-132.07 883.45,-123.26"/>
<polygon fill="midnightblue" stroke="midnightblue" points="948.33,-129.19 939.55,-123.26 942.72,-133.37 948.33,-129.19"/>
</g>
<!-- Node25 -->
<g id="node25" class="node">
<title>Node25</title>
<g id="a_node25"><a xlink:href="classdenoptim_1_1graph_1_1_template_test.html#a72d37b4c24ad896838401b319b1d667e" target="_top" xlink:title=" ">
<polygon fill="white" stroke="black" points="614,-49.5 614,-79.5 778,-79.5 778,-49.5 614,-49.5"/>
<text text-anchor="start" x="622" y="-67.5" font-family="Helvetica,sans-Serif" font-size="10.00">denoptim.graph.TemplateTest.test</text>
<text text-anchor="middle" x="696" y="-56.5" font-family="Helvetica,sans-Serif" font-size="10.00">Clone</text>
</a>
</g>
</g>
<!-- Node24&#45;&gt;Node25 -->
<g id="edge28" class="edge">
<title>Node24&#45;&gt;Node25</title>
<path fill="none" stroke="midnightblue" d="M859.17,-101.72C830.2,-95.07 793.7,-86.69 762.67,-79.57"/>
<polygon fill="midnightblue" stroke="midnightblue" points="858.55,-105.17 869.08,-103.99 860.12,-98.35 858.55,-105.17"/>
</g>
<!-- Node26 -->
<g id="node26" class="node">
<title>Node26</title>
<g id="a_node26"><a xlink:href="classdenoptim_1_1graph_1_1_template_test.html#a50688358b5a557ee51683082427bdc14" target="_top" xlink:title=" ">
<polygon fill="white" stroke="black" points="614,-0.5 614,-30.5 778,-30.5 778,-0.5 614,-0.5"/>
<text text-anchor="start" x="622" y="-18.5" font-family="Helvetica,sans-Serif" font-size="10.00">denoptim.graph.TemplateTest.test</text>
<text text-anchor="middle" x="696" y="-7.5" font-family="Helvetica,sans-Serif" font-size="10.00">NestedTemplateCloning</text>
</a>
</g>
</g>
<!-- Node24&#45;&gt;Node26 -->
<g id="edge30" class="edge">
<title>Node24&#45;&gt;Node26</title>
<path fill="none" stroke="midnightblue" d="M837.66,-99.69C834.64,-98.14 831.74,-96.41 829,-94.5 805.06,-77.76 816.81,-56.43 793,-39.5 788.24,-36.12 783.05,-33.21 777.63,-30.71"/>
<polygon fill="midnightblue" stroke="midnightblue" points="836.45,-102.98 847.01,-103.85 839.29,-96.59 836.45,-102.98"/>
</g>
</g>
</svg>
