<?xml version="1.0" encoding="UTF-8" standalone="no"?>
<!DOCTYPE svg PUBLIC "-//W3C//DTD SVG 1.1//EN"
 "http://www.w3.org/Graphics/SVG/1.1/DTD/svg11.dtd">
<!-- Generated by graphviz version 3.0.0 (20221109.1736)
 -->
<!-- Title: denoptim.fragspace.FragmentSpace.getVertexFromLibrary Pages: 1 -->
<svg width="1073pt" height="481pt"
 viewBox="0.00 0.00 1073.00 481.00" xmlns="http://www.w3.org/2000/svg" xmlns:xlink="http://www.w3.org/1999/xlink">
<g id="graph0" class="graph" transform="scale(1 1) rotate(0) translate(4 477)">
<title>denoptim.fragspace.FragmentSpace.getVertexFromLibrary</title>
<polygon fill="white" stroke="transparent" points="-4,4 -4,-477 1069,-477 1069,4 -4,4"/>
<!-- Node1 -->
<g id="node1" class="node">
<title>Node1</title>
<g id="a_node1"><a xlink:title="Returns a clone of the requested building block.">
<polygon fill="#bfbfbf" stroke="black" points="920,-229 920,-259 1065,-259 1065,-229 920,-229"/>
<text text-anchor="start" x="928" y="-247" font-family="Helvetica,sans-Serif" font-size="10.00">denoptim.fragspace.Fragment</text>
<text text-anchor="middle" x="992.5" y="-236" font-family="Helvetica,sans-Serif" font-size="10.00">Space.getVertexFromLibrary</text>
</a>
</g>
</g>
<!-- Node2 -->
<g id="node2" class="node">
<title>Node2</title>
<g id="a_node2"><a xlink:href="classdenoptim_1_1fragspace_1_1_frags_combination_iterator.html#afa4835767d37078abce9e3fbe5fa16e1" target="_top" xlink:title="Constructs a new factory for generating all the combination of fragments that can be attached on a gi...">
<polygon fill="white" stroke="black" points="700.5,-431.5 700.5,-472.5 882.5,-472.5 882.5,-431.5 700.5,-431.5"/>
<text text-anchor="start" x="708.5" y="-460.5" font-family="Helvetica,sans-Serif" font-size="10.00">denoptim.fragspace.Frags</text>
<text text-anchor="start" x="708.5" y="-449.5" font-family="Helvetica,sans-Serif" font-size="10.00">CombinationIterator.FragsCombination</text>
<text text-anchor="middle" x="791.5" y="-438.5" font-family="Helvetica,sans-Serif" font-size="10.00">Iterator</text>
</a>
</g>
</g>
<!-- Node1&#45;&gt;Node2 -->
<g id="edge1" class="edge">
<title>Node1&#45;&gt;Node2</title>
<path fill="none" stroke="midnightblue" d="M983.21,-268.67C969,-307.23 936.36,-381.65 884,-423 880.08,-426.1 875.82,-428.87 871.35,-431.35"/>
<polygon fill="midnightblue" stroke="midnightblue" points="986.51,-269.83 986.58,-259.24 979.92,-267.48 986.51,-269.83"/>
</g>
<!-- Node3 -->
<g id="node3" class="node">
<title>Node3</title>
<g id="a_node3"><a xlink:href="classdenoptim_1_1fragspace_1_1_fragment_space.html#a464680d8b4e470182a7d2f0acb8c4ef0" target="_top" xlink:title="Search for a specific AP on a specific fragment and finds out its class.">
<polygon fill="white" stroke="black" points="714.5,-383 714.5,-413 868.5,-413 868.5,-383 714.5,-383"/>
<text text-anchor="start" x="722.5" y="-401" font-family="Helvetica,sans-Serif" font-size="10.00">denoptim.fragspace.Fragment</text>
<text text-anchor="middle" x="791.5" y="-390" font-family="Helvetica,sans-Serif" font-size="10.00">Space.getAPClassForFragment</text>
</a>
</g>
</g>
<!-- Node1&#45;&gt;Node3 -->
<g id="edge2" class="edge">
<title>Node1&#45;&gt;Node3</title>
<path fill="none" stroke="midnightblue" d="M976.55,-268.04C958.07,-295.89 924.08,-341.36 884,-368 874.95,-374.02 864.6,-378.91 854.19,-382.87"/>
<polygon fill="midnightblue" stroke="midnightblue" points="979.71,-269.62 982.22,-259.32 973.83,-265.8 979.71,-269.62"/>
</g>
<!-- Node5 -->
<g id="node5" class="node">
<title>Node5</title>
<g id="a_node5"><a xlink:href="classdenoptim_1_1fragspace_1_1_fragment_space.html#a0311d9fe4a945fc7e06ba466bb8ca121" target="_top" xlink:title="Searches for all building blocks that are compatible with the given list of APs.">
<polygon fill="white" stroke="black" points="235,-333.5 235,-374.5 410,-374.5 410,-333.5 235,-333.5"/>
<text text-anchor="start" x="243" y="-362.5" font-family="Helvetica,sans-Serif" font-size="10.00">denoptim.fragspace.Fragment</text>
<text text-anchor="start" x="243" y="-351.5" font-family="Helvetica,sans-Serif" font-size="10.00">Space.getFragmentsCompatibleWith</text>
<text text-anchor="middle" x="322.5" y="-340.5" font-family="Helvetica,sans-Serif" font-size="10.00">TheseAPs</text>
</a>
</g>
</g>
<!-- Node1&#45;&gt;Node5 -->
<g id="edge10" class="edge">
<title>Node1&#45;&gt;Node5</title>
<path fill="none" stroke="midnightblue" d="M973,-266.72C953.5,-288.77 920.57,-320.89 884,-335 800.09,-367.37 545.37,-362.91 410.08,-357.93"/>
<polygon fill="midnightblue" stroke="midnightblue" points="975.68,-268.97 979.56,-259.11 970.38,-264.4 975.68,-268.97"/>
</g>
<!-- Node8 -->
<g id="node8" class="node">
<title>Node8</title>
<g id="a_node8"><a xlink:href="classdenoptim_1_1fragspace_1_1_graph_link_finder.html#a23a02a7ccf016632eb93ac02eae9bc6b" target="_top" xlink:title=" ">
<polygon fill="white" stroke="black" points="721.5,-295 721.5,-325 861.5,-325 861.5,-295 721.5,-295"/>
<text text-anchor="start" x="729.5" y="-313" font-family="Helvetica,sans-Serif" font-size="10.00">denoptim.fragspace.Graph</text>
<text text-anchor="middle" x="791.5" y="-302" font-family="Helvetica,sans-Serif" font-size="10.00">LinkFinder.getCandidateBBs</text>
</a>
</g>
</g>
<!-- Node1&#45;&gt;Node8 -->
<g id="edge7" class="edge">
<title>Node1&#45;&gt;Node8</title>
<path fill="none" stroke="midnightblue" d="M937.04,-262.31C920.06,-268 901.26,-274.28 884,-280 869.24,-284.89 853.13,-290.19 838.6,-294.95"/>
<polygon fill="midnightblue" stroke="midnightblue" points="938.43,-265.54 946.8,-259.04 936.21,-258.9 938.43,-265.54"/>
</g>
<!-- Node9 -->
<g id="node9" class="node">
<title>Node9</title>
<g id="a_node9"><a xlink:href="classdenoptim_1_1fragspace_1_1_graph_link_finder.html#acbb92ddbad514c788140dc2fbcbcfef7" target="_top" xlink:title="Constructor that specifies which vertex has to be replaced.">
<polygon fill="white" stroke="black" points="488.5,-277 488.5,-307 625.5,-307 625.5,-277 488.5,-277"/>
<text text-anchor="start" x="496.5" y="-295" font-family="Helvetica,sans-Serif" font-size="10.00">denoptim.fragspace.Graph</text>
<text text-anchor="middle" x="557" y="-284" font-family="Helvetica,sans-Serif" font-size="10.00">LinkFinder.GraphLinkFinder</text>
</a>
</g>
</g>
<!-- Node1&#45;&gt;Node9 -->
<g id="edge11" class="edge">
<title>Node1&#45;&gt;Node9</title>
<path fill="none" stroke="midnightblue" d="M909.87,-253.04C827.75,-262.13 702.57,-275.99 625.76,-284.5"/>
<polygon fill="midnightblue" stroke="midnightblue" points="910.36,-256.51 919.92,-251.93 909.59,-249.55 910.36,-256.51"/>
</g>
<!-- Node10 -->
<g id="node10" class="node">
<title>Node10</title>
<g id="a_node10"><a xlink:href="classdenoptim_1_1fragspace_1_1_fragment_space.html#aaebd9e32b3be01d8eb6ddb12fdd84dfb" target="_top" xlink:title=" ">
<polygon fill="white" stroke="black" points="701,-207 701,-237 882,-237 882,-207 701,-207"/>
<text text-anchor="start" x="709" y="-225" font-family="Helvetica,sans-Serif" font-size="10.00">denoptim.fragspace.Fragment</text>
<text text-anchor="middle" x="791.5" y="-214" font-family="Helvetica,sans-Serif" font-size="10.00">Space.getCappingVertexWithAPClass</text>
</a>
</g>
</g>
<!-- Node1&#45;&gt;Node10 -->
<g id="edge9" class="edge">
<title>Node1&#45;&gt;Node10</title>
<path fill="none" stroke="midnightblue" d="M909.76,-234.96C900.66,-233.96 891.35,-232.93 882.15,-231.91"/>
<polygon fill="midnightblue" stroke="midnightblue" points="909.61,-238.47 919.94,-236.09 910.38,-231.51 909.61,-238.47"/>
</g>
<!-- Node11 -->
<g id="node11" class="node">
<title>Node11</title>
<g id="a_node11"><a xlink:href="classdenoptim_1_1fragspace_1_1_graph_link_finder_test.html#a586ff58307127b487068fe2aa5e43359" target="_top" xlink:title="Creates a test graph that looks like this: v0(A)&#45;(A)v1(B)&#45;(C)v2.">
<polygon fill="white" stroke="black" points="711,-158 711,-188 872,-188 872,-158 711,-158"/>
<text text-anchor="start" x="719" y="-176" font-family="Helvetica,sans-Serif" font-size="10.00">denoptim.fragspace.Graph</text>
<text text-anchor="middle" x="791.5" y="-165" font-family="Helvetica,sans-Serif" font-size="10.00">LinkFinderTest.makeTestGraphA</text>
</a>
</g>
</g>
<!-- Node1&#45;&gt;Node11 -->
<g id="edge12" class="edge">
<title>Node1&#45;&gt;Node11</title>
<path fill="none" stroke="midnightblue" d="M950.17,-224.74C930.4,-215.93 906.24,-205.75 884,-198 873.89,-194.48 863.02,-191.13 852.42,-188.1"/>
<polygon fill="midnightblue" stroke="midnightblue" points="948.94,-228.02 959.5,-228.93 951.82,-221.64 948.94,-228.02"/>
</g>
<!-- Node14 -->
<g id="node14" class="node">
<title>Node14</title>
<g id="a_node14"><a xlink:href="classdenoptim_1_1fragspace_1_1_graph_link_finder_test.html#a788a4b1620fa0610d9f306e2e8b3a75a" target="_top" xlink:title="Creates a test graph that looks like this: v0(E)&#45;(E)v1.">
<polygon fill="white" stroke="black" points="711.5,-109 711.5,-139 871.5,-139 871.5,-109 711.5,-109"/>
<text text-anchor="start" x="719.5" y="-127" font-family="Helvetica,sans-Serif" font-size="10.00">denoptim.fragspace.Graph</text>
<text text-anchor="middle" x="791.5" y="-116" font-family="Helvetica,sans-Serif" font-size="10.00">LinkFinderTest.makeTestGraphE</text>
</a>
</g>
</g>
<!-- Node1&#45;&gt;Node14 -->
<g id="edge15" class="edge">
<title>Node1&#45;&gt;Node14</title>
<path fill="none" stroke="midnightblue" d="M971.72,-221.33C951.68,-199.72 918.74,-167.76 884,-149 876.9,-145.17 869.17,-141.88 861.3,-139.08"/>
<polygon fill="midnightblue" stroke="midnightblue" points="969.19,-223.74 978.51,-228.78 974.36,-219.03 969.19,-223.74"/>
</g>
<!-- Node16 -->
<g id="node16" class="node">
<title>Node16</title>
<g id="a_node16"><a xlink:href="classdenoptim_1_1fragspace_1_1_graph_link_finder_test.html#a978d58856f04a9a844344ad2cacc812b" target="_top" xlink:title="Creates a test graph that looks like this: v0(F)&#45;(F)v1.">
<polygon fill="white" stroke="black" points="711.5,-60 711.5,-90 871.5,-90 871.5,-60 711.5,-60"/>
<text text-anchor="start" x="719.5" y="-78" font-family="Helvetica,sans-Serif" font-size="10.00">denoptim.fragspace.Graph</text>
<text text-anchor="middle" x="791.5" y="-67" font-family="Helvetica,sans-Serif" font-size="10.00">LinkFinderTest.makeTestGraphF</text>
</a>
</g>
</g>
<!-- Node1&#45;&gt;Node16 -->
<g id="edge17" class="edge">
<title>Node1&#45;&gt;Node16</title>
<path fill="none" stroke="midnightblue" d="M979.81,-219.56C963.1,-187.27 929.33,-130.89 884,-100 878.28,-96.11 871.98,-92.82 865.44,-90.04"/>
<polygon fill="midnightblue" stroke="midnightblue" points="976.81,-221.39 984.44,-228.75 983.07,-218.24 976.81,-221.39"/>
</g>
<!-- Node18 -->
<g id="node18" class="node">
<title>Node18</title>
<g id="a_node18"><a xlink:href="classdenoptim_1_1fragspace_1_1_fragment_space_test.html#a692723b803a64dd25e775b2f8726fe27" target="_top" xlink:title="Works with this graph:">
<polygon fill="white" stroke="black" points="699,-0.5 699,-41.5 884,-41.5 884,-0.5 699,-0.5"/>
<text text-anchor="start" x="707" y="-29.5" font-family="Helvetica,sans-Serif" font-size="10.00">denoptim.fragspace.Fragment</text>
<text text-anchor="start" x="707" y="-18.5" font-family="Helvetica,sans-Serif" font-size="10.00">SpaceTest.testUseWholeMolGeometry</text>
<text text-anchor="middle" x="791.5" y="-7.5" font-family="Helvetica,sans-Serif" font-size="10.00">ForExtractedTemplates</text>
</a>
</g>
</g>
<!-- Node1&#45;&gt;Node18 -->
<g id="edge19" class="edge">
<title>Node1&#45;&gt;Node18</title>
<path fill="none" stroke="midnightblue" d="M984.37,-219.09C971.31,-177.87 939.65,-95.54 884,-50 880.26,-46.94 876.19,-44.2 871.92,-41.75"/>
<polygon fill="midnightblue" stroke="midnightblue" points="981.09,-220.32 987.36,-228.86 987.78,-218.28 981.09,-220.32"/>
</g>
<!-- Node4 -->
<g id="node4" class="node">
<title>Node4</title>
<g id="a_node4"><a xlink:href="classdenoptim_1_1fragspace_1_1_fragment_space.html#a2dca1b8ac952e62a5b5aa1f961334a01" target="_top" xlink:title="Searches for all APs that are compatible with the given list of APs.">
<polygon fill="white" stroke="black" points="451,-383 451,-413 663,-413 663,-383 451,-383"/>
<text text-anchor="start" x="459" y="-401" font-family="Helvetica,sans-Serif" font-size="10.00">denoptim.fragspace.Fragment</text>
<text text-anchor="middle" x="557" y="-390" font-family="Helvetica,sans-Serif" font-size="10.00">Space.getFragAPsCompatibleWithTheseAPs</text>
</a>
</g>
</g>
<!-- Node3&#45;&gt;Node4 -->
<g id="edge3" class="edge">
<title>Node3&#45;&gt;Node4</title>
<path fill="none" stroke="midnightblue" d="M704.23,-398C690.8,-398 676.79,-398 663.01,-398"/>
<polygon fill="midnightblue" stroke="midnightblue" points="704.37,-401.5 714.37,-398 704.37,-394.5 704.37,-401.5"/>
</g>
<!-- Node4&#45;&gt;Node5 -->
<g id="edge4" class="edge">
<title>Node4&#45;&gt;Node5</title>
<path fill="none" stroke="midnightblue" d="M466.72,-381.1C448.13,-377.59 428.56,-373.88 410.07,-370.38"/>
<polygon fill="midnightblue" stroke="midnightblue" points="466.16,-384.56 476.64,-382.98 467.46,-377.68 466.16,-384.56"/>
</g>
<!-- Node7 -->
<g id="node7" class="node">
<title>Node7</title>
<g id="a_node7"><a xlink:href="classdenoptim_1_1fragspace_1_1_fragment_space_test.html#a2ba7718688486212e987638aef444bad" target="_top" xlink:title=" ">
<polygon fill="white" stroke="black" points="230,-393.5 230,-434.5 415,-434.5 415,-393.5 230,-393.5"/>
<text text-anchor="start" x="238" y="-422.5" font-family="Helvetica,sans-Serif" font-size="10.00">denoptim.fragspace.Fragment</text>
<text text-anchor="start" x="238" y="-411.5" font-family="Helvetica,sans-Serif" font-size="10.00">SpaceTest.testGetFragAPsCompatible</text>
<text text-anchor="middle" x="322.5" y="-400.5" font-family="Helvetica,sans-Serif" font-size="10.00">WithTheseAPs</text>
</a>
</g>
</g>
<!-- Node4&#45;&gt;Node7 -->
<g id="edge6" class="edge">
<title>Node4&#45;&gt;Node7</title>
<path fill="none" stroke="midnightblue" d="M440.89,-405.92C432.3,-406.51 423.69,-407.11 415.26,-407.69"/>
<polygon fill="midnightblue" stroke="midnightblue" points="441.24,-409.41 450.97,-405.23 440.76,-402.42 441.24,-409.41"/>
</g>
<!-- Node6 -->
<g id="node6" class="node">
<title>Node6</title>
<g id="a_node6"><a xlink:href="classdenoptim_1_1fragspace_1_1_fragment_space_test.html#ab95d03f36f68718eb1cc11fac188401f" target="_top" xlink:title=" ">
<polygon fill="white" stroke="black" points="0,-333.5 0,-374.5 194,-374.5 194,-333.5 0,-333.5"/>
<text text-anchor="start" x="8" y="-362.5" font-family="Helvetica,sans-Serif" font-size="10.00">denoptim.fragspace.Fragment</text>
<text text-anchor="start" x="8" y="-351.5" font-family="Helvetica,sans-Serif" font-size="10.00">SpaceTest.testGetFragmentsCompatible</text>
<text text-anchor="middle" x="97" y="-340.5" font-family="Helvetica,sans-Serif" font-size="10.00">WithTheseAPs</text>
</a>
</g>
</g>
<!-- Node5&#45;&gt;Node6 -->
<g id="edge5" class="edge">
<title>Node5&#45;&gt;Node6</title>
<path fill="none" stroke="midnightblue" d="M224.75,-354C214.66,-354 204.41,-354 194.33,-354"/>
<polygon fill="midnightblue" stroke="midnightblue" points="224.77,-357.5 234.77,-354 224.77,-350.5 224.77,-357.5"/>
</g>
<!-- Node8&#45;&gt;Node9 -->
<g id="edge8" class="edge">
<title>Node8&#45;&gt;Node9</title>
<path fill="none" stroke="midnightblue" d="M711.28,-303.87C683.44,-301.71 652.45,-299.31 625.66,-297.24"/>
<polygon fill="midnightblue" stroke="midnightblue" points="711.13,-307.37 721.37,-304.65 711.67,-300.39 711.13,-307.37"/>
</g>
<!-- Node12 -->
<g id="node12" class="node">
<title>Node12</title>
<g id="a_node12"><a xlink:href="classdenoptim_1_1fragspace_1_1_graph_link_finder_test.html#a10f29a0409c104973230371493a734ed" target="_top" xlink:title=" ">
<polygon fill="white" stroke="black" points="475,-210 475,-240 639,-240 639,-210 475,-210"/>
<text text-anchor="start" x="483" y="-228" font-family="Helvetica,sans-Serif" font-size="10.00">denoptim.fragspace.Graph</text>
<text text-anchor="middle" x="557" y="-217" font-family="Helvetica,sans-Serif" font-size="10.00">LinkFinderTest.testLinkFromEdge</text>
</a>
</g>
</g>
<!-- Node11&#45;&gt;Node12 -->
<g id="edge13" class="edge">
<title>Node11&#45;&gt;Node12</title>
<path fill="none" stroke="midnightblue" d="M713.32,-190.26C684.77,-196.65 652.67,-203.83 625.1,-209.99"/>
<polygon fill="midnightblue" stroke="midnightblue" points="714.26,-193.64 723.25,-188.04 712.73,-186.81 714.26,-193.64"/>
</g>
<!-- Node13 -->
<g id="node13" class="node">
<title>Node13</title>
<g id="a_node13"><a xlink:href="classdenoptim_1_1fragspace_1_1_graph_link_finder_test.html#a11b5fce33ae34132f5b16a11b57aaae7" target="_top" xlink:title=" ">
<polygon fill="white" stroke="black" points="472,-161 472,-191 642,-191 642,-161 472,-161"/>
<text text-anchor="start" x="480" y="-179" font-family="Helvetica,sans-Serif" font-size="10.00">denoptim.fragspace.Graph</text>
<text text-anchor="middle" x="557" y="-168" font-family="Helvetica,sans-Serif" font-size="10.00">LinkFinderTest.testLinkFromVertex</text>
</a>
</g>
</g>
<!-- Node11&#45;&gt;Node13 -->
<g id="edge14" class="edge">
<title>Node11&#45;&gt;Node13</title>
<path fill="none" stroke="midnightblue" d="M700.6,-174.16C681.44,-174.41 661.28,-174.67 642.34,-174.91"/>
<polygon fill="midnightblue" stroke="midnightblue" points="700.86,-177.66 710.81,-174.03 700.77,-170.66 700.86,-177.66"/>
</g>
<!-- Node15 -->
<g id="node15" class="node">
<title>Node15</title>
<g id="a_node15"><a xlink:href="classdenoptim_1_1fragspace_1_1_graph_link_finder_test.html#a0ec3c77508e8ec583b570a6803056e9a" target="_top" xlink:title=" ">
<polygon fill="white" stroke="black" points="475,-101.5 475,-142.5 639,-142.5 639,-101.5 475,-101.5"/>
<text text-anchor="start" x="483" y="-130.5" font-family="Helvetica,sans-Serif" font-size="10.00">denoptim.fragspace.Graph</text>
<text text-anchor="start" x="483" y="-119.5" font-family="Helvetica,sans-Serif" font-size="10.00">LinkFinderTest.testLinkFromEdge</text>
<text text-anchor="middle" x="557" y="-108.5" font-family="Helvetica,sans-Serif" font-size="10.00">OneMatch</text>
</a>
</g>
</g>
<!-- Node14&#45;&gt;Node15 -->
<g id="edge16" class="edge">
<title>Node14&#45;&gt;Node15</title>
<path fill="none" stroke="midnightblue" d="M701.23,-123.23C680.82,-123.06 659.24,-122.87 639.2,-122.7"/>
<polygon fill="midnightblue" stroke="midnightblue" points="701.43,-126.73 711.46,-123.32 701.49,-119.73 701.43,-126.73"/>
</g>
<!-- Node17 -->
<g id="node17" class="node">
<title>Node17</title>
<g id="a_node17"><a xlink:href="classdenoptim_1_1fragspace_1_1_graph_link_finder_test.html#a027bbe60b63ad7c458011fe4c4814ff7" target="_top" xlink:title=" ">
<polygon fill="white" stroke="black" points="475,-41.5 475,-82.5 639,-82.5 639,-41.5 475,-41.5"/>
<text text-anchor="start" x="483" y="-70.5" font-family="Helvetica,sans-Serif" font-size="10.00">denoptim.fragspace.Graph</text>
<text text-anchor="start" x="483" y="-59.5" font-family="Helvetica,sans-Serif" font-size="10.00">LinkFinderTest.testLinkFromEdge</text>
<text text-anchor="middle" x="557" y="-48.5" font-family="Helvetica,sans-Serif" font-size="10.00">NoMatch</text>
</a>
</g>
</g>
<!-- Node16&#45;&gt;Node17 -->
<g id="edge18" class="edge">
<title>Node16&#45;&gt;Node17</title>
<path fill="none" stroke="midnightblue" d="M701.23,-70.01C680.82,-68.87 659.24,-67.66 639.2,-66.54"/>
<polygon fill="midnightblue" stroke="midnightblue" points="701.28,-73.52 711.46,-70.58 701.67,-66.53 701.28,-73.52"/>
</g>
</g>
</svg>
