<?xml version="1.0" encoding="UTF-8" standalone="no"?>
<!DOCTYPE svg PUBLIC "-//W3C//DTD SVG 1.1//EN"
 "http://www.w3.org/Graphics/SVG/1.1/DTD/svg11.dtd">
<!-- Generated by graphviz version 3.0.0 (20221109.1736)
 -->
<!-- Title: denoptim.graph.Template.getOuterAPFromInnerAP Pages: 1 -->
<svg width="1633pt" height="339pt"
 viewBox="0.00 0.00 1633.00 339.00" xmlns="http://www.w3.org/2000/svg" xmlns:xlink="http://www.w3.org/1999/xlink">
<g id="graph0" class="graph" transform="scale(1 1) rotate(0) translate(4 335)">
<title>denoptim.graph.Template.getOuterAPFromInnerAP</title>
<polygon fill="white" stroke="transparent" points="-4,4 -4,-335 1629,-335 1629,4 -4,4"/>
<!-- Node1 -->
<g id="node1" class="node">
<title>Node1</title>
<g id="a_node1"><a xlink:title=" ">
<polygon fill="#bfbfbf" stroke="black" points="1484,-153.5 1484,-183.5 1625,-183.5 1625,-153.5 1484,-153.5"/>
<text text-anchor="start" x="1492" y="-171.5" font-family="Helvetica,sans-Serif" font-size="10.00">denoptim.graph.Template.get</text>
<text text-anchor="middle" x="1554.5" y="-160.5" font-family="Helvetica,sans-Serif" font-size="10.00">OuterAPFromInnerAP</text>
</a>
</g>
</g>
<!-- Node2 -->
<g id="node2" class="node">
<title>Node2</title>
<g id="a_node2"><a xlink:href="classdenoptim_1_1graph_1_1_d_graph.html#a1cb3c55237933f7a4d32e002175b84bc" target="_top" xlink:title="Searches for the given pattern type and generated a new graph where each set of (clones of) vertexes ...">
<polygon fill="white" stroke="black" points="1299,-220.5 1299,-250.5 1448,-250.5 1448,-220.5 1299,-220.5"/>
<text text-anchor="start" x="1307" y="-238.5" font-family="Helvetica,sans-Serif" font-size="10.00">denoptim.graph.DGraph.embed</text>
<text text-anchor="middle" x="1373.5" y="-227.5" font-family="Helvetica,sans-Serif" font-size="10.00">PatternsInTemplates</text>
</a>
</g>
</g>
<!-- Node1&#45;&gt;Node2 -->
<g id="edge1" class="edge">
<title>Node1&#45;&gt;Node2</title>
<path fill="none" stroke="midnightblue" d="M1508.67,-187.6C1490.03,-195.32 1468.08,-204.14 1448,-211.5 1439.81,-214.5 1431.04,-217.53 1422.51,-220.37"/>
<polygon fill="midnightblue" stroke="midnightblue" points="1510.21,-190.75 1518.1,-183.67 1507.52,-184.28 1510.21,-190.75"/>
</g>
<!-- Node3 -->
<g id="node3" class="node">
<title>Node3</title>
<g id="a_node3"><a xlink:href="classdenoptim_1_1graph_1_1_attachment_point.html#aa1ae3c328e8ea24ead206b822daca7f7" target="_top" xlink:title="Gets the edge that is using this AP, or null if no edge is using this AP.">
<polygon fill="white" stroke="black" points="1300.5,-153.5 1300.5,-183.5 1446.5,-183.5 1446.5,-153.5 1300.5,-153.5"/>
<text text-anchor="start" x="1308.5" y="-171.5" font-family="Helvetica,sans-Serif" font-size="10.00">denoptim.graph.Attachment</text>
<text text-anchor="middle" x="1373.5" y="-160.5" font-family="Helvetica,sans-Serif" font-size="10.00">Point.getEdgeUserThroughout</text>
</a>
</g>
</g>
<!-- Node1&#45;&gt;Node3 -->
<g id="edge2" class="edge">
<title>Node1&#45;&gt;Node3</title>
<path fill="none" stroke="midnightblue" d="M1473.7,-168.5C1464.7,-168.5 1455.58,-168.5 1446.69,-168.5"/>
<polygon fill="midnightblue" stroke="midnightblue" points="1473.78,-172 1483.78,-168.5 1473.78,-165 1473.78,-172"/>
</g>
<!-- Node27 -->
<g id="node27" class="node">
<title>Node27</title>
<g id="a_node27"><a xlink:href="classdenoptim_1_1graph_1_1_attachment_point.html#a941d391d3ebf78b94cb0169ed9318b7a" target="_top" xlink:title="Check availability of this attachment point throughout the graph level, i.e., check also across the i...">
<polygon fill="white" stroke="black" points="1305,-86.5 1305,-116.5 1442,-116.5 1442,-86.5 1305,-86.5"/>
<text text-anchor="start" x="1313" y="-104.5" font-family="Helvetica,sans-Serif" font-size="10.00">denoptim.graph.Attachment</text>
<text text-anchor="middle" x="1373.5" y="-93.5" font-family="Helvetica,sans-Serif" font-size="10.00">Point.isAvailableThroughout</text>
</a>
</g>
</g>
<!-- Node1&#45;&gt;Node27 -->
<g id="edge32" class="edge">
<title>Node1&#45;&gt;Node27</title>
<path fill="none" stroke="midnightblue" d="M1503.71,-149.86C1475.69,-139.38 1441.16,-126.45 1414.85,-116.6"/>
<polygon fill="midnightblue" stroke="midnightblue" points="1502.74,-153.24 1513.33,-153.46 1505.19,-146.68 1502.74,-153.24"/>
</g>
<!-- Node3&#45;&gt;Node3 -->
<g id="edge4" class="edge">
<title>Node3&#45;&gt;Node3</title>
<path fill="none" stroke="midnightblue" d="M1405.48,-193.96C1401.51,-198.68 1390.85,-202 1373.5,-202 1345.02,-202 1334.57,-193.06 1342.13,-183.66"/>
<polygon fill="midnightblue" stroke="midnightblue" points="1408.96,-193.43 1404.87,-183.66 1401.97,-193.85 1408.96,-193.43"/>
</g>
<!-- Node4 -->
<g id="node4" class="node">
<title>Node4</title>
<g id="a_node4"><a xlink:href="classdenoptim_1_1ga_1_1_graph_operations.html#ac98a7de3b7bbb99fc18af1dd15bc5f87" target="_top" xlink:title="Inserts a vertex in between two connected vertexes that are identified by the one vertex holding the ...">
<polygon fill="white" stroke="black" points="1069,-203 1069,-222 1263,-222 1263,-203 1069,-203"/>
<text text-anchor="middle" x="1166" y="-210" font-family="Helvetica,sans-Serif" font-size="10.00">denoptim.ga.GraphOperations.extendLink</text>
</a>
</g>
</g>
<!-- Node3&#45;&gt;Node4 -->
<g id="edge3" class="edge">
<title>Node3&#45;&gt;Node4</title>
<path fill="none" stroke="midnightblue" d="M1298.21,-185.77C1286.44,-188.41 1274.4,-191.07 1263,-193.5 1248.04,-196.69 1231.74,-199.98 1216.88,-202.91"/>
<polygon fill="midnightblue" stroke="midnightblue" points="1299.03,-189.17 1308.01,-183.55 1297.48,-182.34 1299.03,-189.17"/>
</g>
<!-- Node5 -->
<g id="node5" class="node">
<title>Node5</title>
<g id="a_node5"><a xlink:href="classdenoptim_1_1graph_1_1_attachment_point.html#adfc2840f3e5126d847c8d800082f8958" target="_top" xlink:title="Gets the attachment point (AP) that is connected to this AP via the edge user or in any edge user tha...">
<polygon fill="white" stroke="black" points="1093,-153.5 1093,-183.5 1239,-183.5 1239,-153.5 1093,-153.5"/>
<text text-anchor="start" x="1101" y="-171.5" font-family="Helvetica,sans-Serif" font-size="10.00">denoptim.graph.Attachment</text>
<text text-anchor="middle" x="1166" y="-160.5" font-family="Helvetica,sans-Serif" font-size="10.00">Point.getLinkedAPThroughout</text>
</a>
</g>
</g>
<!-- Node3&#45;&gt;Node5 -->
<g id="edge5" class="edge">
<title>Node3&#45;&gt;Node5</title>
<path fill="none" stroke="midnightblue" d="M1290.01,-168.5C1273.24,-168.5 1255.72,-168.5 1239.34,-168.5"/>
<polygon fill="midnightblue" stroke="midnightblue" points="1290.34,-172 1300.34,-168.5 1290.34,-165 1290.34,-172"/>
</g>
<!-- Node26 -->
<g id="node26" class="node">
<title>Node26</title>
<g id="a_node26"><a xlink:href="classdenoptim_1_1graph_1_1_attachment_point.html#a817a26666da5405c5e4d876729bfe549" target="_top" xlink:title="Checks the role of this AP in the user or in any user that might be external to the template embeddin...">
<polygon fill="white" stroke="black" points="1095,-104.5 1095,-134.5 1237,-134.5 1237,-104.5 1095,-104.5"/>
<text text-anchor="start" x="1103" y="-122.5" font-family="Helvetica,sans-Serif" font-size="10.00">denoptim.graph.Attachment</text>
<text text-anchor="middle" x="1166" y="-111.5" font-family="Helvetica,sans-Serif" font-size="10.00">Point.isSrcInUserThroughout</text>
</a>
</g>
</g>
<!-- Node3&#45;&gt;Node26 -->
<g id="edge31" class="edge">
<title>Node3&#45;&gt;Node26</title>
<path fill="none" stroke="midnightblue" d="M1299.51,-151.1C1276.78,-145.68 1251.92,-139.75 1229.93,-134.51"/>
<polygon fill="midnightblue" stroke="midnightblue" points="1298.91,-154.55 1309.45,-153.47 1300.53,-147.74 1298.91,-154.55"/>
</g>
<!-- Node6 -->
<g id="node6" class="node">
<title>Node6</title>
<g id="a_node6"><a xlink:href="classdenoptim_1_1graph_1_1_d_graph.html#ad38e8849839cb63835e727530ca124d9" target="_top" xlink:title="Checks if the Vertexs that are attached to two given AttachmentPoints apA and apB satisfy these condi...">
<polygon fill="white" stroke="black" points="879,-266.5 879,-296.5 1020,-296.5 1020,-266.5 879,-266.5"/>
<text text-anchor="start" x="887" y="-284.5" font-family="Helvetica,sans-Serif" font-size="10.00">denoptim.graph.DGraph.are</text>
<text text-anchor="middle" x="949.5" y="-273.5" font-family="Helvetica,sans-Serif" font-size="10.00">ApsUsedBySymmetricUsers</text>
</a>
</g>
</g>
<!-- Node5&#45;&gt;Node6 -->
<g id="edge6" class="edge">
<title>Node5&#45;&gt;Node6</title>
<path fill="none" stroke="midnightblue" d="M1083.26,-184.95C1078.23,-187.41 1073.42,-190.24 1069,-193.5 1044.57,-211.5 1056.55,-232.37 1033,-251.5 1025.55,-257.55 1016.77,-262.44 1007.76,-266.38"/>
<polygon fill="midnightblue" stroke="midnightblue" points="1084.76,-188.11 1092.52,-180.9 1081.95,-181.7 1084.76,-188.11"/>
</g>
<!-- Node10 -->
<g id="node10" class="node">
<title>Node10</title>
<g id="a_node10"><a xlink:href="classdenoptim_1_1graph_1_1_d_graph.html#aa46fb7d3a38e4c4401723a75f7c8d764" target="_top" xlink:title=" ">
<polygon fill="white" stroke="black" points="664.5,-228.5 664.5,-258.5 815.5,-258.5 815.5,-228.5 664.5,-228.5"/>
<text text-anchor="start" x="672.5" y="-246.5" font-family="Helvetica,sans-Serif" font-size="10.00">denoptim.graph.DGraph.find</text>
<text text-anchor="middle" x="740" y="-235.5" font-family="Helvetica,sans-Serif" font-size="10.00">SymmetrySetsOfChildVertexes</text>
</a>
</g>
</g>
<!-- Node5&#45;&gt;Node10 -->
<g id="edge16" class="edge">
<title>Node5&#45;&gt;Node10</title>
<path fill="none" stroke="midnightblue" d="M1085.61,-186.79C1079.91,-188.82 1074.31,-191.06 1069,-193.5 1051.3,-201.64 1051.32,-211.89 1033,-218.5 962.29,-244.01 875.93,-248.4 815.54,-247.55"/>
<polygon fill="midnightblue" stroke="midnightblue" points="1086.92,-190.04 1095.29,-183.54 1084.69,-183.4 1086.92,-190.04"/>
</g>
<!-- Node12 -->
<g id="node12" class="node">
<title>Node12</title>
<g id="a_node12"><a xlink:href="classdenoptim_1_1fragspace_1_1_a_p_map_finder.html#a5868844d747acb9bd5331c760a24ff09" target="_top" xlink:title="Compares the AttachmentPoint of two lists searching for all the APs of the second list that are &quot;comp...">
<polygon fill="white" stroke="black" points="866,-178.5 866,-208.5 1033,-208.5 1033,-178.5 866,-178.5"/>
<text text-anchor="start" x="874" y="-196.5" font-family="Helvetica,sans-Serif" font-size="10.00">denoptim.fragspace.APMap</text>
<text text-anchor="middle" x="949.5" y="-185.5" font-family="Helvetica,sans-Serif" font-size="10.00">Finder.findMappingCompatibileAPs</text>
</a>
</g>
</g>
<!-- Node5&#45;&gt;Node12 -->
<g id="edge13" class="edge">
<title>Node5&#45;&gt;Node12</title>
<path fill="none" stroke="midnightblue" d="M1082.93,-178.07C1066.59,-179.97 1049.42,-181.97 1033.07,-183.88"/>
<polygon fill="midnightblue" stroke="midnightblue" points="1083.45,-181.53 1092.98,-176.89 1082.64,-174.58 1083.45,-181.53"/>
</g>
<!-- Node15 -->
<g id="node15" class="node">
<title>Node15</title>
<g id="a_node15"><a xlink:href="classdenoptim_1_1graph_1_1_vertex.html#a2e2ffd927172ca1a4b1fce14c2c347b0" target="_top" xlink:title="Gets attachment points that are used by capping groups throughout the graph levels,...">
<polygon fill="white" stroke="black" points="885.5,-129.5 885.5,-159.5 1013.5,-159.5 1013.5,-129.5 885.5,-129.5"/>
<text text-anchor="start" x="893.5" y="-147.5" font-family="Helvetica,sans-Serif" font-size="10.00">denoptim.graph.Vertex.get</text>
<text text-anchor="middle" x="949.5" y="-136.5" font-family="Helvetica,sans-Serif" font-size="10.00">CappedAPsThroughout</text>
</a>
</g>
</g>
<!-- Node5&#45;&gt;Node15 -->
<g id="edge17" class="edge">
<title>Node5&#45;&gt;Node15</title>
<path fill="none" stroke="midnightblue" d="M1082.91,-159.32C1059.96,-156.75 1035.38,-154 1013.7,-151.57"/>
<polygon fill="midnightblue" stroke="midnightblue" points="1082.65,-162.81 1092.98,-160.44 1083.43,-155.85 1082.65,-162.81"/>
</g>
<!-- Node21 -->
<g id="node21" class="node">
<title>Node21</title>
<g id="a_node21"><a xlink:href="classdenoptim_1_1graph_1_1_attachment_point.html#aa3f954b074d8d8deef518821f13dcd24" target="_top" xlink:title="Checks if this and another APs are rooted on atoms that are bonded in any way other than a possible c...">
<polygon fill="white" stroke="black" points="878.5,-13.5 878.5,-43.5 1020.5,-43.5 1020.5,-13.5 878.5,-13.5"/>
<text text-anchor="start" x="886.5" y="-31.5" font-family="Helvetica,sans-Serif" font-size="10.00">denoptim.graph.Attachment</text>
<text text-anchor="middle" x="949.5" y="-20.5" font-family="Helvetica,sans-Serif" font-size="10.00">Point.hasConnectedSrcAtom</text>
</a>
</g>
</g>
<!-- Node5&#45;&gt;Node21 -->
<g id="edge23" class="edge">
<title>Node5&#45;&gt;Node21</title>
<path fill="none" stroke="midnightblue" d="M1083.14,-154.13C1078.06,-151.43 1073.28,-148.25 1069,-144.5 1036.29,-115.84 1065,-82.96 1033,-53.5 1028.82,-49.65 1024.06,-46.39 1018.98,-43.63"/>
<polygon fill="midnightblue" stroke="midnightblue" points="1082.01,-157.46 1092.56,-158.48 1084.95,-151.11 1082.01,-157.46"/>
</g>
<!-- Node25 -->
<g id="node25" class="node">
<title>Node25</title>
<g id="a_node25"><a xlink:href="classdenoptim_1_1graph_1_1_d_graph.html#a357b4099599e47ae47102123550771f8" target="_top" xlink:title="Remove a given vertex belonging to this graph and re&#45;connects the resulting graph branches as much as...">
<polygon fill="white" stroke="black" points="873.5,-62.5 873.5,-92.5 1025.5,-92.5 1025.5,-62.5 873.5,-62.5"/>
<text text-anchor="start" x="881.5" y="-80.5" font-family="Helvetica,sans-Serif" font-size="10.00">denoptim.graph.DGraph.remove</text>
<text text-anchor="middle" x="949.5" y="-69.5" font-family="Helvetica,sans-Serif" font-size="10.00">SingleVertexAndWeld</text>
</a>
</g>
</g>
<!-- Node5&#45;&gt;Node25 -->
<g id="edge28" class="edge">
<title>Node5&#45;&gt;Node25</title>
<path fill="none" stroke="midnightblue" d="M1083.6,-150.26C1078.59,-148.49 1073.69,-146.58 1069,-144.5 1051.41,-136.72 1049.55,-130.29 1033,-120.5 1016.32,-110.63 997.15,-100.57 981.49,-92.66"/>
<polygon fill="midnightblue" stroke="midnightblue" points="1082.71,-153.66 1093.31,-153.48 1084.91,-147.01 1082.71,-153.66"/>
</g>
<!-- Node7 -->
<g id="node7" class="node">
<title>Node7</title>
<g id="a_node7"><a xlink:href="classdenoptim_1_1graph_1_1_d_graph.html#aff06be9fc2508e591352e7ae46260721" target="_top" xlink:title="Tries to determine the set of symmetric vertices in this graph based on finding compatible Vertexes t...">
<polygon fill="white" stroke="black" points="455.5,-276.5 455.5,-306.5 602.5,-306.5 602.5,-276.5 455.5,-276.5"/>
<text text-anchor="start" x="463.5" y="-294.5" font-family="Helvetica,sans-Serif" font-size="10.00">denoptim.graph.DGraph.detect</text>
<text text-anchor="middle" x="529" y="-283.5" font-family="Helvetica,sans-Serif" font-size="10.00">SymVertexSets</text>
</a>
</g>
</g>
<!-- Node6&#45;&gt;Node7 -->
<g id="edge7" class="edge">
<title>Node6&#45;&gt;Node7</title>
<path fill="none" stroke="midnightblue" d="M868.82,-283.4C792.03,-285.24 676.85,-287.99 602.55,-289.77"/>
<polygon fill="midnightblue" stroke="midnightblue" points="869.01,-286.9 878.92,-283.16 868.84,-279.9 869.01,-286.9"/>
</g>
<!-- Node6&#45;&gt;Node10 -->
<g id="edge10" class="edge">
<title>Node6&#45;&gt;Node10</title>
<path fill="none" stroke="midnightblue" d="M868.72,-266.89C851.34,-263.71 833.01,-260.35 815.83,-257.2"/>
<polygon fill="midnightblue" stroke="midnightblue" points="868.36,-270.38 878.83,-268.74 869.62,-263.5 868.36,-270.38"/>
</g>
<!-- Node8 -->
<g id="node8" class="node">
<title>Node8</title>
<g id="a_node8"><a xlink:href="classdenoptim_1_1ga_1_1_e_a_utils.html#a18eb5d0ba6772e9116176ef6ca9f84fc" target="_top" xlink:title="Converts a molecule into a DGraph by fragmentation and re&#45;assembling of the fragments.">
<polygon fill="white" stroke="black" points="235,-300.5 235,-330.5 389,-330.5 389,-300.5 235,-300.5"/>
<text text-anchor="start" x="243" y="-318.5" font-family="Helvetica,sans-Serif" font-size="10.00">denoptim.ga.EAUtils.make</text>
<text text-anchor="middle" x="312" y="-307.5" font-family="Helvetica,sans-Serif" font-size="10.00">GraphFromFragmentationOfMol</text>
</a>
</g>
</g>
<!-- Node7&#45;&gt;Node8 -->
<g id="edge8" class="edge">
<title>Node7&#45;&gt;Node8</title>
<path fill="none" stroke="midnightblue" d="M445.08,-300.76C426.64,-302.81 407.17,-304.99 389.02,-307.01"/>
<polygon fill="midnightblue" stroke="midnightblue" points="445.66,-304.21 455.21,-299.63 444.88,-297.26 445.66,-304.21"/>
</g>
<!-- Node9 -->
<g id="node9" class="node">
<title>Node9</title>
<g id="a_node9"><a xlink:href="classdenoptim_1_1graph_1_1_d_graph_test.html#a05b87ffb43b9710fcea83b0777654e27" target="_top" xlink:title=" ">
<polygon fill="white" stroke="black" points="234,-251.5 234,-281.5 390,-281.5 390,-251.5 234,-251.5"/>
<text text-anchor="start" x="242" y="-269.5" font-family="Helvetica,sans-Serif" font-size="10.00">denoptim.graph.DGraphTest.test</text>
<text text-anchor="middle" x="312" y="-258.5" font-family="Helvetica,sans-Serif" font-size="10.00">DetectSymVertexSets</text>
</a>
</g>
</g>
<!-- Node7&#45;&gt;Node9 -->
<g id="edge9" class="edge">
<title>Node7&#45;&gt;Node9</title>
<path fill="none" stroke="midnightblue" d="M445.26,-281.88C427.14,-279.77 408.02,-277.55 390.13,-275.47"/>
<polygon fill="midnightblue" stroke="midnightblue" points="444.87,-285.36 455.21,-283.04 445.68,-278.4 444.87,-285.36"/>
</g>
<!-- Node10&#45;&gt;Node7 -->
<g id="edge11" class="edge">
<title>Node10&#45;&gt;Node7</title>
<path fill="none" stroke="midnightblue" d="M663.66,-260.8C641.29,-265.94 616.99,-271.52 595.32,-276.5"/>
<polygon fill="midnightblue" stroke="midnightblue" points="664.48,-264.21 673.44,-258.56 662.91,-257.38 664.48,-264.21"/>
</g>
<!-- Node11 -->
<g id="node11" class="node">
<title>Node11</title>
<g id="a_node11"><a xlink:href="classdenoptim_1_1graph_1_1_d_graph_test.html#ac02ab6b199aee9280e88a14d0026a175" target="_top" xlink:title=" ">
<polygon fill="white" stroke="black" points="444,-227.5 444,-257.5 614,-257.5 614,-227.5 444,-227.5"/>
<text text-anchor="start" x="452" y="-245.5" font-family="Helvetica,sans-Serif" font-size="10.00">denoptim.graph.DGraphTest.test</text>
<text text-anchor="middle" x="529" y="-234.5" font-family="Helvetica,sans-Serif" font-size="10.00">FindSymmetrySetsOfChildVertexes</text>
</a>
</g>
</g>
<!-- Node10&#45;&gt;Node11 -->
<g id="edge12" class="edge">
<title>Node10&#45;&gt;Node11</title>
<path fill="none" stroke="midnightblue" d="M654.39,-243.1C641.12,-243.03 627.4,-242.97 614.14,-242.9"/>
<polygon fill="midnightblue" stroke="midnightblue" points="654.41,-246.6 664.43,-243.14 654.45,-239.6 654.41,-246.6"/>
</g>
<!-- Node13 -->
<g id="node13" class="node">
<title>Node13</title>
<g id="a_node13"><a xlink:href="classdenoptim_1_1fragspace_1_1_a_p_map_finder.html#ae5c8afa4b7defd6ce35df0fa1c5facf2" target="_top" xlink:title="Searches for mappings between the AttachmentPoints on the two lists.">
<polygon fill="white" stroke="black" points="672,-178.5 672,-208.5 808,-208.5 808,-178.5 672,-178.5"/>
<text text-anchor="start" x="680" y="-196.5" font-family="Helvetica,sans-Serif" font-size="10.00">denoptim.fragspace.APMap</text>
<text text-anchor="middle" x="740" y="-185.5" font-family="Helvetica,sans-Serif" font-size="10.00">Finder.findAllMappings</text>
</a>
</g>
</g>
<!-- Node12&#45;&gt;Node13 -->
<g id="edge14" class="edge">
<title>Node12&#45;&gt;Node13</title>
<path fill="none" stroke="midnightblue" d="M855.46,-193.5C839.47,-193.5 823.14,-193.5 808.01,-193.5"/>
<polygon fill="midnightblue" stroke="midnightblue" points="855.89,-197 865.89,-193.5 855.89,-190 855.89,-197"/>
</g>
<!-- Node14 -->
<g id="node14" class="node">
<title>Node14</title>
<g id="a_node14"><a xlink:href="classdenoptim_1_1fragspace_1_1_a_p_map_finder.html#ada1b2c2155faeefced1d9a64f82a6668" target="_top" xlink:title="Constructor that launches the search for a mapping between the AttachmentPoints on the first vertex t...">
<polygon fill="white" stroke="black" points="461,-178.5 461,-208.5 597,-208.5 597,-178.5 461,-178.5"/>
<text text-anchor="start" x="469" y="-196.5" font-family="Helvetica,sans-Serif" font-size="10.00">denoptim.fragspace.APMap</text>
<text text-anchor="middle" x="529" y="-185.5" font-family="Helvetica,sans-Serif" font-size="10.00">Finder.APMapFinder</text>
</a>
</g>
</g>
<!-- Node13&#45;&gt;Node14 -->
<g id="edge15" class="edge">
<title>Node13&#45;&gt;Node14</title>
<path fill="none" stroke="midnightblue" d="M661.49,-193.5C640.36,-193.5 617.65,-193.5 597.15,-193.5"/>
<polygon fill="midnightblue" stroke="midnightblue" points="661.72,-197 671.72,-193.5 661.72,-190 661.72,-197"/>
</g>
<!-- Node16 -->
<g id="node16" class="node">
<title>Node16</title>
<g id="a_node16"><a xlink:href="classdenoptim_1_1graph_1_1_vertex.html#ab96b76e89a6ca31a68c9f43466f9c5a9" target="_top" xlink:title="Counts the number of attachment points that are used by BBType#CAP vertex.">
<polygon fill="white" stroke="black" points="671.5,-129.5 671.5,-159.5 808.5,-159.5 808.5,-129.5 671.5,-129.5"/>
<text text-anchor="start" x="679.5" y="-147.5" font-family="Helvetica,sans-Serif" font-size="10.00">denoptim.graph.Vertex.get</text>
<text text-anchor="middle" x="740" y="-136.5" font-family="Helvetica,sans-Serif" font-size="10.00">CappedAPCountThroughout</text>
</a>
</g>
</g>
<!-- Node15&#45;&gt;Node16 -->
<g id="edge18" class="edge">
<title>Node15&#45;&gt;Node16</title>
<path fill="none" stroke="midnightblue" d="M875.29,-144.5C853.67,-144.5 830.12,-144.5 808.85,-144.5"/>
<polygon fill="midnightblue" stroke="midnightblue" points="875.4,-148 885.4,-144.5 875.4,-141 875.4,-148"/>
</g>
<!-- Node17 -->
<g id="node17" class="node">
<title>Node17</title>
<g id="a_node17"><a xlink:href="classdenoptim_1_1graph_1_1_vertex.html#a5c6af6108f5caedf3641ef2ed383f954" target="_top" xlink:title="Returns the list of mutation types.">
<polygon fill="white" stroke="black" points="465,-129.5 465,-159.5 593,-159.5 593,-129.5 465,-129.5"/>
<text text-anchor="start" x="473" y="-147.5" font-family="Helvetica,sans-Serif" font-size="10.00">denoptim.graph.Vertex.get</text>
<text text-anchor="middle" x="529" y="-136.5" font-family="Helvetica,sans-Serif" font-size="10.00">MutationTypes</text>
</a>
</g>
</g>
<!-- Node16&#45;&gt;Node17 -->
<g id="edge19" class="edge">
<title>Node16&#45;&gt;Node17</title>
<path fill="none" stroke="midnightblue" d="M661.25,-144.5C638.78,-144.5 614.54,-144.5 593.08,-144.5"/>
<polygon fill="midnightblue" stroke="midnightblue" points="661.43,-148 671.43,-144.5 661.43,-141 661.43,-148"/>
</g>
<!-- Node18 -->
<g id="node18" class="node">
<title>Node18</title>
<g id="a_node18"><a xlink:href="classdenoptim_1_1graph_1_1_d_graph.html#af404e25092eabcdfbe69b5d7204e9483" target="_top" xlink:title="Mutates the graph by removing the chain where a given vertex is located up to the first branching (i....">
<polygon fill="white" stroke="black" points="453,-80.5 453,-110.5 605,-110.5 605,-80.5 453,-80.5"/>
<text text-anchor="start" x="461" y="-98.5" font-family="Helvetica,sans-Serif" font-size="10.00">denoptim.graph.DGraph.remove</text>
<text text-anchor="middle" x="529" y="-87.5" font-family="Helvetica,sans-Serif" font-size="10.00">ChainUpToBranching</text>
</a>
</g>
</g>
<!-- Node16&#45;&gt;Node18 -->
<g id="edge20" class="edge">
<title>Node16&#45;&gt;Node18</title>
<path fill="none" stroke="midnightblue" d="M665.08,-127.17C641.87,-121.73 616.46,-115.77 594.01,-110.51"/>
<polygon fill="midnightblue" stroke="midnightblue" points="664.34,-130.59 674.87,-129.47 665.94,-123.78 664.34,-130.59"/>
</g>
<!-- Node19 -->
<g id="node19" class="node">
<title>Node19</title>
<g id="a_node19"><a xlink:href="classdenoptim_1_1ga_1_1_graph_operations.html#afd659e74a056d1a6ae6f52513fee0be3" target="_top" xlink:title="Deletes the given vertex and all other vertexes that are not connected to more than 2 non&#45;capping gro...">
<polygon fill="white" stroke="black" points="225.5,-80.5 225.5,-110.5 398.5,-110.5 398.5,-80.5 225.5,-80.5"/>
<text text-anchor="start" x="233.5" y="-98.5" font-family="Helvetica,sans-Serif" font-size="10.00">denoptim.ga.GraphOperations.delete</text>
<text text-anchor="middle" x="312" y="-87.5" font-family="Helvetica,sans-Serif" font-size="10.00">Chain</text>
</a>
</g>
</g>
<!-- Node18&#45;&gt;Node19 -->
<g id="edge21" class="edge">
<title>Node18&#45;&gt;Node19</title>
<path fill="none" stroke="midnightblue" d="M442.46,-95.5C428.1,-95.5 413.19,-95.5 398.82,-95.5"/>
<polygon fill="midnightblue" stroke="midnightblue" points="442.8,-99 452.8,-95.5 442.8,-92 442.8,-99"/>
</g>
<!-- Node20 -->
<g id="node20" class="node">
<title>Node20</title>
<g id="a_node20"><a xlink:href="classdenoptim_1_1ga_1_1_graph_operations.html#a0c851972015fbb4b2a317b053b8b81d9" target="_top" xlink:title="Mutates the given vertex according to the given mutation type, if possible.">
<polygon fill="white" stroke="black" points="0,-58.5 0,-88.5 180,-88.5 180,-58.5 0,-58.5"/>
<text text-anchor="start" x="8" y="-76.5" font-family="Helvetica,sans-Serif" font-size="10.00">denoptim.ga.GraphOperations.perform</text>
<text text-anchor="middle" x="90" y="-65.5" font-family="Helvetica,sans-Serif" font-size="10.00">Mutation</text>
</a>
</g>
</g>
<!-- Node19&#45;&gt;Node20 -->
<g id="edge22" class="edge">
<title>Node19&#45;&gt;Node20</title>
<path fill="none" stroke="midnightblue" d="M215.14,-85.91C203.49,-84.75 191.63,-83.56 180.08,-82.41"/>
<polygon fill="midnightblue" stroke="midnightblue" points="215.01,-89.42 225.31,-86.93 215.71,-82.45 215.01,-89.42"/>
</g>
<!-- Node22 -->
<g id="node22" class="node">
<title>Node22</title>
<g id="a_node22"><a xlink:href="classdenoptim_1_1graph_1_1_d_graph.html#a00209ca8b4a9623b41e7d9e1e62f69ec" target="_top" xlink:title="Remove a given vertex belonging to this graph and re&#45;connects the resulting graph branches as much as...">
<polygon fill="white" stroke="black" points="664,-49.5 664,-79.5 816,-79.5 816,-49.5 664,-49.5"/>
<text text-anchor="start" x="672" y="-67.5" font-family="Helvetica,sans-Serif" font-size="10.00">denoptim.graph.DGraph.remove</text>
<text text-anchor="middle" x="740" y="-56.5" font-family="Helvetica,sans-Serif" font-size="10.00">VertexAndWeld</text>
</a>
</g>
</g>
<!-- Node21&#45;&gt;Node22 -->
<g id="edge24" class="edge">
<title>Node21&#45;&gt;Node22</title>
<path fill="none" stroke="midnightblue" d="M868.28,-42.42C851.14,-45.39 833.09,-48.52 816.15,-51.46"/>
<polygon fill="midnightblue" stroke="midnightblue" points="869,-45.85 878.25,-40.69 867.8,-38.95 869,-45.85"/>
</g>
<!-- Node24 -->
<g id="node24" class="node">
<title>Node24</title>
<g id="a_node24"><a xlink:href="classdenoptim_1_1graph_1_1_attachment_point_test.html#af88d30ce68477984fe6179325d1540b2" target="_top" xlink:title=" ">
<polygon fill="white" stroke="black" points="650,-0.5 650,-30.5 830,-30.5 830,-0.5 650,-0.5"/>
<text text-anchor="start" x="658" y="-18.5" font-family="Helvetica,sans-Serif" font-size="10.00">denoptim.graph.Attachment</text>
<text text-anchor="middle" x="740" y="-7.5" font-family="Helvetica,sans-Serif" font-size="10.00">PointTest.testHasConnectedSrcAtom</text>
</a>
</g>
</g>
<!-- Node21&#45;&gt;Node24 -->
<g id="edge27" class="edge">
<title>Node21&#45;&gt;Node24</title>
<path fill="none" stroke="midnightblue" d="M868,-23.46C855.65,-22.68 842.83,-21.88 830.31,-21.1"/>
<polygon fill="midnightblue" stroke="midnightblue" points="868.05,-26.97 878.25,-24.1 868.49,-19.98 868.05,-26.97"/>
</g>
<!-- Node23 -->
<g id="node23" class="node">
<title>Node23</title>
<g id="a_node23"><a xlink:href="classdenoptim_1_1ga_1_1_graph_operations.html#ab3adb5141a8941bf23916bb516faee63" target="_top" xlink:title="Removes a vertex while merging as many of the child branches into the parent vertex.">
<polygon fill="white" stroke="black" points="216,-42 216,-61 408,-61 408,-42 216,-42"/>
<text text-anchor="middle" x="312" y="-49" font-family="Helvetica,sans-Serif" font-size="10.00">denoptim.ga.GraphOperations.deleteLink</text>
</a>
</g>
</g>
<!-- Node22&#45;&gt;Node23 -->
<g id="edge25" class="edge">
<title>Node22&#45;&gt;Node23</title>
<path fill="none" stroke="midnightblue" d="M653.58,-61.89C582.66,-59.73 481.86,-56.65 408.33,-54.41"/>
<polygon fill="midnightblue" stroke="midnightblue" points="653.72,-65.4 663.82,-62.21 653.93,-58.4 653.72,-65.4"/>
</g>
<!-- Node23&#45;&gt;Node20 -->
<g id="edge26" class="edge">
<title>Node23&#45;&gt;Node20</title>
<path fill="none" stroke="midnightblue" d="M205.75,-62.03C197.17,-62.88 188.56,-63.74 180.11,-64.59"/>
<polygon fill="midnightblue" stroke="midnightblue" points="206.18,-65.5 215.78,-61.02 205.49,-58.53 206.18,-65.5"/>
</g>
<!-- Node25&#45;&gt;Node22 -->
<g id="edge30" class="edge">
<title>Node25&#45;&gt;Node22</title>
<path fill="none" stroke="midnightblue" d="M863.18,-72.15C847.64,-71.18 831.52,-70.17 816.3,-69.22"/>
<polygon fill="midnightblue" stroke="midnightblue" points="863.1,-75.66 873.29,-72.79 863.53,-68.67 863.1,-75.66"/>
</g>
<!-- Node25&#45;&gt;Node25 -->
<g id="edge29" class="edge">
<title>Node25&#45;&gt;Node25</title>
<path fill="none" stroke="midnightblue" d="M986.46,-102.96C981.87,-107.68 969.55,-111 949.5,-111 916.59,-111 904.51,-102.06 913.25,-92.66"/>
<polygon fill="midnightblue" stroke="midnightblue" points="989.93,-102.39 985.75,-92.66 982.95,-102.88 989.93,-102.39"/>
</g>
<!-- Node27&#45;&gt;Node27 -->
<g id="edge33" class="edge">
<title>Node27&#45;&gt;Node27</title>
<path fill="none" stroke="midnightblue" d="M1405.48,-126.96C1401.51,-131.68 1390.85,-135 1373.5,-135 1345.02,-135 1334.57,-126.06 1342.13,-116.66"/>
<polygon fill="midnightblue" stroke="midnightblue" points="1408.96,-126.43 1404.87,-116.66 1401.97,-126.85 1408.96,-126.43"/>
</g>
</g>
</svg>
