<?xml version="1.0" encoding="UTF-8" standalone="no"?>
<!DOCTYPE svg PUBLIC "-//W3C//DTD SVG 1.1//EN"
 "http://www.w3.org/Graphics/SVG/1.1/DTD/svg11.dtd">
<!-- Generated by graphviz version 3.0.0 (20221109.1736)
 -->
<!-- Title: denoptim.graph.simplified.UndirectedEdge Pages: 1 -->
<!--zoomable 854 -->
<svg id="main" version="1.1" xmlns="http://www.w3.org/2000/svg" xmlns:xlink="http://www.w3.org/1999/xlink" xml:space="preserve" onload="init(evt)">
<style type="text/css"><![CDATA[
.edge:hover path { stroke: red; }
.edge:hover polygon { stroke: red; fill: red; }
]]></style>
<script type="text/javascript"><![CDATA[
var edges = document.getElementsByTagName('g');
if (edges && edges.length) {
  for (var i=0;i<edges.length;i++) {
    if (edges[i].id.substr(0,4)=='edge') {
      edges[i].setAttribute('class','edge');
    }
  }
}
]]></script>
        <defs>
                <circle id="rim" cx="0" cy="0" r="7"/>
                <circle id="rim2" cx="0" cy="0" r="3.5"/>
                <g id="zoomPlus">
                        <use xlink:href="#rim" fill="#404040">
                                <set attributeName="fill" to="#808080" begin="zoomplus.mouseover" end="zoomplus.mouseout"/>
                        </use>
                        <path d="M-4,0h8M0,-4v8" fill="none" stroke="white" stroke-width="1.5" pointer-events="none"/>
                </g>
                <g id="zoomMin">
                        <use xlink:href="#rim" fill="#404040">
                                <set attributeName="fill" to="#808080" begin="zoomminus.mouseover" end="zoomminus.mouseout"/>
                        </use>
                        <path d="M-4,0h8" fill="none" stroke="white" stroke-width="1.5" pointer-events="none"/>
                </g>
                <g id="dirArrow">
                        <path fill="none" stroke="white" stroke-width="1.5" d="M0,-3.0v7 M-2.5,-0.5L0,-3.0L2.5,-0.5"/>
                </g>
               <g id="resetDef">
                       <use xlink:href="#rim2" fill="#404040">
                               <set attributeName="fill" to="#808080" begin="reset.mouseover" end="reset.mouseout"/>
                       </use>
               </g>
        </defs>

<script type="text/javascript">
var viewWidth = 1316;
var viewHeight = 854;
var sectionId = 'dynsection-0';
</script>
<script xlink:href="svgpan.js"/>
<svg id="graph" class="graph">
<g id="viewport">
<title>denoptim.graph.simplified.UndirectedEdge</title>
<polygon fill="white" stroke="transparent" points="-4,4 -4,-849.92 1312,-849.92 1312,4 -4,4"/>
<!-- Node1 -->
<g id="node1" class="node">
<title>Node1</title>
<g id="a_node1"><a xlink:title="This class represents an undirected version of the edge between two vertices.">
<polygon fill="#bfbfbf" stroke="black" points="971,-61.38 971,-91.38 1099,-91.38 1099,-61.38 971,-61.38"/>
<text text-anchor="start" x="979" y="-79.38" font-family="Helvetica,sans-Serif" font-size="10.00">denoptim.graph.simplified.</text>
<text text-anchor="middle" x="1035" y="-68.38" font-family="Helvetica,sans-Serif" font-size="10.00">UndirectedEdge</text>
</a>
</g>
</g>
<!-- Node2 -->
<g id="node2" class="node">
<title>Node2</title>
<g id="a_node2"><a xlink:href="classdenoptim_1_1graph_1_1_attachment_point.html" target="_top" xlink:title="An attachment point (AP) is a possibility to attach a Vertex onto the vertex holding the AP (i....">
<polygon fill="white" stroke="black" points="708,-194.38 708,-224.38 843,-224.38 843,-194.38 708,-194.38"/>
<text text-anchor="start" x="716" y="-212.38" font-family="Helvetica,sans-Serif" font-size="10.00">denoptim.graph.Attachment</text>
<text text-anchor="middle" x="775.5" y="-201.38" font-family="Helvetica,sans-Serif" font-size="10.00">Point</text>
</a>
</g>
</g>
<!-- Node2&#45;&gt;Node1 -->
<g id="edge1" class="edge">
<title>Node2&#45;&gt;Node1</title>
<path fill="none" stroke="#9a32cd" stroke-dasharray="5,2" d="M810.83,-189.31C831.56,-177.38 858.59,-162.14 883,-149.38 923.26,-128.34 970.52,-105.83 1001.31,-91.46"/>
<polygon fill="#9a32cd" stroke="#9a32cd" points="808.98,-186.34 802.08,-194.37 812.49,-192.4 808.98,-186.34"/>
<text text-anchor="middle" x="918" y="-163.38" font-family="Helvetica,sans-Serif" font-size="10.00"> apA</text>
<text text-anchor="middle" x="918" y="-152.38" font-family="Helvetica,sans-Serif" font-size="10.00">apB</text>
</g>
<!-- Node35 -->
<g id="node35" class="node">
<title>Node35</title>
<g id="a_node35"><a xlink:href="classdenoptim_1_1graph_1_1_edge.html" target="_top" xlink:title="This class represents the edge between two vertices.">
<polygon fill="white" stroke="black" points="981.5,-202.88 981.5,-221.88 1088.5,-221.88 1088.5,-202.88 981.5,-202.88"/>
<text text-anchor="middle" x="1035" y="-209.88" font-family="Helvetica,sans-Serif" font-size="10.00">denoptim.graph.Edge</text>
</a>
</g>
</g>
<!-- Node2&#45;&gt;Node35 -->
<g id="edge43" class="edge">
<title>Node2&#45;&gt;Node35</title>
<path fill="none" stroke="#9a32cd" stroke-dasharray="5,2" d="M853.19,-210.27C894.54,-210.75 944.51,-211.34 981.43,-211.77"/>
<polygon fill="#9a32cd" stroke="#9a32cd" points="853.19,-206.77 843.15,-210.16 853.11,-213.77 853.19,-206.77"/>
<text text-anchor="middle" x="918" y="-225.38" font-family="Helvetica,sans-Serif" font-size="10.00"> srcAP</text>
<text text-anchor="middle" x="918" y="-214.38" font-family="Helvetica,sans-Serif" font-size="10.00">trgAP</text>
</g>
<!-- Node3 -->
<g id="node3" class="node">
<title>Node3</title>
<g id="a_node3"><a xlink:title=" ">
<polygon fill="white" stroke="black" points="143.5,-312.88 143.5,-331.88 202.5,-331.88 202.5,-312.88 143.5,-312.88"/>
<text text-anchor="middle" x="173" y="-319.88" font-family="Helvetica,sans-Serif" font-size="10.00">Cloneable</text>
</a>
</g>
</g>
<!-- Node3&#45;&gt;Node2 -->
<g id="edge2" class="edge">
<title>Node3&#45;&gt;Node2</title>
<path fill="none" stroke="midnightblue" d="M212.54,-315.13C312.64,-296.29 581.82,-245.64 707.79,-221.93"/>
<polygon fill="midnightblue" stroke="midnightblue" points="211.74,-311.72 202.56,-317.01 213.03,-318.6 211.74,-311.72"/>
</g>
<!-- Node5 -->
<g id="node5" class="node">
<title>Node5</title>
<g id="a_node5"><a xlink:href="classdenoptim_1_1graph_1_1_a_p_class.html" target="_top" xlink:title=" ">
<polygon fill="white" stroke="black" points="430.5,-129.88 430.5,-148.88 553.5,-148.88 553.5,-129.88 430.5,-129.88"/>
<text text-anchor="middle" x="492" y="-136.88" font-family="Helvetica,sans-Serif" font-size="10.00">denoptim.graph.APClass</text>
</a>
</g>
</g>
<!-- Node3&#45;&gt;Node5 -->
<g id="edge5" class="edge">
<title>Node3&#45;&gt;Node5</title>
<path fill="none" stroke="midnightblue" d="M190.38,-305.27C208.8,-287.03 240.42,-258.57 273,-242.38 322.61,-217.72 353.31,-249.99 394,-212.38 412.58,-195.21 393.36,-175.49 412,-158.38 417.3,-153.51 423.62,-149.83 430.35,-147.06"/>
<polygon fill="midnightblue" stroke="midnightblue" points="187.65,-303.06 183.11,-312.63 192.63,-307.98 187.65,-303.06"/>
</g>
<!-- Node12 -->
<g id="node12" class="node">
<title>Node12</title>
<g id="a_node12"><a xlink:href="classdenoptim_1_1graph_1_1_vertex.html" target="_top" xlink:title="A vertex is a data structure that has an identity and holds a list of AttachmentPoints.">
<polygon fill="white" stroke="black" points="435.5,-488.88 435.5,-507.88 548.5,-507.88 548.5,-488.88 435.5,-488.88"/>
<text text-anchor="middle" x="492" y="-495.88" font-family="Helvetica,sans-Serif" font-size="10.00">denoptim.graph.Vertex</text>
</a>
</g>
</g>
<!-- Node3&#45;&gt;Node12 -->
<g id="edge13" class="edge">
<title>Node3&#45;&gt;Node12</title>
<path fill="none" stroke="midnightblue" d="M200.42,-337.05C263.37,-372 420.91,-459.47 473.56,-488.7"/>
<polygon fill="midnightblue" stroke="midnightblue" points="201.94,-333.89 191.49,-332.09 198.54,-340.01 201.94,-333.89"/>
</g>
<!-- Node13 -->
<g id="node13" class="node">
<title>Node13</title>
<g id="a_node13"><a xlink:href="classdenoptim_1_1graph_1_1_d_graph.html" target="_top" xlink:title="Container for the list of vertices and the edges that connect them.">
<polygon fill="white" stroke="black" points="976,-497.88 976,-516.88 1094,-516.88 1094,-497.88 976,-497.88"/>
<text text-anchor="middle" x="1035" y="-504.88" font-family="Helvetica,sans-Serif" font-size="10.00">denoptim.graph.DGraph</text>
</a>
</g>
</g>
<!-- Node3&#45;&gt;Node13 -->
<g id="edge15" class="edge">
<title>Node3&#45;&gt;Node13</title>
<path fill="none" stroke="midnightblue" d="M212.54,-328.34C230.83,-331.04 253.01,-334.12 273,-336.38 535.38,-365.99 603.25,-351.61 865,-386.38 904.41,-391.61 919.04,-381.71 953,-402.38 992.14,-426.2 1019.37,-476.44 1029.56,-497.62"/>
<polygon fill="midnightblue" stroke="midnightblue" points="212.95,-324.86 202.54,-326.85 211.91,-331.79 212.95,-324.86"/>
</g>
<!-- Node19 -->
<g id="node19" class="node">
<title>Node19</title>
<g id="a_node19"><a xlink:href="classdenoptim_1_1graph_1_1_candidate.html" target="_top" xlink:title="A candidate is the combination of a denoptim graph with molecular representation and may include also...">
<polygon fill="white" stroke="black" points="1180,-463.88 1180,-482.88 1308,-482.88 1308,-463.88 1180,-463.88"/>
<text text-anchor="middle" x="1244" y="-470.88" font-family="Helvetica,sans-Serif" font-size="10.00">denoptim.graph.Candidate</text>
</a>
</g>
</g>
<!-- Node3&#45;&gt;Node19 -->
<g id="edge23" class="edge">
<title>Node3&#45;&gt;Node19</title>
<path fill="none" stroke="midnightblue" d="M212.81,-323.54C322.62,-326.52 630.07,-332.57 668,-308.38 683.08,-298.76 670.78,-281.78 686,-272.38 753.67,-230.55 785.46,-270.57 865,-272.38 904.14,-273.27 915.85,-264.02 953,-276.38 1077.75,-317.87 1198.44,-429.59 1233.11,-463.49"/>
<polygon fill="midnightblue" stroke="midnightblue" points="212.61,-320.04 202.51,-323.26 212.41,-327.03 212.61,-320.04"/>
</g>
<!-- Node4 -->
<g id="node4" class="node">
<title>Node4</title>
<g id="a_node4"><a xlink:title=" ">
<polygon fill="white" stroke="black" points="413,-167.88 413,-186.88 571,-186.88 571,-167.88 413,-167.88"/>
<text text-anchor="middle" x="492" y="-174.88" font-family="Helvetica,sans-Serif" font-size="10.00">Comparable&lt; AttachmentPoint &gt;</text>
</a>
</g>
</g>
<!-- Node4&#45;&gt;Node2 -->
<g id="edge3" class="edge">
<title>Node4&#45;&gt;Node2</title>
<path fill="none" stroke="midnightblue" d="M581.02,-187.38C621.96,-192.04 669.87,-197.49 707.77,-201.79"/>
<polygon fill="midnightblue" stroke="midnightblue" points="581.37,-183.9 571.04,-186.25 580.58,-190.86 581.37,-183.9"/>
</g>
<!-- Node5&#45;&gt;Node2 -->
<g id="edge4" class="edge">
<title>Node5&#45;&gt;Node2</title>
<path fill="none" stroke="#9a32cd" stroke-dasharray="5,2" d="M562.81,-150.73C595.06,-156.53 633.71,-164.3 668,-173.38 690.17,-179.25 714.42,-187.32 734.18,-194.33"/>
<polygon fill="#9a32cd" stroke="#9a32cd" points="563.04,-147.21 552.58,-148.91 561.82,-154.11 563.04,-147.21"/>
<text text-anchor="middle" x="629" y="-176.38" font-family="Helvetica,sans-Serif" font-size="10.00"> apClass</text>
</g>
<!-- Node6 -->
<g id="node6" class="node">
<title>Node6</title>
<g id="a_node6"><a xlink:title=" ">
<polygon fill="white" stroke="black" points="111.5,-194.88 111.5,-213.88 234.5,-213.88 234.5,-194.88 111.5,-194.88"/>
<text text-anchor="middle" x="173" y="-201.88" font-family="Helvetica,sans-Serif" font-size="10.00">Comparable&lt; APClass &gt;</text>
</a>
</g>
</g>
<!-- Node6&#45;&gt;Node5 -->
<g id="edge6" class="edge">
<title>Node6&#45;&gt;Node5</title>
<path fill="none" stroke="midnightblue" d="M244.74,-212.67C290.31,-214.61 349.19,-210.51 394,-184.38 406.14,-177.3 400.41,-166.32 412,-158.38 417.7,-154.47 424.12,-151.37 430.76,-148.9"/>
<polygon fill="midnightblue" stroke="midnightblue" points="244.81,-209.17 234.64,-212.13 244.44,-216.16 244.81,-209.17"/>
</g>
<!-- Node7 -->
<g id="node7" class="node">
<title>Node7</title>
<g id="a_node7"><a xlink:title=" ">
<polygon fill="white" stroke="black" points="95.5,-156.88 95.5,-175.88 250.5,-175.88 250.5,-156.88 95.5,-156.88"/>
<text text-anchor="middle" x="173" y="-163.88" font-family="Helvetica,sans-Serif" font-size="10.00">Set&lt; denoptim.graph.APClass &gt;</text>
</a>
</g>
</g>
<!-- Node7&#45;&gt;Node5 -->
<g id="edge7" class="edge">
<title>Node7&#45;&gt;Node5</title>
<path fill="none" stroke="#9a32cd" stroke-dasharray="5,2" d="M260.95,-158.97C314.69,-154.4 382.33,-148.64 430.32,-144.55"/>
<polygon fill="#9a32cd" stroke="#9a32cd" points="260.4,-155.51 250.74,-159.84 261,-162.48 260.4,-155.51"/>
<text text-anchor="middle" x="333.5" y="-172.38" font-family="Helvetica,sans-Serif" font-size="10.00"> RCAAPCLASSSET</text>
<text text-anchor="middle" x="333.5" y="-161.38" font-family="Helvetica,sans-Serif" font-size="10.00">uniqueAPClasses</text>
</g>
<!-- Node8 -->
<g id="node8" class="node">
<title>Node8</title>
<g id="a_node8"><a xlink:title=" ">
<polygon fill="white" stroke="black" points="105.5,-107.38 105.5,-137.38 240.5,-137.38 240.5,-107.38 105.5,-107.38"/>
<text text-anchor="start" x="113.5" y="-125.38" font-family="Helvetica,sans-Serif" font-size="10.00">HashMap&lt; denoptim.graph.</text>
<text text-anchor="middle" x="173" y="-114.38" font-family="Helvetica,sans-Serif" font-size="10.00">APClass, String &gt;</text>
</a>
</g>
</g>
<!-- Node8&#45;&gt;Node5 -->
<g id="edge8" class="edge">
<title>Node8&#45;&gt;Node5</title>
<path fill="none" stroke="#9a32cd" stroke-dasharray="5,2" d="M251.13,-126.01C293.34,-128.06 346.56,-130.73 394,-133.38 405.79,-134.04 418.39,-134.79 430.47,-135.52"/>
<polygon fill="#9a32cd" stroke="#9a32cd" points="251.08,-122.51 240.92,-125.52 250.74,-129.5 251.08,-122.51"/>
<text text-anchor="middle" x="333.5" y="-136.38" font-family="Helvetica,sans-Serif" font-size="10.00"> RCALABELPERAPCLASS</text>
</g>
<!-- Node9 -->
<g id="node9" class="node">
<title>Node9</title>
<g id="a_node9"><a xlink:href="enumdenoptim_1_1graph_1_1_edge_1_1_bond_type.html" target="_top" xlink:title="Possible chemical bond types an edge can represent.">
<polygon fill="white" stroke="black" points="97,-44.88 97,-63.88 249,-63.88 249,-44.88 97,-44.88"/>
<text text-anchor="middle" x="173" y="-51.88" font-family="Helvetica,sans-Serif" font-size="10.00">denoptim.graph.Edge.BondType</text>
</a>
</g>
</g>
<!-- Node9&#45;&gt;Node1 -->
<g id="edge46" class="edge">
<title>Node9&#45;&gt;Node1</title>
<path fill="none" stroke="#9a32cd" stroke-dasharray="5,2" d="M245.61,-43.56C254.82,-42.37 264.12,-41.27 273,-40.38 573.71,-10.16 659.61,32.16 953,-40.38 971.67,-45 991.42,-53.69 1006.75,-61.37"/>
<polygon fill="#9a32cd" stroke="#9a32cd" points="245.15,-40.09 235.7,-44.87 246.07,-47.03 245.15,-40.09"/>
<text text-anchor="middle" x="629" y="-6.38" font-family="Helvetica,sans-Serif" font-size="10.00"> bondType</text>
</g>
<!-- Node9&#45;&gt;Node5 -->
<g id="edge9" class="edge">
<title>Node9&#45;&gt;Node5</title>
<path fill="none" stroke="#9a32cd" stroke-dasharray="5,2" d="M241.16,-65.79C285.1,-73.97 343.51,-86.21 394,-101.38 420.5,-109.34 449.97,-121.36 469.4,-129.74"/>
<polygon fill="#9a32cd" stroke="#9a32cd" points="241.63,-62.31 231.16,-63.95 240.37,-69.2 241.63,-62.31"/>
<text text-anchor="middle" x="333.5" y="-115.38" font-family="Helvetica,sans-Serif" font-size="10.00"> DEFAULTBT</text>
<text text-anchor="middle" x="333.5" y="-104.38" font-family="Helvetica,sans-Serif" font-size="10.00">bndTyp</text>
</g>
<!-- Node9&#45;&gt;Node35 -->
<g id="edge44" class="edge">
<title>Node9&#45;&gt;Node35</title>
<path fill="none" stroke="#9a32cd" stroke-dasharray="5,2" d="M259.27,-60.06C300.05,-62.81 349.56,-66.19 394,-69.38 642.51,-87.19 764.85,51.94 953,-111.38 981.18,-135.84 945.65,-166 971,-193.38 974.57,-197.24 978.89,-200.32 983.58,-202.78"/>
<polygon fill="#9a32cd" stroke="#9a32cd" points="259.32,-56.55 249.1,-59.37 258.85,-63.53 259.32,-56.55"/>
<text text-anchor="middle" x="629" y="-58.38" font-family="Helvetica,sans-Serif" font-size="10.00"> bondType</text>
</g>
<!-- Node10 -->
<g id="node10" class="node">
<title>Node10</title>
<g id="a_node10"><a xlink:title=" ">
<polygon fill="white" stroke="black" points="0,-44.88 0,-63.88 42,-63.88 42,-44.88 0,-44.88"/>
<text text-anchor="middle" x="21" y="-51.88" font-family="Helvetica,sans-Serif" font-size="10.00">IBond</text>
</a>
</g>
</g>
<!-- Node10&#45;&gt;Node9 -->
<g id="edge10" class="edge">
<title>Node10&#45;&gt;Node9</title>
<path fill="none" stroke="#9a32cd" stroke-dasharray="5,2" d="M52.4,-54.38C65.37,-54.38 81.12,-54.38 96.89,-54.38"/>
<polygon fill="#9a32cd" stroke="#9a32cd" points="52.23,-50.88 42.23,-54.38 52.23,-57.88 52.23,-50.88"/>
<text text-anchor="middle" x="66.5" y="-57.38" font-family="Helvetica,sans-Serif" font-size="10.00"> bo</text>
</g>
<!-- Node11 -->
<g id="node11" class="node">
<title>Node11</title>
<g id="a_node11"><a xlink:title=" ">
<polygon fill="white" stroke="black" points="467,-205.88 467,-224.88 517,-224.88 517,-205.88 467,-205.88"/>
<text text-anchor="middle" x="492" y="-212.88" font-family="Helvetica,sans-Serif" font-size="10.00">Point3d</text>
</a>
</g>
</g>
<!-- Node11&#45;&gt;Node2 -->
<g id="edge11" class="edge">
<title>Node11&#45;&gt;Node2</title>
<path fill="none" stroke="#9a32cd" stroke-dasharray="5,2" d="M527.04,-214.65C571.67,-213.7 650.97,-212.01 707.78,-210.8"/>
<polygon fill="#9a32cd" stroke="#9a32cd" points="526.92,-211.16 517,-214.87 527.07,-218.15 526.92,-211.16"/>
<text text-anchor="middle" x="629" y="-215.38" font-family="Helvetica,sans-Serif" font-size="10.00"> dirVec</text>
</g>
<!-- Node12&#45;&gt;Node2 -->
<g id="edge12" class="edge">
<title>Node12&#45;&gt;Node2</title>
<path fill="none" stroke="#9a32cd" stroke-dasharray="5,2" d="M511.54,-481.74C528.04,-466.61 552.52,-443.34 572,-421.38 627.33,-359 626.03,-330.31 686,-272.38 705.4,-253.64 730.74,-236.18 749.33,-224.41"/>
<polygon fill="#9a32cd" stroke="#9a32cd" points="508.75,-479.55 503.7,-488.87 513.46,-484.73 508.75,-479.55"/>
<text text-anchor="middle" x="629" y="-399.38" font-family="Helvetica,sans-Serif" font-size="10.00"> owner</text>
</g>
<!-- Node22 -->
<g id="node22" class="node">
<title>Node22</title>
<g id="a_node22"><a xlink:href="classdenoptim_1_1graph_1_1_template.html" target="_top" xlink:title=" ">
<polygon fill="white" stroke="black" points="713,-759.88 713,-778.88 838,-778.88 838,-759.88 713,-759.88"/>
<text text-anchor="middle" x="775.5" y="-766.88" font-family="Helvetica,sans-Serif" font-size="10.00">denoptim.graph.Template</text>
</a>
</g>
</g>
<!-- Node12&#45;&gt;Node22 -->
<g id="edge27" class="edge">
<title>Node12&#45;&gt;Node22</title>
<path fill="none" stroke="midnightblue" d="M512.39,-514.93C548.1,-546.4 624.57,-618.51 668,-694.38 680.99,-717.07 666.62,-732.84 686,-750.38 693.57,-757.23 703.01,-761.83 712.87,-764.88"/>
<polygon fill="midnightblue" stroke="midnightblue" points="514.46,-512.1 504.62,-508.17 509.86,-517.37 514.46,-512.1"/>
</g>
<!-- Node13&#45;&gt;Node12 -->
<g id="edge14" class="edge">
<title>Node13&#45;&gt;Node12</title>
<path fill="none" stroke="#9a32cd" stroke-dasharray="5,2" d="M997.63,-494.46C963.8,-483.16 911.71,-467.62 865,-461.38 786.15,-450.84 765.2,-453.86 686,-461.38 631.66,-466.54 569.85,-479.7 531.14,-488.85"/>
<polygon fill="#9a32cd" stroke="#9a32cd" points="996.93,-497.91 1007.52,-497.81 999.18,-491.29 996.93,-497.91"/>
<text text-anchor="middle" x="775.5" y="-464.38" font-family="Helvetica,sans-Serif" font-size="10.00"> owner</text>
</g>
<!-- Node13&#45;&gt;Node19 -->
<g id="edge24" class="edge">
<title>Node13&#45;&gt;Node19</title>
<path fill="none" stroke="#9a32cd" stroke-dasharray="5,2" d="M1061.67,-493.07C1077.17,-485.26 1097.62,-476.39 1117,-472.38 1137.14,-468.21 1159.47,-467.24 1179.68,-467.68"/>
<polygon fill="#9a32cd" stroke="#9a32cd" points="1059.96,-490.02 1052.71,-497.75 1063.2,-496.23 1059.96,-490.02"/>
<text text-anchor="middle" x="1139.5" y="-475.38" font-family="Helvetica,sans-Serif" font-size="10.00"> graph</text>
</g>
<!-- Node13&#45;&gt;Node22 -->
<g id="edge28" class="edge">
<title>Node13&#45;&gt;Node22</title>
<path fill="none" stroke="#9a32cd" stroke-dasharray="5,2" d="M1032.58,-527.16C1028.4,-570.02 1012.43,-671.96 953,-726.38 923.1,-753.76 904.39,-740.79 865,-750.38 851.56,-753.65 836.91,-756.92 823.46,-759.8"/>
<polygon fill="#9a32cd" stroke="#9a32cd" points="1036.08,-527.2 1033.45,-516.94 1029.11,-526.61 1036.08,-527.2"/>
<text text-anchor="middle" x="918" y="-749.38" font-family="Helvetica,sans-Serif" font-size="10.00"> innerGraph</text>
</g>
<!-- Node14 -->
<g id="node14" class="node">
<title>Node14</title>
<g id="a_node14"><a xlink:title=" ">
<polygon fill="white" stroke="black" points="702.5,-319.88 702.5,-338.88 848.5,-338.88 848.5,-319.88 702.5,-319.88"/>
<text text-anchor="middle" x="775.5" y="-326.88" font-family="Helvetica,sans-Serif" font-size="10.00">List&lt; denoptim.graph.Vertex &gt;</text>
</a>
</g>
</g>
<!-- Node14&#45;&gt;Node13 -->
<g id="edge16" class="edge">
<title>Node14&#45;&gt;Node13</title>
<path fill="none" stroke="#9a32cd" stroke-dasharray="5,2" d="M843.89,-319.17C879.18,-317.35 921.48,-321.09 953,-342.38 1009.06,-380.24 1027.82,-468.55 1032.61,-497.79"/>
<polygon fill="#9a32cd" stroke="#9a32cd" points="843.4,-315.69 833.66,-319.85 843.87,-322.68 843.4,-315.69"/>
<text text-anchor="middle" x="918" y="-345.38" font-family="Helvetica,sans-Serif" font-size="10.00"> gVertices</text>
</g>
<!-- Node15 -->
<g id="node15" class="node">
<title>Node15</title>
<g id="a_node15"><a xlink:title=" ">
<polygon fill="white" stroke="black" points="705.5,-281.88 705.5,-300.88 845.5,-300.88 845.5,-281.88 705.5,-281.88"/>
<text text-anchor="middle" x="775.5" y="-288.88" font-family="Helvetica,sans-Serif" font-size="10.00">List&lt; denoptim.graph.Edge &gt;</text>
</a>
</g>
</g>
<!-- Node15&#45;&gt;Node13 -->
<g id="edge17" class="edge">
<title>Node15&#45;&gt;Node13</title>
<path fill="none" stroke="#9a32cd" stroke-dasharray="5,2" d="M836,-280.84C873.05,-277.63 919.81,-280.06 953,-304.38 1019.11,-352.82 1031.33,-464.04 1033.53,-497.61"/>
<polygon fill="#9a32cd" stroke="#9a32cd" points="835.41,-277.38 825.82,-281.88 836.13,-284.34 835.41,-277.38"/>
<text text-anchor="middle" x="918" y="-307.38" font-family="Helvetica,sans-Serif" font-size="10.00"> gEdges</text>
</g>
<!-- Node16 -->
<g id="node16" class="node">
<title>Node16</title>
<g id="a_node16"><a xlink:title=" ">
<polygon fill="white" stroke="black" points="707,-721.88 707,-740.88 844,-740.88 844,-721.88 707,-721.88"/>
<text text-anchor="middle" x="775.5" y="-728.88" font-family="Helvetica,sans-Serif" font-size="10.00">List&lt; denoptim.graph.Ring &gt;</text>
</a>
</g>
</g>
<!-- Node16&#45;&gt;Node13 -->
<g id="edge18" class="edge">
<title>Node16&#45;&gt;Node13</title>
<path fill="none" stroke="#9a32cd" stroke-dasharray="5,2" d="M854.17,-720.88C888.23,-712.71 926.41,-698.19 953,-672.38 1001.08,-625.7 1024.79,-544.57 1031.75,-516.93"/>
<polygon fill="#9a32cd" stroke="#9a32cd" points="853.21,-717.51 844.22,-723.12 854.74,-724.34 853.21,-717.51"/>
<text text-anchor="middle" x="918" y="-714.38" font-family="Helvetica,sans-Serif" font-size="10.00"> gRings</text>
</g>
<!-- Node17 -->
<g id="node17" class="node">
<title>Node17</title>
<g id="a_node17"><a xlink:title=" ">
<polygon fill="white" stroke="black" points="709,-672.38 709,-702.38 842,-702.38 842,-672.38 709,-672.38"/>
<text text-anchor="start" x="717" y="-690.38" font-family="Helvetica,sans-Serif" font-size="10.00">List&lt; denoptim.graph.rings.</text>
<text text-anchor="middle" x="775.5" y="-679.38" font-family="Helvetica,sans-Serif" font-size="10.00">ClosableChain &gt;</text>
</a>
</g>
</g>
<!-- Node17&#45;&gt;Node13 -->
<g id="edge19" class="edge">
<title>Node17&#45;&gt;Node13</title>
<path fill="none" stroke="#9a32cd" stroke-dasharray="5,2" d="M852.24,-670.38C885.89,-659.94 924.3,-643.76 953,-619.38 989.4,-588.46 1018.15,-537.94 1029.15,-516.97"/>
<polygon fill="#9a32cd" stroke="#9a32cd" points="851.01,-667.09 842.42,-673.3 853.01,-673.8 851.01,-667.09"/>
<text text-anchor="middle" x="918" y="-660.38" font-family="Helvetica,sans-Serif" font-size="10.00"> closableChains</text>
</g>
<!-- Node18 -->
<g id="node18" class="node">
<title>Node18</title>
<g id="a_node18"><a xlink:title=" ">
<polygon fill="white" stroke="black" points="697.5,-623.38 697.5,-653.38 853.5,-653.38 853.5,-623.38 697.5,-623.38"/>
<text text-anchor="start" x="705.5" y="-641.38" font-family="Helvetica,sans-Serif" font-size="10.00">List&lt; denoptim.graph.Symmetric</text>
<text text-anchor="middle" x="775.5" y="-630.38" font-family="Helvetica,sans-Serif" font-size="10.00">Vertexes &gt;</text>
</a>
</g>
</g>
<!-- Node18&#45;&gt;Node13 -->
<g id="edge20" class="edge">
<title>Node18&#45;&gt;Node13</title>
<path fill="none" stroke="#9a32cd" stroke-dasharray="5,2" d="M850.3,-620.05C855.33,-618.29 860.27,-616.4 865,-614.38 928.56,-587.25 995.42,-537.64 1022.05,-516.9"/>
<polygon fill="#9a32cd" stroke="#9a32cd" points="848.94,-616.82 840.55,-623.29 851.15,-623.46 848.94,-616.82"/>
<text text-anchor="middle" x="918" y="-607.38" font-family="Helvetica,sans-Serif" font-size="10.00"> symVertices</text>
</g>
<!-- Node19&#45;&gt;Node13 -->
<g id="edge21" class="edge">
<title>Node19&#45;&gt;Node13</title>
<path fill="none" stroke="#9a32cd" stroke-dasharray="5,2" d="M1175.2,-484.52C1148.94,-488.83 1119.18,-493.72 1093.94,-497.86"/>
<polygon fill="#9a32cd" stroke="#9a32cd" points="1175.78,-487.97 1185.08,-482.89 1174.64,-481.06 1175.78,-487.97"/>
<text text-anchor="middle" x="1139.5" y="-496.38" font-family="Helvetica,sans-Serif" font-size="10.00"> candidate</text>
</g>
<!-- Node20 -->
<g id="node20" class="node">
<title>Node20</title>
<g id="a_node20"><a xlink:title=" ">
<polygon fill="white" stroke="black" points="971,-164.88 971,-183.88 1099,-183.88 1099,-164.88 971,-164.88"/>
<text text-anchor="middle" x="1035" y="-171.88" font-family="Helvetica,sans-Serif" font-size="10.00">Comparable&lt; Candidate &gt;</text>
</a>
</g>
</g>
<!-- Node20&#45;&gt;Node19 -->
<g id="edge22" class="edge">
<title>Node20&#45;&gt;Node19</title>
<path fill="none" stroke="midnightblue" d="M1084.64,-187.22C1089.58,-189.06 1094.45,-191.12 1099,-193.38 1130.04,-208.83 1141.39,-211.5 1162,-239.38 1217.21,-314.04 1236.92,-429.3 1241.73,-463.49"/>
<polygon fill="midnightblue" stroke="midnightblue" points="1085.7,-183.89 1075.11,-183.93 1083.42,-190.5 1085.7,-183.89"/>
</g>
<!-- Node21 -->
<g id="node21" class="node">
<title>Node21</title>
<g id="a_node21"><a xlink:title=" ">
<polygon fill="white" stroke="black" points="450,-813.88 450,-832.88 534,-832.88 534,-813.88 450,-813.88"/>
<text text-anchor="middle" x="492" y="-820.88" font-family="Helvetica,sans-Serif" font-size="10.00">IAtomContainer</text>
</a>
</g>
</g>
<!-- Node21&#45;&gt;Node19 -->
<g id="edge25" class="edge">
<title>Node21&#45;&gt;Node19</title>
<path fill="none" stroke="#9a32cd" stroke-dasharray="5,2" d="M544.06,-832.83C632.44,-846.62 817.46,-864.01 953,-798.38 1106.48,-724.07 1214.59,-528.5 1238.17,-482.96"/>
<polygon fill="#9a32cd" stroke="#9a32cd" points="544.46,-829.35 534.03,-831.21 543.35,-836.26 544.46,-829.35"/>
<text text-anchor="middle" x="918" y="-826.38" font-family="Helvetica,sans-Serif" font-size="10.00"> iac</text>
</g>
<!-- Node21&#45;&gt;Node22 -->
<g id="edge29" class="edge">
<title>Node21&#45;&gt;Node22</title>
<path fill="none" stroke="#9a32cd" stroke-dasharray="5,2" d="M544.05,-813.32C558.87,-810.42 575.08,-807.26 590,-804.38 635.3,-795.65 686.89,-785.87 723.98,-778.88"/>
<polygon fill="#9a32cd" stroke="#9a32cd" points="543.19,-809.92 534.05,-815.28 544.54,-816.79 543.19,-809.92"/>
<text text-anchor="middle" x="629" y="-807.38" font-family="Helvetica,sans-Serif" font-size="10.00"> mol</text>
</g>
<!-- Node22&#45;&gt;Node13 -->
<g id="edge26" class="edge">
<title>Node22&#45;&gt;Node13</title>
<path fill="none" stroke="#9a32cd" stroke-dasharray="5,2" d="M824.47,-780.63C863.13,-786.74 916.84,-788.21 953,-760.38 1033.59,-698.35 1035.44,-555.48 1034.41,-517.05"/>
<polygon fill="#9a32cd" stroke="#9a32cd" points="824.93,-777.16 814.48,-778.89 823.74,-784.05 824.93,-777.16"/>
<text text-anchor="middle" x="918" y="-786.38" font-family="Helvetica,sans-Serif" font-size="10.00"> templateJacket</text>
</g>
<!-- Node23 -->
<g id="node23" class="node">
<title>Node23</title>
<g id="a_node23"><a xlink:href="enumdenoptim_1_1graph_1_1_template_1_1_contract_level.html" target="_top" xlink:title="Enum specifying to what extent the template&#39;s inner graph can be changed.">
<polygon fill="white" stroke="black" points="428,-671.38 428,-701.38 556,-701.38 556,-671.38 428,-671.38"/>
<text text-anchor="start" x="436" y="-689.38" font-family="Helvetica,sans-Serif" font-size="10.00">denoptim.graph.Template.</text>
<text text-anchor="middle" x="492" y="-678.38" font-family="Helvetica,sans-Serif" font-size="10.00">ContractLevel</text>
</a>
</g>
</g>
<!-- Node23&#45;&gt;Node22 -->
<g id="edge30" class="edge">
<title>Node23&#45;&gt;Node22</title>
<path fill="none" stroke="#9a32cd" stroke-dasharray="5,2" d="M566.21,-694.04C599.17,-700 637.45,-710.59 668,-729.38 678.47,-735.82 675.44,-744.09 686,-750.38 694.1,-755.2 703.27,-758.81 712.55,-761.5"/>
<polygon fill="#9a32cd" stroke="#9a32cd" points="566.61,-690.56 556.16,-692.34 565.43,-697.46 566.61,-690.56"/>
<text text-anchor="middle" x="629" y="-732.38" font-family="Helvetica,sans-Serif" font-size="10.00"> contractLevel</text>
</g>
<!-- Node24 -->
<g id="node24" class="node">
<title>Node24</title>
<g id="a_node24"><a xlink:title=" ">
<polygon fill="white" stroke="black" points="412,-720.38 412,-750.38 572,-750.38 572,-720.38 412,-720.38"/>
<text text-anchor="start" x="420" y="-738.38" font-family="Helvetica,sans-Serif" font-size="10.00">List&lt; denoptim.graph.Attachment</text>
<text text-anchor="middle" x="492" y="-727.38" font-family="Helvetica,sans-Serif" font-size="10.00">Point &gt;</text>
</a>
</g>
</g>
<!-- Node24&#45;&gt;Node22 -->
<g id="edge31" class="edge">
<title>Node24&#45;&gt;Node22</title>
<path fill="none" stroke="#9a32cd" stroke-dasharray="5,2" d="M582.36,-743.76C609.86,-746.56 640.2,-749.86 668,-753.38 683.12,-755.29 699.4,-757.61 714.58,-759.88"/>
<polygon fill="#9a32cd" stroke="#9a32cd" points="582.67,-740.27 572.36,-742.75 581.96,-747.24 582.67,-740.27"/>
<text text-anchor="middle" x="629" y="-756.38" font-family="Helvetica,sans-Serif" font-size="10.00"> requiredAPs</text>
</g>
<!-- Node25 -->
<g id="node25" class="node">
<title>Node25</title>
<g id="a_node25"><a xlink:href="classdenoptim_1_1graph_1_1_a_p_tree_map.html" target="_top" xlink:title="Attachment point mapping where keys are sorted by natural ordering, i.e., by AttachmentPoint#compareT...">
<polygon fill="white" stroke="black" points="423.5,-769.88 423.5,-788.88 560.5,-788.88 560.5,-769.88 423.5,-769.88"/>
<text text-anchor="middle" x="492" y="-776.88" font-family="Helvetica,sans-Serif" font-size="10.00">denoptim.graph.APTreeMap</text>
</a>
</g>
</g>
<!-- Node25&#45;&gt;Node22 -->
<g id="edge32" class="edge">
<title>Node25&#45;&gt;Node22</title>
<path fill="none" stroke="#9a32cd" stroke-dasharray="5,2" d="M570.74,-771.56C577.25,-771.09 583.74,-770.69 590,-770.38 630.95,-768.37 677.08,-768.12 712.96,-768.37"/>
<polygon fill="#9a32cd" stroke="#9a32cd" points="570.22,-768.09 560.52,-772.35 570.76,-775.07 570.22,-768.09"/>
<text text-anchor="middle" x="629" y="-773.38" font-family="Helvetica,sans-Serif" font-size="10.00"> innerToOuterAPs</text>
</g>
<!-- Node26 -->
<g id="node26" class="node">
<title>Node26</title>
<g id="a_node26"><a xlink:title=" ">
<polygon fill="white" stroke="black" points="100,-764.38 100,-794.38 246,-794.38 246,-764.38 100,-764.38"/>
<text text-anchor="start" x="108" y="-782.38" font-family="Helvetica,sans-Serif" font-size="10.00">LinkedHashMap&lt; Attachment</text>
<text text-anchor="middle" x="173" y="-771.38" font-family="Helvetica,sans-Serif" font-size="10.00">Point, AttachmentPoint &gt;</text>
</a>
</g>
</g>
<!-- Node26&#45;&gt;Node25 -->
<g id="edge33" class="edge">
<title>Node26&#45;&gt;Node25</title>
<path fill="none" stroke="midnightblue" d="M256.51,-779.38C308.4,-779.38 374.52,-779.38 423.32,-779.38"/>
<polygon fill="midnightblue" stroke="midnightblue" points="256.33,-775.88 246.33,-779.38 256.33,-782.88 256.33,-775.88"/>
</g>
<!-- Node27 -->
<g id="node27" class="node">
<title>Node27</title>
<g id="a_node27"><a xlink:title=" ">
<polygon fill="white" stroke="black" points="687,-552.38 687,-604.38 864,-604.38 864,-552.38 687,-552.38"/>
<text text-anchor="start" x="695" y="-592.38" font-family="Helvetica,sans-Serif" font-size="10.00">DefaultUndirectedGraph</text>
<text text-anchor="start" x="695" y="-581.38" font-family="Helvetica,sans-Serif" font-size="10.00">&lt; denoptim.graph.Vertex,</text>
<text text-anchor="start" x="695" y="-570.38" font-family="Helvetica,sans-Serif" font-size="10.00"> denoptim.graph.simplified.Undirected</text>
<text text-anchor="middle" x="775.5" y="-559.38" font-family="Helvetica,sans-Serif" font-size="10.00">Edge &gt;</text>
</a>
</g>
</g>
<!-- Node27&#45;&gt;Node13 -->
<g id="edge34" class="edge">
<title>Node27&#45;&gt;Node13</title>
<path fill="none" stroke="#9a32cd" stroke-dasharray="5,2" d="M873.93,-551.52C917.94,-539.38 967.16,-525.81 999.26,-516.96"/>
<polygon fill="#9a32cd" stroke="#9a32cd" points="872.75,-548.21 864.04,-554.24 874.61,-554.96 872.75,-548.21"/>
<text text-anchor="middle" x="918" y="-549.38" font-family="Helvetica,sans-Serif" font-size="10.00"> jGraph</text>
</g>
<!-- Node28 -->
<g id="node28" class="node">
<title>Node28</title>
<g id="a_node28"><a xlink:title=" ">
<polygon fill="white" stroke="black" points="686,-481.38 686,-533.38 865,-533.38 865,-481.38 686,-481.38"/>
<text text-anchor="start" x="694" y="-521.38" font-family="Helvetica,sans-Serif" font-size="10.00">DefaultUndirectedGraph</text>
<text text-anchor="start" x="694" y="-510.38" font-family="Helvetica,sans-Serif" font-size="10.00">&lt; denoptim.graph.simplified.</text>
<text text-anchor="start" x="694" y="-499.38" font-family="Helvetica,sans-Serif" font-size="10.00">Node, denoptim.graph.simplified.Node</text>
<text text-anchor="middle" x="775.5" y="-488.38" font-family="Helvetica,sans-Serif" font-size="10.00">Connection &gt;</text>
</a>
</g>
</g>
<!-- Node28&#45;&gt;Node13 -->
<g id="edge35" class="edge">
<title>Node28&#45;&gt;Node13</title>
<path fill="none" stroke="#9a32cd" stroke-dasharray="5,2" d="M875.54,-507.38C909.48,-507.38 946.33,-507.38 975.94,-507.38"/>
<polygon fill="#9a32cd" stroke="#9a32cd" points="875.12,-503.88 865.12,-507.38 875.12,-510.88 875.12,-503.88"/>
<text text-anchor="middle" x="918" y="-510.38" font-family="Helvetica,sans-Serif" font-size="10.00"> jGraphKernel</text>
</g>
<!-- Node29 -->
<g id="node29" class="node">
<title>Node29</title>
<g id="a_node29"><a xlink:title=" ">
<polygon fill="white" stroke="black" points="737,-395.88 737,-414.88 814,-414.88 814,-395.88 737,-395.88"/>
<text text-anchor="middle" x="775.5" y="-402.88" font-family="Helvetica,sans-Serif" font-size="10.00">AtomicInteger</text>
</a>
</g>
</g>
<!-- Node29&#45;&gt;Node13 -->
<g id="edge36" class="edge">
<title>Node29&#45;&gt;Node13</title>
<path fill="none" stroke="#9a32cd" stroke-dasharray="5,2" d="M824.31,-402.78C861.23,-402.68 912.65,-406.79 953,-426.38 987.35,-443.05 1015.74,-480.28 1027.78,-497.85"/>
<polygon fill="#9a32cd" stroke="#9a32cd" points="824.26,-399.28 814.31,-402.91 824.35,-406.28 824.26,-399.28"/>
<text text-anchor="middle" x="918" y="-429.38" font-family="Helvetica,sans-Serif" font-size="10.00"> apCounter</text>
</g>
<!-- Node30 -->
<g id="node30" class="node">
<title>Node30</title>
<g id="a_node30"><a xlink:href="enumdenoptim_1_1graph_1_1_vertex_1_1_b_b_type.html" target="_top" xlink:title="The type of building block.">
<polygon fill="white" stroke="black" points="98.5,-522.88 98.5,-541.88 247.5,-541.88 247.5,-522.88 98.5,-522.88"/>
<text text-anchor="middle" x="173" y="-529.88" font-family="Helvetica,sans-Serif" font-size="10.00">denoptim.graph.Vertex.BBType</text>
</a>
</g>
</g>
<!-- Node30&#45;&gt;Node12 -->
<g id="edge37" class="edge">
<title>Node30&#45;&gt;Node12</title>
<path fill="none" stroke="#9a32cd" stroke-dasharray="5,2" d="M257.6,-524.48C298.71,-520.48 348.98,-515.41 394,-510.38 407.41,-508.88 421.84,-507.15 435.37,-505.49"/>
<polygon fill="#9a32cd" stroke="#9a32cd" points="257.25,-521 247.63,-525.45 257.92,-527.97 257.25,-521"/>
<text text-anchor="middle" x="333.5" y="-525.38" font-family="Helvetica,sans-Serif" font-size="10.00"> buildingBlockType</text>
</g>
<!-- Node31 -->
<g id="node31" class="node">
<title>Node31</title>
<g id="a_node31"><a xlink:title=" ">
<polygon fill="white" stroke="black" points="116,-421.88 116,-440.88 230,-440.88 230,-421.88 116,-421.88"/>
<text text-anchor="middle" x="173" y="-428.88" font-family="Helvetica,sans-Serif" font-size="10.00">Map&lt; Object, Object &gt;</text>
</a>
</g>
</g>
<!-- Node31&#45;&gt;Node2 -->
<g id="edge45" class="edge">
<title>Node31&#45;&gt;Node2</title>
<path fill="none" stroke="#9a32cd" stroke-dasharray="5,2" d="M209.75,-418.3C291.14,-388.49 496.51,-313.17 668,-249.38 690.03,-241.18 714.59,-231.97 734.57,-224.44"/>
<polygon fill="#9a32cd" stroke="#9a32cd" points="208.19,-415.14 200,-421.87 210.59,-421.71 208.19,-415.14"/>
<text text-anchor="middle" x="492" y="-346.38" font-family="Helvetica,sans-Serif" font-size="10.00"> properties</text>
</g>
<!-- Node31&#45;&gt;Node12 -->
<g id="edge38" class="edge">
<title>Node31&#45;&gt;Node12</title>
<path fill="none" stroke="#9a32cd" stroke-dasharray="5,2" d="M228.98,-443C290.41,-455.98 388.69,-476.76 445.82,-488.83"/>
<polygon fill="#9a32cd" stroke="#9a32cd" points="229.59,-439.55 219.08,-440.91 228.14,-446.4 229.59,-439.55"/>
<text text-anchor="middle" x="333.5" y="-479.38" font-family="Helvetica,sans-Serif" font-size="10.00"> properties</text>
</g>
<!-- Node32 -->
<g id="node32" class="node">
<title>Node32</title>
<g id="a_node32"><a xlink:title=" ">
<polygon fill="white" stroke="black" points="136,-484.88 136,-503.88 210,-503.88 210,-484.88 136,-484.88"/>
<text text-anchor="middle" x="173" y="-491.88" font-family="Helvetica,sans-Serif" font-size="10.00">Set&lt; String &gt;</text>
</a>
</g>
</g>
<!-- Node32&#45;&gt;Node12 -->
<g id="edge39" class="edge">
<title>Node32&#45;&gt;Node12</title>
<path fill="none" stroke="#9a32cd" stroke-dasharray="5,2" d="M220.23,-494.96C277.27,-495.68 374.2,-496.91 435.29,-497.68"/>
<polygon fill="#9a32cd" stroke="#9a32cd" points="220.1,-491.46 210.06,-494.83 220.01,-498.46 220.1,-491.46"/>
<text text-anchor="middle" x="333.5" y="-499.38" font-family="Helvetica,sans-Serif" font-size="10.00"> uniquefyingPropertyKeys</text>
</g>
<!-- Node33 -->
<g id="node33" class="node">
<title>Node33</title>
<g id="a_node33"><a xlink:title=" ">
<polygon fill="white" stroke="black" points="102.5,-599.38 102.5,-629.38 243.5,-629.38 243.5,-599.38 102.5,-599.38"/>
<text text-anchor="start" x="110.5" y="-617.38" font-family="Helvetica,sans-Serif" font-size="10.00">List&lt; denoptim.utils.Mutation</text>
<text text-anchor="middle" x="173" y="-606.38" font-family="Helvetica,sans-Serif" font-size="10.00">Type &gt;</text>
</a>
</g>
</g>
<!-- Node33&#45;&gt;Node12 -->
<g id="edge40" class="edge">
<title>Node33&#45;&gt;Node12</title>
<path fill="none" stroke="#9a32cd" stroke-dasharray="5,2" d="M254.07,-609.18C297.05,-604.12 350.07,-594.11 394,-574.38 430.69,-557.9 465.8,-524.64 481.87,-508.13"/>
<polygon fill="#9a32cd" stroke="#9a32cd" points="253.49,-605.73 243.94,-610.31 254.27,-612.68 253.49,-605.73"/>
<text text-anchor="middle" x="333.5" y="-608.38" font-family="Helvetica,sans-Serif" font-size="10.00"> allowedMutationTypes</text>
</g>
<!-- Node34 -->
<g id="node34" class="node">
<title>Node34</title>
<g id="a_node34"><a xlink:href="enumdenoptim_1_1graph_1_1_vertex_1_1_vertex_type.html" target="_top" xlink:title="Flag declaring the type of Vertex implementation.">
<polygon fill="white" stroke="black" points="91,-560.88 91,-579.88 255,-579.88 255,-560.88 91,-560.88"/>
<text text-anchor="middle" x="173" y="-567.88" font-family="Helvetica,sans-Serif" font-size="10.00">denoptim.graph.Vertex.VertexType</text>
</a>
</g>
</g>
<!-- Node34&#45;&gt;Node12 -->
<g id="edge41" class="edge">
<title>Node34&#45;&gt;Node12</title>
<path fill="none" stroke="#9a32cd" stroke-dasharray="5,2" d="M265.14,-561.55C305.12,-556.44 352.34,-548.71 394,-537.38 421.5,-529.9 451.75,-516.93 471.04,-508.01"/>
<polygon fill="#9a32cd" stroke="#9a32cd" points="264.63,-558.08 255.13,-562.79 265.49,-565.03 264.63,-558.08"/>
<text text-anchor="middle" x="333.5" y="-562.38" font-family="Helvetica,sans-Serif" font-size="10.00"> vertexType</text>
</g>
<!-- Node35&#45;&gt;Node2 -->
<g id="edge42" class="edge">
<title>Node35&#45;&gt;Node2</title>
<path fill="none" stroke="#9a32cd" stroke-dasharray="5,2" d="M985.87,-199.49C980.77,-197.64 975.72,-195.61 971,-193.38 962.3,-189.28 962.2,-184.17 953,-181.38 905.64,-167.04 848.78,-181.44 812.64,-194.33"/>
<polygon fill="#9a32cd" stroke="#9a32cd" points="985.08,-202.92 995.68,-202.79 987.32,-196.28 985.08,-202.92"/>
<text text-anchor="middle" x="918" y="-184.38" font-family="Helvetica,sans-Serif" font-size="10.00"> user</text>
</g>
</g>
</svg>
        <g id="navigator" transform="translate(0 0)" fill="#404254">
                <rect fill="#f2f5e9" fill-opacity="0.5" stroke="#606060" stroke-width=".5" x="0" y="0" width="60" height="60"/>
                <use id="zoomplus" xlink:href="#zoomPlus" x="17" y="9" onmousedown="handleZoom(evt,'in')"/>
                <use id="zoomminus" xlink:href="#zoomMin" x="42" y="9" onmousedown="handleZoom(evt,'out')"/>
                <use id="reset" xlink:href="#resetDef" x="30" y="36" onmousedown="handleReset()"/>
                <g id="arrowUp" xlink:href="#dirArrow" transform="translate(30 24)" onmousedown="handlePan(0,-1)">
                  <use xlink:href="#rim" fill="#404040">
                        <set attributeName="fill" to="#808080" begin="arrowUp.mouseover" end="arrowUp.mouseout"/>
                  </use>
                  <path fill="none" stroke="white" stroke-width="1.5" d="M0,-3.0v7 M-2.5,-0.5L0,-3.0L2.5,-0.5"/>
                </g>
                <g id="arrowRight" xlink:href="#dirArrow" transform="rotate(90) translate(36 -43)" onmousedown="handlePan(1,0)">
                  <use xlink:href="#rim" fill="#404040">
                        <set attributeName="fill" to="#808080" begin="arrowRight.mouseover" end="arrowRight.mouseout"/>
                  </use>
                  <path fill="none" stroke="white" stroke-width="1.5" d="M0,-3.0v7 M-2.5,-0.5L0,-3.0L2.5,-0.5"/>
                </g>
                <g id="arrowDown" xlink:href="#dirArrow" transform="rotate(180) translate(-30 -48)" onmousedown="handlePan(0,1)">
                  <use xlink:href="#rim" fill="#404040">
                        <set attributeName="fill" to="#808080" begin="arrowDown.mouseover" end="arrowDown.mouseout"/>
                  </use>
                  <path fill="none" stroke="white" stroke-width="1.5" d="M0,-3.0v7 M-2.5,-0.5L0,-3.0L2.5,-0.5"/>
                </g>
                <g id="arrowLeft" xlink:href="#dirArrow" transform="rotate(270) translate(-36 17)" onmousedown="handlePan(-1,0)">
                  <use xlink:href="#rim" fill="#404040">
                        <set attributeName="fill" to="#808080" begin="arrowLeft.mouseover" end="arrowLeft.mouseout"/>
                  </use>
                  <path fill="none" stroke="white" stroke-width="1.5" d="M0,-3.0v7 M-2.5,-0.5L0,-3.0L2.5,-0.5"/>
                </g>
        </g>
        <svg viewBox="0 0 15 15" width="100%" height="30px" preserveAspectRatio="xMaxYMin meet">
         <g id="arrow_out" transform="scale(0.3 0.3)">
          <a xlink:href="classdenoptim_1_1graph_1_1simplified_1_1_undirected_edge__coll__graph_org.svg" target="_base">
           <rect id="button" ry="5" rx="5" y="6" x="6" height="38" width="38"
                fill="#f2f5e9" fill-opacity="0.5" stroke="#606060" stroke-width="1.0"/>
           <path id="arrow"
             d="M 11.500037,31.436501 C 11.940474,20.09759 22.043105,11.32322 32.158766,21.979434 L 37.068811,17.246167 C 37.068811,17.246167 37.088388,32 37.088388,32 L 22.160133,31.978069 C 22.160133,31.978069 26.997745,27.140456 26.997745,27.140456 C 18.528582,18.264221 13.291696,25.230495 11.500037,31.436501 z"
             style="fill:#404040;"/>
          </a>
         </g>
        </svg>
</svg>
