<?xml version="1.0" encoding="UTF-8" standalone="no"?>
<!DOCTYPE svg PUBLIC "-//W3C//DTD SVG 1.1//EN"
 "http://www.w3.org/Graphics/SVG/1.1/DTD/svg11.dtd">
<!-- Generated by graphviz version 3.0.0 (20221109.1736)
 -->
<!-- Title: denoptim.graph.Fragment.Fragment Pages: 1 -->
<svg width="1177pt" height="539pt"
 viewBox="0.00 0.00 1177.00 539.00" xmlns="http://www.w3.org/2000/svg" xmlns:xlink="http://www.w3.org/1999/xlink">
<g id="graph0" class="graph" transform="scale(1 1) rotate(0) translate(4 535)">
<title>denoptim.graph.Fragment.Fragment</title>
<polygon fill="white" stroke="transparent" points="-4,4 -4,-535 1173,-535 1173,4 -4,4"/>
<!-- Node1 -->
<g id="node1" class="node">
<title>Node1</title>
<g id="a_node1"><a xlink:title="Constructor of an empty fragment.">
<polygon fill="#bfbfbf" stroke="black" points="1041,-174.5 1041,-204.5 1169,-204.5 1169,-174.5 1041,-174.5"/>
<text text-anchor="start" x="1049" y="-192.5" font-family="Helvetica,sans-Serif" font-size="10.00">denoptim.graph.Fragment.</text>
<text text-anchor="middle" x="1105" y="-181.5" font-family="Helvetica,sans-Serif" font-size="10.00">Fragment</text>
</a>
</g>
</g>
<!-- Node2 -->
<g id="node2" class="node">
<title>Node2</title>
<g id="a_node2"><a xlink:href="classdenoptim_1_1graph_1_1_fragment.html#a3b476687a392e637d2bf2f3b6ccb09a4" target="_top" xlink:title="Returns a deep copy of this fragments.">
<polygon fill="white" stroke="black" points="853,-305 853,-324 1005,-324 1005,-305 853,-305"/>
<text text-anchor="middle" x="929" y="-312" font-family="Helvetica,sans-Serif" font-size="10.00">denoptim.graph.Fragment.clone</text>
</a>
</g>
</g>
<!-- Node1&#45;&gt;Node2 -->
<g id="edge1" class="edge">
<title>Node1&#45;&gt;Node2</title>
<path fill="none" stroke="midnightblue" d="M1074.87,-210.43C1036.79,-237.78 971.68,-284.56 943.57,-304.75"/>
<polygon fill="midnightblue" stroke="midnightblue" points="1076.93,-213.25 1083.01,-204.58 1072.85,-207.57 1076.93,-213.25"/>
</g>
<!-- Node17 -->
<g id="node17" class="node">
<title>Node17</title>
<g id="a_node17"><a xlink:href="classdenoptim_1_1graph_1_1_fragment.html#a6137d8c74ece46574e14b9a3cd02d00d" target="_top" xlink:title="Checks for isomorphism of the graph representation of this and another fragment.">
<polygon fill="white" stroke="black" points="861,-74.5 861,-104.5 997,-104.5 997,-74.5 861,-74.5"/>
<text text-anchor="start" x="869" y="-92.5" font-family="Helvetica,sans-Serif" font-size="10.00">denoptim.graph.Fragment.is</text>
<text text-anchor="middle" x="929" y="-81.5" font-family="Helvetica,sans-Serif" font-size="10.00">IsomorphicTo</text>
</a>
</g>
</g>
<!-- Node1&#45;&gt;Node17 -->
<g id="edge18" class="edge">
<title>Node1&#45;&gt;Node17</title>
<path fill="none" stroke="midnightblue" d="M1068.61,-169.16C1035.25,-149.99 986.04,-121.7 956.11,-104.5"/>
<polygon fill="midnightblue" stroke="midnightblue" points="1067.16,-172.36 1077.57,-174.31 1070.65,-166.29 1067.16,-172.36"/>
</g>
<!-- Node2&#45;&gt;Node2 -->
<g id="edge2" class="edge">
<title>Node2&#45;&gt;Node2</title>
<path fill="none" stroke="midnightblue" d="M961.98,-332.39C961.5,-338.04 950.51,-342.5 929,-342.5 897.72,-342.5 888.68,-333.07 901.87,-324.26"/>
<polygon fill="midnightblue" stroke="midnightblue" points="964.81,-330.33 956.13,-324.26 959.13,-334.42 964.81,-330.33"/>
</g>
<!-- Node3 -->
<g id="node3" class="node">
<title>Node3</title>
<g id="a_node3"><a xlink:href="classdenoptim_1_1fragmenter_1_1_fragmenter_tools.html#a37c0e44680ec1c54fcff98dae0832a50" target="_top" xlink:title="Chops one chemical structure by applying the given cutting rules.">
<polygon fill="white" stroke="black" points="641.5,-500.5 641.5,-530.5 798.5,-530.5 798.5,-500.5 641.5,-500.5"/>
<text text-anchor="start" x="649.5" y="-518.5" font-family="Helvetica,sans-Serif" font-size="10.00">denoptim.fragmenter.Fragmenter</text>
<text text-anchor="middle" x="720" y="-507.5" font-family="Helvetica,sans-Serif" font-size="10.00">Tools.fragmentation</text>
</a>
</g>
</g>
<!-- Node2&#45;&gt;Node3 -->
<g id="edge3" class="edge">
<title>Node2&#45;&gt;Node3</title>
<path fill="none" stroke="midnightblue" d="M921.43,-333.94C907.96,-370.7 873.64,-450.39 817,-491.5 811.44,-495.54 805.27,-498.9 798.82,-501.7"/>
<polygon fill="midnightblue" stroke="midnightblue" points="924.77,-334.98 924.81,-324.39 918.17,-332.65 924.77,-334.98"/>
</g>
<!-- Node4 -->
<g id="node4" class="node">
<title>Node4</title>
<g id="a_node4"><a xlink:href="classdenoptim_1_1fragmenter_1_1_clusterable_fragment.html#a1e02c5f6054d5764ff597bd12337345a" target="_top" xlink:title=" ">
<polygon fill="white" stroke="black" points="642,-451.5 642,-481.5 798,-481.5 798,-451.5 642,-451.5"/>
<text text-anchor="start" x="650" y="-469.5" font-family="Helvetica,sans-Serif" font-size="10.00">denoptim.fragmenter.Clusterable</text>
<text text-anchor="middle" x="720" y="-458.5" font-family="Helvetica,sans-Serif" font-size="10.00">Fragment.getTransformedCopy</text>
</a>
</g>
</g>
<!-- Node2&#45;&gt;Node4 -->
<g id="edge4" class="edge">
<title>Node2&#45;&gt;Node4</title>
<path fill="none" stroke="midnightblue" d="M917.11,-333.16C899.67,-361.33 862.74,-414.41 817,-442.5 811.14,-446.1 804.77,-449.15 798.19,-451.75"/>
<polygon fill="midnightblue" stroke="midnightblue" points="920.28,-334.68 922.45,-324.31 914.29,-331.06 920.28,-334.68"/>
</g>
<!-- Node11 -->
<g id="node11" class="node">
<title>Node11</title>
<g id="a_node11"><a xlink:href="classdenoptim_1_1graph_1_1_fragment_test.html#a0a98792d99861bb6673e66a76ff49d31" target="_top" xlink:title=" ">
<polygon fill="white" stroke="black" points="638,-402.5 638,-432.5 802,-432.5 802,-402.5 638,-402.5"/>
<text text-anchor="start" x="646" y="-420.5" font-family="Helvetica,sans-Serif" font-size="10.00">denoptim.graph.FragmentTest.test</text>
<text text-anchor="middle" x="720" y="-409.5" font-family="Helvetica,sans-Serif" font-size="10.00">Clone</text>
</a>
</g>
</g>
<!-- Node2&#45;&gt;Node11 -->
<g id="edge12" class="edge">
<title>Node2&#45;&gt;Node11</title>
<path fill="none" stroke="midnightblue" d="M909.75,-330.8C888.8,-348.69 852.69,-377.06 817,-393.5 809.59,-396.91 801.62,-399.89 793.56,-402.47"/>
<polygon fill="midnightblue" stroke="midnightblue" points="912.26,-333.26 917.51,-324.06 907.67,-327.97 912.26,-333.26"/>
</g>
<!-- Node12 -->
<g id="node12" class="node">
<title>Node12</title>
<g id="a_node12"><a xlink:href="classdenoptim_1_1graph_1_1_vertex_test.html#ab36c441c57e9852e2be6d810d80fbc87" target="_top" xlink:title=" ">
<polygon fill="white" stroke="black" points="644.5,-353.5 644.5,-383.5 795.5,-383.5 795.5,-353.5 644.5,-353.5"/>
<text text-anchor="start" x="652.5" y="-371.5" font-family="Helvetica,sans-Serif" font-size="10.00">denoptim.graph.VertexTest.test</text>
<text text-anchor="middle" x="720" y="-360.5" font-family="Helvetica,sans-Serif" font-size="10.00">Clone</text>
</a>
</g>
</g>
<!-- Node2&#45;&gt;Node12 -->
<g id="edge13" class="edge">
<title>Node2&#45;&gt;Node12</title>
<path fill="none" stroke="midnightblue" d="M883.18,-326.82C862.98,-332.32 838.82,-338.83 817,-344.5 805.69,-347.44 793.62,-350.51 781.99,-353.44"/>
<polygon fill="midnightblue" stroke="midnightblue" points="884.32,-330.14 893.05,-324.13 882.48,-323.38 884.32,-330.14"/>
</g>
<!-- Node13 -->
<g id="node13" class="node">
<title>Node13</title>
<g id="a_node13"><a xlink:href="classdenoptim_1_1fragmenter_1_1_conformer_extractor_task_test.html#a2dc64f375774087fc0b4511384f50bc9" target="_top" xlink:title=" ">
<polygon fill="white" stroke="black" points="623,-294 623,-335 817,-335 817,-294 623,-294"/>
<text text-anchor="start" x="631" y="-323" font-family="Helvetica,sans-Serif" font-size="10.00">denoptim.fragmenter.Conformer</text>
<text text-anchor="start" x="631" y="-312" font-family="Helvetica,sans-Serif" font-size="10.00">ExtractorTaskTest.testExtractClusterable</text>
<text text-anchor="middle" x="720" y="-301" font-family="Helvetica,sans-Serif" font-size="10.00">Fragments</text>
</a>
</g>
</g>
<!-- Node2&#45;&gt;Node13 -->
<g id="edge14" class="edge">
<title>Node2&#45;&gt;Node13</title>
<path fill="none" stroke="midnightblue" d="M842.73,-314.5C834.24,-314.5 825.59,-314.5 817,-314.5"/>
<polygon fill="midnightblue" stroke="midnightblue" points="842.98,-318 852.98,-314.5 842.98,-311 842.98,-318"/>
</g>
<!-- Node14 -->
<g id="node14" class="node">
<title>Node14</title>
<g id="a_node14"><a xlink:href="classdenoptim_1_1fragmenter_1_1_fragment_alignement_test.html#ad46b9a4324bb5b9bbfc08c73de0e1124" target="_top" xlink:title=" ">
<polygon fill="white" stroke="black" points="626,-245.5 626,-275.5 814,-275.5 814,-245.5 626,-245.5"/>
<text text-anchor="start" x="634" y="-263.5" font-family="Helvetica,sans-Serif" font-size="10.00">denoptim.fragmenter.Fragment</text>
<text text-anchor="middle" x="720" y="-252.5" font-family="Helvetica,sans-Serif" font-size="10.00">AlignementTest.testGetMinimumRMSD</text>
</a>
</g>
</g>
<!-- Node2&#45;&gt;Node14 -->
<g id="edge15" class="edge">
<title>Node2&#45;&gt;Node14</title>
<path fill="none" stroke="midnightblue" d="M883.18,-302.18C862.98,-296.68 838.82,-290.17 817,-284.5 805.69,-281.56 793.62,-278.49 781.99,-275.56"/>
<polygon fill="midnightblue" stroke="midnightblue" points="882.48,-305.62 893.05,-304.87 884.32,-298.86 882.48,-305.62"/>
</g>
<!-- Node15 -->
<g id="node15" class="node">
<title>Node15</title>
<g id="a_node15"><a xlink:href="classdenoptim_1_1graph_1_1_attachment_point_test.html#af88d30ce68477984fe6179325d1540b2" target="_top" xlink:title=" ">
<polygon fill="white" stroke="black" points="630,-196.5 630,-226.5 810,-226.5 810,-196.5 630,-196.5"/>
<text text-anchor="start" x="638" y="-214.5" font-family="Helvetica,sans-Serif" font-size="10.00">denoptim.graph.Attachment</text>
<text text-anchor="middle" x="720" y="-203.5" font-family="Helvetica,sans-Serif" font-size="10.00">PointTest.testHasConnectedSrcAtom</text>
</a>
</g>
</g>
<!-- Node2&#45;&gt;Node15 -->
<g id="edge16" class="edge">
<title>Node2&#45;&gt;Node15</title>
<path fill="none" stroke="midnightblue" d="M909.35,-298.2C888.29,-280.59 852.32,-252.85 817,-236.5 808.8,-232.7 799.92,-229.41 790.99,-226.57"/>
<polygon fill="midnightblue" stroke="midnightblue" points="907.28,-301.04 917.17,-304.85 911.82,-295.71 907.28,-301.04"/>
</g>
<!-- Node16 -->
<g id="node16" class="node">
<title>Node16</title>
<g id="a_node16"><a xlink:href="classdenoptim_1_1graph_1_1_attachment_point_test.html#a4889032266eb87d0f91af8b4e9869360" target="_top" xlink:title=" ">
<polygon fill="white" stroke="black" points="640.5,-147.5 640.5,-177.5 799.5,-177.5 799.5,-147.5 640.5,-147.5"/>
<text text-anchor="start" x="648.5" y="-165.5" font-family="Helvetica,sans-Serif" font-size="10.00">denoptim.graph.Attachment</text>
<text text-anchor="middle" x="720" y="-154.5" font-family="Helvetica,sans-Serif" font-size="10.00">PointTest.testHasSameSrcAtom</text>
</a>
</g>
</g>
<!-- Node2&#45;&gt;Node16 -->
<g id="edge17" class="edge">
<title>Node2&#45;&gt;Node16</title>
<path fill="none" stroke="midnightblue" d="M917.04,-296.05C899.51,-268.17 862.45,-215.6 817,-187.5 810.7,-183.61 803.81,-180.32 796.7,-177.53"/>
<polygon fill="midnightblue" stroke="midnightblue" points="914.2,-298.1 922.41,-304.8 920.16,-294.44 914.2,-298.1"/>
</g>
<!-- Node5 -->
<g id="node5" class="node">
<title>Node5</title>
<g id="a_node5"><a xlink:href="classdenoptim_1_1fragmenter_1_1_fragment_clusterer.html#a1845241fead0bee7fd92feaf6d71e331" target="_top" xlink:title="Once the clustering is done, this method return the list of cluster centroids.">
<polygon fill="white" stroke="black" points="418,-451.5 418,-481.5 567,-481.5 567,-451.5 418,-451.5"/>
<text text-anchor="start" x="426" y="-469.5" font-family="Helvetica,sans-Serif" font-size="10.00">denoptim.fragmenter.Fragment</text>
<text text-anchor="middle" x="492.5" y="-458.5" font-family="Helvetica,sans-Serif" font-size="10.00">Clusterer.getClusterCentroids</text>
</a>
</g>
</g>
<!-- Node4&#45;&gt;Node5 -->
<g id="edge5" class="edge">
<title>Node4&#45;&gt;Node5</title>
<path fill="none" stroke="midnightblue" d="M631.71,-466.5C610.42,-466.5 587.85,-466.5 567.26,-466.5"/>
<polygon fill="midnightblue" stroke="midnightblue" points="631.71,-470 641.71,-466.5 631.71,-463 631.71,-470"/>
</g>
<!-- Node9 -->
<g id="node9" class="node">
<title>Node9</title>
<g id="a_node9"><a xlink:href="classdenoptim_1_1fragmenter_1_1_fragment_clusterer.html#aae37739ae959ab8a85bf01286c5a518e" target="_top" xlink:title="Once the clustering is done, this method return the list of fragments that are nearest to the respect...">
<polygon fill="white" stroke="black" points="398,-500.5 398,-530.5 587,-530.5 587,-500.5 398,-500.5"/>
<text text-anchor="start" x="406" y="-518.5" font-family="Helvetica,sans-Serif" font-size="10.00">denoptim.fragmenter.Fragment</text>
<text text-anchor="middle" x="492.5" y="-507.5" font-family="Helvetica,sans-Serif" font-size="10.00">Clusterer.getNearestToClusterCentroids</text>
</a>
</g>
</g>
<!-- Node4&#45;&gt;Node9 -->
<g id="edge9" class="edge">
<title>Node4&#45;&gt;Node9</title>
<path fill="none" stroke="midnightblue" d="M639.91,-483.69C614.7,-489.16 587.01,-495.18 562.56,-500.49"/>
<polygon fill="midnightblue" stroke="midnightblue" points="640.78,-487.08 649.81,-481.53 639.29,-480.24 640.78,-487.08"/>
</g>
<!-- Node10 -->
<g id="node10" class="node">
<title>Node10</title>
<g id="a_node10"><a xlink:href="classdenoptim_1_1fragmenter_1_1_clusterable_fragment_test.html#a30be40702849bf4781129bf3dabf88e8" target="_top" xlink:title=" ">
<polygon fill="white" stroke="black" points="398.5,-402.5 398.5,-432.5 586.5,-432.5 586.5,-402.5 398.5,-402.5"/>
<text text-anchor="start" x="406.5" y="-420.5" font-family="Helvetica,sans-Serif" font-size="10.00">denoptim.fragmenter.Clusterable</text>
<text text-anchor="middle" x="492.5" y="-409.5" font-family="Helvetica,sans-Serif" font-size="10.00">FragmentTest.testGetTransformedCopy</text>
</a>
</g>
</g>
<!-- Node4&#45;&gt;Node10 -->
<g id="edge11" class="edge">
<title>Node4&#45;&gt;Node10</title>
<path fill="none" stroke="midnightblue" d="M639.91,-449.31C614.7,-443.84 587.01,-437.82 562.56,-432.51"/>
<polygon fill="midnightblue" stroke="midnightblue" points="639.29,-452.76 649.81,-451.47 640.78,-445.92 639.29,-452.76"/>
</g>
<!-- Node6 -->
<g id="node6" class="node">
<title>Node6</title>
<g id="a_node6"><a xlink:href="classdenoptim_1_1fragmenter_1_1_conformer_extractor_task.html#aa21ebdf147f5bdb2685f9e775efd0b10" target="_top" xlink:title=" ">
<polygon fill="white" stroke="black" points="201,-500.5 201,-530.5 353,-530.5 353,-500.5 201,-500.5"/>
<text text-anchor="start" x="209" y="-518.5" font-family="Helvetica,sans-Serif" font-size="10.00">denoptim.fragmenter.Conformer</text>
<text text-anchor="middle" x="277" y="-507.5" font-family="Helvetica,sans-Serif" font-size="10.00">ExtractorTask.call</text>
</a>
</g>
</g>
<!-- Node5&#45;&gt;Node6 -->
<g id="edge6" class="edge">
<title>Node5&#45;&gt;Node6</title>
<path fill="none" stroke="midnightblue" d="M415.99,-483.83C392.28,-489.27 366.33,-495.23 343.38,-500.49"/>
<polygon fill="midnightblue" stroke="midnightblue" points="417.03,-487.18 425.99,-481.53 415.46,-480.36 417.03,-487.18"/>
</g>
<!-- Node8 -->
<g id="node8" class="node">
<title>Node8</title>
<g id="a_node8"><a xlink:href="classdenoptim_1_1fragmenter_1_1_fragment_clusterer_test.html#aa17925160f3f03080e8680c7016fc1c4" target="_top" xlink:title=" ">
<polygon fill="white" stroke="black" points="202.5,-451.5 202.5,-481.5 351.5,-481.5 351.5,-451.5 202.5,-451.5"/>
<text text-anchor="start" x="210.5" y="-469.5" font-family="Helvetica,sans-Serif" font-size="10.00">denoptim.fragmenter.Fragment</text>
<text text-anchor="middle" x="277" y="-458.5" font-family="Helvetica,sans-Serif" font-size="10.00">ClustererTest.testCluster</text>
</a>
</g>
</g>
<!-- Node5&#45;&gt;Node8 -->
<g id="edge8" class="edge">
<title>Node5&#45;&gt;Node8</title>
<path fill="none" stroke="midnightblue" d="M407.6,-466.5C389.16,-466.5 369.78,-466.5 351.78,-466.5"/>
<polygon fill="midnightblue" stroke="midnightblue" points="407.73,-470 417.73,-466.5 407.73,-463 407.73,-470"/>
</g>
<!-- Node7 -->
<g id="node7" class="node">
<title>Node7</title>
<g id="a_node7"><a xlink:href="classdenoptim_1_1programs_1_1fragmenter_1_1_fragmenter.html#aa27df9705e3aed34cc8cb8bc05e6ce85" target="_top" xlink:title=" ">
<polygon fill="white" stroke="black" points="3,-500.5 3,-530.5 153,-530.5 153,-500.5 3,-500.5"/>
<text text-anchor="start" x="11" y="-518.5" font-family="Helvetica,sans-Serif" font-size="10.00">denoptim.programs.fragmenter.</text>
<text text-anchor="middle" x="78" y="-507.5" font-family="Helvetica,sans-Serif" font-size="10.00">Fragmenter.runProgram</text>
</a>
</g>
</g>
<!-- Node6&#45;&gt;Node7 -->
<g id="edge7" class="edge">
<title>Node6&#45;&gt;Node7</title>
<path fill="none" stroke="midnightblue" d="M190.96,-515.5C178.38,-515.5 165.51,-515.5 153.18,-515.5"/>
<polygon fill="midnightblue" stroke="midnightblue" points="190.96,-519 200.96,-515.5 190.96,-512 190.96,-519"/>
</g>
<!-- Node9&#45;&gt;Node6 -->
<g id="edge10" class="edge">
<title>Node9&#45;&gt;Node6</title>
<path fill="none" stroke="midnightblue" d="M387.69,-515.5C376.09,-515.5 364.44,-515.5 353.3,-515.5"/>
<polygon fill="midnightblue" stroke="midnightblue" points="387.86,-519 397.86,-515.5 387.86,-512 387.86,-519"/>
</g>
<!-- Node18 -->
<g id="node18" class="node">
<title>Node18</title>
<g id="a_node18"><a xlink:href="classdenoptim_1_1graph_1_1_d_graph.html#ad38e8849839cb63835e727530ca124d9" target="_top" xlink:title="Checks if the Vertexs that are attached to two given AttachmentPoints apA and apB satisfy these condi...">
<polygon fill="white" stroke="black" points="649.5,-98.5 649.5,-128.5 790.5,-128.5 790.5,-98.5 649.5,-98.5"/>
<text text-anchor="start" x="657.5" y="-116.5" font-family="Helvetica,sans-Serif" font-size="10.00">denoptim.graph.DGraph.are</text>
<text text-anchor="middle" x="720" y="-105.5" font-family="Helvetica,sans-Serif" font-size="10.00">ApsUsedBySymmetricUsers</text>
</a>
</g>
</g>
<!-- Node17&#45;&gt;Node18 -->
<g id="edge19" class="edge">
<title>Node17&#45;&gt;Node18</title>
<path fill="none" stroke="midnightblue" d="M850.65,-98.47C830.98,-100.75 809.97,-103.18 790.71,-105.42"/>
<polygon fill="midnightblue" stroke="midnightblue" points="851.26,-101.92 860.79,-97.29 850.46,-94.97 851.26,-101.92"/>
</g>
<!-- Node24 -->
<g id="node24" class="node">
<title>Node24</title>
<g id="a_node24"><a xlink:href="classdenoptim_1_1graph_1_1_fragment_test.html#aa17f42b21847b022c3d7a87876e17717" target="_top" xlink:title=" ">
<polygon fill="white" stroke="black" points="638,-49.5 638,-79.5 802,-79.5 802,-49.5 638,-49.5"/>
<text text-anchor="start" x="646" y="-67.5" font-family="Helvetica,sans-Serif" font-size="10.00">denoptim.graph.FragmentTest.test</text>
<text text-anchor="middle" x="720" y="-56.5" font-family="Helvetica,sans-Serif" font-size="10.00">IsomorphicInLinear</text>
</a>
</g>
</g>
<!-- Node17&#45;&gt;Node24 -->
<g id="edge26" class="edge">
<title>Node17&#45;&gt;Node24</title>
<path fill="none" stroke="midnightblue" d="M850.58,-80.15C834.83,-78.25 818.21,-76.24 802.32,-74.32"/>
<polygon fill="midnightblue" stroke="midnightblue" points="850.45,-83.66 860.79,-81.38 851.28,-76.71 850.45,-83.66"/>
</g>
<!-- Node25 -->
<g id="node25" class="node">
<title>Node25</title>
<g id="a_node25"><a xlink:href="classdenoptim_1_1graph_1_1_fragment_test.html#af49cc0e35c38f683bfc3d332210d1124" target="_top" xlink:title=" ">
<polygon fill="white" stroke="black" points="638,-0.5 638,-30.5 802,-30.5 802,-0.5 638,-0.5"/>
<text text-anchor="start" x="646" y="-18.5" font-family="Helvetica,sans-Serif" font-size="10.00">denoptim.graph.FragmentTest.test</text>
<text text-anchor="middle" x="720" y="-7.5" font-family="Helvetica,sans-Serif" font-size="10.00">IsomorphicTo</text>
</a>
</g>
</g>
<!-- Node17&#45;&gt;Node25 -->
<g id="edge27" class="edge">
<title>Node17&#45;&gt;Node25</title>
<path fill="none" stroke="midnightblue" d="M889.21,-69.97C868.2,-59.93 841.59,-48.03 817,-39.5 807.67,-36.26 797.68,-33.27 787.81,-30.57"/>
<polygon fill="midnightblue" stroke="midnightblue" points="887.91,-73.23 898.44,-74.44 890.96,-66.93 887.91,-73.23"/>
</g>
<!-- Node19 -->
<g id="node19" class="node">
<title>Node19</title>
<g id="a_node19"><a xlink:href="classdenoptim_1_1graph_1_1_d_graph.html#aff06be9fc2508e591352e7ae46260721" target="_top" xlink:title="Tries to determine the set of symmetric vertices in this graph based on finding compatible Vertexes t...">
<polygon fill="white" stroke="black" points="203.5,-120.5 203.5,-150.5 350.5,-150.5 350.5,-120.5 203.5,-120.5"/>
<text text-anchor="start" x="211.5" y="-138.5" font-family="Helvetica,sans-Serif" font-size="10.00">denoptim.graph.DGraph.detect</text>
<text text-anchor="middle" x="277" y="-127.5" font-family="Helvetica,sans-Serif" font-size="10.00">SymVertexSets</text>
</a>
</g>
</g>
<!-- Node18&#45;&gt;Node19 -->
<g id="edge20" class="edge">
<title>Node18&#45;&gt;Node19</title>
<path fill="none" stroke="midnightblue" d="M639.09,-117.49C556.99,-121.58 430.28,-127.9 350.85,-131.87"/>
<polygon fill="midnightblue" stroke="midnightblue" points="639.31,-120.98 649.12,-116.99 638.96,-113.99 639.31,-120.98"/>
</g>
<!-- Node22 -->
<g id="node22" class="node">
<title>Node22</title>
<g id="a_node22"><a xlink:href="classdenoptim_1_1graph_1_1_d_graph.html#aa46fb7d3a38e4c4401723a75f7c8d764" target="_top" xlink:title=" ">
<polygon fill="white" stroke="black" points="417,-76.5 417,-106.5 568,-106.5 568,-76.5 417,-76.5"/>
<text text-anchor="start" x="425" y="-94.5" font-family="Helvetica,sans-Serif" font-size="10.00">denoptim.graph.DGraph.find</text>
<text text-anchor="middle" x="492.5" y="-83.5" font-family="Helvetica,sans-Serif" font-size="10.00">SymmetrySetsOfChildVertexes</text>
</a>
</g>
</g>
<!-- Node18&#45;&gt;Node22 -->
<g id="edge23" class="edge">
<title>Node18&#45;&gt;Node22</title>
<path fill="none" stroke="midnightblue" d="M639.08,-105.7C615.96,-103.45 590.83,-101 568.06,-98.77"/>
<polygon fill="midnightblue" stroke="midnightblue" points="638.9,-109.2 649.19,-106.69 639.58,-102.24 638.9,-109.2"/>
</g>
<!-- Node20 -->
<g id="node20" class="node">
<title>Node20</title>
<g id="a_node20"><a xlink:href="classdenoptim_1_1ga_1_1_e_a_utils.html#a18eb5d0ba6772e9116176ef6ca9f84fc" target="_top" xlink:title="Converts a molecule into a DGraph by fragmentation and re&#45;assembling of the fragments.">
<polygon fill="white" stroke="black" points="1,-144.5 1,-174.5 155,-174.5 155,-144.5 1,-144.5"/>
<text text-anchor="start" x="9" y="-162.5" font-family="Helvetica,sans-Serif" font-size="10.00">denoptim.ga.EAUtils.make</text>
<text text-anchor="middle" x="78" y="-151.5" font-family="Helvetica,sans-Serif" font-size="10.00">GraphFromFragmentationOfMol</text>
</a>
</g>
</g>
<!-- Node19&#45;&gt;Node20 -->
<g id="edge21" class="edge">
<title>Node19&#45;&gt;Node20</title>
<path fill="none" stroke="midnightblue" d="M193.45,-145.56C180.81,-147.1 167.82,-148.68 155.33,-150.2"/>
<polygon fill="midnightblue" stroke="midnightblue" points="193.98,-149.02 203.48,-144.33 193.13,-142.07 193.98,-149.02"/>
</g>
<!-- Node21 -->
<g id="node21" class="node">
<title>Node21</title>
<g id="a_node21"><a xlink:href="classdenoptim_1_1graph_1_1_d_graph_test.html#a05b87ffb43b9710fcea83b0777654e27" target="_top" xlink:title=" ">
<polygon fill="white" stroke="black" points="0,-95.5 0,-125.5 156,-125.5 156,-95.5 0,-95.5"/>
<text text-anchor="start" x="8" y="-113.5" font-family="Helvetica,sans-Serif" font-size="10.00">denoptim.graph.DGraphTest.test</text>
<text text-anchor="middle" x="78" y="-102.5" font-family="Helvetica,sans-Serif" font-size="10.00">DetectSymVertexSets</text>
</a>
</g>
</g>
<!-- Node19&#45;&gt;Node21 -->
<g id="edge22" class="edge">
<title>Node19&#45;&gt;Node21</title>
<path fill="none" stroke="midnightblue" d="M193.29,-125C181.04,-123.45 168.46,-121.85 156.33,-120.31"/>
<polygon fill="midnightblue" stroke="midnightblue" points="193.12,-128.51 203.48,-126.3 194,-121.57 193.12,-128.51"/>
</g>
<!-- Node22&#45;&gt;Node19 -->
<g id="edge24" class="edge">
<title>Node22&#45;&gt;Node19</title>
<path fill="none" stroke="midnightblue" d="M408.7,-108.56C389.52,-112.52 369.25,-116.69 350.55,-120.55"/>
<polygon fill="midnightblue" stroke="midnightblue" points="409.53,-111.97 418.62,-106.52 408.12,-105.11 409.53,-111.97"/>
</g>
<!-- Node23 -->
<g id="node23" class="node">
<title>Node23</title>
<g id="a_node23"><a xlink:href="classdenoptim_1_1graph_1_1_d_graph_test.html#ac02ab6b199aee9280e88a14d0026a175" target="_top" xlink:title=" ">
<polygon fill="white" stroke="black" points="192,-71.5 192,-101.5 362,-101.5 362,-71.5 192,-71.5"/>
<text text-anchor="start" x="200" y="-89.5" font-family="Helvetica,sans-Serif" font-size="10.00">denoptim.graph.DGraphTest.test</text>
<text text-anchor="middle" x="277" y="-78.5" font-family="Helvetica,sans-Serif" font-size="10.00">FindSymmetrySetsOfChildVertexes</text>
</a>
</g>
</g>
<!-- Node22&#45;&gt;Node23 -->
<g id="edge25" class="edge">
<title>Node22&#45;&gt;Node23</title>
<path fill="none" stroke="midnightblue" d="M406.76,-89.52C392.07,-89.17 376.79,-88.81 362.12,-88.47"/>
<polygon fill="midnightblue" stroke="midnightblue" points="406.75,-93.02 416.83,-89.75 406.91,-86.02 406.75,-93.02"/>
</g>
</g>
</svg>
