<?xml version="1.0" encoding="UTF-8" standalone="no"?>
<!DOCTYPE svg PUBLIC "-//W3C//DTD SVG 1.1//EN"
 "http://www.w3.org/Graphics/SVG/1.1/DTD/svg11.dtd">
<!-- Generated by graphviz version 3.0.0 (20221109.1736)
 -->
<!-- Title: denoptim.graph.Edge.getSrcAPThroughout Pages: 1 -->
<!--zoomable 339 -->
<svg id="main" version="1.1" xmlns="http://www.w3.org/2000/svg" xmlns:xlink="http://www.w3.org/1999/xlink" xml:space="preserve" onload="init(evt)">
<style type="text/css"><![CDATA[
.edge:hover path { stroke: red; }
.edge:hover polygon { stroke: red; fill: red; }
]]></style>
<script type="text/javascript"><![CDATA[
var edges = document.getElementsByTagName('g');
if (edges && edges.length) {
  for (var i=0;i<edges.length;i++) {
    if (edges[i].id.substr(0,4)=='edge') {
      edges[i].setAttribute('class','edge');
    }
  }
}
]]></script>
        <defs>
                <circle id="rim" cx="0" cy="0" r="7"/>
                <circle id="rim2" cx="0" cy="0" r="3.5"/>
                <g id="zoomPlus">
                        <use xlink:href="#rim" fill="#404040">
                                <set attributeName="fill" to="#808080" begin="zoomplus.mouseover" end="zoomplus.mouseout"/>
                        </use>
                        <path d="M-4,0h8M0,-4v8" fill="none" stroke="white" stroke-width="1.5" pointer-events="none"/>
                </g>
                <g id="zoomMin">
                        <use xlink:href="#rim" fill="#404040">
                                <set attributeName="fill" to="#808080" begin="zoomminus.mouseover" end="zoomminus.mouseout"/>
                        </use>
                        <path d="M-4,0h8" fill="none" stroke="white" stroke-width="1.5" pointer-events="none"/>
                </g>
                <g id="dirArrow">
                        <path fill="none" stroke="white" stroke-width="1.5" d="M0,-3.0v7 M-2.5,-0.5L0,-3.0L2.5,-0.5"/>
                </g>
               <g id="resetDef">
                       <use xlink:href="#rim2" fill="#404040">
                               <set attributeName="fill" to="#808080" begin="reset.mouseover" end="reset.mouseout"/>
                       </use>
               </g>
        </defs>

<script type="text/javascript">
var viewWidth = 1402;
var viewHeight = 339;
var sectionId = 'dynsection-13';
</script>
<script xlink:href="svgpan.js"/>
<svg id="graph" class="graph">
<g id="viewport">
<title>denoptim.graph.Edge.getSrcAPThroughout</title>
<polygon fill="white" stroke="transparent" points="-4,4 -4,-335 1398,-335 1398,4 -4,4"/>
<!-- Node1 -->
<g id="node1" class="node">
<title>Node1</title>
<g id="a_node1"><a xlink:title=" ">
<polygon fill="#bfbfbf" stroke="black" points="1257,-128.5 1257,-158.5 1394,-158.5 1394,-128.5 1257,-128.5"/>
<text text-anchor="start" x="1265" y="-146.5" font-family="Helvetica,sans-Serif" font-size="10.00">denoptim.graph.Edge.getSrc</text>
<text text-anchor="middle" x="1325.5" y="-135.5" font-family="Helvetica,sans-Serif" font-size="10.00">APThroughout</text>
</a>
</g>
</g>
<!-- Node2 -->
<g id="node2" class="node">
<title>Node2</title>
<g id="a_node2"><a xlink:href="classdenoptim_1_1graph_1_1_vertex.html#a92a7b50538d4e2b316614e3d4740bfcb" target="_top" xlink:title="Looks into the edges that use any of the APs that belong to this vertex and returns the list of attac...">
<polygon fill="white" stroke="black" points="1081,-202.5 1081,-232.5 1209,-232.5 1209,-202.5 1081,-202.5"/>
<text text-anchor="start" x="1089" y="-220.5" font-family="Helvetica,sans-Serif" font-size="10.00">denoptim.graph.Vertex.get</text>
<text text-anchor="middle" x="1145" y="-209.5" font-family="Helvetica,sans-Serif" font-size="10.00">APsFromChildren</text>
</a>
</g>
</g>
<!-- Node1&#45;&gt;Node2 -->
<g id="edge1" class="edge">
<title>Node1&#45;&gt;Node2</title>
<path fill="none" stroke="midnightblue" d="M1286.89,-163.25C1267.5,-173.02 1243.3,-184.6 1221,-193.5 1213.13,-196.64 1204.67,-199.67 1196.37,-202.46"/>
<polygon fill="midnightblue" stroke="midnightblue" points="1288.66,-166.27 1295.99,-158.61 1285.49,-160.03 1288.66,-166.27"/>
</g>
<!-- Node3 -->
<g id="node3" class="node">
<title>Node3</title>
<g id="a_node3"><a xlink:href="classdenoptim_1_1graph_1_1_attachment_point.html#adfc2840f3e5126d847c8d800082f8958" target="_top" xlink:title="Gets the attachment point (AP) that is connected to this AP via the edge user or in any edge user tha...">
<polygon fill="white" stroke="black" points="1072,-153.5 1072,-183.5 1218,-183.5 1218,-153.5 1072,-153.5"/>
<text text-anchor="start" x="1080" y="-171.5" font-family="Helvetica,sans-Serif" font-size="10.00">denoptim.graph.Attachment</text>
<text text-anchor="middle" x="1145" y="-160.5" font-family="Helvetica,sans-Serif" font-size="10.00">Point.getLinkedAPThroughout</text>
</a>
</g>
</g>
<!-- Node1&#45;&gt;Node3 -->
<g id="edge2" class="edge">
<title>Node1&#45;&gt;Node3</title>
<path fill="none" stroke="midnightblue" d="M1246.59,-154.41C1237.14,-155.74 1227.52,-157.08 1218.15,-158.39"/>
<polygon fill="midnightblue" stroke="midnightblue" points="1247.34,-157.84 1256.76,-152.99 1246.37,-150.91 1247.34,-157.84"/>
</g>
<!-- Node24 -->
<g id="node24" class="node">
<title>Node24</title>
<g id="a_node24"><a xlink:href="classdenoptim_1_1graph_1_1_attachment_point.html#a817a26666da5405c5e4d876729bfe549" target="_top" xlink:title="Checks the role of this AP in the user or in any user that might be external to the template embeddin...">
<polygon fill="white" stroke="black" points="1074,-104.5 1074,-134.5 1216,-134.5 1216,-104.5 1074,-104.5"/>
<text text-anchor="start" x="1082" y="-122.5" font-family="Helvetica,sans-Serif" font-size="10.00">denoptim.graph.Attachment</text>
<text text-anchor="middle" x="1145" y="-111.5" font-family="Helvetica,sans-Serif" font-size="10.00">Point.isSrcInUserThroughout</text>
</a>
</g>
</g>
<!-- Node1&#45;&gt;Node24 -->
<g id="edge28" class="edge">
<title>Node1&#45;&gt;Node24</title>
<path fill="none" stroke="midnightblue" d="M1246.67,-133.04C1236.49,-131.67 1226.11,-130.27 1216.07,-128.92"/>
<polygon fill="midnightblue" stroke="midnightblue" points="1246.39,-136.53 1256.76,-134.39 1247.32,-129.59 1246.39,-136.53"/>
</g>
<!-- Node25 -->
<g id="node25" class="node">
<title>Node25</title>
<g id="a_node25"><a xlink:href="classdenoptim_1_1graph_1_1_attachment_point_test.html#a356dbf786633f3c7be94439c0e151913" target="_top" xlink:title=" ">
<polygon fill="white" stroke="black" points="1069,-55.5 1069,-85.5 1221,-85.5 1221,-55.5 1069,-55.5"/>
<text text-anchor="start" x="1077" y="-73.5" font-family="Helvetica,sans-Serif" font-size="10.00">denoptim.graph.Attachment</text>
<text text-anchor="middle" x="1145" y="-62.5" font-family="Helvetica,sans-Serif" font-size="10.00">PointTest.testGetEmbeddedAP</text>
</a>
</g>
</g>
<!-- Node1&#45;&gt;Node25 -->
<g id="edge29" class="edge">
<title>Node1&#45;&gt;Node25</title>
<path fill="none" stroke="midnightblue" d="M1285.08,-123.95C1265.96,-114.79 1242.52,-104.04 1221,-95.5 1212.33,-92.06 1202.97,-88.68 1193.9,-85.57"/>
<polygon fill="midnightblue" stroke="midnightblue" points="1283.57,-127.11 1294.1,-128.3 1286.61,-120.8 1283.57,-127.11"/>
</g>
<!-- Node4 -->
<g id="node4" class="node">
<title>Node4</title>
<g id="a_node4"><a xlink:href="classdenoptim_1_1graph_1_1_d_graph.html#ad38e8849839cb63835e727530ca124d9" target="_top" xlink:title="Checks if the Vertexs that are attached to two given AttachmentPoints apA and apB satisfy these condi...">
<polygon fill="white" stroke="black" points="879,-266.5 879,-296.5 1020,-296.5 1020,-266.5 879,-266.5"/>
<text text-anchor="start" x="887" y="-284.5" font-family="Helvetica,sans-Serif" font-size="10.00">denoptim.graph.DGraph.are</text>
<text text-anchor="middle" x="949.5" y="-273.5" font-family="Helvetica,sans-Serif" font-size="10.00">ApsUsedBySymmetricUsers</text>
</a>
</g>
</g>
<!-- Node3&#45;&gt;Node4 -->
<g id="edge3" class="edge">
<title>Node3&#45;&gt;Node4</title>
<path fill="none" stroke="midnightblue" d="M1076.18,-188.49C1073.68,-190.04 1071.27,-191.71 1069,-193.5 1045.19,-212.31 1056.55,-232.37 1033,-251.5 1025.55,-257.55 1016.77,-262.44 1007.76,-266.38"/>
<polygon fill="midnightblue" stroke="midnightblue" points="1077.92,-191.52 1085.02,-183.65 1074.56,-185.38 1077.92,-191.52"/>
</g>
<!-- Node8 -->
<g id="node8" class="node">
<title>Node8</title>
<g id="a_node8"><a xlink:href="classdenoptim_1_1graph_1_1_d_graph.html#aa46fb7d3a38e4c4401723a75f7c8d764" target="_top" xlink:title=" ">
<polygon fill="white" stroke="black" points="664.5,-229.5 664.5,-259.5 815.5,-259.5 815.5,-229.5 664.5,-229.5"/>
<text text-anchor="start" x="672.5" y="-247.5" font-family="Helvetica,sans-Serif" font-size="10.00">denoptim.graph.DGraph.find</text>
<text text-anchor="middle" x="740" y="-236.5" font-family="Helvetica,sans-Serif" font-size="10.00">SymmetrySetsOfChildVertexes</text>
</a>
</g>
</g>
<!-- Node3&#45;&gt;Node8 -->
<g id="edge13" class="edge">
<title>Node3&#45;&gt;Node8</title>
<path fill="none" stroke="midnightblue" d="M1083.04,-187.16C1078.22,-189.14 1073.49,-191.25 1069,-193.5 1051.58,-202.22 1051.31,-211.86 1033,-218.5 962.31,-244.14 875.95,-248.84 815.56,-248.24"/>
<polygon fill="midnightblue" stroke="midnightblue" points="1084.32,-190.42 1092.38,-183.54 1081.79,-183.89 1084.32,-190.42"/>
</g>
<!-- Node10 -->
<g id="node10" class="node">
<title>Node10</title>
<g id="a_node10"><a xlink:href="classdenoptim_1_1fragspace_1_1_a_p_map_finder.html#a5868844d747acb9bd5331c760a24ff09" target="_top" xlink:title="Compares the AttachmentPoint of two lists searching for all the APs of the second list that are &quot;comp...">
<polygon fill="white" stroke="black" points="866,-178.5 866,-208.5 1033,-208.5 1033,-178.5 866,-178.5"/>
<text text-anchor="start" x="874" y="-196.5" font-family="Helvetica,sans-Serif" font-size="10.00">denoptim.fragspace.APMap</text>
<text text-anchor="middle" x="949.5" y="-185.5" font-family="Helvetica,sans-Serif" font-size="10.00">Finder.findMappingCompatibileAPs</text>
</a>
</g>
</g>
<!-- Node3&#45;&gt;Node10 -->
<g id="edge10" class="edge">
<title>Node3&#45;&gt;Node10</title>
<path fill="none" stroke="midnightblue" d="M1061.73,-179.13C1052.23,-180.36 1042.55,-181.61 1033.04,-182.84"/>
<polygon fill="midnightblue" stroke="midnightblue" points="1062.48,-182.56 1071.95,-177.81 1061.58,-175.62 1062.48,-182.56"/>
</g>
<!-- Node13 -->
<g id="node13" class="node">
<title>Node13</title>
<g id="a_node13"><a xlink:href="classdenoptim_1_1graph_1_1_vertex.html#a2e2ffd927172ca1a4b1fce14c2c347b0" target="_top" xlink:title="Gets attachment points that are used by capping groups throughout the graph levels,...">
<polygon fill="white" stroke="black" points="885.5,-129.5 885.5,-159.5 1013.5,-159.5 1013.5,-129.5 885.5,-129.5"/>
<text text-anchor="start" x="893.5" y="-147.5" font-family="Helvetica,sans-Serif" font-size="10.00">denoptim.graph.Vertex.get</text>
<text text-anchor="middle" x="949.5" y="-136.5" font-family="Helvetica,sans-Serif" font-size="10.00">CappedAPsThroughout</text>
</a>
</g>
</g>
<!-- Node3&#45;&gt;Node13 -->
<g id="edge14" class="edge">
<title>Node3&#45;&gt;Node13</title>
<path fill="none" stroke="midnightblue" d="M1061.98,-158.33C1045.83,-156.32 1029.12,-154.25 1013.7,-152.34"/>
<polygon fill="midnightblue" stroke="midnightblue" points="1061.59,-161.81 1071.95,-159.56 1062.45,-154.86 1061.59,-161.81"/>
</g>
<!-- Node19 -->
<g id="node19" class="node">
<title>Node19</title>
<g id="a_node19"><a xlink:href="classdenoptim_1_1graph_1_1_attachment_point.html#aa3f954b074d8d8deef518821f13dcd24" target="_top" xlink:title="Checks if this and another APs are rooted on atoms that are bonded in any way other than a possible c...">
<polygon fill="white" stroke="black" points="878.5,-13.5 878.5,-43.5 1020.5,-43.5 1020.5,-13.5 878.5,-13.5"/>
<text text-anchor="start" x="886.5" y="-31.5" font-family="Helvetica,sans-Serif" font-size="10.00">denoptim.graph.Attachment</text>
<text text-anchor="middle" x="949.5" y="-20.5" font-family="Helvetica,sans-Serif" font-size="10.00">Point.hasConnectedSrcAtom</text>
</a>
</g>
</g>
<!-- Node3&#45;&gt;Node19 -->
<g id="edge20" class="edge">
<title>Node3&#45;&gt;Node19</title>
<path fill="none" stroke="midnightblue" d="M1072.98,-147.89C1071.6,-146.82 1070.27,-145.69 1069,-144.5 1037.23,-114.79 1065,-82.96 1033,-53.5 1028.82,-49.65 1024.06,-46.39 1018.98,-43.63"/>
<polygon fill="midnightblue" stroke="midnightblue" points="1071.09,-150.84 1081.36,-153.44 1074.96,-145 1071.09,-150.84"/>
</g>
<!-- Node23 -->
<g id="node23" class="node">
<title>Node23</title>
<g id="a_node23"><a xlink:href="classdenoptim_1_1graph_1_1_d_graph.html#a357b4099599e47ae47102123550771f8" target="_top" xlink:title="Remove a given vertex belonging to this graph and re&#45;connects the resulting graph branches as much as...">
<polygon fill="white" stroke="black" points="873.5,-62.5 873.5,-92.5 1025.5,-92.5 1025.5,-62.5 873.5,-62.5"/>
<text text-anchor="start" x="881.5" y="-80.5" font-family="Helvetica,sans-Serif" font-size="10.00">denoptim.graph.DGraph.remove</text>
<text text-anchor="middle" x="949.5" y="-69.5" font-family="Helvetica,sans-Serif" font-size="10.00">SingleVertexAndWeld</text>
</a>
</g>
</g>
<!-- Node3&#45;&gt;Node23 -->
<g id="edge25" class="edge">
<title>Node3&#45;&gt;Node23</title>
<path fill="none" stroke="midnightblue" d="M1080.86,-149.72C1076.8,-148.08 1072.81,-146.34 1069,-144.5 1051.68,-136.16 1049.55,-130.29 1033,-120.5 1016.32,-110.63 997.15,-100.57 981.49,-92.66"/>
<polygon fill="midnightblue" stroke="midnightblue" points="1079.84,-153.08 1090.43,-153.38 1082.34,-146.54 1079.84,-153.08"/>
</g>
<!-- Node5 -->
<g id="node5" class="node">
<title>Node5</title>
<g id="a_node5"><a xlink:href="classdenoptim_1_1graph_1_1_d_graph.html#aff06be9fc2508e591352e7ae46260721" target="_top" xlink:title="Tries to determine the set of symmetric vertices in this graph based on finding compatible Vertexes t...">
<polygon fill="white" stroke="black" points="455.5,-276.5 455.5,-306.5 602.5,-306.5 602.5,-276.5 455.5,-276.5"/>
<text text-anchor="start" x="463.5" y="-294.5" font-family="Helvetica,sans-Serif" font-size="10.00">denoptim.graph.DGraph.detect</text>
<text text-anchor="middle" x="529" y="-283.5" font-family="Helvetica,sans-Serif" font-size="10.00">SymVertexSets</text>
</a>
</g>
</g>
<!-- Node4&#45;&gt;Node5 -->
<g id="edge4" class="edge">
<title>Node4&#45;&gt;Node5</title>
<path fill="none" stroke="midnightblue" d="M868.82,-283.4C792.03,-285.24 676.85,-287.99 602.55,-289.77"/>
<polygon fill="midnightblue" stroke="midnightblue" points="869.01,-286.9 878.92,-283.16 868.84,-279.9 869.01,-286.9"/>
</g>
<!-- Node4&#45;&gt;Node8 -->
<g id="edge7" class="edge">
<title>Node4&#45;&gt;Node8</title>
<path fill="none" stroke="midnightblue" d="M868.72,-267.27C851.34,-264.17 833.01,-260.91 815.83,-257.84"/>
<polygon fill="midnightblue" stroke="midnightblue" points="868.37,-270.77 878.83,-269.08 869.6,-263.88 868.37,-270.77"/>
</g>
<!-- Node6 -->
<g id="node6" class="node">
<title>Node6</title>
<g id="a_node6"><a xlink:href="classdenoptim_1_1ga_1_1_e_a_utils.html#a18eb5d0ba6772e9116176ef6ca9f84fc" target="_top" xlink:title="Converts a molecule into a DGraph by fragmentation and re&#45;assembling of the fragments.">
<polygon fill="white" stroke="black" points="235,-300.5 235,-330.5 389,-330.5 389,-300.5 235,-300.5"/>
<text text-anchor="start" x="243" y="-318.5" font-family="Helvetica,sans-Serif" font-size="10.00">denoptim.ga.EAUtils.make</text>
<text text-anchor="middle" x="312" y="-307.5" font-family="Helvetica,sans-Serif" font-size="10.00">GraphFromFragmentationOfMol</text>
</a>
</g>
</g>
<!-- Node5&#45;&gt;Node6 -->
<g id="edge5" class="edge">
<title>Node5&#45;&gt;Node6</title>
<path fill="none" stroke="midnightblue" d="M445.08,-300.76C426.64,-302.81 407.17,-304.99 389.02,-307.01"/>
<polygon fill="midnightblue" stroke="midnightblue" points="445.66,-304.21 455.21,-299.63 444.88,-297.26 445.66,-304.21"/>
</g>
<!-- Node7 -->
<g id="node7" class="node">
<title>Node7</title>
<g id="a_node7"><a xlink:href="classdenoptim_1_1graph_1_1_d_graph_test.html#a05b87ffb43b9710fcea83b0777654e27" target="_top" xlink:title=" ">
<polygon fill="white" stroke="black" points="234,-251.5 234,-281.5 390,-281.5 390,-251.5 234,-251.5"/>
<text text-anchor="start" x="242" y="-269.5" font-family="Helvetica,sans-Serif" font-size="10.00">denoptim.graph.DGraphTest.test</text>
<text text-anchor="middle" x="312" y="-258.5" font-family="Helvetica,sans-Serif" font-size="10.00">DetectSymVertexSets</text>
</a>
</g>
</g>
<!-- Node5&#45;&gt;Node7 -->
<g id="edge6" class="edge">
<title>Node5&#45;&gt;Node7</title>
<path fill="none" stroke="midnightblue" d="M445.26,-281.88C427.14,-279.77 408.02,-277.55 390.13,-275.47"/>
<polygon fill="midnightblue" stroke="midnightblue" points="444.87,-285.36 455.21,-283.04 445.68,-278.4 444.87,-285.36"/>
</g>
<!-- Node8&#45;&gt;Node5 -->
<g id="edge8" class="edge">
<title>Node8&#45;&gt;Node5</title>
<path fill="none" stroke="midnightblue" d="M662.53,-261.7C640.98,-266.54 617.72,-271.77 596.79,-276.48"/>
<polygon fill="midnightblue" stroke="midnightblue" points="663.31,-265.11 672.3,-259.5 661.77,-258.28 663.31,-265.11"/>
</g>
<!-- Node9 -->
<g id="node9" class="node">
<title>Node9</title>
<g id="a_node9"><a xlink:href="classdenoptim_1_1graph_1_1_d_graph_test.html#ac02ab6b199aee9280e88a14d0026a175" target="_top" xlink:title=" ">
<polygon fill="white" stroke="black" points="444,-227.5 444,-257.5 614,-257.5 614,-227.5 444,-227.5"/>
<text text-anchor="start" x="452" y="-245.5" font-family="Helvetica,sans-Serif" font-size="10.00">denoptim.graph.DGraphTest.test</text>
<text text-anchor="middle" x="529" y="-234.5" font-family="Helvetica,sans-Serif" font-size="10.00">FindSymmetrySetsOfChildVertexes</text>
</a>
</g>
</g>
<!-- Node8&#45;&gt;Node9 -->
<g id="edge9" class="edge">
<title>Node8&#45;&gt;Node9</title>
<path fill="none" stroke="midnightblue" d="M654.39,-243.69C641.12,-243.56 627.4,-243.43 614.14,-243.31"/>
<polygon fill="midnightblue" stroke="midnightblue" points="654.4,-247.19 664.43,-243.79 654.47,-240.19 654.4,-247.19"/>
</g>
<!-- Node11 -->
<g id="node11" class="node">
<title>Node11</title>
<g id="a_node11"><a xlink:href="classdenoptim_1_1fragspace_1_1_a_p_map_finder.html#ae5c8afa4b7defd6ce35df0fa1c5facf2" target="_top" xlink:title="Searches for mappings between the AttachmentPoints on the two lists.">
<polygon fill="white" stroke="black" points="672,-178.5 672,-208.5 808,-208.5 808,-178.5 672,-178.5"/>
<text text-anchor="start" x="680" y="-196.5" font-family="Helvetica,sans-Serif" font-size="10.00">denoptim.fragspace.APMap</text>
<text text-anchor="middle" x="740" y="-185.5" font-family="Helvetica,sans-Serif" font-size="10.00">Finder.findAllMappings</text>
</a>
</g>
</g>
<!-- Node10&#45;&gt;Node11 -->
<g id="edge11" class="edge">
<title>Node10&#45;&gt;Node11</title>
<path fill="none" stroke="midnightblue" d="M855.46,-193.5C839.47,-193.5 823.14,-193.5 808.01,-193.5"/>
<polygon fill="midnightblue" stroke="midnightblue" points="855.89,-197 865.89,-193.5 855.89,-190 855.89,-197"/>
</g>
<!-- Node12 -->
<g id="node12" class="node">
<title>Node12</title>
<g id="a_node12"><a xlink:href="classdenoptim_1_1fragspace_1_1_a_p_map_finder.html#ada1b2c2155faeefced1d9a64f82a6668" target="_top" xlink:title="Constructor that launches the search for a mapping between the AttachmentPoints on the first vertex t...">
<polygon fill="white" stroke="black" points="461,-178.5 461,-208.5 597,-208.5 597,-178.5 461,-178.5"/>
<text text-anchor="start" x="469" y="-196.5" font-family="Helvetica,sans-Serif" font-size="10.00">denoptim.fragspace.APMap</text>
<text text-anchor="middle" x="529" y="-185.5" font-family="Helvetica,sans-Serif" font-size="10.00">Finder.APMapFinder</text>
</a>
</g>
</g>
<!-- Node11&#45;&gt;Node12 -->
<g id="edge12" class="edge">
<title>Node11&#45;&gt;Node12</title>
<path fill="none" stroke="midnightblue" d="M661.49,-193.5C640.36,-193.5 617.65,-193.5 597.15,-193.5"/>
<polygon fill="midnightblue" stroke="midnightblue" points="661.72,-197 671.72,-193.5 661.72,-190 661.72,-197"/>
</g>
<!-- Node14 -->
<g id="node14" class="node">
<title>Node14</title>
<g id="a_node14"><a xlink:href="classdenoptim_1_1graph_1_1_vertex.html#ab96b76e89a6ca31a68c9f43466f9c5a9" target="_top" xlink:title="Counts the number of attachment points that are used by BBType#CAP vertex.">
<polygon fill="white" stroke="black" points="671.5,-129.5 671.5,-159.5 808.5,-159.5 808.5,-129.5 671.5,-129.5"/>
<text text-anchor="start" x="679.5" y="-147.5" font-family="Helvetica,sans-Serif" font-size="10.00">denoptim.graph.Vertex.get</text>
<text text-anchor="middle" x="740" y="-136.5" font-family="Helvetica,sans-Serif" font-size="10.00">CappedAPCountThroughout</text>
</a>
</g>
</g>
<!-- Node13&#45;&gt;Node14 -->
<g id="edge15" class="edge">
<title>Node13&#45;&gt;Node14</title>
<path fill="none" stroke="midnightblue" d="M875.29,-144.5C853.67,-144.5 830.12,-144.5 808.85,-144.5"/>
<polygon fill="midnightblue" stroke="midnightblue" points="875.4,-148 885.4,-144.5 875.4,-141 875.4,-148"/>
</g>
<!-- Node15 -->
<g id="node15" class="node">
<title>Node15</title>
<g id="a_node15"><a xlink:href="classdenoptim_1_1graph_1_1_vertex.html#a5c6af6108f5caedf3641ef2ed383f954" target="_top" xlink:title="Returns the list of mutation types.">
<polygon fill="white" stroke="black" points="465,-129.5 465,-159.5 593,-159.5 593,-129.5 465,-129.5"/>
<text text-anchor="start" x="473" y="-147.5" font-family="Helvetica,sans-Serif" font-size="10.00">denoptim.graph.Vertex.get</text>
<text text-anchor="middle" x="529" y="-136.5" font-family="Helvetica,sans-Serif" font-size="10.00">MutationTypes</text>
</a>
</g>
</g>
<!-- Node14&#45;&gt;Node15 -->
<g id="edge16" class="edge">
<title>Node14&#45;&gt;Node15</title>
<path fill="none" stroke="midnightblue" d="M661.25,-144.5C638.78,-144.5 614.54,-144.5 593.08,-144.5"/>
<polygon fill="midnightblue" stroke="midnightblue" points="661.43,-148 671.43,-144.5 661.43,-141 661.43,-148"/>
</g>
<!-- Node16 -->
<g id="node16" class="node">
<title>Node16</title>
<g id="a_node16"><a xlink:href="classdenoptim_1_1graph_1_1_d_graph.html#af404e25092eabcdfbe69b5d7204e9483" target="_top" xlink:title="Mutates the graph by removing the chain where a given vertex is located up to the first branching (i....">
<polygon fill="white" stroke="black" points="453,-80.5 453,-110.5 605,-110.5 605,-80.5 453,-80.5"/>
<text text-anchor="start" x="461" y="-98.5" font-family="Helvetica,sans-Serif" font-size="10.00">denoptim.graph.DGraph.remove</text>
<text text-anchor="middle" x="529" y="-87.5" font-family="Helvetica,sans-Serif" font-size="10.00">ChainUpToBranching</text>
</a>
</g>
</g>
<!-- Node14&#45;&gt;Node16 -->
<g id="edge17" class="edge">
<title>Node14&#45;&gt;Node16</title>
<path fill="none" stroke="midnightblue" d="M665.08,-127.17C641.87,-121.73 616.46,-115.77 594.01,-110.51"/>
<polygon fill="midnightblue" stroke="midnightblue" points="664.34,-130.59 674.87,-129.47 665.94,-123.78 664.34,-130.59"/>
</g>
<!-- Node17 -->
<g id="node17" class="node">
<title>Node17</title>
<g id="a_node17"><a xlink:href="classdenoptim_1_1ga_1_1_graph_operations.html#afd659e74a056d1a6ae6f52513fee0be3" target="_top" xlink:title="Deletes the given vertex and all other vertexes that are not connected to more than 2 non&#45;capping gro...">
<polygon fill="white" stroke="black" points="225.5,-80.5 225.5,-110.5 398.5,-110.5 398.5,-80.5 225.5,-80.5"/>
<text text-anchor="start" x="233.5" y="-98.5" font-family="Helvetica,sans-Serif" font-size="10.00">denoptim.ga.GraphOperations.delete</text>
<text text-anchor="middle" x="312" y="-87.5" font-family="Helvetica,sans-Serif" font-size="10.00">Chain</text>
</a>
</g>
</g>
<!-- Node16&#45;&gt;Node17 -->
<g id="edge18" class="edge">
<title>Node16&#45;&gt;Node17</title>
<path fill="none" stroke="midnightblue" d="M442.46,-95.5C428.1,-95.5 413.19,-95.5 398.82,-95.5"/>
<polygon fill="midnightblue" stroke="midnightblue" points="442.8,-99 452.8,-95.5 442.8,-92 442.8,-99"/>
</g>
<!-- Node18 -->
<g id="node18" class="node">
<title>Node18</title>
<g id="a_node18"><a xlink:href="classdenoptim_1_1ga_1_1_graph_operations.html#a0c851972015fbb4b2a317b053b8b81d9" target="_top" xlink:title="Mutates the given vertex according to the given mutation type, if possible.">
<polygon fill="white" stroke="black" points="0,-58.5 0,-88.5 180,-88.5 180,-58.5 0,-58.5"/>
<text text-anchor="start" x="8" y="-76.5" font-family="Helvetica,sans-Serif" font-size="10.00">denoptim.ga.GraphOperations.perform</text>
<text text-anchor="middle" x="90" y="-65.5" font-family="Helvetica,sans-Serif" font-size="10.00">Mutation</text>
</a>
</g>
</g>
<!-- Node17&#45;&gt;Node18 -->
<g id="edge19" class="edge">
<title>Node17&#45;&gt;Node18</title>
<path fill="none" stroke="midnightblue" d="M215.14,-85.91C203.49,-84.75 191.63,-83.56 180.08,-82.41"/>
<polygon fill="midnightblue" stroke="midnightblue" points="215.01,-89.42 225.31,-86.93 215.71,-82.45 215.01,-89.42"/>
</g>
<!-- Node20 -->
<g id="node20" class="node">
<title>Node20</title>
<g id="a_node20"><a xlink:href="classdenoptim_1_1graph_1_1_d_graph.html#a00209ca8b4a9623b41e7d9e1e62f69ec" target="_top" xlink:title="Remove a given vertex belonging to this graph and re&#45;connects the resulting graph branches as much as...">
<polygon fill="white" stroke="black" points="664,-49.5 664,-79.5 816,-79.5 816,-49.5 664,-49.5"/>
<text text-anchor="start" x="672" y="-67.5" font-family="Helvetica,sans-Serif" font-size="10.00">denoptim.graph.DGraph.remove</text>
<text text-anchor="middle" x="740" y="-56.5" font-family="Helvetica,sans-Serif" font-size="10.00">VertexAndWeld</text>
</a>
</g>
</g>
<!-- Node19&#45;&gt;Node20 -->
<g id="edge21" class="edge">
<title>Node19&#45;&gt;Node20</title>
<path fill="none" stroke="midnightblue" d="M868.28,-42.42C851.14,-45.39 833.09,-48.52 816.15,-51.46"/>
<polygon fill="midnightblue" stroke="midnightblue" points="869,-45.85 878.25,-40.69 867.8,-38.95 869,-45.85"/>
</g>
<!-- Node22 -->
<g id="node22" class="node">
<title>Node22</title>
<g id="a_node22"><a xlink:href="classdenoptim_1_1graph_1_1_attachment_point_test.html#af88d30ce68477984fe6179325d1540b2" target="_top" xlink:title=" ">
<polygon fill="white" stroke="black" points="650,-0.5 650,-30.5 830,-30.5 830,-0.5 650,-0.5"/>
<text text-anchor="start" x="658" y="-18.5" font-family="Helvetica,sans-Serif" font-size="10.00">denoptim.graph.Attachment</text>
<text text-anchor="middle" x="740" y="-7.5" font-family="Helvetica,sans-Serif" font-size="10.00">PointTest.testHasConnectedSrcAtom</text>
</a>
</g>
</g>
<!-- Node19&#45;&gt;Node22 -->
<g id="edge24" class="edge">
<title>Node19&#45;&gt;Node22</title>
<path fill="none" stroke="midnightblue" d="M868,-23.46C855.65,-22.68 842.83,-21.88 830.31,-21.1"/>
<polygon fill="midnightblue" stroke="midnightblue" points="868.05,-26.97 878.25,-24.1 868.49,-19.98 868.05,-26.97"/>
</g>
<!-- Node21 -->
<g id="node21" class="node">
<title>Node21</title>
<g id="a_node21"><a xlink:href="classdenoptim_1_1ga_1_1_graph_operations.html#ab3adb5141a8941bf23916bb516faee63" target="_top" xlink:title="Removes a vertex while merging as many of the child branches into the parent vertex.">
<polygon fill="white" stroke="black" points="216,-42 216,-61 408,-61 408,-42 216,-42"/>
<text text-anchor="middle" x="312" y="-49" font-family="Helvetica,sans-Serif" font-size="10.00">denoptim.ga.GraphOperations.deleteLink</text>
</a>
</g>
</g>
<!-- Node20&#45;&gt;Node21 -->
<g id="edge22" class="edge">
<title>Node20&#45;&gt;Node21</title>
<path fill="none" stroke="midnightblue" d="M653.58,-61.89C582.66,-59.73 481.86,-56.65 408.33,-54.41"/>
<polygon fill="midnightblue" stroke="midnightblue" points="653.72,-65.4 663.82,-62.21 653.93,-58.4 653.72,-65.4"/>
</g>
<!-- Node21&#45;&gt;Node18 -->
<g id="edge23" class="edge">
<title>Node21&#45;&gt;Node18</title>
<path fill="none" stroke="midnightblue" d="M205.75,-62.03C197.17,-62.88 188.56,-63.74 180.11,-64.59"/>
<polygon fill="midnightblue" stroke="midnightblue" points="206.18,-65.5 215.78,-61.02 205.49,-58.53 206.18,-65.5"/>
</g>
<!-- Node23&#45;&gt;Node20 -->
<g id="edge27" class="edge">
<title>Node23&#45;&gt;Node20</title>
<path fill="none" stroke="midnightblue" d="M863.18,-72.15C847.64,-71.18 831.52,-70.17 816.3,-69.22"/>
<polygon fill="midnightblue" stroke="midnightblue" points="863.1,-75.66 873.29,-72.79 863.53,-68.67 863.1,-75.66"/>
</g>
<!-- Node23&#45;&gt;Node23 -->
<g id="edge26" class="edge">
<title>Node23&#45;&gt;Node23</title>
<path fill="none" stroke="midnightblue" d="M983.97,-102.96C979.69,-107.68 968.2,-111 949.5,-111 918.81,-111 907.54,-102.06 915.69,-92.66"/>
<polygon fill="midnightblue" stroke="midnightblue" points="987.44,-102.41 983.31,-92.66 980.46,-102.86 987.44,-102.41"/>
</g>
</g>
</svg>
        <g id="navigator" transform="translate(0 0)" fill="#404254">
                <rect fill="#f2f5e9" fill-opacity="0.5" stroke="#606060" stroke-width=".5" x="0" y="0" width="60" height="60"/>
                <use id="zoomplus" xlink:href="#zoomPlus" x="17" y="9" onmousedown="handleZoom(evt,'in')"/>
                <use id="zoomminus" xlink:href="#zoomMin" x="42" y="9" onmousedown="handleZoom(evt,'out')"/>
                <use id="reset" xlink:href="#resetDef" x="30" y="36" onmousedown="handleReset()"/>
                <g id="arrowUp" xlink:href="#dirArrow" transform="translate(30 24)" onmousedown="handlePan(0,-1)">
                  <use xlink:href="#rim" fill="#404040">
                        <set attributeName="fill" to="#808080" begin="arrowUp.mouseover" end="arrowUp.mouseout"/>
                  </use>
                  <path fill="none" stroke="white" stroke-width="1.5" d="M0,-3.0v7 M-2.5,-0.5L0,-3.0L2.5,-0.5"/>
                </g>
                <g id="arrowRight" xlink:href="#dirArrow" transform="rotate(90) translate(36 -43)" onmousedown="handlePan(1,0)">
                  <use xlink:href="#rim" fill="#404040">
                        <set attributeName="fill" to="#808080" begin="arrowRight.mouseover" end="arrowRight.mouseout"/>
                  </use>
                  <path fill="none" stroke="white" stroke-width="1.5" d="M0,-3.0v7 M-2.5,-0.5L0,-3.0L2.5,-0.5"/>
                </g>
                <g id="arrowDown" xlink:href="#dirArrow" transform="rotate(180) translate(-30 -48)" onmousedown="handlePan(0,1)">
                  <use xlink:href="#rim" fill="#404040">
                        <set attributeName="fill" to="#808080" begin="arrowDown.mouseover" end="arrowDown.mouseout"/>
                  </use>
                  <path fill="none" stroke="white" stroke-width="1.5" d="M0,-3.0v7 M-2.5,-0.5L0,-3.0L2.5,-0.5"/>
                </g>
                <g id="arrowLeft" xlink:href="#dirArrow" transform="rotate(270) translate(-36 17)" onmousedown="handlePan(-1,0)">
                  <use xlink:href="#rim" fill="#404040">
                        <set attributeName="fill" to="#808080" begin="arrowLeft.mouseover" end="arrowLeft.mouseout"/>
                  </use>
                  <path fill="none" stroke="white" stroke-width="1.5" d="M0,-3.0v7 M-2.5,-0.5L0,-3.0L2.5,-0.5"/>
                </g>
        </g>
        <svg viewBox="0 0 15 15" width="100%" height="30px" preserveAspectRatio="xMaxYMin meet">
         <g id="arrow_out" transform="scale(0.3 0.3)">
          <a xlink:href="classdenoptim_1_1graph_1_1_edge_a20a0c78541321532267b2fda0a6b634b_icgraph_org.svg" target="_base">
           <rect id="button" ry="5" rx="5" y="6" x="6" height="38" width="38"
                fill="#f2f5e9" fill-opacity="0.5" stroke="#606060" stroke-width="1.0"/>
           <path id="arrow"
             d="M 11.500037,31.436501 C 11.940474,20.09759 22.043105,11.32322 32.158766,21.979434 L 37.068811,17.246167 C 37.068811,17.246167 37.088388,32 37.088388,32 L 22.160133,31.978069 C 22.160133,31.978069 26.997745,27.140456 26.997745,27.140456 C 18.528582,18.264221 13.291696,25.230495 11.500037,31.436501 z"
             style="fill:#404040;"/>
          </a>
         </g>
        </svg>
</svg>
