<?xml version="1.0" encoding="UTF-8" standalone="no"?>
<!DOCTYPE svg PUBLIC "-//W3C//DTD SVG 1.1//EN"
 "http://www.w3.org/Graphics/SVG/1.1/DTD/svg11.dtd">
<!-- Generated by graphviz version 3.0.0 (20221109.1736)
 -->
<!-- Title: denoptim.graph.rings.CyclicGraphHandler.RingSizeManager.calculateCompatibilityOfAllRCAPairs Pages: 1 -->
<svg width="960pt" height="340pt"
 viewBox="0.00 0.00 960.00 340.00" xmlns="http://www.w3.org/2000/svg" xmlns:xlink="http://www.w3.org/1999/xlink">
<g id="graph0" class="graph" transform="scale(1 1) rotate(0) translate(4 336)">
<title>denoptim.graph.rings.CyclicGraphHandler.RingSizeManager.calculateCompatibilityOfAllRCAPairs</title>
<polygon fill="white" stroke="transparent" points="-4,4 -4,-336 956,-336 956,4 -4,4"/>
<!-- Node1 -->
<g id="node1" class="node">
<title>Node1</title>
<g id="a_node1"><a xlink:title=" ">
<polygon fill="#bfbfbf" stroke="black" points="0,-112 0,-153 196,-153 196,-112 0,-112"/>
<text text-anchor="start" x="8" y="-141" font-family="Helvetica,sans-Serif" font-size="10.00">denoptim.graph.rings.Cyclic</text>
<text text-anchor="start" x="8" y="-130" font-family="Helvetica,sans-Serif" font-size="10.00">GraphHandler.RingSizeManager.calculate</text>
<text text-anchor="middle" x="98" y="-119" font-family="Helvetica,sans-Serif" font-size="10.00">CompatibilityOfAllRCAPairs</text>
</a>
</g>
</g>
<!-- Node2 -->
<g id="node2" class="node">
<title>Node2</title>
<g id="a_node2"><a xlink:href="classdenoptim_1_1graph_1_1rings_1_1_cyclic_graph_handler.html#a8dcec9483dc562e8696ea90a65842327" target="_top" xlink:title="Method to analyze a pair of vertices and evaluate whether they respect the criteria for being the two...">
<polygon fill="white" stroke="black" points="241.5,-191.5 241.5,-221.5 394.5,-221.5 394.5,-191.5 241.5,-191.5"/>
<text text-anchor="start" x="249.5" y="-209.5" font-family="Helvetica,sans-Serif" font-size="10.00">denoptim.graph.rings.Cyclic</text>
<text text-anchor="middle" x="318" y="-198.5" font-family="Helvetica,sans-Serif" font-size="10.00">GraphHandler.evaluateRCVPair</text>
</a>
</g>
</g>
<!-- Node1&#45;&gt;Node2 -->
<g id="edge1" class="edge">
<title>Node1&#45;&gt;Node2</title>
<path fill="none" stroke="midnightblue" d="M150.75,-153.12C175.22,-162.56 204.93,-173.61 232,-182.5 238.26,-184.56 244.82,-186.6 251.4,-188.58"/>
<polygon fill="midnightblue" stroke="midnightblue" points="250.43,-191.94 261.01,-191.42 252.42,-185.23 250.43,-191.94"/>
</g>
<!-- Node14 -->
<g id="node14" class="node">
<title>Node14</title>
<g id="a_node14"><a xlink:href="classdenoptim_1_1graph_1_1rings_1_1_ring_closure_parameters.html#a870b2456fe1fefeae6b8411d2febadf6" target="_top" xlink:title=" ">
<polygon fill="white" stroke="black" points="232,-142.5 232,-172.5 404,-172.5 404,-142.5 232,-142.5"/>
<text text-anchor="start" x="240" y="-160.5" font-family="Helvetica,sans-Serif" font-size="10.00">denoptim.graph.rings.Ring</text>
<text text-anchor="middle" x="318" y="-149.5" font-family="Helvetica,sans-Serif" font-size="10.00">ClosureParameters.getMaxRingSize</text>
</a>
</g>
</g>
<!-- Node1&#45;&gt;Node14 -->
<g id="edge16" class="edge">
<title>Node1&#45;&gt;Node14</title>
<path fill="none" stroke="midnightblue" d="M196.21,-143.65C204.77,-144.63 213.44,-145.62 221.99,-146.6"/>
<polygon fill="midnightblue" stroke="midnightblue" points="221.63,-150.09 231.96,-147.75 222.43,-143.13 221.63,-150.09"/>
</g>
<!-- Node15 -->
<g id="node15" class="node">
<title>Node15</title>
<g id="a_node15"><a xlink:href="classdenoptim_1_1graph_1_1rings_1_1_ring_closing_attractor.html#a1181ea61bfd92dd5bfc3068772cce586" target="_top" xlink:title="Checks whether the constructed RingClosingAttractor does corresponds to a RingClosingAttractor in the...">
<polygon fill="white" stroke="black" points="251,-93.5 251,-123.5 385,-123.5 385,-93.5 251,-93.5"/>
<text text-anchor="start" x="259" y="-111.5" font-family="Helvetica,sans-Serif" font-size="10.00">denoptim.graph.rings.Ring</text>
<text text-anchor="middle" x="318" y="-100.5" font-family="Helvetica,sans-Serif" font-size="10.00">ClosingAttractor.isAttractor</text>
</a>
</g>
</g>
<!-- Node1&#45;&gt;Node15 -->
<g id="edge17" class="edge">
<title>Node1&#45;&gt;Node15</title>
<path fill="none" stroke="midnightblue" d="M196.21,-121.8C211.1,-120.16 226.29,-118.49 240.64,-116.91"/>
<polygon fill="midnightblue" stroke="midnightblue" points="241.38,-120.35 250.94,-115.77 240.61,-113.39 241.38,-120.35"/>
</g>
<!-- Node16 -->
<g id="node16" class="node">
<title>Node16</title>
<g id="a_node16"><a xlink:href="classdenoptim_1_1graph_1_1rings_1_1_ring_closing_attractor.html#a333e897a1d7e04069b2469e453f41920" target="_top" xlink:title="Evaluate compatibility between this RingClosingAttractor and another one.">
<polygon fill="white" stroke="black" points="245.5,-44.5 245.5,-74.5 390.5,-74.5 390.5,-44.5 245.5,-44.5"/>
<text text-anchor="start" x="253.5" y="-62.5" font-family="Helvetica,sans-Serif" font-size="10.00">denoptim.graph.rings.Ring</text>
<text text-anchor="middle" x="318" y="-51.5" font-family="Helvetica,sans-Serif" font-size="10.00">ClosingAttractor.isCompatible</text>
</a>
</g>
</g>
<!-- Node1&#45;&gt;Node16 -->
<g id="edge18" class="edge">
<title>Node1&#45;&gt;Node16</title>
<path fill="none" stroke="midnightblue" d="M153.75,-111.9C177.66,-103.12 206.1,-92.97 232,-84.5 239.12,-82.17 246.6,-79.83 254.05,-77.55"/>
<polygon fill="midnightblue" stroke="midnightblue" points="255.23,-80.85 263.8,-74.61 253.21,-74.15 255.23,-80.85"/>
</g>
<!-- Node3 -->
<g id="node3" class="node">
<title>Node3</title>
<g id="a_node3"><a xlink:href="classdenoptim_1_1graph_1_1_attachment_point.html#a7e45846280a63bd2bf36b85e502ffa49" target="_top" xlink:title="The index of the source atom in the atom list of the fragment.">
<polygon fill="white" stroke="black" points="446.5,-301.5 446.5,-331.5 594.5,-331.5 594.5,-301.5 446.5,-301.5"/>
<text text-anchor="start" x="454.5" y="-319.5" font-family="Helvetica,sans-Serif" font-size="10.00">denoptim.graph.Attachment</text>
<text text-anchor="middle" x="520.5" y="-308.5" font-family="Helvetica,sans-Serif" font-size="10.00">Point.getAtomPositionNumber</text>
</a>
</g>
</g>
<!-- Node2&#45;&gt;Node3 -->
<g id="edge2" class="edge">
<title>Node2&#45;&gt;Node3</title>
<path fill="none" stroke="midnightblue" d="M338.71,-221.53C361.99,-238.81 402.33,-267.24 440,-286.5 447.83,-290.5 456.32,-294.26 464.74,-297.68"/>
<polygon fill="midnightblue" stroke="midnightblue" points="463.59,-300.99 474.17,-301.39 466.15,-294.48 463.59,-300.99"/>
</g>
<!-- Node4 -->
<g id="node4" class="node">
<title>Node4</title>
<g id="a_node4"><a xlink:href="classdenoptim_1_1graph_1_1_vertex.html#a85aa901ec3fff8e566c0cc32d9c9f84e" target="_top" xlink:title=" ">
<polygon fill="white" stroke="black" points="824,-213.5 824,-243.5 952,-243.5 952,-213.5 824,-213.5"/>
<text text-anchor="start" x="832" y="-231.5" font-family="Helvetica,sans-Serif" font-size="10.00">denoptim.graph.Vertex.get</text>
<text text-anchor="middle" x="888" y="-220.5" font-family="Helvetica,sans-Serif" font-size="10.00">AttachmentPoints</text>
</a>
</g>
</g>
<!-- Node2&#45;&gt;Node4 -->
<g id="edge3" class="edge">
<title>Node2&#45;&gt;Node4</title>
<path fill="none" stroke="midnightblue" d="M354.27,-221.55C378.02,-230.91 410.31,-242.14 440,-247.5 592.23,-274.98 634.49,-272.58 788,-253.5 801.04,-251.88 814.82,-249.1 827.83,-245.97"/>
<polygon fill="midnightblue" stroke="midnightblue" points="828.75,-249.35 837.6,-243.53 827.05,-242.56 828.75,-249.35"/>
</g>
<!-- Node5 -->
<g id="node5" class="node">
<title>Node5</title>
<g id="a_node5"><a xlink:href="classdenoptim_1_1graph_1_1_vertex.html#a44e705b8949b0fd73763e2e92a118b78" target="_top" xlink:title="Looks into the edges that use any of the APs that belong to this vertex and returns the vertex which ...">
<polygon fill="white" stroke="black" points="456.5,-120.5 456.5,-150.5 584.5,-150.5 584.5,-120.5 456.5,-120.5"/>
<text text-anchor="start" x="464.5" y="-138.5" font-family="Helvetica,sans-Serif" font-size="10.00">denoptim.graph.Vertex.get</text>
<text text-anchor="middle" x="520.5" y="-127.5" font-family="Helvetica,sans-Serif" font-size="10.00">Parent</text>
</a>
</g>
</g>
<!-- Node2&#45;&gt;Node5 -->
<g id="edge4" class="edge">
<title>Node2&#45;&gt;Node5</title>
<path fill="none" stroke="midnightblue" d="M380.08,-191.44C388.24,-188.8 396.41,-185.81 404,-182.5 421.18,-174.99 422.93,-168.26 440,-160.5 445.02,-158.22 450.31,-156.06 455.68,-154.04"/>
<polygon fill="midnightblue" stroke="midnightblue" points="457.15,-157.23 465.38,-150.56 454.78,-150.64 457.15,-157.23"/>
</g>
<!-- Node9 -->
<g id="node9" class="node">
<title>Node9</title>
<g id="a_node9"><a xlink:href="classdenoptim_1_1fragspace_1_1_fragment_space.html#a76a6438c28d260a0f676e22e08cf0dbe" target="_top" xlink:title="Returns the compatibility matrix for ring closing fragment&#45;fragment connections or null if not provid...">
<polygon fill="white" stroke="black" points="443,-169.5 443,-199.5 598,-199.5 598,-169.5 443,-169.5"/>
<text text-anchor="start" x="451" y="-187.5" font-family="Helvetica,sans-Serif" font-size="10.00">denoptim.fragspace.Fragment</text>
<text text-anchor="middle" x="520.5" y="-176.5" font-family="Helvetica,sans-Serif" font-size="10.00">Space.getRCCompatibilityMatrix</text>
</a>
</g>
</g>
<!-- Node2&#45;&gt;Node9 -->
<g id="edge9" class="edge">
<title>Node2&#45;&gt;Node9</title>
<path fill="none" stroke="midnightblue" d="M394.51,-198.21C406.95,-196.85 419.93,-195.43 432.62,-194.03"/>
<polygon fill="midnightblue" stroke="midnightblue" points="433.16,-197.49 442.72,-192.92 432.4,-190.54 433.16,-197.49"/>
</g>
<!-- Node10 -->
<g id="node10" class="node">
<title>Node10</title>
<g id="a_node10"><a xlink:href="classdenoptim_1_1graph_1_1_edge.html#a79f950d1cffe6e323eadc8cd36079841" target="_top" xlink:title=" ">
<polygon fill="white" stroke="black" points="452,-36.5 452,-66.5 589,-66.5 589,-36.5 452,-36.5"/>
<text text-anchor="start" x="460" y="-54.5" font-family="Helvetica,sans-Serif" font-size="10.00">denoptim.graph.Edge.getSrc</text>
<text text-anchor="middle" x="520.5" y="-43.5" font-family="Helvetica,sans-Serif" font-size="10.00">APClass</text>
</a>
</g>
</g>
<!-- Node2&#45;&gt;Node10 -->
<g id="edge10" class="edge">
<title>Node2&#45;&gt;Node10</title>
<path fill="none" stroke="midnightblue" d="M390.4,-191.35C395.25,-188.84 399.86,-185.91 404,-182.5 431.32,-160.02 417.29,-138.63 440,-111.5 452.71,-96.31 469.96,-82.71 485.14,-72.31"/>
<polygon fill="midnightblue" stroke="midnightblue" points="487.39,-75.01 493.79,-66.56 483.52,-69.18 487.39,-75.01"/>
</g>
<!-- Node12 -->
<g id="node12" class="node">
<title>Node12</title>
<g id="a_node12"><a xlink:href="classdenoptim_1_1graph_1_1_edge.html#a9696d3ee0d321b73b06d33bcb8fa86fd" target="_top" xlink:title=" ">
<polygon fill="white" stroke="black" points="440,-219 440,-238 601,-238 601,-219 440,-219"/>
<text text-anchor="middle" x="520.5" y="-226" font-family="Helvetica,sans-Serif" font-size="10.00">denoptim.graph.Edge.getSrcAPID</text>
</a>
</g>
</g>
<!-- Node2&#45;&gt;Node12 -->
<g id="edge12" class="edge">
<title>Node2&#45;&gt;Node12</title>
<path fill="none" stroke="midnightblue" d="M394.51,-214.79C405.93,-216.04 417.81,-217.34 429.5,-218.62"/>
<polygon fill="midnightblue" stroke="midnightblue" points="429.38,-222.13 439.7,-219.74 430.15,-215.17 429.38,-222.13"/>
</g>
<!-- Node5&#45;&gt;Node4 -->
<g id="edge5" class="edge">
<title>Node5&#45;&gt;Node4</title>
<path fill="none" stroke="midnightblue" d="M545.1,-120.33C593.5,-91.31 706.34,-34.55 788,-78.5 837.51,-105.15 866.38,-168.61 879.13,-203.85"/>
<polygon fill="midnightblue" stroke="midnightblue" points="875.85,-205.1 882.44,-213.4 882.47,-202.8 875.85,-205.1"/>
</g>
<!-- Node6 -->
<g id="node6" class="node">
<title>Node6</title>
<g id="a_node6"><a xlink:href="classdenoptim_1_1graph_1_1_attachment_point.html#ac8551521d38644f5109800b665957ee9" target="_top" xlink:title=" ">
<polygon fill="white" stroke="black" points="645,-164.5 645,-194.5 780,-194.5 780,-164.5 645,-164.5"/>
<text text-anchor="start" x="653" y="-182.5" font-family="Helvetica,sans-Serif" font-size="10.00">denoptim.graph.Attachment</text>
<text text-anchor="middle" x="712.5" y="-171.5" font-family="Helvetica,sans-Serif" font-size="10.00">Point.getOwner</text>
</a>
</g>
</g>
<!-- Node5&#45;&gt;Node6 -->
<g id="edge6" class="edge">
<title>Node5&#45;&gt;Node6</title>
<path fill="none" stroke="midnightblue" d="M584.5,-150.09C601.21,-153.96 619.41,-158.17 636.68,-162.17"/>
<polygon fill="midnightblue" stroke="midnightblue" points="636.19,-165.65 646.72,-164.5 637.76,-158.83 636.19,-165.65"/>
</g>
<!-- Node7 -->
<g id="node7" class="node">
<title>Node7</title>
<g id="a_node7"><a xlink:href="classdenoptim_1_1graph_1_1_edge.html#a658e275a18a50f12474777f5f28c35e9" target="_top" xlink:title=" ">
<polygon fill="white" stroke="black" points="637,-88 637,-107 788,-107 788,-88 637,-88"/>
<text text-anchor="middle" x="712.5" y="-95" font-family="Helvetica,sans-Serif" font-size="10.00">denoptim.graph.Edge.getSrcAP</text>
</a>
</g>
</g>
<!-- Node5&#45;&gt;Node7 -->
<g id="edge7" class="edge">
<title>Node5&#45;&gt;Node7</title>
<path fill="none" stroke="midnightblue" d="M584.5,-122.9C606.89,-118.42 631.96,-113.41 653.88,-109.02"/>
<polygon fill="midnightblue" stroke="midnightblue" points="654.59,-112.45 663.71,-107.06 653.21,-105.59 654.59,-112.45"/>
</g>
<!-- Node8 -->
<g id="node8" class="node">
<title>Node8</title>
<g id="a_node8"><a xlink:href="classdenoptim_1_1graph_1_1_edge.html#a44521a3ad1a83e5d0a6be227e35ceffa" target="_top" xlink:title=" ">
<polygon fill="white" stroke="black" points="637.5,-126 637.5,-145 787.5,-145 787.5,-126 637.5,-126"/>
<text text-anchor="middle" x="712.5" y="-133" font-family="Helvetica,sans-Serif" font-size="10.00">denoptim.graph.Edge.getTrgAP</text>
</a>
</g>
</g>
<!-- Node5&#45;&gt;Node8 -->
<g id="edge8" class="edge">
<title>Node5&#45;&gt;Node8</title>
<path fill="none" stroke="midnightblue" d="M584.5,-135.5C598.15,-135.5 612.79,-135.5 627.11,-135.5"/>
<polygon fill="midnightblue" stroke="midnightblue" points="627.46,-139 637.46,-135.5 627.46,-132 627.46,-139"/>
</g>
<!-- Node11 -->
<g id="node11" class="node">
<title>Node11</title>
<g id="a_node11"><a xlink:href="classdenoptim_1_1graph_1_1_attachment_point.html#a31bed4cb29f6437bf8a888a1dda3fd95" target="_top" xlink:title="Returns the Attachment Point class.">
<polygon fill="white" stroke="black" points="645,-0.5 645,-30.5 780,-30.5 780,-0.5 645,-0.5"/>
<text text-anchor="start" x="653" y="-18.5" font-family="Helvetica,sans-Serif" font-size="10.00">denoptim.graph.Attachment</text>
<text text-anchor="middle" x="712.5" y="-7.5" font-family="Helvetica,sans-Serif" font-size="10.00">Point.getAPClass</text>
</a>
</g>
</g>
<!-- Node10&#45;&gt;Node11 -->
<g id="edge11" class="edge">
<title>Node10&#45;&gt;Node11</title>
<path fill="none" stroke="midnightblue" d="M589.02,-38.71C603.9,-35.89 619.75,-32.88 634.96,-30"/>
<polygon fill="midnightblue" stroke="midnightblue" points="635.66,-33.43 644.83,-28.13 634.36,-26.55 635.66,-33.43"/>
</g>
<!-- Node12&#45;&gt;Node6 -->
<g id="edge15" class="edge">
<title>Node12&#45;&gt;Node6</title>
<path fill="none" stroke="midnightblue" d="M562.41,-218.97C574.82,-216.02 588.49,-212.69 601,-209.5 616.09,-205.65 632.29,-201.35 647.51,-197.23"/>
<polygon fill="midnightblue" stroke="midnightblue" points="648.62,-200.55 657.35,-194.56 646.78,-193.8 648.62,-200.55"/>
</g>
<!-- Node13 -->
<g id="node13" class="node">
<title>Node13</title>
<g id="a_node13"><a xlink:href="classdenoptim_1_1graph_1_1_vertex.html#a367c9d31e4bb13c16e865389c154a767" target="_top" xlink:title="Returns the position of the given AP in the list of APs of this vertex.">
<polygon fill="white" stroke="black" points="648.5,-213.5 648.5,-243.5 776.5,-243.5 776.5,-213.5 648.5,-213.5"/>
<text text-anchor="start" x="656.5" y="-231.5" font-family="Helvetica,sans-Serif" font-size="10.00">denoptim.graph.Vertex.get</text>
<text text-anchor="middle" x="712.5" y="-220.5" font-family="Helvetica,sans-Serif" font-size="10.00">IndexOfAP</text>
</a>
</g>
</g>
<!-- Node12&#45;&gt;Node13 -->
<g id="edge13" class="edge">
<title>Node12&#45;&gt;Node13</title>
<path fill="none" stroke="midnightblue" d="M601.25,-228.5C613.55,-228.5 626.2,-228.5 638.34,-228.5"/>
<polygon fill="midnightblue" stroke="midnightblue" points="638.4,-232 648.4,-228.5 638.4,-225 638.4,-232"/>
</g>
<!-- Node13&#45;&gt;Node4 -->
<g id="edge14" class="edge">
<title>Node13&#45;&gt;Node4</title>
<path fill="none" stroke="midnightblue" d="M776.63,-228.5C788.66,-228.5 801.36,-228.5 813.68,-228.5"/>
<polygon fill="midnightblue" stroke="midnightblue" points="813.92,-232 823.92,-228.5 813.92,-225 813.92,-232"/>
</g>
</g>
</svg>
