<?xml version="1.0" encoding="UTF-8" standalone="no"?>
<!DOCTYPE svg PUBLIC "-//W3C//DTD SVG 1.1//EN"
 "http://www.w3.org/Graphics/SVG/1.1/DTD/svg11.dtd">
<!-- Generated by graphviz version 3.0.0 (20221109.1736)
 -->
<!-- Title: denoptim.graph.Vertex.getFreeAPThroughout Pages: 1 -->
<svg width="956pt" height="137pt"
 viewBox="0.00 0.00 956.00 137.00" xmlns="http://www.w3.org/2000/svg" xmlns:xlink="http://www.w3.org/1999/xlink">
<g id="graph0" class="graph" transform="scale(1 1) rotate(0) translate(4 133)">
<title>denoptim.graph.Vertex.getFreeAPThroughout</title>
<polygon fill="white" stroke="transparent" points="-4,4 -4,-133 952,-133 952,4 -4,4"/>
<!-- Node1 -->
<g id="node1" class="node">
<title>Node1</title>
<g id="a_node1"><a xlink:title="Gets attachment points that are availability throughout the graph level, i.e., checks also across the...">
<polygon fill="#bfbfbf" stroke="black" points="820,-33.5 820,-63.5 948,-63.5 948,-33.5 820,-33.5"/>
<text text-anchor="start" x="828" y="-51.5" font-family="Helvetica,sans-Serif" font-size="10.00">denoptim.graph.Vertex.get</text>
<text text-anchor="middle" x="884" y="-40.5" font-family="Helvetica,sans-Serif" font-size="10.00">FreeAPThroughout</text>
</a>
</g>
</g>
<!-- Node2 -->
<g id="node2" class="node">
<title>Node2</title>
<g id="a_node2"><a xlink:href="classdenoptim_1_1graph_1_1_vertex.html#a308ef3c2ebaeb975680cdbe25fd3ea9c" target="_top" xlink:title="Counts the number of attachment points that are availability throughout the graph level,...">
<polygon fill="white" stroke="black" points="644,-67.5 644,-97.5 772,-97.5 772,-67.5 644,-67.5"/>
<text text-anchor="start" x="652" y="-85.5" font-family="Helvetica,sans-Serif" font-size="10.00">denoptim.graph.Vertex.get</text>
<text text-anchor="middle" x="708" y="-74.5" font-family="Helvetica,sans-Serif" font-size="10.00">FreeAPCountThroughout</text>
</a>
</g>
</g>
<!-- Node1&#45;&gt;Node2 -->
<g id="edge1" class="edge">
<title>Node1&#45;&gt;Node2</title>
<path fill="none" stroke="midnightblue" d="M809.79,-62.81C797.31,-65.24 784.45,-67.76 772.26,-70.14"/>
<polygon fill="midnightblue" stroke="midnightblue" points="810.55,-66.22 819.69,-60.87 809.2,-59.35 810.55,-66.22"/>
</g>
<!-- Node7 -->
<g id="node7" class="node">
<title>Node7</title>
<g id="a_node7"><a xlink:href="classdenoptim_1_1graph_1_1_d_graph.html#a357b4099599e47ae47102123550771f8" target="_top" xlink:title="Remove a given vertex belonging to this graph and re&#45;connects the resulting graph branches as much as...">
<polygon fill="white" stroke="black" points="632,-0.5 632,-30.5 784,-30.5 784,-0.5 632,-0.5"/>
<text text-anchor="start" x="640" y="-18.5" font-family="Helvetica,sans-Serif" font-size="10.00">denoptim.graph.DGraph.remove</text>
<text text-anchor="middle" x="708" y="-7.5" font-family="Helvetica,sans-Serif" font-size="10.00">SingleVertexAndWeld</text>
</a>
</g>
</g>
<!-- Node1&#45;&gt;Node7 -->
<g id="edge6" class="edge">
<title>Node1&#45;&gt;Node7</title>
<path fill="none" stroke="midnightblue" d="M809.81,-34.62C801.31,-33.01 792.62,-31.36 784.09,-29.74"/>
<polygon fill="midnightblue" stroke="midnightblue" points="809.21,-38.07 819.69,-36.49 810.52,-31.19 809.21,-38.07"/>
</g>
<!-- Node3 -->
<g id="node3" class="node">
<title>Node3</title>
<g id="a_node3"><a xlink:href="classdenoptim_1_1graph_1_1_vertex.html#a5c6af6108f5caedf3641ef2ed383f954" target="_top" xlink:title="Returns the list of mutation types.">
<polygon fill="white" stroke="black" points="456,-98.5 456,-128.5 584,-128.5 584,-98.5 456,-98.5"/>
<text text-anchor="start" x="464" y="-116.5" font-family="Helvetica,sans-Serif" font-size="10.00">denoptim.graph.Vertex.get</text>
<text text-anchor="middle" x="520" y="-105.5" font-family="Helvetica,sans-Serif" font-size="10.00">MutationTypes</text>
</a>
</g>
</g>
<!-- Node2&#45;&gt;Node3 -->
<g id="edge2" class="edge">
<title>Node2&#45;&gt;Node3</title>
<path fill="none" stroke="midnightblue" d="M633.68,-94.72C617.27,-97.45 600.01,-100.33 584.06,-102.99"/>
<polygon fill="midnightblue" stroke="midnightblue" points="634.48,-98.13 643.77,-93.04 633.33,-91.23 634.48,-98.13"/>
</g>
<!-- Node4 -->
<g id="node4" class="node">
<title>Node4</title>
<g id="a_node4"><a xlink:href="classdenoptim_1_1graph_1_1_d_graph.html#af404e25092eabcdfbe69b5d7204e9483" target="_top" xlink:title="Mutates the graph by removing the chain where a given vertex is located up to the first branching (i....">
<polygon fill="white" stroke="black" points="444,-49.5 444,-79.5 596,-79.5 596,-49.5 444,-49.5"/>
<text text-anchor="start" x="452" y="-67.5" font-family="Helvetica,sans-Serif" font-size="10.00">denoptim.graph.DGraph.remove</text>
<text text-anchor="middle" x="520" y="-56.5" font-family="Helvetica,sans-Serif" font-size="10.00">ChainUpToBranching</text>
</a>
</g>
</g>
<!-- Node2&#45;&gt;Node4 -->
<g id="edge3" class="edge">
<title>Node2&#45;&gt;Node4</title>
<path fill="none" stroke="midnightblue" d="M633.6,-75.4C621.33,-74.21 608.58,-72.98 596.27,-71.78"/>
<polygon fill="midnightblue" stroke="midnightblue" points="633.48,-78.9 643.77,-76.38 634.15,-71.93 633.48,-78.9"/>
</g>
<!-- Node5 -->
<g id="node5" class="node">
<title>Node5</title>
<g id="a_node5"><a xlink:href="classdenoptim_1_1ga_1_1_graph_operations.html#afd659e74a056d1a6ae6f52513fee0be3" target="_top" xlink:title="Deletes the given vertex and all other vertexes that are not connected to more than 2 non&#45;capping gro...">
<polygon fill="white" stroke="black" points="225.5,-47.5 225.5,-77.5 398.5,-77.5 398.5,-47.5 225.5,-47.5"/>
<text text-anchor="start" x="233.5" y="-65.5" font-family="Helvetica,sans-Serif" font-size="10.00">denoptim.ga.GraphOperations.delete</text>
<text text-anchor="middle" x="312" y="-54.5" font-family="Helvetica,sans-Serif" font-size="10.00">Chain</text>
</a>
</g>
</g>
<!-- Node4&#45;&gt;Node5 -->
<g id="edge4" class="edge">
<title>Node4&#45;&gt;Node5</title>
<path fill="none" stroke="midnightblue" d="M433.72,-63.67C422.21,-63.56 410.38,-63.45 398.85,-63.33"/>
<polygon fill="midnightblue" stroke="midnightblue" points="433.72,-67.17 443.75,-63.77 433.79,-60.17 433.72,-67.17"/>
</g>
<!-- Node6 -->
<g id="node6" class="node">
<title>Node6</title>
<g id="a_node6"><a xlink:href="classdenoptim_1_1ga_1_1_graph_operations.html#a0c851972015fbb4b2a317b053b8b81d9" target="_top" xlink:title="Mutates the given vertex according to the given mutation type, if possible.">
<polygon fill="white" stroke="black" points="0,-24.5 0,-54.5 180,-54.5 180,-24.5 0,-24.5"/>
<text text-anchor="start" x="8" y="-42.5" font-family="Helvetica,sans-Serif" font-size="10.00">denoptim.ga.GraphOperations.perform</text>
<text text-anchor="middle" x="90" y="-31.5" font-family="Helvetica,sans-Serif" font-size="10.00">Mutation</text>
</a>
</g>
</g>
<!-- Node5&#45;&gt;Node6 -->
<g id="edge5" class="edge">
<title>Node5&#45;&gt;Node6</title>
<path fill="none" stroke="midnightblue" d="M215.14,-52.48C203.49,-51.26 191.63,-50.02 180.08,-48.81"/>
<polygon fill="midnightblue" stroke="midnightblue" points="215,-55.98 225.31,-53.54 215.73,-49.02 215,-55.98"/>
</g>
<!-- Node7&#45;&gt;Node7 -->
<g id="edge7" class="edge">
<title>Node7&#45;&gt;Node7</title>
<path fill="none" stroke="midnightblue" d="M739.27,-40.96C735.39,-45.68 724.97,-49 708,-49 680.16,-49 669.93,-40.06 677.33,-30.66"/>
<polygon fill="midnightblue" stroke="midnightblue" points="742.75,-40.44 738.67,-30.66 735.76,-40.85 742.75,-40.44"/>
</g>
<!-- Node8 -->
<g id="node8" class="node">
<title>Node8</title>
<g id="a_node8"><a xlink:href="classdenoptim_1_1graph_1_1_d_graph.html#a00209ca8b4a9623b41e7d9e1e62f69ec" target="_top" xlink:title="Remove a given vertex belonging to this graph and re&#45;connects the resulting graph branches as much as...">
<polygon fill="white" stroke="black" points="444,-0.5 444,-30.5 596,-30.5 596,-0.5 444,-0.5"/>
<text text-anchor="start" x="452" y="-18.5" font-family="Helvetica,sans-Serif" font-size="10.00">denoptim.graph.DGraph.remove</text>
<text text-anchor="middle" x="520" y="-7.5" font-family="Helvetica,sans-Serif" font-size="10.00">VertexAndWeld</text>
</a>
</g>
</g>
<!-- Node7&#45;&gt;Node8 -->
<g id="edge8" class="edge">
<title>Node7&#45;&gt;Node8</title>
<path fill="none" stroke="midnightblue" d="M621.85,-15.5C613.26,-15.5 604.57,-15.5 596.1,-15.5"/>
<polygon fill="midnightblue" stroke="midnightblue" points="621.88,-19 631.88,-15.5 621.88,-12 621.88,-19"/>
</g>
<!-- Node9 -->
<g id="node9" class="node">
<title>Node9</title>
<g id="a_node9"><a xlink:href="classdenoptim_1_1ga_1_1_graph_operations.html#ab3adb5141a8941bf23916bb516faee63" target="_top" xlink:title="Removes a vertex while merging as many of the child branches into the parent vertex.">
<polygon fill="white" stroke="black" points="216,-8 216,-27 408,-27 408,-8 216,-8"/>
<text text-anchor="middle" x="312" y="-15" font-family="Helvetica,sans-Serif" font-size="10.00">denoptim.ga.GraphOperations.deleteLink</text>
</a>
</g>
</g>
<!-- Node8&#45;&gt;Node9 -->
<g id="edge9" class="edge">
<title>Node8&#45;&gt;Node9</title>
<path fill="none" stroke="midnightblue" d="M433.58,-16.33C425.15,-16.41 416.57,-16.49 408.06,-16.58"/>
<polygon fill="midnightblue" stroke="midnightblue" points="433.79,-19.83 443.75,-16.23 433.72,-12.83 433.79,-19.83"/>
</g>
<!-- Node9&#45;&gt;Node6 -->
<g id="edge10" class="edge">
<title>Node9&#45;&gt;Node6</title>
<path fill="none" stroke="midnightblue" d="M205.75,-28.03C197.17,-28.88 188.56,-29.74 180.11,-30.59"/>
<polygon fill="midnightblue" stroke="midnightblue" points="206.18,-31.5 215.78,-27.02 205.49,-24.53 206.18,-31.5"/>
</g>
</g>
</svg>
