<?xml version="1.0" encoding="UTF-8" standalone="no"?>
<!DOCTYPE svg PUBLIC "-//W3C//DTD SVG 1.1//EN"
 "http://www.w3.org/Graphics/SVG/1.1/DTD/svg11.dtd">
<!-- Generated by graphviz version 3.0.0 (20221109.1736)
 -->
<!-- Title: denoptim.graph.Fragment.addBond Pages: 1 -->
<svg width="849pt" height="1051pt"
 viewBox="0.00 0.00 849.00 1051.00" xmlns="http://www.w3.org/2000/svg" xmlns:xlink="http://www.w3.org/1999/xlink">
<g id="graph0" class="graph" transform="scale(1 1) rotate(0) translate(4 1047)">
<title>denoptim.graph.Fragment.addBond</title>
<polygon fill="white" stroke="transparent" points="-4,4 -4,-1047 845,-1047 845,4 -4,4"/>
<!-- Node1 -->
<g id="node1" class="node">
<title>Node1</title>
<g id="a_node1"><a xlink:title=" ">
<polygon fill="#bfbfbf" stroke="black" points="674,-334 674,-353 841,-353 841,-334 674,-334"/>
<text text-anchor="middle" x="757.5" y="-341" font-family="Helvetica,sans-Serif" font-size="10.00">denoptim.graph.Fragment.addBond</text>
</a>
</g>
</g>
<!-- Node2 -->
<g id="node2" class="node">
<title>Node2</title>
<g id="a_node2"><a xlink:href="classdenoptim_1_1utils_1_1_dummy_atom_handler.html#a100cd8246e61d933a6420fac5c22160a" target="_top" xlink:title="Append dummy atoms on otherwise linear arrangements of atoms.">
<polygon fill="white" stroke="black" points="457,-919.5 457,-949.5 624,-949.5 624,-919.5 457,-919.5"/>
<text text-anchor="start" x="465" y="-937.5" font-family="Helvetica,sans-Serif" font-size="10.00">denoptim.utils.DummyAtom</text>
<text text-anchor="middle" x="540.5" y="-926.5" font-family="Helvetica,sans-Serif" font-size="10.00">Handler.addDummiesOnLinearities</text>
</a>
</g>
</g>
<!-- Node1&#45;&gt;Node2 -->
<g id="edge1" class="edge">
<title>Node1&#45;&gt;Node2</title>
<path fill="none" stroke="midnightblue" d="M754.51,-363.22C747.19,-429.71 717.92,-650.53 638,-812.5 616.73,-855.61 578.39,-897.75 556.99,-919.43"/>
<polygon fill="midnightblue" stroke="midnightblue" points="757.99,-363.59 755.56,-353.27 751.03,-362.85 757.99,-363.59"/>
</g>
<!-- Node8 -->
<g id="node8" class="node">
<title>Node8</title>
<g id="a_node8"><a xlink:href="classdenoptim_1_1fragspace_1_1_fragment_space_test.html#ae401cb5105c9afd41d058685eb051869" target="_top" xlink:title=" ">
<polygon fill="white" stroke="black" points="463,-441.5 463,-471.5 618,-471.5 618,-441.5 463,-441.5"/>
<text text-anchor="start" x="471" y="-459.5" font-family="Helvetica,sans-Serif" font-size="10.00">denoptim.fragspace.Fragment</text>
<text text-anchor="middle" x="540.5" y="-448.5" font-family="Helvetica,sans-Serif" font-size="10.00">SpaceTest.buildFragmentSpace</text>
</a>
</g>
</g>
<!-- Node1&#45;&gt;Node8 -->
<g id="edge7" class="edge">
<title>Node1&#45;&gt;Node8</title>
<path fill="none" stroke="midnightblue" d="M737.74,-359.43C715.3,-377.8 675.99,-407.86 638,-426.5 626.11,-432.34 612.84,-437.34 600.04,-441.49"/>
<polygon fill="midnightblue" stroke="midnightblue" points="740.02,-362.09 745.47,-353.01 735.54,-356.71 740.02,-362.09"/>
</g>
<!-- Node17 -->
<g id="node17" class="node">
<title>Node17</title>
<g id="a_node17"><a xlink:href="classdenoptim_1_1fragspace_1_1_fragment_space_test.html#a692723b803a64dd25e775b2f8726fe27" target="_top" xlink:title="Works with this graph:">
<polygon fill="white" stroke="black" points="210,-219 210,-260 395,-260 395,-219 210,-219"/>
<text text-anchor="start" x="218" y="-248" font-family="Helvetica,sans-Serif" font-size="10.00">denoptim.fragspace.Fragment</text>
<text text-anchor="start" x="218" y="-237" font-family="Helvetica,sans-Serif" font-size="10.00">SpaceTest.testUseWholeMolGeometry</text>
<text text-anchor="middle" x="302.5" y="-226" font-family="Helvetica,sans-Serif" font-size="10.00">ForExtractedTemplates</text>
</a>
</g>
</g>
<!-- Node1&#45;&gt;Node17 -->
<g id="edge37" class="edge">
<title>Node1&#45;&gt;Node17</title>
<path fill="none" stroke="midnightblue" d="M732.27,-358.24C675.5,-390.69 531.95,-460.3 443,-393.5 397.11,-359.04 447.59,-310.07 407,-269.5 403.43,-265.93 399.46,-262.78 395.21,-260"/>
<polygon fill="midnightblue" stroke="midnightblue" points="734.35,-361.08 741.23,-353.02 730.83,-355.04 734.35,-361.08"/>
</g>
<!-- Node18 -->
<g id="node18" class="node">
<title>Node18</title>
<g id="a_node18"><a xlink:href="classdenoptim_1_1graph_1_1_fragment_test.html#a198cffde4134eecf80f3eba650efc5ba" target="_top" xlink:title=" ">
<polygon fill="white" stroke="black" points="454.5,-353.5 454.5,-383.5 626.5,-383.5 626.5,-353.5 454.5,-353.5"/>
<text text-anchor="start" x="462.5" y="-371.5" font-family="Helvetica,sans-Serif" font-size="10.00">denoptim.graph.FragmentTest.make</text>
<text text-anchor="middle" x="540.5" y="-360.5" font-family="Helvetica,sans-Serif" font-size="10.00">Fragment</text>
</a>
</g>
</g>
<!-- Node1&#45;&gt;Node18 -->
<g id="edge17" class="edge">
<title>Node1&#45;&gt;Node18</title>
<path fill="none" stroke="midnightblue" d="M664.6,-354.19C652.04,-355.65 639.18,-357.14 626.74,-358.59"/>
<polygon fill="midnightblue" stroke="midnightblue" points="665.08,-357.65 674.6,-353.02 664.27,-350.7 665.08,-357.65"/>
</g>
<!-- Node22 -->
<g id="node22" class="node">
<title>Node22</title>
<g id="a_node22"><a xlink:href="classdenoptim_1_1graph_1_1_fragment_test.html#a8bff8b7d1c409ddc9a55707f4e67f427" target="_top" xlink:title=" ">
<polygon fill="white" stroke="black" points="454.5,-772.5 454.5,-802.5 626.5,-802.5 626.5,-772.5 454.5,-772.5"/>
<text text-anchor="start" x="462.5" y="-790.5" font-family="Helvetica,sans-Serif" font-size="10.00">denoptim.graph.FragmentTest.make</text>
<text text-anchor="middle" x="540.5" y="-779.5" font-family="Helvetica,sans-Serif" font-size="10.00">FragmentA</text>
</a>
</g>
</g>
<!-- Node1&#45;&gt;Node22 -->
<g id="edge21" class="edge">
<title>Node1&#45;&gt;Node22</title>
<path fill="none" stroke="midnightblue" d="M754.59,-363.36C748.05,-422.56 722.07,-600.99 638,-717.5 620.8,-741.33 592.99,-760.26 571.64,-772.4"/>
<polygon fill="midnightblue" stroke="midnightblue" points="758.1,-363.47 755.65,-353.16 751.14,-362.74 758.1,-363.47"/>
</g>
<!-- Node26 -->
<g id="node26" class="node">
<title>Node26</title>
<g id="a_node26"><a xlink:href="classdenoptim_1_1graph_1_1_fragment_test.html#ae2ae980f38f76b7681a4e967d4cbdb4f" target="_top" xlink:title="Differs from the fragment produced by makeFragmentA() only by the identity of one atom.">
<polygon fill="white" stroke="black" points="454.5,-677.5 454.5,-707.5 626.5,-707.5 626.5,-677.5 454.5,-677.5"/>
<text text-anchor="start" x="462.5" y="-695.5" font-family="Helvetica,sans-Serif" font-size="10.00">denoptim.graph.FragmentTest.make</text>
<text text-anchor="middle" x="540.5" y="-684.5" font-family="Helvetica,sans-Serif" font-size="10.00">FragmentB</text>
</a>
</g>
</g>
<!-- Node1&#45;&gt;Node26 -->
<g id="edge26" class="edge">
<title>Node1&#45;&gt;Node26</title>
<path fill="none" stroke="midnightblue" d="M748.56,-362.54C731.18,-403.32 687.35,-501.53 638,-576.5 612.5,-615.23 576.13,-655.86 556.11,-677.24"/>
<polygon fill="midnightblue" stroke="midnightblue" points="751.82,-363.82 752.48,-353.24 745.37,-361.09 751.82,-363.82"/>
</g>
<!-- Node27 -->
<g id="node27" class="node">
<title>Node27</title>
<g id="a_node27"><a xlink:href="classdenoptim_1_1graph_1_1_fragment_test.html#a63f6f06d84a8b731e131034a8e24c238" target="_top" xlink:title="Differs from the fragment produced by makeFragmentA() only by the one APCLass.">
<polygon fill="white" stroke="black" points="454.5,-536.5 454.5,-566.5 626.5,-566.5 626.5,-536.5 454.5,-536.5"/>
<text text-anchor="start" x="462.5" y="-554.5" font-family="Helvetica,sans-Serif" font-size="10.00">denoptim.graph.FragmentTest.make</text>
<text text-anchor="middle" x="540.5" y="-543.5" font-family="Helvetica,sans-Serif" font-size="10.00">FragmentC</text>
</a>
</g>
</g>
<!-- Node1&#45;&gt;Node27 -->
<g id="edge28" class="edge">
<title>Node1&#45;&gt;Node27</title>
<path fill="none" stroke="midnightblue" d="M743.25,-361.49C722.51,-389.01 680.36,-442.48 638,-481.5 615.17,-502.53 585.96,-522.95 565.69,-536.25"/>
<polygon fill="midnightblue" stroke="midnightblue" points="746.25,-363.32 749.43,-353.21 740.64,-359.13 746.25,-363.32"/>
</g>
<!-- Node28 -->
<g id="node28" class="node">
<title>Node28</title>
<g id="a_node28"><a xlink:href="classdenoptim_1_1graph_1_1_vertex_test.html#ab36c441c57e9852e2be6d810d80fbc87" target="_top" xlink:title=" ">
<polygon fill="white" stroke="black" points="465,-304.5 465,-334.5 616,-334.5 616,-304.5 465,-304.5"/>
<text text-anchor="start" x="473" y="-322.5" font-family="Helvetica,sans-Serif" font-size="10.00">denoptim.graph.VertexTest.test</text>
<text text-anchor="middle" x="540.5" y="-311.5" font-family="Helvetica,sans-Serif" font-size="10.00">Clone</text>
</a>
</g>
</g>
<!-- Node1&#45;&gt;Node28 -->
<g id="edge30" class="edge">
<title>Node1&#45;&gt;Node28</title>
<path fill="none" stroke="midnightblue" d="M663.62,-333.13C647.72,-331.36 631.39,-329.53 616.05,-327.82"/>
<polygon fill="midnightblue" stroke="midnightblue" points="663.66,-336.66 673.99,-334.29 664.44,-329.7 663.66,-336.66"/>
</g>
<!-- Node29 -->
<g id="node29" class="node">
<title>Node29</title>
<g id="a_node29"><a xlink:href="classdenoptim_1_1molecularmodeling_1_1_three_dim_tree_builder_test.html#a1aea42a3aa474b25c0edc4541509f8f7" target="_top" xlink:title=" ">
<polygon fill="white" stroke="black" points="443,-245 443,-286 638,-286 638,-245 443,-245"/>
<text text-anchor="start" x="451" y="-274" font-family="Helvetica,sans-Serif" font-size="10.00">denoptim.molecularmodeling.</text>
<text text-anchor="start" x="451" y="-263" font-family="Helvetica,sans-Serif" font-size="10.00">ThreeDimTreeBuilderTest.testConversion</text>
<text text-anchor="middle" x="540.5" y="-252" font-family="Helvetica,sans-Serif" font-size="10.00">To3dTree</text>
</a>
</g>
</g>
<!-- Node1&#45;&gt;Node29 -->
<g id="edge31" class="edge">
<title>Node1&#45;&gt;Node29</title>
<path fill="none" stroke="midnightblue" d="M725.22,-330C701.49,-319.96 667.95,-306.2 638,-295.5 629,-292.28 619.45,-289.08 610.01,-286.02"/>
<polygon fill="midnightblue" stroke="midnightblue" points="723.86,-333.22 734.44,-333.92 726.6,-326.78 723.86,-333.22"/>
</g>
<!-- Node30 -->
<g id="node30" class="node">
<title>Node30</title>
<g id="a_node30"><a xlink:href="classdenoptim_1_1graph_1_1_fragment_test.html#a12552fabbb6c8af399da78f10279fce2" target="_top" xlink:title=" ">
<polygon fill="white" stroke="black" points="458.5,-196.5 458.5,-226.5 622.5,-226.5 622.5,-196.5 458.5,-196.5"/>
<text text-anchor="start" x="466.5" y="-214.5" font-family="Helvetica,sans-Serif" font-size="10.00">denoptim.graph.FragmentTest.test</text>
<text text-anchor="middle" x="540.5" y="-203.5" font-family="Helvetica,sans-Serif" font-size="10.00">ConversionToIAC</text>
</a>
</g>
</g>
<!-- Node1&#45;&gt;Node30 -->
<g id="edge32" class="edge">
<title>Node1&#45;&gt;Node30</title>
<path fill="none" stroke="midnightblue" d="M742.1,-325.73C721.56,-301.59 681.5,-258.78 638,-235.5 631.53,-232.04 624.55,-229.06 617.41,-226.51"/>
<polygon fill="midnightblue" stroke="midnightblue" points="739.66,-328.27 748.76,-333.71 745.04,-323.79 739.66,-328.27"/>
</g>
<!-- Node31 -->
<g id="node31" class="node">
<title>Node31</title>
<g id="a_node31"><a xlink:href="classdenoptim_1_1graph_1_1_fragment_test.html#a6494b234f01c4cf298d123dc59e047d6" target="_top" xlink:title=" ">
<polygon fill="white" stroke="black" points="458.5,-147.5 458.5,-177.5 622.5,-177.5 622.5,-147.5 458.5,-147.5"/>
<text text-anchor="start" x="466.5" y="-165.5" font-family="Helvetica,sans-Serif" font-size="10.00">denoptim.graph.FragmentTest.test</text>
<text text-anchor="middle" x="540.5" y="-154.5" font-family="Helvetica,sans-Serif" font-size="10.00">HandlingAPsAsObjOrProperty</text>
</a>
</g>
</g>
<!-- Node1&#45;&gt;Node31 -->
<g id="edge33" class="edge">
<title>Node1&#45;&gt;Node31</title>
<path fill="none" stroke="midnightblue" d="M747.5,-324.57C730.77,-291.47 691.62,-223.2 638,-187.5 632.24,-183.66 625.92,-180.42 619.36,-177.67"/>
<polygon fill="midnightblue" stroke="midnightblue" points="744.41,-326.21 751.97,-333.64 750.69,-323.12 744.41,-326.21"/>
</g>
<!-- Node32 -->
<g id="node32" class="node">
<title>Node32</title>
<g id="a_node32"><a xlink:href="classdenoptim_1_1graph_1_1_attachment_point_test.html#af88d30ce68477984fe6179325d1540b2" target="_top" xlink:title=" ">
<polygon fill="white" stroke="black" points="450.5,-98.5 450.5,-128.5 630.5,-128.5 630.5,-98.5 450.5,-98.5"/>
<text text-anchor="start" x="458.5" y="-116.5" font-family="Helvetica,sans-Serif" font-size="10.00">denoptim.graph.Attachment</text>
<text text-anchor="middle" x="540.5" y="-105.5" font-family="Helvetica,sans-Serif" font-size="10.00">PointTest.testHasConnectedSrcAtom</text>
</a>
</g>
</g>
<!-- Node1&#45;&gt;Node32 -->
<g id="edge34" class="edge">
<title>Node1&#45;&gt;Node32</title>
<path fill="none" stroke="midnightblue" d="M750.96,-324.2C738.2,-283.32 702.75,-187.73 638,-138.5 632.9,-134.62 627.26,-131.35 621.34,-128.58"/>
<polygon fill="midnightblue" stroke="midnightblue" points="747.67,-325.42 753.9,-333.99 754.37,-323.4 747.67,-325.42"/>
</g>
<!-- Node33 -->
<g id="node33" class="node">
<title>Node33</title>
<g id="a_node33"><a xlink:href="classdenoptim_1_1graph_1_1_attachment_point_test.html#a4889032266eb87d0f91af8b4e9869360" target="_top" xlink:title=" ">
<polygon fill="white" stroke="black" points="461,-49.5 461,-79.5 620,-79.5 620,-49.5 461,-49.5"/>
<text text-anchor="start" x="469" y="-67.5" font-family="Helvetica,sans-Serif" font-size="10.00">denoptim.graph.Attachment</text>
<text text-anchor="middle" x="540.5" y="-56.5" font-family="Helvetica,sans-Serif" font-size="10.00">PointTest.testHasSameSrcAtom</text>
</a>
</g>
</g>
<!-- Node1&#45;&gt;Node33 -->
<g id="edge35" class="edge">
<title>Node1&#45;&gt;Node33</title>
<path fill="none" stroke="midnightblue" d="M753.28,-323.82C744.36,-275.77 714.7,-151.77 638,-88.5 632.67,-84.11 626.65,-80.5 620.29,-77.54"/>
<polygon fill="midnightblue" stroke="midnightblue" points="749.87,-324.6 755.04,-333.84 756.76,-323.39 749.87,-324.6"/>
</g>
<!-- Node34 -->
<g id="node34" class="node">
<title>Node34</title>
<g id="a_node34"><a xlink:href="classdenoptim_1_1graph_1_1_d_graph_test.html#a42ea1a0adbc30b78070c3096171094a9" target="_top" xlink:title=" ">
<polygon fill="white" stroke="black" points="462.5,-0.5 462.5,-30.5 618.5,-30.5 618.5,-0.5 462.5,-0.5"/>
<text text-anchor="start" x="470.5" y="-18.5" font-family="Helvetica,sans-Serif" font-size="10.00">denoptim.graph.DGraphTest.test</text>
<text text-anchor="middle" x="540.5" y="-7.5" font-family="Helvetica,sans-Serif" font-size="10.00">RemoveUnusedRCVs</text>
</a>
</g>
</g>
<!-- Node1&#45;&gt;Node34 -->
<g id="edge36" class="edge">
<title>Node1&#45;&gt;Node34</title>
<path fill="none" stroke="midnightblue" d="M754.91,-323.8C749.45,-269.65 726.55,-117.39 638,-39.5 632.3,-34.48 625.7,-30.48 618.69,-27.3"/>
<polygon fill="midnightblue" stroke="midnightblue" points="751.43,-324.17 755.83,-333.81 758.4,-323.53 751.43,-324.17"/>
</g>
<!-- Node3 -->
<g id="node3" class="node">
<title>Node3</title>
<g id="a_node3"><a xlink:href="classdenoptim_1_1gui_1_1_g_u_i_vertex_inspector.html#acadecc92299a7ea46113c06382a1f333" target="_top" xlink:title="Initialize the panel and add buttons.">
<polygon fill="white" stroke="black" points="204,-1018 204,-1037 401,-1037 401,-1018 204,-1018"/>
<text text-anchor="middle" x="302.5" y="-1025" font-family="Helvetica,sans-Serif" font-size="10.00">denoptim.gui.GUIVertexInspector.initialize</text>
</a>
</g>
</g>
<!-- Node2&#45;&gt;Node3 -->
<g id="edge2" class="edge">
<title>Node2&#45;&gt;Node3</title>
<path fill="none" stroke="midnightblue" d="M508.97,-955.38C482.97,-972.2 444.04,-995.17 407,-1008.5 396.26,-1012.37 384.59,-1015.48 373.09,-1017.97"/>
<polygon fill="midnightblue" stroke="midnightblue" points="511.16,-958.12 517.6,-949.71 507.32,-952.27 511.16,-958.12"/>
</g>
<!-- Node5 -->
<g id="node5" class="node">
<title>Node5</title>
<g id="a_node5"><a xlink:href="classdenoptim_1_1ga_1_1_e_a_utils.html#a18eb5d0ba6772e9116176ef6ca9f84fc" target="_top" xlink:title="Converts a molecule into a DGraph by fragmentation and re&#45;assembling of the fragments.">
<polygon fill="white" stroke="black" points="225.5,-968.5 225.5,-998.5 379.5,-998.5 379.5,-968.5 225.5,-968.5"/>
<text text-anchor="start" x="233.5" y="-986.5" font-family="Helvetica,sans-Serif" font-size="10.00">denoptim.ga.EAUtils.make</text>
<text text-anchor="middle" x="302.5" y="-975.5" font-family="Helvetica,sans-Serif" font-size="10.00">GraphFromFragmentationOfMol</text>
</a>
</g>
</g>
<!-- Node2&#45;&gt;Node5 -->
<g id="edge4" class="edge">
<title>Node2&#45;&gt;Node5</title>
<path fill="none" stroke="midnightblue" d="M457.08,-951.61C430.6,-957.11 401.47,-963.16 375.77,-968.49"/>
<polygon fill="midnightblue" stroke="midnightblue" points="458.01,-954.99 467.09,-949.53 456.59,-948.14 458.01,-954.99"/>
</g>
<!-- Node6 -->
<g id="node6" class="node">
<title>Node6</title>
<g id="a_node6"><a xlink:href="classdenoptim_1_1fragmenter_1_1_fragmenter_tools.html#a82c4a82da2a3283a870a8c8af94f0a4e" target="_top" xlink:title="Management of fragments: includes application of fragment filters, rejection rules,...">
<polygon fill="white" stroke="black" points="222,-919.5 222,-949.5 383,-949.5 383,-919.5 222,-919.5"/>
<text text-anchor="start" x="230" y="-937.5" font-family="Helvetica,sans-Serif" font-size="10.00">denoptim.fragmenter.Fragmenter</text>
<text text-anchor="middle" x="302.5" y="-926.5" font-family="Helvetica,sans-Serif" font-size="10.00">Tools.manageFragmentCollection</text>
</a>
</g>
</g>
<!-- Node2&#45;&gt;Node6 -->
<g id="edge5" class="edge">
<title>Node2&#45;&gt;Node6</title>
<path fill="none" stroke="midnightblue" d="M446.75,-934.5C425.75,-934.5 403.62,-934.5 383.21,-934.5"/>
<polygon fill="midnightblue" stroke="midnightblue" points="446.96,-938 456.96,-934.5 446.96,-931 446.96,-938"/>
</g>
<!-- Node7 -->
<g id="node7" class="node">
<title>Node7</title>
<g id="a_node7"><a xlink:href="classdenoptim_1_1graph_1_1_fragment_test.html#aa17f42b21847b022c3d7a87876e17717" target="_top" xlink:title=" ">
<polygon fill="white" stroke="black" points="220.5,-870.5 220.5,-900.5 384.5,-900.5 384.5,-870.5 220.5,-870.5"/>
<text text-anchor="start" x="228.5" y="-888.5" font-family="Helvetica,sans-Serif" font-size="10.00">denoptim.graph.FragmentTest.test</text>
<text text-anchor="middle" x="302.5" y="-877.5" font-family="Helvetica,sans-Serif" font-size="10.00">IsomorphicInLinear</text>
</a>
</g>
</g>
<!-- Node2&#45;&gt;Node7 -->
<g id="edge6" class="edge">
<title>Node2&#45;&gt;Node7</title>
<path fill="none" stroke="midnightblue" d="M457.08,-917.39C430.6,-911.89 401.47,-905.84 375.77,-900.51"/>
<polygon fill="midnightblue" stroke="midnightblue" points="456.59,-920.86 467.09,-919.47 458.01,-914.01 456.59,-920.86"/>
</g>
<!-- Node4 -->
<g id="node4" class="node">
<title>Node4</title>
<g id="a_node4"><a xlink:href="classdenoptim_1_1gui_1_1_g_u_i_vertex_inspector.html#abc5d3c33ad9b2b114ce43e9b2cd577bb" target="_top" xlink:title="Constructor.">
<polygon fill="white" stroke="black" points="0,-1012.5 0,-1042.5 162,-1042.5 162,-1012.5 0,-1012.5"/>
<text text-anchor="start" x="8" y="-1030.5" font-family="Helvetica,sans-Serif" font-size="10.00">denoptim.gui.GUIVertexInspector.</text>
<text text-anchor="middle" x="81" y="-1019.5" font-family="Helvetica,sans-Serif" font-size="10.00">GUIVertexInspector</text>
</a>
</g>
</g>
<!-- Node3&#45;&gt;Node4 -->
<g id="edge3" class="edge">
<title>Node3&#45;&gt;Node4</title>
<path fill="none" stroke="midnightblue" d="M193.76,-1027.5C183.12,-1027.5 172.45,-1027.5 162.16,-1027.5"/>
<polygon fill="midnightblue" stroke="midnightblue" points="193.95,-1031 203.95,-1027.5 193.95,-1024 193.95,-1031"/>
</g>
<!-- Node9 -->
<g id="node9" class="node">
<title>Node9</title>
<g id="a_node9"><a xlink:href="classdenoptim_1_1fragspace_1_1_fragment_space_test.html#a6f2ce8f6a8319b39440b0dc43ede061f" target="_top" xlink:title="Check that the following graph&#39;s fused ring gets added to the fragment library.">
<polygon fill="white" stroke="black" points="198,-664 198,-705 407,-705 407,-664 198,-664"/>
<text text-anchor="start" x="206" y="-693" font-family="Helvetica,sans-Serif" font-size="10.00">denoptim.fragspace.Fragment</text>
<text text-anchor="start" x="206" y="-682" font-family="Helvetica,sans-Serif" font-size="10.00">SpaceTest.testFusedRingAddedToFragment</text>
<text text-anchor="middle" x="302.5" y="-671" font-family="Helvetica,sans-Serif" font-size="10.00">Library</text>
</a>
</g>
</g>
<!-- Node8&#45;&gt;Node9 -->
<g id="edge8" class="edge">
<title>Node8&#45;&gt;Node9</title>
<path fill="none" stroke="midnightblue" d="M500.98,-476.59C481.01,-488.83 457.76,-506.21 443,-527.5 409.57,-575.71 448.36,-612.89 407,-654.5 403.57,-657.95 399.77,-661.01 395.71,-663.72"/>
<polygon fill="midnightblue" stroke="midnightblue" points="502.77,-479.6 509.6,-471.5 499.21,-473.58 502.77,-479.6"/>
</g>
<!-- Node10 -->
<g id="node10" class="node">
<title>Node10</title>
<g id="a_node10"><a xlink:href="classdenoptim_1_1fragspace_1_1_fragment_space_test.html#a56ef448997df677c5ce4a73737f127e2" target="_top" xlink:title="Checks that a graph with a fused ring containing a scaffold vertex is added to the scaffold library.">
<polygon fill="white" stroke="black" points="201,-604 201,-645 404,-645 404,-604 201,-604"/>
<text text-anchor="start" x="209" y="-633" font-family="Helvetica,sans-Serif" font-size="10.00">denoptim.fragspace.Fragment</text>
<text text-anchor="start" x="209" y="-622" font-family="Helvetica,sans-Serif" font-size="10.00">SpaceTest.testFusedRingAddedToScaffold</text>
<text text-anchor="middle" x="302.5" y="-611" font-family="Helvetica,sans-Serif" font-size="10.00">Library</text>
</a>
</g>
</g>
<!-- Node8&#45;&gt;Node10 -->
<g id="edge9" class="edge">
<title>Node8&#45;&gt;Node10</title>
<path fill="none" stroke="midnightblue" d="M504.05,-477.04C484.32,-489.73 460.32,-507.42 443,-527.5 420.67,-553.4 433.62,-574.04 407,-595.5 403.08,-598.66 398.83,-601.48 394.37,-603.99"/>
<polygon fill="midnightblue" stroke="midnightblue" points="506.16,-479.84 512.77,-471.56 502.44,-473.91 506.16,-479.84"/>
</g>
<!-- Node11 -->
<g id="node11" class="node">
<title>Node11</title>
<g id="a_node11"><a xlink:href="classdenoptim_1_1fragspace_1_1_fragment_space_test.html#a7555fcdf60b6fabae0c95844f351fc6f" target="_top" xlink:title=" ">
<polygon fill="white" stroke="black" points="202.5,-555.5 202.5,-585.5 402.5,-585.5 402.5,-555.5 202.5,-555.5"/>
<text text-anchor="start" x="210.5" y="-573.5" font-family="Helvetica,sans-Serif" font-size="10.00">denoptim.fragspace.Fragment</text>
<text text-anchor="middle" x="302.5" y="-562.5" font-family="Helvetica,sans-Serif" font-size="10.00">SpaceTest.testFusedRingOnlyAddedOnce</text>
</a>
</g>
</g>
<!-- Node8&#45;&gt;Node11 -->
<g id="edge10" class="edge">
<title>Node8&#45;&gt;Node11</title>
<path fill="none" stroke="midnightblue" d="M511.14,-477.59C479.05,-501.11 428.46,-537.12 407,-546.5 399.14,-549.94 390.72,-552.92 382.21,-555.49"/>
<polygon fill="midnightblue" stroke="midnightblue" points="513.28,-480.35 519.26,-471.61 509.13,-474.72 513.28,-480.35"/>
</g>
<!-- Node12 -->
<g id="node12" class="node">
<title>Node12</title>
<g id="a_node12"><a xlink:href="classdenoptim_1_1fragspace_1_1_fragment_space_test.html#ae884d9d970bc9d561dad00bf0c20b4b5" target="_top" xlink:title=" ">
<polygon fill="white" stroke="black" points="210,-496 210,-537 395,-537 395,-496 210,-496"/>
<text text-anchor="start" x="218" y="-525" font-family="Helvetica,sans-Serif" font-size="10.00">denoptim.fragspace.Fragment</text>
<text text-anchor="start" x="218" y="-514" font-family="Helvetica,sans-Serif" font-size="10.00">SpaceTest.testGetFragAPsCompatible</text>
<text text-anchor="middle" x="302.5" y="-503" font-family="Helvetica,sans-Serif" font-size="10.00">WithClass</text>
</a>
</g>
</g>
<!-- Node8&#45;&gt;Node12 -->
<g id="edge11" class="edge">
<title>Node8&#45;&gt;Node12</title>
<path fill="none" stroke="midnightblue" d="M470.49,-474.04C443.46,-480.92 412.25,-488.85 384.18,-495.99"/>
<polygon fill="midnightblue" stroke="midnightblue" points="471.42,-477.42 480.25,-471.56 469.7,-470.64 471.42,-477.42"/>
</g>
<!-- Node13 -->
<g id="node13" class="node">
<title>Node13</title>
<g id="a_node13"><a xlink:href="classdenoptim_1_1fragspace_1_1_fragment_space_test.html#a2ba7718688486212e987638aef444bad" target="_top" xlink:title=" ">
<polygon fill="white" stroke="black" points="210,-436 210,-477 395,-477 395,-436 210,-436"/>
<text text-anchor="start" x="218" y="-465" font-family="Helvetica,sans-Serif" font-size="10.00">denoptim.fragspace.Fragment</text>
<text text-anchor="start" x="218" y="-454" font-family="Helvetica,sans-Serif" font-size="10.00">SpaceTest.testGetFragAPsCompatible</text>
<text text-anchor="middle" x="302.5" y="-443" font-family="Helvetica,sans-Serif" font-size="10.00">WithTheseAPs</text>
</a>
</g>
</g>
<!-- Node8&#45;&gt;Node13 -->
<g id="edge12" class="edge">
<title>Node8&#45;&gt;Node13</title>
<path fill="none" stroke="midnightblue" d="M452.64,-456.5C433.99,-456.5 414.21,-456.5 395.38,-456.5"/>
<polygon fill="midnightblue" stroke="midnightblue" points="452.88,-460 462.88,-456.5 452.88,-453 452.88,-460"/>
</g>
<!-- Node14 -->
<g id="node14" class="node">
<title>Node14</title>
<g id="a_node14"><a xlink:href="classdenoptim_1_1fragspace_1_1_fragment_space_test.html#ab95d03f36f68718eb1cc11fac188401f" target="_top" xlink:title=" ">
<polygon fill="white" stroke="black" points="205.5,-376 205.5,-417 399.5,-417 399.5,-376 205.5,-376"/>
<text text-anchor="start" x="213.5" y="-405" font-family="Helvetica,sans-Serif" font-size="10.00">denoptim.fragspace.Fragment</text>
<text text-anchor="start" x="213.5" y="-394" font-family="Helvetica,sans-Serif" font-size="10.00">SpaceTest.testGetFragmentsCompatible</text>
<text text-anchor="middle" x="302.5" y="-383" font-family="Helvetica,sans-Serif" font-size="10.00">WithTheseAPs</text>
</a>
</g>
</g>
<!-- Node8&#45;&gt;Node14 -->
<g id="edge13" class="edge">
<title>Node8&#45;&gt;Node14</title>
<path fill="none" stroke="midnightblue" d="M470.49,-438.96C443.46,-432.08 412.25,-424.15 384.18,-417.01"/>
<polygon fill="midnightblue" stroke="midnightblue" points="469.7,-442.36 480.25,-441.44 471.42,-435.58 469.7,-442.36"/>
</g>
<!-- Node15 -->
<g id="node15" class="node">
<title>Node15</title>
<g id="a_node15"><a xlink:href="classdenoptim_1_1fragspace_1_1_fragment_space_test.html#a7179e27179c0bbe5a8ae101a9aa8e3d8" target="_top" xlink:title=" ">
<polygon fill="white" stroke="black" points="212,-327.5 212,-357.5 393,-357.5 393,-327.5 212,-327.5"/>
<text text-anchor="start" x="220" y="-345.5" font-family="Helvetica,sans-Serif" font-size="10.00">denoptim.fragspace.Fragment</text>
<text text-anchor="middle" x="302.5" y="-334.5" font-family="Helvetica,sans-Serif" font-size="10.00">SpaceTest.testGetFragsWithAPClass</text>
</a>
</g>
</g>
<!-- Node8&#45;&gt;Node15 -->
<g id="edge14" class="edge">
<title>Node8&#45;&gt;Node15</title>
<path fill="none" stroke="midnightblue" d="M460.3,-437.32C454.15,-434.23 448.28,-430.65 443,-426.5 418.55,-407.29 432.14,-384.8 407,-366.5 402.3,-363.08 397.19,-360.14 391.85,-357.61"/>
<polygon fill="midnightblue" stroke="midnightblue" points="458.93,-440.54 469.48,-441.5 461.83,-434.17 458.93,-440.54"/>
</g>
<!-- Node16 -->
<g id="node16" class="node">
<title>Node16</title>
<g id="a_node16"><a xlink:href="classdenoptim_1_1fragspace_1_1_fragment_space_test.html#ab364422886eee4ba289a703f83b0ef1b" target="_top" xlink:title=" ">
<polygon fill="white" stroke="black" points="230,-278.5 230,-308.5 375,-308.5 375,-278.5 230,-278.5"/>
<text text-anchor="start" x="238" y="-296.5" font-family="Helvetica,sans-Serif" font-size="10.00">denoptim.fragspace.Fragment</text>
<text text-anchor="middle" x="302.5" y="-285.5" font-family="Helvetica,sans-Serif" font-size="10.00">SpaceTest.testSymmetry</text>
</a>
</g>
</g>
<!-- Node8&#45;&gt;Node16 -->
<g id="edge15" class="edge">
<title>Node8&#45;&gt;Node16</title>
<path fill="none" stroke="midnightblue" d="M455.67,-436.38C451.09,-433.52 446.82,-430.24 443,-426.5 406.86,-391.09 444.26,-352.73 407,-318.5 398.02,-310.25 386.78,-304.59 375.06,-300.73"/>
<polygon fill="midnightblue" stroke="midnightblue" points="454.33,-439.65 464.78,-441.41 457.71,-433.52 454.33,-439.65"/>
</g>
<!-- Node8&#45;&gt;Node17 -->
<g id="edge16" class="edge">
<title>Node8&#45;&gt;Node17</title>
<path fill="none" stroke="midnightblue" d="M454.12,-436.04C450.08,-433.26 446.33,-430.09 443,-426.5 394.34,-373.99 456.17,-321.54 407,-269.5 403.53,-265.83 399.64,-262.6 395.46,-259.76"/>
<polygon fill="midnightblue" stroke="midnightblue" points="452.4,-439.1 462.77,-441.26 456.01,-433.1 452.4,-439.1"/>
</g>
<!-- Node19 -->
<g id="node19" class="node">
<title>Node19</title>
<g id="a_node19"><a xlink:href="classdenoptim_1_1graph_1_1_fragment_test.html#a0a98792d99861bb6673e66a76ff49d31" target="_top" xlink:title=" ">
<polygon fill="white" stroke="black" points="220.5,-170.5 220.5,-200.5 384.5,-200.5 384.5,-170.5 220.5,-170.5"/>
<text text-anchor="start" x="228.5" y="-188.5" font-family="Helvetica,sans-Serif" font-size="10.00">denoptim.graph.FragmentTest.test</text>
<text text-anchor="middle" x="302.5" y="-177.5" font-family="Helvetica,sans-Serif" font-size="10.00">Clone</text>
</a>
</g>
</g>
<!-- Node18&#45;&gt;Node19 -->
<g id="edge18" class="edge">
<title>Node18&#45;&gt;Node19</title>
<path fill="none" stroke="midnightblue" d="M446,-347.25C444.97,-346.37 443.97,-345.45 443,-344.5 398.72,-300.96 451.62,-252.68 407,-209.5 400.57,-203.28 392.86,-198.55 384.59,-194.98"/>
<polygon fill="midnightblue" stroke="midnightblue" points="444.26,-350.32 454.41,-353.36 448.38,-344.65 444.26,-350.32"/>
</g>
<!-- Node20 -->
<g id="node20" class="node">
<title>Node20</title>
<g id="a_node20"><a xlink:href="classdenoptim_1_1io_1_1_denoptim_i_o_test.html#afa1376c9ab452a7e75cdf00489be1e07" target="_top" xlink:title=" ">
<polygon fill="white" stroke="black" points="223.5,-121.5 223.5,-151.5 381.5,-151.5 381.5,-121.5 223.5,-121.5"/>
<text text-anchor="start" x="231.5" y="-139.5" font-family="Helvetica,sans-Serif" font-size="10.00">denoptim.io.DenoptimIOTest.test</text>
<text text-anchor="middle" x="302.5" y="-128.5" font-family="Helvetica,sans-Serif" font-size="10.00">IOMolFragment</text>
</a>
</g>
</g>
<!-- Node18&#45;&gt;Node20 -->
<g id="edge19" class="edge">
<title>Node18&#45;&gt;Node20</title>
<path fill="none" stroke="midnightblue" d="M445.91,-347.34C444.91,-346.43 443.94,-345.48 443,-344.5 385.86,-284.45 464.35,-221.35 407,-161.5 399.97,-154.16 391.18,-148.82 381.71,-144.96"/>
<polygon fill="midnightblue" stroke="midnightblue" points="444.07,-350.34 454.14,-353.63 448.32,-344.78 444.07,-350.34"/>
</g>
<!-- Node21 -->
<g id="node21" class="node">
<title>Node21</title>
<g id="a_node21"><a xlink:href="classdenoptim_1_1json_1_1_d_e_n_o_p_t_i_mgson_test.html#ac2186d67581bef7c19379247af6672d6" target="_top" xlink:title=" ">
<polygon fill="white" stroke="black" points="207,-72.5 207,-102.5 398,-102.5 398,-72.5 207,-72.5"/>
<text text-anchor="start" x="215" y="-90.5" font-family="Helvetica,sans-Serif" font-size="10.00">denoptim.json.DENOPTIMgson</text>
<text text-anchor="middle" x="302.5" y="-79.5" font-family="Helvetica,sans-Serif" font-size="10.00">Test.testMolecularFragmentSerialization</text>
</a>
</g>
</g>
<!-- Node18&#45;&gt;Node21 -->
<g id="edge20" class="edge">
<title>Node18&#45;&gt;Node21</title>
<path fill="none" stroke="midnightblue" d="M446.3,-347.81C445.16,-346.76 444.06,-345.66 443,-344.5 372.33,-267.13 478.28,-188.3 407,-111.5 403.86,-108.12 400.35,-105.17 396.57,-102.6"/>
<polygon fill="midnightblue" stroke="midnightblue" points="444.35,-350.73 454.4,-354.07 448.63,-345.19 444.35,-350.73"/>
</g>
<!-- Node22&#45;&gt;Node7 -->
<g id="edge23" class="edge">
<title>Node22&#45;&gt;Node7</title>
<path fill="none" stroke="midnightblue" d="M508.33,-808.23C482.23,-824.76 443.5,-847.4 407,-861.5 398.22,-864.89 388.84,-867.88 379.43,-870.5"/>
<polygon fill="midnightblue" stroke="midnightblue" points="510.49,-811.01 517.01,-802.66 506.71,-805.12 510.49,-811.01"/>
</g>
<!-- Node23 -->
<g id="node23" class="node">
<title>Node23</title>
<g id="a_node23"><a xlink:href="classdenoptim_1_1graph_1_1_symmetric_a_ps_test.html#a9425bd6d6e87f4d8ff966498564a3633" target="_top" xlink:title=" ">
<polygon fill="white" stroke="black" points="229.5,-821.5 229.5,-851.5 375.5,-851.5 375.5,-821.5 229.5,-821.5"/>
<text text-anchor="start" x="237.5" y="-839.5" font-family="Helvetica,sans-Serif" font-size="10.00">denoptim.graph.Symmetric</text>
<text text-anchor="middle" x="302.5" y="-828.5" font-family="Helvetica,sans-Serif" font-size="10.00">APsTest.testGetSameAsThis</text>
</a>
</g>
</g>
<!-- Node22&#45;&gt;Node23 -->
<g id="edge22" class="edge">
<title>Node22&#45;&gt;Node23</title>
<path fill="none" stroke="midnightblue" d="M457.08,-804.61C430.6,-810.11 401.47,-816.16 375.77,-821.49"/>
<polygon fill="midnightblue" stroke="midnightblue" points="458.01,-807.99 467.09,-802.53 456.59,-801.14 458.01,-807.99"/>
</g>
<!-- Node24 -->
<g id="node24" class="node">
<title>Node24</title>
<g id="a_node24"><a xlink:href="classdenoptim_1_1graph_1_1_fragment_test.html#af49cc0e35c38f683bfc3d332210d1124" target="_top" xlink:title=" ">
<polygon fill="white" stroke="black" points="220.5,-723.5 220.5,-753.5 384.5,-753.5 384.5,-723.5 220.5,-723.5"/>
<text text-anchor="start" x="228.5" y="-741.5" font-family="Helvetica,sans-Serif" font-size="10.00">denoptim.graph.FragmentTest.test</text>
<text text-anchor="middle" x="302.5" y="-730.5" font-family="Helvetica,sans-Serif" font-size="10.00">IsomorphicTo</text>
</a>
</g>
</g>
<!-- Node22&#45;&gt;Node24 -->
<g id="edge24" class="edge">
<title>Node22&#45;&gt;Node24</title>
<path fill="none" stroke="midnightblue" d="M457.08,-770.39C430.6,-764.89 401.47,-758.84 375.77,-753.51"/>
<polygon fill="midnightblue" stroke="midnightblue" points="456.59,-773.86 467.09,-772.47 458.01,-767.01 456.59,-773.86"/>
</g>
<!-- Node25 -->
<g id="node25" class="node">
<title>Node25</title>
<g id="a_node25"><a xlink:href="classdenoptim_1_1graph_1_1_symmetric_a_ps_test.html#a90b0920db91160f9d8f797d5167e39de" target="_top" xlink:title=" ">
<polygon fill="white" stroke="black" points="237,-772.5 237,-802.5 368,-802.5 368,-772.5 237,-772.5"/>
<text text-anchor="start" x="245" y="-790.5" font-family="Helvetica,sans-Serif" font-size="10.00">denoptim.graph.Symmetric</text>
<text text-anchor="middle" x="302.5" y="-779.5" font-family="Helvetica,sans-Serif" font-size="10.00">APsTest.testSameAs</text>
</a>
</g>
</g>
<!-- Node22&#45;&gt;Node25 -->
<g id="edge25" class="edge">
<title>Node22&#45;&gt;Node25</title>
<path fill="none" stroke="midnightblue" d="M444.22,-787.5C418.68,-787.5 391.66,-787.5 368.2,-787.5"/>
<polygon fill="midnightblue" stroke="midnightblue" points="444.3,-791 454.3,-787.5 444.3,-784 444.3,-791"/>
</g>
<!-- Node26&#45;&gt;Node24 -->
<g id="edge27" class="edge">
<title>Node26&#45;&gt;Node24</title>
<path fill="none" stroke="midnightblue" d="M452.26,-709.5C428.74,-714.09 403.47,-719.01 380.55,-723.48"/>
<polygon fill="midnightblue" stroke="midnightblue" points="453.08,-712.91 462.22,-707.56 451.74,-706.04 453.08,-712.91"/>
</g>
<!-- Node27&#45;&gt;Node24 -->
<g id="edge29" class="edge">
<title>Node27&#45;&gt;Node24</title>
<path fill="none" stroke="midnightblue" d="M520.47,-574.22C500.88,-597.69 469.55,-635.45 443,-668.5 426.74,-688.74 428.89,-700.55 407,-714.5 400.08,-718.91 392.43,-722.51 384.53,-725.46"/>
<polygon fill="midnightblue" stroke="midnightblue" points="523.16,-576.46 526.88,-566.54 517.79,-571.97 523.16,-576.46"/>
</g>
</g>
</svg>
