<?xml version="1.0" encoding="UTF-8" standalone="no"?>
<!DOCTYPE svg PUBLIC "-//W3C//DTD SVG 1.1//EN"
 "http://www.w3.org/Graphics/SVG/1.1/DTD/svg11.dtd">
<!-- Generated by graphviz version 3.0.0 (20221109.1736)
 -->
<!-- Title: denoptim.molecularmodeling.ThreeDimTreeBuilder.convertGraphTo3DAtomContainer Pages: 1 -->
<svg width="1441pt" height="876pt"
 viewBox="0.00 0.00 1441.00 875.50" xmlns="http://www.w3.org/2000/svg" xmlns:xlink="http://www.w3.org/1999/xlink">
<g id="graph0" class="graph" transform="scale(1 1) rotate(0) translate(4 871.5)">
<title>denoptim.molecularmodeling.ThreeDimTreeBuilder.convertGraphTo3DAtomContainer</title>
<polygon fill="white" stroke="transparent" points="-4,4 -4,-871.5 1437,-871.5 1437,4 -4,4"/>
<!-- Node1 -->
<g id="node1" class="node">
<title>Node1</title>
<g id="a_node1"><a xlink:title="Created a three&#45;dimensional molecular representation from a given DGraph.">
<polygon fill="#bfbfbf" stroke="black" points="1264,-425 1264,-466 1433,-466 1433,-425 1264,-425"/>
<text text-anchor="start" x="1272" y="-454" font-family="Helvetica,sans-Serif" font-size="10.00">denoptim.molecularmodeling.</text>
<text text-anchor="start" x="1272" y="-443" font-family="Helvetica,sans-Serif" font-size="10.00">ThreeDimTreeBuilder.convertGraph</text>
<text text-anchor="middle" x="1348.5" y="-432" font-family="Helvetica,sans-Serif" font-size="10.00">To3DAtomContainer</text>
</a>
</g>
</g>
<!-- Node1&#45;&gt;Node1 -->
<g id="edge8" class="edge">
<title>Node1&#45;&gt;Node1</title>
<path fill="none" stroke="midnightblue" d="M1386.01,-476.36C1380.43,-481.2 1367.93,-484.5 1348.5,-484.5 1317.42,-484.5 1304.06,-476.04 1308.43,-466.36"/>
<polygon fill="midnightblue" stroke="midnightblue" points="1389.47,-476.92 1388.57,-466.36 1382.69,-475.18 1389.47,-476.92"/>
</g>
<!-- Node2 -->
<g id="node2" class="node">
<title>Node2</title>
<g id="a_node2"><a xlink:href="classdenoptim_1_1molecularmodeling_1_1_multi_molecular_model_builder.html#a1cd879265bf12e9c2980efae1e8e74aa" target="_top" xlink:title="Generate 3D structure by assembling 3D fragments according to attachment point vector and following t...">
<polygon fill="white" stroke="black" points="1035.5,-826.5 1035.5,-856.5 1225.5,-856.5 1225.5,-826.5 1035.5,-826.5"/>
<text text-anchor="start" x="1043.5" y="-844.5" font-family="Helvetica,sans-Serif" font-size="10.00">denoptim.molecularmodeling.</text>
<text text-anchor="middle" x="1130.5" y="-833.5" font-family="Helvetica,sans-Serif" font-size="10.00">MultiMolecularModelBuilder.build3DTree</text>
</a>
</g>
</g>
<!-- Node1&#45;&gt;Node2 -->
<g id="edge1" class="edge">
<title>Node1&#45;&gt;Node2</title>
<path fill="none" stroke="midnightblue" d="M1345.74,-476.42C1340.24,-544.49 1317.88,-708.73 1228,-803.5 1218.52,-813.49 1206.09,-820.91 1193.32,-826.39"/>
<polygon fill="midnightblue" stroke="midnightblue" points="1349.24,-476.58 1346.48,-466.35 1342.25,-476.07 1349.24,-476.58"/>
</g>
<!-- Node5 -->
<g id="node5" class="node">
<title>Node5</title>
<g id="a_node5"><a xlink:href="classdenoptim_1_1combinatorial_1_1_graph_building_task.html#a3eaee724fc921194fa158714aafe182d" target="_top" xlink:title="Calls the task.">
<polygon fill="white" stroke="black" points="588.5,-733.5 588.5,-763.5 733.5,-763.5 733.5,-733.5 588.5,-733.5"/>
<text text-anchor="start" x="596.5" y="-751.5" font-family="Helvetica,sans-Serif" font-size="10.00">denoptim.combinatorial.Graph</text>
<text text-anchor="middle" x="661" y="-740.5" font-family="Helvetica,sans-Serif" font-size="10.00">BuildingTask.call</text>
</a>
</g>
</g>
<!-- Node1&#45;&gt;Node5 -->
<g id="edge4" class="edge">
<title>Node1&#45;&gt;Node5</title>
<path fill="none" stroke="midnightblue" d="M1344.57,-476.27C1337.1,-535.54 1311.56,-664.76 1228,-722.5 1149.86,-776.5 867.5,-763.82 733.51,-754.34"/>
<polygon fill="midnightblue" stroke="midnightblue" points="1348.08,-476.39 1345.76,-466.05 1341.12,-475.58 1348.08,-476.39"/>
</g>
<!-- Node6 -->
<g id="node6" class="node">
<title>Node6</title>
<g id="a_node6"><a xlink:href="classdenoptim_1_1ga_1_1_offspring_evaluation_task.html#aab5b9c0b8a88922460f5c28ae161d1fa" target="_top" xlink:title=" ">
<polygon fill="white" stroke="black" points="821,-689.5 821,-719.5 976,-719.5 976,-689.5 821,-689.5"/>
<text text-anchor="start" x="829" y="-707.5" font-family="Helvetica,sans-Serif" font-size="10.00">denoptim.ga.OffspringEvaluation</text>
<text text-anchor="middle" x="898.5" y="-696.5" font-family="Helvetica,sans-Serif" font-size="10.00">Task.call</text>
</a>
</g>
</g>
<!-- Node1&#45;&gt;Node6 -->
<g id="edge5" class="edge">
<title>Node1&#45;&gt;Node6</title>
<path fill="none" stroke="midnightblue" d="M1342.63,-475.98C1332.27,-529.54 1302.6,-639.5 1228,-688.5 1149.38,-740.15 1035.9,-731.95 964.99,-719.54"/>
<polygon fill="midnightblue" stroke="midnightblue" points="1346.09,-476.52 1344.45,-466.05 1339.2,-475.26 1346.09,-476.52"/>
</g>
<!-- Node7 -->
<g id="node7" class="node">
<title>Node7</title>
<g id="a_node7"><a xlink:href="classdenoptim_1_1programs_1_1fitnessevaluator_1_1_fitness_evaluation_task.html#a498b4214d06fc161d92cf1a38635ece3" target="_top" xlink:title=" ">
<polygon fill="white" stroke="black" points="812.5,-591.5 812.5,-621.5 984.5,-621.5 984.5,-591.5 812.5,-591.5"/>
<text text-anchor="start" x="820.5" y="-609.5" font-family="Helvetica,sans-Serif" font-size="10.00">denoptim.programs.fitnessevaluator.</text>
<text text-anchor="middle" x="898.5" y="-598.5" font-family="Helvetica,sans-Serif" font-size="10.00">FitnessEvaluationTask.call</text>
</a>
</g>
</g>
<!-- Node1&#45;&gt;Node7 -->
<g id="edge6" class="edge">
<title>Node1&#45;&gt;Node7</title>
<path fill="none" stroke="midnightblue" d="M1334.53,-475.46C1316.64,-512.56 1280.52,-574.07 1228,-600.5 1145.58,-641.97 1036.17,-633.43 966.78,-621.52"/>
<polygon fill="midnightblue" stroke="midnightblue" points="1337.82,-476.68 1338.89,-466.14 1331.48,-473.72 1337.82,-476.68"/>
</g>
<!-- Node8 -->
<g id="node8" class="node">
<title>Node8</title>
<g id="a_node8"><a xlink:href="classdenoptim_1_1graph_1_1_d_graph.html#ac1e5c9703afc6f29fe11cca08ddb1a1c" target="_top" xlink:title="Peeks into this graph to derive a preliminary chemical representation with SMILES and InChIKey.">
<polygon fill="white" stroke="black" points="1057.5,-560.5 1057.5,-590.5 1203.5,-590.5 1203.5,-560.5 1057.5,-560.5"/>
<text text-anchor="start" x="1065.5" y="-578.5" font-family="Helvetica,sans-Serif" font-size="10.00">denoptim.graph.DGraph.check</text>
<text text-anchor="middle" x="1130.5" y="-567.5" font-family="Helvetica,sans-Serif" font-size="10.00">Consistency</text>
</a>
</g>
</g>
<!-- Node1&#45;&gt;Node8 -->
<g id="edge7" class="edge">
<title>Node1&#45;&gt;Node8</title>
<path fill="none" stroke="midnightblue" d="M1323.04,-473.81C1300.66,-497.95 1265.42,-531.8 1228,-551.5 1220.36,-555.52 1212.03,-558.89 1203.56,-561.7"/>
<polygon fill="midnightblue" stroke="midnightblue" points="1325.7,-476.09 1329.84,-466.34 1320.52,-471.38 1325.7,-476.09"/>
</g>
<!-- Node9 -->
<g id="node9" class="node">
<title>Node9</title>
<g id="a_node9"><a xlink:href="classdenoptim_1_1graph_1_1_template.html#a6c6cd768eb24bd720cfde0adee2c7b5f" target="_top" xlink:title="The molecular representation, if any, is generated by this method and stored until further changes in...">
<polygon fill="white" stroke="black" points="1060,-511.5 1060,-541.5 1201,-541.5 1201,-511.5 1060,-511.5"/>
<text text-anchor="start" x="1068" y="-529.5" font-family="Helvetica,sans-Serif" font-size="10.00">denoptim.graph.Template.get</text>
<text text-anchor="middle" x="1130.5" y="-518.5" font-family="Helvetica,sans-Serif" font-size="10.00">IAtomContainer</text>
</a>
</g>
</g>
<!-- Node1&#45;&gt;Node9 -->
<g id="edge9" class="edge">
<title>Node1&#45;&gt;Node9</title>
<path fill="none" stroke="midnightblue" d="M1300.36,-470.69C1278.74,-481.53 1252.52,-493.71 1228,-502.5 1218.82,-505.79 1208.99,-508.8 1199.25,-511.49"/>
<polygon fill="midnightblue" stroke="midnightblue" points="1301.99,-473.78 1309.32,-466.14 1298.82,-467.54 1301.99,-473.78"/>
</g>
<!-- Node10 -->
<g id="node10" class="node">
<title>Node10</title>
<g id="a_node10"><a xlink:href="classdenoptim_1_1gui_1_1_g_u_i_graph_handler.html#a81df728192225395c24224607bc63eee" target="_top" xlink:title="Imports graphs from file.">
<polygon fill="white" stroke="black" points="1040,-403.5 1040,-433.5 1221,-433.5 1221,-403.5 1040,-403.5"/>
<text text-anchor="start" x="1048" y="-421.5" font-family="Helvetica,sans-Serif" font-size="10.00">denoptim.gui.GUIGraphHandler.import</text>
<text text-anchor="middle" x="1130.5" y="-410.5" font-family="Helvetica,sans-Serif" font-size="10.00">GraphsFromFile</text>
</a>
</g>
</g>
<!-- Node1&#45;&gt;Node10 -->
<g id="edge10" class="edge">
<title>Node1&#45;&gt;Node10</title>
<path fill="none" stroke="midnightblue" d="M1254.06,-433.82C1243.17,-432.46 1232.07,-431.07 1221.23,-429.72"/>
<polygon fill="midnightblue" stroke="midnightblue" points="1253.63,-437.29 1263.99,-435.06 1254.5,-430.35 1253.63,-437.29"/>
</g>
<!-- Node22 -->
<g id="node22" class="node">
<title>Node22</title>
<g id="a_node22"><a xlink:href="classdenoptim_1_1graph_1_1_d_graph.html#a7a4743d014e860237f4b20703ef9779b" target="_top" xlink:title="Evaluates the possibility of closing rings in this graph and generates all alternative graphs resulti...">
<polygon fill="white" stroke="black" points="821,-777.5 821,-807.5 976,-807.5 976,-777.5 821,-777.5"/>
<text text-anchor="start" x="829" y="-795.5" font-family="Helvetica,sans-Serif" font-size="10.00">denoptim.graph.DGraph.make</text>
<text text-anchor="middle" x="898.5" y="-784.5" font-family="Helvetica,sans-Serif" font-size="10.00">AllGraphsWithDifferentRingSets</text>
</a>
</g>
</g>
<!-- Node1&#45;&gt;Node22 -->
<g id="edge23" class="edge">
<title>Node1&#45;&gt;Node22</title>
<path fill="none" stroke="midnightblue" d="M1346.14,-476.1C1341.47,-540.94 1320.65,-691.97 1228,-762.5 1156.23,-817.14 1048.43,-815.9 976.1,-806.86"/>
<polygon fill="midnightblue" stroke="midnightblue" points="1349.64,-476.31 1346.79,-466.1 1342.65,-475.86 1349.64,-476.31"/>
</g>
<!-- Node23 -->
<g id="node23" class="node">
<title>Node23</title>
<g id="a_node23"><a xlink:href="classdenoptim_1_1graph_1_1rings_1_1_path_sub_graph.html#a178fe4dd52877659d0d0ae635635e880" target="_top" xlink:title="Creates the molecular representation, list of atoms and bonds involved in the path between the head a...">
<polygon fill="white" stroke="black" points="1033.5,-315.5 1033.5,-345.5 1227.5,-345.5 1227.5,-315.5 1033.5,-315.5"/>
<text text-anchor="start" x="1041.5" y="-333.5" font-family="Helvetica,sans-Serif" font-size="10.00">denoptim.graph.rings.Path</text>
<text text-anchor="middle" x="1130.5" y="-322.5" font-family="Helvetica,sans-Serif" font-size="10.00">SubGraph.makeMolecularRepresentation</text>
</a>
</g>
</g>
<!-- Node1&#45;&gt;Node23 -->
<g id="edge25" class="edge">
<title>Node1&#45;&gt;Node23</title>
<path fill="none" stroke="midnightblue" d="M1315.27,-418.28C1292.19,-399.89 1259.7,-376.2 1228,-360.5 1216.21,-354.66 1203.04,-349.67 1190.32,-345.53"/>
<polygon fill="midnightblue" stroke="midnightblue" points="1313.36,-421.23 1323.34,-424.79 1317.75,-415.79 1313.36,-421.23"/>
</g>
<!-- Node24 -->
<g id="node24" class="node">
<title>Node24</title>
<g id="a_node24"><a xlink:href="classdenoptim_1_1graph_1_1rings_1_1_path_sub_graph_test.html#aa8b4f4d926b012b1eb56c9c1477abd9f" target="_top" xlink:title=" ">
<polygon fill="white" stroke="black" points="805.5,-315.5 805.5,-345.5 991.5,-345.5 991.5,-315.5 805.5,-315.5"/>
<text text-anchor="start" x="813.5" y="-333.5" font-family="Helvetica,sans-Serif" font-size="10.00">denoptim.graph.rings.Path</text>
<text text-anchor="middle" x="898.5" y="-322.5" font-family="Helvetica,sans-Serif" font-size="10.00">SubGraphTest.testMakePathSubGraph</text>
</a>
</g>
</g>
<!-- Node1&#45;&gt;Node24 -->
<g id="edge52" class="edge">
<title>Node1&#45;&gt;Node24</title>
<path fill="none" stroke="midnightblue" d="M1296.18,-420.78C1275.38,-411.51 1250.91,-401.53 1228,-394.5 1216.08,-390.84 1072.29,-363.28 978.94,-345.54"/>
<polygon fill="midnightblue" stroke="midnightblue" points="1294.9,-424.04 1305.45,-424.97 1297.78,-417.66 1294.9,-424.04"/>
</g>
<!-- Node25 -->
<g id="node25" class="node">
<title>Node25</title>
<g id="a_node25"><a xlink:href="classdenoptim_1_1task_1_1_fitness_task.html#a39bac06427179a7d067d3eadee30ba79" target="_top" xlink:title="This method runs the actual evaluation of the fitness, whether that is run internally (i....">
<polygon fill="white" stroke="black" points="1056,-648.5 1056,-678.5 1205,-678.5 1205,-648.5 1056,-648.5"/>
<text text-anchor="start" x="1064" y="-666.5" font-family="Helvetica,sans-Serif" font-size="10.00">denoptim.task.FitnessTask.run</text>
<text text-anchor="middle" x="1130.5" y="-655.5" font-family="Helvetica,sans-Serif" font-size="10.00">FitnessProvider</text>
</a>
</g>
</g>
<!-- Node1&#45;&gt;Node25 -->
<g id="edge27" class="edge">
<title>Node1&#45;&gt;Node25</title>
<path fill="none" stroke="midnightblue" d="M1336.27,-475.43C1319.18,-516.94 1282.74,-591.62 1228,-633.5 1220.06,-639.58 1210.87,-644.43 1201.38,-648.31"/>
<polygon fill="midnightblue" stroke="midnightblue" points="1339.53,-476.7 1340,-466.11 1333.03,-474.09 1339.53,-476.7"/>
</g>
<!-- Node27 -->
<g id="node27" class="node">
<title>Node27</title>
<g id="a_node27"><a xlink:href="classdenoptim_1_1programs_1_1genetweeker_1_1_gene_ops_runner.html#adb60b4cb2cda6a912a831974c5303df4" target="_top" xlink:title=" ">
<polygon fill="white" stroke="black" points="1051,-266.5 1051,-296.5 1210,-296.5 1210,-266.5 1051,-266.5"/>
<text text-anchor="start" x="1059" y="-284.5" font-family="Helvetica,sans-Serif" font-size="10.00">denoptim.programs.genetweeker.</text>
<text text-anchor="middle" x="1130.5" y="-273.5" font-family="Helvetica,sans-Serif" font-size="10.00">GeneOpsRunner.runMutation</text>
</a>
</g>
</g>
<!-- Node1&#45;&gt;Node27 -->
<g id="edge32" class="edge">
<title>Node1&#45;&gt;Node27</title>
<path fill="none" stroke="midnightblue" d="M1329.9,-415.93C1309.42,-384.1 1272.62,-334.3 1228,-306.5 1221.83,-302.66 1215.09,-299.4 1208.13,-296.65"/>
<polygon fill="midnightblue" stroke="midnightblue" points="1327.19,-418.2 1335.49,-424.79 1333.12,-414.47 1327.19,-418.2"/>
</g>
<!-- Node29 -->
<g id="node29" class="node">
<title>Node29</title>
<g id="a_node29"><a xlink:href="classdenoptim_1_1programs_1_1genetweeker_1_1_gene_ops_runner.html#ab0f92a94c4fb2334e7d3813e73fc4247" target="_top" xlink:title=" ">
<polygon fill="white" stroke="black" points="1051,-217.5 1051,-247.5 1210,-247.5 1210,-217.5 1051,-217.5"/>
<text text-anchor="start" x="1059" y="-235.5" font-family="Helvetica,sans-Serif" font-size="10.00">denoptim.programs.genetweeker.</text>
<text text-anchor="middle" x="1130.5" y="-224.5" font-family="Helvetica,sans-Serif" font-size="10.00">GeneOpsRunner.runXOver</text>
</a>
</g>
</g>
<!-- Node1&#45;&gt;Node29 -->
<g id="edge34" class="edge">
<title>Node1&#45;&gt;Node29</title>
<path fill="none" stroke="midnightblue" d="M1336.67,-415.53C1319.97,-373.64 1283.88,-298.16 1228,-257.5 1222.54,-253.53 1216.51,-250.19 1210.2,-247.38"/>
<polygon fill="midnightblue" stroke="midnightblue" points="1333.44,-416.87 1340.32,-424.93 1339.96,-414.34 1333.44,-416.87"/>
</g>
<!-- Node30 -->
<g id="node30" class="node">
<title>Node30</title>
<g id="a_node30"><a xlink:href="classdenoptim_1_1ga_1_1_e_a_utils.html#a1ddb932d4618434d435e4f85ce5e5eb5" target="_top" xlink:title="Evaluates the possibility of closing rings in a given graph and if any ring can be closed,...">
<polygon fill="white" stroke="black" points="1065,-168.5 1065,-198.5 1196,-198.5 1196,-168.5 1065,-168.5"/>
<text text-anchor="start" x="1073" y="-186.5" font-family="Helvetica,sans-Serif" font-size="10.00">denoptim.ga.EAUtils.setup</text>
<text text-anchor="middle" x="1130.5" y="-175.5" font-family="Helvetica,sans-Serif" font-size="10.00">Rings</text>
</a>
</g>
</g>
<!-- Node1&#45;&gt;Node30 -->
<g id="edge36" class="edge">
<title>Node1&#45;&gt;Node30</title>
<path fill="none" stroke="midnightblue" d="M1340.78,-415.01C1327.96,-364.24 1295.12,-262.62 1228,-208.5 1218.77,-201.06 1207.57,-195.81 1196.12,-192.11"/>
<polygon fill="midnightblue" stroke="midnightblue" points="1337.38,-415.85 1343.15,-424.74 1344.18,-414.2 1337.38,-415.85"/>
</g>
<!-- Node41 -->
<g id="node41" class="node">
<title>Node41</title>
<g id="a_node41"><a xlink:href="classdenoptim_1_1molecularmodeling_1_1_three_dim_tree_builder_test.html#a1aea42a3aa474b25c0edc4541509f8f7" target="_top" xlink:title=" ">
<polygon fill="white" stroke="black" points="1033,-109 1033,-150 1228,-150 1228,-109 1033,-109"/>
<text text-anchor="start" x="1041" y="-138" font-family="Helvetica,sans-Serif" font-size="10.00">denoptim.molecularmodeling.</text>
<text text-anchor="start" x="1041" y="-127" font-family="Helvetica,sans-Serif" font-size="10.00">ThreeDimTreeBuilderTest.testConversion</text>
<text text-anchor="middle" x="1130.5" y="-116" font-family="Helvetica,sans-Serif" font-size="10.00">To3dTree</text>
</a>
</g>
</g>
<!-- Node1&#45;&gt;Node41 -->
<g id="edge51" class="edge">
<title>Node1&#45;&gt;Node41</title>
<path fill="none" stroke="midnightblue" d="M1343.31,-414.75C1333.73,-356.44 1304.82,-229.39 1228,-159.5 1224.11,-155.96 1219.8,-152.83 1215.23,-150.08"/>
<polygon fill="midnightblue" stroke="midnightblue" points="1339.88,-415.47 1344.88,-424.81 1346.79,-414.39 1339.88,-415.47"/>
</g>
<!-- Node42 -->
<g id="node42" class="node">
<title>Node42</title>
<g id="a_node42"><a xlink:href="classdenoptim_1_1fragspace_1_1_fragment_space_test.html#a692723b803a64dd25e775b2f8726fe27" target="_top" xlink:title="Works with this graph:">
<polygon fill="white" stroke="black" points="1038,-49 1038,-90 1223,-90 1223,-49 1038,-49"/>
<text text-anchor="start" x="1046" y="-78" font-family="Helvetica,sans-Serif" font-size="10.00">denoptim.fragspace.Fragment</text>
<text text-anchor="start" x="1046" y="-67" font-family="Helvetica,sans-Serif" font-size="10.00">SpaceTest.testUseWholeMolGeometry</text>
<text text-anchor="middle" x="1130.5" y="-56" font-family="Helvetica,sans-Serif" font-size="10.00">ForExtractedTemplates</text>
</a>
</g>
</g>
<!-- Node1&#45;&gt;Node42 -->
<g id="edge53" class="edge">
<title>Node1&#45;&gt;Node42</title>
<path fill="none" stroke="midnightblue" d="M1345.86,-414.7C1340.63,-347.65 1318.77,-187.49 1228,-99.5 1224.35,-95.96 1220.28,-92.83 1215.95,-90.08"/>
<polygon fill="midnightblue" stroke="midnightblue" points="1342.4,-415.27 1346.59,-425 1349.38,-414.78 1342.4,-415.27"/>
</g>
<!-- Node43 -->
<g id="node43" class="node">
<title>Node43</title>
<g id="a_node43"><a xlink:href="classdenoptim_1_1gui_1_1_graph_vertex_mol_viewer_panel.html#afb0f2245fdfc8158581b4cbcf2b239d1" target="_top" xlink:title="Updates the molecular representation of the loaded graph.">
<polygon fill="white" stroke="black" points="1050,-452 1050,-493 1211,-493 1211,-452 1050,-452"/>
<text text-anchor="start" x="1058" y="-481" font-family="Helvetica,sans-Serif" font-size="10.00">denoptim.gui.GraphVertex</text>
<text text-anchor="start" x="1058" y="-470" font-family="Helvetica,sans-Serif" font-size="10.00">MolViewerPanel.updateMolevular</text>
<text text-anchor="middle" x="1130.5" y="-459" font-family="Helvetica,sans-Serif" font-size="10.00">Viewer</text>
</a>
</g>
</g>
<!-- Node1&#45;&gt;Node43 -->
<g id="edge54" class="edge">
<title>Node1&#45;&gt;Node43</title>
<path fill="none" stroke="midnightblue" d="M1253.75,-457.22C1239.58,-458.99 1225.08,-460.8 1211.24,-462.53"/>
<polygon fill="midnightblue" stroke="midnightblue" points="1254.5,-460.65 1263.99,-455.94 1253.63,-453.71 1254.5,-460.65"/>
</g>
<!-- Node45 -->
<g id="node45" class="node">
<title>Node45</title>
<g id="a_node45"><a xlink:href="classdenoptim_1_1io_1_1_denoptim_i_o.html#a6bbb4a9765cf259205519de1e0bcee3a" target="_top" xlink:title="Writes the graphs to SDF file.">
<polygon fill="white" stroke="black" points="1059,-0.5 1059,-30.5 1202,-30.5 1202,-0.5 1059,-0.5"/>
<text text-anchor="start" x="1067" y="-18.5" font-family="Helvetica,sans-Serif" font-size="10.00">denoptim.io.DenoptimIO.write</text>
<text text-anchor="middle" x="1130.5" y="-7.5" font-family="Helvetica,sans-Serif" font-size="10.00">GraphsToSDF</text>
</a>
</g>
</g>
<!-- Node1&#45;&gt;Node45 -->
<g id="edge57" class="edge">
<title>Node1&#45;&gt;Node45</title>
<path fill="none" stroke="midnightblue" d="M1348.1,-414.32C1347.79,-338.47 1335.95,-142.96 1228,-39.5 1220.77,-32.57 1211.86,-27.55 1202.41,-23.93"/>
<polygon fill="midnightblue" stroke="midnightblue" points="1344.6,-414.61 1348.08,-424.62 1351.6,-414.63 1344.6,-414.61"/>
</g>
<!-- Node3 -->
<g id="node3" class="node">
<title>Node3</title>
<g id="a_node3"><a xlink:href="classdenoptim_1_1molecularmodeling_1_1_multi_molecular_model_builder.html#a6a8e314f3fb37f66c32c8c4d5695b8a4" target="_top" xlink:title="Given the graph representation of the molecular constitution, along with the 3D coordinates of the fr...">
<polygon fill="white" stroke="black" points="819.5,-826 819.5,-867 977.5,-867 977.5,-826 819.5,-826"/>
<text text-anchor="start" x="827.5" y="-855" font-family="Helvetica,sans-Serif" font-size="10.00">denoptim.molecularmodeling.</text>
<text text-anchor="start" x="827.5" y="-844" font-family="Helvetica,sans-Serif" font-size="10.00">MultiMolecularModelBuilder.build</text>
<text text-anchor="middle" x="898.5" y="-833" font-family="Helvetica,sans-Serif" font-size="10.00">Multi3DStructure</text>
</a>
</g>
</g>
<!-- Node2&#45;&gt;Node3 -->
<g id="edge2" class="edge">
<title>Node2&#45;&gt;Node3</title>
<path fill="none" stroke="midnightblue" d="M1024.92,-843.77C1009.08,-844.12 992.96,-844.47 977.8,-844.8"/>
<polygon fill="midnightblue" stroke="midnightblue" points="1025.37,-847.26 1035.29,-843.55 1025.21,-840.27 1025.37,-847.26"/>
</g>
<!-- Node4 -->
<g id="node4" class="node">
<title>Node4</title>
<g id="a_node4"><a xlink:href="classdenoptim_1_1programs_1_1moldecularmodelbuilder_1_1_molecular_model_builder.html#ad2e44290de6a861274def677044e9754" target="_top" xlink:title=" ">
<polygon fill="white" stroke="black" points="558,-831.5 558,-861.5 764,-861.5 764,-831.5 558,-831.5"/>
<text text-anchor="start" x="566" y="-849.5" font-family="Helvetica,sans-Serif" font-size="10.00">denoptim.programs.moldecularmodelbuilder.</text>
<text text-anchor="middle" x="661" y="-838.5" font-family="Helvetica,sans-Serif" font-size="10.00">MolecularModelBuilder.runProgram</text>
</a>
</g>
</g>
<!-- Node3&#45;&gt;Node4 -->
<g id="edge3" class="edge">
<title>Node3&#45;&gt;Node4</title>
<path fill="none" stroke="midnightblue" d="M809.34,-846.5C794.62,-846.5 779.24,-846.5 764.21,-846.5"/>
<polygon fill="midnightblue" stroke="midnightblue" points="809.41,-850 819.41,-846.5 809.41,-843 809.41,-850"/>
</g>
<!-- Node11 -->
<g id="node11" class="node">
<title>Node11</title>
<g id="a_node11"><a xlink:href="classdenoptim_1_1gui_1_1_g_u_i_graph_handler.html#af5b000c105018cbd7c262b34f9750044" target="_top" xlink:title="Initialize the panel and add buttons.">
<polygon fill="white" stroke="black" points="567,-518 567,-537 755,-537 755,-518 567,-518"/>
<text text-anchor="middle" x="661" y="-525" font-family="Helvetica,sans-Serif" font-size="10.00">denoptim.gui.GUIGraphHandler.initialize</text>
</a>
</g>
</g>
<!-- Node10&#45;&gt;Node11 -->
<g id="edge11" class="edge">
<title>Node10&#45;&gt;Node11</title>
<path fill="none" stroke="midnightblue" d="M1044.86,-437.14C1040.79,-438.78 1036.81,-440.57 1033,-442.5 1014.42,-451.92 1015.94,-463.84 997,-472.5 973.38,-483.3 823.49,-505.3 732.4,-517.96"/>
<polygon fill="midnightblue" stroke="midnightblue" points="1046.36,-440.32 1054.51,-433.55 1043.92,-433.76 1046.36,-440.32"/>
</g>
<!-- Node13 -->
<g id="node13" class="node">
<title>Node13</title>
<g id="a_node13"><a xlink:href="classdenoptim_1_1gui_1_1_g_u_i_inspect_f_s_e_run.html#aa30815ac9aa8f815fd24c115afaabd62" target="_top" xlink:title="Initialize the panel and add buttons.">
<polygon fill="white" stroke="black" points="800,-444 800,-463 997,-463 997,-444 800,-444"/>
<text text-anchor="middle" x="898.5" y="-451" font-family="Helvetica,sans-Serif" font-size="10.00">denoptim.gui.GUIInspectFSERun.initialize</text>
</a>
</g>
</g>
<!-- Node10&#45;&gt;Node13 -->
<g id="edge13" class="edge">
<title>Node10&#45;&gt;Node13</title>
<path fill="none" stroke="midnightblue" d="M1029.79,-433.67C1006.83,-437.17 983.04,-440.79 962.17,-443.96"/>
<polygon fill="midnightblue" stroke="midnightblue" points="1030.56,-437.1 1039.92,-432.13 1029.5,-430.18 1030.56,-437.1"/>
</g>
<!-- Node15 -->
<g id="node15" class="node">
<title>Node15</title>
<g id="a_node15"><a xlink:href="classdenoptim_1_1gui_1_1_g_u_i_inspect_g_a_run.html#ad63012fa4fa9bec2e54ce86425039186" target="_top" xlink:title="Initialize the panel and add buttons.">
<polygon fill="white" stroke="black" points="802.5,-406 802.5,-425 994.5,-425 994.5,-406 802.5,-406"/>
<text text-anchor="middle" x="898.5" y="-413" font-family="Helvetica,sans-Serif" font-size="10.00">denoptim.gui.GUIInspectGARun.initialize</text>
</a>
</g>
</g>
<!-- Node10&#45;&gt;Node15 -->
<g id="edge15" class="edge">
<title>Node10&#45;&gt;Node15</title>
<path fill="none" stroke="midnightblue" d="M1029.72,-417.2C1018.04,-417.05 1006.15,-416.89 994.54,-416.74"/>
<polygon fill="midnightblue" stroke="midnightblue" points="1029.87,-420.7 1039.92,-417.33 1029.96,-413.7 1029.87,-420.7"/>
</g>
<!-- Node17 -->
<g id="node17" class="node">
<title>Node17</title>
<g id="a_node17"><a xlink:href="classdenoptim_1_1gui_1_1_main_tool_bar.html#a1a2e06a2647032587d42155302b8c0a6" target="_top" xlink:title="Process a file that has a recognized file format and loads a suitable GUI card to visualize the file ...">
<polygon fill="white" stroke="black" points="815,-365 815,-384 982,-384 982,-365 815,-365"/>
<text text-anchor="middle" x="898.5" y="-372" font-family="Helvetica,sans-Serif" font-size="10.00">denoptim.gui.MainToolBar.openFile</text>
</a>
</g>
</g>
<!-- Node10&#45;&gt;Node17 -->
<g id="edge17" class="edge">
<title>Node10&#45;&gt;Node17</title>
<path fill="none" stroke="midnightblue" d="M1040.99,-401.57C1009.87,-395.61 976.02,-389.14 949.22,-384.01"/>
<polygon fill="midnightblue" stroke="midnightblue" points="1040.51,-405.04 1050.99,-403.48 1041.83,-398.16 1040.51,-405.04"/>
</g>
<!-- Node12 -->
<g id="node12" class="node">
<title>Node12</title>
<g id="a_node12"><a xlink:href="classdenoptim_1_1gui_1_1_g_u_i_graph_handler.html#ab7d010d9a384f6b85edce47c95d6723b" target="_top" xlink:title="Constructor.">
<polygon fill="white" stroke="black" points="362.5,-512.5 362.5,-542.5 516.5,-542.5 516.5,-512.5 362.5,-512.5"/>
<text text-anchor="start" x="370.5" y="-530.5" font-family="Helvetica,sans-Serif" font-size="10.00">denoptim.gui.GUIGraphHandler.</text>
<text text-anchor="middle" x="439.5" y="-519.5" font-family="Helvetica,sans-Serif" font-size="10.00">GUIGraphHandler</text>
</a>
</g>
</g>
<!-- Node11&#45;&gt;Node12 -->
<g id="edge12" class="edge">
<title>Node11&#45;&gt;Node12</title>
<path fill="none" stroke="midnightblue" d="M556.68,-527.5C543.25,-527.5 529.68,-527.5 516.8,-527.5"/>
<polygon fill="midnightblue" stroke="midnightblue" points="556.91,-531 566.91,-527.5 556.91,-524 556.91,-531"/>
</g>
<!-- Node14 -->
<g id="node14" class="node">
<title>Node14</title>
<g id="a_node14"><a xlink:href="classdenoptim_1_1gui_1_1_g_u_i_inspect_f_s_e_run.html#aa4cc9386cd3e91865c486ba914af789d" target="_top" xlink:title="Constructor.">
<polygon fill="white" stroke="black" points="580,-457.5 580,-487.5 742,-487.5 742,-457.5 580,-457.5"/>
<text text-anchor="start" x="588" y="-475.5" font-family="Helvetica,sans-Serif" font-size="10.00">denoptim.gui.GUIInspectFSERun.</text>
<text text-anchor="middle" x="661" y="-464.5" font-family="Helvetica,sans-Serif" font-size="10.00">GUIInspectFSERun</text>
</a>
</g>
</g>
<!-- Node13&#45;&gt;Node14 -->
<g id="edge14" class="edge">
<title>Node13&#45;&gt;Node14</title>
<path fill="none" stroke="midnightblue" d="M789.33,-462.23C773.52,-463.5 757.48,-464.8 742.35,-466.02"/>
<polygon fill="midnightblue" stroke="midnightblue" points="789.99,-465.69 799.67,-461.39 789.42,-458.71 789.99,-465.69"/>
</g>
<!-- Node16 -->
<g id="node16" class="node">
<title>Node16</title>
<g id="a_node16"><a xlink:href="classdenoptim_1_1gui_1_1_g_u_i_inspect_g_a_run.html#aefffdc97385f7a524badf71808a3053b" target="_top" xlink:title="Constructor.">
<polygon fill="white" stroke="black" points="582,-408.5 582,-438.5 740,-438.5 740,-408.5 582,-408.5"/>
<text text-anchor="start" x="590" y="-426.5" font-family="Helvetica,sans-Serif" font-size="10.00">denoptim.gui.GUIInspectGARun.</text>
<text text-anchor="middle" x="661" y="-415.5" font-family="Helvetica,sans-Serif" font-size="10.00">GUIInspectGARun</text>
</a>
</g>
</g>
<!-- Node15&#45;&gt;Node16 -->
<g id="edge16" class="edge">
<title>Node15&#45;&gt;Node16</title>
<path fill="none" stroke="midnightblue" d="M792.15,-419.08C774.65,-419.67 756.79,-420.28 740.13,-420.85"/>
<polygon fill="midnightblue" stroke="midnightblue" points="792.52,-422.57 802.39,-418.73 792.28,-415.57 792.52,-422.57"/>
</g>
<!-- Node18 -->
<g id="node18" class="node">
<title>Node18</title>
<g id="a_node18"><a xlink:href="classdenoptim_1_1gui_1_1_main_tool_bar.html#a0df9ca063352fbc50f9476f3b2820926" target="_top" xlink:title="Initialize the contents of the tool bar.">
<polygon fill="white" stroke="black" points="357,-343 357,-362 522,-362 522,-343 357,-343"/>
<text text-anchor="middle" x="439.5" y="-350" font-family="Helvetica,sans-Serif" font-size="10.00">denoptim.gui.MainToolBar.initialize</text>
</a>
</g>
</g>
<!-- Node17&#45;&gt;Node18 -->
<g id="edge18" class="edge">
<title>Node17&#45;&gt;Node18</title>
<path fill="none" stroke="midnightblue" d="M839.46,-363.02C810.49,-357.5 778.58,-351.8 764,-350.5 672.81,-342.37 649.55,-349.72 558,-350.5 546.37,-350.6 534.1,-350.75 522.04,-350.93"/>
<polygon fill="midnightblue" stroke="midnightblue" points="839.07,-366.51 849.55,-364.95 840.39,-359.63 839.07,-366.51"/>
</g>
<!-- Node20 -->
<g id="node20" class="node">
<title>Node20</title>
<g id="a_node20"><a xlink:href="classdenoptim_1_1gui_1_1_g_u_i.html#a460fa99497f04de06d2adf8671a92441" target="_top" xlink:title="Launch the application.">
<polygon fill="white" stroke="black" points="607.5,-283 607.5,-302 714.5,-302 714.5,-283 607.5,-283"/>
<text text-anchor="middle" x="661" y="-290" font-family="Helvetica,sans-Serif" font-size="10.00">denoptim.gui.GUI.run</text>
</a>
</g>
</g>
<!-- Node17&#45;&gt;Node20 -->
<g id="edge20" class="edge">
<title>Node17&#45;&gt;Node20</title>
<path fill="none" stroke="midnightblue" d="M812.59,-361.46C808.23,-359.71 804.01,-357.73 800,-355.5 779.4,-344.01 784.37,-328.39 764,-316.5 749.07,-307.79 731.18,-302.24 714.57,-298.7"/>
<polygon fill="midnightblue" stroke="midnightblue" points="811.7,-364.86 822.3,-364.92 814.06,-358.26 811.7,-364.86"/>
</g>
<!-- Node21 -->
<g id="node21" class="node">
<title>Node21</title>
<g id="a_node21"><a xlink:href="classdenoptim_1_1gui_1_1_main_tool_bar.html#a94df24e485081c9b9d7441387f409e26" target="_top" xlink:title="Updated the the list of recent files in the &quot;open Recent&quot; menu.">
<polygon fill="white" stroke="black" points="581,-359.5 581,-389.5 741,-389.5 741,-359.5 581,-359.5"/>
<text text-anchor="start" x="589" y="-377.5" font-family="Helvetica,sans-Serif" font-size="10.00">denoptim.gui.MainToolBar.update</text>
<text text-anchor="middle" x="661" y="-366.5" font-family="Helvetica,sans-Serif" font-size="10.00">OpenRecentMenu</text>
</a>
</g>
</g>
<!-- Node17&#45;&gt;Node21 -->
<g id="edge21" class="edge">
<title>Node17&#45;&gt;Node21</title>
<path fill="none" stroke="midnightblue" d="M804.63,-374.5C783.69,-374.5 761.65,-374.5 741.33,-374.5"/>
<polygon fill="midnightblue" stroke="midnightblue" points="804.8,-378 814.8,-374.5 804.8,-371 804.8,-378"/>
</g>
<!-- Node19 -->
<g id="node19" class="node">
<title>Node19</title>
<g id="a_node19"><a xlink:href="classdenoptim_1_1gui_1_1_main_tool_bar.html#a36f4409849998e032342f49b19e6c5b5" target="_top" xlink:title="Constructor that build the tool bar.">
<polygon fill="white" stroke="black" points="190,-337.5 190,-367.5 321,-367.5 321,-337.5 190,-337.5"/>
<text text-anchor="start" x="198" y="-355.5" font-family="Helvetica,sans-Serif" font-size="10.00">denoptim.gui.MainToolBar.</text>
<text text-anchor="middle" x="255.5" y="-344.5" font-family="Helvetica,sans-Serif" font-size="10.00">MainToolBar</text>
</a>
</g>
</g>
<!-- Node18&#45;&gt;Node19 -->
<g id="edge19" class="edge">
<title>Node18&#45;&gt;Node19</title>
<path fill="none" stroke="midnightblue" d="M346.66,-352.5C337.99,-352.5 329.34,-352.5 321,-352.5"/>
<polygon fill="midnightblue" stroke="midnightblue" points="346.82,-356 356.82,-352.5 346.82,-349 346.82,-356"/>
</g>
<!-- Node21&#45;&gt;Node18 -->
<g id="edge22" class="edge">
<title>Node21&#45;&gt;Node18</title>
<path fill="none" stroke="midnightblue" d="M570.38,-365.52C554.44,-363.92 537.92,-362.26 522.21,-360.69"/>
<polygon fill="midnightblue" stroke="midnightblue" points="570.46,-369.04 580.76,-366.56 571.15,-362.08 570.46,-369.04"/>
</g>
<!-- Node22&#45;&gt;Node5 -->
<g id="edge24" class="edge">
<title>Node22&#45;&gt;Node5</title>
<path fill="none" stroke="midnightblue" d="M810.77,-776.3C785.48,-771.57 758.15,-766.46 733.89,-761.93"/>
<polygon fill="midnightblue" stroke="midnightblue" points="810.24,-779.76 820.71,-778.15 811.53,-772.88 810.24,-779.76"/>
</g>
<!-- Node23&#45;&gt;Node24 -->
<g id="edge26" class="edge">
<title>Node23&#45;&gt;Node24</title>
<path fill="none" stroke="midnightblue" d="M1023.22,-330.5C1012.67,-330.5 1002.03,-330.5 991.64,-330.5"/>
<polygon fill="midnightblue" stroke="midnightblue" points="1023.29,-334 1033.29,-330.5 1023.29,-327 1023.29,-334"/>
</g>
<!-- Node25&#45;&gt;Node6 -->
<g id="edge28" class="edge">
<title>Node25&#45;&gt;Node6</title>
<path fill="none" stroke="midnightblue" d="M1045.83,-678.42C1023.13,-682.46 998.67,-686.82 976.37,-690.8"/>
<polygon fill="midnightblue" stroke="midnightblue" points="1046.55,-681.84 1055.78,-676.64 1045.32,-674.95 1046.55,-681.84"/>
</g>
<!-- Node25&#45;&gt;Node7 -->
<g id="edge29" class="edge">
<title>Node25&#45;&gt;Node7</title>
<path fill="none" stroke="midnightblue" d="M1058.73,-645.96C1027.2,-638.15 990.43,-629.03 960.17,-621.54"/>
<polygon fill="midnightblue" stroke="midnightblue" points="1058.22,-649.44 1068.77,-648.45 1059.9,-642.65 1058.22,-649.44"/>
</g>
<!-- Node26 -->
<g id="node26" class="node">
<title>Node26</title>
<g id="a_node26"><a xlink:href="classdenoptim_1_1combinatorial_1_1_graph_building_task.html#a6b74fb1e5678145e094259bfa2401bd4" target="_top" xlink:title=" ">
<polygon fill="white" stroke="black" points="810.5,-640.5 810.5,-670.5 986.5,-670.5 986.5,-640.5 810.5,-640.5"/>
<text text-anchor="start" x="818.5" y="-658.5" font-family="Helvetica,sans-Serif" font-size="10.00">denoptim.combinatorial.Graph</text>
<text text-anchor="middle" x="898.5" y="-647.5" font-family="Helvetica,sans-Serif" font-size="10.00">BuildingTask.sendToFitnessProvider</text>
</a>
</g>
</g>
<!-- Node25&#45;&gt;Node26 -->
<g id="edge30" class="edge">
<title>Node25&#45;&gt;Node26</title>
<path fill="none" stroke="midnightblue" d="M1045.6,-660.58C1026.48,-659.92 1006.12,-659.21 986.86,-658.54"/>
<polygon fill="midnightblue" stroke="midnightblue" points="1045.66,-664.09 1055.78,-660.94 1045.91,-657.09 1045.66,-664.09"/>
</g>
<!-- Node26&#45;&gt;Node5 -->
<g id="edge31" class="edge">
<title>Node26&#45;&gt;Node5</title>
<path fill="none" stroke="midnightblue" d="M821.23,-673.43C813.99,-675.61 806.82,-677.98 800,-680.5 759.8,-695.38 715.76,-718.33 688.5,-733.38"/>
<polygon fill="midnightblue" stroke="midnightblue" points="822.49,-676.71 831.11,-670.55 820.53,-669.98 822.49,-676.71"/>
</g>
<!-- Node28 -->
<g id="node28" class="node">
<title>Node28</title>
<g id="a_node28"><a xlink:href="classdenoptim_1_1programs_1_1genetweeker_1_1_gene_ops_runner.html#a3c2407eb1204a7b25600d3d347d98447" target="_top" xlink:title=" ">
<polygon fill="white" stroke="black" points="819,-266.5 819,-296.5 978,-296.5 978,-266.5 819,-266.5"/>
<text text-anchor="start" x="827" y="-284.5" font-family="Helvetica,sans-Serif" font-size="10.00">denoptim.programs.genetweeker.</text>
<text text-anchor="middle" x="898.5" y="-273.5" font-family="Helvetica,sans-Serif" font-size="10.00">GeneOpsRunner.runProgram</text>
</a>
</g>
</g>
<!-- Node27&#45;&gt;Node28 -->
<g id="edge33" class="edge">
<title>Node27&#45;&gt;Node28</title>
<path fill="none" stroke="midnightblue" d="M1040.93,-281.5C1020.22,-281.5 998.29,-281.5 978.05,-281.5"/>
<polygon fill="midnightblue" stroke="midnightblue" points="1040.99,-285 1050.99,-281.5 1040.99,-278 1040.99,-285"/>
</g>
<!-- Node29&#45;&gt;Node28 -->
<g id="edge35" class="edge">
<title>Node29&#45;&gt;Node28</title>
<path fill="none" stroke="midnightblue" d="M1048.83,-249.69C1023.11,-255.16 994.87,-261.18 969.94,-266.49"/>
<polygon fill="midnightblue" stroke="midnightblue" points="1049.88,-253.04 1058.93,-247.53 1048.42,-246.2 1049.88,-253.04"/>
</g>
<!-- Node31 -->
<g id="node31" class="node">
<title>Node31</title>
<g id="a_node31"><a xlink:href="classdenoptim_1_1ga_1_1_e_a_utils.html#a8122818f58919fce84dce75e7506025a" target="_top" xlink:title=" ">
<polygon fill="white" stroke="black" points="835,-217.5 835,-247.5 962,-247.5 962,-217.5 835,-217.5"/>
<text text-anchor="start" x="843" y="-235.5" font-family="Helvetica,sans-Serif" font-size="10.00">denoptim.ga.EAUtils.build</text>
<text text-anchor="middle" x="898.5" y="-224.5" font-family="Helvetica,sans-Serif" font-size="10.00">CandidateByMutation</text>
</a>
</g>
</g>
<!-- Node30&#45;&gt;Node31 -->
<g id="edge37" class="edge">
<title>Node30&#45;&gt;Node31</title>
<path fill="none" stroke="midnightblue" d="M1054.83,-199.41C1024.88,-205.79 990.74,-213.06 962.11,-219.16"/>
<polygon fill="midnightblue" stroke="midnightblue" points="1055.77,-202.79 1064.82,-197.28 1054.31,-195.94 1055.77,-202.79"/>
</g>
<!-- Node38 -->
<g id="node38" class="node">
<title>Node38</title>
<g id="a_node38"><a xlink:href="classdenoptim_1_1ga_1_1_e_a_utils.html#ad3d2daeb11e68a356e971ca1846596b5" target="_top" xlink:title=" ">
<polygon fill="white" stroke="black" points="835,-168.5 835,-198.5 962,-198.5 962,-168.5 835,-168.5"/>
<text text-anchor="start" x="843" y="-186.5" font-family="Helvetica,sans-Serif" font-size="10.00">denoptim.ga.EAUtils.build</text>
<text text-anchor="middle" x="898.5" y="-175.5" font-family="Helvetica,sans-Serif" font-size="10.00">CandidateFromScratch</text>
</a>
</g>
</g>
<!-- Node30&#45;&gt;Node38 -->
<g id="edge45" class="edge">
<title>Node30&#45;&gt;Node38</title>
<path fill="none" stroke="midnightblue" d="M1054.44,-183.5C1024.58,-183.5 990.61,-183.5 962.11,-183.5"/>
<polygon fill="midnightblue" stroke="midnightblue" points="1054.82,-187 1064.82,-183.5 1054.82,-180 1054.82,-187"/>
</g>
<!-- Node40 -->
<g id="node40" class="node">
<title>Node40</title>
<g id="a_node40"><a xlink:href="classdenoptim_1_1ga_1_1_e_a_utils.html#a0b958439d79fae30f14530213ad22e3a" target="_top" xlink:title="Generates up to a pair of new offspring by performing a crossover operation.">
<polygon fill="white" stroke="black" points="835,-119.5 835,-149.5 962,-149.5 962,-119.5 835,-119.5"/>
<text text-anchor="start" x="843" y="-137.5" font-family="Helvetica,sans-Serif" font-size="10.00">denoptim.ga.EAUtils.build</text>
<text text-anchor="middle" x="898.5" y="-126.5" font-family="Helvetica,sans-Serif" font-size="10.00">CandidatesByXOver</text>
</a>
</g>
</g>
<!-- Node30&#45;&gt;Node40 -->
<g id="edge50" class="edge">
<title>Node30&#45;&gt;Node40</title>
<path fill="none" stroke="midnightblue" d="M1054.83,-167.59C1024.88,-161.21 990.74,-153.94 962.11,-147.84"/>
<polygon fill="midnightblue" stroke="midnightblue" points="1054.31,-171.06 1064.82,-169.72 1055.77,-164.21 1054.31,-171.06"/>
</g>
<!-- Node32 -->
<g id="node32" class="node">
<title>Node32</title>
<g id="a_node32"><a xlink:href="classdenoptim_1_1ga_1_1_evolutionary_algorithm.html#a0c2e353b243250b4959a3f86608f1020" target="_top" xlink:title="Generates one offspring according to the method where crossover and mutation are decoupled,...">
<polygon fill="white" stroke="black" points="596,-168.5 596,-198.5 726,-198.5 726,-168.5 596,-168.5"/>
<text text-anchor="start" x="604" y="-186.5" font-family="Helvetica,sans-Serif" font-size="10.00">denoptim.ga.Evolutionary</text>
<text text-anchor="middle" x="661" y="-175.5" font-family="Helvetica,sans-Serif" font-size="10.00">Algorithm.makeOffspringA</text>
</a>
</g>
</g>
<!-- Node31&#45;&gt;Node32 -->
<g id="edge38" class="edge">
<title>Node31&#45;&gt;Node32</title>
<path fill="none" stroke="midnightblue" d="M824.67,-217.35C793.21,-210.8 756.71,-203.21 726.27,-196.87"/>
<polygon fill="midnightblue" stroke="midnightblue" points="824.2,-220.82 834.7,-219.43 825.62,-213.97 824.2,-220.82"/>
</g>
<!-- Node37 -->
<g id="node37" class="node">
<title>Node37</title>
<g id="a_node37"><a xlink:href="classdenoptim_1_1ga_1_1_evolutionary_algorithm.html#ae7a90a911b109ed47b3acf54193acc35" target="_top" xlink:title="Generates one offspring according to the method where crossover and mutation are coupled,...">
<polygon fill="white" stroke="black" points="596,-217.5 596,-247.5 726,-247.5 726,-217.5 596,-217.5"/>
<text text-anchor="start" x="604" y="-235.5" font-family="Helvetica,sans-Serif" font-size="10.00">denoptim.ga.Evolutionary</text>
<text text-anchor="middle" x="661" y="-224.5" font-family="Helvetica,sans-Serif" font-size="10.00">Algorithm.makeOffspringB</text>
</a>
</g>
</g>
<!-- Node31&#45;&gt;Node37 -->
<g id="edge43" class="edge">
<title>Node31&#45;&gt;Node37</title>
<path fill="none" stroke="midnightblue" d="M824.67,-232.5C793.21,-232.5 756.71,-232.5 726.27,-232.5"/>
<polygon fill="midnightblue" stroke="midnightblue" points="824.7,-236 834.7,-232.5 824.7,-229 824.7,-236"/>
</g>
<!-- Node33 -->
<g id="node33" class="node">
<title>Node33</title>
<g id="a_node33"><a xlink:href="classdenoptim_1_1ga_1_1_evolutionary_algorithm.html#a596b2f5f0b097c5b67a6e5163bd6fe66" target="_top" xlink:title="Generates a given number of new candidate items and adds them to the current population.">
<polygon fill="white" stroke="black" points="372.5,-173.5 372.5,-203.5 506.5,-203.5 506.5,-173.5 372.5,-173.5"/>
<text text-anchor="start" x="380.5" y="-191.5" font-family="Helvetica,sans-Serif" font-size="10.00">denoptim.ga.Evolutionary</text>
<text text-anchor="middle" x="439.5" y="-180.5" font-family="Helvetica,sans-Serif" font-size="10.00">Algorithm.evolvePopulation</text>
</a>
</g>
</g>
<!-- Node32&#45;&gt;Node33 -->
<g id="edge39" class="edge">
<title>Node32&#45;&gt;Node33</title>
<path fill="none" stroke="midnightblue" d="M585.86,-185.19C560.17,-185.77 531.56,-186.43 506.56,-187"/>
<polygon fill="midnightblue" stroke="midnightblue" points="586,-188.69 595.92,-184.96 585.84,-181.69 586,-188.69"/>
</g>
<!-- Node34 -->
<g id="node34" class="node">
<title>Node34</title>
<g id="a_node34"><a xlink:href="classdenoptim_1_1ga_1_1_evolutionary_algorithm.html#a6bfc2fa59b199da6259b5b6bad3d6de7" target="_top" xlink:title=" ">
<polygon fill="white" stroke="black" points="193.5,-149.5 193.5,-179.5 317.5,-179.5 317.5,-149.5 193.5,-149.5"/>
<text text-anchor="start" x="201.5" y="-167.5" font-family="Helvetica,sans-Serif" font-size="10.00">denoptim.ga.Evolutionary</text>
<text text-anchor="middle" x="255.5" y="-156.5" font-family="Helvetica,sans-Serif" font-size="10.00">Algorithm.run</text>
</a>
</g>
</g>
<!-- Node33&#45;&gt;Node34 -->
<g id="edge40" class="edge">
<title>Node33&#45;&gt;Node34</title>
<path fill="none" stroke="midnightblue" d="M362.09,-178.42C347.22,-176.46 331.82,-174.43 317.53,-172.55"/>
<polygon fill="midnightblue" stroke="midnightblue" points="361.91,-181.93 372.28,-179.77 362.82,-174.99 361.91,-181.93"/>
</g>
<!-- Node35 -->
<g id="node35" class="node">
<title>Node35</title>
<g id="a_node35"><a xlink:href="classdenoptim_1_1ga_1_1_evolutionary_algorithm.html#a0f2063b722b7291daf83d62acaa683d3" target="_top" xlink:title=" ">
<polygon fill="white" stroke="black" points="0,-174.5 0,-204.5 154,-204.5 154,-174.5 0,-174.5"/>
<text text-anchor="start" x="8" y="-192.5" font-family="Helvetica,sans-Serif" font-size="10.00">denoptim.ga.Evolutionary</text>
<text text-anchor="middle" x="77" y="-181.5" font-family="Helvetica,sans-Serif" font-size="10.00">Algorithm.EvolutionaryAlgorithm</text>
</a>
</g>
</g>
<!-- Node34&#45;&gt;Node35 -->
<g id="edge41" class="edge">
<title>Node34&#45;&gt;Node35</title>
<path fill="none" stroke="midnightblue" d="M183.34,-174.58C173.7,-175.94 163.78,-177.35 154.06,-178.73"/>
<polygon fill="midnightblue" stroke="midnightblue" points="183.85,-178.04 193.26,-173.17 182.87,-171.11 183.85,-178.04"/>
</g>
<!-- Node36 -->
<g id="node36" class="node">
<title>Node36</title>
<g id="a_node36"><a xlink:href="classdenoptim_1_1programs_1_1denovo_1_1_g_a_runner.html#a7cafd6d78727b89dce3e2c8d06f0dd7c" target="_top" xlink:title=" ">
<polygon fill="white" stroke="black" points="9.5,-125.5 9.5,-155.5 144.5,-155.5 144.5,-125.5 9.5,-125.5"/>
<text text-anchor="start" x="17.5" y="-143.5" font-family="Helvetica,sans-Serif" font-size="10.00">denoptim.programs.denovo.</text>
<text text-anchor="middle" x="77" y="-132.5" font-family="Helvetica,sans-Serif" font-size="10.00">GARunner.runProgram</text>
</a>
</g>
</g>
<!-- Node34&#45;&gt;Node36 -->
<g id="edge42" class="edge">
<title>Node34&#45;&gt;Node36</title>
<path fill="none" stroke="midnightblue" d="M183.16,-154.8C170.41,-153.07 157.16,-151.26 144.55,-149.55"/>
<polygon fill="midnightblue" stroke="midnightblue" points="182.88,-158.29 193.26,-156.17 183.83,-151.36 182.88,-158.29"/>
</g>
<!-- Node37&#45;&gt;Node33 -->
<g id="edge44" class="edge">
<title>Node37&#45;&gt;Node33</title>
<path fill="none" stroke="midnightblue" d="M585.86,-217.64C560.17,-212.49 531.56,-206.75 506.56,-201.74"/>
<polygon fill="midnightblue" stroke="midnightblue" points="585.43,-221.12 595.92,-219.66 586.8,-214.26 585.43,-221.12"/>
</g>
<!-- Node38&#45;&gt;Node32 -->
<g id="edge48" class="edge">
<title>Node38&#45;&gt;Node32</title>
<path fill="none" stroke="midnightblue" d="M824.67,-183.5C793.21,-183.5 756.71,-183.5 726.27,-183.5"/>
<polygon fill="midnightblue" stroke="midnightblue" points="824.7,-187 834.7,-183.5 824.7,-180 824.7,-187"/>
</g>
<!-- Node38&#45;&gt;Node37 -->
<g id="edge49" class="edge">
<title>Node38&#45;&gt;Node37</title>
<path fill="none" stroke="midnightblue" d="M824.67,-198.65C793.21,-205.2 756.71,-212.79 726.27,-219.13"/>
<polygon fill="midnightblue" stroke="midnightblue" points="825.62,-202.03 834.7,-196.57 824.2,-195.18 825.62,-202.03"/>
</g>
<!-- Node39 -->
<g id="node39" class="node">
<title>Node39</title>
<g id="a_node39"><a xlink:href="classdenoptim_1_1ga_1_1_evolutionary_algorithm.html#ad43588620dab3340e0d8b0042ec73618" target="_top" xlink:title="Fills up the population with candidates build from scratch.">
<polygon fill="white" stroke="black" points="369.5,-124.5 369.5,-154.5 509.5,-154.5 509.5,-124.5 369.5,-124.5"/>
<text text-anchor="start" x="377.5" y="-142.5" font-family="Helvetica,sans-Serif" font-size="10.00">denoptim.ga.Evolutionary</text>
<text text-anchor="middle" x="439.5" y="-131.5" font-family="Helvetica,sans-Serif" font-size="10.00">Algorithm.initializePopulation</text>
</a>
</g>
</g>
<!-- Node38&#45;&gt;Node39 -->
<g id="edge46" class="edge">
<title>Node38&#45;&gt;Node39</title>
<path fill="none" stroke="midnightblue" d="M825.06,-168.9C805.33,-165.35 783.9,-161.9 764,-159.5 676.71,-148.99 575.46,-143.86 509.81,-141.46"/>
<polygon fill="midnightblue" stroke="midnightblue" points="824.44,-172.34 834.91,-170.7 825.7,-165.46 824.44,-172.34"/>
</g>
<!-- Node39&#45;&gt;Node34 -->
<g id="edge47" class="edge">
<title>Node39&#45;&gt;Node34</title>
<path fill="none" stroke="midnightblue" d="M359.37,-150.37C345.43,-152.28 331.12,-154.25 317.76,-156.08"/>
<polygon fill="midnightblue" stroke="midnightblue" points="360,-153.82 369.43,-148.99 359.05,-146.88 360,-153.82"/>
</g>
<!-- Node44 -->
<g id="node44" class="node">
<title>Node44</title>
<g id="a_node44"><a xlink:href="classdenoptim_1_1gui_1_1_g_u_i_graph_handler.html#ad54901fb2a09953591c971ffc48f3de1" target="_top" xlink:title=" ">
<polygon fill="white" stroke="black" points="811,-520.5 811,-550.5 986,-550.5 986,-520.5 811,-520.5"/>
<text text-anchor="start" x="819" y="-538.5" font-family="Helvetica,sans-Serif" font-size="10.00">denoptim.gui.GUIGraphHandler.save</text>
<text text-anchor="middle" x="898.5" y="-527.5" font-family="Helvetica,sans-Serif" font-size="10.00">UnsavedChanges</text>
</a>
</g>
</g>
<!-- Node43&#45;&gt;Node44 -->
<g id="edge55" class="edge">
<title>Node43&#45;&gt;Node44</title>
<path fill="none" stroke="midnightblue" d="M1044.82,-495.7C1014.6,-503.97 981.39,-513.07 954.34,-520.48"/>
<polygon fill="midnightblue" stroke="midnightblue" points="1045.79,-499.06 1054.51,-493.04 1043.94,-492.31 1045.79,-499.06"/>
</g>
<!-- Node44&#45;&gt;Node11 -->
<g id="edge56" class="edge">
<title>Node44&#45;&gt;Node11</title>
<path fill="none" stroke="midnightblue" d="M800.53,-532.21C785.56,-531.7 770.12,-531.17 755.24,-530.67"/>
<polygon fill="midnightblue" stroke="midnightblue" points="800.7,-535.71 810.81,-532.56 800.94,-528.72 800.7,-535.71"/>
</g>
</g>
</svg>
