<?xml version="1.0" encoding="UTF-8" standalone="no"?>
<!DOCTYPE svg PUBLIC "-//W3C//DTD SVG 1.1//EN"
 "http://www.w3.org/Graphics/SVG/1.1/DTD/svg11.dtd">
<!-- Generated by graphviz version 3.0.0 (20221109.1736)
 -->
<!-- Title: denoptim.utils.MoleculeUtils.makeSameAs Pages: 1 -->
<svg width="1223pt" height="619pt"
 viewBox="0.00 0.00 1223.00 618.50" xmlns="http://www.w3.org/2000/svg" xmlns:xlink="http://www.w3.org/1999/xlink">
<g id="graph0" class="graph" transform="scale(1 1) rotate(0) translate(4 614.5)">
<title>denoptim.utils.MoleculeUtils.makeSameAs</title>
<polygon fill="white" stroke="transparent" points="-4,4 -4,-614.5 1219,-614.5 1219,4 -4,4"/>
<!-- Node1 -->
<g id="node1" class="node">
<title>Node1</title>
<g id="a_node1"><a xlink:title="Constructs a copy of an atom container, i.e., a molecule that reflects the one given in the input arg...">
<polygon fill="#bfbfbf" stroke="black" points="1051,-180 1051,-210 1215,-210 1215,-180 1051,-180"/>
<text text-anchor="start" x="1059" y="-198" font-family="Helvetica,sans-Serif" font-size="10.00">denoptim.utils.MoleculeUtils.make</text>
<text text-anchor="middle" x="1133" y="-187" font-family="Helvetica,sans-Serif" font-size="10.00">SameAs</text>
</a>
</g>
</g>
<!-- Node2 -->
<g id="node2" class="node">
<title>Node2</title>
<g id="a_node2"><a xlink:href="classdenoptim_1_1graph_1_1_candidate.html#a4d09e13c71ce3242ae16c9b7a5eede7a" target="_top" xlink:title="Builds a candidate from the SDF representation of an atom container.">
<polygon fill="white" stroke="black" points="857.5,-425 857.5,-455 988.5,-455 988.5,-425 857.5,-425"/>
<text text-anchor="start" x="865.5" y="-443" font-family="Helvetica,sans-Serif" font-size="10.00">denoptim.graph.Candidate.</text>
<text text-anchor="middle" x="923" y="-432" font-family="Helvetica,sans-Serif" font-size="10.00">Candidate</text>
</a>
</g>
</g>
<!-- Node1&#45;&gt;Node2 -->
<g id="edge1" class="edge">
<title>Node1&#45;&gt;Node2</title>
<path fill="none" stroke="midnightblue" d="M1125.79,-219.94C1113.09,-265.73 1079.7,-363.21 1015,-415 1007.33,-421.14 998.25,-425.78 988.85,-429.28"/>
<polygon fill="midnightblue" stroke="midnightblue" points="1129.19,-220.8 1128.39,-210.23 1122.43,-218.99 1129.19,-220.8"/>
</g>
<!-- Node3 -->
<g id="node3" class="node">
<title>Node3</title>
<g id="a_node3"><a xlink:href="classdenoptim_1_1graph_1_1_candidate.html#a316c1167a95b3ab5159b9ba9e9cbb8b9" target="_top" xlink:title=" ">
<polygon fill="white" stroke="black" points="846,-386.5 846,-405.5 1000,-405.5 1000,-386.5 846,-386.5"/>
<text text-anchor="middle" x="923" y="-393.5" font-family="Helvetica,sans-Serif" font-size="10.00">denoptim.graph.Candidate.clone</text>
</a>
</g>
</g>
<!-- Node1&#45;&gt;Node3 -->
<g id="edge2" class="edge">
<title>Node1&#45;&gt;Node3</title>
<path fill="none" stroke="midnightblue" d="M1123.41,-219.61C1108.17,-259.41 1072.5,-337.43 1015,-377 1009.42,-380.84 1003.21,-383.94 996.75,-386.42"/>
<polygon fill="midnightblue" stroke="midnightblue" points="1126.73,-220.73 1126.92,-210.14 1120.16,-218.3 1126.73,-220.73"/>
</g>
<!-- Node4 -->
<g id="node4" class="node">
<title>Node4</title>
<g id="a_node4"><a xlink:href="classdenoptim_1_1graph_1_1_fragment.html#a3b476687a392e637d2bf2f3b6ccb09a4" target="_top" xlink:title="Returns a deep copy of this fragments.">
<polygon fill="white" stroke="black" points="847,-330.5 847,-349.5 999,-349.5 999,-330.5 847,-330.5"/>
<text text-anchor="middle" x="923" y="-337.5" font-family="Helvetica,sans-Serif" font-size="10.00">denoptim.graph.Fragment.clone</text>
</a>
</g>
</g>
<!-- Node1&#45;&gt;Node4 -->
<g id="edge3" class="edge">
<title>Node1&#45;&gt;Node4</title>
<path fill="none" stroke="midnightblue" d="M1101.81,-216.05C1056.1,-247.91 971.14,-307.14 937.87,-330.33"/>
<polygon fill="midnightblue" stroke="midnightblue" points="1103.93,-218.83 1110.13,-210.24 1099.93,-213.09 1103.93,-218.83"/>
</g>
<!-- Node19 -->
<g id="node19" class="node">
<title>Node19</title>
<g id="a_node19"><a xlink:href="classdenoptim_1_1graph_1_1_template.html#ac7d7400f47d4bad33f3755f1b3d19a3e" target="_top" xlink:title="Returns a deep copy of this template.">
<polygon fill="white" stroke="black" points="847.5,-207.5 847.5,-226.5 998.5,-226.5 998.5,-207.5 847.5,-207.5"/>
<text text-anchor="middle" x="923" y="-214.5" font-family="Helvetica,sans-Serif" font-size="10.00">denoptim.graph.Template.clone</text>
</a>
</g>
</g>
<!-- Node1&#45;&gt;Node19 -->
<g id="edge20" class="edge">
<title>Node1&#45;&gt;Node19</title>
<path fill="none" stroke="midnightblue" d="M1040.81,-204.65C1026.73,-206.13 1012.34,-207.66 998.68,-209.1"/>
<polygon fill="midnightblue" stroke="midnightblue" points="1041.41,-208.1 1050.99,-203.57 1040.67,-201.14 1041.41,-208.1"/>
</g>
<!-- Node22 -->
<g id="node22" class="node">
<title>Node22</title>
<g id="a_node22"><a xlink:href="classdenoptim_1_1utils_1_1_molecule_utils.html#ae0fc307ce14bc73de8cb51459e122392" target="_top" xlink:title="Selects only the atoms that originate from a subgraph of a whole graph that originated the whole mole...">
<polygon fill="white" stroke="black" points="838,-158 838,-188 1008,-188 1008,-158 838,-158"/>
<text text-anchor="start" x="846" y="-176" font-family="Helvetica,sans-Serif" font-size="10.00">denoptim.utils.MoleculeUtils.extract</text>
<text text-anchor="middle" x="923" y="-165" font-family="Helvetica,sans-Serif" font-size="10.00">IACForSubgraph</text>
</a>
</g>
</g>
<!-- Node1&#45;&gt;Node22 -->
<g id="edge25" class="edge">
<title>Node1&#45;&gt;Node22</title>
<path fill="none" stroke="midnightblue" d="M1041.04,-185.38C1030.13,-184.23 1019.03,-183.05 1008.22,-181.91"/>
<polygon fill="midnightblue" stroke="midnightblue" points="1040.67,-188.86 1050.99,-186.43 1041.41,-181.9 1040.67,-188.86"/>
</g>
<!-- Node24 -->
<g id="node24" class="node">
<title>Node24</title>
<g id="a_node24"><a xlink:href="classdenoptim_1_1graph_1_1_fragment.html#aa1cdff6a2da8a5c234a58317c8ac33e6" target="_top" xlink:title="Constructor from an atom container, which has APs only as molecular properties.">
<polygon fill="white" stroke="black" points="859,-109 859,-139 987,-139 987,-109 859,-109"/>
<text text-anchor="start" x="867" y="-127" font-family="Helvetica,sans-Serif" font-size="10.00">denoptim.graph.Fragment.</text>
<text text-anchor="middle" x="923" y="-116" font-family="Helvetica,sans-Serif" font-size="10.00">Fragment</text>
</a>
</g>
</g>
<!-- Node1&#45;&gt;Node24 -->
<g id="edge27" class="edge">
<title>Node1&#45;&gt;Node24</title>
<path fill="none" stroke="midnightblue" d="M1087.26,-176.11C1065.63,-167.32 1039.17,-157.05 1015,-149 1004.58,-145.53 993.39,-142.17 982.53,-139.09"/>
<polygon fill="midnightblue" stroke="midnightblue" points="1085.94,-179.36 1096.52,-179.91 1088.59,-172.88 1085.94,-179.36"/>
</g>
<!-- Node25 -->
<g id="node25" class="node">
<title>Node25</title>
<g id="a_node25"><a xlink:href="classdenoptim_1_1graph_1_1_candidate.html#aa1033981d50358ae3d89dc5def72e1e7" target="_top" xlink:title="Wraps an atom container as a candidate even if a graph is not available.">
<polygon fill="white" stroke="black" points="848,-60 848,-90 998,-90 998,-60 848,-60"/>
<text text-anchor="start" x="856" y="-78" font-family="Helvetica,sans-Serif" font-size="10.00">denoptim.graph.Candidate.from</text>
<text text-anchor="middle" x="923" y="-67" font-family="Helvetica,sans-Serif" font-size="10.00">AtomContainerNoGraph</text>
</a>
</g>
</g>
<!-- Node1&#45;&gt;Node25 -->
<g id="edge28" class="edge">
<title>Node1&#45;&gt;Node25</title>
<path fill="none" stroke="midnightblue" d="M1110.37,-172.71C1088.27,-151.16 1052.05,-119.06 1015,-100 1007.57,-96.18 999.49,-92.89 991.31,-90.07"/>
<polygon fill="midnightblue" stroke="midnightblue" points="1108,-175.29 1117.57,-179.85 1112.93,-170.32 1108,-175.29"/>
</g>
<!-- Node27 -->
<g id="node27" class="node">
<title>Node27</title>
<g id="a_node27"><a xlink:href="classdenoptim_1_1gui_1_1_vertex_as_two_dim_structure_view_panel_1_1_two_dim_structure_panel.html#a92418511f562021844aad4a286d1720d" target="_top" xlink:title=" ">
<polygon fill="white" stroke="black" points="831,-0.5 831,-41.5 1015,-41.5 1015,-0.5 831,-0.5"/>
<text text-anchor="start" x="839" y="-29.5" font-family="Helvetica,sans-Serif" font-size="10.00">denoptim.gui.VertexAsTwo</text>
<text text-anchor="start" x="839" y="-18.5" font-family="Helvetica,sans-Serif" font-size="10.00">DimStructureViewPanel.TwoDim</text>
<text text-anchor="middle" x="923" y="-7.5" font-family="Helvetica,sans-Serif" font-size="10.00">StructurePanel.TwoDimStructurePanel</text>
</a>
</g>
</g>
<!-- Node1&#45;&gt;Node27 -->
<g id="edge30" class="edge">
<title>Node1&#45;&gt;Node27</title>
<path fill="none" stroke="midnightblue" d="M1118.81,-171.1C1099.91,-139 1062.13,-82.26 1015,-50 1010.48,-46.91 1005.62,-44.13 1000.57,-41.64"/>
<polygon fill="midnightblue" stroke="midnightblue" points="1115.82,-172.93 1123.85,-179.84 1121.89,-169.43 1115.82,-172.93"/>
</g>
<!-- Node4&#45;&gt;Node4 -->
<g id="edge4" class="edge">
<title>Node4&#45;&gt;Node4</title>
<path fill="none" stroke="midnightblue" d="M962.28,-356.62C963.65,-362.86 950.56,-368 923,-368 885.47,-368 874.77,-358.46 890.89,-349.61"/>
<polygon fill="midnightblue" stroke="midnightblue" points="964.7,-354.1 955.11,-349.61 959.81,-359.1 964.7,-354.1"/>
</g>
<!-- Node5 -->
<g id="node5" class="node">
<title>Node5</title>
<g id="a_node5"><a xlink:href="classdenoptim_1_1fragmenter_1_1_fragmenter_tools.html#a37c0e44680ec1c54fcff98dae0832a50" target="_top" xlink:title="Chops one chemical structure by applying the given cutting rules.">
<polygon fill="white" stroke="black" points="618.5,-580 618.5,-610 775.5,-610 775.5,-580 618.5,-580"/>
<text text-anchor="start" x="626.5" y="-598" font-family="Helvetica,sans-Serif" font-size="10.00">denoptim.fragmenter.Fragmenter</text>
<text text-anchor="middle" x="697" y="-587" font-family="Helvetica,sans-Serif" font-size="10.00">Tools.fragmentation</text>
</a>
</g>
</g>
<!-- Node4&#45;&gt;Node5 -->
<g id="edge5" class="edge">
<title>Node4&#45;&gt;Node5</title>
<path fill="none" stroke="midnightblue" d="M864.93,-353.17C852.13,-358.61 839.76,-366.26 831,-377 775.58,-444.96 855.15,-507.19 795,-571 789.53,-576.81 782.89,-581.3 775.68,-584.77"/>
<polygon fill="midnightblue" stroke="midnightblue" points="866.2,-356.43 874.29,-349.58 863.7,-349.89 866.2,-356.43"/>
</g>
<!-- Node6 -->
<g id="node6" class="node">
<title>Node6</title>
<g id="a_node6"><a xlink:href="classdenoptim_1_1fragmenter_1_1_clusterable_fragment.html#a1e02c5f6054d5764ff597bd12337345a" target="_top" xlink:title=" ">
<polygon fill="white" stroke="black" points="619,-531 619,-561 775,-561 775,-531 619,-531"/>
<text text-anchor="start" x="627" y="-549" font-family="Helvetica,sans-Serif" font-size="10.00">denoptim.fragmenter.Clusterable</text>
<text text-anchor="middle" x="697" y="-538" font-family="Helvetica,sans-Serif" font-size="10.00">Fragment.getTransformedCopy</text>
</a>
</g>
</g>
<!-- Node4&#45;&gt;Node6 -->
<g id="edge6" class="edge">
<title>Node4&#45;&gt;Node6</title>
<path fill="none" stroke="midnightblue" d="M866.14,-353.22C853.06,-358.67 840.26,-366.32 831,-377 787.52,-427.18 841.97,-475.07 795,-522 789.35,-527.64 782.61,-532.03 775.33,-535.43"/>
<polygon fill="midnightblue" stroke="midnightblue" points="867.55,-356.43 875.67,-349.62 865.07,-349.88 867.55,-356.43"/>
</g>
<!-- Node13 -->
<g id="node13" class="node">
<title>Node13</title>
<g id="a_node13"><a xlink:href="classdenoptim_1_1graph_1_1_fragment_test.html#a0a98792d99861bb6673e66a76ff49d31" target="_top" xlink:title=" ">
<polygon fill="white" stroke="black" points="615,-482 615,-512 779,-512 779,-482 615,-482"/>
<text text-anchor="start" x="623" y="-500" font-family="Helvetica,sans-Serif" font-size="10.00">denoptim.graph.FragmentTest.test</text>
<text text-anchor="middle" x="697" y="-489" font-family="Helvetica,sans-Serif" font-size="10.00">Clone</text>
</a>
</g>
</g>
<!-- Node4&#45;&gt;Node13 -->
<g id="edge14" class="edge">
<title>Node4&#45;&gt;Node13</title>
<path fill="none" stroke="midnightblue" d="M869.27,-353.04C855.41,-358.55 841.44,-366.27 831,-377 799.22,-409.66 829.04,-442.7 795,-473 790.33,-477.15 785.06,-480.61 779.45,-483.49"/>
<polygon fill="midnightblue" stroke="midnightblue" points="870.61,-356.28 878.8,-349.56 868.21,-349.7 870.61,-356.28"/>
</g>
<!-- Node14 -->
<g id="node14" class="node">
<title>Node14</title>
<g id="a_node14"><a xlink:href="classdenoptim_1_1graph_1_1_vertex_test.html#ab36c441c57e9852e2be6d810d80fbc87" target="_top" xlink:title=" ">
<polygon fill="white" stroke="black" points="621.5,-433 621.5,-463 772.5,-463 772.5,-433 621.5,-433"/>
<text text-anchor="start" x="629.5" y="-451" font-family="Helvetica,sans-Serif" font-size="10.00">denoptim.graph.VertexTest.test</text>
<text text-anchor="middle" x="697" y="-440" font-family="Helvetica,sans-Serif" font-size="10.00">Clone</text>
</a>
</g>
</g>
<!-- Node4&#45;&gt;Node14 -->
<g id="edge15" class="edge">
<title>Node4&#45;&gt;Node14</title>
<path fill="none" stroke="midnightblue" d="M877.01,-352.91C861.48,-358.72 844.59,-366.64 831,-377 810.08,-392.96 817.01,-409.58 795,-424 788.11,-428.51 780.43,-432.18 772.5,-435.16"/>
<polygon fill="midnightblue" stroke="midnightblue" points="878.2,-356.21 886.46,-349.57 875.86,-349.61 878.2,-356.21"/>
</g>
<!-- Node15 -->
<g id="node15" class="node">
<title>Node15</title>
<g id="a_node15"><a xlink:href="classdenoptim_1_1fragmenter_1_1_conformer_extractor_task_test.html#a2dc64f375774087fc0b4511384f50bc9" target="_top" xlink:title=" ">
<polygon fill="white" stroke="black" points="600,-373.5 600,-414.5 794,-414.5 794,-373.5 600,-373.5"/>
<text text-anchor="start" x="608" y="-402.5" font-family="Helvetica,sans-Serif" font-size="10.00">denoptim.fragmenter.Conformer</text>
<text text-anchor="start" x="608" y="-391.5" font-family="Helvetica,sans-Serif" font-size="10.00">ExtractorTaskTest.testExtractClusterable</text>
<text text-anchor="middle" x="697" y="-380.5" font-family="Helvetica,sans-Serif" font-size="10.00">Fragments</text>
</a>
</g>
</g>
<!-- Node4&#45;&gt;Node15 -->
<g id="edge16" class="edge">
<title>Node4&#45;&gt;Node15</title>
<path fill="none" stroke="midnightblue" d="M872.4,-351.96C846.17,-358.28 813.23,-366.22 783.07,-373.49"/>
<polygon fill="midnightblue" stroke="midnightblue" points="873.57,-355.28 882.47,-349.53 871.93,-348.47 873.57,-355.28"/>
</g>
<!-- Node16 -->
<g id="node16" class="node">
<title>Node16</title>
<g id="a_node16"><a xlink:href="classdenoptim_1_1fragmenter_1_1_fragment_alignement_test.html#ad46b9a4324bb5b9bbfc08c73de0e1124" target="_top" xlink:title=" ">
<polygon fill="white" stroke="black" points="603,-325 603,-355 791,-355 791,-325 603,-325"/>
<text text-anchor="start" x="611" y="-343" font-family="Helvetica,sans-Serif" font-size="10.00">denoptim.fragmenter.Fragment</text>
<text text-anchor="middle" x="697" y="-332" font-family="Helvetica,sans-Serif" font-size="10.00">AlignementTest.testGetMinimumRMSD</text>
</a>
</g>
</g>
<!-- Node4&#45;&gt;Node16 -->
<g id="edge17" class="edge">
<title>Node4&#45;&gt;Node16</title>
<path fill="none" stroke="midnightblue" d="M836.65,-340C821.82,-340 806.34,-340 791.32,-340"/>
<polygon fill="midnightblue" stroke="midnightblue" points="836.79,-343.5 846.79,-340 836.79,-336.5 836.79,-343.5"/>
</g>
<!-- Node17 -->
<g id="node17" class="node">
<title>Node17</title>
<g id="a_node17"><a xlink:href="classdenoptim_1_1graph_1_1_attachment_point_test.html#af88d30ce68477984fe6179325d1540b2" target="_top" xlink:title=" ">
<polygon fill="white" stroke="black" points="607,-227 607,-257 787,-257 787,-227 607,-227"/>
<text text-anchor="start" x="615" y="-245" font-family="Helvetica,sans-Serif" font-size="10.00">denoptim.graph.Attachment</text>
<text text-anchor="middle" x="697" y="-234" font-family="Helvetica,sans-Serif" font-size="10.00">PointTest.testHasConnectedSrcAtom</text>
</a>
</g>
</g>
<!-- Node4&#45;&gt;Node17 -->
<g id="edge18" class="edge">
<title>Node4&#45;&gt;Node17</title>
<path fill="none" stroke="midnightblue" d="M899.57,-324.6C874.9,-308.29 833.63,-282.74 795,-267 785.82,-263.26 775.92,-259.94 766.07,-257.05"/>
<polygon fill="midnightblue" stroke="midnightblue" points="897.91,-327.71 908.17,-330.37 901.81,-321.89 897.91,-327.71"/>
</g>
<!-- Node18 -->
<g id="node18" class="node">
<title>Node18</title>
<g id="a_node18"><a xlink:href="classdenoptim_1_1graph_1_1_attachment_point_test.html#a4889032266eb87d0f91af8b4e9869360" target="_top" xlink:title=" ">
<polygon fill="white" stroke="black" points="617.5,-276 617.5,-306 776.5,-306 776.5,-276 617.5,-276"/>
<text text-anchor="start" x="625.5" y="-294" font-family="Helvetica,sans-Serif" font-size="10.00">denoptim.graph.Attachment</text>
<text text-anchor="middle" x="697" y="-283" font-family="Helvetica,sans-Serif" font-size="10.00">PointTest.testHasSameSrcAtom</text>
</a>
</g>
</g>
<!-- Node4&#45;&gt;Node18 -->
<g id="edge19" class="edge">
<title>Node4&#45;&gt;Node18</title>
<path fill="none" stroke="midnightblue" d="M868.54,-328.31C838.09,-321.64 799.6,-313.23 766.9,-306.07"/>
<polygon fill="midnightblue" stroke="midnightblue" points="868.03,-331.78 878.54,-330.49 869.52,-324.94 868.03,-331.78"/>
</g>
<!-- Node7 -->
<g id="node7" class="node">
<title>Node7</title>
<g id="a_node7"><a xlink:href="classdenoptim_1_1fragmenter_1_1_fragment_clusterer.html#a1845241fead0bee7fd92feaf6d71e331" target="_top" xlink:title="Once the clustering is done, this method return the list of cluster centroids.">
<polygon fill="white" stroke="black" points="394,-531 394,-561 543,-561 543,-531 394,-531"/>
<text text-anchor="start" x="402" y="-549" font-family="Helvetica,sans-Serif" font-size="10.00">denoptim.fragmenter.Fragment</text>
<text text-anchor="middle" x="468.5" y="-538" font-family="Helvetica,sans-Serif" font-size="10.00">Clusterer.getClusterCentroids</text>
</a>
</g>
</g>
<!-- Node6&#45;&gt;Node7 -->
<g id="edge7" class="edge">
<title>Node6&#45;&gt;Node7</title>
<path fill="none" stroke="midnightblue" d="M608.52,-546C586.88,-546 563.92,-546 543.03,-546"/>
<polygon fill="midnightblue" stroke="midnightblue" points="608.69,-549.5 618.69,-546 608.69,-542.5 608.69,-549.5"/>
</g>
<!-- Node11 -->
<g id="node11" class="node">
<title>Node11</title>
<g id="a_node11"><a xlink:href="classdenoptim_1_1fragmenter_1_1_fragment_clusterer.html#aae37739ae959ab8a85bf01286c5a518e" target="_top" xlink:title="Once the clustering is done, this method return the list of fragments that are nearest to the respect...">
<polygon fill="white" stroke="black" points="374,-580 374,-610 563,-610 563,-580 374,-580"/>
<text text-anchor="start" x="382" y="-598" font-family="Helvetica,sans-Serif" font-size="10.00">denoptim.fragmenter.Fragment</text>
<text text-anchor="middle" x="468.5" y="-587" font-family="Helvetica,sans-Serif" font-size="10.00">Clusterer.getNearestToClusterCentroids</text>
</a>
</g>
</g>
<!-- Node6&#45;&gt;Node11 -->
<g id="edge11" class="edge">
<title>Node6&#45;&gt;Node11</title>
<path fill="none" stroke="midnightblue" d="M616.56,-563.19C591.23,-568.66 563.42,-574.68 538.87,-579.99"/>
<polygon fill="midnightblue" stroke="midnightblue" points="617.47,-566.57 626.5,-561.03 615.99,-559.73 617.47,-566.57"/>
</g>
<!-- Node12 -->
<g id="node12" class="node">
<title>Node12</title>
<g id="a_node12"><a xlink:href="classdenoptim_1_1fragmenter_1_1_clusterable_fragment_test.html#a30be40702849bf4781129bf3dabf88e8" target="_top" xlink:title=" ">
<polygon fill="white" stroke="black" points="374.5,-482 374.5,-512 562.5,-512 562.5,-482 374.5,-482"/>
<text text-anchor="start" x="382.5" y="-500" font-family="Helvetica,sans-Serif" font-size="10.00">denoptim.fragmenter.Clusterable</text>
<text text-anchor="middle" x="468.5" y="-489" font-family="Helvetica,sans-Serif" font-size="10.00">FragmentTest.testGetTransformedCopy</text>
</a>
</g>
</g>
<!-- Node6&#45;&gt;Node12 -->
<g id="edge13" class="edge">
<title>Node6&#45;&gt;Node12</title>
<path fill="none" stroke="midnightblue" d="M616.56,-528.81C591.23,-523.34 563.42,-517.32 538.87,-512.01"/>
<polygon fill="midnightblue" stroke="midnightblue" points="615.99,-532.27 626.5,-530.97 617.47,-525.43 615.99,-532.27"/>
</g>
<!-- Node8 -->
<g id="node8" class="node">
<title>Node8</title>
<g id="a_node8"><a xlink:href="classdenoptim_1_1fragmenter_1_1_conformer_extractor_task.html#aa21ebdf147f5bdb2685f9e775efd0b10" target="_top" xlink:title=" ">
<polygon fill="white" stroke="black" points="186,-580 186,-610 338,-610 338,-580 186,-580"/>
<text text-anchor="start" x="194" y="-598" font-family="Helvetica,sans-Serif" font-size="10.00">denoptim.fragmenter.Conformer</text>
<text text-anchor="middle" x="262" y="-587" font-family="Helvetica,sans-Serif" font-size="10.00">ExtractorTask.call</text>
</a>
</g>
</g>
<!-- Node7&#45;&gt;Node8 -->
<g id="edge8" class="edge">
<title>Node7&#45;&gt;Node8</title>
<path fill="none" stroke="midnightblue" d="M394.87,-563.4C372.24,-568.82 347.5,-574.75 325.63,-579.99"/>
<polygon fill="midnightblue" stroke="midnightblue" points="395.84,-566.77 404.75,-561.03 394.21,-559.96 395.84,-566.77"/>
</g>
<!-- Node10 -->
<g id="node10" class="node">
<title>Node10</title>
<g id="a_node10"><a xlink:href="classdenoptim_1_1fragmenter_1_1_fragment_clusterer_test.html#aa17925160f3f03080e8680c7016fc1c4" target="_top" xlink:title=" ">
<polygon fill="white" stroke="black" points="187.5,-531 187.5,-561 336.5,-561 336.5,-531 187.5,-531"/>
<text text-anchor="start" x="195.5" y="-549" font-family="Helvetica,sans-Serif" font-size="10.00">denoptim.fragmenter.Fragment</text>
<text text-anchor="middle" x="262" y="-538" font-family="Helvetica,sans-Serif" font-size="10.00">ClustererTest.testCluster</text>
</a>
</g>
</g>
<!-- Node7&#45;&gt;Node10 -->
<g id="edge10" class="edge">
<title>Node7&#45;&gt;Node10</title>
<path fill="none" stroke="midnightblue" d="M383.78,-546C368.13,-546 351.89,-546 336.57,-546"/>
<polygon fill="midnightblue" stroke="midnightblue" points="383.96,-549.5 393.96,-546 383.96,-542.5 383.96,-549.5"/>
</g>
<!-- Node9 -->
<g id="node9" class="node">
<title>Node9</title>
<g id="a_node9"><a xlink:href="classdenoptim_1_1programs_1_1fragmenter_1_1_fragmenter.html#aa27df9705e3aed34cc8cb8bc05e6ce85" target="_top" xlink:title=" ">
<polygon fill="white" stroke="black" points="0,-580 0,-610 150,-610 150,-580 0,-580"/>
<text text-anchor="start" x="8" y="-598" font-family="Helvetica,sans-Serif" font-size="10.00">denoptim.programs.fragmenter.</text>
<text text-anchor="middle" x="75" y="-587" font-family="Helvetica,sans-Serif" font-size="10.00">Fragmenter.runProgram</text>
</a>
</g>
</g>
<!-- Node8&#45;&gt;Node9 -->
<g id="edge9" class="edge">
<title>Node8&#45;&gt;Node9</title>
<path fill="none" stroke="midnightblue" d="M175.53,-595C167.1,-595 158.59,-595 150.28,-595"/>
<polygon fill="midnightblue" stroke="midnightblue" points="175.75,-598.5 185.75,-595 175.75,-591.5 175.75,-598.5"/>
</g>
<!-- Node11&#45;&gt;Node8 -->
<g id="edge12" class="edge">
<title>Node11&#45;&gt;Node8</title>
<path fill="none" stroke="midnightblue" d="M363.79,-595C355.14,-595 346.51,-595 338.14,-595"/>
<polygon fill="midnightblue" stroke="midnightblue" points="363.93,-598.5 373.93,-595 363.93,-591.5 363.93,-598.5"/>
</g>
<!-- Node19&#45;&gt;Node17 -->
<g id="edge23" class="edge">
<title>Node19&#45;&gt;Node17</title>
<path fill="none" stroke="midnightblue" d="M837.3,-226.45C820.87,-228.29 803.6,-230.21 787.03,-232.06"/>
<polygon fill="midnightblue" stroke="midnightblue" points="837.86,-229.91 847.41,-225.32 837.08,-222.96 837.86,-229.91"/>
</g>
<!-- Node19&#45;&gt;Node19 -->
<g id="edge21" class="edge">
<title>Node19&#45;&gt;Node19</title>
<path fill="none" stroke="midnightblue" d="M962.28,-233.62C963.65,-239.86 950.56,-245 923,-245 885.47,-245 874.77,-235.46 890.89,-226.61"/>
<polygon fill="midnightblue" stroke="midnightblue" points="964.7,-231.1 955.11,-226.61 959.81,-236.1 964.7,-231.1"/>
</g>
<!-- Node20 -->
<g id="node20" class="node">
<title>Node20</title>
<g id="a_node20"><a xlink:href="classdenoptim_1_1graph_1_1_template_test.html#a72d37b4c24ad896838401b319b1d667e" target="_top" xlink:title=" ">
<polygon fill="white" stroke="black" points="615,-178 615,-208 779,-208 779,-178 615,-178"/>
<text text-anchor="start" x="623" y="-196" font-family="Helvetica,sans-Serif" font-size="10.00">denoptim.graph.TemplateTest.test</text>
<text text-anchor="middle" x="697" y="-185" font-family="Helvetica,sans-Serif" font-size="10.00">Clone</text>
</a>
</g>
</g>
<!-- Node19&#45;&gt;Node20 -->
<g id="edge22" class="edge">
<title>Node19&#45;&gt;Node20</title>
<path fill="none" stroke="midnightblue" d="M837.27,-207.92C818.24,-205.88 798.08,-203.72 779.2,-201.7"/>
<polygon fill="midnightblue" stroke="midnightblue" points="837.1,-211.42 847.41,-209.01 837.84,-204.46 837.1,-211.42"/>
</g>
<!-- Node21 -->
<g id="node21" class="node">
<title>Node21</title>
<g id="a_node21"><a xlink:href="classdenoptim_1_1graph_1_1_template_test.html#a50688358b5a557ee51683082427bdc14" target="_top" xlink:title=" ">
<polygon fill="white" stroke="black" points="615,-129 615,-159 779,-159 779,-129 615,-129"/>
<text text-anchor="start" x="623" y="-147" font-family="Helvetica,sans-Serif" font-size="10.00">denoptim.graph.TemplateTest.test</text>
<text text-anchor="middle" x="697" y="-136" font-family="Helvetica,sans-Serif" font-size="10.00">NestedTemplateCloning</text>
</a>
</g>
</g>
<!-- Node19&#45;&gt;Node21 -->
<g id="edge24" class="edge">
<title>Node19&#45;&gt;Node21</title>
<path fill="none" stroke="midnightblue" d="M847.47,-204.51C841.79,-202.63 836.23,-200.48 831,-198 812.43,-189.21 813.36,-178.22 795,-169 787.31,-165.14 778.96,-161.84 770.5,-159.02"/>
<polygon fill="midnightblue" stroke="midnightblue" points="846.53,-207.88 857.12,-207.41 848.55,-201.18 846.53,-207.88"/>
</g>
<!-- Node23 -->
<g id="node23" class="node">
<title>Node23</title>
<g id="a_node23"><a xlink:href="classdenoptim_1_1fragspace_1_1_fragment_space.html#a32b0be109306e9c81fc830867296bc66" target="_top" xlink:title="Extracts a system of one or more fused rings and adds them to the fragment space if not already prese...">
<polygon fill="white" stroke="black" points="599,-80 599,-110 795,-110 795,-80 599,-80"/>
<text text-anchor="start" x="607" y="-98" font-family="Helvetica,sans-Serif" font-size="10.00">denoptim.fragspace.Fragment</text>
<text text-anchor="middle" x="697" y="-87" font-family="Helvetica,sans-Serif" font-size="10.00">Space.addFusedRingsToFragmentLibrary</text>
</a>
</g>
</g>
<!-- Node22&#45;&gt;Node23 -->
<g id="edge26" class="edge">
<title>Node22&#45;&gt;Node23</title>
<path fill="none" stroke="midnightblue" d="M842.75,-154.31C838.71,-152.67 834.77,-150.91 831,-149 812.66,-139.73 813.36,-129.22 795,-120 787.31,-116.14 778.96,-112.84 770.5,-110.02"/>
<polygon fill="midnightblue" stroke="midnightblue" points="841.71,-157.66 852.3,-157.89 844.17,-151.1 841.71,-157.66"/>
</g>
<!-- Node26 -->
<g id="node26" class="node">
<title>Node26</title>
<g id="a_node26"><a xlink:href="classdenoptim_1_1gui_1_1_molecule_view_panel.html#a747fcea053ce9110f17b68d7674b0b2d" target="_top" xlink:title="Loads a structure in the Jmol viewer.">
<polygon fill="white" stroke="black" points="607,-31 607,-61 787,-61 787,-31 607,-31"/>
<text text-anchor="start" x="615" y="-49" font-family="Helvetica,sans-Serif" font-size="10.00">denoptim.gui.MoleculeView</text>
<text text-anchor="middle" x="697" y="-38" font-family="Helvetica,sans-Serif" font-size="10.00">Panel.loadChemicalStructureFromFile</text>
</a>
</g>
</g>
<!-- Node25&#45;&gt;Node26 -->
<g id="edge29" class="edge">
<title>Node25&#45;&gt;Node26</title>
<path fill="none" stroke="midnightblue" d="M837.6,-64.07C821.16,-61.94 803.86,-59.71 787.26,-57.56"/>
<polygon fill="midnightblue" stroke="midnightblue" points="837.36,-67.57 847.72,-65.38 838.25,-60.63 837.36,-67.57"/>
</g>
</g>
</svg>
