<?xml version="1.0" encoding="UTF-8" standalone="no"?>
<!DOCTYPE svg PUBLIC "-//W3C//DTD SVG 1.1//EN"
 "http://www.w3.org/Graphics/SVG/1.1/DTD/svg11.dtd">
<!-- Generated by graphviz version 3.0.0 (20221109.1736)
 -->
<!-- Title: denoptim.fragspace.APMapFinder.findAllMappings Pages: 1 -->
<!--zoomable 485 -->
<svg id="main" version="1.1" xmlns="http://www.w3.org/2000/svg" xmlns:xlink="http://www.w3.org/1999/xlink" xml:space="preserve" onload="init(evt)">
<style type="text/css"><![CDATA[
.edge:hover path { stroke: red; }
.edge:hover polygon { stroke: red; fill: red; }
]]></style>
<script type="text/javascript"><![CDATA[
var edges = document.getElementsByTagName('g');
if (edges && edges.length) {
  for (var i=0;i<edges.length;i++) {
    if (edges[i].id.substr(0,4)=='edge') {
      edges[i].setAttribute('class','edge');
    }
  }
}
]]></script>
        <defs>
                <circle id="rim" cx="0" cy="0" r="7"/>
                <circle id="rim2" cx="0" cy="0" r="3.5"/>
                <g id="zoomPlus">
                        <use xlink:href="#rim" fill="#404040">
                                <set attributeName="fill" to="#808080" begin="zoomplus.mouseover" end="zoomplus.mouseout"/>
                        </use>
                        <path d="M-4,0h8M0,-4v8" fill="none" stroke="white" stroke-width="1.5" pointer-events="none"/>
                </g>
                <g id="zoomMin">
                        <use xlink:href="#rim" fill="#404040">
                                <set attributeName="fill" to="#808080" begin="zoomminus.mouseover" end="zoomminus.mouseout"/>
                        </use>
                        <path d="M-4,0h8" fill="none" stroke="white" stroke-width="1.5" pointer-events="none"/>
                </g>
                <g id="dirArrow">
                        <path fill="none" stroke="white" stroke-width="1.5" d="M0,-3.0v7 M-2.5,-0.5L0,-3.0L2.5,-0.5"/>
                </g>
               <g id="resetDef">
                       <use xlink:href="#rim2" fill="#404040">
                               <set attributeName="fill" to="#808080" begin="reset.mouseover" end="reset.mouseout"/>
                       </use>
               </g>
        </defs>

<script type="text/javascript">
var viewWidth = 1213;
var viewHeight = 485;
var sectionId = 'dynsection-3';
</script>
<script xlink:href="svgpan.js"/>
<svg id="graph" class="graph">
<g id="viewport">
<title>denoptim.fragspace.APMapFinder.findAllMappings</title>
<polygon fill="white" stroke="transparent" points="-4,4 -4,-480.5 1209,-480.5 1209,4 -4,4"/>
<!-- Node1 -->
<g id="node1" class="node">
<title>Node1</title>
<g id="a_node1"><a xlink:title="Searches for mappings between the AttachmentPoints on the two lists.">
<polygon fill="#bfbfbf" stroke="black" points="0,-254 0,-284 136,-284 136,-254 0,-254"/>
<text text-anchor="start" x="8" y="-272" font-family="Helvetica,sans-Serif" font-size="10.00">denoptim.fragspace.APMap</text>
<text text-anchor="middle" x="68" y="-261" font-family="Helvetica,sans-Serif" font-size="10.00">Finder.findAllMappings</text>
</a>
</g>
</g>
<!-- Node2 -->
<g id="node2" class="node">
<title>Node2</title>
<g id="a_node2"><a xlink:href="classdenoptim_1_1graph_1_1_a_p_mapping.html#a9b9fdac59130cd95e89edd7a74e2b7c5" target="_top" xlink:title="Shallow cloning.">
<polygon fill="white" stroke="black" points="384.5,-450.5 384.5,-469.5 545.5,-469.5 545.5,-450.5 384.5,-450.5"/>
<text text-anchor="middle" x="465" y="-457.5" font-family="Helvetica,sans-Serif" font-size="10.00">denoptim.graph.APMapping.clone</text>
</a>
</g>
</g>
<!-- Node1&#45;&gt;Node2 -->
<g id="edge1" class="edge">
<title>Node1&#45;&gt;Node2</title>
<path fill="none" stroke="midnightblue" d="M76.19,-284.12C90.33,-312.07 124.53,-371.65 172,-401 232.94,-438.68 313.44,-452.86 374.48,-457.93"/>
<polygon fill="midnightblue" stroke="midnightblue" points="374.25,-461.43 384.49,-458.7 374.78,-454.45 374.25,-461.43"/>
</g>
<!-- Node4 -->
<g id="node4" class="node">
<title>Node4</title>
<g id="a_node4"><a xlink:href="classdenoptim_1_1fragspace_1_1_a_p_map_finder.html#a5868844d747acb9bd5331c760a24ff09" target="_top" xlink:title="Compares the AttachmentPoint of two lists searching for all the APs of the second list that are &quot;comp...">
<polygon fill="white" stroke="black" points="174,-254 174,-284 341,-284 341,-254 174,-254"/>
<text text-anchor="start" x="182" y="-272" font-family="Helvetica,sans-Serif" font-size="10.00">denoptim.fragspace.APMap</text>
<text text-anchor="middle" x="257.5" y="-261" font-family="Helvetica,sans-Serif" font-size="10.00">Finder.findMappingCompatibileAPs</text>
</a>
</g>
</g>
<!-- Node1&#45;&gt;Node4 -->
<g id="edge3" class="edge">
<title>Node1&#45;&gt;Node4</title>
<path fill="none" stroke="midnightblue" d="M136.16,-269C145.11,-269 154.42,-269 163.71,-269"/>
<polygon fill="midnightblue" stroke="midnightblue" points="163.77,-272.5 173.77,-269 163.77,-265.5 163.77,-272.5"/>
</g>
<!-- Node22 -->
<g id="node22" class="node">
<title>Node22</title>
<g id="a_node22"><a xlink:href="classdenoptim_1_1fragspace_1_1_fragment_space.html#a3c2e32dc6957ef866770079087cc2513" target="_top" xlink:title="Returns the program&#45;specific randomizer that is associated with this program&#45;specific fragment space.">
<polygon fill="white" stroke="black" points="185,-170 185,-200 330,-200 330,-170 185,-170"/>
<text text-anchor="start" x="193" y="-188" font-family="Helvetica,sans-Serif" font-size="10.00">denoptim.fragspace.Fragment</text>
<text text-anchor="middle" x="257.5" y="-177" font-family="Helvetica,sans-Serif" font-size="10.00">Space.getRandomizer</text>
</a>
</g>
</g>
<!-- Node1&#45;&gt;Node22 -->
<g id="edge25" class="edge">
<title>Node1&#45;&gt;Node22</title>
<path fill="none" stroke="midnightblue" d="M102.52,-253.98C133.62,-240.05 180.05,-219.25 213.8,-204.13"/>
<polygon fill="midnightblue" stroke="midnightblue" points="215.26,-207.31 222.95,-200.03 212.4,-200.92 215.26,-207.31"/>
</g>
<!-- Node24 -->
<g id="node24" class="node">
<title>Node24</title>
<g id="a_node24"><a xlink:href="classdenoptim_1_1utils_1_1_randomizer.html#a1ac7cea6bdf732a6dd69f1a83e591ed5" target="_top" xlink:title="Chooses one member among the given collection.">
<polygon fill="white" stroke="black" points="172,-50 172,-80 343,-80 343,-50 172,-50"/>
<text text-anchor="start" x="180" y="-68" font-family="Helvetica,sans-Serif" font-size="10.00">denoptim.utils.Randomizer.randomly</text>
<text text-anchor="middle" x="257.5" y="-57" font-family="Helvetica,sans-Serif" font-size="10.00">ChooseOne</text>
</a>
</g>
</g>
<!-- Node1&#45;&gt;Node24 -->
<g id="edge27" class="edge">
<title>Node1&#45;&gt;Node24</title>
<path fill="none" stroke="midnightblue" d="M82.79,-254C115.36,-218.56 197.24,-129.48 235.8,-87.52"/>
<polygon fill="midnightblue" stroke="midnightblue" points="238.5,-89.75 242.69,-80.02 233.35,-85.02 238.5,-89.75"/>
</g>
<!-- Node31 -->
<g id="node31" class="node">
<title>Node31</title>
<g id="a_node31"><a xlink:href="classdenoptim_1_1fragspace_1_1_fragment_space_utils.html#ace7d0f68e2dd6f9bedc0d019790a9036" target="_top" xlink:title="Search for all possible combinations of compatible APs.">
<polygon fill="white" stroke="black" points="183.5,-343 183.5,-373 331.5,-373 331.5,-343 183.5,-343"/>
<text text-anchor="start" x="191.5" y="-361" font-family="Helvetica,sans-Serif" font-size="10.00">denoptim.fragspace.Fragment</text>
<text text-anchor="middle" x="257.5" y="-350" font-family="Helvetica,sans-Serif" font-size="10.00">SpaceUtils.recursiveCombiner</text>
</a>
</g>
</g>
<!-- Node1&#45;&gt;Node31 -->
<g id="edge34" class="edge">
<title>Node1&#45;&gt;Node31</title>
<path fill="none" stroke="midnightblue" d="M100.81,-284.1C132.42,-299.1 181.04,-322.18 215.52,-338.55"/>
<polygon fill="midnightblue" stroke="midnightblue" points="214.32,-341.85 224.85,-342.98 217.32,-335.53 214.32,-341.85"/>
</g>
<!-- Node3 -->
<g id="node3" class="node">
<title>Node3</title>
<g id="a_node3"><a xlink:href="classdenoptim_1_1graph_1_1_a_p_mapping.html#a32d3ef2e53f9b39cfeb5661d43b39592" target="_top" xlink:title="Creates a mapping that links no pair of APs.">
<polygon fill="white" stroke="black" points="602,-446 602,-476 739,-476 739,-446 602,-446"/>
<text text-anchor="start" x="610" y="-464" font-family="Helvetica,sans-Serif" font-size="10.00">denoptim.graph.APMapping.</text>
<text text-anchor="middle" x="670.5" y="-453" font-family="Helvetica,sans-Serif" font-size="10.00">APMapping</text>
</a>
</g>
</g>
<!-- Node2&#45;&gt;Node3 -->
<g id="edge2" class="edge">
<title>Node2&#45;&gt;Node3</title>
<path fill="none" stroke="midnightblue" d="M545.55,-460.39C560.68,-460.47 576.49,-460.54 591.57,-460.62"/>
<polygon fill="midnightblue" stroke="midnightblue" points="591.85,-464.12 601.87,-460.67 591.89,-457.12 591.85,-464.12"/>
</g>
<!-- Node5 -->
<g id="node5" class="node">
<title>Node5</title>
<g id="a_node5"><a xlink:href="classdenoptim_1_1graph_1_1_attachment_point.html#a31bed4cb29f6437bf8a888a1dda3fd95" target="_top" xlink:title="Returns the Attachment Point class.">
<polygon fill="white" stroke="black" points="397.5,-401 397.5,-431 532.5,-431 532.5,-401 397.5,-401"/>
<text text-anchor="start" x="405.5" y="-419" font-family="Helvetica,sans-Serif" font-size="10.00">denoptim.graph.Attachment</text>
<text text-anchor="middle" x="465" y="-408" font-family="Helvetica,sans-Serif" font-size="10.00">Point.getAPClass</text>
</a>
</g>
</g>
<!-- Node4&#45;&gt;Node5 -->
<g id="edge4" class="edge">
<title>Node4&#45;&gt;Node5</title>
<path fill="none" stroke="midnightblue" d="M282.6,-284.09C300.62,-296.14 325.12,-314.23 343,-334 363.35,-356.5 354.76,-373.75 379,-392 381.84,-394.14 384.87,-396.09 388.02,-397.86"/>
<polygon fill="midnightblue" stroke="midnightblue" points="386.68,-401.11 397.19,-402.42 389.79,-394.84 386.68,-401.11"/>
</g>
<!-- Node6 -->
<g id="node6" class="node">
<title>Node6</title>
<g id="a_node6"><a xlink:href="classdenoptim_1_1fragspace_1_1_fragment_space.html#a6ea754cecdf39a852284d1dd2045099c" target="_top" xlink:title=" ">
<polygon fill="white" stroke="black" points="379,-352 379,-382 551,-382 551,-352 379,-352"/>
<text text-anchor="start" x="387" y="-370" font-family="Helvetica,sans-Serif" font-size="10.00">denoptim.fragspace.Fragment</text>
<text text-anchor="middle" x="465" y="-359" font-family="Helvetica,sans-Serif" font-size="10.00">Space.getAPClassOfCappingVertex</text>
</a>
</g>
</g>
<!-- Node4&#45;&gt;Node6 -->
<g id="edge5" class="edge">
<title>Node4&#45;&gt;Node6</title>
<path fill="none" stroke="midnightblue" d="M279.29,-284.24C302.56,-300.7 341.9,-326.74 379,-343 383.62,-345.02 388.46,-346.93 393.38,-348.7"/>
<polygon fill="midnightblue" stroke="midnightblue" points="392.32,-352.04 402.92,-351.96 394.59,-345.41 392.32,-352.04"/>
</g>
<!-- Node7 -->
<g id="node7" class="node">
<title>Node7</title>
<g id="a_node7"><a xlink:href="classdenoptim_1_1graph_1_1_vertex.html#a46dadb5fd30f1877db91e97ae55c2dd8" target="_top" xlink:title=" ">
<polygon fill="white" stroke="black" points="401,-303 401,-333 529,-333 529,-303 401,-303"/>
<text text-anchor="start" x="409" y="-321" font-family="Helvetica,sans-Serif" font-size="10.00">denoptim.graph.Vertex.get</text>
<text text-anchor="middle" x="465" y="-310" font-family="Helvetica,sans-Serif" font-size="10.00">BuildingBlockType</text>
</a>
</g>
</g>
<!-- Node4&#45;&gt;Node7 -->
<g id="edge6" class="edge">
<title>Node4&#45;&gt;Node7</title>
<path fill="none" stroke="midnightblue" d="M321.55,-284.03C343.55,-289.28 368.41,-295.21 391.13,-300.63"/>
<polygon fill="midnightblue" stroke="midnightblue" points="390.53,-304.08 401.07,-302.99 392.15,-297.27 390.53,-304.08"/>
</g>
<!-- Node8 -->
<g id="node8" class="node">
<title>Node8</title>
<g id="a_node8"><a xlink:href="classdenoptim_1_1graph_1_1_attachment_point.html#adfc2840f3e5126d847c8d800082f8958" target="_top" xlink:title="Gets the attachment point (AP) that is connected to this AP via the edge user or in any edge user tha...">
<polygon fill="white" stroke="black" points="392,-254 392,-284 538,-284 538,-254 392,-254"/>
<text text-anchor="start" x="400" y="-272" font-family="Helvetica,sans-Serif" font-size="10.00">denoptim.graph.Attachment</text>
<text text-anchor="middle" x="465" y="-261" font-family="Helvetica,sans-Serif" font-size="10.00">Point.getLinkedAPThroughout</text>
</a>
</g>
</g>
<!-- Node4&#45;&gt;Node8 -->
<g id="edge7" class="edge">
<title>Node4&#45;&gt;Node8</title>
<path fill="none" stroke="midnightblue" d="M341.2,-269C354.53,-269 368.33,-269 381.65,-269"/>
<polygon fill="midnightblue" stroke="midnightblue" points="381.73,-272.5 391.73,-269 381.73,-265.5 381.73,-272.5"/>
</g>
<!-- Node18 -->
<g id="node18" class="node">
<title>Node18</title>
<g id="a_node18"><a xlink:href="classdenoptim_1_1graph_1_1_attachment_point.html#ac8551521d38644f5109800b665957ee9" target="_top" xlink:title=" ">
<polygon fill="white" stroke="black" points="397.5,-205 397.5,-235 532.5,-235 532.5,-205 397.5,-205"/>
<text text-anchor="start" x="405.5" y="-223" font-family="Helvetica,sans-Serif" font-size="10.00">denoptim.graph.Attachment</text>
<text text-anchor="middle" x="465" y="-212" font-family="Helvetica,sans-Serif" font-size="10.00">Point.getOwner</text>
</a>
</g>
</g>
<!-- Node4&#45;&gt;Node18 -->
<g id="edge21" class="edge">
<title>Node4&#45;&gt;Node18</title>
<path fill="none" stroke="midnightblue" d="M321.55,-253.97C343.55,-248.72 368.41,-242.79 391.13,-237.37"/>
<polygon fill="midnightblue" stroke="midnightblue" points="392.15,-240.73 401.07,-235.01 390.53,-233.92 392.15,-240.73"/>
</g>
<!-- Node19 -->
<g id="node19" class="node">
<title>Node19</title>
<g id="a_node19"><a xlink:href="classdenoptim_1_1graph_1_1_a_p_class.html#a12ddb416c705a90f1e9bccb1b0de2749" target="_top" xlink:title="Check compatibility as defined in the compatibility matrix considering this AP as source and the othe...">
<polygon fill="white" stroke="black" points="398.5,-156 398.5,-186 531.5,-186 531.5,-156 398.5,-156"/>
<text text-anchor="start" x="406.5" y="-174" font-family="Helvetica,sans-Serif" font-size="10.00">denoptim.graph.APClass.is</text>
<text text-anchor="middle" x="465" y="-163" font-family="Helvetica,sans-Serif" font-size="10.00">CPMapCompatibleWith</text>
</a>
</g>
</g>
<!-- Node4&#45;&gt;Node19 -->
<g id="edge22" class="edge">
<title>Node4&#45;&gt;Node19</title>
<path fill="none" stroke="midnightblue" d="M279.78,-253.76C303.17,-237.59 342.3,-212.19 379,-196 384.32,-193.65 389.92,-191.46 395.61,-189.41"/>
<polygon fill="midnightblue" stroke="midnightblue" points="396.89,-192.67 405.22,-186.12 394.62,-186.05 396.89,-192.67"/>
</g>
<!-- Node21 -->
<g id="node21" class="node">
<title>Node21</title>
<g id="a_node21"><a xlink:href="classdenoptim_1_1fragspace_1_1_fragment_space.html#a47b278f84db073b1f06809f9c42cfae5" target="_top" xlink:title="Check usage of APClass&#45;based approach, i.e., uses attachment points with annotated data (i....">
<polygon fill="white" stroke="black" points="381,-107 381,-137 549,-137 549,-107 381,-107"/>
<text text-anchor="start" x="389" y="-125" font-family="Helvetica,sans-Serif" font-size="10.00">denoptim.fragspace.Fragment</text>
<text text-anchor="middle" x="465" y="-114" font-family="Helvetica,sans-Serif" font-size="10.00">Space.useAPclassBasedApproach</text>
</a>
</g>
</g>
<!-- Node4&#45;&gt;Node21 -->
<g id="edge24" class="edge">
<title>Node4&#45;&gt;Node21</title>
<path fill="none" stroke="midnightblue" d="M286.37,-253.87C304.1,-243.27 326.71,-227.83 343,-210 364.75,-186.19 353.7,-167 379,-147 381.32,-145.17 383.77,-143.47 386.32,-141.89"/>
<polygon fill="midnightblue" stroke="midnightblue" points="388.2,-144.86 395.31,-137.01 384.85,-138.71 388.2,-144.86"/>
</g>
<!-- Node9 -->
<g id="node9" class="node">
<title>Node9</title>
<g id="a_node9"><a xlink:href="classdenoptim_1_1graph_1_1_attachment_point.html#aa1ae3c328e8ea24ead206b822daca7f7" target="_top" xlink:title="Gets the edge that is using this AP, or null if no edge is using this AP.">
<polygon fill="white" stroke="black" points="597.5,-379 597.5,-409 743.5,-409 743.5,-379 597.5,-379"/>
<text text-anchor="start" x="605.5" y="-397" font-family="Helvetica,sans-Serif" font-size="10.00">denoptim.graph.Attachment</text>
<text text-anchor="middle" x="670.5" y="-386" font-family="Helvetica,sans-Serif" font-size="10.00">Point.getEdgeUserThroughout</text>
</a>
</g>
</g>
<!-- Node8&#45;&gt;Node9 -->
<g id="edge8" class="edge">
<title>Node8&#45;&gt;Node9</title>
<path fill="none" stroke="midnightblue" d="M535.72,-284.2C541.19,-286.94 546.38,-290.18 551,-294 577.96,-316.29 560.75,-340.87 587,-364 591.47,-367.94 596.5,-371.37 601.81,-374.36"/>
<polygon fill="midnightblue" stroke="midnightblue" points="600.46,-377.61 610.96,-379 603.62,-371.36 600.46,-377.61"/>
</g>
<!-- Node13 -->
<g id="node13" class="node">
<title>Node13</title>
<g id="a_node13"><a xlink:href="classdenoptim_1_1graph_1_1_attachment_point.html#a0e96f6c954de060a628eb3de1b2f4554" target="_top" xlink:title="For vertices that are templates this method returns the attachment point that is embedded in the temp...">
<polygon fill="white" stroke="black" points="817,-253 817,-283 952,-283 952,-253 817,-253"/>
<text text-anchor="start" x="825" y="-271" font-family="Helvetica,sans-Serif" font-size="10.00">denoptim.graph.Attachment</text>
<text text-anchor="middle" x="884.5" y="-260" font-family="Helvetica,sans-Serif" font-size="10.00">Point.getEmbeddedAP</text>
</a>
</g>
</g>
<!-- Node8&#45;&gt;Node13 -->
<g id="edge13" class="edge">
<title>Node8&#45;&gt;Node13</title>
<path fill="none" stroke="midnightblue" d="M530.63,-284.14C537.74,-286.93 544.68,-290.19 551,-294 570.65,-305.85 565.86,-322.07 587,-331 655.38,-359.87 681.67,-347.66 754,-331 789.37,-322.85 826.27,-303.69 851.59,-288.62"/>
<polygon fill="midnightblue" stroke="midnightblue" points="853.64,-291.47 860.37,-283.28 850.01,-285.48 853.64,-291.47"/>
</g>
<!-- Node14 -->
<g id="node14" class="node">
<title>Node14</title>
<g id="a_node14"><a xlink:href="classdenoptim_1_1graph_1_1_edge.html#a658e275a18a50f12474777f5f28c35e9" target="_top" xlink:title=" ">
<polygon fill="white" stroke="black" points="595,-302.5 595,-321.5 746,-321.5 746,-302.5 595,-302.5"/>
<text text-anchor="middle" x="670.5" y="-309.5" font-family="Helvetica,sans-Serif" font-size="10.00">denoptim.graph.Edge.getSrcAP</text>
</a>
</g>
</g>
<!-- Node8&#45;&gt;Node14 -->
<g id="edge15" class="edge">
<title>Node8&#45;&gt;Node14</title>
<path fill="none" stroke="midnightblue" d="M537.17,-284.04C562.55,-289.4 590.72,-295.35 614.52,-300.38"/>
<polygon fill="midnightblue" stroke="midnightblue" points="613.93,-303.83 624.44,-302.48 615.38,-296.99 613.93,-303.83"/>
</g>
<!-- Node15 -->
<g id="node15" class="node">
<title>Node15</title>
<g id="a_node15"><a xlink:href="classdenoptim_1_1graph_1_1_edge.html#a20a0c78541321532267b2fda0a6b634b" target="_top" xlink:title=" ">
<polygon fill="white" stroke="black" points="602,-253 602,-283 739,-283 739,-253 602,-253"/>
<text text-anchor="start" x="610" y="-271" font-family="Helvetica,sans-Serif" font-size="10.00">denoptim.graph.Edge.getSrc</text>
<text text-anchor="middle" x="670.5" y="-260" font-family="Helvetica,sans-Serif" font-size="10.00">APThroughout</text>
</a>
</g>
</g>
<!-- Node8&#45;&gt;Node15 -->
<g id="edge16" class="edge">
<title>Node8&#45;&gt;Node15</title>
<path fill="none" stroke="midnightblue" d="M538.03,-268.65C555.43,-268.56 574.09,-268.47 591.74,-268.38"/>
<polygon fill="midnightblue" stroke="midnightblue" points="592.01,-271.88 601.99,-268.33 591.98,-264.88 592.01,-271.88"/>
</g>
<!-- Node16 -->
<g id="node16" class="node">
<title>Node16</title>
<g id="a_node16"><a xlink:href="classdenoptim_1_1graph_1_1_edge.html#a44521a3ad1a83e5d0a6be227e35ceffa" target="_top" xlink:title=" ">
<polygon fill="white" stroke="black" points="595.5,-214.5 595.5,-233.5 745.5,-233.5 745.5,-214.5 595.5,-214.5"/>
<text text-anchor="middle" x="670.5" y="-221.5" font-family="Helvetica,sans-Serif" font-size="10.00">denoptim.graph.Edge.getTrgAP</text>
</a>
</g>
</g>
<!-- Node8&#45;&gt;Node16 -->
<g id="edge18" class="edge">
<title>Node8&#45;&gt;Node16</title>
<path fill="none" stroke="midnightblue" d="M534.05,-253.95C560.86,-248.02 591.18,-241.32 616.34,-235.76"/>
<polygon fill="midnightblue" stroke="midnightblue" points="617.41,-239.1 626.42,-233.53 615.9,-232.27 617.41,-239.1"/>
</g>
<!-- Node17 -->
<g id="node17" class="node">
<title>Node17</title>
<g id="a_node17"><a xlink:href="classdenoptim_1_1graph_1_1_edge.html#ae5c20718860e84083e008b5bef44e1ae" target="_top" xlink:title=" ">
<polygon fill="white" stroke="black" points="602,-165 602,-195 739,-195 739,-165 602,-165"/>
<text text-anchor="start" x="610" y="-183" font-family="Helvetica,sans-Serif" font-size="10.00">denoptim.graph.Edge.getTrg</text>
<text text-anchor="middle" x="670.5" y="-172" font-family="Helvetica,sans-Serif" font-size="10.00">APThroughout</text>
</a>
</g>
</g>
<!-- Node8&#45;&gt;Node17 -->
<g id="edge19" class="edge">
<title>Node8&#45;&gt;Node17</title>
<path fill="none" stroke="midnightblue" d="M533.42,-253.86C539.57,-251.33 545.53,-248.4 551,-245 571.31,-232.36 566.81,-217.83 587,-205 590.32,-202.89 593.82,-200.96 597.44,-199.17"/>
<polygon fill="midnightblue" stroke="midnightblue" points="598.92,-202.34 606.62,-195.06 596.06,-195.95 598.92,-202.34"/>
</g>
<!-- Node9&#45;&gt;Node9 -->
<g id="edge9" class="edge">
<title>Node9&#45;&gt;Node9</title>
<path fill="none" stroke="midnightblue" d="M634.95,-409.16C626.38,-418.56 638.23,-427.5 670.5,-427.5 690.17,-427.5 702.25,-424.18 706.75,-419.46"/>
<polygon fill="midnightblue" stroke="midnightblue" points="710.22,-418.9 706.05,-409.16 703.23,-419.37 710.22,-418.9"/>
</g>
<!-- Node10 -->
<g id="node10" class="node">
<title>Node10</title>
<g id="a_node10"><a xlink:href="classdenoptim_1_1graph_1_1_vertex.html#a6615f1c869173b8bd6d730c6683b9de4" target="_top" xlink:title="Returns the graph this vertex belongs to or null.">
<polygon fill="white" stroke="black" points="820.5,-403 820.5,-433 948.5,-433 948.5,-403 820.5,-403"/>
<text text-anchor="start" x="828.5" y="-421" font-family="Helvetica,sans-Serif" font-size="10.00">denoptim.graph.Vertex.get</text>
<text text-anchor="middle" x="884.5" y="-410" font-family="Helvetica,sans-Serif" font-size="10.00">GraphOwner</text>
</a>
</g>
</g>
<!-- Node9&#45;&gt;Node10 -->
<g id="edge10" class="edge">
<title>Node9&#45;&gt;Node10</title>
<path fill="none" stroke="midnightblue" d="M743.57,-402.16C765.12,-404.6 788.77,-407.28 810.39,-409.72"/>
<polygon fill="midnightblue" stroke="midnightblue" points="810.16,-413.22 820.49,-410.87 810.95,-406.26 810.16,-413.22"/>
</g>
<!-- Node11 -->
<g id="node11" class="node">
<title>Node11</title>
<g id="a_node11"><a xlink:href="classdenoptim_1_1graph_1_1_template.html#aca9a03a1d6e2fd5de8f859f18996ec62" target="_top" xlink:title=" ">
<polygon fill="white" stroke="black" points="814,-354 814,-384 955,-384 955,-354 814,-354"/>
<text text-anchor="start" x="822" y="-372" font-family="Helvetica,sans-Serif" font-size="10.00">denoptim.graph.Template.get</text>
<text text-anchor="middle" x="884.5" y="-361" font-family="Helvetica,sans-Serif" font-size="10.00">OuterAPFromInnerAP</text>
</a>
</g>
</g>
<!-- Node9&#45;&gt;Node11 -->
<g id="edge11" class="edge">
<title>Node9&#45;&gt;Node11</title>
<path fill="none" stroke="midnightblue" d="M743.57,-385.5C762.89,-383.22 783.89,-380.75 803.6,-378.42"/>
<polygon fill="midnightblue" stroke="midnightblue" points="804.26,-381.87 813.78,-377.22 803.44,-374.92 804.26,-381.87"/>
</g>
<!-- Node12 -->
<g id="node12" class="node">
<title>Node12</title>
<g id="a_node12"><a xlink:href="classdenoptim_1_1graph_1_1_a_p_tree_map.html#abb77efcfaa507592758e7fd4845bdd80" target="_top" xlink:title=" ">
<polygon fill="white" stroke="black" points="1034,-359.5 1034,-378.5 1186,-378.5 1186,-359.5 1034,-359.5"/>
<text text-anchor="middle" x="1110" y="-366.5" font-family="Helvetica,sans-Serif" font-size="10.00">denoptim.graph.APTreeMap.get</text>
</a>
</g>
</g>
<!-- Node11&#45;&gt;Node12 -->
<g id="edge12" class="edge">
<title>Node11&#45;&gt;Node12</title>
<path fill="none" stroke="midnightblue" d="M955.3,-369C976.96,-369 1001.07,-369 1023.66,-369"/>
<polygon fill="midnightblue" stroke="midnightblue" points="1023.92,-372.5 1033.92,-369 1023.92,-365.5 1023.92,-372.5"/>
</g>
<!-- Node13&#45;&gt;Node13 -->
<g id="edge14" class="edge">
<title>Node13&#45;&gt;Node13</title>
<path fill="none" stroke="midnightblue" d="M847.21,-283.16C838.21,-292.56 850.64,-301.5 884.5,-301.5 905.13,-301.5 917.81,-298.18 922.53,-293.46"/>
<polygon fill="midnightblue" stroke="midnightblue" points="925.99,-292.89 921.79,-283.16 919.01,-293.38 925.99,-292.89"/>
</g>
<!-- Node15&#45;&gt;Node13 -->
<g id="edge17" class="edge">
<title>Node15&#45;&gt;Node13</title>
<path fill="none" stroke="midnightblue" d="M739.16,-268C760.7,-268 784.69,-268 806.82,-268"/>
<polygon fill="midnightblue" stroke="midnightblue" points="806.84,-271.5 816.84,-268 806.84,-264.5 806.84,-271.5"/>
</g>
<!-- Node17&#45;&gt;Node13 -->
<g id="edge20" class="edge">
<title>Node17&#45;&gt;Node13</title>
<path fill="none" stroke="midnightblue" d="M725.62,-195.06C735.17,-198.09 744.94,-201.45 754,-205 786.13,-217.59 821.27,-234.92 846.82,-248.22"/>
<polygon fill="midnightblue" stroke="midnightblue" points="845.3,-251.38 855.78,-252.92 848.55,-245.18 845.3,-251.38"/>
</g>
<!-- Node20 -->
<g id="node20" class="node">
<title>Node20</title>
<g id="a_node20"><a xlink:href="classdenoptim_1_1fragspace_1_1_fragment_space.html#ada04f68d55f8ff85345e2a6c6d1ad840" target="_top" xlink:title="Returns a list of APClasses compatible with the given APClass.">
<polygon fill="white" stroke="black" points="591.5,-116 591.5,-146 749.5,-146 749.5,-116 591.5,-116"/>
<text text-anchor="start" x="599.5" y="-134" font-family="Helvetica,sans-Serif" font-size="10.00">denoptim.fragspace.Fragment</text>
<text text-anchor="middle" x="670.5" y="-123" font-family="Helvetica,sans-Serif" font-size="10.00">Space.getCompatibleAPClasses</text>
</a>
</g>
</g>
<!-- Node19&#45;&gt;Node20 -->
<g id="edge23" class="edge">
<title>Node19&#45;&gt;Node20</title>
<path fill="none" stroke="midnightblue" d="M531.51,-158.12C547.92,-154.9 565.79,-151.39 583.05,-147.99"/>
<polygon fill="midnightblue" stroke="midnightblue" points="583.99,-151.38 593.12,-146.01 582.64,-144.51 583.99,-151.38"/>
</g>
<!-- Node23 -->
<g id="node23" class="node">
<title>Node23</title>
<g id="a_node23"><a xlink:href="classdenoptim_1_1programs_1_1_run_time_parameters.html#ad9db6420b91ff13e0a8b2d02402c0242" target="_top" xlink:title="Returns the current program&#45;specific randomizer.">
<polygon fill="white" stroke="black" points="395,-58 395,-88 535,-88 535,-58 395,-58"/>
<text text-anchor="start" x="403" y="-76" font-family="Helvetica,sans-Serif" font-size="10.00">denoptim.programs.RunTime</text>
<text text-anchor="middle" x="465" y="-65" font-family="Helvetica,sans-Serif" font-size="10.00">Parameters.getRandomizer</text>
</a>
</g>
</g>
<!-- Node22&#45;&gt;Node23 -->
<g id="edge26" class="edge">
<title>Node22&#45;&gt;Node23</title>
<path fill="none" stroke="midnightblue" d="M275.65,-169.69C297.98,-150.47 338.92,-117.64 379,-98 383.63,-95.73 388.5,-93.63 393.48,-91.69"/>
<polygon fill="midnightblue" stroke="midnightblue" points="394.95,-94.87 403.13,-88.15 392.54,-88.3 394.95,-94.87"/>
</g>
<!-- Node25 -->
<g id="node25" class="node">
<title>Node25</title>
<g id="a_node25"><a xlink:href="classdenoptim_1_1utils_1_1_randomizer.html#a6949bec32b63f1207da17e0c136a1d58" target="_top" xlink:title="Returns a pseudo&#45;random, uniformly distributed int value between 0 (inclusive) and the specified valu...">
<polygon fill="white" stroke="black" points="384.5,-19.5 384.5,-38.5 545.5,-38.5 545.5,-19.5 384.5,-19.5"/>
<text text-anchor="middle" x="465" y="-26.5" font-family="Helvetica,sans-Serif" font-size="10.00">denoptim.utils.Randomizer.nextInt</text>
</a>
</g>
</g>
<!-- Node24&#45;&gt;Node25 -->
<g id="edge28" class="edge">
<title>Node24&#45;&gt;Node25</title>
<path fill="none" stroke="midnightblue" d="M343.27,-50.15C362.03,-46.86 381.62,-43.43 399.42,-40.31"/>
<polygon fill="midnightblue" stroke="midnightblue" points="400.44,-43.69 409.68,-38.52 399.23,-36.79 400.44,-43.69"/>
</g>
<!-- Node26 -->
<g id="node26" class="node">
<title>Node26</title>
<g id="a_node26"><a xlink:href="classdenoptim_1_1utils_1_1_randomizer.html#a6873dd710cc271ed81bfa45411a62359" target="_top" xlink:title="Returns the random number generator.">
<polygon fill="white" stroke="black" points="587,-38.5 587,-57.5 754,-57.5 754,-38.5 587,-38.5"/>
<text text-anchor="middle" x="670.5" y="-45.5" font-family="Helvetica,sans-Serif" font-size="10.00">denoptim.utils.Randomizer.getRNG</text>
</a>
</g>
</g>
<!-- Node25&#45;&gt;Node26 -->
<g id="edge29" class="edge">
<title>Node25&#45;&gt;Node26</title>
<path fill="none" stroke="midnightblue" d="M545.55,-36.43C555.86,-37.39 566.48,-38.38 576.98,-39.36"/>
<polygon fill="midnightblue" stroke="midnightblue" points="576.7,-42.85 586.98,-40.3 577.35,-35.88 576.7,-42.85"/>
</g>
<!-- Node29 -->
<g id="node29" class="node">
<title>Node29</title>
<g id="a_node29"><a xlink:href="classdenoptim_1_1utils_1_1_randomizer.html#acaa5e386da195d9454fae611ed554c48" target="_top" xlink:title="Utility to debug: writes some log in file &#39;/tmp/rng_debug_log&#39;.">
<polygon fill="white" stroke="black" points="595,-0.5 595,-19.5 746,-19.5 746,-0.5 595,-0.5"/>
<text text-anchor="middle" x="670.5" y="-7.5" font-family="Helvetica,sans-Serif" font-size="10.00">denoptim.utils.Randomizer.print</text>
</a>
</g>
</g>
<!-- Node25&#45;&gt;Node29 -->
<g id="edge32" class="edge">
<title>Node25&#45;&gt;Node29</title>
<path fill="none" stroke="midnightblue" d="M545.55,-21.57C558.4,-20.37 571.73,-19.13 584.69,-17.92"/>
<polygon fill="midnightblue" stroke="midnightblue" points="585.36,-21.37 594.99,-16.96 584.71,-14.4 585.36,-21.37"/>
</g>
<!-- Node27 -->
<g id="node27" class="node">
<title>Node27</title>
<g id="a_node27"><a xlink:href="classdenoptim_1_1utils_1_1_randomizer.html#aaaeda6dedda5664a47a2a9a68194162a" target="_top" xlink:title="Initializes this random number generator (RNG) using a random seed that is generated on&#45;the&#45;fly rando...">
<polygon fill="white" stroke="black" points="790,-38.5 790,-57.5 979,-57.5 979,-38.5 790,-38.5"/>
<text text-anchor="middle" x="884.5" y="-45.5" font-family="Helvetica,sans-Serif" font-size="10.00">denoptim.utils.Randomizer.initialiseRNG</text>
</a>
</g>
</g>
<!-- Node26&#45;&gt;Node27 -->
<g id="edge30" class="edge">
<title>Node26&#45;&gt;Node27</title>
<path fill="none" stroke="midnightblue" d="M754.07,-48C762.51,-48 771.16,-48 779.79,-48"/>
<polygon fill="midnightblue" stroke="midnightblue" points="779.89,-51.5 789.89,-48 779.89,-44.5 779.89,-51.5"/>
</g>
<!-- Node28 -->
<g id="node28" class="node">
<title>Node28</title>
<g id="a_node28"><a xlink:href="classdenoptim_1_1utils_1_1_randomizer.html#ad74f0608d3e2e10caa8873ae059367a7" target="_top" xlink:title=" ">
<polygon fill="white" stroke="black" points="1015,-38.5 1015,-57.5 1205,-57.5 1205,-38.5 1015,-38.5"/>
<text text-anchor="middle" x="1110" y="-45.5" font-family="Helvetica,sans-Serif" font-size="10.00">denoptim.utils.Randomizer.initialiseSeed</text>
</a>
</g>
</g>
<!-- Node27&#45;&gt;Node28 -->
<g id="edge31" class="edge">
<title>Node27&#45;&gt;Node28</title>
<path fill="none" stroke="midnightblue" d="M979.31,-48C987.64,-48 996.09,-48 1004.5,-48"/>
<polygon fill="midnightblue" stroke="midnightblue" points="1004.71,-51.5 1014.71,-48 1004.71,-44.5 1004.71,-51.5"/>
</g>
<!-- Node30 -->
<g id="node30" class="node">
<title>Node30</title>
<g id="a_node30"><a xlink:href="classdenoptim_1_1io_1_1_denoptim_i_o.html#adc7de175de66792f4f37f1661c10e7f8" target="_top" xlink:title="Write text&#45;like data file.">
<polygon fill="white" stroke="black" points="802.5,-0.5 802.5,-19.5 966.5,-19.5 966.5,-0.5 802.5,-0.5"/>
<text text-anchor="middle" x="884.5" y="-7.5" font-family="Helvetica,sans-Serif" font-size="10.00">denoptim.io.DenoptimIO.writeData</text>
</a>
</g>
</g>
<!-- Node29&#45;&gt;Node30 -->
<g id="edge33" class="edge">
<title>Node29&#45;&gt;Node30</title>
<path fill="none" stroke="midnightblue" d="M746.24,-10C761.11,-10 776.87,-10 792.22,-10"/>
<polygon fill="midnightblue" stroke="midnightblue" points="792.23,-13.5 802.23,-10 792.23,-6.5 792.23,-13.5"/>
</g>
<!-- Node31&#45;&gt;Node2 -->
<g id="edge35" class="edge">
<title>Node31&#45;&gt;Node2</title>
<path fill="none" stroke="midnightblue" d="M275.97,-373.3C298.33,-392.06 338.96,-423.52 379,-441 384.73,-443.5 390.83,-445.69 397.02,-447.6"/>
<polygon fill="midnightblue" stroke="midnightblue" points="396.22,-451.01 406.8,-450.38 398.14,-444.28 396.22,-451.01"/>
</g>
<!-- Node31&#45;&gt;Node31 -->
<g id="edge36" class="edge">
<title>Node31&#45;&gt;Node31</title>
<path fill="none" stroke="midnightblue" d="M224.74,-373.16C216.84,-382.56 227.76,-391.5 257.5,-391.5 275.62,-391.5 286.76,-388.18 290.91,-383.46"/>
<polygon fill="midnightblue" stroke="midnightblue" points="294.38,-382.92 290.26,-373.16 287.39,-383.36 294.38,-382.92"/>
</g>
</g>
</svg>
        <g id="navigator" transform="translate(0 0)" fill="#404254">
                <rect fill="#f2f5e9" fill-opacity="0.5" stroke="#606060" stroke-width=".5" x="0" y="0" width="60" height="60"/>
                <use id="zoomplus" xlink:href="#zoomPlus" x="17" y="9" onmousedown="handleZoom(evt,'in')"/>
                <use id="zoomminus" xlink:href="#zoomMin" x="42" y="9" onmousedown="handleZoom(evt,'out')"/>
                <use id="reset" xlink:href="#resetDef" x="30" y="36" onmousedown="handleReset()"/>
                <g id="arrowUp" xlink:href="#dirArrow" transform="translate(30 24)" onmousedown="handlePan(0,-1)">
                  <use xlink:href="#rim" fill="#404040">
                        <set attributeName="fill" to="#808080" begin="arrowUp.mouseover" end="arrowUp.mouseout"/>
                  </use>
                  <path fill="none" stroke="white" stroke-width="1.5" d="M0,-3.0v7 M-2.5,-0.5L0,-3.0L2.5,-0.5"/>
                </g>
                <g id="arrowRight" xlink:href="#dirArrow" transform="rotate(90) translate(36 -43)" onmousedown="handlePan(1,0)">
                  <use xlink:href="#rim" fill="#404040">
                        <set attributeName="fill" to="#808080" begin="arrowRight.mouseover" end="arrowRight.mouseout"/>
                  </use>
                  <path fill="none" stroke="white" stroke-width="1.5" d="M0,-3.0v7 M-2.5,-0.5L0,-3.0L2.5,-0.5"/>
                </g>
                <g id="arrowDown" xlink:href="#dirArrow" transform="rotate(180) translate(-30 -48)" onmousedown="handlePan(0,1)">
                  <use xlink:href="#rim" fill="#404040">
                        <set attributeName="fill" to="#808080" begin="arrowDown.mouseover" end="arrowDown.mouseout"/>
                  </use>
                  <path fill="none" stroke="white" stroke-width="1.5" d="M0,-3.0v7 M-2.5,-0.5L0,-3.0L2.5,-0.5"/>
                </g>
                <g id="arrowLeft" xlink:href="#dirArrow" transform="rotate(270) translate(-36 17)" onmousedown="handlePan(-1,0)">
                  <use xlink:href="#rim" fill="#404040">
                        <set attributeName="fill" to="#808080" begin="arrowLeft.mouseover" end="arrowLeft.mouseout"/>
                  </use>
                  <path fill="none" stroke="white" stroke-width="1.5" d="M0,-3.0v7 M-2.5,-0.5L0,-3.0L2.5,-0.5"/>
                </g>
        </g>
        <svg viewBox="0 0 15 15" width="100%" height="30px" preserveAspectRatio="xMaxYMin meet">
         <g id="arrow_out" transform="scale(0.3 0.3)">
          <a xlink:href="classdenoptim_1_1fragspace_1_1_a_p_map_finder_ae5c8afa4b7defd6ce35df0fa1c5facf2_cgraph_org.svg" target="_base">
           <rect id="button" ry="5" rx="5" y="6" x="6" height="38" width="38"
                fill="#f2f5e9" fill-opacity="0.5" stroke="#606060" stroke-width="1.0"/>
           <path id="arrow"
             d="M 11.500037,31.436501 C 11.940474,20.09759 22.043105,11.32322 32.158766,21.979434 L 37.068811,17.246167 C 37.068811,17.246167 37.088388,32 37.088388,32 L 22.160133,31.978069 C 22.160133,31.978069 26.997745,27.140456 26.997745,27.140456 C 18.528582,18.264221 13.291696,25.230495 11.500037,31.436501 z"
             style="fill:#404040;"/>
          </a>
         </g>
        </svg>
</svg>
