<?xml version="1.0" encoding="UTF-8" standalone="no"?>
<!DOCTYPE svg PUBLIC "-//W3C//DTD SVG 1.1//EN"
 "http://www.w3.org/Graphics/SVG/1.1/DTD/svg11.dtd">
<!-- Generated by graphviz version 3.0.0 (20221109.1736)
 -->
<!-- Title: denoptim.graph.Fragment.containsAtoms Pages: 1 -->
<svg width="567pt" height="39pt"
 viewBox="0.00 0.00 567.00 39.00" xmlns="http://www.w3.org/2000/svg" xmlns:xlink="http://www.w3.org/1999/xlink">
<g id="graph0" class="graph" transform="scale(1 1) rotate(0) translate(4 35)">
<title>denoptim.graph.Fragment.containsAtoms</title>
<polygon fill="white" stroke="transparent" points="-4,4 -4,-35 563,-35 563,4 -4,4"/>
<!-- Node1 -->
<g id="node1" class="node">
<title>Node1</title>
<g id="a_node1"><a xlink:title=" ">
<polygon fill="#bfbfbf" stroke="black" points="394,-0.5 394,-30.5 559,-30.5 559,-0.5 394,-0.5"/>
<text text-anchor="start" x="402" y="-18.5" font-family="Helvetica,sans-Serif" font-size="10.00">denoptim.graph.Fragment.contains</text>
<text text-anchor="middle" x="476.5" y="-7.5" font-family="Helvetica,sans-Serif" font-size="10.00">Atoms</text>
</a>
</g>
</g>
<!-- Node2 -->
<g id="node2" class="node">
<title>Node2</title>
<g id="a_node2"><a xlink:href="classdenoptim_1_1graph_1_1_fragment.html#a1e138d14fa526fe231303f154b936856" target="_top" xlink:title="Compares this and another fragment ignoring vertex IDs.">
<polygon fill="white" stroke="black" points="194,-6 194,-25 358,-25 358,-6 194,-6"/>
<text text-anchor="middle" x="276" y="-13" font-family="Helvetica,sans-Serif" font-size="10.00">denoptim.graph.Fragment.sameAs</text>
</a>
</g>
</g>
<!-- Node1&#45;&gt;Node2 -->
<g id="edge1" class="edge">
<title>Node1&#45;&gt;Node2</title>
<path fill="none" stroke="midnightblue" d="M383.63,-15.5C375.17,-15.5 366.64,-15.5 358.28,-15.5"/>
<polygon fill="midnightblue" stroke="midnightblue" points="383.9,-19 393.9,-15.5 383.9,-12 383.9,-19"/>
</g>
<!-- Node3 -->
<g id="node3" class="node">
<title>Node3</title>
<g id="a_node3"><a xlink:href="classdenoptim_1_1io_1_1_denoptim_i_o_test.html#afa1376c9ab452a7e75cdf00489be1e07" target="_top" xlink:title=" ">
<polygon fill="white" stroke="black" points="0,-0.5 0,-30.5 158,-30.5 158,-0.5 0,-0.5"/>
<text text-anchor="start" x="8" y="-18.5" font-family="Helvetica,sans-Serif" font-size="10.00">denoptim.io.DenoptimIOTest.test</text>
<text text-anchor="middle" x="79" y="-7.5" font-family="Helvetica,sans-Serif" font-size="10.00">IOMolFragment</text>
</a>
</g>
</g>
<!-- Node2&#45;&gt;Node3 -->
<g id="edge2" class="edge">
<title>Node2&#45;&gt;Node3</title>
<path fill="none" stroke="midnightblue" d="M183.96,-15.5C175.36,-15.5 166.7,-15.5 158.25,-15.5"/>
<polygon fill="midnightblue" stroke="midnightblue" points="184,-19 194,-15.5 184,-12 184,-19"/>
</g>
</g>
</svg>
