<?xml version="1.0" encoding="UTF-8" standalone="no"?>
<!DOCTYPE svg PUBLIC "-//W3C//DTD SVG 1.1//EN"
 "http://www.w3.org/Graphics/SVG/1.1/DTD/svg11.dtd">
<!-- Generated by graphviz version 3.0.0 (20221109.1736)
 -->
<!-- Title: denoptim.gui.CompatibilityMatrixForm.CompatibilityRuleLine Pages: 1 -->
<svg width="1098pt" height="377pt"
 viewBox="0.00 0.00 1098.00 377.46" xmlns="http://www.w3.org/2000/svg" xmlns:xlink="http://www.w3.org/1999/xlink">
<g id="graph0" class="graph" transform="scale(1 1) rotate(0) translate(4 373.46)">
<title>denoptim.gui.CompatibilityMatrixForm.CompatibilityRuleLine</title>
<polygon fill="white" stroke="transparent" points="-4,4 -4,-373.46 1094,-373.46 1094,4 -4,4"/>
<!-- Node1 -->
<g id="node1" class="node">
<title>Node1</title>
<g id="a_node1"><a xlink:title="Single line in the list of APClass compatibility rules.">
<polygon fill="#bfbfbf" stroke="black" points="929,-197.98 929,-227.98 1090,-227.98 1090,-197.98 929,-197.98"/>
<text text-anchor="start" x="937" y="-215.98" font-family="Helvetica,sans-Serif" font-size="10.00">denoptim.gui.Compatibility</text>
<text text-anchor="middle" x="1009.5" y="-204.98" font-family="Helvetica,sans-Serif" font-size="10.00">MatrixForm.CompatibilityRuleLine</text>
</a>
</g>
</g>
<!-- Node2 -->
<g id="node2" class="node">
<title>Node2</title>
<g id="a_node2"><a xlink:title=" ">
<polygon fill="white" stroke="black" points="671,-346.48 671,-365.48 718,-365.48 718,-346.48 671,-346.48"/>
<text text-anchor="middle" x="694.5" y="-353.48" font-family="Helvetica,sans-Serif" font-size="10.00">JPanel</text>
</a>
</g>
</g>
<!-- Node2&#45;&gt;Node1 -->
<g id="edge1" class="edge">
<title>Node2&#45;&gt;Node1</title>
<path fill="none" stroke="midnightblue" d="M728.19,-362.75C772.51,-370.15 852.79,-377.2 911,-345.98 959.95,-319.73 990.7,-256.89 1002.73,-227.99"/>
<polygon fill="midnightblue" stroke="midnightblue" points="728.71,-359.28 718.26,-360.98 727.49,-366.18 728.71,-359.28"/>
</g>
<!-- Node2&#45;&gt;Node1 -->
<g id="edge5" class="edge">
<title>Node2&#45;&gt;Node1</title>
<path fill="none" stroke="#9a32cd" stroke-dasharray="5,2" d="M728.13,-347.54C746.29,-342.97 769.33,-337.37 790,-332.98 843.47,-321.63 862.62,-336.41 911,-310.98 949.45,-290.77 982.27,-250.15 998.2,-228.08"/>
<polygon fill="#9a32cd" stroke="#9a32cd" points="727.16,-344.17 718.33,-350.03 728.88,-350.96 727.16,-344.17"/>
<text text-anchor="middle" x="850.5" y="-335.98" font-family="Helvetica,sans-Serif" font-size="10.00"> trgClassesPanel</text>
</g>
<!-- Node3 -->
<g id="node3" class="node">
<title>Node3</title>
<g id="a_node3"><a xlink:title=" ">
<polygon fill="white" stroke="black" points="654,-302.48 654,-321.48 735,-321.48 735,-302.48 654,-302.48"/>
<text text-anchor="middle" x="694.5" y="-309.48" font-family="Helvetica,sans-Serif" font-size="10.00">MouseListener</text>
</a>
</g>
</g>
<!-- Node3&#45;&gt;Node1 -->
<g id="edge2" class="edge">
<title>Node3&#45;&gt;Node1</title>
<path fill="none" stroke="midnightblue" d="M745.19,-312.81C790.05,-311.93 857.08,-306.54 911,-284.98 943.82,-271.86 975.56,-244.95 993.49,-228"/>
<polygon fill="midnightblue" stroke="midnightblue" points="745.08,-309.31 735.13,-312.93 745.17,-316.31 745.08,-309.31"/>
</g>
<!-- Node4 -->
<g id="node4" class="node">
<title>Node4</title>
<g id="a_node4"><a xlink:title=" ">
<polygon fill="white" stroke="black" points="663.5,-264.48 663.5,-283.48 725.5,-283.48 725.5,-264.48 663.5,-264.48"/>
<text text-anchor="middle" x="694.5" y="-271.48" font-family="Helvetica,sans-Serif" font-size="10.00">JTextField</text>
</a>
</g>
</g>
<!-- Node4&#45;&gt;Node1 -->
<g id="edge3" class="edge">
<title>Node4&#45;&gt;Node1</title>
<path fill="none" stroke="#9a32cd" stroke-dasharray="5,2" d="M735.83,-273.55C779.57,-272.27 851.17,-267.83 911,-252.98 934.26,-247.21 959.25,-236.87 978.1,-228.15"/>
<polygon fill="#9a32cd" stroke="#9a32cd" points="735.5,-270.05 725.59,-273.8 735.68,-277.05 735.5,-270.05"/>
<text text-anchor="middle" x="850.5" y="-272.98" font-family="Helvetica,sans-Serif" font-size="10.00"> srcClassName</text>
</g>
<!-- Node5 -->
<g id="node5" class="node">
<title>Node5</title>
<g id="a_node5"><a xlink:title=" ">
<polygon fill="white" stroke="black" points="660,-225.48 660,-244.48 729,-244.48 729,-225.48 660,-225.48"/>
<text text-anchor="middle" x="694.5" y="-232.48" font-family="Helvetica,sans-Serif" font-size="10.00">JScrollPane</text>
</a>
</g>
</g>
<!-- Node5&#45;&gt;Node1 -->
<g id="edge4" class="edge">
<title>Node5&#45;&gt;Node1</title>
<path fill="none" stroke="#9a32cd" stroke-dasharray="5,2" d="M739.56,-231.89C788.6,-228.44 868.83,-222.8 928.93,-218.58"/>
<polygon fill="#9a32cd" stroke="#9a32cd" points="739.02,-228.41 729.29,-232.61 739.51,-235.4 739.02,-228.41"/>
<text text-anchor="middle" x="850.5" y="-240.98" font-family="Helvetica,sans-Serif" font-size="10.00"> srcClassNameScroller</text>
<text text-anchor="middle" x="850.5" y="-229.98" font-family="Helvetica,sans-Serif" font-size="10.00">trgClassesScroller</text>
</g>
<!-- Node6 -->
<g id="node6" class="node">
<title>Node6</title>
<g id="a_node6"><a xlink:title=" ">
<polygon fill="white" stroke="black" points="669.5,-187.48 669.5,-206.48 719.5,-206.48 719.5,-187.48 669.5,-187.48"/>
<text text-anchor="middle" x="694.5" y="-194.48" font-family="Helvetica,sans-Serif" font-size="10.00">JButton</text>
</a>
</g>
</g>
<!-- Node6&#45;&gt;Node1 -->
<g id="edge6" class="edge">
<title>Node6&#45;&gt;Node1</title>
<path fill="none" stroke="#9a32cd" stroke-dasharray="5,2" d="M729.9,-195.26C772.5,-193.53 847.23,-191.78 911,-196.98 916.81,-197.46 922.8,-198.09 928.82,-198.82"/>
<polygon fill="#9a32cd" stroke="#9a32cd" points="729.63,-191.77 719.79,-195.7 729.93,-198.77 729.63,-191.77"/>
<text text-anchor="middle" x="850.5" y="-199.98" font-family="Helvetica,sans-Serif" font-size="10.00"> btnAdd</text>
</g>
<!-- Node7 -->
<g id="node7" class="node">
<title>Node7</title>
<g id="a_node7"><a xlink:href="classdenoptim_1_1gui_1_1_compatibility_matrix_form_1_1_trg_removal_listener.html" target="_top" xlink:title="Listens for clicks that require removal of a compatible APClass (i.e., the target APClass) from the e...">
<polygon fill="white" stroke="black" points="617,-137.98 617,-167.98 772,-167.98 772,-137.98 617,-137.98"/>
<text text-anchor="start" x="625" y="-155.98" font-family="Helvetica,sans-Serif" font-size="10.00">denoptim.gui.Compatibility</text>
<text text-anchor="middle" x="694.5" y="-144.98" font-family="Helvetica,sans-Serif" font-size="10.00">MatrixForm.TrgRemovalListener</text>
</a>
</g>
</g>
<!-- Node7&#45;&gt;Node1 -->
<g id="edge7" class="edge">
<title>Node7&#45;&gt;Node1</title>
<path fill="none" stroke="#9a32cd" stroke-dasharray="5,2" d="M782.2,-158.48C821.83,-162.15 869.17,-168.18 911,-177.98 931.84,-182.86 954.37,-190.77 972.52,-197.83"/>
<polygon fill="#9a32cd" stroke="#9a32cd" points="782.3,-154.98 772.03,-157.57 781.68,-161.95 782.3,-154.98"/>
<text text-anchor="middle" x="850.5" y="-180.98" font-family="Helvetica,sans-Serif" font-size="10.00"> trgDelListener</text>
</g>
<!-- Node8 -->
<g id="node8" class="node">
<title>Node8</title>
<g id="a_node8"><a xlink:title=" ">
<polygon fill="white" stroke="black" points="404,-157.48 404,-176.48 525,-176.48 525,-157.48 404,-157.48"/>
<text text-anchor="middle" x="464.5" y="-164.48" font-family="Helvetica,sans-Serif" font-size="10.00">PropertyChangeListener</text>
</a>
</g>
</g>
<!-- Node8&#45;&gt;Node7 -->
<g id="edge8" class="edge">
<title>Node8&#45;&gt;Node7</title>
<path fill="none" stroke="midnightblue" d="M535.16,-162.7C560.92,-161.12 590.26,-159.32 616.62,-157.7"/>
<polygon fill="midnightblue" stroke="midnightblue" points="534.87,-159.22 525.11,-163.32 535.3,-166.2 534.87,-159.22"/>
</g>
<!-- Node9 -->
<g id="node9" class="node">
<title>Node9</title>
<g id="a_node9"><a xlink:href="classdenoptim_1_1graph_1_1_a_p_class.html" target="_top" xlink:title=" ">
<polygon fill="white" stroke="black" points="403,-109.48 403,-128.48 526,-128.48 526,-109.48 403,-109.48"/>
<text text-anchor="middle" x="464.5" y="-116.48" font-family="Helvetica,sans-Serif" font-size="10.00">denoptim.graph.APClass</text>
</a>
</g>
</g>
<!-- Node9&#45;&gt;Node1 -->
<g id="edge16" class="edge">
<title>Node9&#45;&gt;Node1</title>
<path fill="none" stroke="#9a32cd" stroke-dasharray="5,2" d="M536.48,-111.47C627.17,-104.77 787.22,-102.88 911,-154.98 938.59,-166.6 967.79,-184.87 986.96,-197.79"/>
<polygon fill="#9a32cd" stroke="#9a32cd" points="536.01,-107.99 526.31,-112.26 536.55,-114.97 536.01,-107.99"/>
<text text-anchor="middle" x="694.5" y="-119.98" font-family="Helvetica,sans-Serif" font-size="10.00"> srcAPClass</text>
</g>
<!-- Node9&#45;&gt;Node7 -->
<g id="edge9" class="edge">
<title>Node9&#45;&gt;Node7</title>
<path fill="none" stroke="#9a32cd" stroke-dasharray="5,2" d="M536,-129.5C561.6,-133.31 590.64,-137.64 616.76,-141.54"/>
<polygon fill="#9a32cd" stroke="#9a32cd" points="536.41,-126.02 526,-128 535.38,-132.94 536.41,-126.02"/>
<text text-anchor="middle" x="571.5" y="-140.98" font-family="Helvetica,sans-Serif" font-size="10.00"> srcAPClass</text>
</g>
<!-- Node10 -->
<g id="node10" class="node">
<title>Node10</title>
<g id="a_node10"><a xlink:title=" ">
<polygon fill="white" stroke="black" points="139,-185.48 139,-204.48 198,-204.48 198,-185.48 139,-185.48"/>
<text text-anchor="middle" x="168.5" y="-192.48" font-family="Helvetica,sans-Serif" font-size="10.00">Cloneable</text>
</a>
</g>
</g>
<!-- Node10&#45;&gt;Node9 -->
<g id="edge10" class="edge">
<title>Node10&#45;&gt;Node9</title>
<path fill="none" stroke="midnightblue" d="M208.17,-195.44C252.71,-194.59 327.16,-188.89 385,-162.98 394.5,-158.73 394.24,-153.61 403,-147.98 414.66,-140.49 428.56,-133.7 440.09,-128.57"/>
<polygon fill="midnightblue" stroke="midnightblue" points="208.02,-191.94 198.06,-195.56 208.1,-198.94 208.02,-191.94"/>
</g>
<!-- Node11 -->
<g id="node11" class="node">
<title>Node11</title>
<g id="a_node11"><a xlink:title=" ">
<polygon fill="white" stroke="black" points="107,-147.48 107,-166.48 230,-166.48 230,-147.48 107,-147.48"/>
<text text-anchor="middle" x="168.5" y="-154.48" font-family="Helvetica,sans-Serif" font-size="10.00">Comparable&lt; APClass &gt;</text>
</a>
</g>
</g>
<!-- Node11&#45;&gt;Node9 -->
<g id="edge11" class="edge">
<title>Node11&#45;&gt;Node9</title>
<path fill="none" stroke="midnightblue" d="M240.53,-156.5C282.79,-155.18 337.3,-151.7 385,-142.98 402.94,-139.7 422.57,-133.7 437.71,-128.52"/>
<polygon fill="midnightblue" stroke="midnightblue" points="240.24,-153 230.34,-156.78 240.43,-160 240.24,-153"/>
</g>
<!-- Node12 -->
<g id="node12" class="node">
<title>Node12</title>
<g id="a_node12"><a xlink:title=" ">
<polygon fill="white" stroke="black" points="91,-109.48 91,-128.48 246,-128.48 246,-109.48 91,-109.48"/>
<text text-anchor="middle" x="168.5" y="-116.48" font-family="Helvetica,sans-Serif" font-size="10.00">Set&lt; denoptim.graph.APClass &gt;</text>
</a>
</g>
</g>
<!-- Node12&#45;&gt;Node9 -->
<g id="edge12" class="edge">
<title>Node12&#45;&gt;Node9</title>
<path fill="none" stroke="#9a32cd" stroke-dasharray="5,2" d="M256.55,-118.98C303.63,-118.98 360.6,-118.98 402.84,-118.98"/>
<polygon fill="#9a32cd" stroke="#9a32cd" points="256.36,-115.48 246.36,-118.98 256.36,-122.48 256.36,-115.48"/>
<text text-anchor="middle" x="324.5" y="-132.98" font-family="Helvetica,sans-Serif" font-size="10.00"> RCAAPCLASSSET</text>
<text text-anchor="middle" x="324.5" y="-121.98" font-family="Helvetica,sans-Serif" font-size="10.00">uniqueAPClasses</text>
</g>
<!-- Node13 -->
<g id="node13" class="node">
<title>Node13</title>
<g id="a_node13"><a xlink:title=" ">
<polygon fill="white" stroke="black" points="101,-59.98 101,-89.98 236,-89.98 236,-59.98 101,-59.98"/>
<text text-anchor="start" x="109" y="-77.98" font-family="Helvetica,sans-Serif" font-size="10.00">HashMap&lt; denoptim.graph.</text>
<text text-anchor="middle" x="168.5" y="-66.98" font-family="Helvetica,sans-Serif" font-size="10.00">APClass, String &gt;</text>
</a>
</g>
</g>
<!-- Node13&#45;&gt;Node9 -->
<g id="edge13" class="edge">
<title>Node13&#45;&gt;Node9</title>
<path fill="none" stroke="#9a32cd" stroke-dasharray="5,2" d="M246.12,-84.25C287.35,-89.5 339.05,-96.51 385,-103.98 395,-105.61 405.68,-107.53 415.84,-109.44"/>
<polygon fill="#9a32cd" stroke="#9a32cd" points="246.5,-80.77 236.14,-82.99 245.62,-87.72 246.5,-80.77"/>
<text text-anchor="middle" x="324.5" y="-106.98" font-family="Helvetica,sans-Serif" font-size="10.00"> RCALABELPERAPCLASS</text>
</g>
<!-- Node14 -->
<g id="node14" class="node">
<title>Node14</title>
<g id="a_node14"><a xlink:href="enumdenoptim_1_1graph_1_1_edge_1_1_bond_type.html" target="_top" xlink:title="Possible chemical bond types an edge can represent.">
<polygon fill="white" stroke="black" points="92.5,-21.48 92.5,-40.48 244.5,-40.48 244.5,-21.48 92.5,-21.48"/>
<text text-anchor="middle" x="168.5" y="-28.48" font-family="Helvetica,sans-Serif" font-size="10.00">denoptim.graph.Edge.BondType</text>
</a>
</g>
</g>
<!-- Node14&#45;&gt;Node9 -->
<g id="edge14" class="edge">
<title>Node14&#45;&gt;Node9</title>
<path fill="none" stroke="#9a32cd" stroke-dasharray="5,2" d="M254.83,-33.14C295.48,-36.58 344.05,-44.28 385,-60.98 412.93,-72.37 439.97,-95.97 453.86,-109.28"/>
<polygon fill="#9a32cd" stroke="#9a32cd" points="254.92,-29.64 244.68,-32.35 254.38,-36.62 254.92,-29.64"/>
<text text-anchor="middle" x="324.5" y="-74.98" font-family="Helvetica,sans-Serif" font-size="10.00"> DEFAULTBT</text>
<text text-anchor="middle" x="324.5" y="-63.98" font-family="Helvetica,sans-Serif" font-size="10.00">bndTyp</text>
</g>
<!-- Node15 -->
<g id="node15" class="node">
<title>Node15</title>
<g id="a_node15"><a xlink:title=" ">
<polygon fill="white" stroke="black" points="0,-21.48 0,-40.48 42,-40.48 42,-21.48 0,-21.48"/>
<text text-anchor="middle" x="21" y="-28.48" font-family="Helvetica,sans-Serif" font-size="10.00">IBond</text>
</a>
</g>
</g>
<!-- Node15&#45;&gt;Node14 -->
<g id="edge15" class="edge">
<title>Node15&#45;&gt;Node14</title>
<path fill="none" stroke="#9a32cd" stroke-dasharray="5,2" d="M52.33,-30.98C64.08,-30.98 78.11,-30.98 92.26,-30.98"/>
<polygon fill="#9a32cd" stroke="#9a32cd" points="52.23,-27.48 42.23,-30.98 52.23,-34.48 52.23,-27.48"/>
<text text-anchor="middle" x="66.5" y="-33.98" font-family="Helvetica,sans-Serif" font-size="10.00"> bo</text>
</g>
<!-- Node16 -->
<g id="node16" class="node">
<title>Node16</title>
<g id="a_node16"><a xlink:title=" ">
<polygon fill="white" stroke="black" points="663.5,-52.48 663.5,-71.48 725.5,-71.48 725.5,-52.48 663.5,-52.48"/>
<text text-anchor="middle" x="694.5" y="-59.48" font-family="Helvetica,sans-Serif" font-size="10.00">Dimension</text>
</a>
</g>
</g>
<!-- Node16&#45;&gt;Node1 -->
<g id="edge17" class="edge">
<title>Node16&#45;&gt;Node1</title>
<path fill="none" stroke="#9a32cd" stroke-dasharray="5,2" d="M735.7,-53.77C781.26,-46.64 856.3,-41.66 911,-71.98 961.76,-100.12 991.76,-167.2 1003.18,-197.57"/>
<polygon fill="#9a32cd" stroke="#9a32cd" points="734.9,-50.36 725.61,-55.46 736.05,-57.26 734.9,-50.36"/>
<text text-anchor="middle" x="850.5" y="-85.98" font-family="Helvetica,sans-Serif" font-size="10.00"> minSrcAPClassName</text>
<text text-anchor="middle" x="850.5" y="-74.98" font-family="Helvetica,sans-Serif" font-size="10.00">scrollerSize</text>
</g>
<!-- Node17 -->
<g id="node17" class="node">
<title>Node17</title>
<g id="a_node17"><a xlink:title=" ">
<polygon fill="white" stroke="black" points="675,-11.48 675,-30.48 714,-30.48 714,-11.48 675,-11.48"/>
<text text-anchor="middle" x="694.5" y="-18.48" font-family="Helvetica,sans-Serif" font-size="10.00">Color</text>
</a>
</g>
</g>
<!-- Node17&#45;&gt;Node1 -->
<g id="edge18" class="edge">
<title>Node17&#45;&gt;Node1</title>
<path fill="none" stroke="#9a32cd" stroke-dasharray="5,2" d="M723.98,-12.58C767.8,-1.43 852.79,12.95 911,-22.98 975.52,-62.8 999.18,-160.25 1006.08,-197.84"/>
<polygon fill="#9a32cd" stroke="#9a32cd" points="723.02,-9.21 714.27,-15.17 724.83,-15.97 723.02,-9.21"/>
<text text-anchor="middle" x="850.5" y="-36.98" font-family="Helvetica,sans-Serif" font-size="10.00"> DEFAULTBACKGROUND</text>
<text text-anchor="middle" x="850.5" y="-25.98" font-family="Helvetica,sans-Serif" font-size="10.00">SELECTEDBACKGROUND</text>
</g>
</g>
</svg>
