<?xml version="1.0" encoding="UTF-8" standalone="no"?>
<!DOCTYPE svg PUBLIC "-//W3C//DTD SVG 1.1//EN"
 "http://www.w3.org/Graphics/SVG/1.1/DTD/svg11.dtd">
<!-- Generated by graphviz version 3.0.0 (20221109.1736)
 -->
<!-- Title: denoptim.graph.rings.CyclicGraphHandler.RingSizeManager.getRSBiasedListOfCandidates Pages: 1 -->
<svg width="386pt" height="50pt"
 viewBox="0.00 0.00 386.00 50.00" xmlns="http://www.w3.org/2000/svg" xmlns:xlink="http://www.w3.org/1999/xlink">
<g id="graph0" class="graph" transform="scale(1 1) rotate(0) translate(4 46)">
<title>denoptim.graph.rings.CyclicGraphHandler.RingSizeManager.getRSBiasedListOfCandidates</title>
<polygon fill="white" stroke="transparent" points="-4,4 -4,-46 382,-46 382,4 -4,4"/>
<!-- Node1 -->
<g id="node1" class="node">
<title>Node1</title>
<g id="a_node1"><a xlink:title=" ">
<polygon fill="#bfbfbf" stroke="black" points="0,-0.5 0,-41.5 170,-41.5 170,-0.5 0,-0.5"/>
<text text-anchor="start" x="8" y="-29.5" font-family="Helvetica,sans-Serif" font-size="10.00">denoptim.graph.rings.Cyclic</text>
<text text-anchor="start" x="8" y="-18.5" font-family="Helvetica,sans-Serif" font-size="10.00">GraphHandler.RingSizeManager.get</text>
<text text-anchor="middle" x="85" y="-7.5" font-family="Helvetica,sans-Serif" font-size="10.00">RSBiasedListOfCandidates</text>
</a>
</g>
</g>
<!-- Node2 -->
<g id="node2" class="node">
<title>Node2</title>
<g id="a_node2"><a xlink:href="classdenoptim_1_1graph_1_1rings_1_1_ring_closure_parameters.html#a870b2456fe1fefeae6b8411d2febadf6" target="_top" xlink:title=" ">
<polygon fill="white" stroke="black" points="206,-6 206,-36 378,-36 378,-6 206,-6"/>
<text text-anchor="start" x="214" y="-24" font-family="Helvetica,sans-Serif" font-size="10.00">denoptim.graph.rings.Ring</text>
<text text-anchor="middle" x="292" y="-13" font-family="Helvetica,sans-Serif" font-size="10.00">ClosureParameters.getMaxRingSize</text>
</a>
</g>
</g>
<!-- Node1&#45;&gt;Node2 -->
<g id="edge1" class="edge">
<title>Node1&#45;&gt;Node2</title>
<path fill="none" stroke="midnightblue" d="M170.27,-21C178.59,-21 187.08,-21 195.5,-21"/>
<polygon fill="midnightblue" stroke="midnightblue" points="195.73,-24.5 205.73,-21 195.73,-17.5 195.73,-24.5"/>
</g>
</g>
</svg>
