<?xml version="1.0" encoding="UTF-8" standalone="no"?>
<!DOCTYPE svg PUBLIC "-//W3C//DTD SVG 1.1//EN"
 "http://www.w3.org/Graphics/SVG/1.1/DTD/svg11.dtd">
<!-- Generated by graphviz version 3.0.0 (20221109.1736)
 -->
<!-- Title: denoptim.graph.DGraph.removeVertex Pages: 1 -->
<svg width="1281pt" height="886pt"
 viewBox="0.00 0.00 1281.00 885.50" xmlns="http://www.w3.org/2000/svg" xmlns:xlink="http://www.w3.org/1999/xlink">
<g id="graph0" class="graph" transform="scale(1 1) rotate(0) translate(4 881.5)">
<title>denoptim.graph.DGraph.removeVertex</title>
<polygon fill="white" stroke="transparent" points="-4,4 -4,-881.5 1277,-881.5 1277,4 -4,4"/>
<!-- Node1 -->
<g id="node1" class="node">
<title>Node1</title>
<g id="a_node1"><a xlink:title="Remove a vertex from this graph.">
<polygon fill="#bfbfbf" stroke="black" points="1121,-573.5 1121,-603.5 1273,-603.5 1273,-573.5 1121,-573.5"/>
<text text-anchor="start" x="1129" y="-591.5" font-family="Helvetica,sans-Serif" font-size="10.00">denoptim.graph.DGraph.remove</text>
<text text-anchor="middle" x="1197" y="-580.5" font-family="Helvetica,sans-Serif" font-size="10.00">Vertex</text>
</a>
</g>
</g>
<!-- Node2 -->
<g id="node2" class="node">
<title>Node2</title>
<g id="a_node2"><a xlink:href="classdenoptim_1_1graph_1_1_d_graph.html#a4c897937d4e30c60a8a0c02a0c971262" target="_top" xlink:title="Creates a new graph that corresponds to the subgraph of this graph when exploring the spanning tree f...">
<polygon fill="white" stroke="black" points="916.5,-833.5 916.5,-863.5 1065.5,-863.5 1065.5,-833.5 916.5,-833.5"/>
<text text-anchor="start" x="924.5" y="-851.5" font-family="Helvetica,sans-Serif" font-size="10.00">denoptim.graph.DGraph.extract</text>
<text text-anchor="middle" x="991" y="-840.5" font-family="Helvetica,sans-Serif" font-size="10.00">Subgraph</text>
</a>
</g>
</g>
<!-- Node1&#45;&gt;Node2 -->
<g id="edge1" class="edge">
<title>Node1&#45;&gt;Node2</title>
<path fill="none" stroke="midnightblue" d="M1191.5,-613.58C1181.46,-662 1152.59,-768.51 1085,-824.5 1079.22,-829.29 1072.6,-833.13 1065.61,-836.22"/>
<polygon fill="midnightblue" stroke="midnightblue" points="1194.96,-614.13 1193.46,-603.64 1188.09,-612.77 1194.96,-614.13"/>
</g>
<!-- Node3 -->
<g id="node3" class="node">
<title>Node3</title>
<g id="a_node3"><a xlink:href="classdenoptim_1_1ga_1_1_graph_operations_test.html#a2eeb942b25efcbe3b7d829b41ffc3139" target="_top" xlink:title=" ">
<polygon fill="white" stroke="black" points="918.5,-784.5 918.5,-814.5 1063.5,-814.5 1063.5,-784.5 918.5,-784.5"/>
<text text-anchor="start" x="926.5" y="-802.5" font-family="Helvetica,sans-Serif" font-size="10.00">denoptim.ga.GraphOperations</text>
<text text-anchor="middle" x="991" y="-791.5" font-family="Helvetica,sans-Serif" font-size="10.00">Test.getExpectedSubgraphs</text>
</a>
</g>
</g>
<!-- Node1&#45;&gt;Node3 -->
<g id="edge2" class="edge">
<title>Node1&#45;&gt;Node3</title>
<path fill="none" stroke="midnightblue" d="M1188.3,-613.16C1174.41,-653.49 1141.25,-733.28 1085,-775.5 1078.6,-780.3 1071.33,-784.15 1063.74,-787.23"/>
<polygon fill="midnightblue" stroke="midnightblue" points="1191.66,-614.17 1191.49,-603.57 1185.01,-611.96 1191.66,-614.17"/>
</g>
<!-- Node6 -->
<g id="node6" class="node">
<title>Node6</title>
<g id="a_node6"><a xlink:href="classdenoptim_1_1fragspace_1_1_fragment_space_test.html#af3d68c634b78e89ff2937bdf8ac1387f" target="_top" xlink:title=" ">
<polygon fill="white" stroke="black" points="911,-735.5 911,-765.5 1071,-765.5 1071,-735.5 911,-735.5"/>
<text text-anchor="start" x="919" y="-753.5" font-family="Helvetica,sans-Serif" font-size="10.00">denoptim.fragspace.Fragment</text>
<text text-anchor="middle" x="991" y="-742.5" font-family="Helvetica,sans-Serif" font-size="10.00">SpaceTest.getExpectedTemplate</text>
</a>
</g>
</g>
<!-- Node1&#45;&gt;Node6 -->
<g id="edge5" class="edge">
<title>Node1&#45;&gt;Node6</title>
<path fill="none" stroke="midnightblue" d="M1182.88,-612.73C1164.89,-643.62 1129.66,-696.48 1085,-725.5 1079.11,-729.33 1072.65,-732.57 1065.97,-735.32"/>
<polygon fill="midnightblue" stroke="midnightblue" points="1186,-614.32 1187.9,-603.9 1179.91,-610.87 1186,-614.32"/>
</g>
<!-- Node11 -->
<g id="node11" class="node">
<title>Node11</title>
<g id="a_node11"><a xlink:href="classdenoptim_1_1gui_1_1_g_u_i_graph_handler.html#af5b000c105018cbd7c262b34f9750044" target="_top" xlink:title="Initialize the panel and add buttons.">
<polygon fill="white" stroke="black" points="897,-697 897,-716 1085,-716 1085,-697 897,-697"/>
<text text-anchor="middle" x="991" y="-704" font-family="Helvetica,sans-Serif" font-size="10.00">denoptim.gui.GUIGraphHandler.initialize</text>
</a>
</g>
</g>
<!-- Node1&#45;&gt;Node11 -->
<g id="edge10" class="edge">
<title>Node1&#45;&gt;Node11</title>
<path fill="none" stroke="midnightblue" d="M1177.18,-611.19C1156.87,-634.12 1122.37,-668.76 1085,-687.5 1077.19,-691.42 1068.63,-694.52 1059.96,-696.99"/>
<polygon fill="midnightblue" stroke="midnightblue" points="1179.85,-613.46 1183.76,-603.62 1174.56,-608.88 1179.85,-613.46"/>
</g>
<!-- Node13 -->
<g id="node13" class="node">
<title>Node13</title>
<g id="a_node13"><a xlink:href="classdenoptim_1_1graph_1_1_d_graph.html#a70a5450315c7af3d64c44179ec2cede8" target="_top" xlink:title="Remove capping groups that belong to this graph and are in the given list.">
<polygon fill="white" stroke="black" points="915,-647.5 915,-677.5 1067,-677.5 1067,-647.5 915,-647.5"/>
<text text-anchor="start" x="923" y="-665.5" font-family="Helvetica,sans-Serif" font-size="10.00">denoptim.graph.DGraph.remove</text>
<text text-anchor="middle" x="991" y="-654.5" font-family="Helvetica,sans-Serif" font-size="10.00">CappingGroups</text>
</a>
</g>
</g>
<!-- Node1&#45;&gt;Node13 -->
<g id="edge12" class="edge">
<title>Node1&#45;&gt;Node13</title>
<path fill="none" stroke="midnightblue" d="M1156.74,-608.16C1135.8,-618.14 1109.38,-629.93 1085,-638.5 1075.88,-641.71 1066.11,-644.69 1056.47,-647.39"/>
<polygon fill="midnightblue" stroke="midnightblue" points="1158.46,-611.22 1165.95,-603.72 1155.42,-604.91 1158.46,-611.22"/>
</g>
<!-- Node15 -->
<g id="node15" class="node">
<title>Node15</title>
<g id="a_node15"><a xlink:href="classdenoptim_1_1graph_1_1_d_graph.html#aa0420500bab73722508ecc3c6e5fa90d" target="_top" xlink:title="Remove capping groups on the given vertex of this graph.">
<polygon fill="white" stroke="black" points="915,-598.5 915,-628.5 1067,-628.5 1067,-598.5 915,-598.5"/>
<text text-anchor="start" x="923" y="-616.5" font-family="Helvetica,sans-Serif" font-size="10.00">denoptim.graph.DGraph.remove</text>
<text text-anchor="middle" x="991" y="-605.5" font-family="Helvetica,sans-Serif" font-size="10.00">CappingGroupsOn</text>
</a>
</g>
</g>
<!-- Node1&#45;&gt;Node15 -->
<g id="edge14" class="edge">
<title>Node1&#45;&gt;Node15</title>
<path fill="none" stroke="midnightblue" d="M1110.96,-598.92C1096.46,-600.7 1081.5,-602.53 1067.28,-604.28"/>
<polygon fill="midnightblue" stroke="midnightblue" points="1111.41,-602.39 1120.91,-597.7 1110.56,-595.45 1111.41,-602.39"/>
</g>
<!-- Node16 -->
<g id="node16" class="node">
<title>Node16</title>
<g id="a_node16"><a xlink:href="classdenoptim_1_1graph_1_1_d_graph.html#af404e25092eabcdfbe69b5d7204e9483" target="_top" xlink:title="Mutates the graph by removing the chain where a given vertex is located up to the first branching (i....">
<polygon fill="white" stroke="black" points="915,-549.5 915,-579.5 1067,-579.5 1067,-549.5 915,-549.5"/>
<text text-anchor="start" x="923" y="-567.5" font-family="Helvetica,sans-Serif" font-size="10.00">denoptim.graph.DGraph.remove</text>
<text text-anchor="middle" x="991" y="-556.5" font-family="Helvetica,sans-Serif" font-size="10.00">ChainUpToBranching</text>
</a>
</g>
</g>
<!-- Node1&#45;&gt;Node16 -->
<g id="edge16" class="edge">
<title>Node1&#45;&gt;Node16</title>
<path fill="none" stroke="midnightblue" d="M1110.96,-578.5C1096.46,-576.79 1081.5,-575.03 1067.28,-573.36"/>
<polygon fill="midnightblue" stroke="midnightblue" points="1110.57,-581.97 1120.91,-579.67 1111.38,-575.02 1110.57,-581.97"/>
</g>
<!-- Node19 -->
<g id="node19" class="node">
<title>Node19</title>
<g id="a_node19"><a xlink:href="classdenoptim_1_1graph_1_1_d_graph.html#aea560f1323c57e1264ac3192b4d294d1" target="_top" xlink:title="Deletes the branch, i.e., the specified vertex and its children.">
<polygon fill="white" stroke="black" points="915,-500.5 915,-530.5 1067,-530.5 1067,-500.5 915,-500.5"/>
<text text-anchor="start" x="923" y="-518.5" font-family="Helvetica,sans-Serif" font-size="10.00">denoptim.graph.DGraph.remove</text>
<text text-anchor="middle" x="991" y="-507.5" font-family="Helvetica,sans-Serif" font-size="10.00">OrphanBranchStartingAt</text>
</a>
</g>
</g>
<!-- Node1&#45;&gt;Node19 -->
<g id="edge19" class="edge">
<title>Node1&#45;&gt;Node19</title>
<path fill="none" stroke="midnightblue" d="M1155.28,-569.2C1134.53,-559.8 1108.73,-548.77 1085,-540.5 1074.74,-536.92 1063.69,-533.55 1052.92,-530.51"/>
<polygon fill="midnightblue" stroke="midnightblue" points="1153.88,-572.41 1164.43,-573.38 1156.79,-566.04 1153.88,-572.41"/>
</g>
<!-- Node24 -->
<g id="node24" class="node">
<title>Node24</title>
<g id="a_node24"><a xlink:href="classdenoptim_1_1graph_1_1_d_graph.html#aefca90eb3594e935ee283f1e56fec5b4" target="_top" xlink:title="Replaced the subgraph represented by a given collection of vertices that belong to this graph.">
<polygon fill="white" stroke="black" points="915,-343.5 915,-373.5 1067,-373.5 1067,-343.5 915,-343.5"/>
<text text-anchor="start" x="923" y="-361.5" font-family="Helvetica,sans-Serif" font-size="10.00">denoptim.graph.DGraph.replace</text>
<text text-anchor="middle" x="991" y="-350.5" font-family="Helvetica,sans-Serif" font-size="10.00">SingleSubGraph</text>
</a>
</g>
</g>
<!-- Node1&#45;&gt;Node24 -->
<g id="edge26" class="edge">
<title>Node1&#45;&gt;Node24</title>
<path fill="none" stroke="midnightblue" d="M1178.9,-565.35C1157.77,-537.18 1120.29,-488.53 1085,-449.5 1059.7,-421.52 1027.83,-391.32 1008.73,-373.7"/>
<polygon fill="midnightblue" stroke="midnightblue" points="1176.12,-567.48 1184.91,-573.4 1181.73,-563.3 1176.12,-567.48"/>
</g>
<!-- Node27 -->
<g id="node27" class="node">
<title>Node27</title>
<g id="a_node27"><a xlink:href="classdenoptim_1_1graph_1_1_d_graph.html#a86e888ef245d2bd40b49d145c7ef3af0" target="_top" xlink:title="Replaced the subgraph represented by a given collection of vertices that belong to this graph.">
<polygon fill="white" stroke="black" points="699,-441.5 699,-471.5 851,-471.5 851,-441.5 699,-441.5"/>
<text text-anchor="start" x="707" y="-459.5" font-family="Helvetica,sans-Serif" font-size="10.00">denoptim.graph.DGraph.replace</text>
<text text-anchor="middle" x="775" y="-448.5" font-family="Helvetica,sans-Serif" font-size="10.00">SubGraph</text>
</a>
</g>
</g>
<!-- Node1&#45;&gt;Node27 -->
<g id="edge39" class="edge">
<title>Node1&#45;&gt;Node27</title>
<path fill="none" stroke="midnightblue" d="M1177.4,-565.6C1157.27,-542.6 1122.91,-508.23 1085,-491.5 1010.17,-458.49 915.69,-452.29 851.02,-452.73"/>
<polygon fill="midnightblue" stroke="midnightblue" points="1174.75,-567.89 1183.91,-573.22 1180.08,-563.34 1174.75,-567.89"/>
</g>
<!-- Node37 -->
<g id="node37" class="node">
<title>Node37</title>
<g id="a_node37"><a xlink:href="classdenoptim_1_1graph_1_1_d_graph.html#a8fb951a35b028bcf098b8a83d94d7e75" target="_top" xlink:title="Removes unused ring&#45;closing vertices.">
<polygon fill="white" stroke="black" points="915,-123.5 915,-153.5 1067,-153.5 1067,-123.5 915,-123.5"/>
<text text-anchor="start" x="923" y="-141.5" font-family="Helvetica,sans-Serif" font-size="10.00">denoptim.graph.DGraph.replace</text>
<text text-anchor="middle" x="991" y="-130.5" font-family="Helvetica,sans-Serif" font-size="10.00">UnusedRCVsWithCapps</text>
</a>
</g>
</g>
<!-- Node1&#45;&gt;Node37 -->
<g id="edge40" class="edge">
<title>Node1&#45;&gt;Node37</title>
<path fill="none" stroke="midnightblue" d="M1185.55,-563.9C1166.16,-518.42 1123.12,-418.17 1085,-334.5 1054.08,-266.64 1015.36,-186.5 999.4,-153.67"/>
<polygon fill="midnightblue" stroke="midnightblue" points="1182.39,-565.42 1189.53,-573.25 1188.84,-562.68 1182.39,-565.42"/>
</g>
<!-- Node42 -->
<g id="node42" class="node">
<title>Node42</title>
<g id="a_node42"><a xlink:href="classdenoptim_1_1graph_1_1_d_graph_test.html#a337ce2733050aa5d37cec418eb7d9081" target="_top" xlink:title=" ">
<polygon fill="white" stroke="black" points="913,-74.5 913,-104.5 1069,-104.5 1069,-74.5 913,-74.5"/>
<text text-anchor="start" x="921" y="-92.5" font-family="Helvetica,sans-Serif" font-size="10.00">denoptim.graph.DGraphTest.test</text>
<text text-anchor="middle" x="991" y="-81.5" font-family="Helvetica,sans-Serif" font-size="10.00">RemoveVertex</text>
</a>
</g>
</g>
<!-- Node1&#45;&gt;Node42 -->
<g id="edge45" class="edge">
<title>Node1&#45;&gt;Node42</title>
<path fill="none" stroke="midnightblue" d="M1193.49,-563.38C1184.17,-475.02 1148.76,-180.38 1085,-114.5 1080.47,-109.81 1075.15,-105.98 1069.41,-102.84"/>
<polygon fill="midnightblue" stroke="midnightblue" points="1190.01,-563.74 1194.52,-573.32 1196.97,-563.02 1190.01,-563.74"/>
</g>
<!-- Node4 -->
<g id="node4" class="node">
<title>Node4</title>
<g id="a_node4"><a xlink:href="classdenoptim_1_1ga_1_1_graph_operations_test.html#af7dad44701e1c81c71d47052733822fd" target="_top" xlink:title="Returns a molecule consisting of two pairs of fused rings connected by an oxygen atom.">
<polygon fill="white" stroke="black" points="702.5,-817.5 702.5,-847.5 847.5,-847.5 847.5,-817.5 702.5,-817.5"/>
<text text-anchor="start" x="710.5" y="-835.5" font-family="Helvetica,sans-Serif" font-size="10.00">denoptim.ga.GraphOperations</text>
<text text-anchor="middle" x="775" y="-824.5" font-family="Helvetica,sans-Serif" font-size="10.00">Test.getFusedRings</text>
</a>
</g>
</g>
<!-- Node3&#45;&gt;Node4 -->
<g id="edge3" class="edge">
<title>Node3&#45;&gt;Node4</title>
<path fill="none" stroke="midnightblue" d="M908.46,-812.07C888.51,-815.15 867.31,-818.42 847.85,-821.42"/>
<polygon fill="midnightblue" stroke="midnightblue" points="909.09,-815.52 918.44,-810.53 908.03,-808.6 909.09,-815.52"/>
</g>
<!-- Node5 -->
<g id="node5" class="node">
<title>Node5</title>
<g id="a_node5"><a xlink:href="classdenoptim_1_1ga_1_1_graph_operations_test.html#a81e15cea05ce67c5b0c2af89d301d072" target="_top" xlink:title=" ">
<polygon fill="white" stroke="black" points="476,-836 476,-877 621,-877 621,-836 476,-836"/>
<text text-anchor="start" x="484" y="-865" font-family="Helvetica,sans-Serif" font-size="10.00">denoptim.ga.GraphOperations</text>
<text text-anchor="start" x="484" y="-854" font-family="Helvetica,sans-Serif" font-size="10.00">Test.testExtractPattern</text>
<text text-anchor="middle" x="548.5" y="-843" font-family="Helvetica,sans-Serif" font-size="10.00">_fusedRings</text>
</a>
</g>
</g>
<!-- Node4&#45;&gt;Node5 -->
<g id="edge4" class="edge">
<title>Node4&#45;&gt;Node5</title>
<path fill="none" stroke="midnightblue" d="M692.17,-841.25C668.94,-843.73 643.83,-846.42 621.24,-848.83"/>
<polygon fill="midnightblue" stroke="midnightblue" points="692.78,-844.7 702.35,-840.16 692.03,-837.74 692.78,-844.7"/>
</g>
<!-- Node7 -->
<g id="node7" class="node">
<title>Node7</title>
<g id="a_node7"><a xlink:href="classdenoptim_1_1fragspace_1_1_fragment_space_test.html#a86c3b01084322d2c465809840d7a3122" target="_top" xlink:title=" ">
<polygon fill="white" stroke="black" points="702.5,-743.5 702.5,-773.5 847.5,-773.5 847.5,-743.5 702.5,-743.5"/>
<text text-anchor="start" x="710.5" y="-761.5" font-family="Helvetica,sans-Serif" font-size="10.00">denoptim.fragspace.Fragment</text>
<text text-anchor="middle" x="775" y="-750.5" font-family="Helvetica,sans-Serif" font-size="10.00">SpaceTest.getTestCase</text>
</a>
</g>
</g>
<!-- Node6&#45;&gt;Node7 -->
<g id="edge6" class="edge">
<title>Node6&#45;&gt;Node7</title>
<path fill="none" stroke="midnightblue" d="M900.62,-753.84C882.97,-754.5 864.65,-755.19 847.68,-755.82"/>
<polygon fill="midnightblue" stroke="midnightblue" points="901.06,-757.33 910.92,-753.46 900.8,-750.33 901.06,-757.33"/>
</g>
<!-- Node8 -->
<g id="node8" class="node">
<title>Node8</title>
<g id="a_node8"><a xlink:href="classdenoptim_1_1fragspace_1_1_fragment_space_test.html#a6f2ce8f6a8319b39440b0dc43ede061f" target="_top" xlink:title="Check that the following graph&#39;s fused ring gets added to the fragment library.">
<polygon fill="white" stroke="black" points="444,-776 444,-817 653,-817 653,-776 444,-776"/>
<text text-anchor="start" x="452" y="-805" font-family="Helvetica,sans-Serif" font-size="10.00">denoptim.fragspace.Fragment</text>
<text text-anchor="start" x="452" y="-794" font-family="Helvetica,sans-Serif" font-size="10.00">SpaceTest.testFusedRingAddedToFragment</text>
<text text-anchor="middle" x="548.5" y="-783" font-family="Helvetica,sans-Serif" font-size="10.00">Library</text>
</a>
</g>
</g>
<!-- Node7&#45;&gt;Node8 -->
<g id="edge7" class="edge">
<title>Node7&#45;&gt;Node8</title>
<path fill="none" stroke="midnightblue" d="M692.29,-772.33C679.59,-774.48 666.31,-776.73 653.2,-778.95"/>
<polygon fill="midnightblue" stroke="midnightblue" points="693.07,-775.75 702.35,-770.63 691.91,-768.85 693.07,-775.75"/>
</g>
<!-- Node9 -->
<g id="node9" class="node">
<title>Node9</title>
<g id="a_node9"><a xlink:href="classdenoptim_1_1fragspace_1_1_fragment_space_test.html#a56ef448997df677c5ce4a73737f127e2" target="_top" xlink:title="Checks that a graph with a fused ring containing a scaffold vertex is added to the scaffold library.">
<polygon fill="white" stroke="black" points="447,-716 447,-757 650,-757 650,-716 447,-716"/>
<text text-anchor="start" x="455" y="-745" font-family="Helvetica,sans-Serif" font-size="10.00">denoptim.fragspace.Fragment</text>
<text text-anchor="start" x="455" y="-734" font-family="Helvetica,sans-Serif" font-size="10.00">SpaceTest.testFusedRingAddedToScaffold</text>
<text text-anchor="middle" x="548.5" y="-723" font-family="Helvetica,sans-Serif" font-size="10.00">Library</text>
</a>
</g>
</g>
<!-- Node7&#45;&gt;Node9 -->
<g id="edge8" class="edge">
<title>Node7&#45;&gt;Node9</title>
<path fill="none" stroke="midnightblue" d="M692.11,-750.47C678.53,-749.14 664.32,-747.75 650.34,-746.38"/>
<polygon fill="midnightblue" stroke="midnightblue" points="692.06,-753.99 702.35,-751.48 692.74,-747.02 692.06,-753.99"/>
</g>
<!-- Node10 -->
<g id="node10" class="node">
<title>Node10</title>
<g id="a_node10"><a xlink:href="classdenoptim_1_1fragspace_1_1_fragment_space_test.html#a7555fcdf60b6fabae0c95844f351fc6f" target="_top" xlink:title=" ">
<polygon fill="white" stroke="black" points="448.5,-667.5 448.5,-697.5 648.5,-697.5 648.5,-667.5 448.5,-667.5"/>
<text text-anchor="start" x="456.5" y="-685.5" font-family="Helvetica,sans-Serif" font-size="10.00">denoptim.fragspace.Fragment</text>
<text text-anchor="middle" x="548.5" y="-674.5" font-family="Helvetica,sans-Serif" font-size="10.00">SpaceTest.testFusedRingOnlyAddedOnce</text>
</a>
</g>
</g>
<!-- Node7&#45;&gt;Node10 -->
<g id="edge9" class="edge">
<title>Node7&#45;&gt;Node10</title>
<path fill="none" stroke="midnightblue" d="M700.75,-739.83C696.72,-738.18 692.77,-736.41 689,-734.5 670.91,-725.35 671.3,-715.22 653,-706.5 645.76,-703.05 637.98,-700.08 630.08,-697.53"/>
<polygon fill="midnightblue" stroke="midnightblue" points="699.71,-743.18 710.3,-743.45 702.19,-736.63 699.71,-743.18"/>
</g>
<!-- Node12 -->
<g id="node12" class="node">
<title>Node12</title>
<g id="a_node12"><a xlink:href="classdenoptim_1_1gui_1_1_g_u_i_graph_handler.html#ab7d010d9a384f6b85edce47c95d6723b" target="_top" xlink:title="Constructor.">
<polygon fill="white" stroke="black" points="698,-694.5 698,-724.5 852,-724.5 852,-694.5 698,-694.5"/>
<text text-anchor="start" x="706" y="-712.5" font-family="Helvetica,sans-Serif" font-size="10.00">denoptim.gui.GUIGraphHandler.</text>
<text text-anchor="middle" x="775" y="-701.5" font-family="Helvetica,sans-Serif" font-size="10.00">GUIGraphHandler</text>
</a>
</g>
</g>
<!-- Node11&#45;&gt;Node12 -->
<g id="edge11" class="edge">
<title>Node11&#45;&gt;Node12</title>
<path fill="none" stroke="midnightblue" d="M886.61,-707.95C875.03,-708.11 863.4,-708.27 852.25,-708.43"/>
<polygon fill="midnightblue" stroke="midnightblue" points="886.81,-711.45 896.76,-707.81 886.71,-704.45 886.81,-711.45"/>
</g>
<!-- Node14 -->
<g id="node14" class="node">
<title>Node14</title>
<g id="a_node14"><a xlink:href="classdenoptim_1_1graph_1_1_d_graph_test.html#adc3ee631a1671aa9ffd5ea3cef73b279" target="_top" xlink:title=" ">
<polygon fill="white" stroke="black" points="697,-645.5 697,-675.5 853,-675.5 853,-645.5 697,-645.5"/>
<text text-anchor="start" x="705" y="-663.5" font-family="Helvetica,sans-Serif" font-size="10.00">denoptim.graph.DGraphTest.test</text>
<text text-anchor="middle" x="775" y="-652.5" font-family="Helvetica,sans-Serif" font-size="10.00">RemoveCapping</text>
</a>
</g>
</g>
<!-- Node13&#45;&gt;Node14 -->
<g id="edge13" class="edge">
<title>Node13&#45;&gt;Node14</title>
<path fill="none" stroke="midnightblue" d="M904.42,-661.7C887.47,-661.54 869.78,-661.38 853.14,-661.22"/>
<polygon fill="midnightblue" stroke="midnightblue" points="904.82,-665.2 914.85,-661.8 904.89,-658.2 904.82,-665.2"/>
</g>
<!-- Node15&#45;&gt;Node14 -->
<g id="edge15" class="edge">
<title>Node15&#45;&gt;Node14</title>
<path fill="none" stroke="midnightblue" d="M911.7,-630.7C889.64,-635.54 865.82,-640.77 844.38,-645.48"/>
<polygon fill="midnightblue" stroke="midnightblue" points="912.68,-634.06 921.7,-628.5 911.18,-627.23 912.68,-634.06"/>
</g>
<!-- Node17 -->
<g id="node17" class="node">
<title>Node17</title>
<g id="a_node17"><a xlink:href="classdenoptim_1_1ga_1_1_graph_operations.html#afd659e74a056d1a6ae6f52513fee0be3" target="_top" xlink:title="Deletes the given vertex and all other vertexes that are not connected to more than 2 non&#45;capping gro...">
<polygon fill="white" stroke="black" points="225.5,-598.5 225.5,-628.5 398.5,-628.5 398.5,-598.5 225.5,-598.5"/>
<text text-anchor="start" x="233.5" y="-616.5" font-family="Helvetica,sans-Serif" font-size="10.00">denoptim.ga.GraphOperations.delete</text>
<text text-anchor="middle" x="312" y="-605.5" font-family="Helvetica,sans-Serif" font-size="10.00">Chain</text>
</a>
</g>
</g>
<!-- Node16&#45;&gt;Node17 -->
<g id="edge17" class="edge">
<title>Node16&#45;&gt;Node17</title>
<path fill="none" stroke="midnightblue" d="M923.58,-582.17C895.51,-589.51 867.73,-596.55 861,-597.5 698.89,-620.31 507.24,-619.69 398.92,-616.83"/>
<polygon fill="midnightblue" stroke="midnightblue" points="924.7,-585.49 933.48,-579.57 922.92,-578.72 924.7,-585.49"/>
</g>
<!-- Node18 -->
<g id="node18" class="node">
<title>Node18</title>
<g id="a_node18"><a xlink:href="classdenoptim_1_1ga_1_1_graph_operations.html#a0c851972015fbb4b2a317b053b8b81d9" target="_top" xlink:title="Mutates the given vertex according to the given mutation type, if possible.">
<polygon fill="white" stroke="black" points="0,-571.5 0,-601.5 180,-601.5 180,-571.5 0,-571.5"/>
<text text-anchor="start" x="8" y="-589.5" font-family="Helvetica,sans-Serif" font-size="10.00">denoptim.ga.GraphOperations.perform</text>
<text text-anchor="middle" x="90" y="-578.5" font-family="Helvetica,sans-Serif" font-size="10.00">Mutation</text>
</a>
</g>
</g>
<!-- Node17&#45;&gt;Node18 -->
<g id="edge18" class="edge">
<title>Node17&#45;&gt;Node18</title>
<path fill="none" stroke="midnightblue" d="M215.14,-601.74C203.49,-600.31 191.63,-598.85 180.08,-597.43"/>
<polygon fill="midnightblue" stroke="midnightblue" points="214.96,-605.24 225.31,-602.98 215.81,-598.29 214.96,-605.24"/>
</g>
<!-- Node20 -->
<g id="node20" class="node">
<title>Node20</title>
<g id="a_node20"><a xlink:href="classdenoptim_1_1graph_1_1_d_graph.html#a65f0577c098508ced9925878e94ead82" target="_top" xlink:title="Deletes the branch, i.e., the specified vertex and its children.">
<polygon fill="white" stroke="black" points="699,-490.5 699,-520.5 851,-520.5 851,-490.5 699,-490.5"/>
<text text-anchor="start" x="707" y="-508.5" font-family="Helvetica,sans-Serif" font-size="10.00">denoptim.graph.DGraph.remove</text>
<text text-anchor="middle" x="775" y="-497.5" font-family="Helvetica,sans-Serif" font-size="10.00">BranchStartingAt</text>
</a>
</g>
</g>
<!-- Node19&#45;&gt;Node20 -->
<g id="edge20" class="edge">
<title>Node19&#45;&gt;Node20</title>
<path fill="none" stroke="midnightblue" d="M904.59,-511.51C886.98,-510.69 868.55,-509.82 851.33,-509.02"/>
<polygon fill="midnightblue" stroke="midnightblue" points="904.7,-515.02 914.85,-511.99 905.03,-508.03 904.7,-515.02"/>
</g>
<!-- Node21 -->
<g id="node21" class="node">
<title>Node21</title>
<g id="a_node21"><a xlink:href="classdenoptim_1_1graph_1_1_d_graph.html#a357b4099599e47ae47102123550771f8" target="_top" xlink:title="Remove a given vertex belonging to this graph and re&#45;connects the resulting graph branches as much as...">
<polygon fill="white" stroke="black" points="699,-539.5 699,-569.5 851,-569.5 851,-539.5 699,-539.5"/>
<text text-anchor="start" x="707" y="-557.5" font-family="Helvetica,sans-Serif" font-size="10.00">denoptim.graph.DGraph.remove</text>
<text text-anchor="middle" x="775" y="-546.5" font-family="Helvetica,sans-Serif" font-size="10.00">SingleVertexAndWeld</text>
</a>
</g>
</g>
<!-- Node19&#45;&gt;Node21 -->
<g id="edge21" class="edge">
<title>Node19&#45;&gt;Node21</title>
<path fill="none" stroke="midnightblue" d="M904.59,-531.07C886.98,-534.27 868.55,-537.63 851.33,-540.77"/>
<polygon fill="midnightblue" stroke="midnightblue" points="905.64,-534.43 914.85,-529.2 904.39,-527.54 905.64,-534.43"/>
</g>
<!-- Node21&#45;&gt;Node21 -->
<g id="edge22" class="edge">
<title>Node21&#45;&gt;Node21</title>
<path fill="none" stroke="midnightblue" d="M813.38,-579.96C808.62,-584.68 795.82,-588 775,-588 740.83,-588 728.28,-579.06 737.36,-569.66"/>
<polygon fill="midnightblue" stroke="midnightblue" points="816.85,-579.38 812.64,-569.66 809.87,-579.88 816.85,-579.38"/>
</g>
<!-- Node22 -->
<g id="node22" class="node">
<title>Node22</title>
<g id="a_node22"><a xlink:href="classdenoptim_1_1graph_1_1_d_graph.html#a00209ca8b4a9623b41e7d9e1e62f69ec" target="_top" xlink:title="Remove a given vertex belonging to this graph and re&#45;connects the resulting graph branches as much as...">
<polygon fill="white" stroke="black" points="472.5,-541.5 472.5,-571.5 624.5,-571.5 624.5,-541.5 472.5,-541.5"/>
<text text-anchor="start" x="480.5" y="-559.5" font-family="Helvetica,sans-Serif" font-size="10.00">denoptim.graph.DGraph.remove</text>
<text text-anchor="middle" x="548.5" y="-548.5" font-family="Helvetica,sans-Serif" font-size="10.00">VertexAndWeld</text>
</a>
</g>
</g>
<!-- Node21&#45;&gt;Node22 -->
<g id="edge23" class="edge">
<title>Node21&#45;&gt;Node22</title>
<path fill="none" stroke="midnightblue" d="M688.74,-555.26C667.73,-555.45 645.38,-555.65 624.88,-555.83"/>
<polygon fill="midnightblue" stroke="midnightblue" points="688.96,-558.76 698.93,-555.17 688.9,-551.76 688.96,-558.76"/>
</g>
<!-- Node23 -->
<g id="node23" class="node">
<title>Node23</title>
<g id="a_node23"><a xlink:href="classdenoptim_1_1ga_1_1_graph_operations.html#ab3adb5141a8941bf23916bb516faee63" target="_top" xlink:title="Removes a vertex while merging as many of the child branches into the parent vertex.">
<polygon fill="white" stroke="black" points="216,-551 216,-570 408,-570 408,-551 216,-551"/>
<text text-anchor="middle" x="312" y="-558" font-family="Helvetica,sans-Serif" font-size="10.00">denoptim.ga.GraphOperations.deleteLink</text>
</a>
</g>
</g>
<!-- Node22&#45;&gt;Node23 -->
<g id="edge24" class="edge">
<title>Node22&#45;&gt;Node23</title>
<path fill="none" stroke="midnightblue" d="M462.17,-557.96C444.68,-558.25 426.16,-558.57 408.34,-558.87"/>
<polygon fill="midnightblue" stroke="midnightblue" points="462.4,-561.45 472.34,-557.78 462.28,-554.45 462.4,-561.45"/>
</g>
<!-- Node23&#45;&gt;Node18 -->
<g id="edge25" class="edge">
<title>Node23&#45;&gt;Node18</title>
<path fill="none" stroke="midnightblue" d="M220.29,-571.22C207.04,-572.79 193.41,-574.4 180.2,-575.96"/>
<polygon fill="midnightblue" stroke="midnightblue" points="220.81,-574.68 230.33,-570.03 219.99,-567.73 220.81,-574.68"/>
</g>
<!-- Node25 -->
<g id="node25" class="node">
<title>Node25</title>
<g id="a_node25"><a xlink:href="classdenoptim_1_1graph_1_1_d_graph.html#a4df69c91a742d22f8d14d44489aeac15" target="_top" xlink:title="Edit this graph according to a given list of edit tasks.">
<polygon fill="white" stroke="black" points="707,-343.5 707,-373.5 843,-373.5 843,-343.5 707,-343.5"/>
<text text-anchor="start" x="715" y="-361.5" font-family="Helvetica,sans-Serif" font-size="10.00">denoptim.graph.DGraph.edit</text>
<text text-anchor="middle" x="775" y="-350.5" font-family="Helvetica,sans-Serif" font-size="10.00">Graph</text>
</a>
</g>
</g>
<!-- Node24&#45;&gt;Node25 -->
<g id="edge27" class="edge">
<title>Node24&#45;&gt;Node25</title>
<path fill="none" stroke="midnightblue" d="M904.6,-358.5C884.15,-358.5 862.6,-358.5 843.12,-358.5"/>
<polygon fill="midnightblue" stroke="midnightblue" points="904.85,-362 914.85,-358.5 904.85,-355 904.85,-362"/>
</g>
<!-- Node24&#45;&gt;Node27 -->
<g id="edge29" class="edge">
<title>Node24&#45;&gt;Node27</title>
<path fill="none" stroke="midnightblue" d="M959.09,-379.12C933.63,-395.39 896.13,-417.73 861,-432.5 853.23,-435.77 844.87,-438.74 836.54,-441.39"/>
<polygon fill="midnightblue" stroke="midnightblue" points="961.07,-382.01 967.57,-373.64 957.28,-376.13 961.07,-382.01"/>
</g>
<!-- Node33 -->
<g id="node33" class="node">
<title>Node33</title>
<g id="a_node33"><a xlink:href="classdenoptim_1_1graph_1_1_d_graph.html#adc362402e41af41656e820def73de5ad" target="_top" xlink:title="Replaced a given vertex belonging to this graph with a new vertex generated specifically for this pur...">
<polygon fill="white" stroke="black" points="699,-245.5 699,-275.5 851,-275.5 851,-245.5 699,-245.5"/>
<text text-anchor="start" x="707" y="-263.5" font-family="Helvetica,sans-Serif" font-size="10.00">denoptim.graph.DGraph.replace</text>
<text text-anchor="middle" x="775" y="-252.5" font-family="Helvetica,sans-Serif" font-size="10.00">Vertex</text>
</a>
</g>
</g>
<!-- Node24&#45;&gt;Node33 -->
<g id="edge35" class="edge">
<title>Node24&#45;&gt;Node33</title>
<path fill="none" stroke="midnightblue" d="M958.55,-337.99C933.05,-322.04 895.76,-300.22 861,-285.5 852.36,-281.84 843.01,-278.51 833.78,-275.55"/>
<polygon fill="midnightblue" stroke="midnightblue" points="956.73,-340.98 967.05,-343.37 960.47,-335.07 956.73,-340.98"/>
</g>
<!-- Node34 -->
<g id="node34" class="node">
<title>Node34</title>
<g id="a_node34"><a xlink:href="classdenoptim_1_1graph_1_1_d_graph_test.html#aea227d615f6c2f3bac5839a8099a900d" target="_top" xlink:title=" ">
<polygon fill="white" stroke="black" points="697,-196.5 697,-226.5 853,-226.5 853,-196.5 697,-196.5"/>
<text text-anchor="start" x="705" y="-214.5" font-family="Helvetica,sans-Serif" font-size="10.00">denoptim.graph.DGraphTest.test</text>
<text text-anchor="middle" x="775" y="-203.5" font-family="Helvetica,sans-Serif" font-size="10.00">IsIsostructuralTo</text>
</a>
</g>
</g>
<!-- Node24&#45;&gt;Node34 -->
<g id="edge36" class="edge">
<title>Node24&#45;&gt;Node34</title>
<path fill="none" stroke="midnightblue" d="M971.64,-335.47C948.59,-308.05 906.53,-262.68 861,-236.5 854.33,-232.67 847.03,-229.38 839.59,-226.56"/>
<polygon fill="midnightblue" stroke="midnightblue" points="969.1,-337.89 978.16,-343.36 974.49,-333.43 969.1,-337.89"/>
</g>
<!-- Node35 -->
<g id="node35" class="node">
<title>Node35</title>
<g id="a_node35"><a xlink:href="classdenoptim_1_1graph_1_1_d_graph_test.html#a83a9624ea5dc6a2c515407b865b62611" target="_top" xlink:title=" ">
<polygon fill="white" stroke="black" points="697,-392.5 697,-422.5 853,-422.5 853,-392.5 697,-392.5"/>
<text text-anchor="start" x="705" y="-410.5" font-family="Helvetica,sans-Serif" font-size="10.00">denoptim.graph.DGraphTest.test</text>
<text text-anchor="middle" x="775" y="-399.5" font-family="Helvetica,sans-Serif" font-size="10.00">ReplaceSubGraph</text>
</a>
</g>
</g>
<!-- Node24&#45;&gt;Node35 -->
<g id="edge37" class="edge">
<title>Node24&#45;&gt;Node35</title>
<path fill="none" stroke="midnightblue" d="M914.31,-375.83C890.55,-381.27 864.53,-387.23 841.54,-392.49"/>
<polygon fill="midnightblue" stroke="midnightblue" points="915.37,-379.18 924.34,-373.53 913.81,-372.35 915.37,-379.18"/>
</g>
<!-- Node36 -->
<g id="node36" class="node">
<title>Node36</title>
<g id="a_node36"><a xlink:href="classdenoptim_1_1graph_1_1_d_graph_test.html#a0c949ec1131a872dea53524614b3b42a" target="_top" xlink:title=" ">
<polygon fill="white" stroke="black" points="697,-294.5 697,-324.5 853,-324.5 853,-294.5 697,-294.5"/>
<text text-anchor="start" x="705" y="-312.5" font-family="Helvetica,sans-Serif" font-size="10.00">denoptim.graph.DGraphTest.test</text>
<text text-anchor="middle" x="775" y="-301.5" font-family="Helvetica,sans-Serif" font-size="10.00">ReplaceSubGraph_inTemplate</text>
</a>
</g>
</g>
<!-- Node24&#45;&gt;Node36 -->
<g id="edge38" class="edge">
<title>Node24&#45;&gt;Node36</title>
<path fill="none" stroke="midnightblue" d="M914.31,-341.17C890.55,-335.73 864.53,-329.77 841.54,-324.51"/>
<polygon fill="midnightblue" stroke="midnightblue" points="913.81,-344.65 924.34,-343.47 915.37,-337.82 913.81,-344.65"/>
</g>
<!-- Node26 -->
<g id="node26" class="node">
<title>Node26</title>
<g id="a_node26"><a xlink:href="classdenoptim_1_1programs_1_1grapheditor_1_1_graph_editor.html#a649a62e3d4635ef4c19424fa49e6dcd4" target="_top" xlink:title=" ">
<polygon fill="white" stroke="black" points="472.5,-343.5 472.5,-373.5 624.5,-373.5 624.5,-343.5 472.5,-343.5"/>
<text text-anchor="start" x="480.5" y="-361.5" font-family="Helvetica,sans-Serif" font-size="10.00">denoptim.programs.grapheditor.</text>
<text text-anchor="middle" x="548.5" y="-350.5" font-family="Helvetica,sans-Serif" font-size="10.00">GraphEditor.runProgram</text>
</a>
</g>
</g>
<!-- Node25&#45;&gt;Node26 -->
<g id="edge28" class="edge">
<title>Node25&#45;&gt;Node26</title>
<path fill="none" stroke="midnightblue" d="M696.78,-358.5C673.51,-358.5 648,-358.5 624.86,-358.5"/>
<polygon fill="midnightblue" stroke="midnightblue" points="696.95,-362 706.95,-358.5 696.95,-355 696.95,-362"/>
</g>
<!-- Node28 -->
<g id="node28" class="node">
<title>Node28</title>
<g id="a_node28"><a xlink:href="classdenoptim_1_1graph_1_1_d_graph.html#a1cb3c55237933f7a4d32e002175b84bc" target="_top" xlink:title="Searches for the given pattern type and generated a new graph where each set of (clones of) vertexes ...">
<polygon fill="white" stroke="black" points="474,-417.5 474,-447.5 623,-447.5 623,-417.5 474,-417.5"/>
<text text-anchor="start" x="482" y="-435.5" font-family="Helvetica,sans-Serif" font-size="10.00">denoptim.graph.DGraph.embed</text>
<text text-anchor="middle" x="548.5" y="-424.5" font-family="Helvetica,sans-Serif" font-size="10.00">PatternsInTemplates</text>
</a>
</g>
</g>
<!-- Node27&#45;&gt;Node28 -->
<g id="edge30" class="edge">
<title>Node27&#45;&gt;Node28</title>
<path fill="none" stroke="midnightblue" d="M688.81,-447.39C667.26,-445.09 644.29,-442.63 623.35,-440.4"/>
<polygon fill="midnightblue" stroke="midnightblue" points="688.62,-450.89 698.93,-448.47 689.36,-443.93 688.62,-450.89"/>
</g>
<!-- Node29 -->
<g id="node29" class="node">
<title>Node29</title>
<g id="a_node29"><a xlink:href="classdenoptim_1_1ga_1_1_graph_operations.html#affb1be89a32e4a429bd7dbdfe0708419" target="_top" xlink:title="Performs the crossover that swaps the two subgraphs defining the given XoverSite.">
<polygon fill="white" stroke="black" points="458.5,-466.5 458.5,-496.5 638.5,-496.5 638.5,-466.5 458.5,-466.5"/>
<text text-anchor="start" x="466.5" y="-484.5" font-family="Helvetica,sans-Serif" font-size="10.00">denoptim.ga.GraphOperations.perform</text>
<text text-anchor="middle" x="548.5" y="-473.5" font-family="Helvetica,sans-Serif" font-size="10.00">Crossover</text>
</a>
</g>
</g>
<!-- Node27&#45;&gt;Node29 -->
<g id="edge31" class="edge">
<title>Node27&#45;&gt;Node29</title>
<path fill="none" stroke="midnightblue" d="M688.81,-465.99C672.35,-467.82 655.08,-469.74 638.51,-471.59"/>
<polygon fill="midnightblue" stroke="midnightblue" points="689.38,-469.44 698.93,-464.86 688.61,-462.49 689.38,-469.44"/>
</g>
<!-- Node30 -->
<g id="node30" class="node">
<title>Node30</title>
<g id="a_node30"><a xlink:href="classdenoptim_1_1ga_1_1_e_a_utils.html#a0b958439d79fae30f14530213ad22e3a" target="_top" xlink:title="Generates up to a pair of new offspring by performing a crossover operation.">
<polygon fill="white" stroke="black" points="248.5,-483.5 248.5,-513.5 375.5,-513.5 375.5,-483.5 248.5,-483.5"/>
<text text-anchor="start" x="256.5" y="-501.5" font-family="Helvetica,sans-Serif" font-size="10.00">denoptim.ga.EAUtils.build</text>
<text text-anchor="middle" x="312" y="-490.5" font-family="Helvetica,sans-Serif" font-size="10.00">CandidatesByXOver</text>
</a>
</g>
</g>
<!-- Node29&#45;&gt;Node30 -->
<g id="edge32" class="edge">
<title>Node29&#45;&gt;Node30</title>
<path fill="none" stroke="midnightblue" d="M448.12,-488.7C423.63,-490.48 398.07,-492.33 375.86,-493.94"/>
<polygon fill="midnightblue" stroke="midnightblue" points="448.46,-492.19 458.18,-487.98 447.95,-485.21 448.46,-492.19"/>
</g>
<!-- Node31 -->
<g id="node31" class="node">
<title>Node31</title>
<g id="a_node31"><a xlink:href="classdenoptim_1_1programs_1_1genetweeker_1_1_gene_ops_runner.html#ab0f92a94c4fb2334e7d3813e73fc4247" target="_top" xlink:title=" ">
<polygon fill="white" stroke="black" points="232.5,-434.5 232.5,-464.5 391.5,-464.5 391.5,-434.5 232.5,-434.5"/>
<text text-anchor="start" x="240.5" y="-452.5" font-family="Helvetica,sans-Serif" font-size="10.00">denoptim.programs.genetweeker.</text>
<text text-anchor="middle" x="312" y="-441.5" font-family="Helvetica,sans-Serif" font-size="10.00">GeneOpsRunner.runXOver</text>
</a>
</g>
</g>
<!-- Node29&#45;&gt;Node31 -->
<g id="edge33" class="edge">
<title>Node29&#45;&gt;Node31</title>
<path fill="none" stroke="midnightblue" d="M448.1,-467.94C429.26,-465.37 409.8,-462.71 391.72,-460.24"/>
<polygon fill="midnightblue" stroke="midnightblue" points="447.8,-471.43 458.18,-469.31 448.74,-464.49 447.8,-471.43"/>
</g>
<!-- Node32 -->
<g id="node32" class="node">
<title>Node32</title>
<g id="a_node32"><a xlink:href="classdenoptim_1_1programs_1_1genetweeker_1_1_gene_ops_runner.html#a3c2407eb1204a7b25600d3d347d98447" target="_top" xlink:title=" ">
<polygon fill="white" stroke="black" points="10.5,-434.5 10.5,-464.5 169.5,-464.5 169.5,-434.5 10.5,-434.5"/>
<text text-anchor="start" x="18.5" y="-452.5" font-family="Helvetica,sans-Serif" font-size="10.00">denoptim.programs.genetweeker.</text>
<text text-anchor="middle" x="90" y="-441.5" font-family="Helvetica,sans-Serif" font-size="10.00">GeneOpsRunner.runProgram</text>
</a>
</g>
</g>
<!-- Node31&#45;&gt;Node32 -->
<g id="edge34" class="edge">
<title>Node31&#45;&gt;Node32</title>
<path fill="none" stroke="midnightblue" d="M222.07,-449.5C204.71,-449.5 186.62,-449.5 169.62,-449.5"/>
<polygon fill="midnightblue" stroke="midnightblue" points="222.2,-453 232.2,-449.5 222.2,-446 222.2,-453"/>
</g>
<!-- Node38 -->
<g id="node38" class="node">
<title>Node38</title>
<g id="a_node38"><a xlink:href="classdenoptim_1_1combinatorial_1_1_graph_building_task.html#a3eaee724fc921194fa158714aafe182d" target="_top" xlink:title="Calls the task.">
<polygon fill="white" stroke="black" points="702.5,-98.5 702.5,-128.5 847.5,-128.5 847.5,-98.5 702.5,-98.5"/>
<text text-anchor="start" x="710.5" y="-116.5" font-family="Helvetica,sans-Serif" font-size="10.00">denoptim.combinatorial.Graph</text>
<text text-anchor="middle" x="775" y="-105.5" font-family="Helvetica,sans-Serif" font-size="10.00">BuildingTask.call</text>
</a>
</g>
</g>
<!-- Node37&#45;&gt;Node38 -->
<g id="edge41" class="edge">
<title>Node37&#45;&gt;Node38</title>
<path fill="none" stroke="midnightblue" d="M904.77,-128.54C885.87,-126.34 866.03,-124.02 847.73,-121.88"/>
<polygon fill="midnightblue" stroke="midnightblue" points="904.51,-132.04 914.85,-129.72 905.33,-125.08 904.51,-132.04"/>
</g>
<!-- Node39 -->
<g id="node39" class="node">
<title>Node39</title>
<g id="a_node39"><a xlink:href="classdenoptim_1_1ga_1_1_offspring_evaluation_task.html#aab5b9c0b8a88922460f5c28ae161d1fa" target="_top" xlink:title=" ">
<polygon fill="white" stroke="black" points="697.5,-49.5 697.5,-79.5 852.5,-79.5 852.5,-49.5 697.5,-49.5"/>
<text text-anchor="start" x="705.5" y="-67.5" font-family="Helvetica,sans-Serif" font-size="10.00">denoptim.ga.OffspringEvaluation</text>
<text text-anchor="middle" x="775" y="-56.5" font-family="Helvetica,sans-Serif" font-size="10.00">Task.call</text>
</a>
</g>
</g>
<!-- Node37&#45;&gt;Node39 -->
<g id="edge42" class="edge">
<title>Node37&#45;&gt;Node39</title>
<path fill="none" stroke="midnightblue" d="M910.72,-120.12C906.02,-118.39 901.41,-116.52 897,-114.5 879.29,-106.38 878.57,-97.91 861,-89.5 853.23,-85.78 844.79,-82.49 836.35,-79.62"/>
<polygon fill="midnightblue" stroke="midnightblue" points="909.89,-123.54 920.49,-123.48 912.17,-116.92 909.89,-123.54"/>
</g>
<!-- Node40 -->
<g id="node40" class="node">
<title>Node40</title>
<g id="a_node40"><a xlink:href="classdenoptim_1_1programs_1_1fitnessevaluator_1_1_fitness_evaluation_task.html#a498b4214d06fc161d92cf1a38635ece3" target="_top" xlink:title=" ">
<polygon fill="white" stroke="black" points="689,-0.5 689,-30.5 861,-30.5 861,-0.5 689,-0.5"/>
<text text-anchor="start" x="697" y="-18.5" font-family="Helvetica,sans-Serif" font-size="10.00">denoptim.programs.fitnessevaluator.</text>
<text text-anchor="middle" x="775" y="-7.5" font-family="Helvetica,sans-Serif" font-size="10.00">FitnessEvaluationTask.call</text>
</a>
</g>
</g>
<!-- Node37&#45;&gt;Node40 -->
<g id="edge43" class="edge">
<title>Node37&#45;&gt;Node40</title>
<path fill="none" stroke="midnightblue" d="M905.67,-120.62C902.63,-118.77 899.72,-116.74 897,-114.5 868.43,-91.02 889.3,-63.3 861,-39.5 856.89,-36.05 852.32,-33.09 847.48,-30.55"/>
<polygon fill="midnightblue" stroke="midnightblue" points="904.09,-123.74 914.57,-125.33 907.38,-117.56 904.09,-123.74"/>
</g>
<!-- Node41 -->
<g id="node41" class="node">
<title>Node41</title>
<g id="a_node41"><a xlink:href="classdenoptim_1_1graph_1_1_d_graph_test.html#a42ea1a0adbc30b78070c3096171094a9" target="_top" xlink:title=" ">
<polygon fill="white" stroke="black" points="697,-147.5 697,-177.5 853,-177.5 853,-147.5 697,-147.5"/>
<text text-anchor="start" x="705" y="-165.5" font-family="Helvetica,sans-Serif" font-size="10.00">denoptim.graph.DGraphTest.test</text>
<text text-anchor="middle" x="775" y="-154.5" font-family="Helvetica,sans-Serif" font-size="10.00">RemoveUnusedRCVs</text>
</a>
</g>
</g>
<!-- Node37&#45;&gt;Node41 -->
<g id="edge44" class="edge">
<title>Node37&#45;&gt;Node41</title>
<path fill="none" stroke="midnightblue" d="M904.89,-148.04C887.81,-149.96 869.94,-151.96 853.14,-153.85"/>
<polygon fill="midnightblue" stroke="midnightblue" points="905.3,-151.52 914.85,-146.93 904.52,-144.56 905.3,-151.52"/>
</g>
</g>
</svg>
