<?xml version="1.0" encoding="UTF-8" standalone="no"?>
<!DOCTYPE svg PUBLIC "-//W3C//DTD SVG 1.1//EN"
 "http://www.w3.org/Graphics/SVG/1.1/DTD/svg11.dtd">
<!-- Generated by graphviz version 3.0.0 (20221109.1736)
 -->
<!-- Title: denoptim.graph.DGraph.getRCVertices Pages: 1 -->
<svg width="1279pt" height="382pt"
 viewBox="0.00 0.00 1279.00 382.00" xmlns="http://www.w3.org/2000/svg" xmlns:xlink="http://www.w3.org/1999/xlink">
<g id="graph0" class="graph" transform="scale(1 1) rotate(0) translate(4 378)">
<title>denoptim.graph.DGraph.getRCVertices</title>
<polygon fill="white" stroke="transparent" points="-4,4 -4,-378 1275,-378 1275,4 -4,4"/>
<!-- Node1 -->
<g id="node1" class="node">
<title>Node1</title>
<g id="a_node1"><a xlink:title="Search for ring closing vertices: vertices that contain only a RingClosingAttractor">
<polygon fill="#bfbfbf" stroke="black" points="1137,-196.5 1137,-226.5 1271,-226.5 1271,-196.5 1137,-196.5"/>
<text text-anchor="start" x="1145" y="-214.5" font-family="Helvetica,sans-Serif" font-size="10.00">denoptim.graph.DGraph.get</text>
<text text-anchor="middle" x="1204" y="-203.5" font-family="Helvetica,sans-Serif" font-size="10.00">RCVertices</text>
</a>
</g>
</g>
<!-- Node2 -->
<g id="node2" class="node">
<title>Node2</title>
<g id="a_node2"><a xlink:href="classdenoptim_1_1graph_1_1_d_graph.html#ac1e5c9703afc6f29fe11cca08ddb1a1c" target="_top" xlink:title="Peeks into this graph to derive a preliminary chemical representation with SMILES and InChIKey.">
<polygon fill="white" stroke="black" points="952,-291.5 952,-321.5 1098,-321.5 1098,-291.5 952,-291.5"/>
<text text-anchor="start" x="960" y="-309.5" font-family="Helvetica,sans-Serif" font-size="10.00">denoptim.graph.DGraph.check</text>
<text text-anchor="middle" x="1025" y="-298.5" font-family="Helvetica,sans-Serif" font-size="10.00">Consistency</text>
</a>
</g>
</g>
<!-- Node1&#45;&gt;Node2 -->
<g id="edge1" class="edge">
<title>Node1&#45;&gt;Node2</title>
<path fill="none" stroke="midnightblue" d="M1176.94,-232.92C1157.1,-248.39 1128.59,-268.87 1101,-282.5 1094.38,-285.77 1087.22,-288.73 1080.03,-291.36"/>
<polygon fill="midnightblue" stroke="midnightblue" points="1179.21,-235.58 1184.88,-226.63 1174.87,-230.1 1179.21,-235.58"/>
</g>
<!-- Node3 -->
<g id="node3" class="node">
<title>Node3</title>
<g id="a_node3"><a xlink:href="classdenoptim_1_1graph_1_1_d_graph.html#a49ca4849cb306cbbd45e579bb8139cf6" target="_top" xlink:title="Search for unused ring closing vertices: vertices that contain only a RingClosingAttractor and are no...">
<polygon fill="white" stroke="black" points="958,-242.5 958,-272.5 1092,-272.5 1092,-242.5 958,-242.5"/>
<text text-anchor="start" x="966" y="-260.5" font-family="Helvetica,sans-Serif" font-size="10.00">denoptim.graph.DGraph.get</text>
<text text-anchor="middle" x="1025" y="-249.5" font-family="Helvetica,sans-Serif" font-size="10.00">FreeRCVertices</text>
</a>
</g>
</g>
<!-- Node1&#45;&gt;Node3 -->
<g id="edge2" class="edge">
<title>Node1&#45;&gt;Node3</title>
<path fill="none" stroke="midnightblue" d="M1135.2,-229.12C1118.24,-233.53 1100.21,-238.21 1083.78,-242.48"/>
<polygon fill="midnightblue" stroke="midnightblue" points="1136.25,-232.46 1145.04,-226.56 1134.48,-225.69 1136.25,-232.46"/>
</g>
<!-- Node14 -->
<g id="node14" class="node">
<title>Node14</title>
<g id="a_node14"><a xlink:href="classdenoptim_1_1graph_1_1_d_graph.html#add148f4aeadcca422218448c4868e7ab" target="_top" xlink:title="Search for used ring closing vertices: vertices that contain only a RingClosingAttractor and are part...">
<polygon fill="white" stroke="black" points="760,-196.5 760,-226.5 894,-226.5 894,-196.5 760,-196.5"/>
<text text-anchor="start" x="768" y="-214.5" font-family="Helvetica,sans-Serif" font-size="10.00">denoptim.graph.DGraph.get</text>
<text text-anchor="middle" x="827" y="-203.5" font-family="Helvetica,sans-Serif" font-size="10.00">UsedRCVertices</text>
</a>
</g>
</g>
<!-- Node1&#45;&gt;Node14 -->
<g id="edge19" class="edge">
<title>Node1&#45;&gt;Node14</title>
<path fill="none" stroke="midnightblue" d="M1126.55,-211.5C1058.22,-211.5 959.14,-211.5 894.15,-211.5"/>
<polygon fill="midnightblue" stroke="midnightblue" points="1126.82,-215 1136.82,-211.5 1126.82,-208 1126.82,-215"/>
</g>
<!-- Node16 -->
<g id="node16" class="node">
<title>Node16</title>
<g id="a_node16"><a xlink:href="classdenoptim_1_1graph_1_1_d_graph.html#a8fb951a35b028bcf098b8a83d94d7e75" target="_top" xlink:title="Removes unused ring&#45;closing vertices.">
<polygon fill="white" stroke="black" points="949,-98.5 949,-128.5 1101,-128.5 1101,-98.5 949,-98.5"/>
<text text-anchor="start" x="957" y="-116.5" font-family="Helvetica,sans-Serif" font-size="10.00">denoptim.graph.DGraph.replace</text>
<text text-anchor="middle" x="1025" y="-105.5" font-family="Helvetica,sans-Serif" font-size="10.00">UnusedRCVsWithCapps</text>
</a>
</g>
</g>
<!-- Node1&#45;&gt;Node16 -->
<g id="edge20" class="edge">
<title>Node1&#45;&gt;Node16</title>
<path fill="none" stroke="midnightblue" d="M1166.68,-191.39C1133.03,-172.76 1083.72,-145.46 1053.3,-128.61"/>
<polygon fill="midnightblue" stroke="midnightblue" points="1165.29,-194.62 1175.73,-196.4 1168.68,-188.5 1165.29,-194.62"/>
</g>
<!-- Node20 -->
<g id="node20" class="node">
<title>Node20</title>
<g id="a_node20"><a xlink:href="classdenoptim_1_1graph_1_1_d_graph_test.html#a42ea1a0adbc30b78070c3096171094a9" target="_top" xlink:title=" ">
<polygon fill="white" stroke="black" points="749,-0.5 749,-30.5 905,-30.5 905,-0.5 749,-0.5"/>
<text text-anchor="start" x="757" y="-18.5" font-family="Helvetica,sans-Serif" font-size="10.00">denoptim.graph.DGraphTest.test</text>
<text text-anchor="middle" x="827" y="-7.5" font-family="Helvetica,sans-Serif" font-size="10.00">RemoveUnusedRCVs</text>
</a>
</g>
</g>
<!-- Node1&#45;&gt;Node20 -->
<g id="edge25" class="edge">
<title>Node1&#45;&gt;Node20</title>
<path fill="none" stroke="midnightblue" d="M1189.25,-187.48C1172.12,-159.72 1140.27,-114.65 1101,-89.5 1041.55,-51.43 962.79,-32.78 905.15,-23.75"/>
<polygon fill="midnightblue" stroke="midnightblue" points="1186.33,-189.41 1194.48,-196.17 1192.33,-185.8 1186.33,-189.41"/>
</g>
<!-- Node4 -->
<g id="node4" class="node">
<title>Node4</title>
<g id="a_node4"><a xlink:href="classdenoptim_1_1ga_1_1_e_a_utils.html#a8122818f58919fce84dce75e7506025a" target="_top" xlink:title=" ">
<polygon fill="white" stroke="black" points="763.5,-343.5 763.5,-373.5 890.5,-373.5 890.5,-343.5 763.5,-343.5"/>
<text text-anchor="start" x="771.5" y="-361.5" font-family="Helvetica,sans-Serif" font-size="10.00">denoptim.ga.EAUtils.build</text>
<text text-anchor="middle" x="827" y="-350.5" font-family="Helvetica,sans-Serif" font-size="10.00">CandidateByMutation</text>
</a>
</g>
</g>
<!-- Node3&#45;&gt;Node4 -->
<g id="edge3" class="edge">
<title>Node3&#45;&gt;Node4</title>
<path fill="none" stroke="midnightblue" d="M956.9,-277.27C954.15,-278.89 951.5,-280.63 949,-282.5 926.51,-299.37 935.87,-318.16 913,-334.5 906.26,-339.31 898.58,-343.16 890.66,-346.24"/>
<polygon fill="midnightblue" stroke="midnightblue" points="958.73,-280.27 965.97,-272.54 955.49,-274.06 958.73,-280.27"/>
</g>
<!-- Node11 -->
<g id="node11" class="node">
<title>Node11</title>
<g id="a_node11"><a xlink:href="classdenoptim_1_1ga_1_1_e_a_utils.html#ad3d2daeb11e68a356e971ca1846596b5" target="_top" xlink:title=" ">
<polygon fill="white" stroke="black" points="763.5,-294.5 763.5,-324.5 890.5,-324.5 890.5,-294.5 763.5,-294.5"/>
<text text-anchor="start" x="771.5" y="-312.5" font-family="Helvetica,sans-Serif" font-size="10.00">denoptim.ga.EAUtils.build</text>
<text text-anchor="middle" x="827" y="-301.5" font-family="Helvetica,sans-Serif" font-size="10.00">CandidateFromScratch</text>
</a>
</g>
</g>
<!-- Node3&#45;&gt;Node11 -->
<g id="edge11" class="edge">
<title>Node3&#45;&gt;Node11</title>
<path fill="none" stroke="midnightblue" d="M957.35,-275.18C933.69,-281.46 907.3,-288.46 884.56,-294.49"/>
<polygon fill="midnightblue" stroke="midnightblue" points="958.54,-278.49 967.31,-272.54 956.75,-271.72 958.54,-278.49"/>
</g>
<!-- Node13 -->
<g id="node13" class="node">
<title>Node13</title>
<g id="a_node13"><a xlink:href="classdenoptim_1_1ga_1_1_e_a_utils.html#a0b958439d79fae30f14530213ad22e3a" target="_top" xlink:title="Generates up to a pair of new offspring by performing a crossover operation.">
<polygon fill="white" stroke="black" points="763.5,-245.5 763.5,-275.5 890.5,-275.5 890.5,-245.5 763.5,-245.5"/>
<text text-anchor="start" x="771.5" y="-263.5" font-family="Helvetica,sans-Serif" font-size="10.00">denoptim.ga.EAUtils.build</text>
<text text-anchor="middle" x="827" y="-252.5" font-family="Helvetica,sans-Serif" font-size="10.00">CandidatesByXOver</text>
</a>
</g>
</g>
<!-- Node3&#45;&gt;Node13 -->
<g id="edge16" class="edge">
<title>Node3&#45;&gt;Node13</title>
<path fill="none" stroke="midnightblue" d="M947.87,-258.67C928.99,-258.95 908.97,-259.26 890.81,-259.54"/>
<polygon fill="midnightblue" stroke="midnightblue" points="947.97,-262.16 957.92,-258.51 947.86,-255.17 947.97,-262.16"/>
</g>
<!-- Node3&#45;&gt;Node14 -->
<g id="edge17" class="edge">
<title>Node3&#45;&gt;Node14</title>
<path fill="none" stroke="midnightblue" d="M949.98,-240.13C930.89,-235.65 910.51,-230.87 891.99,-226.52"/>
<polygon fill="midnightblue" stroke="midnightblue" points="949.29,-243.56 959.82,-242.44 950.89,-236.75 949.29,-243.56"/>
</g>
<!-- Node5 -->
<g id="node5" class="node">
<title>Node5</title>
<g id="a_node5"><a xlink:href="classdenoptim_1_1ga_1_1_evolutionary_algorithm.html#a0c2e353b243250b4959a3f86608f1020" target="_top" xlink:title="Generates one offspring according to the method where crossover and mutation are decoupled,...">
<polygon fill="white" stroke="black" points="550.5,-294.5 550.5,-324.5 680.5,-324.5 680.5,-294.5 550.5,-294.5"/>
<text text-anchor="start" x="558.5" y="-312.5" font-family="Helvetica,sans-Serif" font-size="10.00">denoptim.ga.Evolutionary</text>
<text text-anchor="middle" x="615.5" y="-301.5" font-family="Helvetica,sans-Serif" font-size="10.00">Algorithm.makeOffspringA</text>
</a>
</g>
</g>
<!-- Node4&#45;&gt;Node5 -->
<g id="edge4" class="edge">
<title>Node4&#45;&gt;Node5</title>
<path fill="none" stroke="midnightblue" d="M753.43,-341.53C729.73,-335.98 703.59,-329.87 680.56,-324.48"/>
<polygon fill="midnightblue" stroke="midnightblue" points="752.89,-345 763.43,-343.86 754.49,-338.18 752.89,-345"/>
</g>
<!-- Node10 -->
<g id="node10" class="node">
<title>Node10</title>
<g id="a_node10"><a xlink:href="classdenoptim_1_1ga_1_1_evolutionary_algorithm.html#ae7a90a911b109ed47b3acf54193acc35" target="_top" xlink:title="Generates one offspring according to the method where crossover and mutation are coupled,...">
<polygon fill="white" stroke="black" points="550.5,-343.5 550.5,-373.5 680.5,-373.5 680.5,-343.5 550.5,-343.5"/>
<text text-anchor="start" x="558.5" y="-361.5" font-family="Helvetica,sans-Serif" font-size="10.00">denoptim.ga.Evolutionary</text>
<text text-anchor="middle" x="615.5" y="-350.5" font-family="Helvetica,sans-Serif" font-size="10.00">Algorithm.makeOffspringB</text>
</a>
</g>
</g>
<!-- Node4&#45;&gt;Node10 -->
<g id="edge9" class="edge">
<title>Node4&#45;&gt;Node10</title>
<path fill="none" stroke="midnightblue" d="M753.12,-358.5C729.5,-358.5 703.49,-358.5 680.56,-358.5"/>
<polygon fill="midnightblue" stroke="midnightblue" points="753.43,-362 763.43,-358.5 753.43,-355 753.43,-362"/>
</g>
<!-- Node6 -->
<g id="node6" class="node">
<title>Node6</title>
<g id="a_node6"><a xlink:href="classdenoptim_1_1ga_1_1_evolutionary_algorithm.html#a596b2f5f0b097c5b67a6e5163bd6fe66" target="_top" xlink:title="Generates a given number of new candidate items and adds them to the current population.">
<polygon fill="white" stroke="black" points="353,-299.5 353,-329.5 487,-329.5 487,-299.5 353,-299.5"/>
<text text-anchor="start" x="361" y="-317.5" font-family="Helvetica,sans-Serif" font-size="10.00">denoptim.ga.Evolutionary</text>
<text text-anchor="middle" x="420" y="-306.5" font-family="Helvetica,sans-Serif" font-size="10.00">Algorithm.evolvePopulation</text>
</a>
</g>
</g>
<!-- Node5&#45;&gt;Node6 -->
<g id="edge5" class="edge">
<title>Node5&#45;&gt;Node6</title>
<path fill="none" stroke="midnightblue" d="M540.22,-311.42C522.8,-311.87 504.35,-312.35 487.31,-312.79"/>
<polygon fill="midnightblue" stroke="midnightblue" points="540.43,-314.92 550.34,-311.16 540.25,-307.92 540.43,-314.92"/>
</g>
<!-- Node7 -->
<g id="node7" class="node">
<title>Node7</title>
<g id="a_node7"><a xlink:href="classdenoptim_1_1ga_1_1_evolutionary_algorithm.html#a6bfc2fa59b199da6259b5b6bad3d6de7" target="_top" xlink:title=" ">
<polygon fill="white" stroke="black" points="190,-274.5 190,-304.5 314,-304.5 314,-274.5 190,-274.5"/>
<text text-anchor="start" x="198" y="-292.5" font-family="Helvetica,sans-Serif" font-size="10.00">denoptim.ga.Evolutionary</text>
<text text-anchor="middle" x="252" y="-281.5" font-family="Helvetica,sans-Serif" font-size="10.00">Algorithm.run</text>
</a>
</g>
</g>
<!-- Node6&#45;&gt;Node7 -->
<g id="edge6" class="edge">
<title>Node6&#45;&gt;Node7</title>
<path fill="none" stroke="midnightblue" d="M342.9,-303.04C333.21,-301.58 323.41,-300.1 314.01,-298.69"/>
<polygon fill="midnightblue" stroke="midnightblue" points="342.51,-306.52 352.92,-304.55 343.55,-299.6 342.51,-306.52"/>
</g>
<!-- Node8 -->
<g id="node8" class="node">
<title>Node8</title>
<g id="a_node8"><a xlink:href="classdenoptim_1_1ga_1_1_evolutionary_algorithm.html#a0f2063b722b7291daf83d62acaa683d3" target="_top" xlink:title=" ">
<polygon fill="white" stroke="black" points="0,-299.5 0,-329.5 154,-329.5 154,-299.5 0,-299.5"/>
<text text-anchor="start" x="8" y="-317.5" font-family="Helvetica,sans-Serif" font-size="10.00">denoptim.ga.Evolutionary</text>
<text text-anchor="middle" x="77" y="-306.5" font-family="Helvetica,sans-Serif" font-size="10.00">Algorithm.EvolutionaryAlgorithm</text>
</a>
</g>
</g>
<!-- Node7&#45;&gt;Node8 -->
<g id="edge7" class="edge">
<title>Node7&#45;&gt;Node8</title>
<path fill="none" stroke="midnightblue" d="M179.44,-299.84C171.09,-301.05 162.54,-302.28 154.12,-303.5"/>
<polygon fill="midnightblue" stroke="midnightblue" points="180.12,-303.28 189.52,-298.38 179.12,-296.35 180.12,-303.28"/>
</g>
<!-- Node9 -->
<g id="node9" class="node">
<title>Node9</title>
<g id="a_node9"><a xlink:href="classdenoptim_1_1programs_1_1denovo_1_1_g_a_runner.html#a7cafd6d78727b89dce3e2c8d06f0dd7c" target="_top" xlink:title=" ">
<polygon fill="white" stroke="black" points="9.5,-250.5 9.5,-280.5 144.5,-280.5 144.5,-250.5 9.5,-250.5"/>
<text text-anchor="start" x="17.5" y="-268.5" font-family="Helvetica,sans-Serif" font-size="10.00">denoptim.programs.denovo.</text>
<text text-anchor="middle" x="77" y="-257.5" font-family="Helvetica,sans-Serif" font-size="10.00">GARunner.runProgram</text>
</a>
</g>
</g>
<!-- Node7&#45;&gt;Node9 -->
<g id="edge8" class="edge">
<title>Node7&#45;&gt;Node9</title>
<path fill="none" stroke="midnightblue" d="M179.48,-279.58C167.92,-277.97 156,-276.32 144.57,-274.73"/>
<polygon fill="midnightblue" stroke="midnightblue" points="179.13,-283.06 189.52,-280.97 180.1,-276.13 179.13,-283.06"/>
</g>
<!-- Node10&#45;&gt;Node6 -->
<g id="edge10" class="edge">
<title>Node10&#45;&gt;Node6</title>
<path fill="none" stroke="midnightblue" d="M540.16,-341.6C522.65,-337.61 504.09,-333.39 486.98,-329.5"/>
<polygon fill="midnightblue" stroke="midnightblue" points="539.81,-345.11 550.34,-343.91 541.36,-338.28 539.81,-345.11"/>
</g>
<!-- Node11&#45;&gt;Node5 -->
<g id="edge14" class="edge">
<title>Node11&#45;&gt;Node5</title>
<path fill="none" stroke="midnightblue" d="M753.12,-309.5C729.5,-309.5 703.49,-309.5 680.56,-309.5"/>
<polygon fill="midnightblue" stroke="midnightblue" points="753.43,-313 763.43,-309.5 753.43,-306 753.43,-313"/>
</g>
<!-- Node11&#45;&gt;Node10 -->
<g id="edge15" class="edge">
<title>Node11&#45;&gt;Node10</title>
<path fill="none" stroke="midnightblue" d="M753.43,-326.47C729.73,-332.02 703.59,-338.13 680.56,-343.52"/>
<polygon fill="midnightblue" stroke="midnightblue" points="754.49,-329.82 763.43,-324.14 752.89,-323 754.49,-329.82"/>
</g>
<!-- Node12 -->
<g id="node12" class="node">
<title>Node12</title>
<g id="a_node12"><a xlink:href="classdenoptim_1_1ga_1_1_evolutionary_algorithm.html#ad43588620dab3340e0d8b0042ec73618" target="_top" xlink:title="Fills up the population with candidates build from scratch.">
<polygon fill="white" stroke="black" points="350,-250.5 350,-280.5 490,-280.5 490,-250.5 350,-250.5"/>
<text text-anchor="start" x="358" y="-268.5" font-family="Helvetica,sans-Serif" font-size="10.00">denoptim.ga.Evolutionary</text>
<text text-anchor="middle" x="420" y="-257.5" font-family="Helvetica,sans-Serif" font-size="10.00">Algorithm.initializePopulation</text>
</a>
</g>
</g>
<!-- Node11&#45;&gt;Node12 -->
<g id="edge12" class="edge">
<title>Node11&#45;&gt;Node12</title>
<path fill="none" stroke="midnightblue" d="M753.19,-293.52C737.37,-290.48 720.67,-287.6 705,-285.5 632,-275.73 547.77,-270.56 490.11,-267.94"/>
<polygon fill="midnightblue" stroke="midnightblue" points="752.96,-297.04 763.45,-295.54 754.31,-290.18 752.96,-297.04"/>
</g>
<!-- Node12&#45;&gt;Node7 -->
<g id="edge13" class="edge">
<title>Node12&#45;&gt;Node7</title>
<path fill="none" stroke="midnightblue" d="M339.6,-276.98C331.08,-278.21 322.5,-279.45 314.24,-280.65"/>
<polygon fill="midnightblue" stroke="midnightblue" points="340.17,-280.43 349.56,-275.54 339.16,-273.51 340.17,-280.43"/>
</g>
<!-- Node15 -->
<g id="node15" class="node">
<title>Node15</title>
<g id="a_node15"><a xlink:href="classdenoptim_1_1ga_1_1_e_a_utils.html#ab70fae45026bfeaf568f42a6b1fc0bf5" target="_top" xlink:title="Calculate the current crowdedness of the given attachment point.">
<polygon fill="white" stroke="black" points="526,-202 526,-221 705,-221 705,-202 526,-202"/>
<text text-anchor="middle" x="615.5" y="-209" font-family="Helvetica,sans-Serif" font-size="10.00">denoptim.ga.EAUtils.getCrowdedness</text>
</a>
</g>
</g>
<!-- Node14&#45;&gt;Node15 -->
<g id="edge18" class="edge">
<title>Node14&#45;&gt;Node15</title>
<path fill="none" stroke="midnightblue" d="M749.43,-211.5C735.1,-211.5 720.01,-211.5 705.35,-211.5"/>
<polygon fill="midnightblue" stroke="midnightblue" points="749.71,-215 759.71,-211.5 749.71,-208 749.71,-215"/>
</g>
<!-- Node17 -->
<g id="node17" class="node">
<title>Node17</title>
<g id="a_node17"><a xlink:href="classdenoptim_1_1combinatorial_1_1_graph_building_task.html#a3eaee724fc921194fa158714aafe182d" target="_top" xlink:title="Calls the task.">
<polygon fill="white" stroke="black" points="754.5,-147.5 754.5,-177.5 899.5,-177.5 899.5,-147.5 754.5,-147.5"/>
<text text-anchor="start" x="762.5" y="-165.5" font-family="Helvetica,sans-Serif" font-size="10.00">denoptim.combinatorial.Graph</text>
<text text-anchor="middle" x="827" y="-154.5" font-family="Helvetica,sans-Serif" font-size="10.00">BuildingTask.call</text>
</a>
</g>
</g>
<!-- Node16&#45;&gt;Node17 -->
<g id="edge21" class="edge">
<title>Node16&#45;&gt;Node17</title>
<path fill="none" stroke="midnightblue" d="M954.09,-130.98C932.49,-136.38 908.9,-142.28 888.02,-147.49"/>
<polygon fill="midnightblue" stroke="midnightblue" points="955.01,-134.36 963.86,-128.53 953.31,-127.56 955.01,-134.36"/>
</g>
<!-- Node18 -->
<g id="node18" class="node">
<title>Node18</title>
<g id="a_node18"><a xlink:href="classdenoptim_1_1ga_1_1_offspring_evaluation_task.html#aab5b9c0b8a88922460f5c28ae161d1fa" target="_top" xlink:title=" ">
<polygon fill="white" stroke="black" points="749.5,-98.5 749.5,-128.5 904.5,-128.5 904.5,-98.5 749.5,-98.5"/>
<text text-anchor="start" x="757.5" y="-116.5" font-family="Helvetica,sans-Serif" font-size="10.00">denoptim.ga.OffspringEvaluation</text>
<text text-anchor="middle" x="827" y="-105.5" font-family="Helvetica,sans-Serif" font-size="10.00">Task.call</text>
</a>
</g>
</g>
<!-- Node16&#45;&gt;Node18 -->
<g id="edge22" class="edge">
<title>Node16&#45;&gt;Node18</title>
<path fill="none" stroke="midnightblue" d="M938.51,-113.5C927.24,-113.5 915.75,-113.5 904.64,-113.5"/>
<polygon fill="midnightblue" stroke="midnightblue" points="938.78,-117 948.78,-113.5 938.78,-110 938.78,-117"/>
</g>
<!-- Node19 -->
<g id="node19" class="node">
<title>Node19</title>
<g id="a_node19"><a xlink:href="classdenoptim_1_1programs_1_1fitnessevaluator_1_1_fitness_evaluation_task.html#a498b4214d06fc161d92cf1a38635ece3" target="_top" xlink:title=" ">
<polygon fill="white" stroke="black" points="741,-49.5 741,-79.5 913,-79.5 913,-49.5 741,-49.5"/>
<text text-anchor="start" x="749" y="-67.5" font-family="Helvetica,sans-Serif" font-size="10.00">denoptim.programs.fitnessevaluator.</text>
<text text-anchor="middle" x="827" y="-56.5" font-family="Helvetica,sans-Serif" font-size="10.00">FitnessEvaluationTask.call</text>
</a>
</g>
</g>
<!-- Node16&#45;&gt;Node19 -->
<g id="edge23" class="edge">
<title>Node16&#45;&gt;Node19</title>
<path fill="none" stroke="midnightblue" d="M954.09,-96.02C932.49,-90.62 908.9,-84.72 888.02,-79.51"/>
<polygon fill="midnightblue" stroke="midnightblue" points="953.31,-99.44 963.86,-98.47 955.01,-92.64 953.31,-99.44"/>
</g>
<!-- Node16&#45;&gt;Node20 -->
<g id="edge24" class="edge">
<title>Node16&#45;&gt;Node20</title>
<path fill="none" stroke="midnightblue" d="M997.38,-92.27C975.74,-75.89 943.83,-53.7 913,-39.5 905.76,-36.16 897.95,-33.19 890.11,-30.58"/>
<polygon fill="midnightblue" stroke="midnightblue" points="995.37,-95.14 1005.44,-98.46 999.64,-89.59 995.37,-95.14"/>
</g>
</g>
</svg>
