<?xml version="1.0" encoding="UTF-8" standalone="no"?>
<!DOCTYPE svg PUBLIC "-//W3C//DTD SVG 1.1//EN"
 "http://www.w3.org/Graphics/SVG/1.1/DTD/svg11.dtd">
<!-- Generated by graphviz version 3.0.0 (20221109.1736)
 -->
<!-- Title: denoptim.graph.rings.RingClosuresArchive.getRCCsOfChain Pages: 1 -->
<svg width="1900pt" height="186pt"
 viewBox="0.00 0.00 1900.00 186.00" xmlns="http://www.w3.org/2000/svg" xmlns:xlink="http://www.w3.org/1999/xlink">
<g id="graph0" class="graph" transform="scale(1 1) rotate(0) translate(4 182)">
<title>denoptim.graph.rings.RingClosuresArchive.getRCCsOfChain</title>
<polygon fill="white" stroke="transparent" points="-4,4 -4,-182 1896,-182 1896,4 -4,4"/>
<!-- Node1 -->
<g id="node1" class="node">
<title>Node1</title>
<g id="a_node1"><a xlink:title=" ">
<polygon fill="#bfbfbf" stroke="black" points="1728,-98.5 1728,-128.5 1892,-128.5 1892,-98.5 1728,-98.5"/>
<text text-anchor="start" x="1736" y="-116.5" font-family="Helvetica,sans-Serif" font-size="10.00">denoptim.graph.rings.Ring</text>
<text text-anchor="middle" x="1810" y="-105.5" font-family="Helvetica,sans-Serif" font-size="10.00">ClosuresArchive.getRCCsOfChain</text>
</a>
</g>
</g>
<!-- Node2 -->
<g id="node2" class="node">
<title>Node2</title>
<g id="a_node2"><a xlink:href="classdenoptim_1_1graph_1_1rings_1_1_cyclic_graph_handler.html#ab2b4cde037177c1fc44191de9b023dc3" target="_top" xlink:title="Method to evaluate the closability of a single path in a graph representing a molecule.">
<polygon fill="white" stroke="black" points="1500,-98.5 1500,-128.5 1692,-128.5 1692,-98.5 1500,-98.5"/>
<text text-anchor="start" x="1508" y="-116.5" font-family="Helvetica,sans-Serif" font-size="10.00">denoptim.graph.rings.Cyclic</text>
<text text-anchor="middle" x="1596" y="-105.5" font-family="Helvetica,sans-Serif" font-size="10.00">GraphHandler.evaluate3DPathClosability</text>
</a>
</g>
</g>
<!-- Node1&#45;&gt;Node2 -->
<g id="edge1" class="edge">
<title>Node1&#45;&gt;Node2</title>
<path fill="none" stroke="midnightblue" d="M1717.72,-113.5C1709.26,-113.5 1700.69,-113.5 1692.2,-113.5"/>
<polygon fill="midnightblue" stroke="midnightblue" points="1717.94,-117 1727.94,-113.5 1717.94,-110 1717.94,-117"/>
</g>
<!-- Node3 -->
<g id="node3" class="node">
<title>Node3</title>
<g id="a_node3"><a xlink:href="classdenoptim_1_1graph_1_1rings_1_1_cyclic_graph_handler.html#abd43d52fe626625dab3da6a32038e57b" target="_top" xlink:title="Method to evaluate the closability of a single path in a graph representing a molecule.">
<polygon fill="white" stroke="black" points="1284,-98.5 1284,-128.5 1464,-128.5 1464,-98.5 1284,-98.5"/>
<text text-anchor="start" x="1292" y="-116.5" font-family="Helvetica,sans-Serif" font-size="10.00">denoptim.graph.rings.Cyclic</text>
<text text-anchor="middle" x="1374" y="-105.5" font-family="Helvetica,sans-Serif" font-size="10.00">GraphHandler.evaluatePathClosability</text>
</a>
</g>
</g>
<!-- Node2&#45;&gt;Node3 -->
<g id="edge2" class="edge">
<title>Node2&#45;&gt;Node3</title>
<path fill="none" stroke="midnightblue" d="M1489.75,-113.5C1481.17,-113.5 1472.56,-113.5 1464.11,-113.5"/>
<polygon fill="midnightblue" stroke="midnightblue" points="1489.78,-117 1499.78,-113.5 1489.78,-110 1489.78,-117"/>
</g>
<!-- Node4 -->
<g id="node4" class="node">
<title>Node4</title>
<g id="a_node4"><a xlink:href="classdenoptim_1_1graph_1_1rings_1_1_cyclic_graph_handler.html#a3ce96322723f45d9285a248ebcef94d3" target="_top" xlink:title="Identifies all possible ring closing paths and returns them as list of DENOPTIMRings ready to be appe...">
<polygon fill="white" stroke="black" points="1064,-123 1064,-164 1248,-164 1248,-123 1064,-123"/>
<text text-anchor="start" x="1072" y="-152" font-family="Helvetica,sans-Serif" font-size="10.00">denoptim.graph.rings.Cyclic</text>
<text text-anchor="start" x="1072" y="-141" font-family="Helvetica,sans-Serif" font-size="10.00">GraphHandler.getPossibleCombination</text>
<text text-anchor="middle" x="1156" y="-130" font-family="Helvetica,sans-Serif" font-size="10.00">OfRings</text>
</a>
</g>
</g>
<!-- Node3&#45;&gt;Node4 -->
<g id="edge3" class="edge">
<title>Node3&#45;&gt;Node4</title>
<path fill="none" stroke="midnightblue" d="M1273.93,-127.26C1265.41,-128.44 1256.8,-129.64 1248.34,-130.81"/>
<polygon fill="midnightblue" stroke="midnightblue" points="1274.47,-130.72 1283.9,-125.88 1273.51,-123.78 1274.47,-130.72"/>
</g>
<!-- Node18 -->
<g id="node18" class="node">
<title>Node18</title>
<g id="a_node18"><a xlink:href="classdenoptim_1_1graph_1_1rings_1_1_cyclic_graph_handler.html#a08b02946eaac7c2cbbe6e71332d702e6" target="_top" xlink:title="Identifies a random combination of ring closing paths and returns it as list of DENOPTIMRings ready t...">
<polygon fill="white" stroke="black" points="1065,-63 1065,-104 1247,-104 1247,-63 1065,-63"/>
<text text-anchor="start" x="1073" y="-92" font-family="Helvetica,sans-Serif" font-size="10.00">denoptim.graph.rings.Cyclic</text>
<text text-anchor="start" x="1073" y="-81" font-family="Helvetica,sans-Serif" font-size="10.00">GraphHandler.getRandomCombination</text>
<text text-anchor="middle" x="1156" y="-70" font-family="Helvetica,sans-Serif" font-size="10.00">OfRings</text>
</a>
</g>
</g>
<!-- Node3&#45;&gt;Node18 -->
<g id="edge21" class="edge">
<title>Node3&#45;&gt;Node18</title>
<path fill="none" stroke="midnightblue" d="M1273.92,-99.74C1265.05,-98.51 1256.09,-97.26 1247.29,-96.04"/>
<polygon fill="midnightblue" stroke="midnightblue" points="1273.51,-103.22 1283.9,-101.12 1274.47,-96.28 1273.51,-103.22"/>
</g>
<!-- Node5 -->
<g id="node5" class="node">
<title>Node5</title>
<g id="a_node5"><a xlink:href="classdenoptim_1_1graph_1_1_d_graph.html#a7a4743d014e860237f4b20703ef9779b" target="_top" xlink:title="Evaluates the possibility of closing rings in this graph and generates all alternative graphs resulti...">
<polygon fill="white" stroke="black" points="873,-137.5 873,-167.5 1028,-167.5 1028,-137.5 873,-137.5"/>
<text text-anchor="start" x="881" y="-155.5" font-family="Helvetica,sans-Serif" font-size="10.00">denoptim.graph.DGraph.make</text>
<text text-anchor="middle" x="950.5" y="-144.5" font-family="Helvetica,sans-Serif" font-size="10.00">AllGraphsWithDifferentRingSets</text>
</a>
</g>
</g>
<!-- Node4&#45;&gt;Node5 -->
<g id="edge4" class="edge">
<title>Node4&#45;&gt;Node5</title>
<path fill="none" stroke="midnightblue" d="M1053.84,-147.97C1045.2,-148.36 1036.56,-148.74 1028.16,-149.11"/>
<polygon fill="midnightblue" stroke="midnightblue" points="1054.13,-151.46 1063.96,-147.53 1053.82,-144.47 1054.13,-151.46"/>
</g>
<!-- Node7 -->
<g id="node7" class="node">
<title>Node7</title>
<g id="a_node7"><a xlink:href="classdenoptim_1_1ga_1_1_e_a_utils.html#a1ddb932d4618434d435e4f85ce5e5eb5" target="_top" xlink:title="Evaluates the possibility of closing rings in a given graph and if any ring can be closed,...">
<polygon fill="white" stroke="black" points="885,-68.5 885,-98.5 1016,-98.5 1016,-68.5 885,-68.5"/>
<text text-anchor="start" x="893" y="-86.5" font-family="Helvetica,sans-Serif" font-size="10.00">denoptim.ga.EAUtils.setup</text>
<text text-anchor="middle" x="950.5" y="-75.5" font-family="Helvetica,sans-Serif" font-size="10.00">Rings</text>
</a>
</g>
</g>
<!-- Node4&#45;&gt;Node7 -->
<g id="edge6" class="edge">
<title>Node4&#45;&gt;Node7</title>
<path fill="none" stroke="midnightblue" d="M1075.58,-120.08C1051.02,-112.84 1024.63,-105.06 1002.53,-98.54"/>
<polygon fill="midnightblue" stroke="midnightblue" points="1074.67,-123.46 1085.25,-122.94 1076.65,-116.75 1074.67,-123.46"/>
</g>
<!-- Node6 -->
<g id="node6" class="node">
<title>Node6</title>
<g id="a_node6"><a xlink:href="classdenoptim_1_1combinatorial_1_1_graph_building_task.html#a3eaee724fc921194fa158714aafe182d" target="_top" xlink:title="Calls the task.">
<polygon fill="white" stroke="black" points="692,-147.5 692,-177.5 837,-177.5 837,-147.5 692,-147.5"/>
<text text-anchor="start" x="700" y="-165.5" font-family="Helvetica,sans-Serif" font-size="10.00">denoptim.combinatorial.Graph</text>
<text text-anchor="middle" x="764.5" y="-154.5" font-family="Helvetica,sans-Serif" font-size="10.00">BuildingTask.call</text>
</a>
</g>
</g>
<!-- Node5&#45;&gt;Node6 -->
<g id="edge5" class="edge">
<title>Node5&#45;&gt;Node6</title>
<path fill="none" stroke="midnightblue" d="M862.75,-157.21C854.15,-157.68 845.49,-158.15 837.07,-158.61"/>
<polygon fill="midnightblue" stroke="midnightblue" points="863,-160.71 872.8,-156.67 862.62,-153.72 863,-160.71"/>
</g>
<!-- Node8 -->
<g id="node8" class="node">
<title>Node8</title>
<g id="a_node8"><a xlink:href="classdenoptim_1_1ga_1_1_e_a_utils.html#a8122818f58919fce84dce75e7506025a" target="_top" xlink:title=" ">
<polygon fill="white" stroke="black" points="701,-98.5 701,-128.5 828,-128.5 828,-98.5 701,-98.5"/>
<text text-anchor="start" x="709" y="-116.5" font-family="Helvetica,sans-Serif" font-size="10.00">denoptim.ga.EAUtils.build</text>
<text text-anchor="middle" x="764.5" y="-105.5" font-family="Helvetica,sans-Serif" font-size="10.00">CandidateByMutation</text>
</a>
</g>
</g>
<!-- Node7&#45;&gt;Node8 -->
<g id="edge7" class="edge">
<title>Node7&#45;&gt;Node8</title>
<path fill="none" stroke="midnightblue" d="M874.81,-95.68C859.31,-98.21 843.12,-100.84 828.1,-103.29"/>
<polygon fill="midnightblue" stroke="midnightblue" points="875.58,-99.1 884.89,-94.03 874.45,-92.19 875.58,-99.1"/>
</g>
<!-- Node15 -->
<g id="node15" class="node">
<title>Node15</title>
<g id="a_node15"><a xlink:href="classdenoptim_1_1ga_1_1_e_a_utils.html#ad3d2daeb11e68a356e971ca1846596b5" target="_top" xlink:title=" ">
<polygon fill="white" stroke="black" points="701,-49.5 701,-79.5 828,-79.5 828,-49.5 701,-49.5"/>
<text text-anchor="start" x="709" y="-67.5" font-family="Helvetica,sans-Serif" font-size="10.00">denoptim.ga.EAUtils.build</text>
<text text-anchor="middle" x="764.5" y="-56.5" font-family="Helvetica,sans-Serif" font-size="10.00">CandidateFromScratch</text>
</a>
</g>
</g>
<!-- Node7&#45;&gt;Node15 -->
<g id="edge15" class="edge">
<title>Node7&#45;&gt;Node15</title>
<path fill="none" stroke="midnightblue" d="M874.81,-75.79C859.31,-74.19 843.12,-72.52 828.1,-70.96"/>
<polygon fill="midnightblue" stroke="midnightblue" points="874.58,-79.28 884.89,-76.83 875.3,-72.32 874.58,-79.28"/>
</g>
<!-- Node17 -->
<g id="node17" class="node">
<title>Node17</title>
<g id="a_node17"><a xlink:href="classdenoptim_1_1ga_1_1_e_a_utils.html#a0b958439d79fae30f14530213ad22e3a" target="_top" xlink:title="Generates up to a pair of new offspring by performing a crossover operation.">
<polygon fill="white" stroke="black" points="701,-0.5 701,-30.5 828,-30.5 828,-0.5 701,-0.5"/>
<text text-anchor="start" x="709" y="-18.5" font-family="Helvetica,sans-Serif" font-size="10.00">denoptim.ga.EAUtils.build</text>
<text text-anchor="middle" x="764.5" y="-7.5" font-family="Helvetica,sans-Serif" font-size="10.00">CandidatesByXOver</text>
</a>
</g>
</g>
<!-- Node7&#45;&gt;Node17 -->
<g id="edge20" class="edge">
<title>Node7&#45;&gt;Node17</title>
<path fill="none" stroke="midnightblue" d="M903.13,-64.78C882.91,-56.76 858.87,-47.44 837,-39.5 828.75,-36.51 819.93,-33.43 811.39,-30.53"/>
<polygon fill="midnightblue" stroke="midnightblue" points="901.84,-68.03 912.43,-68.47 904.43,-61.53 901.84,-68.03"/>
</g>
<!-- Node9 -->
<g id="node9" class="node">
<title>Node9</title>
<g id="a_node9"><a xlink:href="classdenoptim_1_1ga_1_1_evolutionary_algorithm.html#a0c2e353b243250b4959a3f86608f1020" target="_top" xlink:title="Generates one offspring according to the method where crossover and mutation are decoupled,...">
<polygon fill="white" stroke="black" points="526,-49.5 526,-79.5 656,-79.5 656,-49.5 526,-49.5"/>
<text text-anchor="start" x="534" y="-67.5" font-family="Helvetica,sans-Serif" font-size="10.00">denoptim.ga.Evolutionary</text>
<text text-anchor="middle" x="591" y="-56.5" font-family="Helvetica,sans-Serif" font-size="10.00">Algorithm.makeOffspringA</text>
</a>
</g>
</g>
<!-- Node8&#45;&gt;Node9 -->
<g id="edge8" class="edge">
<title>Node8&#45;&gt;Node9</title>
<path fill="none" stroke="midnightblue" d="M700.87,-95.61C682.42,-90.34 662.44,-84.62 644.68,-79.55"/>
<polygon fill="midnightblue" stroke="midnightblue" points="700.07,-99.02 710.64,-98.4 701.99,-92.29 700.07,-99.02"/>
</g>
<!-- Node14 -->
<g id="node14" class="node">
<title>Node14</title>
<g id="a_node14"><a xlink:href="classdenoptim_1_1ga_1_1_evolutionary_algorithm.html#ae7a90a911b109ed47b3acf54193acc35" target="_top" xlink:title="Generates one offspring according to the method where crossover and mutation are coupled,...">
<polygon fill="white" stroke="black" points="526,-98.5 526,-128.5 656,-128.5 656,-98.5 526,-98.5"/>
<text text-anchor="start" x="534" y="-116.5" font-family="Helvetica,sans-Serif" font-size="10.00">denoptim.ga.Evolutionary</text>
<text text-anchor="middle" x="591" y="-105.5" font-family="Helvetica,sans-Serif" font-size="10.00">Algorithm.makeOffspringB</text>
</a>
</g>
</g>
<!-- Node8&#45;&gt;Node14 -->
<g id="edge13" class="edge">
<title>Node8&#45;&gt;Node14</title>
<path fill="none" stroke="midnightblue" d="M690.61,-113.5C679.12,-113.5 667.3,-113.5 656.03,-113.5"/>
<polygon fill="midnightblue" stroke="midnightblue" points="690.61,-117 700.61,-113.5 690.61,-110 690.61,-117"/>
</g>
<!-- Node10 -->
<g id="node10" class="node">
<title>Node10</title>
<g id="a_node10"><a xlink:href="classdenoptim_1_1ga_1_1_evolutionary_algorithm.html#a596b2f5f0b097c5b67a6e5163bd6fe66" target="_top" xlink:title="Generates a given number of new candidate items and adds them to the current population.">
<polygon fill="white" stroke="black" points="353,-54.5 353,-84.5 487,-84.5 487,-54.5 353,-54.5"/>
<text text-anchor="start" x="361" y="-72.5" font-family="Helvetica,sans-Serif" font-size="10.00">denoptim.ga.Evolutionary</text>
<text text-anchor="middle" x="420" y="-61.5" font-family="Helvetica,sans-Serif" font-size="10.00">Algorithm.evolvePopulation</text>
</a>
</g>
</g>
<!-- Node9&#45;&gt;Node10 -->
<g id="edge9" class="edge">
<title>Node9&#45;&gt;Node10</title>
<path fill="none" stroke="midnightblue" d="M515.48,-66.7C506.05,-66.98 496.45,-67.27 487.16,-67.54"/>
<polygon fill="midnightblue" stroke="midnightblue" points="515.73,-70.2 525.63,-66.4 515.53,-63.2 515.73,-70.2"/>
</g>
<!-- Node11 -->
<g id="node11" class="node">
<title>Node11</title>
<g id="a_node11"><a xlink:href="classdenoptim_1_1ga_1_1_evolutionary_algorithm.html#a6bfc2fa59b199da6259b5b6bad3d6de7" target="_top" xlink:title=" ">
<polygon fill="white" stroke="black" points="190,-29.5 190,-59.5 314,-59.5 314,-29.5 190,-29.5"/>
<text text-anchor="start" x="198" y="-47.5" font-family="Helvetica,sans-Serif" font-size="10.00">denoptim.ga.Evolutionary</text>
<text text-anchor="middle" x="252" y="-36.5" font-family="Helvetica,sans-Serif" font-size="10.00">Algorithm.run</text>
</a>
</g>
</g>
<!-- Node10&#45;&gt;Node11 -->
<g id="edge10" class="edge">
<title>Node10&#45;&gt;Node11</title>
<path fill="none" stroke="midnightblue" d="M342.9,-58.04C333.21,-56.58 323.41,-55.1 314.01,-53.69"/>
<polygon fill="midnightblue" stroke="midnightblue" points="342.51,-61.52 352.92,-59.55 343.55,-54.6 342.51,-61.52"/>
</g>
<!-- Node12 -->
<g id="node12" class="node">
<title>Node12</title>
<g id="a_node12"><a xlink:href="classdenoptim_1_1ga_1_1_evolutionary_algorithm.html#a0f2063b722b7291daf83d62acaa683d3" target="_top" xlink:title=" ">
<polygon fill="white" stroke="black" points="0,-54.5 0,-84.5 154,-84.5 154,-54.5 0,-54.5"/>
<text text-anchor="start" x="8" y="-72.5" font-family="Helvetica,sans-Serif" font-size="10.00">denoptim.ga.Evolutionary</text>
<text text-anchor="middle" x="77" y="-61.5" font-family="Helvetica,sans-Serif" font-size="10.00">Algorithm.EvolutionaryAlgorithm</text>
</a>
</g>
</g>
<!-- Node11&#45;&gt;Node12 -->
<g id="edge11" class="edge">
<title>Node11&#45;&gt;Node12</title>
<path fill="none" stroke="midnightblue" d="M179.44,-54.84C171.09,-56.05 162.54,-57.28 154.12,-58.5"/>
<polygon fill="midnightblue" stroke="midnightblue" points="180.12,-58.28 189.52,-53.38 179.12,-51.35 180.12,-58.28"/>
</g>
<!-- Node13 -->
<g id="node13" class="node">
<title>Node13</title>
<g id="a_node13"><a xlink:href="classdenoptim_1_1programs_1_1denovo_1_1_g_a_runner.html#a7cafd6d78727b89dce3e2c8d06f0dd7c" target="_top" xlink:title=" ">
<polygon fill="white" stroke="black" points="9.5,-5.5 9.5,-35.5 144.5,-35.5 144.5,-5.5 9.5,-5.5"/>
<text text-anchor="start" x="17.5" y="-23.5" font-family="Helvetica,sans-Serif" font-size="10.00">denoptim.programs.denovo.</text>
<text text-anchor="middle" x="77" y="-12.5" font-family="Helvetica,sans-Serif" font-size="10.00">GARunner.runProgram</text>
</a>
</g>
</g>
<!-- Node11&#45;&gt;Node13 -->
<g id="edge12" class="edge">
<title>Node11&#45;&gt;Node13</title>
<path fill="none" stroke="midnightblue" d="M179.48,-34.58C167.92,-32.97 156,-31.32 144.57,-29.73"/>
<polygon fill="midnightblue" stroke="midnightblue" points="179.13,-38.06 189.52,-35.97 180.1,-31.13 179.13,-38.06"/>
</g>
<!-- Node14&#45;&gt;Node10 -->
<g id="edge14" class="edge">
<title>Node14&#45;&gt;Node10</title>
<path fill="none" stroke="midnightblue" d="M522.42,-95.91C507.95,-92.14 492.78,-88.19 478.71,-84.53"/>
<polygon fill="midnightblue" stroke="midnightblue" points="521.75,-99.35 532.31,-98.48 523.52,-92.57 521.75,-99.35"/>
</g>
<!-- Node15&#45;&gt;Node9 -->
<g id="edge18" class="edge">
<title>Node15&#45;&gt;Node9</title>
<path fill="none" stroke="midnightblue" d="M690.61,-64.5C679.12,-64.5 667.3,-64.5 656.03,-64.5"/>
<polygon fill="midnightblue" stroke="midnightblue" points="690.61,-68 700.61,-64.5 690.61,-61 690.61,-68"/>
</g>
<!-- Node15&#45;&gt;Node14 -->
<g id="edge19" class="edge">
<title>Node15&#45;&gt;Node14</title>
<path fill="none" stroke="midnightblue" d="M700.87,-82.39C682.42,-87.66 662.44,-93.38 644.68,-98.45"/>
<polygon fill="midnightblue" stroke="midnightblue" points="701.99,-85.71 710.64,-79.6 700.07,-78.98 701.99,-85.71"/>
</g>
<!-- Node16 -->
<g id="node16" class="node">
<title>Node16</title>
<g id="a_node16"><a xlink:href="classdenoptim_1_1ga_1_1_evolutionary_algorithm.html#ad43588620dab3340e0d8b0042ec73618" target="_top" xlink:title="Fills up the population with candidates build from scratch.">
<polygon fill="white" stroke="black" points="350,-5.5 350,-35.5 490,-35.5 490,-5.5 350,-5.5"/>
<text text-anchor="start" x="358" y="-23.5" font-family="Helvetica,sans-Serif" font-size="10.00">denoptim.ga.Evolutionary</text>
<text text-anchor="middle" x="420" y="-12.5" font-family="Helvetica,sans-Serif" font-size="10.00">Algorithm.initializePopulation</text>
</a>
</g>
</g>
<!-- Node15&#45;&gt;Node16 -->
<g id="edge16" class="edge">
<title>Node15&#45;&gt;Node16</title>
<path fill="none" stroke="midnightblue" d="M696.09,-47.22C682.87,-44.28 669.05,-41.53 656,-39.5 600.59,-30.87 537.19,-26.03 490.21,-23.4"/>
<polygon fill="midnightblue" stroke="midnightblue" points="695.54,-50.68 706.06,-49.49 697.09,-43.86 695.54,-50.68"/>
</g>
<!-- Node16&#45;&gt;Node11 -->
<g id="edge17" class="edge">
<title>Node16&#45;&gt;Node11</title>
<path fill="none" stroke="midnightblue" d="M339.6,-31.98C331.08,-33.21 322.5,-34.45 314.24,-35.65"/>
<polygon fill="midnightblue" stroke="midnightblue" points="340.17,-35.43 349.56,-30.54 339.16,-28.51 340.17,-35.43"/>
</g>
<!-- Node18&#45;&gt;Node7 -->
<g id="edge22" class="edge">
<title>Node18&#45;&gt;Node7</title>
<path fill="none" stroke="midnightblue" d="M1054.84,-83.5C1041.72,-83.5 1028.56,-83.5 1016.24,-83.5"/>
<polygon fill="midnightblue" stroke="midnightblue" points="1054.85,-87 1064.85,-83.5 1054.85,-80 1054.85,-87"/>
</g>
</g>
</svg>
