<?xml version="1.0" encoding="UTF-8" standalone="no"?>
<!DOCTYPE svg PUBLIC "-//W3C//DTD SVG 1.1//EN"
 "http://www.w3.org/Graphics/SVG/1.1/DTD/svg11.dtd">
<!-- Generated by graphviz version 3.0.0 (20221109.1736)
 -->
<!-- Title: denoptim.json.DENOPTIMgson.getWriter Pages: 1 -->
<!--zoomable 555 -->
<svg id="main" version="1.1" xmlns="http://www.w3.org/2000/svg" xmlns:xlink="http://www.w3.org/1999/xlink" xml:space="preserve" onload="init(evt)">
<style type="text/css"><![CDATA[
.edge:hover path { stroke: red; }
.edge:hover polygon { stroke: red; fill: red; }
]]></style>
<script type="text/javascript"><![CDATA[
var edges = document.getElementsByTagName('g');
if (edges && edges.length) {
  for (var i=0;i<edges.length;i++) {
    if (edges[i].id.substr(0,4)=='edge') {
      edges[i].setAttribute('class','edge');
    }
  }
}
]]></script>
        <defs>
                <circle id="rim" cx="0" cy="0" r="7"/>
                <circle id="rim2" cx="0" cy="0" r="3.5"/>
                <g id="zoomPlus">
                        <use xlink:href="#rim" fill="#404040">
                                <set attributeName="fill" to="#808080" begin="zoomplus.mouseover" end="zoomplus.mouseout"/>
                        </use>
                        <path d="M-4,0h8M0,-4v8" fill="none" stroke="white" stroke-width="1.5" pointer-events="none"/>
                </g>
                <g id="zoomMin">
                        <use xlink:href="#rim" fill="#404040">
                                <set attributeName="fill" to="#808080" begin="zoomminus.mouseover" end="zoomminus.mouseout"/>
                        </use>
                        <path d="M-4,0h8" fill="none" stroke="white" stroke-width="1.5" pointer-events="none"/>
                </g>
                <g id="dirArrow">
                        <path fill="none" stroke="white" stroke-width="1.5" d="M0,-3.0v7 M-2.5,-0.5L0,-3.0L2.5,-0.5"/>
                </g>
               <g id="resetDef">
                       <use xlink:href="#rim2" fill="#404040">
                               <set attributeName="fill" to="#808080" begin="reset.mouseover" end="reset.mouseout"/>
                       </use>
               </g>
        </defs>

<script type="text/javascript">
var viewWidth = 1292;
var viewHeight = 555;
var sectionId = 'dynsection-7';
</script>
<script xlink:href="svgpan.js"/>
<svg id="graph" class="graph">
<g id="viewport">
<title>denoptim.json.DENOPTIMgson.getWriter</title>
<polygon fill="white" stroke="transparent" points="-4,4 -4,-551 1288,-551 1288,4 -4,4"/>
<!-- Node1 -->
<g id="node1" class="node">
<title>Node1</title>
<g id="a_node1"><a xlink:title=" ">
<polygon fill="#bfbfbf" stroke="black" points="1117,-336.5 1117,-366.5 1284,-366.5 1284,-336.5 1117,-336.5"/>
<text text-anchor="start" x="1125" y="-354.5" font-family="Helvetica,sans-Serif" font-size="10.00">denoptim.json.DENOPTIMgson.get</text>
<text text-anchor="middle" x="1200.5" y="-343.5" font-family="Helvetica,sans-Serif" font-size="10.00">Writer</text>
</a>
</g>
</g>
<!-- Node2 -->
<g id="node2" class="node">
<title>Node2</title>
<g id="a_node2"><a xlink:href="classdenoptim_1_1json_1_1_d_e_n_o_p_t_i_mgson_test.html#a7bede1a04240600341a5b55e07784de7" target="_top" xlink:title=" ">
<polygon fill="white" stroke="black" points="881,-516.5 881,-546.5 1081,-546.5 1081,-516.5 881,-516.5"/>
<text text-anchor="start" x="889" y="-534.5" font-family="Helvetica,sans-Serif" font-size="10.00">denoptim.json.DENOPTIMgson</text>
<text text-anchor="middle" x="981" y="-523.5" font-family="Helvetica,sans-Serif" font-size="10.00">Test.testIAtomContainerToJSONAndBack</text>
</a>
</g>
</g>
<!-- Node1&#45;&gt;Node2 -->
<g id="edge1" class="edge">
<title>Node1&#45;&gt;Node2</title>
<path fill="none" stroke="midnightblue" d="M1187.93,-375.68C1170.03,-410.42 1132.24,-473.96 1081,-507.5 1075.82,-510.89 1070.21,-513.8 1064.37,-516.3"/>
<polygon fill="midnightblue" stroke="midnightblue" points="1191.09,-377.2 1192.45,-366.69 1184.83,-374.05 1191.09,-377.2"/>
</g>
<!-- Node3 -->
<g id="node3" class="node">
<title>Node3</title>
<g id="a_node3"><a xlink:href="classdenoptim_1_1json_1_1_d_e_n_o_p_t_i_mgson_test.html#ac2186d67581bef7c19379247af6672d6" target="_top" xlink:title=" ">
<polygon fill="white" stroke="black" points="885.5,-467.5 885.5,-497.5 1076.5,-497.5 1076.5,-467.5 885.5,-467.5"/>
<text text-anchor="start" x="893.5" y="-485.5" font-family="Helvetica,sans-Serif" font-size="10.00">denoptim.json.DENOPTIMgson</text>
<text text-anchor="middle" x="981" y="-474.5" font-family="Helvetica,sans-Serif" font-size="10.00">Test.testMolecularFragmentSerialization</text>
</a>
</g>
</g>
<!-- Node1&#45;&gt;Node3 -->
<g id="edge2" class="edge">
<title>Node1&#45;&gt;Node3</title>
<path fill="none" stroke="midnightblue" d="M1180.32,-374.61C1158.71,-399.13 1121.29,-437.21 1081,-458.5 1074.51,-461.93 1067.52,-464.88 1060.37,-467.41"/>
<polygon fill="midnightblue" stroke="midnightblue" points="1183.13,-376.71 1187.03,-366.86 1177.84,-372.13 1183.13,-376.71"/>
</g>
<!-- Node4 -->
<g id="node4" class="node">
<title>Node4</title>
<g id="a_node4"><a xlink:href="classdenoptim_1_1json_1_1_d_e_n_o_p_t_i_mgson_test.html#a78e6eb5e60124f63897dd28e1c21082d" target="_top" xlink:title=" ">
<polygon fill="white" stroke="black" points="905,-418.5 905,-448.5 1057,-448.5 1057,-418.5 905,-418.5"/>
<text text-anchor="start" x="913" y="-436.5" font-family="Helvetica,sans-Serif" font-size="10.00">denoptim.json.DENOPTIMgson</text>
<text text-anchor="middle" x="981" y="-425.5" font-family="Helvetica,sans-Serif" font-size="10.00">Test.testTemplateSerialization</text>
</a>
</g>
</g>
<!-- Node1&#45;&gt;Node4 -->
<g id="edge3" class="edge">
<title>Node1&#45;&gt;Node4</title>
<path fill="none" stroke="midnightblue" d="M1162.88,-371.48C1139.87,-383.43 1109.29,-398.24 1081,-408.5 1070.83,-412.19 1059.89,-415.53 1049.12,-418.5"/>
<polygon fill="midnightblue" stroke="midnightblue" points="1164.71,-374.47 1171.93,-366.72 1161.45,-368.28 1164.71,-374.47"/>
</g>
<!-- Node5 -->
<g id="node5" class="node">
<title>Node5</title>
<g id="a_node5"><a xlink:href="classdenoptim_1_1graph_1_1_d_graph.html#a08540fffa962c2b5cf4461ace5f2429d" target="_top" xlink:title="Produces a string that represents this graph and that adheres to the JSON format.">
<polygon fill="white" stroke="black" points="906.5,-380 906.5,-399 1055.5,-399 1055.5,-380 906.5,-380"/>
<text text-anchor="middle" x="981" y="-387" font-family="Helvetica,sans-Serif" font-size="10.00">denoptim.graph.DGraph.toJson</text>
</a>
</g>
</g>
<!-- Node1&#45;&gt;Node5 -->
<g id="edge4" class="edge">
<title>Node1&#45;&gt;Node5</title>
<path fill="none" stroke="midnightblue" d="M1107.1,-367.64C1083.04,-371.85 1057.9,-376.24 1036.52,-379.98"/>
<polygon fill="midnightblue" stroke="midnightblue" points="1107.71,-371.09 1116.96,-365.92 1106.51,-364.19 1107.71,-371.09"/>
</g>
<!-- Node10 -->
<g id="node10" class="node">
<title>Node10</title>
<g id="a_node10"><a xlink:href="classdenoptim_1_1graph_1_1_empty_vertex.html#ac03be5e473026561da70e1b3d626604c" target="_top" xlink:title="Produces a string that represents this vertex and that adheres to the JSON format.">
<polygon fill="white" stroke="black" points="895.5,-266 895.5,-285 1066.5,-285 1066.5,-266 895.5,-266"/>
<text text-anchor="middle" x="981" y="-273" font-family="Helvetica,sans-Serif" font-size="10.00">denoptim.graph.EmptyVertex.toJson</text>
</a>
</g>
</g>
<!-- Node1&#45;&gt;Node10 -->
<g id="edge9" class="edge">
<title>Node1&#45;&gt;Node10</title>
<path fill="none" stroke="midnightblue" d="M1163.99,-331.43C1140.97,-319.17 1109.96,-304.06 1081,-294.5 1069.53,-290.71 1057.06,-287.59 1044.95,-285.04"/>
<polygon fill="midnightblue" stroke="midnightblue" points="1162.57,-334.64 1173.03,-336.31 1165.9,-328.48 1162.57,-334.64"/>
</g>
<!-- Node13 -->
<g id="node13" class="node">
<title>Node13</title>
<g id="a_node13"><a xlink:href="classdenoptim_1_1graph_1_1_fragment.html#ae6eda4ad75040f50d899bee8dfe05502" target="_top" xlink:title="Produces a string that represents this vertex and that adheres to the JSON format.">
<polygon fill="white" stroke="black" points="902,-342 902,-361 1060,-361 1060,-342 902,-342"/>
<text text-anchor="middle" x="981" y="-349" font-family="Helvetica,sans-Serif" font-size="10.00">denoptim.graph.Fragment.toJson</text>
</a>
</g>
</g>
<!-- Node1&#45;&gt;Node13 -->
<g id="edge12" class="edge">
<title>Node1&#45;&gt;Node13</title>
<path fill="none" stroke="midnightblue" d="M1106.83,-351.5C1091.29,-351.5 1075.3,-351.5 1060.18,-351.5"/>
<polygon fill="midnightblue" stroke="midnightblue" points="1106.96,-355 1116.96,-351.5 1106.96,-348 1106.96,-355"/>
</g>
<!-- Node14 -->
<g id="node14" class="node">
<title>Node14</title>
<g id="a_node14"><a xlink:href="classdenoptim_1_1graph_1_1_template.html#affbc6ea7a008d8e615f3e3c99641ad30" target="_top" xlink:title="Produces a string that represents this vertex and that adheres to the JSON format.">
<polygon fill="white" stroke="black" points="902.5,-304 902.5,-323 1059.5,-323 1059.5,-304 902.5,-304"/>
<text text-anchor="middle" x="981" y="-311" font-family="Helvetica,sans-Serif" font-size="10.00">denoptim.graph.Template.toJson</text>
</a>
</g>
</g>
<!-- Node1&#45;&gt;Node14 -->
<g id="edge14" class="edge">
<title>Node1&#45;&gt;Node14</title>
<path fill="none" stroke="midnightblue" d="M1107.1,-335.36C1083.04,-331.15 1057.9,-326.76 1036.52,-323.02"/>
<polygon fill="midnightblue" stroke="midnightblue" points="1106.51,-338.81 1116.96,-337.08 1107.71,-331.91 1106.51,-338.81"/>
</g>
<!-- Node15 -->
<g id="node15" class="node">
<title>Node15</title>
<g id="a_node15"><a xlink:href="classdenoptim_1_1io_1_1_denoptim_i_o.html#a26675b858b0472e03a29d517db448a30" target="_top" xlink:title="Writes the graphs to JSON file.">
<polygon fill="white" stroke="black" points="909.5,-206.5 909.5,-236.5 1052.5,-236.5 1052.5,-206.5 909.5,-206.5"/>
<text text-anchor="start" x="917.5" y="-224.5" font-family="Helvetica,sans-Serif" font-size="10.00">denoptim.io.DenoptimIO.write</text>
<text text-anchor="middle" x="981" y="-213.5" font-family="Helvetica,sans-Serif" font-size="10.00">GraphsToJSON</text>
</a>
</g>
</g>
<!-- Node1&#45;&gt;Node15 -->
<g id="edge16" class="edge">
<title>Node1&#45;&gt;Node15</title>
<path fill="none" stroke="midnightblue" d="M1176.85,-329.43C1154.17,-308.33 1117.48,-276.8 1081,-256.5 1066.66,-248.52 1050.17,-241.83 1034.81,-236.5"/>
<polygon fill="midnightblue" stroke="midnightblue" points="1174.59,-332.11 1184.26,-336.43 1179.39,-327.02 1174.59,-332.11"/>
</g>
<!-- Node27 -->
<g id="node27" class="node">
<title>Node27</title>
<g id="a_node27"><a xlink:href="classdenoptim_1_1io_1_1_denoptim_i_o.html#a843532de9a6df16d77f028c1b7a4fc9e" target="_top" xlink:title="Writes vertexes to JSON file.">
<polygon fill="white" stroke="black" points="909.5,-157.5 909.5,-187.5 1052.5,-187.5 1052.5,-157.5 909.5,-157.5"/>
<text text-anchor="start" x="917.5" y="-175.5" font-family="Helvetica,sans-Serif" font-size="10.00">denoptim.io.DenoptimIO.write</text>
<text text-anchor="middle" x="981" y="-164.5" font-family="Helvetica,sans-Serif" font-size="10.00">VertexesToJSON</text>
</a>
</g>
</g>
<!-- Node1&#45;&gt;Node27 -->
<g id="edge28" class="edge">
<title>Node1&#45;&gt;Node27</title>
<path fill="none" stroke="midnightblue" d="M1187.53,-327.17C1169.36,-292.84 1131.52,-230.68 1081,-197.5 1072.41,-191.86 1062.62,-187.49 1052.63,-184.1"/>
<polygon fill="midnightblue" stroke="midnightblue" points="1184.43,-328.79 1192.13,-336.07 1190.65,-325.58 1184.43,-328.79"/>
</g>
<!-- Node6 -->
<g id="node6" class="node">
<title>Node6</title>
<g id="a_node6"><a xlink:href="classdenoptim_1_1ga_1_1_offspring_evaluation_task.html#aab5b9c0b8a88922460f5c28ae161d1fa" target="_top" xlink:title=" ">
<polygon fill="white" stroke="black" points="669.5,-500.5 669.5,-530.5 824.5,-530.5 824.5,-500.5 669.5,-500.5"/>
<text text-anchor="start" x="677.5" y="-518.5" font-family="Helvetica,sans-Serif" font-size="10.00">denoptim.ga.OffspringEvaluation</text>
<text text-anchor="middle" x="747" y="-507.5" font-family="Helvetica,sans-Serif" font-size="10.00">Task.call</text>
</a>
</g>
</g>
<!-- Node5&#45;&gt;Node6 -->
<g id="edge5" class="edge">
<title>Node5&#45;&gt;Node6</title>
<path fill="none" stroke="midnightblue" d="M896.69,-399.89C891.08,-402.49 885.77,-405.66 881,-409.5 850.01,-434.47 875.45,-465.86 845,-491.5 839.03,-496.53 832.16,-500.53 824.89,-503.71"/>
<polygon fill="midnightblue" stroke="midnightblue" points="898.39,-402.98 906.38,-396.02 895.8,-396.48 898.39,-402.98"/>
</g>
<!-- Node7 -->
<g id="node7" class="node">
<title>Node7</title>
<g id="a_node7"><a xlink:href="classdenoptim_1_1graph_1_1_candidate.html#ace97fc2021ebb11463e062dddbec6aac" target="_top" xlink:title="Returns an atom container representing this item in a way that is compatible for writing this item to...">
<polygon fill="white" stroke="black" points="657.5,-451.5 657.5,-481.5 836.5,-481.5 836.5,-451.5 657.5,-451.5"/>
<text text-anchor="start" x="665.5" y="-469.5" font-family="Helvetica,sans-Serif" font-size="10.00">denoptim.graph.Candidate.get</text>
<text text-anchor="middle" x="747" y="-458.5" font-family="Helvetica,sans-Serif" font-size="10.00">FitnessProviderOutputRepresentation</text>
</a>
</g>
</g>
<!-- Node5&#45;&gt;Node7 -->
<g id="edge6" class="edge">
<title>Node5&#45;&gt;Node7</title>
<path fill="none" stroke="midnightblue" d="M898.84,-402.07C892.66,-404.17 886.64,-406.63 881,-409.5 861.65,-419.34 864.13,-432.24 845,-442.5 838.58,-445.94 831.65,-448.9 824.56,-451.44"/>
<polygon fill="midnightblue" stroke="midnightblue" points="900.12,-405.33 908.64,-399.04 898.05,-398.64 900.12,-405.33"/>
</g>
<!-- Node8 -->
<g id="node8" class="node">
<title>Node8</title>
<g id="a_node8"><a xlink:href="classdenoptim_1_1graph_1_1_d_graph_test.html#a0091493800250a2794af19f597241126" target="_top" xlink:title=" ">
<polygon fill="white" stroke="black" points="669,-402.5 669,-432.5 825,-432.5 825,-402.5 669,-402.5"/>
<text text-anchor="start" x="677" y="-420.5" font-family="Helvetica,sans-Serif" font-size="10.00">denoptim.graph.DGraphTest.test</text>
<text text-anchor="middle" x="747" y="-409.5" font-family="Helvetica,sans-Serif" font-size="10.00">FromToJSON</text>
</a>
</g>
</g>
<!-- Node5&#45;&gt;Node8 -->
<g id="edge7" class="edge">
<title>Node5&#45;&gt;Node8</title>
<path fill="none" stroke="midnightblue" d="M896.12,-399.62C872.94,-402.42 847.91,-405.44 825.13,-408.19"/>
<polygon fill="midnightblue" stroke="midnightblue" points="896.77,-403.07 906.27,-398.4 895.93,-396.12 896.77,-403.07"/>
</g>
<!-- Node9 -->
<g id="node9" class="node">
<title>Node9</title>
<g id="a_node9"><a xlink:href="classdenoptim_1_1io_1_1_denoptim_i_o_test.html#a716f5e1ae52b617c411ab57cb83ee78a" target="_top" xlink:title=" ">
<polygon fill="white" stroke="black" points="655,-353.5 655,-383.5 839,-383.5 839,-353.5 655,-353.5"/>
<text text-anchor="start" x="663" y="-371.5" font-family="Helvetica,sans-Serif" font-size="10.00">denoptim.io.DenoptimIOTest.test</text>
<text text-anchor="middle" x="747" y="-360.5" font-family="Helvetica,sans-Serif" font-size="10.00">SerializeDeserializeDENOPTIMGraphs</text>
</a>
</g>
</g>
<!-- Node5&#45;&gt;Node9 -->
<g id="edge8" class="edge">
<title>Node5&#45;&gt;Node9</title>
<path fill="none" stroke="midnightblue" d="M896.11,-381.91C877.58,-380.23 857.85,-378.44 839.05,-376.74"/>
<polygon fill="midnightblue" stroke="midnightblue" points="896,-385.41 906.27,-382.83 896.63,-378.44 896,-385.41"/>
</g>
<!-- Node11 -->
<g id="node11" class="node">
<title>Node11</title>
<g id="a_node11"><a xlink:href="classdenoptim_1_1graph_1_1_vertex_test.html#a903343147e9c65e098a01e6210426817" target="_top" xlink:title=" ">
<polygon fill="white" stroke="black" points="671.5,-304.5 671.5,-334.5 822.5,-334.5 822.5,-304.5 671.5,-304.5"/>
<text text-anchor="start" x="679.5" y="-322.5" font-family="Helvetica,sans-Serif" font-size="10.00">denoptim.graph.VertexTest.test</text>
<text text-anchor="middle" x="747" y="-311.5" font-family="Helvetica,sans-Serif" font-size="10.00">FromToJSON_minimal</text>
</a>
</g>
</g>
<!-- Node10&#45;&gt;Node11 -->
<g id="edge10" class="edge">
<title>Node10&#45;&gt;Node11</title>
<path fill="none" stroke="midnightblue" d="M919.5,-286.98C889.97,-292.57 854.17,-299.36 822.93,-305.29"/>
<polygon fill="midnightblue" stroke="midnightblue" points="920.49,-290.35 929.66,-285.05 919.18,-283.47 920.49,-290.35"/>
</g>
<!-- Node12 -->
<g id="node12" class="node">
<title>Node12</title>
<g id="a_node12"><a xlink:href="classdenoptim_1_1graph_1_1_vertex_test.html#ab6ce947fc1d3da108bfc82cb6615da2a" target="_top" xlink:title=" ">
<polygon fill="white" stroke="black" points="664,-255.5 664,-285.5 830,-285.5 830,-255.5 664,-255.5"/>
<text text-anchor="start" x="672" y="-273.5" font-family="Helvetica,sans-Serif" font-size="10.00">denoptim.graph.VertexTest.test</text>
<text text-anchor="middle" x="747" y="-262.5" font-family="Helvetica,sans-Serif" font-size="10.00">FromToJSON_withSymmetricAPs</text>
</a>
</g>
</g>
<!-- Node10&#45;&gt;Node12 -->
<g id="edge11" class="edge">
<title>Node10&#45;&gt;Node12</title>
<path fill="none" stroke="midnightblue" d="M885.21,-273.46C866.96,-273.06 847.99,-272.66 830.19,-272.27"/>
<polygon fill="midnightblue" stroke="midnightblue" points="885.18,-276.96 895.26,-273.67 885.34,-269.96 885.18,-276.96"/>
</g>
<!-- Node13&#45;&gt;Node11 -->
<g id="edge13" class="edge">
<title>Node13&#45;&gt;Node11</title>
<path fill="none" stroke="midnightblue" d="M901.09,-340.62C875.76,-337.12 847.8,-333.27 822.78,-329.81"/>
<polygon fill="midnightblue" stroke="midnightblue" points="900.64,-344.09 911.02,-341.99 901.59,-337.15 900.64,-344.09"/>
</g>
<!-- Node14&#45;&gt;Node11 -->
<g id="edge15" class="edge">
<title>Node14&#45;&gt;Node11</title>
<path fill="none" stroke="midnightblue" d="M892.36,-315.77C869.44,-316.36 844.93,-316.99 822.75,-317.57"/>
<polygon fill="midnightblue" stroke="midnightblue" points="892.52,-319.26 902.42,-315.51 892.34,-312.27 892.52,-319.26"/>
</g>
<!-- Node16 -->
<g id="node16" class="node">
<title>Node16</title>
<g id="a_node16"><a xlink:href="classdenoptim_1_1fragspace_1_1_fragment_space.html#a32b0be109306e9c81fc830867296bc66" target="_top" xlink:title="Extracts a system of one or more fused rings and adds them to the fragment space if not already prese...">
<polygon fill="white" stroke="black" points="649,-206.5 649,-236.5 845,-236.5 845,-206.5 649,-206.5"/>
<text text-anchor="start" x="657" y="-224.5" font-family="Helvetica,sans-Serif" font-size="10.00">denoptim.fragspace.Fragment</text>
<text text-anchor="middle" x="747" y="-213.5" font-family="Helvetica,sans-Serif" font-size="10.00">Space.addFusedRingsToFragmentLibrary</text>
</a>
</g>
</g>
<!-- Node15&#45;&gt;Node16 -->
<g id="edge17" class="edge">
<title>Node15&#45;&gt;Node16</title>
<path fill="none" stroke="midnightblue" d="M899.31,-221.5C881.84,-221.5 863.18,-221.5 845.15,-221.5"/>
<polygon fill="midnightblue" stroke="midnightblue" points="899.45,-225 909.45,-221.5 899.45,-218 899.45,-225"/>
</g>
<!-- Node17 -->
<g id="node17" class="node">
<title>Node17</title>
<g id="a_node17"><a xlink:href="classdenoptim_1_1io_1_1_denoptim_i_o.html#a99f65e1d8dba2217d95e75deac5b0e52" target="_top" xlink:title="Writes the graphs to file.">
<polygon fill="white" stroke="black" points="675.5,-157.5 675.5,-187.5 818.5,-187.5 818.5,-157.5 675.5,-157.5"/>
<text text-anchor="start" x="683.5" y="-175.5" font-family="Helvetica,sans-Serif" font-size="10.00">denoptim.io.DenoptimIO.write</text>
<text text-anchor="middle" x="747" y="-164.5" font-family="Helvetica,sans-Serif" font-size="10.00">GraphsToFile</text>
</a>
</g>
</g>
<!-- Node15&#45;&gt;Node17 -->
<g id="edge18" class="edge">
<title>Node15&#45;&gt;Node17</title>
<path fill="none" stroke="midnightblue" d="M899.5,-204.5C873.18,-198.94 844.16,-192.81 818.62,-187.41"/>
<polygon fill="midnightblue" stroke="midnightblue" points="898.94,-207.96 909.45,-206.6 900.39,-201.11 898.94,-207.96"/>
</g>
<!-- Node21 -->
<g id="node21" class="node">
<title>Node21</title>
<g id="a_node21"><a xlink:href="classdenoptim_1_1io_1_1_denoptim_i_o.html#ab38de9f2630baab2d129b844b6968060" target="_top" xlink:title="Writes the graph to JSON file.">
<polygon fill="white" stroke="black" points="675.5,-76.5 675.5,-106.5 818.5,-106.5 818.5,-76.5 675.5,-76.5"/>
<text text-anchor="start" x="683.5" y="-94.5" font-family="Helvetica,sans-Serif" font-size="10.00">denoptim.io.DenoptimIO.write</text>
<text text-anchor="middle" x="747" y="-83.5" font-family="Helvetica,sans-Serif" font-size="10.00">GraphToJSON</text>
</a>
</g>
</g>
<!-- Node15&#45;&gt;Node21 -->
<g id="edge22" class="edge">
<title>Node15&#45;&gt;Node21</title>
<path fill="none" stroke="midnightblue" d="M899.55,-207.24C893.02,-204.53 886.74,-201.32 881,-197.5 858.51,-182.52 865.06,-166.61 845,-148.5 825.86,-131.23 800.67,-116.61 780.76,-106.51"/>
<polygon fill="midnightblue" stroke="midnightblue" points="898.67,-210.64 909.26,-210.84 901.11,-204.08 898.67,-210.64"/>
</g>
<!-- Node18 -->
<g id="node18" class="node">
<title>Node18</title>
<g id="a_node18"><a xlink:href="classdenoptim_1_1gui_1_1_g_u_i_graph_handler.html#af5b000c105018cbd7c262b34f9750044" target="_top" xlink:title="Initialize the panel and add buttons.">
<polygon fill="white" stroke="black" points="425,-207 425,-226 613,-226 613,-207 425,-207"/>
<text text-anchor="middle" x="519" y="-214" font-family="Helvetica,sans-Serif" font-size="10.00">denoptim.gui.GUIGraphHandler.initialize</text>
</a>
</g>
</g>
<!-- Node17&#45;&gt;Node18 -->
<g id="edge19" class="edge">
<title>Node17&#45;&gt;Node18</title>
<path fill="none" stroke="midnightblue" d="M665.55,-188.16C633.28,-194.45 597.14,-201.48 568.95,-206.97"/>
<polygon fill="midnightblue" stroke="midnightblue" points="666.27,-191.59 675.42,-186.24 664.94,-184.72 666.27,-191.59"/>
</g>
<!-- Node20 -->
<g id="node20" class="node">
<title>Node20</title>
<g id="a_node20"><a xlink:href="classdenoptim_1_1programs_1_1grapheditor_1_1_graph_editor.html#a649a62e3d4635ef4c19424fa49e6dcd4" target="_top" xlink:title=" ">
<polygon fill="white" stroke="black" points="443,-157.5 443,-187.5 595,-187.5 595,-157.5 443,-157.5"/>
<text text-anchor="start" x="451" y="-175.5" font-family="Helvetica,sans-Serif" font-size="10.00">denoptim.programs.grapheditor.</text>
<text text-anchor="middle" x="519" y="-164.5" font-family="Helvetica,sans-Serif" font-size="10.00">GraphEditor.runProgram</text>
</a>
</g>
</g>
<!-- Node17&#45;&gt;Node20 -->
<g id="edge21" class="edge">
<title>Node17&#45;&gt;Node20</title>
<path fill="none" stroke="midnightblue" d="M665.4,-172.5C642.51,-172.5 617.68,-172.5 595.13,-172.5"/>
<polygon fill="midnightblue" stroke="midnightblue" points="665.42,-176 675.42,-172.5 665.42,-169 665.42,-176"/>
</g>
<!-- Node19 -->
<g id="node19" class="node">
<title>Node19</title>
<g id="a_node19"><a xlink:href="classdenoptim_1_1gui_1_1_g_u_i_graph_handler.html#ab7d010d9a384f6b85edce47c95d6723b" target="_top" xlink:title="Constructor.">
<polygon fill="white" stroke="black" points="225.5,-201.5 225.5,-231.5 379.5,-231.5 379.5,-201.5 225.5,-201.5"/>
<text text-anchor="start" x="233.5" y="-219.5" font-family="Helvetica,sans-Serif" font-size="10.00">denoptim.gui.GUIGraphHandler.</text>
<text text-anchor="middle" x="302.5" y="-208.5" font-family="Helvetica,sans-Serif" font-size="10.00">GUIGraphHandler</text>
</a>
</g>
</g>
<!-- Node18&#45;&gt;Node19 -->
<g id="edge20" class="edge">
<title>Node18&#45;&gt;Node19</title>
<path fill="none" stroke="midnightblue" d="M414.59,-216.5C402.87,-216.5 391.1,-216.5 379.82,-216.5"/>
<polygon fill="midnightblue" stroke="midnightblue" points="414.85,-220 424.85,-216.5 414.85,-213 414.85,-220"/>
</g>
<!-- Node22 -->
<g id="node22" class="node">
<title>Node22</title>
<g id="a_node22"><a xlink:href="classdenoptim_1_1molecularmodeling_1_1_three_dim_tree_builder.html#acbaf5061621ed283eecc80a51b523422" target="_top" xlink:title="Created a three&#45;dimensional molecular representation from a given DGraph.">
<polygon fill="white" stroke="black" points="434.5,-98 434.5,-139 603.5,-139 603.5,-98 434.5,-98"/>
<text text-anchor="start" x="442.5" y="-127" font-family="Helvetica,sans-Serif" font-size="10.00">denoptim.molecularmodeling.</text>
<text text-anchor="start" x="442.5" y="-116" font-family="Helvetica,sans-Serif" font-size="10.00">ThreeDimTreeBuilder.convertGraph</text>
<text text-anchor="middle" x="519" y="-105" font-family="Helvetica,sans-Serif" font-size="10.00">To3DAtomContainer</text>
</a>
</g>
</g>
<!-- Node21&#45;&gt;Node22 -->
<g id="edge23" class="edge">
<title>Node21&#45;&gt;Node22</title>
<path fill="none" stroke="midnightblue" d="M665.38,-101.13C645.3,-103.53 623.72,-106.11 603.5,-108.52"/>
<polygon fill="midnightblue" stroke="midnightblue" points="665.91,-104.59 675.42,-99.93 665.08,-97.64 665.91,-104.59"/>
</g>
<!-- Node23 -->
<g id="node23" class="node">
<title>Node23</title>
<g id="a_node23"><a xlink:href="classdenoptim_1_1graph_1_1_d_graph.html#af404e25092eabcdfbe69b5d7204e9483" target="_top" xlink:title="Mutates the graph by removing the chain where a given vertex is located up to the first branching (i....">
<polygon fill="white" stroke="black" points="443,-49.5 443,-79.5 595,-79.5 595,-49.5 443,-49.5"/>
<text text-anchor="start" x="451" y="-67.5" font-family="Helvetica,sans-Serif" font-size="10.00">denoptim.graph.DGraph.remove</text>
<text text-anchor="middle" x="519" y="-56.5" font-family="Helvetica,sans-Serif" font-size="10.00">ChainUpToBranching</text>
</a>
</g>
</g>
<!-- Node21&#45;&gt;Node23 -->
<g id="edge24" class="edge">
<title>Node21&#45;&gt;Node23</title>
<path fill="none" stroke="midnightblue" d="M665.4,-81.87C642.51,-79.14 617.68,-76.17 595.13,-73.48"/>
<polygon fill="midnightblue" stroke="midnightblue" points="665.08,-85.36 675.42,-83.07 665.91,-78.41 665.08,-85.36"/>
</g>
<!-- Node26 -->
<g id="node26" class="node">
<title>Node26</title>
<g id="a_node26"><a xlink:href="classdenoptim_1_1io_1_1_denoptim_i_o.html#a079563895e42e37bc3de1388dc1a2665" target="_top" xlink:title="Writes the a graph to file.">
<polygon fill="white" stroke="black" points="447.5,-0.5 447.5,-30.5 590.5,-30.5 590.5,-0.5 447.5,-0.5"/>
<text text-anchor="start" x="455.5" y="-18.5" font-family="Helvetica,sans-Serif" font-size="10.00">denoptim.io.DenoptimIO.write</text>
<text text-anchor="middle" x="519" y="-7.5" font-family="Helvetica,sans-Serif" font-size="10.00">GraphToFile</text>
</a>
</g>
</g>
<!-- Node21&#45;&gt;Node26 -->
<g id="edge27" class="edge">
<title>Node21&#45;&gt;Node26</title>
<path fill="none" stroke="midnightblue" d="M700.27,-72.62C674.81,-62.45 642.4,-50.06 613,-40.5 602.35,-37.04 590.9,-33.67 579.8,-30.59"/>
<polygon fill="midnightblue" stroke="midnightblue" points="699.09,-75.92 709.67,-76.4 701.7,-69.42 699.09,-75.92"/>
</g>
<!-- Node24 -->
<g id="node24" class="node">
<title>Node24</title>
<g id="a_node24"><a xlink:href="classdenoptim_1_1ga_1_1_graph_operations.html#afd659e74a056d1a6ae6f52513fee0be3" target="_top" xlink:title="Deletes the given vertex and all other vertexes that are not connected to more than 2 non&#45;capping gro...">
<polygon fill="white" stroke="black" points="216,-49.5 216,-79.5 389,-79.5 389,-49.5 216,-49.5"/>
<text text-anchor="start" x="224" y="-67.5" font-family="Helvetica,sans-Serif" font-size="10.00">denoptim.ga.GraphOperations.delete</text>
<text text-anchor="middle" x="302.5" y="-56.5" font-family="Helvetica,sans-Serif" font-size="10.00">Chain</text>
</a>
</g>
</g>
<!-- Node23&#45;&gt;Node24 -->
<g id="edge25" class="edge">
<title>Node23&#45;&gt;Node24</title>
<path fill="none" stroke="midnightblue" d="M432.66,-64.5C418.33,-64.5 403.46,-64.5 389.12,-64.5"/>
<polygon fill="midnightblue" stroke="midnightblue" points="432.98,-68 442.98,-64.5 432.98,-61 432.98,-68"/>
</g>
<!-- Node25 -->
<g id="node25" class="node">
<title>Node25</title>
<g id="a_node25"><a xlink:href="classdenoptim_1_1ga_1_1_graph_operations.html#a0c851972015fbb4b2a317b053b8b81d9" target="_top" xlink:title="Mutates the given vertex according to the given mutation type, if possible.">
<polygon fill="white" stroke="black" points="0,-49.5 0,-79.5 180,-79.5 180,-49.5 0,-49.5"/>
<text text-anchor="start" x="8" y="-67.5" font-family="Helvetica,sans-Serif" font-size="10.00">denoptim.ga.GraphOperations.perform</text>
<text text-anchor="middle" x="90" y="-56.5" font-family="Helvetica,sans-Serif" font-size="10.00">Mutation</text>
</a>
</g>
</g>
<!-- Node24&#45;&gt;Node25 -->
<g id="edge26" class="edge">
<title>Node24&#45;&gt;Node25</title>
<path fill="none" stroke="midnightblue" d="M205.65,-64.5C197.21,-64.5 188.69,-64.5 180.31,-64.5"/>
<polygon fill="midnightblue" stroke="midnightblue" points="205.88,-68 215.88,-64.5 205.88,-61 205.88,-68"/>
</g>
</g>
</svg>
        <g id="navigator" transform="translate(0 0)" fill="#404254">
                <rect fill="#f2f5e9" fill-opacity="0.5" stroke="#606060" stroke-width=".5" x="0" y="0" width="60" height="60"/>
                <use id="zoomplus" xlink:href="#zoomPlus" x="17" y="9" onmousedown="handleZoom(evt,'in')"/>
                <use id="zoomminus" xlink:href="#zoomMin" x="42" y="9" onmousedown="handleZoom(evt,'out')"/>
                <use id="reset" xlink:href="#resetDef" x="30" y="36" onmousedown="handleReset()"/>
                <g id="arrowUp" xlink:href="#dirArrow" transform="translate(30 24)" onmousedown="handlePan(0,-1)">
                  <use xlink:href="#rim" fill="#404040">
                        <set attributeName="fill" to="#808080" begin="arrowUp.mouseover" end="arrowUp.mouseout"/>
                  </use>
                  <path fill="none" stroke="white" stroke-width="1.5" d="M0,-3.0v7 M-2.5,-0.5L0,-3.0L2.5,-0.5"/>
                </g>
                <g id="arrowRight" xlink:href="#dirArrow" transform="rotate(90) translate(36 -43)" onmousedown="handlePan(1,0)">
                  <use xlink:href="#rim" fill="#404040">
                        <set attributeName="fill" to="#808080" begin="arrowRight.mouseover" end="arrowRight.mouseout"/>
                  </use>
                  <path fill="none" stroke="white" stroke-width="1.5" d="M0,-3.0v7 M-2.5,-0.5L0,-3.0L2.5,-0.5"/>
                </g>
                <g id="arrowDown" xlink:href="#dirArrow" transform="rotate(180) translate(-30 -48)" onmousedown="handlePan(0,1)">
                  <use xlink:href="#rim" fill="#404040">
                        <set attributeName="fill" to="#808080" begin="arrowDown.mouseover" end="arrowDown.mouseout"/>
                  </use>
                  <path fill="none" stroke="white" stroke-width="1.5" d="M0,-3.0v7 M-2.5,-0.5L0,-3.0L2.5,-0.5"/>
                </g>
                <g id="arrowLeft" xlink:href="#dirArrow" transform="rotate(270) translate(-36 17)" onmousedown="handlePan(-1,0)">
                  <use xlink:href="#rim" fill="#404040">
                        <set attributeName="fill" to="#808080" begin="arrowLeft.mouseover" end="arrowLeft.mouseout"/>
                  </use>
                  <path fill="none" stroke="white" stroke-width="1.5" d="M0,-3.0v7 M-2.5,-0.5L0,-3.0L2.5,-0.5"/>
                </g>
        </g>
        <svg viewBox="0 0 15 15" width="100%" height="30px" preserveAspectRatio="xMaxYMin meet">
         <g id="arrow_out" transform="scale(0.3 0.3)">
          <a xlink:href="classdenoptim_1_1json_1_1_d_e_n_o_p_t_i_mgson_aa8cbbc7dcd366e9f1053c4b2b676e0d7_icgraph_org.svg" target="_base">
           <rect id="button" ry="5" rx="5" y="6" x="6" height="38" width="38"
                fill="#f2f5e9" fill-opacity="0.5" stroke="#606060" stroke-width="1.0"/>
           <path id="arrow"
             d="M 11.500037,31.436501 C 11.940474,20.09759 22.043105,11.32322 32.158766,21.979434 L 37.068811,17.246167 C 37.068811,17.246167 37.088388,32 37.088388,32 L 22.160133,31.978069 C 22.160133,31.978069 26.997745,27.140456 26.997745,27.140456 C 18.528582,18.264221 13.291696,25.230495 11.500037,31.436501 z"
             style="fill:#404040;"/>
          </a>
         </g>
        </svg>
</svg>
