<?xml version="1.0" encoding="UTF-8" standalone="no"?>
<!DOCTYPE svg PUBLIC "-//W3C//DTD SVG 1.1//EN"
 "http://www.w3.org/Graphics/SVG/1.1/DTD/svg11.dtd">
<!-- Generated by graphviz version 3.0.0 (20221109.1736)
 -->
<!-- Title: denoptim.graph.Fragment.addAtom Pages: 1 -->
<svg width="849pt" height="1307pt"
 viewBox="0.00 0.00 849.00 1307.00" xmlns="http://www.w3.org/2000/svg" xmlns:xlink="http://www.w3.org/1999/xlink">
<g id="graph0" class="graph" transform="scale(1 1) rotate(0) translate(4 1303)">
<title>denoptim.graph.Fragment.addAtom</title>
<polygon fill="white" stroke="transparent" points="-4,4 -4,-1303 845,-1303 845,4 -4,4"/>
<!-- Node1 -->
<g id="node1" class="node">
<title>Node1</title>
<g id="a_node1"><a xlink:title=" ">
<polygon fill="#bfbfbf" stroke="black" points="674,-468 674,-487 841,-487 841,-468 674,-468"/>
<text text-anchor="middle" x="757.5" y="-475" font-family="Helvetica,sans-Serif" font-size="10.00">denoptim.graph.Fragment.addAtom</text>
</a>
</g>
</g>
<!-- Node2 -->
<g id="node2" class="node">
<title>Node2</title>
<g id="a_node2"><a xlink:href="classdenoptim_1_1utils_1_1_dummy_atom_handler.html#a100cd8246e61d933a6420fac5c22160a" target="_top" xlink:title="Append dummy atoms on otherwise linear arrangements of atoms.">
<polygon fill="white" stroke="black" points="457,-1175.5 457,-1205.5 624,-1205.5 624,-1175.5 457,-1175.5"/>
<text text-anchor="start" x="465" y="-1193.5" font-family="Helvetica,sans-Serif" font-size="10.00">denoptim.utils.DummyAtom</text>
<text text-anchor="middle" x="540.5" y="-1182.5" font-family="Helvetica,sans-Serif" font-size="10.00">Handler.addDummiesOnLinearities</text>
</a>
</g>
</g>
<!-- Node1&#45;&gt;Node2 -->
<g id="edge1" class="edge">
<title>Node1&#45;&gt;Node2</title>
<path fill="none" stroke="midnightblue" d="M755.85,-497.17C752.67,-574 734.59,-859.84 638,-1068.5 617.92,-1111.88 579.48,-1153.59 557.66,-1175.21"/>
<polygon fill="midnightblue" stroke="midnightblue" points="759.36,-497.16 756.24,-487.03 752.36,-496.89 759.36,-497.16"/>
</g>
<!-- Node8 -->
<g id="node8" class="node">
<title>Node8</title>
<g id="a_node8"><a xlink:href="classdenoptim_1_1fragspace_1_1_fragment_space_test.html#ae401cb5105c9afd41d058685eb051869" target="_top" xlink:title=" ">
<polygon fill="white" stroke="black" points="463,-697.5 463,-727.5 618,-727.5 618,-697.5 463,-697.5"/>
<text text-anchor="start" x="471" y="-715.5" font-family="Helvetica,sans-Serif" font-size="10.00">denoptim.fragspace.Fragment</text>
<text text-anchor="middle" x="540.5" y="-704.5" font-family="Helvetica,sans-Serif" font-size="10.00">SpaceTest.buildFragmentSpace</text>
</a>
</g>
</g>
<!-- Node1&#45;&gt;Node8 -->
<g id="edge7" class="edge">
<title>Node1&#45;&gt;Node8</title>
<path fill="none" stroke="midnightblue" d="M750.59,-497.13C737.32,-537.86 701.25,-631.97 638,-682.5 630.32,-688.63 621.39,-693.52 612.11,-697.41"/>
<polygon fill="midnightblue" stroke="midnightblue" points="754,-497.94 753.67,-487.35 747.33,-495.83 754,-497.94"/>
</g>
<!-- Node17 -->
<g id="node17" class="node">
<title>Node17</title>
<g id="a_node17"><a xlink:href="classdenoptim_1_1fragspace_1_1_fragment_space_test.html#a692723b803a64dd25e775b2f8726fe27" target="_top" xlink:title="Works with this graph:">
<polygon fill="white" stroke="black" points="210,-475 210,-516 395,-516 395,-475 210,-475"/>
<text text-anchor="start" x="218" y="-504" font-family="Helvetica,sans-Serif" font-size="10.00">denoptim.fragspace.Fragment</text>
<text text-anchor="start" x="218" y="-493" font-family="Helvetica,sans-Serif" font-size="10.00">SpaceTest.testUseWholeMolGeometry</text>
<text text-anchor="middle" x="302.5" y="-482" font-family="Helvetica,sans-Serif" font-size="10.00">ForExtractedTemplates</text>
</a>
</g>
</g>
<!-- Node1&#45;&gt;Node17 -->
<g id="edge42" class="edge">
<title>Node1&#45;&gt;Node17</title>
<path fill="none" stroke="midnightblue" d="M749.94,-497.2C736.17,-534.99 700.23,-616.8 638,-649.5 561.28,-689.81 512.3,-701.54 443,-649.5 397.11,-615.04 447.59,-566.07 407,-525.5 403.43,-521.93 399.46,-518.78 395.21,-516"/>
<polygon fill="midnightblue" stroke="midnightblue" points="753.38,-497.98 753.38,-487.39 746.77,-495.67 753.38,-497.98"/>
</g>
<!-- Node18 -->
<g id="node18" class="node">
<title>Node18</title>
<g id="a_node18"><a xlink:href="classdenoptim_1_1graph_1_1_fragment_test.html#a198cffde4134eecf80f3eba650efc5ba" target="_top" xlink:title=" ">
<polygon fill="white" stroke="black" points="454.5,-609.5 454.5,-639.5 626.5,-639.5 626.5,-609.5 454.5,-609.5"/>
<text text-anchor="start" x="462.5" y="-627.5" font-family="Helvetica,sans-Serif" font-size="10.00">denoptim.graph.FragmentTest.make</text>
<text text-anchor="middle" x="540.5" y="-616.5" font-family="Helvetica,sans-Serif" font-size="10.00">Fragment</text>
</a>
</g>
</g>
<!-- Node1&#45;&gt;Node18 -->
<g id="edge17" class="edge">
<title>Node1&#45;&gt;Node18</title>
<path fill="none" stroke="midnightblue" d="M744.1,-495.81C724.73,-522.95 684.62,-573.56 638,-600.5 632.02,-603.95 625.55,-606.92 618.9,-609.45"/>
<polygon fill="midnightblue" stroke="midnightblue" points="747.21,-497.46 750.07,-487.26 741.47,-493.46 747.21,-497.46"/>
</g>
<!-- Node22 -->
<g id="node22" class="node">
<title>Node22</title>
<g id="a_node22"><a xlink:href="classdenoptim_1_1graph_1_1_fragment_test.html#a8bff8b7d1c409ddc9a55707f4e67f427" target="_top" xlink:title=" ">
<polygon fill="white" stroke="black" points="454.5,-1028.5 454.5,-1058.5 626.5,-1058.5 626.5,-1028.5 454.5,-1028.5"/>
<text text-anchor="start" x="462.5" y="-1046.5" font-family="Helvetica,sans-Serif" font-size="10.00">denoptim.graph.FragmentTest.make</text>
<text text-anchor="middle" x="540.5" y="-1035.5" font-family="Helvetica,sans-Serif" font-size="10.00">FragmentA</text>
</a>
</g>
</g>
<!-- Node1&#45;&gt;Node22 -->
<g id="edge21" class="edge">
<title>Node1&#45;&gt;Node22</title>
<path fill="none" stroke="midnightblue" d="M756.52,-497.48C755.65,-568.61 744.67,-813.8 638,-973.5 621.91,-997.6 594.55,-1016.27 573.07,-1028.25"/>
<polygon fill="midnightblue" stroke="midnightblue" points="760.02,-497.28 756.58,-487.26 753.02,-497.24 760.02,-497.28"/>
</g>
<!-- Node26 -->
<g id="node26" class="node">
<title>Node26</title>
<g id="a_node26"><a xlink:href="classdenoptim_1_1graph_1_1_fragment_test.html#ae2ae980f38f76b7681a4e967d4cbdb4f" target="_top" xlink:title="Differs from the fragment produced by makeFragmentA() only by the identity of one atom.">
<polygon fill="white" stroke="black" points="454.5,-933.5 454.5,-963.5 626.5,-963.5 626.5,-933.5 454.5,-933.5"/>
<text text-anchor="start" x="462.5" y="-951.5" font-family="Helvetica,sans-Serif" font-size="10.00">denoptim.graph.FragmentTest.make</text>
<text text-anchor="middle" x="540.5" y="-940.5" font-family="Helvetica,sans-Serif" font-size="10.00">FragmentB</text>
</a>
</g>
</g>
<!-- Node1&#45;&gt;Node26 -->
<g id="edge26" class="edge">
<title>Node1&#45;&gt;Node26</title>
<path fill="none" stroke="midnightblue" d="M752.68,-496.93C741.27,-552.17 704.09,-713.8 638,-832.5 615.57,-872.78 578.37,-912.5 557.31,-933.4"/>
<polygon fill="midnightblue" stroke="midnightblue" points="756.12,-497.57 754.67,-487.08 749.26,-496.19 756.12,-497.57"/>
</g>
<!-- Node27 -->
<g id="node27" class="node">
<title>Node27</title>
<g id="a_node27"><a xlink:href="classdenoptim_1_1graph_1_1_fragment_test.html#a63f6f06d84a8b731e131034a8e24c238" target="_top" xlink:title="Differs from the fragment produced by makeFragmentA() only by the one APCLass.">
<polygon fill="white" stroke="black" points="454.5,-792.5 454.5,-822.5 626.5,-822.5 626.5,-792.5 454.5,-792.5"/>
<text text-anchor="start" x="462.5" y="-810.5" font-family="Helvetica,sans-Serif" font-size="10.00">denoptim.graph.FragmentTest.make</text>
<text text-anchor="middle" x="540.5" y="-799.5" font-family="Helvetica,sans-Serif" font-size="10.00">FragmentC</text>
</a>
</g>
</g>
<!-- Node1&#45;&gt;Node27 -->
<g id="edge28" class="edge">
<title>Node1&#45;&gt;Node27</title>
<path fill="none" stroke="midnightblue" d="M751.26,-497.39C738.32,-543.59 701.24,-660.16 638,-737.5 619.13,-760.57 590.96,-779.84 569.92,-792.28"/>
<polygon fill="midnightblue" stroke="midnightblue" points="754.71,-498.02 753.97,-487.45 747.96,-496.18 754.71,-498.02"/>
</g>
<!-- Node28 -->
<g id="node28" class="node">
<title>Node28</title>
<g id="a_node28"><a xlink:href="classdenoptim_1_1io_1_1_denoptim_i_o_test.html#a7710e822a7212af405b83c4693ace410" target="_top" xlink:title=" ">
<polygon fill="white" stroke="black" points="461.5,-560.5 461.5,-590.5 619.5,-590.5 619.5,-560.5 461.5,-560.5"/>
<text text-anchor="start" x="469.5" y="-578.5" font-family="Helvetica,sans-Serif" font-size="10.00">denoptim.io.DenoptimIOTest.test</text>
<text text-anchor="middle" x="540.5" y="-567.5" font-family="Helvetica,sans-Serif" font-size="10.00">AppendToJSON</text>
</a>
</g>
</g>
<!-- Node1&#45;&gt;Node28 -->
<g id="edge30" class="edge">
<title>Node1&#45;&gt;Node28</title>
<path fill="none" stroke="midnightblue" d="M735.86,-493.22C713.05,-509.91 674.67,-535.95 638,-551.5 630.05,-554.87 621.53,-557.84 612.96,-560.43"/>
<polygon fill="midnightblue" stroke="midnightblue" points="738.14,-495.89 744.08,-487.12 733.97,-490.27 738.14,-495.89"/>
</g>
<!-- Node29 -->
<g id="node29" class="node">
<title>Node29</title>
<g id="a_node29"><a xlink:href="classdenoptim_1_1graph_1_1_vertex_test.html#ab36c441c57e9852e2be6d810d80fbc87" target="_top" xlink:title=" ">
<polygon fill="white" stroke="black" points="465,-511.5 465,-541.5 616,-541.5 616,-511.5 465,-511.5"/>
<text text-anchor="start" x="473" y="-529.5" font-family="Helvetica,sans-Serif" font-size="10.00">denoptim.graph.VertexTest.test</text>
<text text-anchor="middle" x="540.5" y="-518.5" font-family="Helvetica,sans-Serif" font-size="10.00">Clone</text>
</a>
</g>
</g>
<!-- Node1&#45;&gt;Node29 -->
<g id="edge31" class="edge">
<title>Node1&#45;&gt;Node29</title>
<path fill="none" stroke="midnightblue" d="M704.81,-489.28C675.64,-495.93 638.88,-504.31 607.63,-511.43"/>
<polygon fill="midnightblue" stroke="midnightblue" points="705.82,-492.64 714.79,-487.01 704.26,-485.82 705.82,-492.64"/>
</g>
<!-- Node30 -->
<g id="node30" class="node">
<title>Node30</title>
<g id="a_node30"><a xlink:href="classdenoptim_1_1graph_1_1_attachment_point_test.html#afb83fb2ca67c9375f299a24ca787b9c7" target="_top" xlink:title=" ">
<polygon fill="white" stroke="black" points="443,-462.5 443,-492.5 638,-492.5 638,-462.5 443,-462.5"/>
<text text-anchor="start" x="451" y="-480.5" font-family="Helvetica,sans-Serif" font-size="10.00">denoptim.graph.Attachment</text>
<text text-anchor="middle" x="540.5" y="-469.5" font-family="Helvetica,sans-Serif" font-size="10.00">PointTest.testConstructorsAndSDFString</text>
</a>
</g>
</g>
<!-- Node1&#45;&gt;Node30 -->
<g id="edge32" class="edge">
<title>Node1&#45;&gt;Node30</title>
<path fill="none" stroke="midnightblue" d="M663.73,-477.5C655.26,-477.5 646.67,-477.5 638.16,-477.5"/>
<polygon fill="midnightblue" stroke="midnightblue" points="663.99,-481 673.99,-477.5 663.99,-474 663.99,-481"/>
</g>
<!-- Node31 -->
<g id="node31" class="node">
<title>Node31</title>
<g id="a_node31"><a xlink:href="classdenoptim_1_1graph_1_1_attachment_point_test.html#a582ae9ff2fcac313e9041b51f6d3bf70" target="_top" xlink:title=" ">
<polygon fill="white" stroke="black" points="443,-403 443,-444 638,-444 638,-403 443,-403"/>
<text text-anchor="start" x="451" y="-432" font-family="Helvetica,sans-Serif" font-size="10.00">denoptim.graph.Attachment</text>
<text text-anchor="start" x="451" y="-421" font-family="Helvetica,sans-Serif" font-size="10.00">PointTest.testConstructorsAndSDFString</text>
<text text-anchor="middle" x="540.5" y="-410" font-family="Helvetica,sans-Serif" font-size="10.00">NoDirVec</text>
</a>
</g>
</g>
<!-- Node1&#45;&gt;Node31 -->
<g id="edge33" class="edge">
<title>Node1&#45;&gt;Node31</title>
<path fill="none" stroke="midnightblue" d="M708.56,-465.46C683.44,-459.15 651.98,-451.25 623.15,-444.01"/>
<polygon fill="midnightblue" stroke="midnightblue" points="708.01,-468.93 718.56,-467.97 709.71,-462.14 708.01,-468.93"/>
</g>
<!-- Node32 -->
<g id="node32" class="node">
<title>Node32</title>
<g id="a_node32"><a xlink:href="classdenoptim_1_1molecularmodeling_1_1_three_dim_tree_builder_test.html#a1aea42a3aa474b25c0edc4541509f8f7" target="_top" xlink:title=" ">
<polygon fill="white" stroke="black" points="443,-343 443,-384 638,-384 638,-343 443,-343"/>
<text text-anchor="start" x="451" y="-372" font-family="Helvetica,sans-Serif" font-size="10.00">denoptim.molecularmodeling.</text>
<text text-anchor="start" x="451" y="-361" font-family="Helvetica,sans-Serif" font-size="10.00">ThreeDimTreeBuilderTest.testConversion</text>
<text text-anchor="middle" x="540.5" y="-350" font-family="Helvetica,sans-Serif" font-size="10.00">To3dTree</text>
</a>
</g>
</g>
<!-- Node1&#45;&gt;Node32 -->
<g id="edge34" class="edge">
<title>Node1&#45;&gt;Node32</title>
<path fill="none" stroke="midnightblue" d="M737.77,-461.36C715.37,-442.75 676.09,-412.32 638,-393.5 631,-390.04 623.52,-386.88 615.93,-384.01"/>
<polygon fill="midnightblue" stroke="midnightblue" points="735.59,-464.1 745.5,-467.86 740.1,-458.74 735.59,-464.1"/>
</g>
<!-- Node33 -->
<g id="node33" class="node">
<title>Node33</title>
<g id="a_node33"><a xlink:href="classdenoptim_1_1graph_1_1_fragment_test.html#a12552fabbb6c8af399da78f10279fce2" target="_top" xlink:title=" ">
<polygon fill="white" stroke="black" points="458.5,-294.5 458.5,-324.5 622.5,-324.5 622.5,-294.5 458.5,-294.5"/>
<text text-anchor="start" x="466.5" y="-312.5" font-family="Helvetica,sans-Serif" font-size="10.00">denoptim.graph.FragmentTest.test</text>
<text text-anchor="middle" x="540.5" y="-301.5" font-family="Helvetica,sans-Serif" font-size="10.00">ConversionToIAC</text>
</a>
</g>
</g>
<!-- Node1&#45;&gt;Node33 -->
<g id="edge35" class="edge">
<title>Node1&#45;&gt;Node33</title>
<path fill="none" stroke="midnightblue" d="M746.41,-458.69C728.74,-427.61 689.14,-365.78 638,-333.5 632.6,-330.09 626.74,-327.17 620.68,-324.66"/>
<polygon fill="midnightblue" stroke="midnightblue" points="743.46,-460.58 751.37,-467.62 749.58,-457.18 743.46,-460.58"/>
</g>
<!-- Node34 -->
<g id="node34" class="node">
<title>Node34</title>
<g id="a_node34"><a xlink:href="classdenoptim_1_1graph_1_1_fragment_test.html#a6494b234f01c4cf298d123dc59e047d6" target="_top" xlink:title=" ">
<polygon fill="white" stroke="black" points="458.5,-245.5 458.5,-275.5 622.5,-275.5 622.5,-245.5 458.5,-245.5"/>
<text text-anchor="start" x="466.5" y="-263.5" font-family="Helvetica,sans-Serif" font-size="10.00">denoptim.graph.FragmentTest.test</text>
<text text-anchor="middle" x="540.5" y="-252.5" font-family="Helvetica,sans-Serif" font-size="10.00">HandlingAPsAsObjOrProperty</text>
</a>
</g>
</g>
<!-- Node1&#45;&gt;Node34 -->
<g id="edge36" class="edge">
<title>Node1&#45;&gt;Node34</title>
<path fill="none" stroke="midnightblue" d="M750.19,-457.93C736.46,-418.62 700.06,-329.93 638,-284.5 633.26,-281.03 628.08,-278.06 622.66,-275.52"/>
<polygon fill="midnightblue" stroke="midnightblue" points="746.95,-459.28 753.46,-467.63 753.58,-457.04 746.95,-459.28"/>
</g>
<!-- Node35 -->
<g id="node35" class="node">
<title>Node35</title>
<g id="a_node35"><a xlink:href="classdenoptim_1_1graph_1_1_attachment_point_test.html#af88d30ce68477984fe6179325d1540b2" target="_top" xlink:title=" ">
<polygon fill="white" stroke="black" points="450.5,-196.5 450.5,-226.5 630.5,-226.5 630.5,-196.5 450.5,-196.5"/>
<text text-anchor="start" x="458.5" y="-214.5" font-family="Helvetica,sans-Serif" font-size="10.00">denoptim.graph.Attachment</text>
<text text-anchor="middle" x="540.5" y="-203.5" font-family="Helvetica,sans-Serif" font-size="10.00">PointTest.testHasConnectedSrcAtom</text>
</a>
</g>
</g>
<!-- Node1&#45;&gt;Node35 -->
<g id="edge37" class="edge">
<title>Node1&#45;&gt;Node35</title>
<path fill="none" stroke="midnightblue" d="M752.76,-457.89C742.89,-411.6 711.62,-294.98 638,-235.5 633.84,-232.14 629.27,-229.24 624.45,-226.73"/>
<polygon fill="midnightblue" stroke="midnightblue" points="749.36,-458.73 754.78,-467.83 756.22,-457.33 749.36,-458.73"/>
</g>
<!-- Node36 -->
<g id="node36" class="node">
<title>Node36</title>
<g id="a_node36"><a xlink:href="classdenoptim_1_1graph_1_1_attachment_point_test.html#a4889032266eb87d0f91af8b4e9869360" target="_top" xlink:title=" ">
<polygon fill="white" stroke="black" points="461,-147.5 461,-177.5 620,-177.5 620,-147.5 461,-147.5"/>
<text text-anchor="start" x="469" y="-165.5" font-family="Helvetica,sans-Serif" font-size="10.00">denoptim.graph.Attachment</text>
<text text-anchor="middle" x="540.5" y="-154.5" font-family="Helvetica,sans-Serif" font-size="10.00">PointTest.testHasSameSrcAtom</text>
</a>
</g>
</g>
<!-- Node1&#45;&gt;Node36 -->
<g id="edge38" class="edge">
<title>Node1&#45;&gt;Node36</title>
<path fill="none" stroke="midnightblue" d="M754.54,-457.94C748.22,-405.47 723.46,-260.54 638,-186.5 632.65,-181.87 626.54,-178.1 620.05,-175.04"/>
<polygon fill="midnightblue" stroke="midnightblue" points="751.07,-458.39 755.66,-467.94 758.03,-457.61 751.07,-458.39"/>
</g>
<!-- Node37 -->
<g id="node37" class="node">
<title>Node37</title>
<g id="a_node37"><a xlink:href="classdenoptim_1_1io_1_1_denoptim_i_o_test.html#a92ea09ddfe9f40627e43ce087f160e12" target="_top" xlink:title=" ">
<polygon fill="white" stroke="black" points="461.5,-98.5 461.5,-128.5 619.5,-128.5 619.5,-98.5 461.5,-98.5"/>
<text text-anchor="start" x="469.5" y="-116.5" font-family="Helvetica,sans-Serif" font-size="10.00">denoptim.io.DenoptimIOTest.test</text>
<text text-anchor="middle" x="540.5" y="-105.5" font-family="Helvetica,sans-Serif" font-size="10.00">ReadAllAPClasses</text>
</a>
</g>
</g>
<!-- Node1&#45;&gt;Node37 -->
<g id="edge39" class="edge">
<title>Node1&#45;&gt;Node37</title>
<path fill="none" stroke="midnightblue" d="M755.83,-457.87C752.75,-399.62 735.41,-226.37 638,-137.5 632.64,-132.61 626.45,-128.68 619.83,-125.53"/>
<polygon fill="midnightblue" stroke="midnightblue" points="752.34,-458.09 756.28,-467.92 759.33,-457.78 752.34,-458.09"/>
</g>
<!-- Node38 -->
<g id="node38" class="node">
<title>Node38</title>
<g id="a_node38"><a xlink:href="classdenoptim_1_1graph_1_1_d_graph_test.html#a42ea1a0adbc30b78070c3096171094a9" target="_top" xlink:title=" ">
<polygon fill="white" stroke="black" points="462.5,-49.5 462.5,-79.5 618.5,-79.5 618.5,-49.5 462.5,-49.5"/>
<text text-anchor="start" x="470.5" y="-67.5" font-family="Helvetica,sans-Serif" font-size="10.00">denoptim.graph.DGraphTest.test</text>
<text text-anchor="middle" x="540.5" y="-56.5" font-family="Helvetica,sans-Serif" font-size="10.00">RemoveUnusedRCVs</text>
</a>
</g>
</g>
<!-- Node1&#45;&gt;Node38 -->
<g id="edge40" class="edge">
<title>Node1&#45;&gt;Node38</title>
<path fill="none" stroke="midnightblue" d="M756.83,-457.66C756.73,-393.89 747.41,-192.37 638,-88.5 632.37,-83.15 625.73,-78.94 618.62,-75.64"/>
<polygon fill="midnightblue" stroke="midnightblue" points="753.32,-457.88 756.76,-467.9 760.32,-457.93 753.32,-457.88"/>
</g>
<!-- Node39 -->
<g id="node39" class="node">
<title>Node39</title>
<g id="a_node39"><a xlink:href="classdenoptim_1_1graph_1_1_attachment_point_test.html#ab3ec3ba7ebaaa69204c2368187a01f6f" target="_top" xlink:title=" ">
<polygon fill="white" stroke="black" points="473,-0.5 473,-30.5 608,-30.5 608,-0.5 473,-0.5"/>
<text text-anchor="start" x="481" y="-18.5" font-family="Helvetica,sans-Serif" font-size="10.00">denoptim.graph.Attachment</text>
<text text-anchor="middle" x="540.5" y="-7.5" font-family="Helvetica,sans-Serif" font-size="10.00">PointTest.testSortAPs</text>
</a>
</g>
</g>
<!-- Node1&#45;&gt;Node39 -->
<g id="edge41" class="edge">
<title>Node1&#45;&gt;Node39</title>
<path fill="none" stroke="midnightblue" d="M753.83,-457.76C743,-380.53 699.95,-100.2 638,-39.5 629.74,-31.41 619.19,-25.9 608.12,-22.19"/>
<polygon fill="midnightblue" stroke="midnightblue" points="750.41,-458.56 755.24,-467.99 757.34,-457.6 750.41,-458.56"/>
</g>
<!-- Node3 -->
<g id="node3" class="node">
<title>Node3</title>
<g id="a_node3"><a xlink:href="classdenoptim_1_1gui_1_1_g_u_i_vertex_inspector.html#acadecc92299a7ea46113c06382a1f333" target="_top" xlink:title="Initialize the panel and add buttons.">
<polygon fill="white" stroke="black" points="204,-1274 204,-1293 401,-1293 401,-1274 204,-1274"/>
<text text-anchor="middle" x="302.5" y="-1281" font-family="Helvetica,sans-Serif" font-size="10.00">denoptim.gui.GUIVertexInspector.initialize</text>
</a>
</g>
</g>
<!-- Node2&#45;&gt;Node3 -->
<g id="edge2" class="edge">
<title>Node2&#45;&gt;Node3</title>
<path fill="none" stroke="midnightblue" d="M508.97,-1211.38C482.97,-1228.2 444.04,-1251.17 407,-1264.5 396.26,-1268.37 384.59,-1271.48 373.09,-1273.97"/>
<polygon fill="midnightblue" stroke="midnightblue" points="511.16,-1214.12 517.6,-1205.71 507.32,-1208.27 511.16,-1214.12"/>
</g>
<!-- Node5 -->
<g id="node5" class="node">
<title>Node5</title>
<g id="a_node5"><a xlink:href="classdenoptim_1_1ga_1_1_e_a_utils.html#a18eb5d0ba6772e9116176ef6ca9f84fc" target="_top" xlink:title="Converts a molecule into a DGraph by fragmentation and re&#45;assembling of the fragments.">
<polygon fill="white" stroke="black" points="225.5,-1224.5 225.5,-1254.5 379.5,-1254.5 379.5,-1224.5 225.5,-1224.5"/>
<text text-anchor="start" x="233.5" y="-1242.5" font-family="Helvetica,sans-Serif" font-size="10.00">denoptim.ga.EAUtils.make</text>
<text text-anchor="middle" x="302.5" y="-1231.5" font-family="Helvetica,sans-Serif" font-size="10.00">GraphFromFragmentationOfMol</text>
</a>
</g>
</g>
<!-- Node2&#45;&gt;Node5 -->
<g id="edge4" class="edge">
<title>Node2&#45;&gt;Node5</title>
<path fill="none" stroke="midnightblue" d="M457.08,-1207.61C430.6,-1213.11 401.47,-1219.16 375.77,-1224.49"/>
<polygon fill="midnightblue" stroke="midnightblue" points="458.01,-1210.99 467.09,-1205.53 456.59,-1204.14 458.01,-1210.99"/>
</g>
<!-- Node6 -->
<g id="node6" class="node">
<title>Node6</title>
<g id="a_node6"><a xlink:href="classdenoptim_1_1fragmenter_1_1_fragmenter_tools.html#a82c4a82da2a3283a870a8c8af94f0a4e" target="_top" xlink:title="Management of fragments: includes application of fragment filters, rejection rules,...">
<polygon fill="white" stroke="black" points="222,-1175.5 222,-1205.5 383,-1205.5 383,-1175.5 222,-1175.5"/>
<text text-anchor="start" x="230" y="-1193.5" font-family="Helvetica,sans-Serif" font-size="10.00">denoptim.fragmenter.Fragmenter</text>
<text text-anchor="middle" x="302.5" y="-1182.5" font-family="Helvetica,sans-Serif" font-size="10.00">Tools.manageFragmentCollection</text>
</a>
</g>
</g>
<!-- Node2&#45;&gt;Node6 -->
<g id="edge5" class="edge">
<title>Node2&#45;&gt;Node6</title>
<path fill="none" stroke="midnightblue" d="M446.75,-1190.5C425.75,-1190.5 403.62,-1190.5 383.21,-1190.5"/>
<polygon fill="midnightblue" stroke="midnightblue" points="446.96,-1194 456.96,-1190.5 446.96,-1187 446.96,-1194"/>
</g>
<!-- Node7 -->
<g id="node7" class="node">
<title>Node7</title>
<g id="a_node7"><a xlink:href="classdenoptim_1_1graph_1_1_fragment_test.html#aa17f42b21847b022c3d7a87876e17717" target="_top" xlink:title=" ">
<polygon fill="white" stroke="black" points="220.5,-1126.5 220.5,-1156.5 384.5,-1156.5 384.5,-1126.5 220.5,-1126.5"/>
<text text-anchor="start" x="228.5" y="-1144.5" font-family="Helvetica,sans-Serif" font-size="10.00">denoptim.graph.FragmentTest.test</text>
<text text-anchor="middle" x="302.5" y="-1133.5" font-family="Helvetica,sans-Serif" font-size="10.00">IsomorphicInLinear</text>
</a>
</g>
</g>
<!-- Node2&#45;&gt;Node7 -->
<g id="edge6" class="edge">
<title>Node2&#45;&gt;Node7</title>
<path fill="none" stroke="midnightblue" d="M457.08,-1173.39C430.6,-1167.89 401.47,-1161.84 375.77,-1156.51"/>
<polygon fill="midnightblue" stroke="midnightblue" points="456.59,-1176.86 467.09,-1175.47 458.01,-1170.01 456.59,-1176.86"/>
</g>
<!-- Node4 -->
<g id="node4" class="node">
<title>Node4</title>
<g id="a_node4"><a xlink:href="classdenoptim_1_1gui_1_1_g_u_i_vertex_inspector.html#abc5d3c33ad9b2b114ce43e9b2cd577bb" target="_top" xlink:title="Constructor.">
<polygon fill="white" stroke="black" points="0,-1268.5 0,-1298.5 162,-1298.5 162,-1268.5 0,-1268.5"/>
<text text-anchor="start" x="8" y="-1286.5" font-family="Helvetica,sans-Serif" font-size="10.00">denoptim.gui.GUIVertexInspector.</text>
<text text-anchor="middle" x="81" y="-1275.5" font-family="Helvetica,sans-Serif" font-size="10.00">GUIVertexInspector</text>
</a>
</g>
</g>
<!-- Node3&#45;&gt;Node4 -->
<g id="edge3" class="edge">
<title>Node3&#45;&gt;Node4</title>
<path fill="none" stroke="midnightblue" d="M193.76,-1283.5C183.12,-1283.5 172.45,-1283.5 162.16,-1283.5"/>
<polygon fill="midnightblue" stroke="midnightblue" points="193.95,-1287 203.95,-1283.5 193.95,-1280 193.95,-1287"/>
</g>
<!-- Node9 -->
<g id="node9" class="node">
<title>Node9</title>
<g id="a_node9"><a xlink:href="classdenoptim_1_1fragspace_1_1_fragment_space_test.html#a6f2ce8f6a8319b39440b0dc43ede061f" target="_top" xlink:title="Check that the following graph&#39;s fused ring gets added to the fragment library.">
<polygon fill="white" stroke="black" points="198,-920 198,-961 407,-961 407,-920 198,-920"/>
<text text-anchor="start" x="206" y="-949" font-family="Helvetica,sans-Serif" font-size="10.00">denoptim.fragspace.Fragment</text>
<text text-anchor="start" x="206" y="-938" font-family="Helvetica,sans-Serif" font-size="10.00">SpaceTest.testFusedRingAddedToFragment</text>
<text text-anchor="middle" x="302.5" y="-927" font-family="Helvetica,sans-Serif" font-size="10.00">Library</text>
</a>
</g>
</g>
<!-- Node8&#45;&gt;Node9 -->
<g id="edge8" class="edge">
<title>Node8&#45;&gt;Node9</title>
<path fill="none" stroke="midnightblue" d="M500.98,-732.59C481.01,-744.83 457.76,-762.21 443,-783.5 409.57,-831.71 448.36,-868.89 407,-910.5 403.57,-913.95 399.77,-917.01 395.71,-919.72"/>
<polygon fill="midnightblue" stroke="midnightblue" points="502.77,-735.6 509.6,-727.5 499.21,-729.58 502.77,-735.6"/>
</g>
<!-- Node10 -->
<g id="node10" class="node">
<title>Node10</title>
<g id="a_node10"><a xlink:href="classdenoptim_1_1fragspace_1_1_fragment_space_test.html#a56ef448997df677c5ce4a73737f127e2" target="_top" xlink:title="Checks that a graph with a fused ring containing a scaffold vertex is added to the scaffold library.">
<polygon fill="white" stroke="black" points="201,-860 201,-901 404,-901 404,-860 201,-860"/>
<text text-anchor="start" x="209" y="-889" font-family="Helvetica,sans-Serif" font-size="10.00">denoptim.fragspace.Fragment</text>
<text text-anchor="start" x="209" y="-878" font-family="Helvetica,sans-Serif" font-size="10.00">SpaceTest.testFusedRingAddedToScaffold</text>
<text text-anchor="middle" x="302.5" y="-867" font-family="Helvetica,sans-Serif" font-size="10.00">Library</text>
</a>
</g>
</g>
<!-- Node8&#45;&gt;Node10 -->
<g id="edge9" class="edge">
<title>Node8&#45;&gt;Node10</title>
<path fill="none" stroke="midnightblue" d="M504.05,-733.04C484.32,-745.73 460.32,-763.42 443,-783.5 420.67,-809.4 433.62,-830.04 407,-851.5 403.08,-854.66 398.83,-857.48 394.37,-859.99"/>
<polygon fill="midnightblue" stroke="midnightblue" points="506.16,-735.84 512.77,-727.56 502.44,-729.91 506.16,-735.84"/>
</g>
<!-- Node11 -->
<g id="node11" class="node">
<title>Node11</title>
<g id="a_node11"><a xlink:href="classdenoptim_1_1fragspace_1_1_fragment_space_test.html#a7555fcdf60b6fabae0c95844f351fc6f" target="_top" xlink:title=" ">
<polygon fill="white" stroke="black" points="202.5,-811.5 202.5,-841.5 402.5,-841.5 402.5,-811.5 202.5,-811.5"/>
<text text-anchor="start" x="210.5" y="-829.5" font-family="Helvetica,sans-Serif" font-size="10.00">denoptim.fragspace.Fragment</text>
<text text-anchor="middle" x="302.5" y="-818.5" font-family="Helvetica,sans-Serif" font-size="10.00">SpaceTest.testFusedRingOnlyAddedOnce</text>
</a>
</g>
</g>
<!-- Node8&#45;&gt;Node11 -->
<g id="edge10" class="edge">
<title>Node8&#45;&gt;Node11</title>
<path fill="none" stroke="midnightblue" d="M511.14,-733.59C479.05,-757.11 428.46,-793.12 407,-802.5 399.14,-805.94 390.72,-808.92 382.21,-811.49"/>
<polygon fill="midnightblue" stroke="midnightblue" points="513.28,-736.35 519.26,-727.61 509.13,-730.72 513.28,-736.35"/>
</g>
<!-- Node12 -->
<g id="node12" class="node">
<title>Node12</title>
<g id="a_node12"><a xlink:href="classdenoptim_1_1fragspace_1_1_fragment_space_test.html#ae884d9d970bc9d561dad00bf0c20b4b5" target="_top" xlink:title=" ">
<polygon fill="white" stroke="black" points="210,-752 210,-793 395,-793 395,-752 210,-752"/>
<text text-anchor="start" x="218" y="-781" font-family="Helvetica,sans-Serif" font-size="10.00">denoptim.fragspace.Fragment</text>
<text text-anchor="start" x="218" y="-770" font-family="Helvetica,sans-Serif" font-size="10.00">SpaceTest.testGetFragAPsCompatible</text>
<text text-anchor="middle" x="302.5" y="-759" font-family="Helvetica,sans-Serif" font-size="10.00">WithClass</text>
</a>
</g>
</g>
<!-- Node8&#45;&gt;Node12 -->
<g id="edge11" class="edge">
<title>Node8&#45;&gt;Node12</title>
<path fill="none" stroke="midnightblue" d="M470.49,-730.04C443.46,-736.92 412.25,-744.85 384.18,-751.99"/>
<polygon fill="midnightblue" stroke="midnightblue" points="471.42,-733.42 480.25,-727.56 469.7,-726.64 471.42,-733.42"/>
</g>
<!-- Node13 -->
<g id="node13" class="node">
<title>Node13</title>
<g id="a_node13"><a xlink:href="classdenoptim_1_1fragspace_1_1_fragment_space_test.html#a2ba7718688486212e987638aef444bad" target="_top" xlink:title=" ">
<polygon fill="white" stroke="black" points="210,-692 210,-733 395,-733 395,-692 210,-692"/>
<text text-anchor="start" x="218" y="-721" font-family="Helvetica,sans-Serif" font-size="10.00">denoptim.fragspace.Fragment</text>
<text text-anchor="start" x="218" y="-710" font-family="Helvetica,sans-Serif" font-size="10.00">SpaceTest.testGetFragAPsCompatible</text>
<text text-anchor="middle" x="302.5" y="-699" font-family="Helvetica,sans-Serif" font-size="10.00">WithTheseAPs</text>
</a>
</g>
</g>
<!-- Node8&#45;&gt;Node13 -->
<g id="edge12" class="edge">
<title>Node8&#45;&gt;Node13</title>
<path fill="none" stroke="midnightblue" d="M452.64,-712.5C433.99,-712.5 414.21,-712.5 395.38,-712.5"/>
<polygon fill="midnightblue" stroke="midnightblue" points="452.88,-716 462.88,-712.5 452.88,-709 452.88,-716"/>
</g>
<!-- Node14 -->
<g id="node14" class="node">
<title>Node14</title>
<g id="a_node14"><a xlink:href="classdenoptim_1_1fragspace_1_1_fragment_space_test.html#ab95d03f36f68718eb1cc11fac188401f" target="_top" xlink:title=" ">
<polygon fill="white" stroke="black" points="205.5,-632 205.5,-673 399.5,-673 399.5,-632 205.5,-632"/>
<text text-anchor="start" x="213.5" y="-661" font-family="Helvetica,sans-Serif" font-size="10.00">denoptim.fragspace.Fragment</text>
<text text-anchor="start" x="213.5" y="-650" font-family="Helvetica,sans-Serif" font-size="10.00">SpaceTest.testGetFragmentsCompatible</text>
<text text-anchor="middle" x="302.5" y="-639" font-family="Helvetica,sans-Serif" font-size="10.00">WithTheseAPs</text>
</a>
</g>
</g>
<!-- Node8&#45;&gt;Node14 -->
<g id="edge13" class="edge">
<title>Node8&#45;&gt;Node14</title>
<path fill="none" stroke="midnightblue" d="M470.49,-694.96C443.46,-688.08 412.25,-680.15 384.18,-673.01"/>
<polygon fill="midnightblue" stroke="midnightblue" points="469.7,-698.36 480.25,-697.44 471.42,-691.58 469.7,-698.36"/>
</g>
<!-- Node15 -->
<g id="node15" class="node">
<title>Node15</title>
<g id="a_node15"><a xlink:href="classdenoptim_1_1fragspace_1_1_fragment_space_test.html#a7179e27179c0bbe5a8ae101a9aa8e3d8" target="_top" xlink:title=" ">
<polygon fill="white" stroke="black" points="212,-583.5 212,-613.5 393,-613.5 393,-583.5 212,-583.5"/>
<text text-anchor="start" x="220" y="-601.5" font-family="Helvetica,sans-Serif" font-size="10.00">denoptim.fragspace.Fragment</text>
<text text-anchor="middle" x="302.5" y="-590.5" font-family="Helvetica,sans-Serif" font-size="10.00">SpaceTest.testGetFragsWithAPClass</text>
</a>
</g>
</g>
<!-- Node8&#45;&gt;Node15 -->
<g id="edge14" class="edge">
<title>Node8&#45;&gt;Node15</title>
<path fill="none" stroke="midnightblue" d="M460.3,-693.32C454.15,-690.23 448.28,-686.65 443,-682.5 418.55,-663.29 432.14,-640.8 407,-622.5 402.3,-619.08 397.19,-616.14 391.85,-613.61"/>
<polygon fill="midnightblue" stroke="midnightblue" points="458.93,-696.54 469.48,-697.5 461.83,-690.17 458.93,-696.54"/>
</g>
<!-- Node16 -->
<g id="node16" class="node">
<title>Node16</title>
<g id="a_node16"><a xlink:href="classdenoptim_1_1fragspace_1_1_fragment_space_test.html#ab364422886eee4ba289a703f83b0ef1b" target="_top" xlink:title=" ">
<polygon fill="white" stroke="black" points="230,-534.5 230,-564.5 375,-564.5 375,-534.5 230,-534.5"/>
<text text-anchor="start" x="238" y="-552.5" font-family="Helvetica,sans-Serif" font-size="10.00">denoptim.fragspace.Fragment</text>
<text text-anchor="middle" x="302.5" y="-541.5" font-family="Helvetica,sans-Serif" font-size="10.00">SpaceTest.testSymmetry</text>
</a>
</g>
</g>
<!-- Node8&#45;&gt;Node16 -->
<g id="edge15" class="edge">
<title>Node8&#45;&gt;Node16</title>
<path fill="none" stroke="midnightblue" d="M455.67,-692.38C451.09,-689.52 446.82,-686.24 443,-682.5 406.86,-647.09 444.26,-608.73 407,-574.5 398.02,-566.25 386.78,-560.59 375.06,-556.73"/>
<polygon fill="midnightblue" stroke="midnightblue" points="454.33,-695.65 464.78,-697.41 457.71,-689.52 454.33,-695.65"/>
</g>
<!-- Node8&#45;&gt;Node17 -->
<g id="edge16" class="edge">
<title>Node8&#45;&gt;Node17</title>
<path fill="none" stroke="midnightblue" d="M454.12,-692.04C450.08,-689.26 446.33,-686.09 443,-682.5 394.34,-629.99 456.17,-577.54 407,-525.5 403.53,-521.83 399.64,-518.6 395.46,-515.76"/>
<polygon fill="midnightblue" stroke="midnightblue" points="452.4,-695.1 462.77,-697.26 456.01,-689.1 452.4,-695.1"/>
</g>
<!-- Node19 -->
<g id="node19" class="node">
<title>Node19</title>
<g id="a_node19"><a xlink:href="classdenoptim_1_1graph_1_1_fragment_test.html#a0a98792d99861bb6673e66a76ff49d31" target="_top" xlink:title=" ">
<polygon fill="white" stroke="black" points="220.5,-426.5 220.5,-456.5 384.5,-456.5 384.5,-426.5 220.5,-426.5"/>
<text text-anchor="start" x="228.5" y="-444.5" font-family="Helvetica,sans-Serif" font-size="10.00">denoptim.graph.FragmentTest.test</text>
<text text-anchor="middle" x="302.5" y="-433.5" font-family="Helvetica,sans-Serif" font-size="10.00">Clone</text>
</a>
</g>
</g>
<!-- Node18&#45;&gt;Node19 -->
<g id="edge18" class="edge">
<title>Node18&#45;&gt;Node19</title>
<path fill="none" stroke="midnightblue" d="M446,-603.25C444.97,-602.37 443.97,-601.45 443,-600.5 398.72,-556.96 451.62,-508.68 407,-465.5 400.57,-459.28 392.86,-454.55 384.59,-450.98"/>
<polygon fill="midnightblue" stroke="midnightblue" points="444.26,-606.32 454.41,-609.36 448.38,-600.65 444.26,-606.32"/>
</g>
<!-- Node20 -->
<g id="node20" class="node">
<title>Node20</title>
<g id="a_node20"><a xlink:href="classdenoptim_1_1io_1_1_denoptim_i_o_test.html#afa1376c9ab452a7e75cdf00489be1e07" target="_top" xlink:title=" ">
<polygon fill="white" stroke="black" points="223.5,-377.5 223.5,-407.5 381.5,-407.5 381.5,-377.5 223.5,-377.5"/>
<text text-anchor="start" x="231.5" y="-395.5" font-family="Helvetica,sans-Serif" font-size="10.00">denoptim.io.DenoptimIOTest.test</text>
<text text-anchor="middle" x="302.5" y="-384.5" font-family="Helvetica,sans-Serif" font-size="10.00">IOMolFragment</text>
</a>
</g>
</g>
<!-- Node18&#45;&gt;Node20 -->
<g id="edge19" class="edge">
<title>Node18&#45;&gt;Node20</title>
<path fill="none" stroke="midnightblue" d="M445.91,-603.34C444.91,-602.43 443.94,-601.48 443,-600.5 385.86,-540.45 464.35,-477.35 407,-417.5 399.97,-410.16 391.18,-404.82 381.71,-400.96"/>
<polygon fill="midnightblue" stroke="midnightblue" points="444.07,-606.34 454.14,-609.63 448.32,-600.78 444.07,-606.34"/>
</g>
<!-- Node21 -->
<g id="node21" class="node">
<title>Node21</title>
<g id="a_node21"><a xlink:href="classdenoptim_1_1json_1_1_d_e_n_o_p_t_i_mgson_test.html#ac2186d67581bef7c19379247af6672d6" target="_top" xlink:title=" ">
<polygon fill="white" stroke="black" points="207,-328.5 207,-358.5 398,-358.5 398,-328.5 207,-328.5"/>
<text text-anchor="start" x="215" y="-346.5" font-family="Helvetica,sans-Serif" font-size="10.00">denoptim.json.DENOPTIMgson</text>
<text text-anchor="middle" x="302.5" y="-335.5" font-family="Helvetica,sans-Serif" font-size="10.00">Test.testMolecularFragmentSerialization</text>
</a>
</g>
</g>
<!-- Node18&#45;&gt;Node21 -->
<g id="edge20" class="edge">
<title>Node18&#45;&gt;Node21</title>
<path fill="none" stroke="midnightblue" d="M446.3,-603.81C445.16,-602.76 444.06,-601.66 443,-600.5 372.33,-523.13 478.28,-444.3 407,-367.5 403.86,-364.12 400.35,-361.17 396.57,-358.6"/>
<polygon fill="midnightblue" stroke="midnightblue" points="444.35,-606.73 454.4,-610.07 448.63,-601.19 444.35,-606.73"/>
</g>
<!-- Node22&#45;&gt;Node7 -->
<g id="edge23" class="edge">
<title>Node22&#45;&gt;Node7</title>
<path fill="none" stroke="midnightblue" d="M508.33,-1064.23C482.23,-1080.76 443.5,-1103.4 407,-1117.5 398.22,-1120.89 388.84,-1123.88 379.43,-1126.5"/>
<polygon fill="midnightblue" stroke="midnightblue" points="510.49,-1067.01 517.01,-1058.66 506.71,-1061.12 510.49,-1067.01"/>
</g>
<!-- Node23 -->
<g id="node23" class="node">
<title>Node23</title>
<g id="a_node23"><a xlink:href="classdenoptim_1_1graph_1_1_symmetric_a_ps_test.html#a9425bd6d6e87f4d8ff966498564a3633" target="_top" xlink:title=" ">
<polygon fill="white" stroke="black" points="229.5,-1077.5 229.5,-1107.5 375.5,-1107.5 375.5,-1077.5 229.5,-1077.5"/>
<text text-anchor="start" x="237.5" y="-1095.5" font-family="Helvetica,sans-Serif" font-size="10.00">denoptim.graph.Symmetric</text>
<text text-anchor="middle" x="302.5" y="-1084.5" font-family="Helvetica,sans-Serif" font-size="10.00">APsTest.testGetSameAsThis</text>
</a>
</g>
</g>
<!-- Node22&#45;&gt;Node23 -->
<g id="edge22" class="edge">
<title>Node22&#45;&gt;Node23</title>
<path fill="none" stroke="midnightblue" d="M457.08,-1060.61C430.6,-1066.11 401.47,-1072.16 375.77,-1077.49"/>
<polygon fill="midnightblue" stroke="midnightblue" points="458.01,-1063.99 467.09,-1058.53 456.59,-1057.14 458.01,-1063.99"/>
</g>
<!-- Node24 -->
<g id="node24" class="node">
<title>Node24</title>
<g id="a_node24"><a xlink:href="classdenoptim_1_1graph_1_1_fragment_test.html#af49cc0e35c38f683bfc3d332210d1124" target="_top" xlink:title=" ">
<polygon fill="white" stroke="black" points="220.5,-979.5 220.5,-1009.5 384.5,-1009.5 384.5,-979.5 220.5,-979.5"/>
<text text-anchor="start" x="228.5" y="-997.5" font-family="Helvetica,sans-Serif" font-size="10.00">denoptim.graph.FragmentTest.test</text>
<text text-anchor="middle" x="302.5" y="-986.5" font-family="Helvetica,sans-Serif" font-size="10.00">IsomorphicTo</text>
</a>
</g>
</g>
<!-- Node22&#45;&gt;Node24 -->
<g id="edge24" class="edge">
<title>Node22&#45;&gt;Node24</title>
<path fill="none" stroke="midnightblue" d="M457.08,-1026.39C430.6,-1020.89 401.47,-1014.84 375.77,-1009.51"/>
<polygon fill="midnightblue" stroke="midnightblue" points="456.59,-1029.86 467.09,-1028.47 458.01,-1023.01 456.59,-1029.86"/>
</g>
<!-- Node25 -->
<g id="node25" class="node">
<title>Node25</title>
<g id="a_node25"><a xlink:href="classdenoptim_1_1graph_1_1_symmetric_a_ps_test.html#a90b0920db91160f9d8f797d5167e39de" target="_top" xlink:title=" ">
<polygon fill="white" stroke="black" points="237,-1028.5 237,-1058.5 368,-1058.5 368,-1028.5 237,-1028.5"/>
<text text-anchor="start" x="245" y="-1046.5" font-family="Helvetica,sans-Serif" font-size="10.00">denoptim.graph.Symmetric</text>
<text text-anchor="middle" x="302.5" y="-1035.5" font-family="Helvetica,sans-Serif" font-size="10.00">APsTest.testSameAs</text>
</a>
</g>
</g>
<!-- Node22&#45;&gt;Node25 -->
<g id="edge25" class="edge">
<title>Node22&#45;&gt;Node25</title>
<path fill="none" stroke="midnightblue" d="M444.22,-1043.5C418.68,-1043.5 391.66,-1043.5 368.2,-1043.5"/>
<polygon fill="midnightblue" stroke="midnightblue" points="444.3,-1047 454.3,-1043.5 444.3,-1040 444.3,-1047"/>
</g>
<!-- Node26&#45;&gt;Node24 -->
<g id="edge27" class="edge">
<title>Node26&#45;&gt;Node24</title>
<path fill="none" stroke="midnightblue" d="M452.26,-965.5C428.74,-970.09 403.47,-975.01 380.55,-979.48"/>
<polygon fill="midnightblue" stroke="midnightblue" points="453.08,-968.91 462.22,-963.56 451.74,-962.04 453.08,-968.91"/>
</g>
<!-- Node27&#45;&gt;Node24 -->
<g id="edge29" class="edge">
<title>Node27&#45;&gt;Node24</title>
<path fill="none" stroke="midnightblue" d="M520.47,-830.22C500.88,-853.69 469.55,-891.45 443,-924.5 426.74,-944.74 428.89,-956.55 407,-970.5 400.08,-974.91 392.43,-978.51 384.53,-981.46"/>
<polygon fill="midnightblue" stroke="midnightblue" points="523.16,-832.46 526.88,-822.54 517.79,-827.97 523.16,-832.46"/>
</g>
</g>
</svg>
