<?xml version="1.0" encoding="UTF-8" standalone="no"?>
<!DOCTYPE svg PUBLIC "-//W3C//DTD SVG 1.1//EN"
 "http://www.w3.org/Graphics/SVG/1.1/DTD/svg11.dtd">
<!-- Generated by graphviz version 3.0.0 (20221109.1736)
 -->
<!-- Title: denoptim.constants.DENOPTIMConstants Pages: 1 -->
<!--zoomable 260 -->
<svg id="main" version="1.1" xmlns="http://www.w3.org/2000/svg" xmlns:xlink="http://www.w3.org/1999/xlink" xml:space="preserve" onload="init(evt)">
<style type="text/css"><![CDATA[
.edge:hover path { stroke: red; }
.edge:hover polygon { stroke: red; fill: red; }
]]></style>
<script type="text/javascript"><![CDATA[
var edges = document.getElementsByTagName('g');
if (edges && edges.length) {
  for (var i=0;i<edges.length;i++) {
    if (edges[i].id.substr(0,4)=='edge') {
      edges[i].setAttribute('class','edge');
    }
  }
}
]]></script>
        <defs>
                <circle id="rim" cx="0" cy="0" r="7"/>
                <circle id="rim2" cx="0" cy="0" r="3.5"/>
                <g id="zoomPlus">
                        <use xlink:href="#rim" fill="#404040">
                                <set attributeName="fill" to="#808080" begin="zoomplus.mouseover" end="zoomplus.mouseout"/>
                        </use>
                        <path d="M-4,0h8M0,-4v8" fill="none" stroke="white" stroke-width="1.5" pointer-events="none"/>
                </g>
                <g id="zoomMin">
                        <use xlink:href="#rim" fill="#404040">
                                <set attributeName="fill" to="#808080" begin="zoomminus.mouseover" end="zoomminus.mouseout"/>
                        </use>
                        <path d="M-4,0h8" fill="none" stroke="white" stroke-width="1.5" pointer-events="none"/>
                </g>
                <g id="dirArrow">
                        <path fill="none" stroke="white" stroke-width="1.5" d="M0,-3.0v7 M-2.5,-0.5L0,-3.0L2.5,-0.5"/>
                </g>
               <g id="resetDef">
                       <use xlink:href="#rim2" fill="#404040">
                               <set attributeName="fill" to="#808080" begin="reset.mouseover" end="reset.mouseout"/>
                       </use>
               </g>
        </defs>

<script type="text/javascript">
var viewWidth = 680;
var viewHeight = 260;
var sectionId = 'dynsection-0';
</script>
<script xlink:href="svgpan.js"/>
<svg id="graph" class="graph">
<g id="viewport">
<title>denoptim.constants.DENOPTIMConstants</title>
<polygon fill="white" stroke="transparent" points="-4,4 -4,-256 676,-256 676,4 -4,4"/>
<!-- Node1 -->
<g id="node1" class="node">
<title>Node1</title>
<g id="a_node1"><a xlink:title="General set of constants used in DENOPTIM.">
<polygon fill="#bfbfbf" stroke="black" points="472,-109.5 472,-128.5 672,-128.5 672,-109.5 472,-109.5"/>
<text text-anchor="middle" x="572" y="-116.5" font-family="Helvetica,sans-Serif" font-size="10.00">denoptim.constants.DENOPTIMConstants</text>
</a>
</g>
</g>
<!-- Node2 -->
<g id="node2" class="node">
<title>Node2</title>
<g id="a_node2"><a xlink:title=" ">
<polygon fill="white" stroke="black" points="232.5,-232.5 232.5,-251.5 264.5,-251.5 264.5,-232.5 232.5,-232.5"/>
<text text-anchor="middle" x="248.5" y="-239.5" font-family="Helvetica,sans-Serif" font-size="10.00">File</text>
</a>
</g>
</g>
<!-- Node2&#45;&gt;Node1 -->
<g id="edge1" class="edge">
<title>Node2&#45;&gt;Node1</title>
<path fill="none" stroke="#9a32cd" stroke-dasharray="5,2" d="M274.71,-238.68C314.17,-232.9 392.36,-219.03 454,-193 495.18,-175.61 538.29,-144.43 558.78,-128.67"/>
<polygon fill="#9a32cd" stroke="#9a32cd" points="274.07,-235.24 264.66,-240.1 275.05,-242.17 274.07,-235.24"/>
<text text-anchor="middle" x="397.5" y="-239" font-family="Helvetica,sans-Serif" font-size="10.00"> GLOBALCONFIG</text>
<text text-anchor="middle" x="397.5" y="-228" font-family="Helvetica,sans-Serif" font-size="10.00">RECENTFILESLIST</text>
</g>
<!-- Node3 -->
<g id="node3" class="node">
<title>Node3</title>
<g id="a_node3"><a xlink:title=" ">
<polygon fill="white" stroke="black" points="192,-194.5 192,-213.5 305,-213.5 305,-194.5 192,-194.5"/>
<text text-anchor="middle" x="248.5" y="-201.5" font-family="Helvetica,sans-Serif" font-size="10.00">Map&lt; String, Integer &gt;</text>
</a>
</g>
</g>
<!-- Node3&#45;&gt;Node1 -->
<g id="edge2" class="edge">
<title>Node3&#45;&gt;Node1</title>
<path fill="none" stroke="#9a32cd" stroke-dasharray="5,2" d="M295.33,-191.88C359.81,-174.83 475.99,-144.12 534.8,-128.57"/>
<polygon fill="#9a32cd" stroke="#9a32cd" points="294.22,-188.56 285.44,-194.5 296.01,-195.32 294.22,-188.56"/>
<text text-anchor="middle" x="397.5" y="-181" font-family="Helvetica,sans-Serif" font-size="10.00"> VALENCE_MAP</text>
</g>
<!-- Node4 -->
<g id="node4" class="node">
<title>Node4</title>
<g id="a_node4"><a xlink:title=" ">
<polygon fill="white" stroke="black" points="0,-99.5 0,-118.5 74,-118.5 74,-99.5 0,-99.5"/>
<text text-anchor="middle" x="37" y="-106.5" font-family="Helvetica,sans-Serif" font-size="10.00">Set&lt; String &gt;</text>
</a>
</g>
</g>
<!-- Node4&#45;&gt;Node1 -->
<g id="edge3" class="edge">
<title>Node4&#45;&gt;Node1</title>
<path fill="none" stroke="#9a32cd" stroke-dasharray="5,2" d="M84.28,-117.22C86.88,-117.52 89.47,-117.79 92,-118 222.93,-128.97 374.71,-126.78 471.72,-123.5"/>
<polygon fill="#9a32cd" stroke="#9a32cd" points="84.58,-113.73 74.21,-115.87 83.65,-120.66 84.58,-113.73"/>
<text text-anchor="middle" x="248.5" y="-162" font-family="Helvetica,sans-Serif" font-size="10.00"> ALLOWED_ELEMENTS</text>
<text text-anchor="middle" x="248.5" y="-151" font-family="Helvetica,sans-Serif" font-size="10.00">ALLOWED_EXTENSIONS</text>
<text text-anchor="middle" x="248.5" y="-140" font-family="Helvetica,sans-Serif" font-size="10.00">ALL_ELEMENTS</text>
<text text-anchor="middle" x="248.5" y="-129" font-family="Helvetica,sans-Serif" font-size="10.00">ORGANIC_SUBSET_ELEMENTS</text>
</g>
<!-- Node7 -->
<g id="node7" class="node">
<title>Node7</title>
<g id="a_node7"><a xlink:href="enumdenoptim_1_1files_1_1_file_format.html" target="_top" xlink:title="File formats identified by DENOPTIM.">
<polygon fill="white" stroke="black" points="186,-76.5 186,-95.5 311,-95.5 311,-76.5 186,-76.5"/>
<text text-anchor="middle" x="248.5" y="-83.5" font-family="Helvetica,sans-Serif" font-size="10.00">denoptim.files.FileFormat</text>
</a>
</g>
</g>
<!-- Node4&#45;&gt;Node7 -->
<g id="edge7" class="edge">
<title>Node4&#45;&gt;Node7</title>
<path fill="none" stroke="#9a32cd" stroke-dasharray="5,2" d="M83.82,-97.4C86.58,-96.88 89.32,-96.41 92,-96 122.76,-91.34 157.26,-88.85 185.94,-87.52"/>
<polygon fill="#9a32cd" stroke="#9a32cd" points="82.93,-94.01 73.85,-99.46 84.35,-100.86 82.93,-94.01"/>
<text text-anchor="middle" x="124" y="-110" font-family="Helvetica,sans-Serif" font-size="10.00"> definingRegex</text>
<text text-anchor="middle" x="124" y="-99" font-family="Helvetica,sans-Serif" font-size="10.00">negatingRegex</text>
</g>
<!-- Node5 -->
<g id="node5" class="node">
<title>Node5</title>
<g id="a_node5"><a xlink:title=" ">
<polygon fill="white" stroke="black" points="199.5,-38.5 199.5,-57.5 297.5,-57.5 297.5,-38.5 199.5,-38.5"/>
<text text-anchor="middle" x="248.5" y="-45.5" font-family="Helvetica,sans-Serif" font-size="10.00">ArrayList&lt; String &gt;</text>
</a>
</g>
</g>
<!-- Node5&#45;&gt;Node1 -->
<g id="edge4" class="edge">
<title>Node5&#45;&gt;Node1</title>
<path fill="none" stroke="#9a32cd" stroke-dasharray="5,2" d="M308.01,-54.53C349.18,-59.76 405.39,-68.18 454,-80 486.46,-87.89 522.8,-100.65 546.25,-109.41"/>
<polygon fill="#9a32cd" stroke="#9a32cd" points="308.23,-51.03 297.88,-53.26 307.37,-57.97 308.23,-51.03"/>
<text text-anchor="middle" x="397.5" y="-83" font-family="Helvetica,sans-Serif" font-size="10.00"> ALL_METALS</text>
</g>
<!-- Node6 -->
<g id="node6" class="node">
<title>Node6</title>
<g id="a_node6"><a xlink:title=" ">
<polygon fill="white" stroke="black" points="194.5,-0.5 194.5,-19.5 302.5,-19.5 302.5,-0.5 194.5,-0.5"/>
<text text-anchor="middle" x="248.5" y="-7.5" font-family="Helvetica,sans-Serif" font-size="10.00">Map&lt; String, String &gt;</text>
</a>
</g>
</g>
<!-- Node6&#45;&gt;Node1 -->
<g id="edge5" class="edge">
<title>Node6&#45;&gt;Node1</title>
<path fill="none" stroke="#9a32cd" stroke-dasharray="5,2" d="M312.9,-14.37C354.18,-18.78 408.59,-27.56 454,-45 495.96,-61.12 539.05,-93.17 559.23,-109.28"/>
<polygon fill="#9a32cd" stroke="#9a32cd" points="313,-10.87 302.7,-13.35 312.3,-17.83 313,-10.87"/>
<text text-anchor="middle" x="397.5" y="-48" font-family="Helvetica,sans-Serif" font-size="10.00"> RCATYPEMAP</text>
</g>
<!-- Node7&#45;&gt;Node1 -->
<g id="edge6" class="edge">
<title>Node7&#45;&gt;Node1</title>
<path fill="none" stroke="#9a32cd" stroke-dasharray="5,2" d="M321.06,-93.35C367.4,-98.1 428.21,-104.34 478.24,-109.48"/>
<polygon fill="#9a32cd" stroke="#9a32cd" points="321.41,-89.86 311.11,-92.32 320.7,-96.83 321.41,-89.86"/>
<text text-anchor="middle" x="397.5" y="-109" font-family="Helvetica,sans-Serif" font-size="10.00"> TMPFRAGFILEFORMAT</text>
</g>
</g>
</svg>
        <g id="navigator" transform="translate(0 0)" fill="#404254">
                <rect fill="#f2f5e9" fill-opacity="0.5" stroke="#606060" stroke-width=".5" x="0" y="0" width="60" height="60"/>
                <use id="zoomplus" xlink:href="#zoomPlus" x="17" y="9" onmousedown="handleZoom(evt,'in')"/>
                <use id="zoomminus" xlink:href="#zoomMin" x="42" y="9" onmousedown="handleZoom(evt,'out')"/>
                <use id="reset" xlink:href="#resetDef" x="30" y="36" onmousedown="handleReset()"/>
                <g id="arrowUp" xlink:href="#dirArrow" transform="translate(30 24)" onmousedown="handlePan(0,-1)">
                  <use xlink:href="#rim" fill="#404040">
                        <set attributeName="fill" to="#808080" begin="arrowUp.mouseover" end="arrowUp.mouseout"/>
                  </use>
                  <path fill="none" stroke="white" stroke-width="1.5" d="M0,-3.0v7 M-2.5,-0.5L0,-3.0L2.5,-0.5"/>
                </g>
                <g id="arrowRight" xlink:href="#dirArrow" transform="rotate(90) translate(36 -43)" onmousedown="handlePan(1,0)">
                  <use xlink:href="#rim" fill="#404040">
                        <set attributeName="fill" to="#808080" begin="arrowRight.mouseover" end="arrowRight.mouseout"/>
                  </use>
                  <path fill="none" stroke="white" stroke-width="1.5" d="M0,-3.0v7 M-2.5,-0.5L0,-3.0L2.5,-0.5"/>
                </g>
                <g id="arrowDown" xlink:href="#dirArrow" transform="rotate(180) translate(-30 -48)" onmousedown="handlePan(0,1)">
                  <use xlink:href="#rim" fill="#404040">
                        <set attributeName="fill" to="#808080" begin="arrowDown.mouseover" end="arrowDown.mouseout"/>
                  </use>
                  <path fill="none" stroke="white" stroke-width="1.5" d="M0,-3.0v7 M-2.5,-0.5L0,-3.0L2.5,-0.5"/>
                </g>
                <g id="arrowLeft" xlink:href="#dirArrow" transform="rotate(270) translate(-36 17)" onmousedown="handlePan(-1,0)">
                  <use xlink:href="#rim" fill="#404040">
                        <set attributeName="fill" to="#808080" begin="arrowLeft.mouseover" end="arrowLeft.mouseout"/>
                  </use>
                  <path fill="none" stroke="white" stroke-width="1.5" d="M0,-3.0v7 M-2.5,-0.5L0,-3.0L2.5,-0.5"/>
                </g>
        </g>
        <svg viewBox="0 0 15 15" width="100%" height="30px" preserveAspectRatio="xMaxYMin meet">
         <g id="arrow_out" transform="scale(0.3 0.3)">
          <a xlink:href="classdenoptim_1_1constants_1_1_d_e_n_o_p_t_i_m_constants__coll__graph_org.svg" target="_base">
           <rect id="button" ry="5" rx="5" y="6" x="6" height="38" width="38"
                fill="#f2f5e9" fill-opacity="0.5" stroke="#606060" stroke-width="1.0"/>
           <path id="arrow"
             d="M 11.500037,31.436501 C 11.940474,20.09759 22.043105,11.32322 32.158766,21.979434 L 37.068811,17.246167 C 37.068811,17.246167 37.088388,32 37.088388,32 L 22.160133,31.978069 C 22.160133,31.978069 26.997745,27.140456 26.997745,27.140456 C 18.528582,18.264221 13.291696,25.230495 11.500037,31.436501 z"
             style="fill:#404040;"/>
          </a>
         </g>
        </svg>
</svg>
