<?xml version="1.0" encoding="UTF-8" standalone="no"?>
<!DOCTYPE svg PUBLIC "-//W3C//DTD SVG 1.1//EN"
 "http://www.w3.org/Graphics/SVG/1.1/DTD/svg11.dtd">
<!-- Generated by graphviz version 3.0.0 (20221109.1736)
 -->
<!-- Title: denoptim.graph.DGraph.getRingCount Pages: 1 -->
<!--zoomable 904 -->
<svg id="main" version="1.1" xmlns="http://www.w3.org/2000/svg" xmlns:xlink="http://www.w3.org/1999/xlink" xml:space="preserve" onload="init(evt)">
<style type="text/css"><![CDATA[
.edge:hover path { stroke: red; }
.edge:hover polygon { stroke: red; fill: red; }
]]></style>
<script type="text/javascript"><![CDATA[
var edges = document.getElementsByTagName('g');
if (edges && edges.length) {
  for (var i=0;i<edges.length;i++) {
    if (edges[i].id.substr(0,4)=='edge') {
      edges[i].setAttribute('class','edge');
    }
  }
}
]]></script>
        <defs>
                <circle id="rim" cx="0" cy="0" r="7"/>
                <circle id="rim2" cx="0" cy="0" r="3.5"/>
                <g id="zoomPlus">
                        <use xlink:href="#rim" fill="#404040">
                                <set attributeName="fill" to="#808080" begin="zoomplus.mouseover" end="zoomplus.mouseout"/>
                        </use>
                        <path d="M-4,0h8M0,-4v8" fill="none" stroke="white" stroke-width="1.5" pointer-events="none"/>
                </g>
                <g id="zoomMin">
                        <use xlink:href="#rim" fill="#404040">
                                <set attributeName="fill" to="#808080" begin="zoomminus.mouseover" end="zoomminus.mouseout"/>
                        </use>
                        <path d="M-4,0h8" fill="none" stroke="white" stroke-width="1.5" pointer-events="none"/>
                </g>
                <g id="dirArrow">
                        <path fill="none" stroke="white" stroke-width="1.5" d="M0,-3.0v7 M-2.5,-0.5L0,-3.0L2.5,-0.5"/>
                </g>
               <g id="resetDef">
                       <use xlink:href="#rim2" fill="#404040">
                               <set attributeName="fill" to="#808080" begin="reset.mouseover" end="reset.mouseout"/>
                       </use>
               </g>
        </defs>

<script type="text/javascript">
var viewWidth = 959;
var viewHeight = 904;
var sectionId = 'dynsection-132';
</script>
<script xlink:href="svgpan.js"/>
<svg id="graph" class="graph">
<g id="viewport">
<title>denoptim.graph.DGraph.getRingCount</title>
<polygon fill="white" stroke="transparent" points="-4,4 -4,-900 955,-900 955,4 -4,4"/>
<!-- Node1 -->
<g id="node1" class="node">
<title>Node1</title>
<g id="a_node1"><a xlink:title=" ">
<polygon fill="#bfbfbf" stroke="black" points="817,-299.5 817,-329.5 951,-329.5 951,-299.5 817,-299.5"/>
<text text-anchor="start" x="825" y="-317.5" font-family="Helvetica,sans-Serif" font-size="10.00">denoptim.graph.DGraph.get</text>
<text text-anchor="middle" x="884" y="-306.5" font-family="Helvetica,sans-Serif" font-size="10.00">RingCount</text>
</a>
</g>
</g>
<!-- Node2 -->
<g id="node2" class="node">
<title>Node2</title>
<g id="a_node2"><a xlink:href="classdenoptim_1_1graph_1_1_d_graph.html#a956d0e807af7dbbad5267138e35cdb3d" target="_top" xlink:title="Compare this and another graph ignoring the vertex IDs.">
<polygon fill="white" stroke="black" points="614,-582 614,-601 770,-601 770,-582 614,-582"/>
<text text-anchor="middle" x="692" y="-589" font-family="Helvetica,sans-Serif" font-size="10.00">denoptim.graph.DGraph.sameAs</text>
</a>
</g>
</g>
<!-- Node1&#45;&gt;Node2 -->
<g id="edge1" class="edge">
<title>Node1&#45;&gt;Node2</title>
<path fill="none" stroke="midnightblue" d="M880.64,-339.74C874.4,-391.53 852.65,-510.13 781,-571.5 776,-575.78 770.28,-579.19 764.19,-581.91"/>
<polygon fill="midnightblue" stroke="midnightblue" points="884.13,-340.07 881.75,-329.74 877.17,-339.29 884.13,-340.07"/>
</g>
<!-- Node18 -->
<g id="node18" class="node">
<title>Node18</title>
<g id="a_node18"><a xlink:href="classdenoptim_1_1graph_1_1_template_test.html#a72d37b4c24ad896838401b319b1d667e" target="_top" xlink:title=" ">
<polygon fill="white" stroke="black" points="610,-532.5 610,-562.5 774,-562.5 774,-532.5 610,-532.5"/>
<text text-anchor="start" x="618" y="-550.5" font-family="Helvetica,sans-Serif" font-size="10.00">denoptim.graph.TemplateTest.test</text>
<text text-anchor="middle" x="692" y="-539.5" font-family="Helvetica,sans-Serif" font-size="10.00">Clone</text>
</a>
</g>
</g>
<!-- Node1&#45;&gt;Node18 -->
<g id="edge17" class="edge">
<title>Node1&#45;&gt;Node18</title>
<path fill="none" stroke="midnightblue" d="M877.75,-339.5C867.25,-383.25 839.46,-473.67 781,-522.5 776.37,-526.37 771.17,-529.64 765.68,-532.41"/>
<polygon fill="midnightblue" stroke="midnightblue" points="881.18,-340.21 880,-329.68 874.36,-338.65 881.18,-340.21"/>
</g>
<!-- Node19 -->
<g id="node19" class="node">
<title>Node19</title>
<g id="a_node19"><a xlink:href="classdenoptim_1_1graph_1_1_d_graph_test.html#aa9ebd151440fb02ddfa82c194ba5cf27" target="_top" xlink:title=" ">
<polygon fill="white" stroke="black" points="614,-483.5 614,-513.5 770,-513.5 770,-483.5 614,-483.5"/>
<text text-anchor="start" x="622" y="-501.5" font-family="Helvetica,sans-Serif" font-size="10.00">denoptim.graph.DGraphTest.test</text>
<text text-anchor="middle" x="692" y="-490.5" font-family="Helvetica,sans-Serif" font-size="10.00">EmbedPatternsInTemplates</text>
</a>
</g>
</g>
<!-- Node1&#45;&gt;Node19 -->
<g id="edge18" class="edge">
<title>Node1&#45;&gt;Node19</title>
<path fill="none" stroke="midnightblue" d="M873.83,-339.55C859.54,-375.02 828.56,-439.48 781,-474.5 776.28,-477.97 771.09,-480.95 765.66,-483.49"/>
<polygon fill="midnightblue" stroke="midnightblue" points="877.2,-340.53 877.57,-329.95 870.68,-337.99 877.2,-340.53"/>
</g>
<!-- Node20 -->
<g id="node20" class="node">
<title>Node20</title>
<g id="a_node20"><a xlink:href="classdenoptim_1_1ga_1_1_graph_operations_test.html#a161540d22b2ad17c44fc3e1a911a1367" target="_top" xlink:title=" ">
<polygon fill="white" stroke="black" points="619.5,-424 619.5,-465 764.5,-465 764.5,-424 619.5,-424"/>
<text text-anchor="start" x="627.5" y="-453" font-family="Helvetica,sans-Serif" font-size="10.00">denoptim.ga.GraphOperations</text>
<text text-anchor="start" x="627.5" y="-442" font-family="Helvetica,sans-Serif" font-size="10.00">Test.testExtractPattern</text>
<text text-anchor="middle" x="692" y="-431" font-family="Helvetica,sans-Serif" font-size="10.00">_singleRingSystem</text>
</a>
</g>
</g>
<!-- Node1&#45;&gt;Node20 -->
<g id="edge19" class="edge">
<title>Node1&#45;&gt;Node20</title>
<path fill="none" stroke="midnightblue" d="M864.84,-337.53C846.03,-360 814.7,-393.74 781,-414.5 775.37,-417.97 769.28,-421.1 763.03,-423.91"/>
<polygon fill="midnightblue" stroke="midnightblue" points="867.78,-339.47 871.42,-329.52 862.37,-335.03 867.78,-339.47"/>
</g>
<!-- Node21 -->
<g id="node21" class="node">
<title>Node21</title>
<g id="a_node21"><a xlink:href="classdenoptim_1_1graph_1_1_d_graph_test.html#a6b4a7a889a0e36c8b2dc97bcd8055c9e" target="_top" xlink:title=" ">
<polygon fill="white" stroke="black" points="614,-375.5 614,-405.5 770,-405.5 770,-375.5 614,-375.5"/>
<text text-anchor="start" x="622" y="-393.5" font-family="Helvetica,sans-Serif" font-size="10.00">denoptim.graph.DGraphTest.test</text>
<text text-anchor="middle" x="692" y="-382.5" font-family="Helvetica,sans-Serif" font-size="10.00">ExtractSubgraph</text>
</a>
</g>
</g>
<!-- Node1&#45;&gt;Node21 -->
<g id="edge20" class="edge">
<title>Node1&#45;&gt;Node21</title>
<path fill="none" stroke="midnightblue" d="M847.34,-334.39C828.09,-344.59 803.68,-356.7 781,-365.5 771.67,-369.12 761.61,-372.47 751.73,-375.47"/>
<polygon fill="midnightblue" stroke="midnightblue" points="849.2,-337.36 856.35,-329.55 845.89,-331.2 849.2,-337.36"/>
</g>
<!-- Node22 -->
<g id="node22" class="node">
<title>Node22</title>
<g id="a_node22"><a xlink:href="classdenoptim_1_1ga_1_1_e_a_utils_test.html#a24f7c5614809e179869e3ff7f0915067" target="_top" xlink:title=" ">
<polygon fill="white" stroke="black" points="603,-326.5 603,-356.5 781,-356.5 781,-326.5 603,-326.5"/>
<text text-anchor="start" x="611" y="-344.5" font-family="Helvetica,sans-Serif" font-size="10.00">denoptim.ga.EAUtilsTest.test</text>
<text text-anchor="middle" x="692" y="-333.5" font-family="Helvetica,sans-Serif" font-size="10.00">MakeGraphFromFragmentationOfMol</text>
</a>
</g>
</g>
<!-- Node1&#45;&gt;Node22 -->
<g id="edge21" class="edge">
<title>Node1&#45;&gt;Node22</title>
<path fill="none" stroke="midnightblue" d="M806.64,-325.35C798.21,-326.55 789.57,-327.78 781.01,-328.99"/>
<polygon fill="midnightblue" stroke="midnightblue" points="807.41,-328.78 816.81,-323.91 806.42,-321.85 807.41,-328.78"/>
</g>
<!-- Node23 -->
<g id="node23" class="node">
<title>Node23</title>
<g id="a_node23"><a xlink:href="classdenoptim_1_1ga_1_1_e_a_utils_test.html#a7aacd3106f0bd9b473ad774341985f4f" target="_top" xlink:title=" ">
<polygon fill="white" stroke="black" points="603,-267 603,-308 781,-308 781,-267 603,-267"/>
<text text-anchor="start" x="611" y="-296" font-family="Helvetica,sans-Serif" font-size="10.00">denoptim.ga.EAUtilsTest.test</text>
<text text-anchor="start" x="611" y="-285" font-family="Helvetica,sans-Serif" font-size="10.00">MakeGraphFromFragmentationOfMol</text>
<text text-anchor="middle" x="692" y="-274" font-family="Helvetica,sans-Serif" font-size="10.00">_linearities</text>
</a>
</g>
</g>
<!-- Node1&#45;&gt;Node23 -->
<g id="edge22" class="edge">
<title>Node1&#45;&gt;Node23</title>
<path fill="none" stroke="midnightblue" d="M806.64,-303.65C798.21,-302.45 789.57,-301.22 781.01,-300.01"/>
<polygon fill="midnightblue" stroke="midnightblue" points="806.42,-307.15 816.81,-305.09 807.41,-300.22 806.42,-307.15"/>
</g>
<!-- Node24 -->
<g id="node24" class="node">
<title>Node24</title>
<g id="a_node24"><a xlink:href="classdenoptim_1_1ga_1_1_e_a_utils_test.html#abcbac685a05d95293f9ed0c994337f96" target="_top" xlink:title=" ">
<polygon fill="white" stroke="black" points="603,-207 603,-248 781,-248 781,-207 603,-207"/>
<text text-anchor="start" x="611" y="-236" font-family="Helvetica,sans-Serif" font-size="10.00">denoptim.ga.EAUtilsTest.test</text>
<text text-anchor="start" x="611" y="-225" font-family="Helvetica,sans-Serif" font-size="10.00">MakeGraphFromFragmentationOfMol</text>
<text text-anchor="middle" x="692" y="-214" font-family="Helvetica,sans-Serif" font-size="10.00">_ScaffoldingPolicy</text>
</a>
</g>
</g>
<!-- Node1&#45;&gt;Node24 -->
<g id="edge23" class="edge">
<title>Node1&#45;&gt;Node24</title>
<path fill="none" stroke="midnightblue" d="M850.08,-294.1C830.47,-282.46 804.84,-268.12 781,-257.5 773.63,-254.22 765.78,-251.07 757.92,-248.13"/>
<polygon fill="midnightblue" stroke="midnightblue" points="848.53,-297.25 858.91,-299.4 852.14,-291.25 848.53,-297.25"/>
</g>
<!-- Node25 -->
<g id="node25" class="node">
<title>Node25</title>
<g id="a_node25"><a xlink:href="classdenoptim_1_1ga_1_1_e_a_utils_test.html#a85f73c095ad2eb848d44d9cff6de5f5d" target="_top" xlink:title=" ">
<polygon fill="white" stroke="black" points="603,-147 603,-188 781,-188 781,-147 603,-147"/>
<text text-anchor="start" x="611" y="-176" font-family="Helvetica,sans-Serif" font-size="10.00">denoptim.ga.EAUtilsTest.test</text>
<text text-anchor="start" x="611" y="-165" font-family="Helvetica,sans-Serif" font-size="10.00">MakeGraphFromFragmentationOfMol</text>
<text text-anchor="middle" x="692" y="-154" font-family="Helvetica,sans-Serif" font-size="10.00">_Symmetry</text>
</a>
</g>
</g>
<!-- Node1&#45;&gt;Node25 -->
<g id="edge24" class="edge">
<title>Node1&#45;&gt;Node25</title>
<path fill="none" stroke="midnightblue" d="M867.94,-290.71C850.15,-264.42 818.23,-222.49 781,-197.5 775.77,-193.99 770.1,-190.86 764.23,-188.06"/>
<polygon fill="midnightblue" stroke="midnightblue" points="865.19,-292.9 873.63,-299.31 871.03,-289.04 865.19,-292.9"/>
</g>
<!-- Node26 -->
<g id="node26" class="node">
<title>Node26</title>
<g id="a_node26"><a xlink:href="classdenoptim_1_1graph_1_1_d_graph_test.html#a337ce2733050aa5d37cec418eb7d9081" target="_top" xlink:title=" ">
<polygon fill="white" stroke="black" points="614,-98.5 614,-128.5 770,-128.5 770,-98.5 614,-98.5"/>
<text text-anchor="start" x="622" y="-116.5" font-family="Helvetica,sans-Serif" font-size="10.00">denoptim.graph.DGraphTest.test</text>
<text text-anchor="middle" x="692" y="-105.5" font-family="Helvetica,sans-Serif" font-size="10.00">RemoveVertex</text>
</a>
</g>
</g>
<!-- Node1&#45;&gt;Node26 -->
<g id="edge25" class="edge">
<title>Node1&#45;&gt;Node26</title>
<path fill="none" stroke="midnightblue" d="M875.44,-289.37C862.52,-250.77 832.46,-177.2 781,-137.5 776.61,-134.11 771.78,-131.21 766.7,-128.71"/>
<polygon fill="midnightblue" stroke="midnightblue" points="872.23,-290.83 878.64,-299.27 878.9,-288.68 872.23,-290.83"/>
</g>
<!-- Node27 -->
<g id="node27" class="node">
<title>Node27</title>
<g id="a_node27"><a xlink:href="classdenoptim_1_1graph_1_1_d_graph_test.html#a83a9624ea5dc6a2c515407b865b62611" target="_top" xlink:title=" ">
<polygon fill="white" stroke="black" points="614,-49.5 614,-79.5 770,-79.5 770,-49.5 614,-49.5"/>
<text text-anchor="start" x="622" y="-67.5" font-family="Helvetica,sans-Serif" font-size="10.00">denoptim.graph.DGraphTest.test</text>
<text text-anchor="middle" x="692" y="-56.5" font-family="Helvetica,sans-Serif" font-size="10.00">ReplaceSubGraph</text>
</a>
</g>
</g>
<!-- Node1&#45;&gt;Node27 -->
<g id="edge26" class="edge">
<title>Node1&#45;&gt;Node27</title>
<path fill="none" stroke="midnightblue" d="M878.92,-289.62C869.94,-242.98 844.03,-142.3 781,-88.5 777.03,-85.11 772.61,-82.19 767.94,-79.68"/>
<polygon fill="midnightblue" stroke="midnightblue" points="875.48,-290.27 880.72,-299.48 882.37,-289.02 875.48,-290.27"/>
</g>
<!-- Node28 -->
<g id="node28" class="node">
<title>Node28</title>
<g id="a_node28"><a xlink:href="classdenoptim_1_1graph_1_1_d_graph_test.html#a0c949ec1131a872dea53524614b3b42a" target="_top" xlink:title=" ">
<polygon fill="white" stroke="black" points="614,-0.5 614,-30.5 770,-30.5 770,-0.5 614,-0.5"/>
<text text-anchor="start" x="622" y="-18.5" font-family="Helvetica,sans-Serif" font-size="10.00">denoptim.graph.DGraphTest.test</text>
<text text-anchor="middle" x="692" y="-7.5" font-family="Helvetica,sans-Serif" font-size="10.00">ReplaceSubGraph_inTemplate</text>
</a>
</g>
</g>
<!-- Node1&#45;&gt;Node28 -->
<g id="edge27" class="edge">
<title>Node1&#45;&gt;Node28</title>
<path fill="none" stroke="midnightblue" d="M881.15,-289.3C875.79,-235.28 855.52,-107.67 781,-39.5 777.26,-36.08 773.08,-33.14 768.63,-30.61"/>
<polygon fill="midnightblue" stroke="midnightblue" points="877.67,-289.73 882.06,-299.38 884.64,-289.11 877.67,-289.73"/>
</g>
<!-- Node3 -->
<g id="node3" class="node">
<title>Node3</title>
<g id="a_node3"><a xlink:href="classdenoptim_1_1ga_1_1_population.html#a31b74cc5407c42fa3a4214029fb08190" target="_top" xlink:title="Returns a list of population members that can do crossover with the specified member.">
<polygon fill="white" stroke="black" points="399.5,-821.5 399.5,-851.5 532.5,-851.5 532.5,-821.5 399.5,-821.5"/>
<text text-anchor="start" x="407.5" y="-839.5" font-family="Helvetica,sans-Serif" font-size="10.00">denoptim.ga.Population.get</text>
<text text-anchor="middle" x="466" y="-828.5" font-family="Helvetica,sans-Serif" font-size="10.00">XoverPartners</text>
</a>
</g>
</g>
<!-- Node2&#45;&gt;Node3 -->
<g id="edge2" class="edge">
<title>Node2&#45;&gt;Node3</title>
<path fill="none" stroke="midnightblue" d="M685.8,-611.23C673.25,-654.79 637.05,-759.52 567,-812.5 556.96,-820.09 544.87,-825.32 532.61,-828.92"/>
<polygon fill="midnightblue" stroke="midnightblue" points="689.25,-611.89 688.54,-601.31 682.5,-610.02 689.25,-611.89"/>
</g>
<!-- Node8 -->
<g id="node8" class="node">
<title>Node8</title>
<g id="a_node8"><a xlink:href="classdenoptim_1_1ga_1_1_e_a_utils_test.html#ad4662f1a3a989020f953f7034d7c1beb" target="_top" xlink:title="NB: the graphs from methods getPairOfTestGraphsB() and getPairOfTestGraphsBxo() and &#160;&#160;getPairOfTestGr...">
<polygon fill="white" stroke="black" points="389.5,-772.5 389.5,-802.5 542.5,-802.5 542.5,-772.5 389.5,-772.5"/>
<text text-anchor="start" x="397.5" y="-790.5" font-family="Helvetica,sans-Serif" font-size="10.00">denoptim.ga.EAUtilsTest.test</text>
<text text-anchor="middle" x="466" y="-779.5" font-family="Helvetica,sans-Serif" font-size="10.00">BuildByXOver_Embedded_Free</text>
</a>
</g>
</g>
<!-- Node2&#45;&gt;Node8 -->
<g id="edge7" class="edge">
<title>Node2&#45;&gt;Node8</title>
<path fill="none" stroke="midnightblue" d="M682.81,-610.3C666.32,-645.84 625.63,-722.89 567,-762.5 559.59,-767.51 551.25,-771.52 542.64,-774.72"/>
<polygon fill="midnightblue" stroke="midnightblue" points="686.06,-611.62 686.98,-601.06 679.68,-608.74 686.06,-611.62"/>
</g>
<!-- Node9 -->
<g id="node9" class="node">
<title>Node9</title>
<g id="a_node9"><a xlink:href="classdenoptim_1_1ga_1_1_e_a_utils_test.html#af8cfc323dd7d12090ddf4b836a3349cf" target="_top" xlink:title="NB: the graphs from methods getPairOfTestGraphsB() and getPairOfTestGraphsBxo() and &#160;&#160;getPairOfTestGr...">
<polygon fill="white" stroke="black" points="365,-723.5 365,-753.5 567,-753.5 567,-723.5 365,-723.5"/>
<text text-anchor="start" x="373" y="-741.5" font-family="Helvetica,sans-Serif" font-size="10.00">denoptim.ga.EAUtilsTest.test</text>
<text text-anchor="middle" x="466" y="-730.5" font-family="Helvetica,sans-Serif" font-size="10.00">BuildByXOver_Embedded_FreeBackwards</text>
</a>
</g>
</g>
<!-- Node2&#45;&gt;Node9 -->
<g id="edge8" class="edge">
<title>Node2&#45;&gt;Node9</title>
<path fill="none" stroke="midnightblue" d="M678.05,-609.28C657.57,-636.08 615.04,-686.56 567,-713.5 560.05,-717.4 552.5,-720.69 544.76,-723.48"/>
<polygon fill="midnightblue" stroke="midnightblue" points="680.94,-611.27 684.13,-601.17 675.33,-607.07 680.94,-611.27"/>
</g>
<!-- Node10 -->
<g id="node10" class="node">
<title>Node10</title>
<g id="a_node10"><a xlink:href="classdenoptim_1_1graph_1_1_d_graph_test.html#af7cca36ac677cae488ebd9a866061ba1" target="_top" xlink:title=" ">
<polygon fill="white" stroke="black" points="388,-674.5 388,-704.5 544,-704.5 544,-674.5 388,-674.5"/>
<text text-anchor="start" x="396" y="-692.5" font-family="Helvetica,sans-Serif" font-size="10.00">denoptim.graph.DGraphTest.test</text>
<text text-anchor="middle" x="466" y="-681.5" font-family="Helvetica,sans-Serif" font-size="10.00">SameAs_DiffRings</text>
</a>
</g>
</g>
<!-- Node2&#45;&gt;Node10 -->
<g id="edge9" class="edge">
<title>Node2&#45;&gt;Node10</title>
<path fill="none" stroke="midnightblue" d="M669.18,-606.98C645.16,-623.37 604.93,-648.98 567,-664.5 557.81,-668.26 547.9,-671.57 538.02,-674.44"/>
<polygon fill="midnightblue" stroke="midnightblue" points="671.31,-609.76 677.55,-601.19 667.33,-604 671.31,-609.76"/>
</g>
<!-- Node11 -->
<g id="node11" class="node">
<title>Node11</title>
<g id="a_node11"><a xlink:href="classdenoptim_1_1graph_1_1_d_graph_test.html#a64805f4f059b37a9be325ce5ac8374ce" target="_top" xlink:title=" ">
<polygon fill="white" stroke="black" points="388,-625.5 388,-655.5 544,-655.5 544,-625.5 388,-625.5"/>
<text text-anchor="start" x="396" y="-643.5" font-family="Helvetica,sans-Serif" font-size="10.00">denoptim.graph.DGraphTest.test</text>
<text text-anchor="middle" x="466" y="-632.5" font-family="Helvetica,sans-Serif" font-size="10.00">SameAs_DiffSymmSet</text>
</a>
</g>
</g>
<!-- Node2&#45;&gt;Node11 -->
<g id="edge10" class="edge">
<title>Node2&#45;&gt;Node11</title>
<path fill="none" stroke="midnightblue" d="M637.54,-603.19C607.09,-609.86 568.6,-618.27 535.9,-625.43"/>
<polygon fill="midnightblue" stroke="midnightblue" points="638.52,-606.56 647.54,-601.01 637.03,-599.72 638.52,-606.56"/>
</g>
<!-- Node12 -->
<g id="node12" class="node">
<title>Node12</title>
<g id="a_node12"><a xlink:href="classdenoptim_1_1graph_1_1_d_graph_test.html#a3a00bffb3f72683ef63569ed038fe8e1" target="_top" xlink:title=" ">
<polygon fill="white" stroke="black" points="388,-576.5 388,-606.5 544,-606.5 544,-576.5 388,-576.5"/>
<text text-anchor="start" x="396" y="-594.5" font-family="Helvetica,sans-Serif" font-size="10.00">denoptim.graph.DGraphTest.test</text>
<text text-anchor="middle" x="466" y="-583.5" font-family="Helvetica,sans-Serif" font-size="10.00">SameAs_DiffVertex</text>
</a>
</g>
</g>
<!-- Node2&#45;&gt;Node12 -->
<g id="edge11" class="edge">
<title>Node2&#45;&gt;Node12</title>
<path fill="none" stroke="midnightblue" d="M603.76,-591.5C584.12,-591.5 563.42,-591.5 544.23,-591.5"/>
<polygon fill="midnightblue" stroke="midnightblue" points="603.91,-595 613.91,-591.5 603.91,-588 603.91,-595"/>
</g>
<!-- Node13 -->
<g id="node13" class="node">
<title>Node13</title>
<g id="a_node13"><a xlink:href="classdenoptim_1_1graph_1_1_d_graph_test.html#a3c40acdcc664e0010478429cbb0bb7ac" target="_top" xlink:title=" ">
<polygon fill="white" stroke="black" points="388,-527.5 388,-557.5 544,-557.5 544,-527.5 388,-527.5"/>
<text text-anchor="start" x="396" y="-545.5" font-family="Helvetica,sans-Serif" font-size="10.00">denoptim.graph.DGraphTest.test</text>
<text text-anchor="middle" x="466" y="-534.5" font-family="Helvetica,sans-Serif" font-size="10.00">SameAs_DisorderRings</text>
</a>
</g>
</g>
<!-- Node2&#45;&gt;Node13 -->
<g id="edge12" class="edge">
<title>Node2&#45;&gt;Node13</title>
<path fill="none" stroke="midnightblue" d="M637.54,-579.81C607.09,-573.14 568.6,-564.73 535.9,-557.57"/>
<polygon fill="midnightblue" stroke="midnightblue" points="637.03,-583.28 647.54,-581.99 638.52,-576.44 637.03,-583.28"/>
</g>
<!-- Node14 -->
<g id="node14" class="node">
<title>Node14</title>
<g id="a_node14"><a xlink:href="classdenoptim_1_1graph_1_1_d_graph_test.html#ae71f1b47a3b17f3589caf6534bff5982" target="_top" xlink:title=" ">
<polygon fill="white" stroke="black" points="388,-478.5 388,-508.5 544,-508.5 544,-478.5 388,-478.5"/>
<text text-anchor="start" x="396" y="-496.5" font-family="Helvetica,sans-Serif" font-size="10.00">denoptim.graph.DGraphTest.test</text>
<text text-anchor="middle" x="466" y="-485.5" font-family="Helvetica,sans-Serif" font-size="10.00">SameAs_Equal</text>
</a>
</g>
</g>
<!-- Node2&#45;&gt;Node14 -->
<g id="edge13" class="edge">
<title>Node2&#45;&gt;Node14</title>
<path fill="none" stroke="midnightblue" d="M614.34,-578C610.37,-576.1 606.56,-573.95 603,-571.5 579.24,-555.14 590.66,-534 567,-517.5 560.04,-512.65 552.23,-508.77 544.11,-505.67"/>
<polygon fill="midnightblue" stroke="midnightblue" points="613.26,-581.34 623.84,-581.96 615.96,-574.88 613.26,-581.34"/>
</g>
<!-- Node15 -->
<g id="node15" class="node">
<title>Node15</title>
<g id="a_node15"><a xlink:href="classdenoptim_1_1graph_1_1_d_graph_test.html#ac79cc6d29df4c3b5e6e96643912115f5" target="_top" xlink:title=" ">
<polygon fill="white" stroke="black" points="388,-429.5 388,-459.5 544,-459.5 544,-429.5 388,-429.5"/>
<text text-anchor="start" x="396" y="-447.5" font-family="Helvetica,sans-Serif" font-size="10.00">denoptim.graph.DGraphTest.test</text>
<text text-anchor="middle" x="466" y="-436.5" font-family="Helvetica,sans-Serif" font-size="10.00">SameAs_SameRings</text>
</a>
</g>
</g>
<!-- Node2&#45;&gt;Node15 -->
<g id="edge14" class="edge">
<title>Node2&#45;&gt;Node15</title>
<path fill="none" stroke="midnightblue" d="M610.18,-576.97C607.65,-575.32 605.25,-573.51 603,-571.5 566.83,-539.2 602.97,-501.02 567,-468.5 560.38,-462.51 552.53,-457.95 544.18,-454.48"/>
<polygon fill="midnightblue" stroke="midnightblue" points="608.74,-580.17 619.19,-581.93 612.11,-574.04 608.74,-580.17"/>
</g>
<!-- Node16 -->
<g id="node16" class="node">
<title>Node16</title>
<g id="a_node16"><a xlink:href="classdenoptim_1_1graph_1_1_d_graph_test.html#a2cb527dcac2a1f307d70dfda13965786" target="_top" xlink:title=" ">
<polygon fill="white" stroke="black" points="388,-380.5 388,-410.5 544,-410.5 544,-380.5 388,-380.5"/>
<text text-anchor="start" x="396" y="-398.5" font-family="Helvetica,sans-Serif" font-size="10.00">denoptim.graph.DGraphTest.test</text>
<text text-anchor="middle" x="466" y="-387.5" font-family="Helvetica,sans-Serif" font-size="10.00">SameAs_SameSymmSet</text>
</a>
</g>
</g>
<!-- Node2&#45;&gt;Node16 -->
<g id="edge15" class="edge">
<title>Node2&#45;&gt;Node16</title>
<path fill="none" stroke="midnightblue" d="M608.92,-576.55C606.83,-575.01 604.85,-573.33 603,-571.5 553.69,-522.63 616.02,-468.66 567,-419.5 560.57,-413.05 552.73,-408.22 544.31,-404.62"/>
<polygon fill="midnightblue" stroke="midnightblue" points="607.09,-579.54 617.44,-581.81 610.77,-573.58 607.09,-579.54"/>
</g>
<!-- Node17 -->
<g id="node17" class="node">
<title>Node17</title>
<g id="a_node17"><a xlink:href="classdenoptim_1_1io_1_1_denoptim_i_o_test.html#a716f5e1ae52b617c411ab57cb83ee78a" target="_top" xlink:title=" ">
<polygon fill="white" stroke="black" points="374,-331.5 374,-361.5 558,-361.5 558,-331.5 374,-331.5"/>
<text text-anchor="start" x="382" y="-349.5" font-family="Helvetica,sans-Serif" font-size="10.00">denoptim.io.DenoptimIOTest.test</text>
<text text-anchor="middle" x="466" y="-338.5" font-family="Helvetica,sans-Serif" font-size="10.00">SerializeDeserializeDENOPTIMGraphs</text>
</a>
</g>
</g>
<!-- Node2&#45;&gt;Node17 -->
<g id="edge16" class="edge">
<title>Node2&#45;&gt;Node17</title>
<path fill="none" stroke="midnightblue" d="M608.2,-576.23C606.36,-574.78 604.63,-573.2 603,-571.5 540.33,-505.86 629.28,-436.52 567,-370.5 563.81,-367.12 560.24,-364.18 556.4,-361.63"/>
<polygon fill="midnightblue" stroke="midnightblue" points="606.49,-579.29 616.77,-581.84 610.32,-573.43 606.49,-579.29"/>
</g>
<!-- Node4 -->
<g id="node4" class="node">
<title>Node4</title>
<g id="a_node4"><a xlink:href="classdenoptim_1_1ga_1_1_e_a_utils.html#a45d4e9ec6a308aa73891efa1d501dd5e" target="_top" xlink:title="Perform fitness&#45;based, class&#45;compatible selection of parents that can do crossover operations.">
<polygon fill="white" stroke="black" points="163,-871 163,-890 329,-890 329,-871 163,-871"/>
<text text-anchor="middle" x="246" y="-878" font-family="Helvetica,sans-Serif" font-size="10.00">denoptim.ga.EAUtils.performFBCC</text>
</a>
</g>
</g>
<!-- Node3&#45;&gt;Node4 -->
<g id="edge3" class="edge">
<title>Node3&#45;&gt;Node4</title>
<path fill="none" stroke="midnightblue" d="M389.21,-851.8C357.63,-858.17 321.95,-865.37 294.22,-870.97"/>
<polygon fill="midnightblue" stroke="midnightblue" points="390.19,-855.17 399.3,-849.76 388.8,-848.31 390.19,-855.17"/>
</g>
<!-- Node6 -->
<g id="node6" class="node">
<title>Node6</title>
<g id="a_node6"><a xlink:href="classdenoptim_1_1ga_1_1_population_test.html#a5db0672054a9fc1dbc923310732fdb3a" target="_top" xlink:title=" ">
<polygon fill="white" stroke="black" points="168.5,-821.5 168.5,-851.5 323.5,-851.5 323.5,-821.5 168.5,-821.5"/>
<text text-anchor="start" x="176.5" y="-839.5" font-family="Helvetica,sans-Serif" font-size="10.00">denoptim.ga.PopulationTest.test</text>
<text text-anchor="middle" x="246" y="-828.5" font-family="Helvetica,sans-Serif" font-size="10.00">Clone</text>
</a>
</g>
</g>
<!-- Node3&#45;&gt;Node6 -->
<g id="edge5" class="edge">
<title>Node3&#45;&gt;Node6</title>
<path fill="none" stroke="midnightblue" d="M389.07,-836.5C367.9,-836.5 344.89,-836.5 323.68,-836.5"/>
<polygon fill="midnightblue" stroke="midnightblue" points="389.3,-840 399.3,-836.5 389.3,-833 389.3,-840"/>
</g>
<!-- Node7 -->
<g id="node7" class="node">
<title>Node7</title>
<g id="a_node7"><a xlink:href="classdenoptim_1_1ga_1_1_population_test.html#a278212ebff2501b7071d342f9a027599" target="_top" xlink:title=" ">
<polygon fill="white" stroke="black" points="168.5,-772.5 168.5,-802.5 323.5,-802.5 323.5,-772.5 168.5,-772.5"/>
<text text-anchor="start" x="176.5" y="-790.5" font-family="Helvetica,sans-Serif" font-size="10.00">denoptim.ga.PopulationTest.test</text>
<text text-anchor="middle" x="246" y="-779.5" font-family="Helvetica,sans-Serif" font-size="10.00">XOverCompatibility</text>
</a>
</g>
</g>
<!-- Node3&#45;&gt;Node7 -->
<g id="edge6" class="edge">
<title>Node3&#45;&gt;Node7</title>
<path fill="none" stroke="midnightblue" d="M389.33,-819.49C364.85,-813.99 337.89,-807.93 314.08,-802.58"/>
<polygon fill="midnightblue" stroke="midnightblue" points="388.77,-822.95 399.3,-821.73 390.31,-816.12 388.77,-822.95"/>
</g>
<!-- Node5 -->
<g id="node5" class="node">
<title>Node5</title>
<g id="a_node5"><a xlink:href="classdenoptim_1_1ga_1_1_e_a_utils.html#a0b958439d79fae30f14530213ad22e3a" target="_top" xlink:title="Generates up to a pair of new offspring by performing a crossover operation.">
<polygon fill="white" stroke="black" points="0,-865.5 0,-895.5 127,-895.5 127,-865.5 0,-865.5"/>
<text text-anchor="start" x="8" y="-883.5" font-family="Helvetica,sans-Serif" font-size="10.00">denoptim.ga.EAUtils.build</text>
<text text-anchor="middle" x="63.5" y="-872.5" font-family="Helvetica,sans-Serif" font-size="10.00">CandidatesByXOver</text>
</a>
</g>
</g>
<!-- Node4&#45;&gt;Node5 -->
<g id="edge4" class="edge">
<title>Node4&#45;&gt;Node5</title>
<path fill="none" stroke="midnightblue" d="M152.77,-880.5C144.11,-880.5 135.47,-880.5 127.17,-880.5"/>
<polygon fill="midnightblue" stroke="midnightblue" points="152.94,-884 162.94,-880.5 152.94,-877 152.94,-884"/>
</g>
</g>
</svg>
        <g id="navigator" transform="translate(0 0)" fill="#404254">
                <rect fill="#f2f5e9" fill-opacity="0.5" stroke="#606060" stroke-width=".5" x="0" y="0" width="60" height="60"/>
                <use id="zoomplus" xlink:href="#zoomPlus" x="17" y="9" onmousedown="handleZoom(evt,'in')"/>
                <use id="zoomminus" xlink:href="#zoomMin" x="42" y="9" onmousedown="handleZoom(evt,'out')"/>
                <use id="reset" xlink:href="#resetDef" x="30" y="36" onmousedown="handleReset()"/>
                <g id="arrowUp" xlink:href="#dirArrow" transform="translate(30 24)" onmousedown="handlePan(0,-1)">
                  <use xlink:href="#rim" fill="#404040">
                        <set attributeName="fill" to="#808080" begin="arrowUp.mouseover" end="arrowUp.mouseout"/>
                  </use>
                  <path fill="none" stroke="white" stroke-width="1.5" d="M0,-3.0v7 M-2.5,-0.5L0,-3.0L2.5,-0.5"/>
                </g>
                <g id="arrowRight" xlink:href="#dirArrow" transform="rotate(90) translate(36 -43)" onmousedown="handlePan(1,0)">
                  <use xlink:href="#rim" fill="#404040">
                        <set attributeName="fill" to="#808080" begin="arrowRight.mouseover" end="arrowRight.mouseout"/>
                  </use>
                  <path fill="none" stroke="white" stroke-width="1.5" d="M0,-3.0v7 M-2.5,-0.5L0,-3.0L2.5,-0.5"/>
                </g>
                <g id="arrowDown" xlink:href="#dirArrow" transform="rotate(180) translate(-30 -48)" onmousedown="handlePan(0,1)">
                  <use xlink:href="#rim" fill="#404040">
                        <set attributeName="fill" to="#808080" begin="arrowDown.mouseover" end="arrowDown.mouseout"/>
                  </use>
                  <path fill="none" stroke="white" stroke-width="1.5" d="M0,-3.0v7 M-2.5,-0.5L0,-3.0L2.5,-0.5"/>
                </g>
                <g id="arrowLeft" xlink:href="#dirArrow" transform="rotate(270) translate(-36 17)" onmousedown="handlePan(-1,0)">
                  <use xlink:href="#rim" fill="#404040">
                        <set attributeName="fill" to="#808080" begin="arrowLeft.mouseover" end="arrowLeft.mouseout"/>
                  </use>
                  <path fill="none" stroke="white" stroke-width="1.5" d="M0,-3.0v7 M-2.5,-0.5L0,-3.0L2.5,-0.5"/>
                </g>
        </g>
        <svg viewBox="0 0 15 15" width="100%" height="30px" preserveAspectRatio="xMaxYMin meet">
         <g id="arrow_out" transform="scale(0.3 0.3)">
          <a xlink:href="classdenoptim_1_1graph_1_1_d_graph_a3b85d3e24edffe6e9cb5722718054f5b_icgraph_org.svg" target="_base">
           <rect id="button" ry="5" rx="5" y="6" x="6" height="38" width="38"
                fill="#f2f5e9" fill-opacity="0.5" stroke="#606060" stroke-width="1.0"/>
           <path id="arrow"
             d="M 11.500037,31.436501 C 11.940474,20.09759 22.043105,11.32322 32.158766,21.979434 L 37.068811,17.246167 C 37.068811,17.246167 37.088388,32 37.088388,32 L 22.160133,31.978069 C 22.160133,31.978069 26.997745,27.140456 26.997745,27.140456 C 18.528582,18.264221 13.291696,25.230495 11.500037,31.436501 z"
             style="fill:#404040;"/>
          </a>
         </g>
        </svg>
</svg>
