<?xml version="1.0" encoding="UTF-8" standalone="no"?>
<!DOCTYPE svg PUBLIC "-//W3C//DTD SVG 1.1//EN"
 "http://www.w3.org/Graphics/SVG/1.1/DTD/svg11.dtd">
<!-- Generated by graphviz version 3.0.0 (20221109.1736)
 -->
<!-- Title: denoptim.gui.CompatibilityMatrixForm.TrgRemovalListener Pages: 1 -->
<svg width="780pt" height="192pt"
 viewBox="0.00 0.00 780.00 192.00" xmlns="http://www.w3.org/2000/svg" xmlns:xlink="http://www.w3.org/1999/xlink">
<g id="graph0" class="graph" transform="scale(1 1) rotate(0) translate(4 188)">
<title>denoptim.gui.CompatibilityMatrixForm.TrgRemovalListener</title>
<polygon fill="white" stroke="transparent" points="-4,4 -4,-188 776,-188 776,4 -4,4"/>
<!-- Node1 -->
<g id="node1" class="node">
<title>Node1</title>
<g id="a_node1"><a xlink:title="Listens for clicks that require removal of a compatible APClass (i.e., the target APClass) from the e...">
<polygon fill="#bfbfbf" stroke="black" points="617,-102 617,-132 772,-132 772,-102 617,-102"/>
<text text-anchor="start" x="625" y="-120" font-family="Helvetica,sans-Serif" font-size="10.00">denoptim.gui.Compatibility</text>
<text text-anchor="middle" x="694.5" y="-109" font-family="Helvetica,sans-Serif" font-size="10.00">MatrixForm.TrgRemovalListener</text>
</a>
</g>
</g>
<!-- Node2 -->
<g id="node2" class="node">
<title>Node2</title>
<g id="a_node2"><a xlink:title=" ">
<polygon fill="white" stroke="black" points="404,-126.5 404,-145.5 525,-145.5 525,-126.5 404,-126.5"/>
<text text-anchor="middle" x="464.5" y="-133.5" font-family="Helvetica,sans-Serif" font-size="10.00">PropertyChangeListener</text>
</a>
</g>
</g>
<!-- Node2&#45;&gt;Node1 -->
<g id="edge1" class="edge">
<title>Node2&#45;&gt;Node1</title>
<path fill="none" stroke="midnightblue" d="M535.16,-130.19C560.92,-128.05 590.26,-125.6 616.62,-123.41"/>
<polygon fill="midnightblue" stroke="midnightblue" points="534.78,-126.71 525.11,-131.03 535.36,-133.69 534.78,-126.71"/>
</g>
<!-- Node3 -->
<g id="node3" class="node">
<title>Node3</title>
<g id="a_node3"><a xlink:href="classdenoptim_1_1graph_1_1_a_p_class.html" target="_top" xlink:title=" ">
<polygon fill="white" stroke="black" points="403,-88.5 403,-107.5 526,-107.5 526,-88.5 403,-88.5"/>
<text text-anchor="middle" x="464.5" y="-95.5" font-family="Helvetica,sans-Serif" font-size="10.00">denoptim.graph.APClass</text>
</a>
</g>
</g>
<!-- Node3&#45;&gt;Node1 -->
<g id="edge2" class="edge">
<title>Node3&#45;&gt;Node1</title>
<path fill="none" stroke="#9a32cd" stroke-dasharray="5,2" d="M536,-103.87C561.6,-106.01 590.64,-108.43 616.76,-110.6"/>
<polygon fill="#9a32cd" stroke="#9a32cd" points="536.26,-100.38 526,-103.04 535.68,-107.36 536.26,-100.38"/>
<text text-anchor="middle" x="571.5" y="-111" font-family="Helvetica,sans-Serif" font-size="10.00"> srcAPClass</text>
</g>
<!-- Node4 -->
<g id="node4" class="node">
<title>Node4</title>
<g id="a_node4"><a xlink:title=" ">
<polygon fill="white" stroke="black" points="139,-164.5 139,-183.5 198,-183.5 198,-164.5 139,-164.5"/>
<text text-anchor="middle" x="168.5" y="-171.5" font-family="Helvetica,sans-Serif" font-size="10.00">Cloneable</text>
</a>
</g>
</g>
<!-- Node4&#45;&gt;Node3 -->
<g id="edge3" class="edge">
<title>Node4&#45;&gt;Node3</title>
<path fill="none" stroke="midnightblue" d="M208.08,-176.94C253.7,-178.56 330.31,-175.31 385,-142 396.69,-134.88 391.9,-125.02 403,-117 408.35,-113.13 414.52,-110.03 420.83,-107.56"/>
<polygon fill="midnightblue" stroke="midnightblue" points="208.16,-173.44 198.01,-176.48 207.84,-180.43 208.16,-173.44"/>
</g>
<!-- Node5 -->
<g id="node5" class="node">
<title>Node5</title>
<g id="a_node5"><a xlink:title=" ">
<polygon fill="white" stroke="black" points="107,-126.5 107,-145.5 230,-145.5 230,-126.5 107,-126.5"/>
<text text-anchor="middle" x="168.5" y="-133.5" font-family="Helvetica,sans-Serif" font-size="10.00">Comparable&lt; APClass &gt;</text>
</a>
</g>
</g>
<!-- Node5&#45;&gt;Node3 -->
<g id="edge4" class="edge">
<title>Node5&#45;&gt;Node3</title>
<path fill="none" stroke="midnightblue" d="M240.53,-135.51C282.79,-134.2 337.3,-130.72 385,-122 389.94,-121.1 413.25,-113.91 433.2,-107.63"/>
<polygon fill="midnightblue" stroke="midnightblue" points="240.24,-132.02 230.34,-135.79 240.43,-139.02 240.24,-132.02"/>
</g>
<!-- Node6 -->
<g id="node6" class="node">
<title>Node6</title>
<g id="a_node6"><a xlink:title=" ">
<polygon fill="white" stroke="black" points="91,-88.5 91,-107.5 246,-107.5 246,-88.5 91,-88.5"/>
<text text-anchor="middle" x="168.5" y="-95.5" font-family="Helvetica,sans-Serif" font-size="10.00">Set&lt; denoptim.graph.APClass &gt;</text>
</a>
</g>
</g>
<!-- Node6&#45;&gt;Node3 -->
<g id="edge5" class="edge">
<title>Node6&#45;&gt;Node3</title>
<path fill="none" stroke="#9a32cd" stroke-dasharray="5,2" d="M256.55,-98C303.63,-98 360.6,-98 402.84,-98"/>
<polygon fill="#9a32cd" stroke="#9a32cd" points="256.36,-94.5 246.36,-98 256.36,-101.5 256.36,-94.5"/>
<text text-anchor="middle" x="324.5" y="-112" font-family="Helvetica,sans-Serif" font-size="10.00"> RCAAPCLASSSET</text>
<text text-anchor="middle" x="324.5" y="-101" font-family="Helvetica,sans-Serif" font-size="10.00">uniqueAPClasses</text>
</g>
<!-- Node7 -->
<g id="node7" class="node">
<title>Node7</title>
<g id="a_node7"><a xlink:title=" ">
<polygon fill="white" stroke="black" points="101,-39 101,-69 236,-69 236,-39 101,-39"/>
<text text-anchor="start" x="109" y="-57" font-family="Helvetica,sans-Serif" font-size="10.00">HashMap&lt; denoptim.graph.</text>
<text text-anchor="middle" x="168.5" y="-46" font-family="Helvetica,sans-Serif" font-size="10.00">APClass, String &gt;</text>
</a>
</g>
</g>
<!-- Node7&#45;&gt;Node3 -->
<g id="edge6" class="edge">
<title>Node7&#45;&gt;Node3</title>
<path fill="none" stroke="#9a32cd" stroke-dasharray="5,2" d="M246.12,-63.27C287.35,-68.52 339.05,-75.52 385,-83 395,-84.63 405.68,-86.55 415.84,-88.46"/>
<polygon fill="#9a32cd" stroke="#9a32cd" points="246.5,-59.79 236.14,-62.01 245.62,-66.73 246.5,-59.79"/>
<text text-anchor="middle" x="324.5" y="-86" font-family="Helvetica,sans-Serif" font-size="10.00"> RCALABELPERAPCLASS</text>
</g>
<!-- Node8 -->
<g id="node8" class="node">
<title>Node8</title>
<g id="a_node8"><a xlink:href="enumdenoptim_1_1graph_1_1_edge_1_1_bond_type.html" target="_top" xlink:title="Possible chemical bond types an edge can represent.">
<polygon fill="white" stroke="black" points="92.5,-0.5 92.5,-19.5 244.5,-19.5 244.5,-0.5 92.5,-0.5"/>
<text text-anchor="middle" x="168.5" y="-7.5" font-family="Helvetica,sans-Serif" font-size="10.00">denoptim.graph.Edge.BondType</text>
</a>
</g>
</g>
<!-- Node8&#45;&gt;Node3 -->
<g id="edge7" class="edge">
<title>Node8&#45;&gt;Node3</title>
<path fill="none" stroke="#9a32cd" stroke-dasharray="5,2" d="M254.83,-12.16C295.48,-15.6 344.05,-23.3 385,-40 412.93,-51.39 439.97,-74.98 453.86,-88.3"/>
<polygon fill="#9a32cd" stroke="#9a32cd" points="254.92,-8.65 244.68,-11.37 254.38,-15.63 254.92,-8.65"/>
<text text-anchor="middle" x="324.5" y="-54" font-family="Helvetica,sans-Serif" font-size="10.00"> DEFAULTBT</text>
<text text-anchor="middle" x="324.5" y="-43" font-family="Helvetica,sans-Serif" font-size="10.00">bndTyp</text>
</g>
<!-- Node9 -->
<g id="node9" class="node">
<title>Node9</title>
<g id="a_node9"><a xlink:title=" ">
<polygon fill="white" stroke="black" points="0,-0.5 0,-19.5 42,-19.5 42,-0.5 0,-0.5"/>
<text text-anchor="middle" x="21" y="-7.5" font-family="Helvetica,sans-Serif" font-size="10.00">IBond</text>
</a>
</g>
</g>
<!-- Node9&#45;&gt;Node8 -->
<g id="edge8" class="edge">
<title>Node9&#45;&gt;Node8</title>
<path fill="none" stroke="#9a32cd" stroke-dasharray="5,2" d="M52.33,-10C64.08,-10 78.11,-10 92.26,-10"/>
<polygon fill="#9a32cd" stroke="#9a32cd" points="52.23,-6.5 42.23,-10 52.23,-13.5 52.23,-6.5"/>
<text text-anchor="middle" x="66.5" y="-13" font-family="Helvetica,sans-Serif" font-size="10.00"> bo</text>
</g>
</g>
</svg>
