<?xml version="1.0" encoding="UTF-8" standalone="no"?>
<!DOCTYPE svg PUBLIC "-//W3C//DTD SVG 1.1//EN"
 "http://www.w3.org/Graphics/SVG/1.1/DTD/svg11.dtd">
<!-- Generated by graphviz version 3.0.0 (20221109.1736)
 -->
<!-- Title: denoptim.graph.Edge.getTrgVertex Pages: 1 -->
<svg width="1460pt" height="886pt"
 viewBox="0.00 0.00 1460.00 885.50" xmlns="http://www.w3.org/2000/svg" xmlns:xlink="http://www.w3.org/1999/xlink">
<g id="graph0" class="graph" transform="scale(1 1) rotate(0) translate(4 881.5)">
<title>denoptim.graph.Edge.getTrgVertex</title>
<polygon fill="white" stroke="transparent" points="-4,4 -4,-881.5 1456,-881.5 1456,4 -4,4"/>
<!-- Node1 -->
<g id="node1" class="node">
<title>Node1</title>
<g id="a_node1"><a xlink:title=" ">
<polygon fill="#bfbfbf" stroke="black" points="1315,-671.5 1315,-701.5 1452,-701.5 1452,-671.5 1315,-671.5"/>
<text text-anchor="start" x="1323" y="-689.5" font-family="Helvetica,sans-Serif" font-size="10.00">denoptim.graph.Edge.getTrg</text>
<text text-anchor="middle" x="1383.5" y="-678.5" font-family="Helvetica,sans-Serif" font-size="10.00">Vertex</text>
</a>
</g>
</g>
<!-- Node2 -->
<g id="node2" class="node">
<title>Node2</title>
<g id="a_node2"><a xlink:href="classdenoptim_1_1graph_1_1_d_graph.html#a87050235951e35a6b8f7d8d7b0b2ceb5" target="_top" xlink:title="Change all vertex IDs to the corresponding negative value.">
<polygon fill="white" stroke="black" points="1124,-769.5 1124,-799.5 1276,-799.5 1276,-769.5 1124,-769.5"/>
<text text-anchor="start" x="1132" y="-787.5" font-family="Helvetica,sans-Serif" font-size="10.00">denoptim.graph.DGraph.change</text>
<text text-anchor="middle" x="1200" y="-776.5" font-family="Helvetica,sans-Serif" font-size="10.00">SignOfVertexID</text>
</a>
</g>
</g>
<!-- Node1&#45;&gt;Node2 -->
<g id="edge1" class="edge">
<title>Node1&#45;&gt;Node2</title>
<path fill="none" stroke="midnightblue" d="M1357.2,-708.15C1337.11,-724.43 1307.71,-746.29 1279,-760.5 1272.27,-763.83 1264.98,-766.81 1257.66,-769.44"/>
<polygon fill="midnightblue" stroke="midnightblue" points="1359.45,-710.83 1364.95,-701.78 1355,-705.43 1359.45,-710.83"/>
</g>
<!-- Node3 -->
<g id="node3" class="node">
<title>Node3</title>
<g id="a_node3"><a xlink:href="classdenoptim_1_1graph_1_1_d_graph.html#a88d73619f688c36327492c0a11aee397" target="_top" xlink:title="Compares graphs by spanning vertices starting from the given vertex and following the direction of ed...">
<polygon fill="white" stroke="black" points="1121,-720.5 1121,-750.5 1279,-750.5 1279,-720.5 1121,-720.5"/>
<text text-anchor="start" x="1129" y="-738.5" font-family="Helvetica,sans-Serif" font-size="10.00">denoptim.graph.DGraph.compare</text>
<text text-anchor="middle" x="1200" y="-727.5" font-family="Helvetica,sans-Serif" font-size="10.00">GraphNodes</text>
</a>
</g>
</g>
<!-- Node1&#45;&gt;Node3 -->
<g id="edge2" class="edge">
<title>Node1&#45;&gt;Node3</title>
<path fill="none" stroke="midnightblue" d="M1316.76,-704.25C1297.09,-709.56 1275.72,-715.33 1256.75,-720.45"/>
<polygon fill="midnightblue" stroke="midnightblue" points="1317.82,-707.59 1326.56,-701.6 1316,-700.83 1317.82,-707.59"/>
</g>
<!-- Node4 -->
<g id="node4" class="node">
<title>Node4</title>
<g id="a_node4"><a xlink:href="classdenoptim_1_1graph_1_1_d_graph.html#ada30f3ea44a73ae851fc1f154ce4fed3" target="_top" xlink:title="Recursive utility method for fixEdgeDirections(graph).">
<polygon fill="white" stroke="black" points="1135.5,-671.5 1135.5,-701.5 1264.5,-701.5 1264.5,-671.5 1135.5,-671.5"/>
<text text-anchor="start" x="1143.5" y="-689.5" font-family="Helvetica,sans-Serif" font-size="10.00">denoptim.graph.DGraph.fix</text>
<text text-anchor="middle" x="1200" y="-678.5" font-family="Helvetica,sans-Serif" font-size="10.00">EdgeDirections</text>
</a>
</g>
</g>
<!-- Node1&#45;&gt;Node4 -->
<g id="edge3" class="edge">
<title>Node1&#45;&gt;Node4</title>
<path fill="none" stroke="midnightblue" d="M1304.79,-686.5C1291.43,-686.5 1277.67,-686.5 1264.73,-686.5"/>
<polygon fill="midnightblue" stroke="midnightblue" points="1304.92,-690 1314.92,-686.5 1304.92,-683 1304.92,-690"/>
</g>
<!-- Node5 -->
<g id="node5" class="node">
<title>Node5</title>
<g id="a_node5"><a xlink:href="classdenoptim_1_1graph_1_1_d_graph.html#a5bac29c23eccedca8d2371ad372d87b6" target="_top" xlink:title=" ">
<polygon fill="white" stroke="black" points="1133,-622.5 1133,-652.5 1267,-652.5 1267,-622.5 1133,-622.5"/>
<text text-anchor="start" x="1141" y="-640.5" font-family="Helvetica,sans-Serif" font-size="10.00">denoptim.graph.DGraph.get</text>
<text text-anchor="middle" x="1200" y="-629.5" font-family="Helvetica,sans-Serif" font-size="10.00">BondingAPIndex</text>
</a>
</g>
</g>
<!-- Node1&#45;&gt;Node5 -->
<g id="edge4" class="edge">
<title>Node1&#45;&gt;Node5</title>
<path fill="none" stroke="midnightblue" d="M1316.76,-668.75C1297.09,-663.44 1275.72,-657.67 1256.75,-652.55"/>
<polygon fill="midnightblue" stroke="midnightblue" points="1316,-672.17 1326.56,-671.4 1317.82,-665.41 1316,-672.17"/>
</g>
<!-- Node6 -->
<g id="node6" class="node">
<title>Node6</title>
<g id="a_node6"><a xlink:href="classdenoptim_1_1graph_1_1_d_graph.html#a40786de6efd159a5c54c122d0d3d2c1c" target="_top" xlink:title="Remove a vertex from this graph.">
<polygon fill="white" stroke="black" points="1124,-573.5 1124,-603.5 1276,-603.5 1276,-573.5 1124,-573.5"/>
<text text-anchor="start" x="1132" y="-591.5" font-family="Helvetica,sans-Serif" font-size="10.00">denoptim.graph.DGraph.remove</text>
<text text-anchor="middle" x="1200" y="-580.5" font-family="Helvetica,sans-Serif" font-size="10.00">Vertex</text>
</a>
</g>
</g>
<!-- Node1&#45;&gt;Node6 -->
<g id="edge5" class="edge">
<title>Node1&#45;&gt;Node6</title>
<path fill="none" stroke="midnightblue" d="M1356.47,-664.75C1336.34,-648.8 1307.24,-627.57 1279,-613.5 1271.62,-609.82 1263.58,-606.53 1255.55,-603.63"/>
<polygon fill="midnightblue" stroke="midnightblue" points="1354.53,-667.68 1364.51,-671.22 1358.91,-662.23 1354.53,-667.68"/>
</g>
<!-- Node7 -->
<g id="node7" class="node">
<title>Node7</title>
<g id="a_node7"><a xlink:href="classdenoptim_1_1graph_1_1_d_graph.html#a4c897937d4e30c60a8a0c02a0c971262" target="_top" xlink:title="Creates a new graph that corresponds to the subgraph of this graph when exploring the spanning tree f...">
<polygon fill="white" stroke="black" points="916.5,-833.5 916.5,-863.5 1065.5,-863.5 1065.5,-833.5 916.5,-833.5"/>
<text text-anchor="start" x="924.5" y="-851.5" font-family="Helvetica,sans-Serif" font-size="10.00">denoptim.graph.DGraph.extract</text>
<text text-anchor="middle" x="991" y="-840.5" font-family="Helvetica,sans-Serif" font-size="10.00">Subgraph</text>
</a>
</g>
</g>
<!-- Node6&#45;&gt;Node7 -->
<g id="edge6" class="edge">
<title>Node6&#45;&gt;Node7</title>
<path fill="none" stroke="midnightblue" d="M1124.66,-609.72C1123.38,-610.91 1122.15,-612.17 1121,-613.5 1058.64,-685.35 1149.4,-754.48 1085,-824.5 1079.58,-830.39 1072.93,-834.92 1065.69,-838.38"/>
<polygon fill="midnightblue" stroke="midnightblue" points="1126.84,-612.46 1132.63,-603.59 1122.57,-606.92 1126.84,-612.46"/>
</g>
<!-- Node8 -->
<g id="node8" class="node">
<title>Node8</title>
<g id="a_node8"><a xlink:href="classdenoptim_1_1ga_1_1_graph_operations_test.html#a2eeb942b25efcbe3b7d829b41ffc3139" target="_top" xlink:title=" ">
<polygon fill="white" stroke="black" points="918.5,-784.5 918.5,-814.5 1063.5,-814.5 1063.5,-784.5 918.5,-784.5"/>
<text text-anchor="start" x="926.5" y="-802.5" font-family="Helvetica,sans-Serif" font-size="10.00">denoptim.ga.GraphOperations</text>
<text text-anchor="middle" x="991" y="-791.5" font-family="Helvetica,sans-Serif" font-size="10.00">Test.getExpectedSubgraphs</text>
</a>
</g>
</g>
<!-- Node6&#45;&gt;Node8 -->
<g id="edge7" class="edge">
<title>Node6&#45;&gt;Node8</title>
<path fill="none" stroke="midnightblue" d="M1124.86,-609.7C1123.51,-610.9 1122.22,-612.16 1121,-613.5 1071.29,-667.98 1136.26,-722.47 1085,-775.5 1078.97,-781.73 1071.56,-786.43 1063.57,-789.94"/>
<polygon fill="midnightblue" stroke="midnightblue" points="1127.23,-612.3 1133.2,-603.55 1123.08,-606.67 1127.23,-612.3"/>
</g>
<!-- Node11 -->
<g id="node11" class="node">
<title>Node11</title>
<g id="a_node11"><a xlink:href="classdenoptim_1_1fragspace_1_1_fragment_space_test.html#af3d68c634b78e89ff2937bdf8ac1387f" target="_top" xlink:title=" ">
<polygon fill="white" stroke="black" points="911,-735.5 911,-765.5 1071,-765.5 1071,-735.5 911,-735.5"/>
<text text-anchor="start" x="919" y="-753.5" font-family="Helvetica,sans-Serif" font-size="10.00">denoptim.fragspace.Fragment</text>
<text text-anchor="middle" x="991" y="-742.5" font-family="Helvetica,sans-Serif" font-size="10.00">SpaceTest.getExpectedTemplate</text>
</a>
</g>
</g>
<!-- Node6&#45;&gt;Node11 -->
<g id="edge10" class="edge">
<title>Node6&#45;&gt;Node11</title>
<path fill="none" stroke="midnightblue" d="M1125.53,-609.44C1123.95,-610.72 1122.43,-612.07 1121,-613.5 1084.01,-650.46 1122.86,-689.43 1085,-725.5 1080.88,-729.42 1076.22,-732.74 1071.23,-735.55"/>
<polygon fill="midnightblue" stroke="midnightblue" points="1127.67,-612.23 1133.96,-603.7 1123.73,-606.44 1127.67,-612.23"/>
</g>
<!-- Node16 -->
<g id="node16" class="node">
<title>Node16</title>
<g id="a_node16"><a xlink:href="classdenoptim_1_1gui_1_1_g_u_i_graph_handler.html#af5b000c105018cbd7c262b34f9750044" target="_top" xlink:title="Initialize the panel and add buttons.">
<polygon fill="white" stroke="black" points="897,-697 897,-716 1085,-716 1085,-697 897,-697"/>
<text text-anchor="middle" x="991" y="-704" font-family="Helvetica,sans-Serif" font-size="10.00">denoptim.gui.GUIGraphHandler.initialize</text>
</a>
</g>
</g>
<!-- Node6&#45;&gt;Node16 -->
<g id="edge15" class="edge">
<title>Node6&#45;&gt;Node16</title>
<path fill="none" stroke="midnightblue" d="M1127.25,-608.71C1125.07,-610.19 1122.97,-611.79 1121,-613.5 1093.36,-637.45 1113.9,-665.08 1085,-687.5 1080.05,-691.34 1074.52,-694.46 1068.7,-696.98"/>
<polygon fill="midnightblue" stroke="midnightblue" points="1129.24,-611.6 1136.07,-603.5 1125.68,-605.57 1129.24,-611.6"/>
</g>
<!-- Node18 -->
<g id="node18" class="node">
<title>Node18</title>
<g id="a_node18"><a xlink:href="classdenoptim_1_1graph_1_1_d_graph.html#a70a5450315c7af3d64c44179ec2cede8" target="_top" xlink:title="Remove capping groups that belong to this graph and are in the given list.">
<polygon fill="white" stroke="black" points="915,-647.5 915,-677.5 1067,-677.5 1067,-647.5 915,-647.5"/>
<text text-anchor="start" x="923" y="-665.5" font-family="Helvetica,sans-Serif" font-size="10.00">denoptim.graph.DGraph.remove</text>
<text text-anchor="middle" x="991" y="-654.5" font-family="Helvetica,sans-Serif" font-size="10.00">CappingGroups</text>
</a>
</g>
</g>
<!-- Node6&#45;&gt;Node18 -->
<g id="edge17" class="edge">
<title>Node6&#45;&gt;Node18</title>
<path fill="none" stroke="midnightblue" d="M1135.34,-607.14C1130.42,-609.12 1125.58,-611.24 1121,-613.5 1103.53,-622.12 1102.71,-630.38 1085,-638.5 1077.57,-641.9 1069.58,-644.88 1061.51,-647.48"/>
<polygon fill="midnightblue" stroke="midnightblue" points="1136.77,-610.34 1144.88,-603.53 1134.29,-603.8 1136.77,-610.34"/>
</g>
<!-- Node20 -->
<g id="node20" class="node">
<title>Node20</title>
<g id="a_node20"><a xlink:href="classdenoptim_1_1graph_1_1_d_graph.html#aa0420500bab73722508ecc3c6e5fa90d" target="_top" xlink:title="Remove capping groups on the given vertex of this graph.">
<polygon fill="white" stroke="black" points="915,-598.5 915,-628.5 1067,-628.5 1067,-598.5 915,-598.5"/>
<text text-anchor="start" x="923" y="-616.5" font-family="Helvetica,sans-Serif" font-size="10.00">denoptim.graph.DGraph.remove</text>
<text text-anchor="middle" x="991" y="-605.5" font-family="Helvetica,sans-Serif" font-size="10.00">CappingGroupsOn</text>
</a>
</g>
</g>
<!-- Node6&#45;&gt;Node20 -->
<g id="edge19" class="edge">
<title>Node6&#45;&gt;Node20</title>
<path fill="none" stroke="midnightblue" d="M1113.88,-598.78C1098.38,-600.65 1082.31,-602.59 1067.12,-604.43"/>
<polygon fill="midnightblue" stroke="midnightblue" points="1114.47,-602.23 1123.98,-597.56 1113.63,-595.29 1114.47,-602.23"/>
</g>
<!-- Node21 -->
<g id="node21" class="node">
<title>Node21</title>
<g id="a_node21"><a xlink:href="classdenoptim_1_1graph_1_1_d_graph.html#af404e25092eabcdfbe69b5d7204e9483" target="_top" xlink:title="Mutates the graph by removing the chain where a given vertex is located up to the first branching (i....">
<polygon fill="white" stroke="black" points="915,-549.5 915,-579.5 1067,-579.5 1067,-549.5 915,-549.5"/>
<text text-anchor="start" x="923" y="-567.5" font-family="Helvetica,sans-Serif" font-size="10.00">denoptim.graph.DGraph.remove</text>
<text text-anchor="middle" x="991" y="-556.5" font-family="Helvetica,sans-Serif" font-size="10.00">ChainUpToBranching</text>
</a>
</g>
</g>
<!-- Node6&#45;&gt;Node21 -->
<g id="edge21" class="edge">
<title>Node6&#45;&gt;Node21</title>
<path fill="none" stroke="midnightblue" d="M1113.88,-578.63C1098.38,-576.83 1082.31,-574.97 1067.12,-573.21"/>
<polygon fill="midnightblue" stroke="midnightblue" points="1113.64,-582.13 1123.98,-579.8 1114.45,-575.17 1113.64,-582.13"/>
</g>
<!-- Node24 -->
<g id="node24" class="node">
<title>Node24</title>
<g id="a_node24"><a xlink:href="classdenoptim_1_1graph_1_1_d_graph.html#aea560f1323c57e1264ac3192b4d294d1" target="_top" xlink:title="Deletes the branch, i.e., the specified vertex and its children.">
<polygon fill="white" stroke="black" points="915,-500.5 915,-530.5 1067,-530.5 1067,-500.5 915,-500.5"/>
<text text-anchor="start" x="923" y="-518.5" font-family="Helvetica,sans-Serif" font-size="10.00">denoptim.graph.DGraph.remove</text>
<text text-anchor="middle" x="991" y="-507.5" font-family="Helvetica,sans-Serif" font-size="10.00">OrphanBranchStartingAt</text>
</a>
</g>
</g>
<!-- Node6&#45;&gt;Node24 -->
<g id="edge24" class="edge">
<title>Node6&#45;&gt;Node24</title>
<path fill="none" stroke="midnightblue" d="M1157.13,-569.26C1135.8,-559.87 1109.31,-548.84 1085,-540.5 1074.72,-536.97 1063.67,-533.62 1052.89,-530.59"/>
<polygon fill="midnightblue" stroke="midnightblue" points="1155.97,-572.58 1166.53,-573.44 1158.82,-566.18 1155.97,-572.58"/>
</g>
<!-- Node29 -->
<g id="node29" class="node">
<title>Node29</title>
<g id="a_node29"><a xlink:href="classdenoptim_1_1graph_1_1_d_graph.html#aefca90eb3594e935ee283f1e56fec5b4" target="_top" xlink:title="Replaced the subgraph represented by a given collection of vertices that belong to this graph.">
<polygon fill="white" stroke="black" points="915,-343.5 915,-373.5 1067,-373.5 1067,-343.5 915,-343.5"/>
<text text-anchor="start" x="923" y="-361.5" font-family="Helvetica,sans-Serif" font-size="10.00">denoptim.graph.DGraph.replace</text>
<text text-anchor="middle" x="991" y="-350.5" font-family="Helvetica,sans-Serif" font-size="10.00">SingleSubGraph</text>
</a>
</g>
</g>
<!-- Node6&#45;&gt;Node29 -->
<g id="edge31" class="edge">
<title>Node6&#45;&gt;Node29</title>
<path fill="none" stroke="midnightblue" d="M1181.33,-565.41C1159.52,-537.3 1120.92,-488.71 1085,-449.5 1059.52,-421.68 1027.71,-391.43 1008.67,-373.76"/>
<polygon fill="midnightblue" stroke="midnightblue" points="1178.65,-567.67 1187.53,-573.45 1184.19,-563.39 1178.65,-567.67"/>
</g>
<!-- Node32 -->
<g id="node32" class="node">
<title>Node32</title>
<g id="a_node32"><a xlink:href="classdenoptim_1_1graph_1_1_d_graph.html#a86e888ef245d2bd40b49d145c7ef3af0" target="_top" xlink:title="Replaced the subgraph represented by a given collection of vertices that belong to this graph.">
<polygon fill="white" stroke="black" points="699,-441.5 699,-471.5 851,-471.5 851,-441.5 699,-441.5"/>
<text text-anchor="start" x="707" y="-459.5" font-family="Helvetica,sans-Serif" font-size="10.00">denoptim.graph.DGraph.replace</text>
<text text-anchor="middle" x="775" y="-448.5" font-family="Helvetica,sans-Serif" font-size="10.00">SubGraph</text>
</a>
</g>
</g>
<!-- Node6&#45;&gt;Node32 -->
<g id="edge44" class="edge">
<title>Node6&#45;&gt;Node32</title>
<path fill="none" stroke="midnightblue" d="M1179.77,-565.6C1158.98,-542.6 1123.61,-508.23 1085,-491.5 1010.07,-459.03 915.82,-452.71 851.23,-452.98"/>
<polygon fill="midnightblue" stroke="midnightblue" points="1177.25,-568.04 1186.49,-573.22 1182.5,-563.4 1177.25,-568.04"/>
</g>
<!-- Node42 -->
<g id="node42" class="node">
<title>Node42</title>
<g id="a_node42"><a xlink:href="classdenoptim_1_1graph_1_1_d_graph.html#a8fb951a35b028bcf098b8a83d94d7e75" target="_top" xlink:title="Removes unused ring&#45;closing vertices.">
<polygon fill="white" stroke="black" points="915,-123.5 915,-153.5 1067,-153.5 1067,-123.5 915,-123.5"/>
<text text-anchor="start" x="923" y="-141.5" font-family="Helvetica,sans-Serif" font-size="10.00">denoptim.graph.DGraph.replace</text>
<text text-anchor="middle" x="991" y="-130.5" font-family="Helvetica,sans-Serif" font-size="10.00">UnusedRCVsWithCapps</text>
</a>
</g>
</g>
<!-- Node6&#45;&gt;Node42 -->
<g id="edge45" class="edge">
<title>Node6&#45;&gt;Node42</title>
<path fill="none" stroke="midnightblue" d="M1188.18,-563.94C1168.13,-518.51 1123.7,-418.34 1085,-334.5 1053.75,-266.79 1015.2,-186.57 999.35,-153.7"/>
<polygon fill="midnightblue" stroke="midnightblue" points="1185.06,-565.54 1192.3,-573.28 1191.47,-562.71 1185.06,-565.54"/>
</g>
<!-- Node47 -->
<g id="node47" class="node">
<title>Node47</title>
<g id="a_node47"><a xlink:href="classdenoptim_1_1graph_1_1_d_graph_test.html#a337ce2733050aa5d37cec418eb7d9081" target="_top" xlink:title=" ">
<polygon fill="white" stroke="black" points="913,-74.5 913,-104.5 1069,-104.5 1069,-74.5 913,-74.5"/>
<text text-anchor="start" x="921" y="-92.5" font-family="Helvetica,sans-Serif" font-size="10.00">denoptim.graph.DGraphTest.test</text>
<text text-anchor="middle" x="991" y="-81.5" font-family="Helvetica,sans-Serif" font-size="10.00">RemoveVertex</text>
</a>
</g>
</g>
<!-- Node6&#45;&gt;Node47 -->
<g id="edge50" class="edge">
<title>Node6&#45;&gt;Node47</title>
<path fill="none" stroke="midnightblue" d="M1196.32,-563.37C1186.41,-474.99 1149.05,-180.28 1085,-114.5 1080.45,-109.83 1075.13,-106 1069.38,-102.87"/>
<polygon fill="midnightblue" stroke="midnightblue" points="1192.84,-563.76 1197.42,-573.32 1199.8,-563 1192.84,-563.76"/>
</g>
<!-- Node9 -->
<g id="node9" class="node">
<title>Node9</title>
<g id="a_node9"><a xlink:href="classdenoptim_1_1ga_1_1_graph_operations_test.html#af7dad44701e1c81c71d47052733822fd" target="_top" xlink:title="Returns a molecule consisting of two pairs of fused rings connected by an oxygen atom.">
<polygon fill="white" stroke="black" points="702.5,-817.5 702.5,-847.5 847.5,-847.5 847.5,-817.5 702.5,-817.5"/>
<text text-anchor="start" x="710.5" y="-835.5" font-family="Helvetica,sans-Serif" font-size="10.00">denoptim.ga.GraphOperations</text>
<text text-anchor="middle" x="775" y="-824.5" font-family="Helvetica,sans-Serif" font-size="10.00">Test.getFusedRings</text>
</a>
</g>
</g>
<!-- Node8&#45;&gt;Node9 -->
<g id="edge8" class="edge">
<title>Node8&#45;&gt;Node9</title>
<path fill="none" stroke="midnightblue" d="M908.46,-812.07C888.51,-815.15 867.31,-818.42 847.85,-821.42"/>
<polygon fill="midnightblue" stroke="midnightblue" points="909.09,-815.52 918.44,-810.53 908.03,-808.6 909.09,-815.52"/>
</g>
<!-- Node10 -->
<g id="node10" class="node">
<title>Node10</title>
<g id="a_node10"><a xlink:href="classdenoptim_1_1ga_1_1_graph_operations_test.html#a81e15cea05ce67c5b0c2af89d301d072" target="_top" xlink:title=" ">
<polygon fill="white" stroke="black" points="476,-836 476,-877 621,-877 621,-836 476,-836"/>
<text text-anchor="start" x="484" y="-865" font-family="Helvetica,sans-Serif" font-size="10.00">denoptim.ga.GraphOperations</text>
<text text-anchor="start" x="484" y="-854" font-family="Helvetica,sans-Serif" font-size="10.00">Test.testExtractPattern</text>
<text text-anchor="middle" x="548.5" y="-843" font-family="Helvetica,sans-Serif" font-size="10.00">_fusedRings</text>
</a>
</g>
</g>
<!-- Node9&#45;&gt;Node10 -->
<g id="edge9" class="edge">
<title>Node9&#45;&gt;Node10</title>
<path fill="none" stroke="midnightblue" d="M692.17,-841.25C668.94,-843.73 643.83,-846.42 621.24,-848.83"/>
<polygon fill="midnightblue" stroke="midnightblue" points="692.78,-844.7 702.35,-840.16 692.03,-837.74 692.78,-844.7"/>
</g>
<!-- Node12 -->
<g id="node12" class="node">
<title>Node12</title>
<g id="a_node12"><a xlink:href="classdenoptim_1_1fragspace_1_1_fragment_space_test.html#a86c3b01084322d2c465809840d7a3122" target="_top" xlink:title=" ">
<polygon fill="white" stroke="black" points="702.5,-743.5 702.5,-773.5 847.5,-773.5 847.5,-743.5 702.5,-743.5"/>
<text text-anchor="start" x="710.5" y="-761.5" font-family="Helvetica,sans-Serif" font-size="10.00">denoptim.fragspace.Fragment</text>
<text text-anchor="middle" x="775" y="-750.5" font-family="Helvetica,sans-Serif" font-size="10.00">SpaceTest.getTestCase</text>
</a>
</g>
</g>
<!-- Node11&#45;&gt;Node12 -->
<g id="edge11" class="edge">
<title>Node11&#45;&gt;Node12</title>
<path fill="none" stroke="midnightblue" d="M900.62,-753.84C882.97,-754.5 864.65,-755.19 847.68,-755.82"/>
<polygon fill="midnightblue" stroke="midnightblue" points="901.06,-757.33 910.92,-753.46 900.8,-750.33 901.06,-757.33"/>
</g>
<!-- Node13 -->
<g id="node13" class="node">
<title>Node13</title>
<g id="a_node13"><a xlink:href="classdenoptim_1_1fragspace_1_1_fragment_space_test.html#a6f2ce8f6a8319b39440b0dc43ede061f" target="_top" xlink:title="Check that the following graph&#39;s fused ring gets added to the fragment library.">
<polygon fill="white" stroke="black" points="444,-776 444,-817 653,-817 653,-776 444,-776"/>
<text text-anchor="start" x="452" y="-805" font-family="Helvetica,sans-Serif" font-size="10.00">denoptim.fragspace.Fragment</text>
<text text-anchor="start" x="452" y="-794" font-family="Helvetica,sans-Serif" font-size="10.00">SpaceTest.testFusedRingAddedToFragment</text>
<text text-anchor="middle" x="548.5" y="-783" font-family="Helvetica,sans-Serif" font-size="10.00">Library</text>
</a>
</g>
</g>
<!-- Node12&#45;&gt;Node13 -->
<g id="edge12" class="edge">
<title>Node12&#45;&gt;Node13</title>
<path fill="none" stroke="midnightblue" d="M692.29,-772.33C679.59,-774.48 666.31,-776.73 653.2,-778.95"/>
<polygon fill="midnightblue" stroke="midnightblue" points="693.07,-775.75 702.35,-770.63 691.91,-768.85 693.07,-775.75"/>
</g>
<!-- Node14 -->
<g id="node14" class="node">
<title>Node14</title>
<g id="a_node14"><a xlink:href="classdenoptim_1_1fragspace_1_1_fragment_space_test.html#a56ef448997df677c5ce4a73737f127e2" target="_top" xlink:title="Checks that a graph with a fused ring containing a scaffold vertex is added to the scaffold library.">
<polygon fill="white" stroke="black" points="447,-716 447,-757 650,-757 650,-716 447,-716"/>
<text text-anchor="start" x="455" y="-745" font-family="Helvetica,sans-Serif" font-size="10.00">denoptim.fragspace.Fragment</text>
<text text-anchor="start" x="455" y="-734" font-family="Helvetica,sans-Serif" font-size="10.00">SpaceTest.testFusedRingAddedToScaffold</text>
<text text-anchor="middle" x="548.5" y="-723" font-family="Helvetica,sans-Serif" font-size="10.00">Library</text>
</a>
</g>
</g>
<!-- Node12&#45;&gt;Node14 -->
<g id="edge13" class="edge">
<title>Node12&#45;&gt;Node14</title>
<path fill="none" stroke="midnightblue" d="M692.11,-750.47C678.53,-749.14 664.32,-747.75 650.34,-746.38"/>
<polygon fill="midnightblue" stroke="midnightblue" points="692.06,-753.99 702.35,-751.48 692.74,-747.02 692.06,-753.99"/>
</g>
<!-- Node15 -->
<g id="node15" class="node">
<title>Node15</title>
<g id="a_node15"><a xlink:href="classdenoptim_1_1fragspace_1_1_fragment_space_test.html#a7555fcdf60b6fabae0c95844f351fc6f" target="_top" xlink:title=" ">
<polygon fill="white" stroke="black" points="448.5,-667.5 448.5,-697.5 648.5,-697.5 648.5,-667.5 448.5,-667.5"/>
<text text-anchor="start" x="456.5" y="-685.5" font-family="Helvetica,sans-Serif" font-size="10.00">denoptim.fragspace.Fragment</text>
<text text-anchor="middle" x="548.5" y="-674.5" font-family="Helvetica,sans-Serif" font-size="10.00">SpaceTest.testFusedRingOnlyAddedOnce</text>
</a>
</g>
</g>
<!-- Node12&#45;&gt;Node15 -->
<g id="edge14" class="edge">
<title>Node12&#45;&gt;Node15</title>
<path fill="none" stroke="midnightblue" d="M700.75,-739.83C696.72,-738.18 692.77,-736.41 689,-734.5 670.91,-725.35 671.3,-715.22 653,-706.5 645.76,-703.05 637.98,-700.08 630.08,-697.53"/>
<polygon fill="midnightblue" stroke="midnightblue" points="699.71,-743.18 710.3,-743.45 702.19,-736.63 699.71,-743.18"/>
</g>
<!-- Node17 -->
<g id="node17" class="node">
<title>Node17</title>
<g id="a_node17"><a xlink:href="classdenoptim_1_1gui_1_1_g_u_i_graph_handler.html#ab7d010d9a384f6b85edce47c95d6723b" target="_top" xlink:title="Constructor.">
<polygon fill="white" stroke="black" points="698,-694.5 698,-724.5 852,-724.5 852,-694.5 698,-694.5"/>
<text text-anchor="start" x="706" y="-712.5" font-family="Helvetica,sans-Serif" font-size="10.00">denoptim.gui.GUIGraphHandler.</text>
<text text-anchor="middle" x="775" y="-701.5" font-family="Helvetica,sans-Serif" font-size="10.00">GUIGraphHandler</text>
</a>
</g>
</g>
<!-- Node16&#45;&gt;Node17 -->
<g id="edge16" class="edge">
<title>Node16&#45;&gt;Node17</title>
<path fill="none" stroke="midnightblue" d="M886.61,-707.95C875.03,-708.11 863.4,-708.27 852.25,-708.43"/>
<polygon fill="midnightblue" stroke="midnightblue" points="886.81,-711.45 896.76,-707.81 886.71,-704.45 886.81,-711.45"/>
</g>
<!-- Node19 -->
<g id="node19" class="node">
<title>Node19</title>
<g id="a_node19"><a xlink:href="classdenoptim_1_1graph_1_1_d_graph_test.html#adc3ee631a1671aa9ffd5ea3cef73b279" target="_top" xlink:title=" ">
<polygon fill="white" stroke="black" points="697,-645.5 697,-675.5 853,-675.5 853,-645.5 697,-645.5"/>
<text text-anchor="start" x="705" y="-663.5" font-family="Helvetica,sans-Serif" font-size="10.00">denoptim.graph.DGraphTest.test</text>
<text text-anchor="middle" x="775" y="-652.5" font-family="Helvetica,sans-Serif" font-size="10.00">RemoveCapping</text>
</a>
</g>
</g>
<!-- Node18&#45;&gt;Node19 -->
<g id="edge18" class="edge">
<title>Node18&#45;&gt;Node19</title>
<path fill="none" stroke="midnightblue" d="M904.42,-661.7C887.47,-661.54 869.78,-661.38 853.14,-661.22"/>
<polygon fill="midnightblue" stroke="midnightblue" points="904.82,-665.2 914.85,-661.8 904.89,-658.2 904.82,-665.2"/>
</g>
<!-- Node20&#45;&gt;Node19 -->
<g id="edge20" class="edge">
<title>Node20&#45;&gt;Node19</title>
<path fill="none" stroke="midnightblue" d="M911.7,-630.7C889.64,-635.54 865.82,-640.77 844.38,-645.48"/>
<polygon fill="midnightblue" stroke="midnightblue" points="912.68,-634.06 921.7,-628.5 911.18,-627.23 912.68,-634.06"/>
</g>
<!-- Node22 -->
<g id="node22" class="node">
<title>Node22</title>
<g id="a_node22"><a xlink:href="classdenoptim_1_1ga_1_1_graph_operations.html#afd659e74a056d1a6ae6f52513fee0be3" target="_top" xlink:title="Deletes the given vertex and all other vertexes that are not connected to more than 2 non&#45;capping gro...">
<polygon fill="white" stroke="black" points="225.5,-598.5 225.5,-628.5 398.5,-628.5 398.5,-598.5 225.5,-598.5"/>
<text text-anchor="start" x="233.5" y="-616.5" font-family="Helvetica,sans-Serif" font-size="10.00">denoptim.ga.GraphOperations.delete</text>
<text text-anchor="middle" x="312" y="-605.5" font-family="Helvetica,sans-Serif" font-size="10.00">Chain</text>
</a>
</g>
</g>
<!-- Node21&#45;&gt;Node22 -->
<g id="edge22" class="edge">
<title>Node21&#45;&gt;Node22</title>
<path fill="none" stroke="midnightblue" d="M923.58,-582.17C895.51,-589.51 867.73,-596.55 861,-597.5 698.89,-620.31 507.24,-619.69 398.92,-616.83"/>
<polygon fill="midnightblue" stroke="midnightblue" points="924.7,-585.49 933.48,-579.57 922.92,-578.72 924.7,-585.49"/>
</g>
<!-- Node23 -->
<g id="node23" class="node">
<title>Node23</title>
<g id="a_node23"><a xlink:href="classdenoptim_1_1ga_1_1_graph_operations.html#a0c851972015fbb4b2a317b053b8b81d9" target="_top" xlink:title="Mutates the given vertex according to the given mutation type, if possible.">
<polygon fill="white" stroke="black" points="0,-571.5 0,-601.5 180,-601.5 180,-571.5 0,-571.5"/>
<text text-anchor="start" x="8" y="-589.5" font-family="Helvetica,sans-Serif" font-size="10.00">denoptim.ga.GraphOperations.perform</text>
<text text-anchor="middle" x="90" y="-578.5" font-family="Helvetica,sans-Serif" font-size="10.00">Mutation</text>
</a>
</g>
</g>
<!-- Node22&#45;&gt;Node23 -->
<g id="edge23" class="edge">
<title>Node22&#45;&gt;Node23</title>
<path fill="none" stroke="midnightblue" d="M215.14,-601.74C203.49,-600.31 191.63,-598.85 180.08,-597.43"/>
<polygon fill="midnightblue" stroke="midnightblue" points="214.96,-605.24 225.31,-602.98 215.81,-598.29 214.96,-605.24"/>
</g>
<!-- Node25 -->
<g id="node25" class="node">
<title>Node25</title>
<g id="a_node25"><a xlink:href="classdenoptim_1_1graph_1_1_d_graph.html#a65f0577c098508ced9925878e94ead82" target="_top" xlink:title="Deletes the branch, i.e., the specified vertex and its children.">
<polygon fill="white" stroke="black" points="699,-490.5 699,-520.5 851,-520.5 851,-490.5 699,-490.5"/>
<text text-anchor="start" x="707" y="-508.5" font-family="Helvetica,sans-Serif" font-size="10.00">denoptim.graph.DGraph.remove</text>
<text text-anchor="middle" x="775" y="-497.5" font-family="Helvetica,sans-Serif" font-size="10.00">BranchStartingAt</text>
</a>
</g>
</g>
<!-- Node24&#45;&gt;Node25 -->
<g id="edge25" class="edge">
<title>Node24&#45;&gt;Node25</title>
<path fill="none" stroke="midnightblue" d="M904.59,-511.51C886.98,-510.69 868.55,-509.82 851.33,-509.02"/>
<polygon fill="midnightblue" stroke="midnightblue" points="904.7,-515.02 914.85,-511.99 905.03,-508.03 904.7,-515.02"/>
</g>
<!-- Node26 -->
<g id="node26" class="node">
<title>Node26</title>
<g id="a_node26"><a xlink:href="classdenoptim_1_1graph_1_1_d_graph.html#a357b4099599e47ae47102123550771f8" target="_top" xlink:title="Remove a given vertex belonging to this graph and re&#45;connects the resulting graph branches as much as...">
<polygon fill="white" stroke="black" points="699,-539.5 699,-569.5 851,-569.5 851,-539.5 699,-539.5"/>
<text text-anchor="start" x="707" y="-557.5" font-family="Helvetica,sans-Serif" font-size="10.00">denoptim.graph.DGraph.remove</text>
<text text-anchor="middle" x="775" y="-546.5" font-family="Helvetica,sans-Serif" font-size="10.00">SingleVertexAndWeld</text>
</a>
</g>
</g>
<!-- Node24&#45;&gt;Node26 -->
<g id="edge26" class="edge">
<title>Node24&#45;&gt;Node26</title>
<path fill="none" stroke="midnightblue" d="M904.59,-531.07C886.98,-534.27 868.55,-537.63 851.33,-540.77"/>
<polygon fill="midnightblue" stroke="midnightblue" points="905.64,-534.43 914.85,-529.2 904.39,-527.54 905.64,-534.43"/>
</g>
<!-- Node26&#45;&gt;Node26 -->
<g id="edge27" class="edge">
<title>Node26&#45;&gt;Node26</title>
<path fill="none" stroke="midnightblue" d="M813.38,-579.96C808.62,-584.68 795.82,-588 775,-588 740.83,-588 728.28,-579.06 737.36,-569.66"/>
<polygon fill="midnightblue" stroke="midnightblue" points="816.85,-579.38 812.64,-569.66 809.87,-579.88 816.85,-579.38"/>
</g>
<!-- Node27 -->
<g id="node27" class="node">
<title>Node27</title>
<g id="a_node27"><a xlink:href="classdenoptim_1_1graph_1_1_d_graph.html#a00209ca8b4a9623b41e7d9e1e62f69ec" target="_top" xlink:title="Remove a given vertex belonging to this graph and re&#45;connects the resulting graph branches as much as...">
<polygon fill="white" stroke="black" points="472.5,-541.5 472.5,-571.5 624.5,-571.5 624.5,-541.5 472.5,-541.5"/>
<text text-anchor="start" x="480.5" y="-559.5" font-family="Helvetica,sans-Serif" font-size="10.00">denoptim.graph.DGraph.remove</text>
<text text-anchor="middle" x="548.5" y="-548.5" font-family="Helvetica,sans-Serif" font-size="10.00">VertexAndWeld</text>
</a>
</g>
</g>
<!-- Node26&#45;&gt;Node27 -->
<g id="edge28" class="edge">
<title>Node26&#45;&gt;Node27</title>
<path fill="none" stroke="midnightblue" d="M688.74,-555.26C667.73,-555.45 645.38,-555.65 624.88,-555.83"/>
<polygon fill="midnightblue" stroke="midnightblue" points="688.96,-558.76 698.93,-555.17 688.9,-551.76 688.96,-558.76"/>
</g>
<!-- Node28 -->
<g id="node28" class="node">
<title>Node28</title>
<g id="a_node28"><a xlink:href="classdenoptim_1_1ga_1_1_graph_operations.html#ab3adb5141a8941bf23916bb516faee63" target="_top" xlink:title="Removes a vertex while merging as many of the child branches into the parent vertex.">
<polygon fill="white" stroke="black" points="216,-551 216,-570 408,-570 408,-551 216,-551"/>
<text text-anchor="middle" x="312" y="-558" font-family="Helvetica,sans-Serif" font-size="10.00">denoptim.ga.GraphOperations.deleteLink</text>
</a>
</g>
</g>
<!-- Node27&#45;&gt;Node28 -->
<g id="edge29" class="edge">
<title>Node27&#45;&gt;Node28</title>
<path fill="none" stroke="midnightblue" d="M462.17,-557.96C444.68,-558.25 426.16,-558.57 408.34,-558.87"/>
<polygon fill="midnightblue" stroke="midnightblue" points="462.4,-561.45 472.34,-557.78 462.28,-554.45 462.4,-561.45"/>
</g>
<!-- Node28&#45;&gt;Node23 -->
<g id="edge30" class="edge">
<title>Node28&#45;&gt;Node23</title>
<path fill="none" stroke="midnightblue" d="M220.29,-571.22C207.04,-572.79 193.41,-574.4 180.2,-575.96"/>
<polygon fill="midnightblue" stroke="midnightblue" points="220.81,-574.68 230.33,-570.03 219.99,-567.73 220.81,-574.68"/>
</g>
<!-- Node30 -->
<g id="node30" class="node">
<title>Node30</title>
<g id="a_node30"><a xlink:href="classdenoptim_1_1graph_1_1_d_graph.html#a4df69c91a742d22f8d14d44489aeac15" target="_top" xlink:title="Edit this graph according to a given list of edit tasks.">
<polygon fill="white" stroke="black" points="707,-343.5 707,-373.5 843,-373.5 843,-343.5 707,-343.5"/>
<text text-anchor="start" x="715" y="-361.5" font-family="Helvetica,sans-Serif" font-size="10.00">denoptim.graph.DGraph.edit</text>
<text text-anchor="middle" x="775" y="-350.5" font-family="Helvetica,sans-Serif" font-size="10.00">Graph</text>
</a>
</g>
</g>
<!-- Node29&#45;&gt;Node30 -->
<g id="edge32" class="edge">
<title>Node29&#45;&gt;Node30</title>
<path fill="none" stroke="midnightblue" d="M904.6,-358.5C884.15,-358.5 862.6,-358.5 843.12,-358.5"/>
<polygon fill="midnightblue" stroke="midnightblue" points="904.85,-362 914.85,-358.5 904.85,-355 904.85,-362"/>
</g>
<!-- Node29&#45;&gt;Node32 -->
<g id="edge34" class="edge">
<title>Node29&#45;&gt;Node32</title>
<path fill="none" stroke="midnightblue" d="M959.09,-379.12C933.63,-395.39 896.13,-417.73 861,-432.5 853.23,-435.77 844.87,-438.74 836.54,-441.39"/>
<polygon fill="midnightblue" stroke="midnightblue" points="961.07,-382.01 967.57,-373.64 957.28,-376.13 961.07,-382.01"/>
</g>
<!-- Node38 -->
<g id="node38" class="node">
<title>Node38</title>
<g id="a_node38"><a xlink:href="classdenoptim_1_1graph_1_1_d_graph.html#adc362402e41af41656e820def73de5ad" target="_top" xlink:title="Replaced a given vertex belonging to this graph with a new vertex generated specifically for this pur...">
<polygon fill="white" stroke="black" points="699,-245.5 699,-275.5 851,-275.5 851,-245.5 699,-245.5"/>
<text text-anchor="start" x="707" y="-263.5" font-family="Helvetica,sans-Serif" font-size="10.00">denoptim.graph.DGraph.replace</text>
<text text-anchor="middle" x="775" y="-252.5" font-family="Helvetica,sans-Serif" font-size="10.00">Vertex</text>
</a>
</g>
</g>
<!-- Node29&#45;&gt;Node38 -->
<g id="edge40" class="edge">
<title>Node29&#45;&gt;Node38</title>
<path fill="none" stroke="midnightblue" d="M958.55,-337.99C933.05,-322.04 895.76,-300.22 861,-285.5 852.36,-281.84 843.01,-278.51 833.78,-275.55"/>
<polygon fill="midnightblue" stroke="midnightblue" points="956.73,-340.98 967.05,-343.37 960.47,-335.07 956.73,-340.98"/>
</g>
<!-- Node39 -->
<g id="node39" class="node">
<title>Node39</title>
<g id="a_node39"><a xlink:href="classdenoptim_1_1graph_1_1_d_graph_test.html#aea227d615f6c2f3bac5839a8099a900d" target="_top" xlink:title=" ">
<polygon fill="white" stroke="black" points="697,-196.5 697,-226.5 853,-226.5 853,-196.5 697,-196.5"/>
<text text-anchor="start" x="705" y="-214.5" font-family="Helvetica,sans-Serif" font-size="10.00">denoptim.graph.DGraphTest.test</text>
<text text-anchor="middle" x="775" y="-203.5" font-family="Helvetica,sans-Serif" font-size="10.00">IsIsostructuralTo</text>
</a>
</g>
</g>
<!-- Node29&#45;&gt;Node39 -->
<g id="edge41" class="edge">
<title>Node29&#45;&gt;Node39</title>
<path fill="none" stroke="midnightblue" d="M971.64,-335.47C948.59,-308.05 906.53,-262.68 861,-236.5 854.33,-232.67 847.03,-229.38 839.59,-226.56"/>
<polygon fill="midnightblue" stroke="midnightblue" points="969.1,-337.89 978.16,-343.36 974.49,-333.43 969.1,-337.89"/>
</g>
<!-- Node40 -->
<g id="node40" class="node">
<title>Node40</title>
<g id="a_node40"><a xlink:href="classdenoptim_1_1graph_1_1_d_graph_test.html#a83a9624ea5dc6a2c515407b865b62611" target="_top" xlink:title=" ">
<polygon fill="white" stroke="black" points="697,-392.5 697,-422.5 853,-422.5 853,-392.5 697,-392.5"/>
<text text-anchor="start" x="705" y="-410.5" font-family="Helvetica,sans-Serif" font-size="10.00">denoptim.graph.DGraphTest.test</text>
<text text-anchor="middle" x="775" y="-399.5" font-family="Helvetica,sans-Serif" font-size="10.00">ReplaceSubGraph</text>
</a>
</g>
</g>
<!-- Node29&#45;&gt;Node40 -->
<g id="edge42" class="edge">
<title>Node29&#45;&gt;Node40</title>
<path fill="none" stroke="midnightblue" d="M914.31,-375.83C890.55,-381.27 864.53,-387.23 841.54,-392.49"/>
<polygon fill="midnightblue" stroke="midnightblue" points="915.37,-379.18 924.34,-373.53 913.81,-372.35 915.37,-379.18"/>
</g>
<!-- Node41 -->
<g id="node41" class="node">
<title>Node41</title>
<g id="a_node41"><a xlink:href="classdenoptim_1_1graph_1_1_d_graph_test.html#a0c949ec1131a872dea53524614b3b42a" target="_top" xlink:title=" ">
<polygon fill="white" stroke="black" points="697,-294.5 697,-324.5 853,-324.5 853,-294.5 697,-294.5"/>
<text text-anchor="start" x="705" y="-312.5" font-family="Helvetica,sans-Serif" font-size="10.00">denoptim.graph.DGraphTest.test</text>
<text text-anchor="middle" x="775" y="-301.5" font-family="Helvetica,sans-Serif" font-size="10.00">ReplaceSubGraph_inTemplate</text>
</a>
</g>
</g>
<!-- Node29&#45;&gt;Node41 -->
<g id="edge43" class="edge">
<title>Node29&#45;&gt;Node41</title>
<path fill="none" stroke="midnightblue" d="M914.31,-341.17C890.55,-335.73 864.53,-329.77 841.54,-324.51"/>
<polygon fill="midnightblue" stroke="midnightblue" points="913.81,-344.65 924.34,-343.47 915.37,-337.82 913.81,-344.65"/>
</g>
<!-- Node31 -->
<g id="node31" class="node">
<title>Node31</title>
<g id="a_node31"><a xlink:href="classdenoptim_1_1programs_1_1grapheditor_1_1_graph_editor.html#a649a62e3d4635ef4c19424fa49e6dcd4" target="_top" xlink:title=" ">
<polygon fill="white" stroke="black" points="472.5,-343.5 472.5,-373.5 624.5,-373.5 624.5,-343.5 472.5,-343.5"/>
<text text-anchor="start" x="480.5" y="-361.5" font-family="Helvetica,sans-Serif" font-size="10.00">denoptim.programs.grapheditor.</text>
<text text-anchor="middle" x="548.5" y="-350.5" font-family="Helvetica,sans-Serif" font-size="10.00">GraphEditor.runProgram</text>
</a>
</g>
</g>
<!-- Node30&#45;&gt;Node31 -->
<g id="edge33" class="edge">
<title>Node30&#45;&gt;Node31</title>
<path fill="none" stroke="midnightblue" d="M696.78,-358.5C673.51,-358.5 648,-358.5 624.86,-358.5"/>
<polygon fill="midnightblue" stroke="midnightblue" points="696.95,-362 706.95,-358.5 696.95,-355 696.95,-362"/>
</g>
<!-- Node33 -->
<g id="node33" class="node">
<title>Node33</title>
<g id="a_node33"><a xlink:href="classdenoptim_1_1graph_1_1_d_graph.html#a1cb3c55237933f7a4d32e002175b84bc" target="_top" xlink:title="Searches for the given pattern type and generated a new graph where each set of (clones of) vertexes ...">
<polygon fill="white" stroke="black" points="474,-417.5 474,-447.5 623,-447.5 623,-417.5 474,-417.5"/>
<text text-anchor="start" x="482" y="-435.5" font-family="Helvetica,sans-Serif" font-size="10.00">denoptim.graph.DGraph.embed</text>
<text text-anchor="middle" x="548.5" y="-424.5" font-family="Helvetica,sans-Serif" font-size="10.00">PatternsInTemplates</text>
</a>
</g>
</g>
<!-- Node32&#45;&gt;Node33 -->
<g id="edge35" class="edge">
<title>Node32&#45;&gt;Node33</title>
<path fill="none" stroke="midnightblue" d="M688.81,-447.39C667.26,-445.09 644.29,-442.63 623.35,-440.4"/>
<polygon fill="midnightblue" stroke="midnightblue" points="688.62,-450.89 698.93,-448.47 689.36,-443.93 688.62,-450.89"/>
</g>
<!-- Node34 -->
<g id="node34" class="node">
<title>Node34</title>
<g id="a_node34"><a xlink:href="classdenoptim_1_1ga_1_1_graph_operations.html#affb1be89a32e4a429bd7dbdfe0708419" target="_top" xlink:title="Performs the crossover that swaps the two subgraphs defining the given XoverSite.">
<polygon fill="white" stroke="black" points="458.5,-466.5 458.5,-496.5 638.5,-496.5 638.5,-466.5 458.5,-466.5"/>
<text text-anchor="start" x="466.5" y="-484.5" font-family="Helvetica,sans-Serif" font-size="10.00">denoptim.ga.GraphOperations.perform</text>
<text text-anchor="middle" x="548.5" y="-473.5" font-family="Helvetica,sans-Serif" font-size="10.00">Crossover</text>
</a>
</g>
</g>
<!-- Node32&#45;&gt;Node34 -->
<g id="edge36" class="edge">
<title>Node32&#45;&gt;Node34</title>
<path fill="none" stroke="midnightblue" d="M688.81,-465.99C672.35,-467.82 655.08,-469.74 638.51,-471.59"/>
<polygon fill="midnightblue" stroke="midnightblue" points="689.38,-469.44 698.93,-464.86 688.61,-462.49 689.38,-469.44"/>
</g>
<!-- Node35 -->
<g id="node35" class="node">
<title>Node35</title>
<g id="a_node35"><a xlink:href="classdenoptim_1_1ga_1_1_e_a_utils.html#a0b958439d79fae30f14530213ad22e3a" target="_top" xlink:title="Generates up to a pair of new offspring by performing a crossover operation.">
<polygon fill="white" stroke="black" points="248.5,-483.5 248.5,-513.5 375.5,-513.5 375.5,-483.5 248.5,-483.5"/>
<text text-anchor="start" x="256.5" y="-501.5" font-family="Helvetica,sans-Serif" font-size="10.00">denoptim.ga.EAUtils.build</text>
<text text-anchor="middle" x="312" y="-490.5" font-family="Helvetica,sans-Serif" font-size="10.00">CandidatesByXOver</text>
</a>
</g>
</g>
<!-- Node34&#45;&gt;Node35 -->
<g id="edge37" class="edge">
<title>Node34&#45;&gt;Node35</title>
<path fill="none" stroke="midnightblue" d="M448.12,-488.7C423.63,-490.48 398.07,-492.33 375.86,-493.94"/>
<polygon fill="midnightblue" stroke="midnightblue" points="448.46,-492.19 458.18,-487.98 447.95,-485.21 448.46,-492.19"/>
</g>
<!-- Node36 -->
<g id="node36" class="node">
<title>Node36</title>
<g id="a_node36"><a xlink:href="classdenoptim_1_1programs_1_1genetweeker_1_1_gene_ops_runner.html#ab0f92a94c4fb2334e7d3813e73fc4247" target="_top" xlink:title=" ">
<polygon fill="white" stroke="black" points="232.5,-434.5 232.5,-464.5 391.5,-464.5 391.5,-434.5 232.5,-434.5"/>
<text text-anchor="start" x="240.5" y="-452.5" font-family="Helvetica,sans-Serif" font-size="10.00">denoptim.programs.genetweeker.</text>
<text text-anchor="middle" x="312" y="-441.5" font-family="Helvetica,sans-Serif" font-size="10.00">GeneOpsRunner.runXOver</text>
</a>
</g>
</g>
<!-- Node34&#45;&gt;Node36 -->
<g id="edge38" class="edge">
<title>Node34&#45;&gt;Node36</title>
<path fill="none" stroke="midnightblue" d="M448.1,-467.94C429.26,-465.37 409.8,-462.71 391.72,-460.24"/>
<polygon fill="midnightblue" stroke="midnightblue" points="447.8,-471.43 458.18,-469.31 448.74,-464.49 447.8,-471.43"/>
</g>
<!-- Node37 -->
<g id="node37" class="node">
<title>Node37</title>
<g id="a_node37"><a xlink:href="classdenoptim_1_1programs_1_1genetweeker_1_1_gene_ops_runner.html#a3c2407eb1204a7b25600d3d347d98447" target="_top" xlink:title=" ">
<polygon fill="white" stroke="black" points="10.5,-434.5 10.5,-464.5 169.5,-464.5 169.5,-434.5 10.5,-434.5"/>
<text text-anchor="start" x="18.5" y="-452.5" font-family="Helvetica,sans-Serif" font-size="10.00">denoptim.programs.genetweeker.</text>
<text text-anchor="middle" x="90" y="-441.5" font-family="Helvetica,sans-Serif" font-size="10.00">GeneOpsRunner.runProgram</text>
</a>
</g>
</g>
<!-- Node36&#45;&gt;Node37 -->
<g id="edge39" class="edge">
<title>Node36&#45;&gt;Node37</title>
<path fill="none" stroke="midnightblue" d="M222.07,-449.5C204.71,-449.5 186.62,-449.5 169.62,-449.5"/>
<polygon fill="midnightblue" stroke="midnightblue" points="222.2,-453 232.2,-449.5 222.2,-446 222.2,-453"/>
</g>
<!-- Node43 -->
<g id="node43" class="node">
<title>Node43</title>
<g id="a_node43"><a xlink:href="classdenoptim_1_1combinatorial_1_1_graph_building_task.html#a3eaee724fc921194fa158714aafe182d" target="_top" xlink:title="Calls the task.">
<polygon fill="white" stroke="black" points="702.5,-98.5 702.5,-128.5 847.5,-128.5 847.5,-98.5 702.5,-98.5"/>
<text text-anchor="start" x="710.5" y="-116.5" font-family="Helvetica,sans-Serif" font-size="10.00">denoptim.combinatorial.Graph</text>
<text text-anchor="middle" x="775" y="-105.5" font-family="Helvetica,sans-Serif" font-size="10.00">BuildingTask.call</text>
</a>
</g>
</g>
<!-- Node42&#45;&gt;Node43 -->
<g id="edge46" class="edge">
<title>Node42&#45;&gt;Node43</title>
<path fill="none" stroke="midnightblue" d="M904.77,-128.54C885.87,-126.34 866.03,-124.02 847.73,-121.88"/>
<polygon fill="midnightblue" stroke="midnightblue" points="904.51,-132.04 914.85,-129.72 905.33,-125.08 904.51,-132.04"/>
</g>
<!-- Node44 -->
<g id="node44" class="node">
<title>Node44</title>
<g id="a_node44"><a xlink:href="classdenoptim_1_1ga_1_1_offspring_evaluation_task.html#aab5b9c0b8a88922460f5c28ae161d1fa" target="_top" xlink:title=" ">
<polygon fill="white" stroke="black" points="697.5,-49.5 697.5,-79.5 852.5,-79.5 852.5,-49.5 697.5,-49.5"/>
<text text-anchor="start" x="705.5" y="-67.5" font-family="Helvetica,sans-Serif" font-size="10.00">denoptim.ga.OffspringEvaluation</text>
<text text-anchor="middle" x="775" y="-56.5" font-family="Helvetica,sans-Serif" font-size="10.00">Task.call</text>
</a>
</g>
</g>
<!-- Node42&#45;&gt;Node44 -->
<g id="edge47" class="edge">
<title>Node42&#45;&gt;Node44</title>
<path fill="none" stroke="midnightblue" d="M910.72,-120.12C906.02,-118.39 901.41,-116.52 897,-114.5 879.29,-106.38 878.57,-97.91 861,-89.5 853.23,-85.78 844.79,-82.49 836.35,-79.62"/>
<polygon fill="midnightblue" stroke="midnightblue" points="909.89,-123.54 920.49,-123.48 912.17,-116.92 909.89,-123.54"/>
</g>
<!-- Node45 -->
<g id="node45" class="node">
<title>Node45</title>
<g id="a_node45"><a xlink:href="classdenoptim_1_1programs_1_1fitnessevaluator_1_1_fitness_evaluation_task.html#a498b4214d06fc161d92cf1a38635ece3" target="_top" xlink:title=" ">
<polygon fill="white" stroke="black" points="689,-0.5 689,-30.5 861,-30.5 861,-0.5 689,-0.5"/>
<text text-anchor="start" x="697" y="-18.5" font-family="Helvetica,sans-Serif" font-size="10.00">denoptim.programs.fitnessevaluator.</text>
<text text-anchor="middle" x="775" y="-7.5" font-family="Helvetica,sans-Serif" font-size="10.00">FitnessEvaluationTask.call</text>
</a>
</g>
</g>
<!-- Node42&#45;&gt;Node45 -->
<g id="edge48" class="edge">
<title>Node42&#45;&gt;Node45</title>
<path fill="none" stroke="midnightblue" d="M905.67,-120.62C902.63,-118.77 899.72,-116.74 897,-114.5 868.43,-91.02 889.3,-63.3 861,-39.5 856.89,-36.05 852.32,-33.09 847.48,-30.55"/>
<polygon fill="midnightblue" stroke="midnightblue" points="904.09,-123.74 914.57,-125.33 907.38,-117.56 904.09,-123.74"/>
</g>
<!-- Node46 -->
<g id="node46" class="node">
<title>Node46</title>
<g id="a_node46"><a xlink:href="classdenoptim_1_1graph_1_1_d_graph_test.html#a42ea1a0adbc30b78070c3096171094a9" target="_top" xlink:title=" ">
<polygon fill="white" stroke="black" points="697,-147.5 697,-177.5 853,-177.5 853,-147.5 697,-147.5"/>
<text text-anchor="start" x="705" y="-165.5" font-family="Helvetica,sans-Serif" font-size="10.00">denoptim.graph.DGraphTest.test</text>
<text text-anchor="middle" x="775" y="-154.5" font-family="Helvetica,sans-Serif" font-size="10.00">RemoveUnusedRCVs</text>
</a>
</g>
</g>
<!-- Node42&#45;&gt;Node46 -->
<g id="edge49" class="edge">
<title>Node42&#45;&gt;Node46</title>
<path fill="none" stroke="midnightblue" d="M904.89,-148.04C887.81,-149.96 869.94,-151.96 853.14,-153.85"/>
<polygon fill="midnightblue" stroke="midnightblue" points="905.3,-151.52 914.85,-146.93 904.52,-144.56 905.3,-151.52"/>
</g>
</g>
</svg>
