<?xml version="1.0" encoding="UTF-8" standalone="no"?>
<!DOCTYPE svg PUBLIC "-//W3C//DTD SVG 1.1//EN"
 "http://www.w3.org/Graphics/SVG/1.1/DTD/svg11.dtd">
<!-- Generated by graphviz version 3.0.0 (20221109.1736)
 -->
<!-- Title: denoptim.graph.AttachmentPoint.getEmbeddedAP Pages: 1 -->
<!--zoomable 390 -->
<svg id="main" version="1.1" xmlns="http://www.w3.org/2000/svg" xmlns:xlink="http://www.w3.org/1999/xlink" xml:space="preserve" onload="init(evt)">
<style type="text/css"><![CDATA[
.edge:hover path { stroke: red; }
.edge:hover polygon { stroke: red; fill: red; }
]]></style>
<script type="text/javascript"><![CDATA[
var edges = document.getElementsByTagName('g');
if (edges && edges.length) {
  for (var i=0;i<edges.length;i++) {
    if (edges[i].id.substr(0,4)=='edge') {
      edges[i].setAttribute('class','edge');
    }
  }
}
]]></script>
        <defs>
                <circle id="rim" cx="0" cy="0" r="7"/>
                <circle id="rim2" cx="0" cy="0" r="3.5"/>
                <g id="zoomPlus">
                        <use xlink:href="#rim" fill="#404040">
                                <set attributeName="fill" to="#808080" begin="zoomplus.mouseover" end="zoomplus.mouseout"/>
                        </use>
                        <path d="M-4,0h8M0,-4v8" fill="none" stroke="white" stroke-width="1.5" pointer-events="none"/>
                </g>
                <g id="zoomMin">
                        <use xlink:href="#rim" fill="#404040">
                                <set attributeName="fill" to="#808080" begin="zoomminus.mouseover" end="zoomminus.mouseout"/>
                        </use>
                        <path d="M-4,0h8" fill="none" stroke="white" stroke-width="1.5" pointer-events="none"/>
                </g>
                <g id="dirArrow">
                        <path fill="none" stroke="white" stroke-width="1.5" d="M0,-3.0v7 M-2.5,-0.5L0,-3.0L2.5,-0.5"/>
                </g>
               <g id="resetDef">
                       <use xlink:href="#rim2" fill="#404040">
                               <set attributeName="fill" to="#808080" begin="reset.mouseover" end="reset.mouseout"/>
                       </use>
               </g>
        </defs>

<script type="text/javascript">
var viewWidth = 1631;
var viewHeight = 390;
var sectionId = 'dynsection-22';
</script>
<script xlink:href="svgpan.js"/>
<svg id="graph" class="graph">
<g id="viewport">
<title>denoptim.graph.AttachmentPoint.getEmbeddedAP</title>
<polygon fill="white" stroke="transparent" points="-4,4 -4,-386 1627,-386 1627,4 -4,4"/>
<!-- Node1 -->
<g id="node1" class="node">
<title>Node1</title>
<g id="a_node1"><a xlink:title="For vertices that are templates this method returns the attachment point that is embedded in the temp...">
<polygon fill="#bfbfbf" stroke="black" points="1488,-176.5 1488,-206.5 1623,-206.5 1623,-176.5 1488,-176.5"/>
<text text-anchor="start" x="1496" y="-194.5" font-family="Helvetica,sans-Serif" font-size="10.00">denoptim.graph.Attachment</text>
<text text-anchor="middle" x="1555.5" y="-183.5" font-family="Helvetica,sans-Serif" font-size="10.00">Point.getEmbeddedAP</text>
</a>
</g>
</g>
<!-- Node1&#45;&gt;Node1 -->
<g id="edge3" class="edge">
<title>Node1&#45;&gt;Node1</title>
<path fill="none" stroke="midnightblue" d="M1590.33,-216.96C1586,-221.68 1574.4,-225 1555.5,-225 1524.49,-225 1513.11,-216.06 1521.34,-206.66"/>
<polygon fill="midnightblue" stroke="midnightblue" points="1593.8,-216.41 1589.66,-206.66 1586.81,-216.87 1593.8,-216.41"/>
</g>
<!-- Node2 -->
<g id="node2" class="node">
<title>Node2</title>
<g id="a_node2"><a xlink:href="classdenoptim_1_1graph_1_1_attachment_point_test.html#a4055d75f8ca025515d3da1560c5aa203" target="_top" xlink:title=" ">
<polygon fill="white" stroke="black" points="1264,-296.5 1264,-326.5 1452,-326.5 1452,-296.5 1264,-296.5"/>
<text text-anchor="start" x="1272" y="-314.5" font-family="Helvetica,sans-Serif" font-size="10.00">denoptim.graph.Attachment</text>
<text text-anchor="middle" x="1358" y="-303.5" font-family="Helvetica,sans-Serif" font-size="10.00">PointTest.checkIdentityOfEmbeddedAP</text>
</a>
</g>
</g>
<!-- Node1&#45;&gt;Node2 -->
<g id="edge1" class="edge">
<title>Node1&#45;&gt;Node2</title>
<path fill="none" stroke="midnightblue" d="M1536.04,-214.48C1517.18,-236.43 1485.91,-268.86 1452,-287.5 1445.72,-290.95 1438.92,-293.92 1431.96,-296.48"/>
<polygon fill="midnightblue" stroke="midnightblue" points="1538.88,-216.53 1542.64,-206.62 1533.52,-212.03 1538.88,-216.53"/>
</g>
<!-- Node4 -->
<g id="node4" class="node">
<title>Node4</title>
<g id="a_node4"><a xlink:href="classdenoptim_1_1graph_1_1_attachment_point.html#adfc2840f3e5126d847c8d800082f8958" target="_top" xlink:title="Gets the attachment point (AP) that is connected to this AP via the edge user or in any edge user tha...">
<polygon fill="white" stroke="black" points="1075.5,-198.5 1075.5,-228.5 1221.5,-228.5 1221.5,-198.5 1075.5,-198.5"/>
<text text-anchor="start" x="1083.5" y="-216.5" font-family="Helvetica,sans-Serif" font-size="10.00">denoptim.graph.Attachment</text>
<text text-anchor="middle" x="1148.5" y="-205.5" font-family="Helvetica,sans-Serif" font-size="10.00">Point.getLinkedAPThroughout</text>
</a>
</g>
</g>
<!-- Node1&#45;&gt;Node4 -->
<g id="edge4" class="edge">
<title>Node1&#45;&gt;Node4</title>
<path fill="none" stroke="midnightblue" d="M1477.64,-185.8C1418.94,-182.63 1336.14,-180.72 1264,-188.5 1245.19,-190.53 1224.93,-194.38 1206.76,-198.47"/>
<polygon fill="midnightblue" stroke="midnightblue" points="1477.76,-189.31 1487.94,-186.38 1478.16,-182.32 1477.76,-189.31"/>
</g>
<!-- Node20 -->
<g id="node20" class="node">
<title>Node20</title>
<g id="a_node20"><a xlink:href="classdenoptim_1_1graph_1_1_attachment_point.html#aa3f954b074d8d8deef518821f13dcd24" target="_top" xlink:title="Checks if this and another APs are rooted on atoms that are bonded in any way other than a possible c...">
<polygon fill="white" stroke="black" points="878.5,-88.5 878.5,-118.5 1020.5,-118.5 1020.5,-88.5 878.5,-88.5"/>
<text text-anchor="start" x="886.5" y="-106.5" font-family="Helvetica,sans-Serif" font-size="10.00">denoptim.graph.Attachment</text>
<text text-anchor="middle" x="949.5" y="-95.5" font-family="Helvetica,sans-Serif" font-size="10.00">Point.hasConnectedSrcAtom</text>
</a>
</g>
</g>
<!-- Node1&#45;&gt;Node20 -->
<g id="edge39" class="edge">
<title>Node1&#45;&gt;Node20</title>
<path fill="none" stroke="midnightblue" d="M1478.07,-178.69C1411.96,-167.76 1313.78,-151.89 1228,-139.5 1157.56,-129.32 1076.86,-119.01 1020.72,-112.04"/>
<polygon fill="midnightblue" stroke="midnightblue" points="1477.55,-182.15 1487.99,-180.33 1478.7,-175.24 1477.55,-182.15"/>
</g>
<!-- Node25 -->
<g id="node25" class="node">
<title>Node25</title>
<g id="a_node25"><a xlink:href="classdenoptim_1_1graph_1_1_edge.html#a20a0c78541321532267b2fda0a6b634b" target="_top" xlink:title=" ">
<polygon fill="white" stroke="black" points="1289.5,-198.5 1289.5,-228.5 1426.5,-228.5 1426.5,-198.5 1289.5,-198.5"/>
<text text-anchor="start" x="1297.5" y="-216.5" font-family="Helvetica,sans-Serif" font-size="10.00">denoptim.graph.Edge.getSrc</text>
<text text-anchor="middle" x="1358" y="-205.5" font-family="Helvetica,sans-Serif" font-size="10.00">APThroughout</text>
</a>
</g>
</g>
<!-- Node1&#45;&gt;Node25 -->
<g id="edge30" class="edge">
<title>Node1&#45;&gt;Node25</title>
<path fill="none" stroke="midnightblue" d="M1477.47,-200.17C1460.72,-202.05 1443.12,-204.03 1426.76,-205.87"/>
<polygon fill="midnightblue" stroke="midnightblue" points="1478.22,-203.61 1487.77,-199.01 1477.44,-196.65 1478.22,-203.61"/>
</g>
<!-- Node28 -->
<g id="node28" class="node">
<title>Node28</title>
<g id="a_node28"><a xlink:href="classdenoptim_1_1graph_1_1_edge.html#ae5c20718860e84083e008b5bef44e1ae" target="_top" xlink:title=" ">
<polygon fill="white" stroke="black" points="1289.5,-247.5 1289.5,-277.5 1426.5,-277.5 1426.5,-247.5 1289.5,-247.5"/>
<text text-anchor="start" x="1297.5" y="-265.5" font-family="Helvetica,sans-Serif" font-size="10.00">denoptim.graph.Edge.getTrg</text>
<text text-anchor="middle" x="1358" y="-254.5" font-family="Helvetica,sans-Serif" font-size="10.00">APThroughout</text>
</a>
</g>
</g>
<!-- Node1&#45;&gt;Node28 -->
<g id="edge35" class="edge">
<title>Node1&#45;&gt;Node28</title>
<path fill="none" stroke="midnightblue" d="M1514.94,-211.03C1496.15,-219.84 1473.22,-229.94 1452,-237.5 1441.92,-241.09 1431.07,-244.45 1420.46,-247.47"/>
<polygon fill="midnightblue" stroke="midnightblue" points="1516.54,-214.14 1524.07,-206.69 1513.54,-207.82 1516.54,-214.14"/>
</g>
<!-- Node29 -->
<g id="node29" class="node">
<title>Node29</title>
<g id="a_node29"><a xlink:href="classdenoptim_1_1graph_1_1_attachment_point.html#ab9564dbfb89fd0bd7a4fc00397702b31" target="_top" xlink:title=" ">
<polygon fill="white" stroke="black" points="1290.5,-44.5 1290.5,-74.5 1425.5,-74.5 1425.5,-44.5 1290.5,-44.5"/>
<text text-anchor="start" x="1298.5" y="-62.5" font-family="Helvetica,sans-Serif" font-size="10.00">denoptim.graph.Attachment</text>
<text text-anchor="middle" x="1358" y="-51.5" font-family="Helvetica,sans-Serif" font-size="10.00">Point.hasSameSrcAtom</text>
</a>
</g>
</g>
<!-- Node1&#45;&gt;Node29 -->
<g id="edge40" class="edge">
<title>Node1&#45;&gt;Node29</title>
<path fill="none" stroke="midnightblue" d="M1534.89,-168.65C1515.6,-147.34 1484.4,-115.86 1452,-95.5 1438.66,-87.12 1423.05,-80.15 1408.48,-74.64"/>
<polygon fill="midnightblue" stroke="midnightblue" points="1532.42,-171.13 1541.68,-176.28 1537.65,-166.48 1532.42,-171.13"/>
</g>
<!-- Node3 -->
<g id="node3" class="node">
<title>Node3</title>
<g id="a_node3"><a xlink:href="classdenoptim_1_1graph_1_1_attachment_point_test.html#a356dbf786633f3c7be94439c0e151913" target="_top" xlink:title=" ">
<polygon fill="white" stroke="black" points="1072.5,-296.5 1072.5,-326.5 1224.5,-326.5 1224.5,-296.5 1072.5,-296.5"/>
<text text-anchor="start" x="1080.5" y="-314.5" font-family="Helvetica,sans-Serif" font-size="10.00">denoptim.graph.Attachment</text>
<text text-anchor="middle" x="1148.5" y="-303.5" font-family="Helvetica,sans-Serif" font-size="10.00">PointTest.testGetEmbeddedAP</text>
</a>
</g>
</g>
<!-- Node2&#45;&gt;Node3 -->
<g id="edge2" class="edge">
<title>Node2&#45;&gt;Node3</title>
<path fill="none" stroke="midnightblue" d="M1253.67,-311.5C1243.87,-311.5 1234.07,-311.5 1224.61,-311.5"/>
<polygon fill="midnightblue" stroke="midnightblue" points="1253.87,-315 1263.87,-311.5 1253.87,-308 1253.87,-315"/>
</g>
<!-- Node5 -->
<g id="node5" class="node">
<title>Node5</title>
<g id="a_node5"><a xlink:href="classdenoptim_1_1graph_1_1_d_graph.html#ad38e8849839cb63835e727530ca124d9" target="_top" xlink:title="Checks if the Vertexs that are attached to two given AttachmentPoints apA and apB satisfy these condi...">
<polygon fill="white" stroke="black" points="879,-253.5 879,-283.5 1020,-283.5 1020,-253.5 879,-253.5"/>
<text text-anchor="start" x="887" y="-271.5" font-family="Helvetica,sans-Serif" font-size="10.00">denoptim.graph.DGraph.are</text>
<text text-anchor="middle" x="949.5" y="-260.5" font-family="Helvetica,sans-Serif" font-size="10.00">ApsUsedBySymmetricUsers</text>
</a>
</g>
</g>
<!-- Node4&#45;&gt;Node5 -->
<g id="edge5" class="edge">
<title>Node4&#45;&gt;Node5</title>
<path fill="none" stroke="midnightblue" d="M1084.01,-231.23C1058.29,-238.41 1028.91,-246.61 1004.27,-253.49"/>
<polygon fill="midnightblue" stroke="midnightblue" points="1084.98,-234.59 1093.67,-228.53 1083.1,-227.85 1084.98,-234.59"/>
</g>
<!-- Node9 -->
<g id="node9" class="node">
<title>Node9</title>
<g id="a_node9"><a xlink:href="classdenoptim_1_1graph_1_1_d_graph.html#aa46fb7d3a38e4c4401723a75f7c8d764" target="_top" xlink:title=" ">
<polygon fill="white" stroke="black" points="664.5,-297.5 664.5,-327.5 815.5,-327.5 815.5,-297.5 664.5,-297.5"/>
<text text-anchor="start" x="672.5" y="-315.5" font-family="Helvetica,sans-Serif" font-size="10.00">denoptim.graph.DGraph.find</text>
<text text-anchor="middle" x="740" y="-304.5" font-family="Helvetica,sans-Serif" font-size="10.00">SymmetrySetsOfChildVertexes</text>
</a>
</g>
</g>
<!-- Node4&#45;&gt;Node9 -->
<g id="edge15" class="edge">
<title>Node4&#45;&gt;Node9</title>
<path fill="none" stroke="midnightblue" d="M1074.77,-233.54C1072.77,-234.78 1070.85,-236.1 1069,-237.5 1045.41,-255.36 1058.5,-278.49 1033,-293.5 967.23,-332.23 878.08,-332.05 815.65,-325.28"/>
<polygon fill="midnightblue" stroke="midnightblue" points="1076.76,-236.44 1083.86,-228.58 1073.4,-230.3 1076.76,-236.44"/>
</g>
<!-- Node11 -->
<g id="node11" class="node">
<title>Node11</title>
<g id="a_node11"><a xlink:href="classdenoptim_1_1fragspace_1_1_a_p_map_finder.html#a5868844d747acb9bd5331c760a24ff09" target="_top" xlink:title="Compares the AttachmentPoint of two lists searching for all the APs of the second list that are &quot;comp...">
<polygon fill="white" stroke="black" points="866,-345.5 866,-375.5 1033,-375.5 1033,-345.5 866,-345.5"/>
<text text-anchor="start" x="874" y="-363.5" font-family="Helvetica,sans-Serif" font-size="10.00">denoptim.fragspace.APMap</text>
<text text-anchor="middle" x="949.5" y="-352.5" font-family="Helvetica,sans-Serif" font-size="10.00">Finder.findMappingCompatibileAPs</text>
</a>
</g>
</g>
<!-- Node4&#45;&gt;Node11 -->
<g id="edge12" class="edge">
<title>Node4&#45;&gt;Node11</title>
<path fill="none" stroke="midnightblue" d="M1073.07,-234.1C1071.66,-235.18 1070.3,-236.31 1069,-237.5 1037.54,-266.32 1063.07,-296.23 1033,-326.5 1025.14,-334.41 1015.17,-340.56 1004.91,-345.32"/>
<polygon fill="midnightblue" stroke="midnightblue" points="1075.14,-236.93 1081.6,-228.53 1071.31,-231.06 1075.14,-236.93"/>
</g>
<!-- Node14 -->
<g id="node14" class="node">
<title>Node14</title>
<g id="a_node14"><a xlink:href="classdenoptim_1_1graph_1_1_vertex.html#a2e2ffd927172ca1a4b1fce14c2c347b0" target="_top" xlink:title="Gets attachment points that are used by capping groups throughout the graph levels,...">
<polygon fill="white" stroke="black" points="885.5,-204.5 885.5,-234.5 1013.5,-234.5 1013.5,-204.5 885.5,-204.5"/>
<text text-anchor="start" x="893.5" y="-222.5" font-family="Helvetica,sans-Serif" font-size="10.00">denoptim.graph.Vertex.get</text>
<text text-anchor="middle" x="949.5" y="-211.5" font-family="Helvetica,sans-Serif" font-size="10.00">CappedAPsThroughout</text>
</a>
</g>
</g>
<!-- Node4&#45;&gt;Node14 -->
<g id="edge16" class="edge">
<title>Node4&#45;&gt;Node14</title>
<path fill="none" stroke="midnightblue" d="M1065.21,-216.01C1047.96,-216.53 1030.04,-217.08 1013.63,-217.58"/>
<polygon fill="midnightblue" stroke="midnightblue" points="1065.37,-219.5 1075.26,-215.7 1065.16,-212.51 1065.37,-219.5"/>
</g>
<!-- Node4&#45;&gt;Node20 -->
<g id="edge22" class="edge">
<title>Node4&#45;&gt;Node20</title>
<path fill="none" stroke="midnightblue" d="M1076.12,-193.52C1073.64,-191.97 1071.25,-190.3 1069,-188.5 1044.38,-168.88 1057.86,-146.81 1033,-127.5 1028.52,-124.02 1023.56,-121.05 1018.35,-118.51"/>
<polygon fill="midnightblue" stroke="midnightblue" points="1074.44,-196.58 1084.89,-198.34 1077.82,-190.45 1074.44,-196.58"/>
</g>
<!-- Node24 -->
<g id="node24" class="node">
<title>Node24</title>
<g id="a_node24"><a xlink:href="classdenoptim_1_1graph_1_1_d_graph.html#a357b4099599e47ae47102123550771f8" target="_top" xlink:title="Remove a given vertex belonging to this graph and re&#45;connects the resulting graph branches as much as...">
<polygon fill="white" stroke="black" points="873.5,-137.5 873.5,-167.5 1025.5,-167.5 1025.5,-137.5 873.5,-137.5"/>
<text text-anchor="start" x="881.5" y="-155.5" font-family="Helvetica,sans-Serif" font-size="10.00">denoptim.graph.DGraph.remove</text>
<text text-anchor="middle" x="949.5" y="-144.5" font-family="Helvetica,sans-Serif" font-size="10.00">SingleVertexAndWeld</text>
</a>
</g>
</g>
<!-- Node4&#45;&gt;Node24 -->
<g id="edge27" class="edge">
<title>Node4&#45;&gt;Node24</title>
<path fill="none" stroke="midnightblue" d="M1089.16,-195.44C1060.49,-186.56 1026.33,-175.98 999.1,-167.55"/>
<polygon fill="midnightblue" stroke="midnightblue" points="1088.47,-198.89 1099.06,-198.5 1090.54,-192.2 1088.47,-198.89"/>
</g>
<!-- Node6 -->
<g id="node6" class="node">
<title>Node6</title>
<g id="a_node6"><a xlink:href="classdenoptim_1_1graph_1_1_d_graph.html#aff06be9fc2508e591352e7ae46260721" target="_top" xlink:title="Tries to determine the set of symmetric vertices in this graph based on finding compatible Vertexes t...">
<polygon fill="white" stroke="black" points="455.5,-253.5 455.5,-283.5 602.5,-283.5 602.5,-253.5 455.5,-253.5"/>
<text text-anchor="start" x="463.5" y="-271.5" font-family="Helvetica,sans-Serif" font-size="10.00">denoptim.graph.DGraph.detect</text>
<text text-anchor="middle" x="529" y="-260.5" font-family="Helvetica,sans-Serif" font-size="10.00">SymVertexSets</text>
</a>
</g>
</g>
<!-- Node5&#45;&gt;Node6 -->
<g id="edge6" class="edge">
<title>Node5&#45;&gt;Node6</title>
<path fill="none" stroke="midnightblue" d="M868.82,-268.5C792.03,-268.5 676.85,-268.5 602.55,-268.5"/>
<polygon fill="midnightblue" stroke="midnightblue" points="868.92,-272 878.92,-268.5 868.92,-265 868.92,-272"/>
</g>
<!-- Node5&#45;&gt;Node9 -->
<g id="edge9" class="edge">
<title>Node5&#45;&gt;Node9</title>
<path fill="none" stroke="midnightblue" d="M868.84,-285.39C850.1,-289.37 830.24,-293.58 811.9,-297.47"/>
<polygon fill="midnightblue" stroke="midnightblue" points="869.77,-288.77 878.83,-283.27 868.32,-281.92 869.77,-288.77"/>
</g>
<!-- Node7 -->
<g id="node7" class="node">
<title>Node7</title>
<g id="a_node7"><a xlink:href="classdenoptim_1_1ga_1_1_e_a_utils.html#a18eb5d0ba6772e9116176ef6ca9f84fc" target="_top" xlink:title="Converts a molecule into a DGraph by fragmentation and re&#45;assembling of the fragments.">
<polygon fill="white" stroke="black" points="235,-228.5 235,-258.5 389,-258.5 389,-228.5 235,-228.5"/>
<text text-anchor="start" x="243" y="-246.5" font-family="Helvetica,sans-Serif" font-size="10.00">denoptim.ga.EAUtils.make</text>
<text text-anchor="middle" x="312" y="-235.5" font-family="Helvetica,sans-Serif" font-size="10.00">GraphFromFragmentationOfMol</text>
</a>
</g>
</g>
<!-- Node6&#45;&gt;Node7 -->
<g id="edge7" class="edge">
<title>Node6&#45;&gt;Node7</title>
<path fill="none" stroke="midnightblue" d="M445.08,-258.86C426.64,-256.71 407.17,-254.45 389.02,-252.34"/>
<polygon fill="midnightblue" stroke="midnightblue" points="444.87,-262.36 455.21,-260.04 445.68,-255.4 444.87,-262.36"/>
</g>
<!-- Node8 -->
<g id="node8" class="node">
<title>Node8</title>
<g id="a_node8"><a xlink:href="classdenoptim_1_1graph_1_1_d_graph_test.html#a05b87ffb43b9710fcea83b0777654e27" target="_top" xlink:title=" ">
<polygon fill="white" stroke="black" points="234,-277.5 234,-307.5 390,-307.5 390,-277.5 234,-277.5"/>
<text text-anchor="start" x="242" y="-295.5" font-family="Helvetica,sans-Serif" font-size="10.00">denoptim.graph.DGraphTest.test</text>
<text text-anchor="middle" x="312" y="-284.5" font-family="Helvetica,sans-Serif" font-size="10.00">DetectSymVertexSets</text>
</a>
</g>
</g>
<!-- Node6&#45;&gt;Node8 -->
<g id="edge8" class="edge">
<title>Node6&#45;&gt;Node8</title>
<path fill="none" stroke="midnightblue" d="M445.26,-277.74C427.14,-279.76 408.02,-281.89 390.13,-283.89"/>
<polygon fill="midnightblue" stroke="midnightblue" points="445.66,-281.21 455.21,-276.63 444.88,-274.26 445.66,-281.21"/>
</g>
<!-- Node9&#45;&gt;Node6 -->
<g id="edge10" class="edge">
<title>Node9&#45;&gt;Node6</title>
<path fill="none" stroke="midnightblue" d="M657.75,-295.39C639.15,-291.48 619.52,-287.35 601.37,-283.53"/>
<polygon fill="midnightblue" stroke="midnightblue" points="657.15,-298.85 667.66,-297.48 658.59,-292 657.15,-298.85"/>
</g>
<!-- Node10 -->
<g id="node10" class="node">
<title>Node10</title>
<g id="a_node10"><a xlink:href="classdenoptim_1_1graph_1_1_d_graph_test.html#ac02ab6b199aee9280e88a14d0026a175" target="_top" xlink:title=" ">
<polygon fill="white" stroke="black" points="444,-302.5 444,-332.5 614,-332.5 614,-302.5 444,-302.5"/>
<text text-anchor="start" x="452" y="-320.5" font-family="Helvetica,sans-Serif" font-size="10.00">denoptim.graph.DGraphTest.test</text>
<text text-anchor="middle" x="529" y="-309.5" font-family="Helvetica,sans-Serif" font-size="10.00">FindSymmetrySetsOfChildVertexes</text>
</a>
</g>
</g>
<!-- Node9&#45;&gt;Node10 -->
<g id="edge11" class="edge">
<title>Node9&#45;&gt;Node10</title>
<path fill="none" stroke="midnightblue" d="M654.39,-314.52C641.12,-314.84 627.4,-315.17 614.14,-315.49"/>
<polygon fill="midnightblue" stroke="midnightblue" points="654.52,-318.02 664.43,-314.28 654.35,-311.02 654.52,-318.02"/>
</g>
<!-- Node12 -->
<g id="node12" class="node">
<title>Node12</title>
<g id="a_node12"><a xlink:href="classdenoptim_1_1fragspace_1_1_a_p_map_finder.html#ae5c8afa4b7defd6ce35df0fa1c5facf2" target="_top" xlink:title="Searches for mappings between the AttachmentPoints on the two lists.">
<polygon fill="white" stroke="black" points="672,-348.5 672,-378.5 808,-378.5 808,-348.5 672,-348.5"/>
<text text-anchor="start" x="680" y="-366.5" font-family="Helvetica,sans-Serif" font-size="10.00">denoptim.fragspace.APMap</text>
<text text-anchor="middle" x="740" y="-355.5" font-family="Helvetica,sans-Serif" font-size="10.00">Finder.findAllMappings</text>
</a>
</g>
</g>
<!-- Node11&#45;&gt;Node12 -->
<g id="edge13" class="edge">
<title>Node11&#45;&gt;Node12</title>
<path fill="none" stroke="midnightblue" d="M855.46,-361.85C839.47,-362.08 823.14,-362.31 808.01,-362.53"/>
<polygon fill="midnightblue" stroke="midnightblue" points="855.95,-365.34 865.89,-361.69 855.84,-358.34 855.95,-365.34"/>
</g>
<!-- Node13 -->
<g id="node13" class="node">
<title>Node13</title>
<g id="a_node13"><a xlink:href="classdenoptim_1_1fragspace_1_1_a_p_map_finder.html#ada1b2c2155faeefced1d9a64f82a6668" target="_top" xlink:title="Constructor that launches the search for a mapping between the AttachmentPoints on the first vertex t...">
<polygon fill="white" stroke="black" points="461,-351.5 461,-381.5 597,-381.5 597,-351.5 461,-351.5"/>
<text text-anchor="start" x="469" y="-369.5" font-family="Helvetica,sans-Serif" font-size="10.00">denoptim.fragspace.APMap</text>
<text text-anchor="middle" x="529" y="-358.5" font-family="Helvetica,sans-Serif" font-size="10.00">Finder.APMapFinder</text>
</a>
</g>
</g>
<!-- Node12&#45;&gt;Node13 -->
<g id="edge14" class="edge">
<title>Node12&#45;&gt;Node13</title>
<path fill="none" stroke="midnightblue" d="M661.49,-364.61C640.36,-364.92 617.65,-365.24 597.15,-365.54"/>
<polygon fill="midnightblue" stroke="midnightblue" points="661.77,-368.11 671.72,-364.47 661.67,-361.11 661.77,-368.11"/>
</g>
<!-- Node15 -->
<g id="node15" class="node">
<title>Node15</title>
<g id="a_node15"><a xlink:href="classdenoptim_1_1graph_1_1_vertex.html#ab96b76e89a6ca31a68c9f43466f9c5a9" target="_top" xlink:title="Counts the number of attachment points that are used by BBType#CAP vertex.">
<polygon fill="white" stroke="black" points="671.5,-204.5 671.5,-234.5 808.5,-234.5 808.5,-204.5 671.5,-204.5"/>
<text text-anchor="start" x="679.5" y="-222.5" font-family="Helvetica,sans-Serif" font-size="10.00">denoptim.graph.Vertex.get</text>
<text text-anchor="middle" x="740" y="-211.5" font-family="Helvetica,sans-Serif" font-size="10.00">CappedAPCountThroughout</text>
</a>
</g>
</g>
<!-- Node14&#45;&gt;Node15 -->
<g id="edge17" class="edge">
<title>Node14&#45;&gt;Node15</title>
<path fill="none" stroke="midnightblue" d="M875.29,-219.5C853.67,-219.5 830.12,-219.5 808.85,-219.5"/>
<polygon fill="midnightblue" stroke="midnightblue" points="875.4,-223 885.4,-219.5 875.4,-216 875.4,-223"/>
</g>
<!-- Node16 -->
<g id="node16" class="node">
<title>Node16</title>
<g id="a_node16"><a xlink:href="classdenoptim_1_1graph_1_1_vertex.html#a5c6af6108f5caedf3641ef2ed383f954" target="_top" xlink:title="Returns the list of mutation types.">
<polygon fill="white" stroke="black" points="465,-204.5 465,-234.5 593,-234.5 593,-204.5 465,-204.5"/>
<text text-anchor="start" x="473" y="-222.5" font-family="Helvetica,sans-Serif" font-size="10.00">denoptim.graph.Vertex.get</text>
<text text-anchor="middle" x="529" y="-211.5" font-family="Helvetica,sans-Serif" font-size="10.00">MutationTypes</text>
</a>
</g>
</g>
<!-- Node15&#45;&gt;Node16 -->
<g id="edge18" class="edge">
<title>Node15&#45;&gt;Node16</title>
<path fill="none" stroke="midnightblue" d="M661.25,-219.5C638.78,-219.5 614.54,-219.5 593.08,-219.5"/>
<polygon fill="midnightblue" stroke="midnightblue" points="661.43,-223 671.43,-219.5 661.43,-216 661.43,-223"/>
</g>
<!-- Node17 -->
<g id="node17" class="node">
<title>Node17</title>
<g id="a_node17"><a xlink:href="classdenoptim_1_1graph_1_1_d_graph.html#af404e25092eabcdfbe69b5d7204e9483" target="_top" xlink:title="Mutates the graph by removing the chain where a given vertex is located up to the first branching (i....">
<polygon fill="white" stroke="black" points="453,-155.5 453,-185.5 605,-185.5 605,-155.5 453,-155.5"/>
<text text-anchor="start" x="461" y="-173.5" font-family="Helvetica,sans-Serif" font-size="10.00">denoptim.graph.DGraph.remove</text>
<text text-anchor="middle" x="529" y="-162.5" font-family="Helvetica,sans-Serif" font-size="10.00">ChainUpToBranching</text>
</a>
</g>
</g>
<!-- Node15&#45;&gt;Node17 -->
<g id="edge19" class="edge">
<title>Node15&#45;&gt;Node17</title>
<path fill="none" stroke="midnightblue" d="M665.08,-202.17C641.87,-196.73 616.46,-190.77 594.01,-185.51"/>
<polygon fill="midnightblue" stroke="midnightblue" points="664.34,-205.59 674.87,-204.47 665.94,-198.78 664.34,-205.59"/>
</g>
<!-- Node18 -->
<g id="node18" class="node">
<title>Node18</title>
<g id="a_node18"><a xlink:href="classdenoptim_1_1ga_1_1_graph_operations.html#afd659e74a056d1a6ae6f52513fee0be3" target="_top" xlink:title="Deletes the given vertex and all other vertexes that are not connected to more than 2 non&#45;capping gro...">
<polygon fill="white" stroke="black" points="225.5,-155.5 225.5,-185.5 398.5,-185.5 398.5,-155.5 225.5,-155.5"/>
<text text-anchor="start" x="233.5" y="-173.5" font-family="Helvetica,sans-Serif" font-size="10.00">denoptim.ga.GraphOperations.delete</text>
<text text-anchor="middle" x="312" y="-162.5" font-family="Helvetica,sans-Serif" font-size="10.00">Chain</text>
</a>
</g>
</g>
<!-- Node17&#45;&gt;Node18 -->
<g id="edge20" class="edge">
<title>Node17&#45;&gt;Node18</title>
<path fill="none" stroke="midnightblue" d="M442.46,-170.5C428.1,-170.5 413.19,-170.5 398.82,-170.5"/>
<polygon fill="midnightblue" stroke="midnightblue" points="442.8,-174 452.8,-170.5 442.8,-167 442.8,-174"/>
</g>
<!-- Node19 -->
<g id="node19" class="node">
<title>Node19</title>
<g id="a_node19"><a xlink:href="classdenoptim_1_1ga_1_1_graph_operations.html#a0c851972015fbb4b2a317b053b8b81d9" target="_top" xlink:title="Mutates the given vertex according to the given mutation type, if possible.">
<polygon fill="white" stroke="black" points="0,-133.5 0,-163.5 180,-163.5 180,-133.5 0,-133.5"/>
<text text-anchor="start" x="8" y="-151.5" font-family="Helvetica,sans-Serif" font-size="10.00">denoptim.ga.GraphOperations.perform</text>
<text text-anchor="middle" x="90" y="-140.5" font-family="Helvetica,sans-Serif" font-size="10.00">Mutation</text>
</a>
</g>
</g>
<!-- Node18&#45;&gt;Node19 -->
<g id="edge21" class="edge">
<title>Node18&#45;&gt;Node19</title>
<path fill="none" stroke="midnightblue" d="M215.14,-160.91C203.49,-159.75 191.63,-158.56 180.08,-157.41"/>
<polygon fill="midnightblue" stroke="midnightblue" points="215.01,-164.42 225.31,-161.93 215.71,-157.45 215.01,-164.42"/>
</g>
<!-- Node21 -->
<g id="node21" class="node">
<title>Node21</title>
<g id="a_node21"><a xlink:href="classdenoptim_1_1graph_1_1_d_graph.html#a00209ca8b4a9623b41e7d9e1e62f69ec" target="_top" xlink:title="Remove a given vertex belonging to this graph and re&#45;connects the resulting graph branches as much as...">
<polygon fill="white" stroke="black" points="664,-111.5 664,-141.5 816,-141.5 816,-111.5 664,-111.5"/>
<text text-anchor="start" x="672" y="-129.5" font-family="Helvetica,sans-Serif" font-size="10.00">denoptim.graph.DGraph.remove</text>
<text text-anchor="middle" x="740" y="-118.5" font-family="Helvetica,sans-Serif" font-size="10.00">VertexAndWeld</text>
</a>
</g>
</g>
<!-- Node20&#45;&gt;Node21 -->
<g id="edge23" class="edge">
<title>Node20&#45;&gt;Node21</title>
<path fill="none" stroke="midnightblue" d="M868.28,-112.39C851.14,-114.29 833.09,-116.29 816.15,-118.17"/>
<polygon fill="midnightblue" stroke="midnightblue" points="868.7,-115.87 878.25,-111.29 867.93,-108.91 868.7,-115.87"/>
</g>
<!-- Node23 -->
<g id="node23" class="node">
<title>Node23</title>
<g id="a_node23"><a xlink:href="classdenoptim_1_1graph_1_1_attachment_point_test.html#af88d30ce68477984fe6179325d1540b2" target="_top" xlink:title=" ">
<polygon fill="white" stroke="black" points="650,-62.5 650,-92.5 830,-92.5 830,-62.5 650,-62.5"/>
<text text-anchor="start" x="658" y="-80.5" font-family="Helvetica,sans-Serif" font-size="10.00">denoptim.graph.Attachment</text>
<text text-anchor="middle" x="740" y="-69.5" font-family="Helvetica,sans-Serif" font-size="10.00">PointTest.testHasConnectedSrcAtom</text>
</a>
</g>
</g>
<!-- Node20&#45;&gt;Node23 -->
<g id="edge26" class="edge">
<title>Node20&#45;&gt;Node23</title>
<path fill="none" stroke="midnightblue" d="M868,-93.41C855.65,-91.87 842.83,-90.26 830.31,-88.69"/>
<polygon fill="midnightblue" stroke="midnightblue" points="867.89,-96.93 878.25,-94.7 868.76,-89.98 867.89,-96.93"/>
</g>
<!-- Node22 -->
<g id="node22" class="node">
<title>Node22</title>
<g id="a_node22"><a xlink:href="classdenoptim_1_1ga_1_1_graph_operations.html#ab3adb5141a8941bf23916bb516faee63" target="_top" xlink:title="Removes a vertex while merging as many of the child branches into the parent vertex.">
<polygon fill="white" stroke="black" points="216,-117 216,-136 408,-136 408,-117 216,-117"/>
<text text-anchor="middle" x="312" y="-124" font-family="Helvetica,sans-Serif" font-size="10.00">denoptim.ga.GraphOperations.deleteLink</text>
</a>
</g>
</g>
<!-- Node21&#45;&gt;Node22 -->
<g id="edge24" class="edge">
<title>Node21&#45;&gt;Node22</title>
<path fill="none" stroke="midnightblue" d="M653.58,-126.5C582.66,-126.5 481.86,-126.5 408.33,-126.5"/>
<polygon fill="midnightblue" stroke="midnightblue" points="653.82,-130 663.82,-126.5 653.82,-123 653.82,-130"/>
</g>
<!-- Node22&#45;&gt;Node19 -->
<g id="edge25" class="edge">
<title>Node22&#45;&gt;Node19</title>
<path fill="none" stroke="midnightblue" d="M205.75,-137.03C197.17,-137.88 188.56,-138.74 180.11,-139.59"/>
<polygon fill="midnightblue" stroke="midnightblue" points="206.18,-140.5 215.78,-136.02 205.49,-133.53 206.18,-140.5"/>
</g>
<!-- Node24&#45;&gt;Node21 -->
<g id="edge29" class="edge">
<title>Node24&#45;&gt;Node21</title>
<path fill="none" stroke="midnightblue" d="M863.18,-141.81C847.64,-139.86 831.52,-137.84 816.3,-135.93"/>
<polygon fill="midnightblue" stroke="midnightblue" points="862.94,-145.31 873.29,-143.08 863.81,-138.36 862.94,-145.31"/>
</g>
<!-- Node24&#45;&gt;Node24 -->
<g id="edge28" class="edge">
<title>Node24&#45;&gt;Node24</title>
<path fill="none" stroke="midnightblue" d="M984.68,-177.96C980.32,-182.68 968.59,-186 949.5,-186 918.18,-186 906.67,-177.06 914.99,-167.66"/>
<polygon fill="midnightblue" stroke="midnightblue" points="988.15,-177.41 984.01,-167.66 981.17,-177.87 988.15,-177.41"/>
</g>
<!-- Node25&#45;&gt;Node3 -->
<g id="edge34" class="edge">
<title>Node25&#45;&gt;Node3</title>
<path fill="none" stroke="midnightblue" d="M1279.62,-228.86C1274.13,-231.33 1268.85,-234.18 1264,-237.5 1241.39,-252.95 1250.26,-271.55 1228,-287.5 1223.25,-290.9 1218.01,-293.83 1212.55,-296.35"/>
<polygon fill="midnightblue" stroke="midnightblue" points="1281.06,-232.06 1289.04,-225.08 1278.45,-225.56 1281.06,-232.06"/>
</g>
<!-- Node25&#45;&gt;Node4 -->
<g id="edge32" class="edge">
<title>Node25&#45;&gt;Node4</title>
<path fill="none" stroke="midnightblue" d="M1279.3,-213.5C1260.43,-213.5 1240.32,-213.5 1221.71,-213.5"/>
<polygon fill="midnightblue" stroke="midnightblue" points="1279.34,-217 1289.34,-213.5 1279.34,-210 1279.34,-217"/>
</g>
<!-- Node26 -->
<g id="node26" class="node">
<title>Node26</title>
<g id="a_node26"><a xlink:href="classdenoptim_1_1graph_1_1_vertex.html#a92a7b50538d4e2b316614e3d4740bfcb" target="_top" xlink:title="Looks into the edges that use any of the APs that belong to this vertex and returns the list of attac...">
<polygon fill="white" stroke="black" points="1084.5,-247.5 1084.5,-277.5 1212.5,-277.5 1212.5,-247.5 1084.5,-247.5"/>
<text text-anchor="start" x="1092.5" y="-265.5" font-family="Helvetica,sans-Serif" font-size="10.00">denoptim.graph.Vertex.get</text>
<text text-anchor="middle" x="1148.5" y="-254.5" font-family="Helvetica,sans-Serif" font-size="10.00">APsFromChildren</text>
</a>
</g>
</g>
<!-- Node25&#45;&gt;Node26 -->
<g id="edge31" class="edge">
<title>Node25&#45;&gt;Node26</title>
<path fill="none" stroke="midnightblue" d="M1283.56,-230.84C1260.41,-236.31 1235.06,-242.3 1212.69,-247.58"/>
<polygon fill="midnightblue" stroke="midnightblue" points="1284.41,-234.24 1293.33,-228.53 1282.8,-227.43 1284.41,-234.24"/>
</g>
<!-- Node27 -->
<g id="node27" class="node">
<title>Node27</title>
<g id="a_node27"><a xlink:href="classdenoptim_1_1graph_1_1_attachment_point.html#a817a26666da5405c5e4d876729bfe549" target="_top" xlink:title="Checks the role of this AP in the user or in any user that might be external to the template embeddin...">
<polygon fill="white" stroke="black" points="1077.5,-149.5 1077.5,-179.5 1219.5,-179.5 1219.5,-149.5 1077.5,-149.5"/>
<text text-anchor="start" x="1085.5" y="-167.5" font-family="Helvetica,sans-Serif" font-size="10.00">denoptim.graph.Attachment</text>
<text text-anchor="middle" x="1148.5" y="-156.5" font-family="Helvetica,sans-Serif" font-size="10.00">Point.isSrcInUserThroughout</text>
</a>
</g>
</g>
<!-- Node25&#45;&gt;Node27 -->
<g id="edge33" class="edge">
<title>Node25&#45;&gt;Node27</title>
<path fill="none" stroke="midnightblue" d="M1283.3,-196.1C1260.35,-190.68 1235.24,-184.75 1213.05,-179.51"/>
<polygon fill="midnightblue" stroke="midnightblue" points="1282.8,-199.57 1293.33,-198.47 1284.41,-192.76 1282.8,-199.57"/>
</g>
<!-- Node28&#45;&gt;Node3 -->
<g id="edge38" class="edge">
<title>Node28&#45;&gt;Node3</title>
<path fill="none" stroke="midnightblue" d="M1283.3,-279.9C1260.35,-285.32 1235.24,-291.25 1213.05,-296.49"/>
<polygon fill="midnightblue" stroke="midnightblue" points="1284.41,-283.24 1293.33,-277.53 1282.8,-276.43 1284.41,-283.24"/>
</g>
<!-- Node28&#45;&gt;Node4 -->
<g id="edge37" class="edge">
<title>Node28&#45;&gt;Node4</title>
<path fill="none" stroke="midnightblue" d="M1283.3,-245.1C1260.35,-239.68 1235.24,-233.75 1213.05,-228.51"/>
<polygon fill="midnightblue" stroke="midnightblue" points="1282.8,-248.57 1293.33,-247.47 1284.41,-241.76 1282.8,-248.57"/>
</g>
<!-- Node28&#45;&gt;Node26 -->
<g id="edge36" class="edge">
<title>Node28&#45;&gt;Node26</title>
<path fill="none" stroke="midnightblue" d="M1279.1,-262.5C1257.24,-262.5 1233.74,-262.5 1212.84,-262.5"/>
<polygon fill="midnightblue" stroke="midnightblue" points="1279.34,-266 1289.34,-262.5 1279.34,-259 1279.34,-266"/>
</g>
<!-- Node29&#45;&gt;Node21 -->
<g id="edge41" class="edge">
<title>Node29&#45;&gt;Node21</title>
<path fill="none" stroke="midnightblue" d="M1280.25,-50.3C1181.8,-41.22 1006.93,-34.35 866,-78.5 847.88,-84.18 847.33,-93.74 830,-101.5 821.65,-105.24 812.61,-108.55 803.59,-111.45"/>
<polygon fill="midnightblue" stroke="midnightblue" points="1280.12,-53.81 1290.41,-51.27 1280.79,-46.84 1280.12,-53.81"/>
</g>
<!-- Node30 -->
<g id="node30" class="node">
<title>Node30</title>
<g id="a_node30"><a xlink:href="classdenoptim_1_1graph_1_1_attachment_point_test.html#a4889032266eb87d0f91af8b4e9869360" target="_top" xlink:title=" ">
<polygon fill="white" stroke="black" points="1069,-0.5 1069,-30.5 1228,-30.5 1228,-0.5 1069,-0.5"/>
<text text-anchor="start" x="1077" y="-18.5" font-family="Helvetica,sans-Serif" font-size="10.00">denoptim.graph.Attachment</text>
<text text-anchor="middle" x="1148.5" y="-7.5" font-family="Helvetica,sans-Serif" font-size="10.00">PointTest.testHasSameSrcAtom</text>
</a>
</g>
</g>
<!-- Node29&#45;&gt;Node30 -->
<g id="edge42" class="edge">
<title>Node29&#45;&gt;Node30</title>
<path fill="none" stroke="midnightblue" d="M1280.62,-43.3C1260.89,-39.12 1239.73,-34.63 1220.29,-30.51"/>
<polygon fill="midnightblue" stroke="midnightblue" points="1279.98,-46.75 1290.49,-45.4 1281.43,-39.9 1279.98,-46.75"/>
</g>
</g>
</svg>
        <g id="navigator" transform="translate(0 0)" fill="#404254">
                <rect fill="#f2f5e9" fill-opacity="0.5" stroke="#606060" stroke-width=".5" x="0" y="0" width="60" height="60"/>
                <use id="zoomplus" xlink:href="#zoomPlus" x="17" y="9" onmousedown="handleZoom(evt,'in')"/>
                <use id="zoomminus" xlink:href="#zoomMin" x="42" y="9" onmousedown="handleZoom(evt,'out')"/>
                <use id="reset" xlink:href="#resetDef" x="30" y="36" onmousedown="handleReset()"/>
                <g id="arrowUp" xlink:href="#dirArrow" transform="translate(30 24)" onmousedown="handlePan(0,-1)">
                  <use xlink:href="#rim" fill="#404040">
                        <set attributeName="fill" to="#808080" begin="arrowUp.mouseover" end="arrowUp.mouseout"/>
                  </use>
                  <path fill="none" stroke="white" stroke-width="1.5" d="M0,-3.0v7 M-2.5,-0.5L0,-3.0L2.5,-0.5"/>
                </g>
                <g id="arrowRight" xlink:href="#dirArrow" transform="rotate(90) translate(36 -43)" onmousedown="handlePan(1,0)">
                  <use xlink:href="#rim" fill="#404040">
                        <set attributeName="fill" to="#808080" begin="arrowRight.mouseover" end="arrowRight.mouseout"/>
                  </use>
                  <path fill="none" stroke="white" stroke-width="1.5" d="M0,-3.0v7 M-2.5,-0.5L0,-3.0L2.5,-0.5"/>
                </g>
                <g id="arrowDown" xlink:href="#dirArrow" transform="rotate(180) translate(-30 -48)" onmousedown="handlePan(0,1)">
                  <use xlink:href="#rim" fill="#404040">
                        <set attributeName="fill" to="#808080" begin="arrowDown.mouseover" end="arrowDown.mouseout"/>
                  </use>
                  <path fill="none" stroke="white" stroke-width="1.5" d="M0,-3.0v7 M-2.5,-0.5L0,-3.0L2.5,-0.5"/>
                </g>
                <g id="arrowLeft" xlink:href="#dirArrow" transform="rotate(270) translate(-36 17)" onmousedown="handlePan(-1,0)">
                  <use xlink:href="#rim" fill="#404040">
                        <set attributeName="fill" to="#808080" begin="arrowLeft.mouseover" end="arrowLeft.mouseout"/>
                  </use>
                  <path fill="none" stroke="white" stroke-width="1.5" d="M0,-3.0v7 M-2.5,-0.5L0,-3.0L2.5,-0.5"/>
                </g>
        </g>
        <svg viewBox="0 0 15 15" width="100%" height="30px" preserveAspectRatio="xMaxYMin meet">
         <g id="arrow_out" transform="scale(0.3 0.3)">
          <a xlink:href="classdenoptim_1_1graph_1_1_attachment_point_a0e96f6c954de060a628eb3de1b2f4554_icgraph_org.svg" target="_base">
           <rect id="button" ry="5" rx="5" y="6" x="6" height="38" width="38"
                fill="#f2f5e9" fill-opacity="0.5" stroke="#606060" stroke-width="1.0"/>
           <path id="arrow"
             d="M 11.500037,31.436501 C 11.940474,20.09759 22.043105,11.32322 32.158766,21.979434 L 37.068811,17.246167 C 37.068811,17.246167 37.088388,32 37.088388,32 L 22.160133,31.978069 C 22.160133,31.978069 26.997745,27.140456 26.997745,27.140456 C 18.528582,18.264221 13.291696,25.230495 11.500037,31.436501 z"
             style="fill:#404040;"/>
          </a>
         </g>
        </svg>
</svg>
