<?xml version="1.0" encoding="UTF-8" standalone="no"?>
<!DOCTYPE svg PUBLIC "-//W3C//DTD SVG 1.1//EN"
 "http://www.w3.org/Graphics/SVG/1.1/DTD/svg11.dtd">
<!-- Generated by graphviz version 3.0.0 (20221109.1736)
 -->
<!-- Title: denoptim.graph.rings.PathSubGraph.getVertecesPath Pages: 1 -->
<!--zoomable 526 -->
<svg id="main" version="1.1" xmlns="http://www.w3.org/2000/svg" xmlns:xlink="http://www.w3.org/1999/xlink" xml:space="preserve" onload="init(evt)">
<style type="text/css"><![CDATA[
.edge:hover path { stroke: red; }
.edge:hover polygon { stroke: red; fill: red; }
]]></style>
<script type="text/javascript"><![CDATA[
var edges = document.getElementsByTagName('g');
if (edges && edges.length) {
  for (var i=0;i<edges.length;i++) {
    if (edges[i].id.substr(0,4)=='edge') {
      edges[i].setAttribute('class','edge');
    }
  }
}
]]></script>
        <defs>
                <circle id="rim" cx="0" cy="0" r="7"/>
                <circle id="rim2" cx="0" cy="0" r="3.5"/>
                <g id="zoomPlus">
                        <use xlink:href="#rim" fill="#404040">
                                <set attributeName="fill" to="#808080" begin="zoomplus.mouseover" end="zoomplus.mouseout"/>
                        </use>
                        <path d="M-4,0h8M0,-4v8" fill="none" stroke="white" stroke-width="1.5" pointer-events="none"/>
                </g>
                <g id="zoomMin">
                        <use xlink:href="#rim" fill="#404040">
                                <set attributeName="fill" to="#808080" begin="zoomminus.mouseover" end="zoomminus.mouseout"/>
                        </use>
                        <path d="M-4,0h8" fill="none" stroke="white" stroke-width="1.5" pointer-events="none"/>
                </g>
                <g id="dirArrow">
                        <path fill="none" stroke="white" stroke-width="1.5" d="M0,-3.0v7 M-2.5,-0.5L0,-3.0L2.5,-0.5"/>
                </g>
               <g id="resetDef">
                       <use xlink:href="#rim2" fill="#404040">
                               <set attributeName="fill" to="#808080" begin="reset.mouseover" end="reset.mouseout"/>
                       </use>
               </g>
        </defs>

<script type="text/javascript">
var viewWidth = 1755;
var viewHeight = 526;
var sectionId = 'dynsection-13';
</script>
<script xlink:href="svgpan.js"/>
<svg id="graph" class="graph">
<g id="viewport">
<title>denoptim.graph.rings.PathSubGraph.getVertecesPath</title>
<polygon fill="white" stroke="transparent" points="-4,4 -4,-522 1751,-522 1751,4 -4,4"/>
<!-- Node1 -->
<g id="node1" class="node">
<title>Node1</title>
<g id="a_node1"><a xlink:title="Returns the list of verteces involved.">
<polygon fill="#bfbfbf" stroke="black" points="1612,-348.5 1612,-378.5 1747,-378.5 1747,-348.5 1612,-348.5"/>
<text text-anchor="start" x="1620" y="-366.5" font-family="Helvetica,sans-Serif" font-size="10.00">denoptim.graph.rings.Path</text>
<text text-anchor="middle" x="1679.5" y="-355.5" font-family="Helvetica,sans-Serif" font-size="10.00">SubGraph.getVertecesPath</text>
</a>
</g>
</g>
<!-- Node2 -->
<g id="node2" class="node">
<title>Node2</title>
<g id="a_node2"><a xlink:href="classdenoptim_1_1graph_1_1_d_graph.html#a8277ba4543db54ffc23e2ef24201c318" target="_top" xlink:title="Adds a chord between the given vertices, thus adding a ring in this graph.">
<polygon fill="white" stroke="black" points="1405,-481 1405,-500 1560,-500 1560,-481 1405,-481"/>
<text text-anchor="middle" x="1482.5" y="-488" font-family="Helvetica,sans-Serif" font-size="10.00">denoptim.graph.DGraph.addRing</text>
</a>
</g>
</g>
<!-- Node1&#45;&gt;Node2 -->
<g id="edge1" class="edge">
<title>Node1&#45;&gt;Node2</title>
<path fill="none" stroke="midnightblue" d="M1662.85,-387.07C1644.93,-412.1 1613.19,-450.84 1576,-471.5 1568.98,-475.4 1561.25,-478.5 1553.36,-480.97"/>
<polygon fill="midnightblue" stroke="midnightblue" points="1665.75,-389.04 1668.6,-378.84 1660.01,-385.04 1665.75,-389.04"/>
</g>
<!-- Node3 -->
<g id="node3" class="node">
<title>Node3</title>
<g id="a_node3"><a xlink:href="classdenoptim_1_1graph_1_1rings_1_1_cyclic_graph_handler.html#a84d37f4cd922ff124f5ffdacc7baedd0" target="_top" xlink:title="Recursive method to identify all the combination of rings.">
<polygon fill="white" stroke="black" points="1389,-403 1389,-444 1576,-444 1576,-403 1389,-403"/>
<text text-anchor="start" x="1397" y="-432" font-family="Helvetica,sans-Serif" font-size="10.00">denoptim.graph.rings.Cyclic</text>
<text text-anchor="start" x="1397" y="-421" font-family="Helvetica,sans-Serif" font-size="10.00">GraphHandler.combineCompatPathSub</text>
<text text-anchor="middle" x="1482.5" y="-410" font-family="Helvetica,sans-Serif" font-size="10.00">Graphs</text>
</a>
</g>
</g>
<!-- Node1&#45;&gt;Node3 -->
<g id="edge2" class="edge">
<title>Node1&#45;&gt;Node3</title>
<path fill="none" stroke="midnightblue" d="M1619.71,-381.59C1597.79,-388.33 1572.74,-396.04 1550.16,-402.99"/>
<polygon fill="midnightblue" stroke="midnightblue" points="1621.02,-384.85 1629.54,-378.56 1618.96,-378.16 1621.02,-384.85"/>
</g>
<!-- Node18 -->
<g id="node18" class="node">
<title>Node18</title>
<g id="a_node18"><a xlink:href="classdenoptim_1_1graph_1_1rings_1_1_cyclic_graph_handler.html#a08b02946eaac7c2cbbe6e71332d702e6" target="_top" xlink:title="Identifies a random combination of ring closing paths and returns it as list of DENOPTIMRings ready t...">
<polygon fill="white" stroke="black" points="1391.5,-343 1391.5,-384 1573.5,-384 1573.5,-343 1391.5,-343"/>
<text text-anchor="start" x="1399.5" y="-372" font-family="Helvetica,sans-Serif" font-size="10.00">denoptim.graph.rings.Cyclic</text>
<text text-anchor="start" x="1399.5" y="-361" font-family="Helvetica,sans-Serif" font-size="10.00">GraphHandler.getRandomCombination</text>
<text text-anchor="middle" x="1482.5" y="-350" font-family="Helvetica,sans-Serif" font-size="10.00">OfRings</text>
</a>
</g>
</g>
<!-- Node1&#45;&gt;Node18 -->
<g id="edge22" class="edge">
<title>Node1&#45;&gt;Node18</title>
<path fill="none" stroke="midnightblue" d="M1601.65,-363.5C1592.43,-363.5 1582.95,-363.5 1573.56,-363.5"/>
<polygon fill="midnightblue" stroke="midnightblue" points="1601.94,-367 1611.94,-363.5 1601.94,-360 1601.94,-367"/>
</g>
<!-- Node19 -->
<g id="node19" class="node">
<title>Node19</title>
<g id="a_node19"><a xlink:href="classdenoptim_1_1ga_1_1_graph_operations.html#a65b1468961ba53b217848640d8fd5232" target="_top" xlink:title="Given a pair of seed vertexes that define where a pair of subgraphs stars in the corresponding origin...">
<polygon fill="white" stroke="black" points="1391.5,-294.5 1391.5,-324.5 1573.5,-324.5 1573.5,-294.5 1391.5,-294.5"/>
<text text-anchor="start" x="1399.5" y="-312.5" font-family="Helvetica,sans-Serif" font-size="10.00">denoptim.ga.GraphOperations.process</text>
<text text-anchor="middle" x="1482.5" y="-301.5" font-family="Helvetica,sans-Serif" font-size="10.00">PermutationOfEndPoints</text>
</a>
</g>
</g>
<!-- Node1&#45;&gt;Node19 -->
<g id="edge24" class="edge">
<title>Node1&#45;&gt;Node19</title>
<path fill="none" stroke="midnightblue" d="M1618.34,-345.56C1604.46,-341.51 1589.74,-337.29 1576,-333.5 1565.28,-330.54 1553.84,-327.49 1542.79,-324.59"/>
<polygon fill="midnightblue" stroke="midnightblue" points="1617.7,-349.01 1628.28,-348.47 1619.66,-342.3 1617.7,-349.01"/>
</g>
<!-- Node29 -->
<g id="node29" class="node">
<title>Node29</title>
<g id="a_node29"><a xlink:href="classdenoptim_1_1graph_1_1_d_graph.html#aefca90eb3594e935ee283f1e56fec5b4" target="_top" xlink:title="Replaced the subgraph represented by a given collection of vertices that belong to this graph.">
<polygon fill="white" stroke="black" points="1406.5,-147.5 1406.5,-177.5 1558.5,-177.5 1558.5,-147.5 1406.5,-147.5"/>
<text text-anchor="start" x="1414.5" y="-165.5" font-family="Helvetica,sans-Serif" font-size="10.00">denoptim.graph.DGraph.replace</text>
<text text-anchor="middle" x="1482.5" y="-154.5" font-family="Helvetica,sans-Serif" font-size="10.00">SingleSubGraph</text>
</a>
</g>
</g>
<!-- Node1&#45;&gt;Node29 -->
<g id="edge36" class="edge">
<title>Node1&#45;&gt;Node29</title>
<path fill="none" stroke="midnightblue" d="M1656.66,-340.99C1616.51,-299.61 1532,-212.49 1498.06,-177.51"/>
<polygon fill="midnightblue" stroke="midnightblue" points="1654.37,-343.65 1663.84,-348.39 1659.39,-338.78 1654.37,-343.65"/>
</g>
<!-- Node3&#45;&gt;Node3 -->
<g id="edge3" class="edge">
<title>Node3&#45;&gt;Node3</title>
<path fill="none" stroke="midnightblue" d="M1516.22,-454.36C1511.21,-459.2 1499.97,-462.5 1482.5,-462.5 1454.55,-462.5 1442.55,-454.04 1446.48,-444.36"/>
<polygon fill="midnightblue" stroke="midnightblue" points="1519.69,-454.9 1518.52,-444.36 1512.87,-453.32 1519.69,-454.9"/>
</g>
<!-- Node4 -->
<g id="node4" class="node">
<title>Node4</title>
<g id="a_node4"><a xlink:href="classdenoptim_1_1graph_1_1rings_1_1_cyclic_graph_handler.html#a3ce96322723f45d9285a248ebcef94d3" target="_top" xlink:title="Identifies all possible ring closing paths and returns them as list of DENOPTIMRings ready to be appe...">
<polygon fill="white" stroke="black" points="1169,-403 1169,-444 1353,-444 1353,-403 1169,-403"/>
<text text-anchor="start" x="1177" y="-432" font-family="Helvetica,sans-Serif" font-size="10.00">denoptim.graph.rings.Cyclic</text>
<text text-anchor="start" x="1177" y="-421" font-family="Helvetica,sans-Serif" font-size="10.00">GraphHandler.getPossibleCombination</text>
<text text-anchor="middle" x="1261" y="-410" font-family="Helvetica,sans-Serif" font-size="10.00">OfRings</text>
</a>
</g>
</g>
<!-- Node3&#45;&gt;Node4 -->
<g id="edge4" class="edge">
<title>Node3&#45;&gt;Node4</title>
<path fill="none" stroke="midnightblue" d="M1378.71,-423.5C1370.14,-423.5 1361.51,-423.5 1353.04,-423.5"/>
<polygon fill="midnightblue" stroke="midnightblue" points="1378.73,-427 1388.73,-423.5 1378.73,-420 1378.73,-427"/>
</g>
<!-- Node5 -->
<g id="node5" class="node">
<title>Node5</title>
<g id="a_node5"><a xlink:href="classdenoptim_1_1graph_1_1_d_graph.html#a7a4743d014e860237f4b20703ef9779b" target="_top" xlink:title="Evaluates the possibility of closing rings in this graph and generates all alternative graphs resulti...">
<polygon fill="white" stroke="black" points="965.5,-462.5 965.5,-492.5 1120.5,-492.5 1120.5,-462.5 965.5,-462.5"/>
<text text-anchor="start" x="973.5" y="-480.5" font-family="Helvetica,sans-Serif" font-size="10.00">denoptim.graph.DGraph.make</text>
<text text-anchor="middle" x="1043" y="-469.5" font-family="Helvetica,sans-Serif" font-size="10.00">AllGraphsWithDifferentRingSets</text>
</a>
</g>
</g>
<!-- Node4&#45;&gt;Node5 -->
<g id="edge5" class="edge">
<title>Node4&#45;&gt;Node5</title>
<path fill="none" stroke="midnightblue" d="M1167.9,-446.53C1146.36,-451.91 1123.95,-457.51 1104.22,-462.45"/>
<polygon fill="midnightblue" stroke="midnightblue" points="1168.87,-449.89 1177.72,-444.07 1167.17,-443.1 1168.87,-449.89"/>
</g>
<!-- Node7 -->
<g id="node7" class="node">
<title>Node7</title>
<g id="a_node7"><a xlink:href="classdenoptim_1_1ga_1_1_e_a_utils.html#a1ddb932d4618434d435e4f85ce5e5eb5" target="_top" xlink:title="Evaluates the possibility of closing rings in a given graph and if any ring can be closed,...">
<polygon fill="white" stroke="black" points="977.5,-389.5 977.5,-419.5 1108.5,-419.5 1108.5,-389.5 977.5,-389.5"/>
<text text-anchor="start" x="985.5" y="-407.5" font-family="Helvetica,sans-Serif" font-size="10.00">denoptim.ga.EAUtils.setup</text>
<text text-anchor="middle" x="1043" y="-396.5" font-family="Helvetica,sans-Serif" font-size="10.00">Rings</text>
</a>
</g>
</g>
<!-- Node4&#45;&gt;Node7 -->
<g id="edge7" class="edge">
<title>Node4&#45;&gt;Node7</title>
<path fill="none" stroke="midnightblue" d="M1158.74,-414.59C1141.74,-413.1 1124.52,-411.58 1108.77,-410.2"/>
<polygon fill="midnightblue" stroke="midnightblue" points="1158.44,-418.08 1168.71,-415.47 1159.05,-411.11 1158.44,-418.08"/>
</g>
<!-- Node6 -->
<g id="node6" class="node">
<title>Node6</title>
<g id="a_node6"><a xlink:href="classdenoptim_1_1combinatorial_1_1_graph_building_task.html#a3eaee724fc921194fa158714aafe182d" target="_top" xlink:title="Calls the task.">
<polygon fill="white" stroke="black" points="750,-487.5 750,-517.5 895,-517.5 895,-487.5 750,-487.5"/>
<text text-anchor="start" x="758" y="-505.5" font-family="Helvetica,sans-Serif" font-size="10.00">denoptim.combinatorial.Graph</text>
<text text-anchor="middle" x="822.5" y="-494.5" font-family="Helvetica,sans-Serif" font-size="10.00">BuildingTask.call</text>
</a>
</g>
</g>
<!-- Node5&#45;&gt;Node6 -->
<g id="edge6" class="edge">
<title>Node5&#45;&gt;Node6</title>
<path fill="none" stroke="midnightblue" d="M955.29,-487.42C935.4,-489.7 914.46,-492.09 895.28,-494.29"/>
<polygon fill="midnightblue" stroke="midnightblue" points="955.74,-490.89 965.27,-486.28 954.94,-483.94 955.74,-490.89"/>
</g>
<!-- Node8 -->
<g id="node8" class="node">
<title>Node8</title>
<g id="a_node8"><a xlink:href="classdenoptim_1_1ga_1_1_e_a_utils.html#a8122818f58919fce84dce75e7506025a" target="_top" xlink:title=" ">
<polygon fill="white" stroke="black" points="759,-438.5 759,-468.5 886,-468.5 886,-438.5 759,-438.5"/>
<text text-anchor="start" x="767" y="-456.5" font-family="Helvetica,sans-Serif" font-size="10.00">denoptim.ga.EAUtils.build</text>
<text text-anchor="middle" x="822.5" y="-445.5" font-family="Helvetica,sans-Serif" font-size="10.00">CandidateByMutation</text>
</a>
</g>
</g>
<!-- Node7&#45;&gt;Node8 -->
<g id="edge8" class="edge">
<title>Node7&#45;&gt;Node8</title>
<path fill="none" stroke="midnightblue" d="M967.36,-421.24C940.92,-427.17 911.46,-433.77 886.13,-439.46"/>
<polygon fill="midnightblue" stroke="midnightblue" points="968.34,-424.61 977.33,-419 966.81,-417.78 968.34,-424.61"/>
</g>
<!-- Node15 -->
<g id="node15" class="node">
<title>Node15</title>
<g id="a_node15"><a xlink:href="classdenoptim_1_1ga_1_1_e_a_utils.html#ad3d2daeb11e68a356e971ca1846596b5" target="_top" xlink:title=" ">
<polygon fill="white" stroke="black" points="759,-389.5 759,-419.5 886,-419.5 886,-389.5 759,-389.5"/>
<text text-anchor="start" x="767" y="-407.5" font-family="Helvetica,sans-Serif" font-size="10.00">denoptim.ga.EAUtils.build</text>
<text text-anchor="middle" x="822.5" y="-396.5" font-family="Helvetica,sans-Serif" font-size="10.00">CandidateFromScratch</text>
</a>
</g>
</g>
<!-- Node7&#45;&gt;Node15 -->
<g id="edge16" class="edge">
<title>Node7&#45;&gt;Node15</title>
<path fill="none" stroke="midnightblue" d="M967.01,-404.5C940.66,-404.5 911.35,-404.5 886.13,-404.5"/>
<polygon fill="midnightblue" stroke="midnightblue" points="967.33,-408 977.33,-404.5 967.33,-401 967.33,-408"/>
</g>
<!-- Node17 -->
<g id="node17" class="node">
<title>Node17</title>
<g id="a_node17"><a xlink:href="classdenoptim_1_1ga_1_1_e_a_utils.html#a0b958439d79fae30f14530213ad22e3a" target="_top" xlink:title="Generates up to a pair of new offspring by performing a crossover operation.">
<polygon fill="white" stroke="black" points="356.5,-307.5 356.5,-337.5 483.5,-337.5 483.5,-307.5 356.5,-307.5"/>
<text text-anchor="start" x="364.5" y="-325.5" font-family="Helvetica,sans-Serif" font-size="10.00">denoptim.ga.EAUtils.build</text>
<text text-anchor="middle" x="420" y="-314.5" font-family="Helvetica,sans-Serif" font-size="10.00">CandidatesByXOver</text>
</a>
</g>
</g>
<!-- Node7&#45;&gt;Node17 -->
<g id="edge21" class="edge">
<title>Node7&#45;&gt;Node17</title>
<path fill="none" stroke="midnightblue" d="M967.21,-388.27C950.73,-385.05 933.32,-381.92 917,-379.5 744.29,-353.9 698.94,-365.51 526,-341.5 512.24,-339.59 497.53,-337.17 483.61,-334.7"/>
<polygon fill="midnightblue" stroke="midnightblue" points="966.85,-391.76 977.34,-390.28 968.21,-384.9 966.85,-391.76"/>
</g>
<!-- Node9 -->
<g id="node9" class="node">
<title>Node9</title>
<g id="a_node9"><a xlink:href="classdenoptim_1_1ga_1_1_evolutionary_algorithm.html#a0c2e353b243250b4959a3f86608f1020" target="_top" xlink:title="Generates one offspring according to the method where crossover and mutation are decoupled,...">
<polygon fill="white" stroke="black" points="544,-476.5 544,-506.5 674,-506.5 674,-476.5 544,-476.5"/>
<text text-anchor="start" x="552" y="-494.5" font-family="Helvetica,sans-Serif" font-size="10.00">denoptim.ga.Evolutionary</text>
<text text-anchor="middle" x="609" y="-483.5" font-family="Helvetica,sans-Serif" font-size="10.00">Algorithm.makeOffspringA</text>
</a>
</g>
</g>
<!-- Node8&#45;&gt;Node9 -->
<g id="edge9" class="edge">
<title>Node8&#45;&gt;Node9</title>
<path fill="none" stroke="midnightblue" d="M749.03,-466.52C724.76,-470.88 697.88,-475.71 674.27,-479.95"/>
<polygon fill="midnightblue" stroke="midnightblue" points="749.68,-469.96 758.9,-464.75 748.44,-463.07 749.68,-469.96"/>
</g>
<!-- Node14 -->
<g id="node14" class="node">
<title>Node14</title>
<g id="a_node14"><a xlink:href="classdenoptim_1_1ga_1_1_evolutionary_algorithm.html#ae7a90a911b109ed47b3acf54193acc35" target="_top" xlink:title="Generates one offspring according to the method where crossover and mutation are coupled,...">
<polygon fill="white" stroke="black" points="544,-427.5 544,-457.5 674,-457.5 674,-427.5 544,-427.5"/>
<text text-anchor="start" x="552" y="-445.5" font-family="Helvetica,sans-Serif" font-size="10.00">denoptim.ga.Evolutionary</text>
<text text-anchor="middle" x="609" y="-434.5" font-family="Helvetica,sans-Serif" font-size="10.00">Algorithm.makeOffspringB</text>
</a>
</g>
</g>
<!-- Node8&#45;&gt;Node14 -->
<g id="edge14" class="edge">
<title>Node8&#45;&gt;Node14</title>
<path fill="none" stroke="midnightblue" d="M748.71,-449.71C724.52,-448.46 697.77,-447.06 674.27,-445.84"/>
<polygon fill="midnightblue" stroke="midnightblue" points="748.73,-453.22 758.9,-450.24 749.1,-446.23 748.73,-453.22"/>
</g>
<!-- Node10 -->
<g id="node10" class="node">
<title>Node10</title>
<g id="a_node10"><a xlink:href="classdenoptim_1_1ga_1_1_evolutionary_algorithm.html#a596b2f5f0b097c5b67a6e5163bd6fe66" target="_top" xlink:title="Generates a given number of new candidate items and adds them to the current population.">
<polygon fill="white" stroke="black" points="353,-432.5 353,-462.5 487,-462.5 487,-432.5 353,-432.5"/>
<text text-anchor="start" x="361" y="-450.5" font-family="Helvetica,sans-Serif" font-size="10.00">denoptim.ga.Evolutionary</text>
<text text-anchor="middle" x="420" y="-439.5" font-family="Helvetica,sans-Serif" font-size="10.00">Algorithm.evolvePopulation</text>
</a>
</g>
</g>
<!-- Node9&#45;&gt;Node10 -->
<g id="edge10" class="edge">
<title>Node9&#45;&gt;Node10</title>
<path fill="none" stroke="midnightblue" d="M534.15,-474.12C517.85,-470.29 500.72,-466.26 484.86,-462.53"/>
<polygon fill="midnightblue" stroke="midnightblue" points="533.63,-477.6 544.17,-476.48 535.24,-470.78 533.63,-477.6"/>
</g>
<!-- Node11 -->
<g id="node11" class="node">
<title>Node11</title>
<g id="a_node11"><a xlink:href="classdenoptim_1_1ga_1_1_evolutionary_algorithm.html#a6bfc2fa59b199da6259b5b6bad3d6de7" target="_top" xlink:title=" ">
<polygon fill="white" stroke="black" points="190,-407.5 190,-437.5 314,-437.5 314,-407.5 190,-407.5"/>
<text text-anchor="start" x="198" y="-425.5" font-family="Helvetica,sans-Serif" font-size="10.00">denoptim.ga.Evolutionary</text>
<text text-anchor="middle" x="252" y="-414.5" font-family="Helvetica,sans-Serif" font-size="10.00">Algorithm.run</text>
</a>
</g>
</g>
<!-- Node10&#45;&gt;Node11 -->
<g id="edge11" class="edge">
<title>Node10&#45;&gt;Node11</title>
<path fill="none" stroke="midnightblue" d="M342.9,-436.04C333.21,-434.58 323.41,-433.1 314.01,-431.69"/>
<polygon fill="midnightblue" stroke="midnightblue" points="342.51,-439.52 352.92,-437.55 343.55,-432.6 342.51,-439.52"/>
</g>
<!-- Node12 -->
<g id="node12" class="node">
<title>Node12</title>
<g id="a_node12"><a xlink:href="classdenoptim_1_1ga_1_1_evolutionary_algorithm.html#a0f2063b722b7291daf83d62acaa683d3" target="_top" xlink:title=" ">
<polygon fill="white" stroke="black" points="0,-432.5 0,-462.5 154,-462.5 154,-432.5 0,-432.5"/>
<text text-anchor="start" x="8" y="-450.5" font-family="Helvetica,sans-Serif" font-size="10.00">denoptim.ga.Evolutionary</text>
<text text-anchor="middle" x="77" y="-439.5" font-family="Helvetica,sans-Serif" font-size="10.00">Algorithm.EvolutionaryAlgorithm</text>
</a>
</g>
</g>
<!-- Node11&#45;&gt;Node12 -->
<g id="edge12" class="edge">
<title>Node11&#45;&gt;Node12</title>
<path fill="none" stroke="midnightblue" d="M179.44,-432.84C171.09,-434.05 162.54,-435.28 154.12,-436.5"/>
<polygon fill="midnightblue" stroke="midnightblue" points="180.12,-436.28 189.52,-431.38 179.12,-429.35 180.12,-436.28"/>
</g>
<!-- Node13 -->
<g id="node13" class="node">
<title>Node13</title>
<g id="a_node13"><a xlink:href="classdenoptim_1_1programs_1_1denovo_1_1_g_a_runner.html#a7cafd6d78727b89dce3e2c8d06f0dd7c" target="_top" xlink:title=" ">
<polygon fill="white" stroke="black" points="9.5,-383.5 9.5,-413.5 144.5,-413.5 144.5,-383.5 9.5,-383.5"/>
<text text-anchor="start" x="17.5" y="-401.5" font-family="Helvetica,sans-Serif" font-size="10.00">denoptim.programs.denovo.</text>
<text text-anchor="middle" x="77" y="-390.5" font-family="Helvetica,sans-Serif" font-size="10.00">GARunner.runProgram</text>
</a>
</g>
</g>
<!-- Node11&#45;&gt;Node13 -->
<g id="edge13" class="edge">
<title>Node11&#45;&gt;Node13</title>
<path fill="none" stroke="midnightblue" d="M179.48,-412.58C167.92,-410.97 156,-409.32 144.57,-407.73"/>
<polygon fill="midnightblue" stroke="midnightblue" points="179.13,-416.06 189.52,-413.97 180.1,-409.13 179.13,-416.06"/>
</g>
<!-- Node14&#45;&gt;Node10 -->
<g id="edge15" class="edge">
<title>Node14&#45;&gt;Node10</title>
<path fill="none" stroke="midnightblue" d="M533.9,-444.48C518.49,-444.89 502.34,-445.33 487.24,-445.73"/>
<polygon fill="midnightblue" stroke="midnightblue" points="534,-447.98 543.91,-444.21 533.82,-440.98 534,-447.98"/>
</g>
<!-- Node15&#45;&gt;Node9 -->
<g id="edge19" class="edge">
<title>Node15&#45;&gt;Node9</title>
<path fill="none" stroke="midnightblue" d="M748.75,-418.8C741.5,-421.5 734.45,-424.7 728,-428.5 707.95,-440.3 711.78,-454.26 692,-466.5 685.8,-470.34 678.97,-473.62 671.97,-476.42"/>
<polygon fill="midnightblue" stroke="midnightblue" points="750.36,-421.95 758.7,-415.42 748.11,-415.32 750.36,-421.95"/>
</g>
<!-- Node15&#45;&gt;Node14 -->
<g id="edge20" class="edge">
<title>Node15&#45;&gt;Node14</title>
<path fill="none" stroke="midnightblue" d="M749.03,-417.52C724.76,-421.88 697.88,-426.71 674.27,-430.95"/>
<polygon fill="midnightblue" stroke="midnightblue" points="749.68,-420.96 758.9,-415.75 748.44,-414.07 749.68,-420.96"/>
</g>
<!-- Node16 -->
<g id="node16" class="node">
<title>Node16</title>
<g id="a_node16"><a xlink:href="classdenoptim_1_1ga_1_1_evolutionary_algorithm.html#ad43588620dab3340e0d8b0042ec73618" target="_top" xlink:title="Fills up the population with candidates build from scratch.">
<polygon fill="white" stroke="black" points="350,-383.5 350,-413.5 490,-413.5 490,-383.5 350,-383.5"/>
<text text-anchor="start" x="358" y="-401.5" font-family="Helvetica,sans-Serif" font-size="10.00">denoptim.ga.Evolutionary</text>
<text text-anchor="middle" x="420" y="-390.5" font-family="Helvetica,sans-Serif" font-size="10.00">Algorithm.initializePopulation</text>
</a>
</g>
</g>
<!-- Node15&#45;&gt;Node16 -->
<g id="edge17" class="edge">
<title>Node15&#45;&gt;Node16</title>
<path fill="none" stroke="midnightblue" d="M748.82,-403.41C675.29,-402.31 562.44,-400.62 490.19,-399.54"/>
<polygon fill="midnightblue" stroke="midnightblue" points="748.87,-406.91 758.92,-403.56 748.98,-399.91 748.87,-406.91"/>
</g>
<!-- Node16&#45;&gt;Node11 -->
<g id="edge18" class="edge">
<title>Node16&#45;&gt;Node11</title>
<path fill="none" stroke="midnightblue" d="M339.6,-409.98C331.08,-411.21 322.5,-412.45 314.24,-413.65"/>
<polygon fill="midnightblue" stroke="midnightblue" points="340.17,-413.43 349.56,-408.54 339.16,-406.51 340.17,-413.43"/>
</g>
<!-- Node18&#45;&gt;Node7 -->
<g id="edge23" class="edge">
<title>Node18&#45;&gt;Node7</title>
<path fill="none" stroke="midnightblue" d="M1381.34,-372.89C1297.63,-380.73 1180.7,-391.69 1108.8,-398.43"/>
<polygon fill="midnightblue" stroke="midnightblue" points="1381.75,-376.36 1391.38,-371.95 1381.1,-369.39 1381.75,-376.36"/>
</g>
<!-- Node20 -->
<g id="node20" class="node">
<title>Node20</title>
<g id="a_node20"><a xlink:href="classdenoptim_1_1ga_1_1_graph_operations.html#a5d90c6e2fa30f287f8f69ed3367ccd0e" target="_top" xlink:title="Given a pair of seed vertexes that define where a pair of subgraphs stars in the corresponding origin...">
<polygon fill="white" stroke="black" points="1170,-294.5 1170,-324.5 1352,-324.5 1352,-294.5 1170,-294.5"/>
<text text-anchor="start" x="1178" y="-312.5" font-family="Helvetica,sans-Serif" font-size="10.00">denoptim.ga.GraphOperations.process</text>
<text text-anchor="middle" x="1261" y="-301.5" font-family="Helvetica,sans-Serif" font-size="10.00">CombinationOfEndPoints</text>
</a>
</g>
</g>
<!-- Node19&#45;&gt;Node20 -->
<g id="edge25" class="edge">
<title>Node19&#45;&gt;Node20</title>
<path fill="none" stroke="midnightblue" d="M1381.24,-309.5C1371.57,-309.5 1361.8,-309.5 1352.23,-309.5"/>
<polygon fill="midnightblue" stroke="midnightblue" points="1381.27,-313 1391.27,-309.5 1381.27,-306 1381.27,-313"/>
</g>
<!-- Node21 -->
<g id="node21" class="node">
<title>Node21</title>
<g id="a_node21"><a xlink:href="classdenoptim_1_1ga_1_1_graph_operations.html#a2396c23acf24d07f255b94eb3a2105b7" target="_top" xlink:title="Identify crossover sites, i.e., subgraphs that can be swapped between two graphs (i....">
<polygon fill="white" stroke="black" points="956.5,-239.5 956.5,-269.5 1129.5,-269.5 1129.5,-239.5 956.5,-239.5"/>
<text text-anchor="start" x="964.5" y="-257.5" font-family="Helvetica,sans-Serif" font-size="10.00">denoptim.ga.GraphOperations.locate</text>
<text text-anchor="middle" x="1043" y="-246.5" font-family="Helvetica,sans-Serif" font-size="10.00">CompatibleXOverPoints</text>
</a>
</g>
</g>
<!-- Node20&#45;&gt;Node21 -->
<g id="edge26" class="edge">
<title>Node20&#45;&gt;Node21</title>
<path fill="none" stroke="midnightblue" d="M1191.13,-291.96C1162.75,-284.74 1130.21,-276.45 1102.95,-269.51"/>
<polygon fill="midnightblue" stroke="midnightblue" points="1190.42,-295.4 1200.98,-294.47 1192.15,-288.61 1190.42,-295.4"/>
</g>
<!-- Node21&#45;&gt;Node21 -->
<g id="edge32" class="edge">
<title>Node21&#45;&gt;Node21</title>
<path fill="none" stroke="midnightblue" d="M1081.74,-279.96C1076.93,-284.68 1064.02,-288 1043,-288 1008.51,-288 995.85,-279.06 1005.01,-269.66"/>
<polygon fill="midnightblue" stroke="midnightblue" points="1085.2,-279.38 1080.99,-269.66 1078.22,-279.89 1085.2,-279.38"/>
</g>
<!-- Node22 -->
<g id="node22" class="node">
<title>Node22</title>
<g id="a_node22"><a xlink:href="classdenoptim_1_1ga_1_1_population.html#a31b74cc5407c42fa3a4214029fb08190" target="_top" xlink:title="Returns a list of population members that can do crossover with the specified member.">
<polygon fill="white" stroke="black" points="756,-263.5 756,-293.5 889,-293.5 889,-263.5 756,-263.5"/>
<text text-anchor="start" x="764" y="-281.5" font-family="Helvetica,sans-Serif" font-size="10.00">denoptim.ga.Population.get</text>
<text text-anchor="middle" x="822.5" y="-270.5" font-family="Helvetica,sans-Serif" font-size="10.00">XoverPartners</text>
</a>
</g>
</g>
<!-- Node21&#45;&gt;Node22 -->
<g id="edge27" class="edge">
<title>Node21&#45;&gt;Node22</title>
<path fill="none" stroke="midnightblue" d="M946.24,-265.02C926.92,-267.14 907.04,-269.32 889.05,-271.3"/>
<polygon fill="midnightblue" stroke="midnightblue" points="946.71,-268.49 956.27,-263.92 945.95,-261.53 946.71,-268.49"/>
</g>
<!-- Node26 -->
<g id="node26" class="node">
<title>Node26</title>
<g id="a_node26"><a xlink:href="classdenoptim_1_1programs_1_1genetweeker_1_1_gene_ops_runner.html#ab0f92a94c4fb2334e7d3813e73fc4247" target="_top" xlink:title=" ">
<polygon fill="white" stroke="black" points="743,-165.5 743,-195.5 902,-195.5 902,-165.5 743,-165.5"/>
<text text-anchor="start" x="751" y="-183.5" font-family="Helvetica,sans-Serif" font-size="10.00">denoptim.programs.genetweeker.</text>
<text text-anchor="middle" x="822.5" y="-172.5" font-family="Helvetica,sans-Serif" font-size="10.00">GeneOpsRunner.runXOver</text>
</a>
</g>
</g>
<!-- Node21&#45;&gt;Node26 -->
<g id="edge33" class="edge">
<title>Node21&#45;&gt;Node26</title>
<path fill="none" stroke="midnightblue" d="M998.5,-235.49C974.7,-225.5 944.53,-213.5 917,-204.5 907.28,-201.32 896.89,-198.3 886.69,-195.53"/>
<polygon fill="midnightblue" stroke="midnightblue" points="997.38,-238.82 1007.95,-239.49 1000.11,-232.37 997.38,-238.82"/>
</g>
<!-- Node28 -->
<g id="node28" class="node">
<title>Node28</title>
<g id="a_node28"><a xlink:href="classdenoptim_1_1ga_1_1_graph_operations_test.html#a9fcf8fffef10a59df722c92e94da2815" target="_top" xlink:title=" ">
<polygon fill="white" stroke="black" points="728,-214.5 728,-244.5 917,-244.5 917,-214.5 728,-214.5"/>
<text text-anchor="start" x="736" y="-232.5" font-family="Helvetica,sans-Serif" font-size="10.00">denoptim.ga.GraphOperations</text>
<text text-anchor="middle" x="822.5" y="-221.5" font-family="Helvetica,sans-Serif" font-size="10.00">Test.testLocateCompatibleXOverPoints</text>
</a>
</g>
</g>
<!-- Node21&#45;&gt;Node28 -->
<g id="edge35" class="edge">
<title>Node21&#45;&gt;Node28</title>
<path fill="none" stroke="midnightblue" d="M946.3,-243.55C936.67,-242.45 926.89,-241.33 917.28,-240.23"/>
<polygon fill="midnightblue" stroke="midnightblue" points="945.94,-247.03 956.27,-244.69 946.73,-240.08 945.94,-247.03"/>
</g>
<!-- Node23 -->
<g id="node23" class="node">
<title>Node23</title>
<g id="a_node23"><a xlink:href="classdenoptim_1_1ga_1_1_e_a_utils.html#a45d4e9ec6a308aa73891efa1d501dd5e" target="_top" xlink:title="Perform fitness&#45;based, class&#45;compatible selection of parents that can do crossover operations.">
<polygon fill="white" stroke="black" points="526,-313 526,-332 692,-332 692,-313 526,-313"/>
<text text-anchor="middle" x="609" y="-320" font-family="Helvetica,sans-Serif" font-size="10.00">denoptim.ga.EAUtils.performFBCC</text>
</a>
</g>
</g>
<!-- Node22&#45;&gt;Node23 -->
<g id="edge28" class="edge">
<title>Node22&#45;&gt;Node23</title>
<path fill="none" stroke="midnightblue" d="M745.71,-294.27C715.69,-300.51 682.16,-307.49 655.94,-312.94"/>
<polygon fill="midnightblue" stroke="midnightblue" points="746.66,-297.64 755.74,-292.18 745.24,-290.79 746.66,-297.64"/>
</g>
<!-- Node24 -->
<g id="node24" class="node">
<title>Node24</title>
<g id="a_node24"><a xlink:href="classdenoptim_1_1ga_1_1_population_test.html#a5db0672054a9fc1dbc923310732fdb3a" target="_top" xlink:title=" ">
<polygon fill="white" stroke="black" points="531.5,-263.5 531.5,-293.5 686.5,-293.5 686.5,-263.5 531.5,-263.5"/>
<text text-anchor="start" x="539.5" y="-281.5" font-family="Helvetica,sans-Serif" font-size="10.00">denoptim.ga.PopulationTest.test</text>
<text text-anchor="middle" x="609" y="-270.5" font-family="Helvetica,sans-Serif" font-size="10.00">Clone</text>
</a>
</g>
</g>
<!-- Node22&#45;&gt;Node24 -->
<g id="edge30" class="edge">
<title>Node22&#45;&gt;Node24</title>
<path fill="none" stroke="midnightblue" d="M745.59,-278.5C726.49,-278.5 705.98,-278.5 686.83,-278.5"/>
<polygon fill="midnightblue" stroke="midnightblue" points="745.74,-282 755.74,-278.5 745.74,-275 745.74,-282"/>
</g>
<!-- Node25 -->
<g id="node25" class="node">
<title>Node25</title>
<g id="a_node25"><a xlink:href="classdenoptim_1_1ga_1_1_population_test.html#a278212ebff2501b7071d342f9a027599" target="_top" xlink:title=" ">
<polygon fill="white" stroke="black" points="531.5,-214.5 531.5,-244.5 686.5,-244.5 686.5,-214.5 531.5,-214.5"/>
<text text-anchor="start" x="539.5" y="-232.5" font-family="Helvetica,sans-Serif" font-size="10.00">denoptim.ga.PopulationTest.test</text>
<text text-anchor="middle" x="609" y="-221.5" font-family="Helvetica,sans-Serif" font-size="10.00">XOverCompatibility</text>
</a>
</g>
</g>
<!-- Node22&#45;&gt;Node25 -->
<g id="edge31" class="edge">
<title>Node22&#45;&gt;Node25</title>
<path fill="none" stroke="midnightblue" d="M746.69,-261.17C723.21,-255.73 697.5,-249.77 674.77,-244.51"/>
<polygon fill="midnightblue" stroke="midnightblue" points="746.07,-264.62 756.61,-263.47 747.65,-257.8 746.07,-264.62"/>
</g>
<!-- Node23&#45;&gt;Node17 -->
<g id="edge29" class="edge">
<title>Node23&#45;&gt;Node17</title>
<path fill="none" stroke="midnightblue" d="M515.93,-322.5C504.96,-322.5 493.97,-322.5 483.56,-322.5"/>
<polygon fill="midnightblue" stroke="midnightblue" points="515.98,-326 525.98,-322.5 515.98,-319 515.98,-326"/>
</g>
<!-- Node27 -->
<g id="node27" class="node">
<title>Node27</title>
<g id="a_node27"><a xlink:href="classdenoptim_1_1programs_1_1genetweeker_1_1_gene_ops_runner.html#a3c2407eb1204a7b25600d3d347d98447" target="_top" xlink:title=" ">
<polygon fill="white" stroke="black" points="529.5,-165.5 529.5,-195.5 688.5,-195.5 688.5,-165.5 529.5,-165.5"/>
<text text-anchor="start" x="537.5" y="-183.5" font-family="Helvetica,sans-Serif" font-size="10.00">denoptim.programs.genetweeker.</text>
<text text-anchor="middle" x="609" y="-172.5" font-family="Helvetica,sans-Serif" font-size="10.00">GeneOpsRunner.runProgram</text>
</a>
</g>
</g>
<!-- Node26&#45;&gt;Node27 -->
<g id="edge34" class="edge">
<title>Node26&#45;&gt;Node27</title>
<path fill="none" stroke="midnightblue" d="M732.74,-180.5C718.16,-180.5 703.14,-180.5 688.82,-180.5"/>
<polygon fill="midnightblue" stroke="midnightblue" points="732.75,-184 742.75,-180.5 732.75,-177 732.75,-184"/>
</g>
<!-- Node30 -->
<g id="node30" class="node">
<title>Node30</title>
<g id="a_node30"><a xlink:href="classdenoptim_1_1graph_1_1_d_graph.html#a4df69c91a742d22f8d14d44489aeac15" target="_top" xlink:title="Edit this graph according to a given list of edit tasks.">
<polygon fill="white" stroke="black" points="1193,-49.5 1193,-79.5 1329,-79.5 1329,-49.5 1193,-49.5"/>
<text text-anchor="start" x="1201" y="-67.5" font-family="Helvetica,sans-Serif" font-size="10.00">denoptim.graph.DGraph.edit</text>
<text text-anchor="middle" x="1261" y="-56.5" font-family="Helvetica,sans-Serif" font-size="10.00">Graph</text>
</a>
</g>
</g>
<!-- Node29&#45;&gt;Node30 -->
<g id="edge37" class="edge">
<title>Node29&#45;&gt;Node30</title>
<path fill="none" stroke="midnightblue" d="M1450.79,-141.71C1425.48,-125.34 1388.14,-102.95 1353,-88.5 1344.99,-85.21 1336.4,-82.25 1327.81,-79.63"/>
<polygon fill="midnightblue" stroke="midnightblue" points="1448.94,-144.67 1459.22,-147.22 1452.77,-138.82 1448.94,-144.67"/>
</g>
<!-- Node32 -->
<g id="node32" class="node">
<title>Node32</title>
<g id="a_node32"><a xlink:href="classdenoptim_1_1graph_1_1_d_graph.html#a86e888ef245d2bd40b49d145c7ef3af0" target="_top" xlink:title="Replaced the subgraph represented by a given collection of vertices that belong to this graph.">
<polygon fill="white" stroke="black" points="1185,-98.5 1185,-128.5 1337,-128.5 1337,-98.5 1185,-98.5"/>
<text text-anchor="start" x="1193" y="-116.5" font-family="Helvetica,sans-Serif" font-size="10.00">denoptim.graph.DGraph.replace</text>
<text text-anchor="middle" x="1261" y="-105.5" font-family="Helvetica,sans-Serif" font-size="10.00">SubGraph</text>
</a>
</g>
</g>
<!-- Node29&#45;&gt;Node32 -->
<g id="edge39" class="edge">
<title>Node29&#45;&gt;Node32</title>
<path fill="none" stroke="midnightblue" d="M1404.19,-145.24C1379.73,-139.78 1352.91,-133.79 1329.22,-128.51"/>
<polygon fill="midnightblue" stroke="midnightblue" points="1403.63,-148.7 1414.15,-147.47 1405.15,-141.87 1403.63,-148.7"/>
</g>
<!-- Node35 -->
<g id="node35" class="node">
<title>Node35</title>
<g id="a_node35"><a xlink:href="classdenoptim_1_1graph_1_1_d_graph.html#adc362402e41af41656e820def73de5ad" target="_top" xlink:title="Replaced a given vertex belonging to this graph with a new vertex generated specifically for this pur...">
<polygon fill="white" stroke="black" points="1185,-0.5 1185,-30.5 1337,-30.5 1337,-0.5 1185,-0.5"/>
<text text-anchor="start" x="1193" y="-18.5" font-family="Helvetica,sans-Serif" font-size="10.00">denoptim.graph.DGraph.replace</text>
<text text-anchor="middle" x="1261" y="-7.5" font-family="Helvetica,sans-Serif" font-size="10.00">Vertex</text>
</a>
</g>
</g>
<!-- Node29&#45;&gt;Node35 -->
<g id="edge44" class="edge">
<title>Node29&#45;&gt;Node35</title>
<path fill="none" stroke="midnightblue" d="M1463.76,-139.5C1441.07,-111.67 1399.15,-65.35 1353,-39.5 1346.87,-36.07 1340.23,-33.11 1333.43,-30.56"/>
<polygon fill="midnightblue" stroke="midnightblue" points="1461.18,-141.88 1470.17,-147.5 1466.64,-137.5 1461.18,-141.88"/>
</g>
<!-- Node36 -->
<g id="node36" class="node">
<title>Node36</title>
<g id="a_node36"><a xlink:href="classdenoptim_1_1graph_1_1_d_graph_test.html#aea227d615f6c2f3bac5839a8099a900d" target="_top" xlink:title=" ">
<polygon fill="white" stroke="black" points="1183,-245.5 1183,-275.5 1339,-275.5 1339,-245.5 1183,-245.5"/>
<text text-anchor="start" x="1191" y="-263.5" font-family="Helvetica,sans-Serif" font-size="10.00">denoptim.graph.DGraphTest.test</text>
<text text-anchor="middle" x="1261" y="-252.5" font-family="Helvetica,sans-Serif" font-size="10.00">IsIsostructuralTo</text>
</a>
</g>
</g>
<!-- Node29&#45;&gt;Node36 -->
<g id="edge45" class="edge">
<title>Node29&#45;&gt;Node36</title>
<path fill="none" stroke="midnightblue" d="M1450.25,-183.19C1424.9,-199.24 1387.78,-221.11 1353,-235.5 1344.07,-239.2 1334.42,-242.52 1324.86,-245.44"/>
<polygon fill="midnightblue" stroke="midnightblue" points="1452.17,-186.11 1458.71,-177.77 1448.4,-180.22 1452.17,-186.11"/>
</g>
<!-- Node37 -->
<g id="node37" class="node">
<title>Node37</title>
<g id="a_node37"><a xlink:href="classdenoptim_1_1graph_1_1_d_graph_test.html#a83a9624ea5dc6a2c515407b865b62611" target="_top" xlink:title=" ">
<polygon fill="white" stroke="black" points="1183,-196.5 1183,-226.5 1339,-226.5 1339,-196.5 1183,-196.5"/>
<text text-anchor="start" x="1191" y="-214.5" font-family="Helvetica,sans-Serif" font-size="10.00">denoptim.graph.DGraphTest.test</text>
<text text-anchor="middle" x="1261" y="-203.5" font-family="Helvetica,sans-Serif" font-size="10.00">ReplaceSubGraph</text>
</a>
</g>
</g>
<!-- Node29&#45;&gt;Node37 -->
<g id="edge46" class="edge">
<title>Node29&#45;&gt;Node37</title>
<path fill="none" stroke="midnightblue" d="M1404.19,-179.76C1379.73,-185.22 1352.91,-191.21 1329.22,-196.49"/>
<polygon fill="midnightblue" stroke="midnightblue" points="1405.15,-183.13 1414.15,-177.53 1403.63,-176.3 1405.15,-183.13"/>
</g>
<!-- Node38 -->
<g id="node38" class="node">
<title>Node38</title>
<g id="a_node38"><a xlink:href="classdenoptim_1_1graph_1_1_d_graph_test.html#a0c949ec1131a872dea53524614b3b42a" target="_top" xlink:title=" ">
<polygon fill="white" stroke="black" points="1183,-147.5 1183,-177.5 1339,-177.5 1339,-147.5 1183,-147.5"/>
<text text-anchor="start" x="1191" y="-165.5" font-family="Helvetica,sans-Serif" font-size="10.00">denoptim.graph.DGraphTest.test</text>
<text text-anchor="middle" x="1261" y="-154.5" font-family="Helvetica,sans-Serif" font-size="10.00">ReplaceSubGraph_inTemplate</text>
</a>
</g>
</g>
<!-- Node29&#45;&gt;Node38 -->
<g id="edge47" class="edge">
<title>Node29&#45;&gt;Node38</title>
<path fill="none" stroke="midnightblue" d="M1396.01,-162.5C1377.35,-162.5 1357.7,-162.5 1339.37,-162.5"/>
<polygon fill="midnightblue" stroke="midnightblue" points="1396.27,-166 1406.27,-162.5 1396.27,-159 1396.27,-166"/>
</g>
<!-- Node31 -->
<g id="node31" class="node">
<title>Node31</title>
<g id="a_node31"><a xlink:href="classdenoptim_1_1programs_1_1grapheditor_1_1_graph_editor.html#a649a62e3d4635ef4c19424fa49e6dcd4" target="_top" xlink:title=" ">
<polygon fill="white" stroke="black" points="967,-49.5 967,-79.5 1119,-79.5 1119,-49.5 967,-49.5"/>
<text text-anchor="start" x="975" y="-67.5" font-family="Helvetica,sans-Serif" font-size="10.00">denoptim.programs.grapheditor.</text>
<text text-anchor="middle" x="1043" y="-56.5" font-family="Helvetica,sans-Serif" font-size="10.00">GraphEditor.runProgram</text>
</a>
</g>
</g>
<!-- Node30&#45;&gt;Node31 -->
<g id="edge38" class="edge">
<title>Node30&#45;&gt;Node31</title>
<path fill="none" stroke="midnightblue" d="M1182.8,-64.5C1162.05,-64.5 1139.65,-64.5 1119.02,-64.5"/>
<polygon fill="midnightblue" stroke="midnightblue" points="1182.84,-68 1192.84,-64.5 1182.84,-61 1182.84,-68"/>
</g>
<!-- Node33 -->
<g id="node33" class="node">
<title>Node33</title>
<g id="a_node33"><a xlink:href="classdenoptim_1_1graph_1_1_d_graph.html#a1cb3c55237933f7a4d32e002175b84bc" target="_top" xlink:title="Searches for the given pattern type and generated a new graph where each set of (clones of) vertexes ...">
<polygon fill="white" stroke="black" points="968.5,-98.5 968.5,-128.5 1117.5,-128.5 1117.5,-98.5 968.5,-98.5"/>
<text text-anchor="start" x="976.5" y="-116.5" font-family="Helvetica,sans-Serif" font-size="10.00">denoptim.graph.DGraph.embed</text>
<text text-anchor="middle" x="1043" y="-105.5" font-family="Helvetica,sans-Serif" font-size="10.00">PatternsInTemplates</text>
</a>
</g>
</g>
<!-- Node32&#45;&gt;Node33 -->
<g id="edge40" class="edge">
<title>Node32&#45;&gt;Node33</title>
<path fill="none" stroke="midnightblue" d="M1174.67,-113.5C1155.77,-113.5 1135.9,-113.5 1117.52,-113.5"/>
<polygon fill="midnightblue" stroke="midnightblue" points="1174.76,-117 1184.76,-113.5 1174.76,-110 1174.76,-117"/>
</g>
<!-- Node34 -->
<g id="node34" class="node">
<title>Node34</title>
<g id="a_node34"><a xlink:href="classdenoptim_1_1ga_1_1_graph_operations.html#affb1be89a32e4a429bd7dbdfe0708419" target="_top" xlink:title="Performs the crossover that swaps the two subgraphs defining the given XoverSite.">
<polygon fill="white" stroke="black" points="953,-147.5 953,-177.5 1133,-177.5 1133,-147.5 953,-147.5"/>
<text text-anchor="start" x="961" y="-165.5" font-family="Helvetica,sans-Serif" font-size="10.00">denoptim.ga.GraphOperations.perform</text>
<text text-anchor="middle" x="1043" y="-154.5" font-family="Helvetica,sans-Serif" font-size="10.00">Crossover</text>
</a>
</g>
</g>
<!-- Node32&#45;&gt;Node34 -->
<g id="edge41" class="edge">
<title>Node32&#45;&gt;Node34</title>
<path fill="none" stroke="midnightblue" d="M1183.92,-130.76C1159.86,-136.22 1133.46,-142.21 1110.15,-147.49"/>
<polygon fill="midnightblue" stroke="midnightblue" points="1184.75,-134.16 1193.72,-128.53 1183.2,-127.33 1184.75,-134.16"/>
</g>
<!-- Node34&#45;&gt;Node17 -->
<g id="edge42" class="edge">
<title>Node34&#45;&gt;Node17</title>
<path fill="none" stroke="midnightblue" d="M942.5,-149.7C812.98,-134.98 595,-117.38 526,-155.5 465.75,-188.79 435.38,-272.75 425.11,-307.3"/>
<polygon fill="midnightblue" stroke="midnightblue" points="942.49,-153.22 952.83,-150.89 943.29,-146.27 942.49,-153.22"/>
</g>
<!-- Node34&#45;&gt;Node26 -->
<g id="edge43" class="edge">
<title>Node34&#45;&gt;Node26</title>
<path fill="none" stroke="midnightblue" d="M942.53,-170.69C929.03,-171.81 915.31,-172.94 902.24,-174.01"/>
<polygon fill="midnightblue" stroke="midnightblue" points="943.13,-174.16 952.81,-169.85 942.56,-167.18 943.13,-174.16"/>
</g>
</g>
</svg>
        <g id="navigator" transform="translate(0 0)" fill="#404254">
                <rect fill="#f2f5e9" fill-opacity="0.5" stroke="#606060" stroke-width=".5" x="0" y="0" width="60" height="60"/>
                <use id="zoomplus" xlink:href="#zoomPlus" x="17" y="9" onmousedown="handleZoom(evt,'in')"/>
                <use id="zoomminus" xlink:href="#zoomMin" x="42" y="9" onmousedown="handleZoom(evt,'out')"/>
                <use id="reset" xlink:href="#resetDef" x="30" y="36" onmousedown="handleReset()"/>
                <g id="arrowUp" xlink:href="#dirArrow" transform="translate(30 24)" onmousedown="handlePan(0,-1)">
                  <use xlink:href="#rim" fill="#404040">
                        <set attributeName="fill" to="#808080" begin="arrowUp.mouseover" end="arrowUp.mouseout"/>
                  </use>
                  <path fill="none" stroke="white" stroke-width="1.5" d="M0,-3.0v7 M-2.5,-0.5L0,-3.0L2.5,-0.5"/>
                </g>
                <g id="arrowRight" xlink:href="#dirArrow" transform="rotate(90) translate(36 -43)" onmousedown="handlePan(1,0)">
                  <use xlink:href="#rim" fill="#404040">
                        <set attributeName="fill" to="#808080" begin="arrowRight.mouseover" end="arrowRight.mouseout"/>
                  </use>
                  <path fill="none" stroke="white" stroke-width="1.5" d="M0,-3.0v7 M-2.5,-0.5L0,-3.0L2.5,-0.5"/>
                </g>
                <g id="arrowDown" xlink:href="#dirArrow" transform="rotate(180) translate(-30 -48)" onmousedown="handlePan(0,1)">
                  <use xlink:href="#rim" fill="#404040">
                        <set attributeName="fill" to="#808080" begin="arrowDown.mouseover" end="arrowDown.mouseout"/>
                  </use>
                  <path fill="none" stroke="white" stroke-width="1.5" d="M0,-3.0v7 M-2.5,-0.5L0,-3.0L2.5,-0.5"/>
                </g>
                <g id="arrowLeft" xlink:href="#dirArrow" transform="rotate(270) translate(-36 17)" onmousedown="handlePan(-1,0)">
                  <use xlink:href="#rim" fill="#404040">
                        <set attributeName="fill" to="#808080" begin="arrowLeft.mouseover" end="arrowLeft.mouseout"/>
                  </use>
                  <path fill="none" stroke="white" stroke-width="1.5" d="M0,-3.0v7 M-2.5,-0.5L0,-3.0L2.5,-0.5"/>
                </g>
        </g>
        <svg viewBox="0 0 15 15" width="100%" height="30px" preserveAspectRatio="xMaxYMin meet">
         <g id="arrow_out" transform="scale(0.3 0.3)">
          <a xlink:href="classdenoptim_1_1graph_1_1rings_1_1_path_sub_graph_a181e1471235b48ddef2fa922ef35a964_icgraph_org.svg" target="_base">
           <rect id="button" ry="5" rx="5" y="6" x="6" height="38" width="38"
                fill="#f2f5e9" fill-opacity="0.5" stroke="#606060" stroke-width="1.0"/>
           <path id="arrow"
             d="M 11.500037,31.436501 C 11.940474,20.09759 22.043105,11.32322 32.158766,21.979434 L 37.068811,17.246167 C 37.068811,17.246167 37.088388,32 37.088388,32 L 22.160133,31.978069 C 22.160133,31.978069 26.997745,27.140456 26.997745,27.140456 C 18.528582,18.264221 13.291696,25.230495 11.500037,31.436501 z"
             style="fill:#404040;"/>
          </a>
         </g>
        </svg>
</svg>
