<?xml version="1.0" encoding="UTF-8" standalone="no"?>
<!DOCTYPE svg PUBLIC "-//W3C//DTD SVG 1.1//EN"
 "http://www.w3.org/Graphics/SVG/1.1/DTD/svg11.dtd">
<!-- Generated by graphviz version 3.0.0 (20221109.1736)
 -->
<!-- Title: denoptim.fragspace.FragmentSpace.getAPClassOfCappingVertex Pages: 1 -->
<svg width="751pt" height="147pt"
 viewBox="0.00 0.00 751.00 147.00" xmlns="http://www.w3.org/2000/svg" xmlns:xlink="http://www.w3.org/1999/xlink">
<g id="graph0" class="graph" transform="scale(1 1) rotate(0) translate(4 143)">
<title>denoptim.fragspace.FragmentSpace.getAPClassOfCappingVertex</title>
<polygon fill="white" stroke="transparent" points="-4,4 -4,-143 747,-143 747,4 -4,4"/>
<!-- Node1 -->
<g id="node1" class="node">
<title>Node1</title>
<g id="a_node1"><a xlink:title=" ">
<polygon fill="#bfbfbf" stroke="black" points="571,-54.5 571,-84.5 743,-84.5 743,-54.5 571,-54.5"/>
<text text-anchor="start" x="579" y="-72.5" font-family="Helvetica,sans-Serif" font-size="10.00">denoptim.fragspace.Fragment</text>
<text text-anchor="middle" x="657" y="-61.5" font-family="Helvetica,sans-Serif" font-size="10.00">Space.getAPClassOfCappingVertex</text>
</a>
</g>
</g>
<!-- Node2 -->
<g id="node2" class="node">
<title>Node2</title>
<g id="a_node2"><a xlink:href="classdenoptim_1_1fragspace_1_1_a_p_map_finder.html#a5868844d747acb9bd5331c760a24ff09" target="_top" xlink:title="Compares the AttachmentPoint of two lists searching for all the APs of the second list that are &quot;comp...">
<polygon fill="white" stroke="black" points="360.5,-108.5 360.5,-138.5 527.5,-138.5 527.5,-108.5 360.5,-108.5"/>
<text text-anchor="start" x="368.5" y="-126.5" font-family="Helvetica,sans-Serif" font-size="10.00">denoptim.fragspace.APMap</text>
<text text-anchor="middle" x="444" y="-115.5" font-family="Helvetica,sans-Serif" font-size="10.00">Finder.findMappingCompatibileAPs</text>
</a>
</g>
</g>
<!-- Node1&#45;&gt;Node2 -->
<g id="edge1" class="edge">
<title>Node1&#45;&gt;Node2</title>
<path fill="none" stroke="midnightblue" d="M587.46,-87.04C560.47,-93.95 529.79,-101.8 503.83,-108.45"/>
<polygon fill="midnightblue" stroke="midnightblue" points="588.4,-90.41 597.22,-84.54 586.67,-83.63 588.4,-90.41"/>
</g>
<!-- Node5 -->
<g id="node5" class="node">
<title>Node5</title>
<g id="a_node5"><a xlink:href="classdenoptim_1_1fragspace_1_1_frags_combination_iterator.html#afa4835767d37078abce9e3fbe5fa16e1" target="_top" xlink:title="Constructs a new factory for generating all the combination of fragments that can be attached on a gi...">
<polygon fill="white" stroke="black" points="353,-49 353,-90 535,-90 535,-49 353,-49"/>
<text text-anchor="start" x="361" y="-78" font-family="Helvetica,sans-Serif" font-size="10.00">denoptim.fragspace.Frags</text>
<text text-anchor="start" x="361" y="-67" font-family="Helvetica,sans-Serif" font-size="10.00">CombinationIterator.FragsCombination</text>
<text text-anchor="middle" x="444" y="-56" font-family="Helvetica,sans-Serif" font-size="10.00">Iterator</text>
</a>
</g>
</g>
<!-- Node1&#45;&gt;Node5 -->
<g id="edge4" class="edge">
<title>Node1&#45;&gt;Node5</title>
<path fill="none" stroke="midnightblue" d="M560.78,-69.5C552.2,-69.5 543.54,-69.5 535.01,-69.5"/>
<polygon fill="midnightblue" stroke="midnightblue" points="560.79,-73 570.79,-69.5 560.79,-66 560.79,-73"/>
</g>
<!-- Node6 -->
<g id="node6" class="node">
<title>Node6</title>
<g id="a_node6"><a xlink:href="classdenoptim_1_1graph_1_1_d_graph.html#a3e217d508fc1952084aa04087d6cc00c" target="_top" xlink:title="Checks the graph for unused APs that need to be capped.">
<polygon fill="white" stroke="black" points="372,-0.5 372,-30.5 516,-30.5 516,-0.5 372,-0.5"/>
<text text-anchor="start" x="380" y="-18.5" font-family="Helvetica,sans-Serif" font-size="10.00">denoptim.graph.DGraph.graph</text>
<text text-anchor="middle" x="444" y="-7.5" font-family="Helvetica,sans-Serif" font-size="10.00">NeedsCappingGroups</text>
</a>
</g>
</g>
<!-- Node1&#45;&gt;Node6 -->
<g id="edge5" class="edge">
<title>Node1&#45;&gt;Node6</title>
<path fill="none" stroke="midnightblue" d="M587.46,-51.96C560.47,-45.05 529.79,-37.2 503.83,-30.55"/>
<polygon fill="midnightblue" stroke="midnightblue" points="586.67,-55.37 597.22,-54.46 588.4,-48.59 586.67,-55.37"/>
</g>
<!-- Node3 -->
<g id="node3" class="node">
<title>Node3</title>
<g id="a_node3"><a xlink:href="classdenoptim_1_1fragspace_1_1_a_p_map_finder.html#ae5c8afa4b7defd6ce35df0fa1c5facf2" target="_top" xlink:title="Searches for mappings between the AttachmentPoints on the two lists.">
<polygon fill="white" stroke="black" points="176.5,-108.5 176.5,-138.5 312.5,-138.5 312.5,-108.5 176.5,-108.5"/>
<text text-anchor="start" x="184.5" y="-126.5" font-family="Helvetica,sans-Serif" font-size="10.00">denoptim.fragspace.APMap</text>
<text text-anchor="middle" x="244.5" y="-115.5" font-family="Helvetica,sans-Serif" font-size="10.00">Finder.findAllMappings</text>
</a>
</g>
</g>
<!-- Node2&#45;&gt;Node3 -->
<g id="edge2" class="edge">
<title>Node2&#45;&gt;Node3</title>
<path fill="none" stroke="midnightblue" d="M350.29,-123.5C337.65,-123.5 324.88,-123.5 312.8,-123.5"/>
<polygon fill="midnightblue" stroke="midnightblue" points="350.39,-127 360.39,-123.5 350.39,-120 350.39,-127"/>
</g>
<!-- Node4 -->
<g id="node4" class="node">
<title>Node4</title>
<g id="a_node4"><a xlink:href="classdenoptim_1_1fragspace_1_1_a_p_map_finder.html#ada1b2c2155faeefced1d9a64f82a6668" target="_top" xlink:title="Constructor that launches the search for a mapping between the AttachmentPoints on the first vertex t...">
<polygon fill="white" stroke="black" points="0,-108.5 0,-138.5 136,-138.5 136,-108.5 0,-108.5"/>
<text text-anchor="start" x="8" y="-126.5" font-family="Helvetica,sans-Serif" font-size="10.00">denoptim.fragspace.APMap</text>
<text text-anchor="middle" x="68" y="-115.5" font-family="Helvetica,sans-Serif" font-size="10.00">Finder.APMapFinder</text>
</a>
</g>
</g>
<!-- Node3&#45;&gt;Node4 -->
<g id="edge3" class="edge">
<title>Node3&#45;&gt;Node4</title>
<path fill="none" stroke="midnightblue" d="M165.84,-123.5C155.99,-123.5 145.96,-123.5 136.29,-123.5"/>
<polygon fill="midnightblue" stroke="midnightblue" points="166.03,-127 176.03,-123.5 166.03,-120 166.03,-127"/>
</g>
<!-- Node7 -->
<g id="node7" class="node">
<title>Node7</title>
<g id="a_node7"><a xlink:href="classdenoptim_1_1combinatorial_1_1_graph_building_task.html#a3eaee724fc921194fa158714aafe182d" target="_top" xlink:title="Calls the task.">
<polygon fill="white" stroke="black" points="172,-0.5 172,-30.5 317,-30.5 317,-0.5 172,-0.5"/>
<text text-anchor="start" x="180" y="-18.5" font-family="Helvetica,sans-Serif" font-size="10.00">denoptim.combinatorial.Graph</text>
<text text-anchor="middle" x="244.5" y="-7.5" font-family="Helvetica,sans-Serif" font-size="10.00">BuildingTask.call</text>
</a>
</g>
</g>
<!-- Node6&#45;&gt;Node7 -->
<g id="edge6" class="edge">
<title>Node6&#45;&gt;Node7</title>
<path fill="none" stroke="midnightblue" d="M361.84,-15.5C347.05,-15.5 331.71,-15.5 317.22,-15.5"/>
<polygon fill="midnightblue" stroke="midnightblue" points="361.98,-19 371.98,-15.5 361.98,-12 361.98,-19"/>
</g>
</g>
</svg>
