<?xml version="1.0" encoding="UTF-8" standalone="no"?>
<!DOCTYPE svg PUBLIC "-//W3C//DTD SVG 1.1//EN"
 "http://www.w3.org/Graphics/SVG/1.1/DTD/svg11.dtd">
<!-- Generated by graphviz version 3.0.0 (20221109.1736)
 -->
<!-- Title: denoptim.graph.AttachmentPoint.setCutId Pages: 1 -->
<svg width="1173pt" height="612pt"
 viewBox="0.00 0.00 1173.00 612.00" xmlns="http://www.w3.org/2000/svg" xmlns:xlink="http://www.w3.org/1999/xlink">
<g id="graph0" class="graph" transform="scale(1 1) rotate(0) translate(4 608)">
<title>denoptim.graph.AttachmentPoint.setCutId</title>
<polygon fill="white" stroke="transparent" points="-4,4 -4,-608 1169,-608 1169,4 -4,4"/>
<!-- Node1 -->
<g id="node1" class="node">
<title>Node1</title>
<g id="a_node1"><a xlink:title=" ">
<polygon fill="#bfbfbf" stroke="black" points="1030,-304.5 1030,-334.5 1165,-334.5 1165,-304.5 1030,-304.5"/>
<text text-anchor="start" x="1038" y="-322.5" font-family="Helvetica,sans-Serif" font-size="10.00">denoptim.graph.Attachment</text>
<text text-anchor="middle" x="1097.5" y="-311.5" font-family="Helvetica,sans-Serif" font-size="10.00">Point.setCutId</text>
</a>
</g>
</g>
<!-- Node2 -->
<g id="node2" class="node">
<title>Node2</title>
<g id="a_node2"><a xlink:href="classdenoptim_1_1graph_1_1_empty_vertex.html#a537720023ac6debd9f4663d61026a423" target="_top" xlink:title="Returns a deep&#45;copy of this vertex.">
<polygon fill="white" stroke="black" points="829,-432 829,-451 994,-451 994,-432 829,-432"/>
<text text-anchor="middle" x="911.5" y="-439" font-family="Helvetica,sans-Serif" font-size="10.00">denoptim.graph.EmptyVertex.clone</text>
</a>
</g>
</g>
<!-- Node1&#45;&gt;Node2 -->
<g id="edge1" class="edge">
<title>Node1&#45;&gt;Node2</title>
<path fill="none" stroke="midnightblue" d="M1065.2,-340.25C1025.03,-366.89 956.98,-412.01 927.2,-431.76"/>
<polygon fill="midnightblue" stroke="midnightblue" points="1067.17,-343.15 1073.57,-334.7 1063.3,-337.31 1067.17,-343.15"/>
</g>
<!-- Node10 -->
<g id="node10" class="node">
<title>Node10</title>
<g id="a_node10"><a xlink:href="classdenoptim_1_1graph_1_1_fragment.html#a3b476687a392e637d2bf2f3b6ccb09a4" target="_top" xlink:title="Returns a deep copy of this fragments.">
<polygon fill="white" stroke="black" points="835.5,-212 835.5,-231 987.5,-231 987.5,-212 835.5,-212"/>
<text text-anchor="middle" x="911.5" y="-219" font-family="Helvetica,sans-Serif" font-size="10.00">denoptim.graph.Fragment.clone</text>
</a>
</g>
</g>
<!-- Node1&#45;&gt;Node10 -->
<g id="edge9" class="edge">
<title>Node1&#45;&gt;Node10</title>
<path fill="none" stroke="midnightblue" d="M1059.17,-299.62C1020.07,-278.79 960.28,-246.95 930.56,-231.12"/>
<polygon fill="midnightblue" stroke="midnightblue" points="1057.68,-302.79 1068.15,-304.4 1060.97,-296.61 1057.68,-302.79"/>
</g>
<!-- Node11 -->
<g id="node11" class="node">
<title>Node11</title>
<g id="a_node11"><a xlink:href="classdenoptim_1_1fragmenter_1_1_fragmenter_tools.html#a37c0e44680ec1c54fcff98dae0832a50" target="_top" xlink:title="Chops one chemical structure by applying the given cutting rules.">
<polygon fill="white" stroke="black" points="617.5,-304.5 617.5,-334.5 774.5,-334.5 774.5,-304.5 617.5,-304.5"/>
<text text-anchor="start" x="625.5" y="-322.5" font-family="Helvetica,sans-Serif" font-size="10.00">denoptim.fragmenter.Fragmenter</text>
<text text-anchor="middle" x="696" y="-311.5" font-family="Helvetica,sans-Serif" font-size="10.00">Tools.fragmentation</text>
</a>
</g>
</g>
<!-- Node1&#45;&gt;Node11 -->
<g id="edge26" class="edge">
<title>Node1&#45;&gt;Node11</title>
<path fill="none" stroke="midnightblue" d="M1019.49,-319.5C949.05,-319.5 845.36,-319.5 774.71,-319.5"/>
<polygon fill="midnightblue" stroke="midnightblue" points="1019.63,-323 1029.63,-319.5 1019.63,-316 1019.63,-323"/>
</g>
<!-- Node3 -->
<g id="node3" class="node">
<title>Node3</title>
<g id="a_node3"><a xlink:href="classdenoptim_1_1graph_1_1_d_graph_test.html#a0fd4c84840d3eb11b1838a627d9e6956" target="_top" xlink:title="Returns a graph with definition of symmetric vertexes and symmetric APs meant for testing purposes.">
<polygon fill="white" stroke="black" points="614,-549.5 614,-579.5 778,-579.5 778,-549.5 614,-549.5"/>
<text text-anchor="start" x="622" y="-567.5" font-family="Helvetica,sans-Serif" font-size="10.00">denoptim.graph.DGraphTest.make</text>
<text text-anchor="middle" x="696" y="-556.5" font-family="Helvetica,sans-Serif" font-size="10.00">TestGraphM</text>
</a>
</g>
</g>
<!-- Node2&#45;&gt;Node3 -->
<g id="edge2" class="edge">
<title>Node2&#45;&gt;Node3</title>
<path fill="none" stroke="midnightblue" d="M895.3,-458.41C874.42,-480.59 834.67,-519.2 793,-540.5 786.27,-543.94 779.02,-546.91 771.62,-549.46"/>
<polygon fill="midnightblue" stroke="midnightblue" points="897.89,-460.76 902.11,-451.04 892.75,-456.01 897.89,-460.76"/>
</g>
<!-- Node6 -->
<g id="node6" class="node">
<title>Node6</title>
<g id="a_node6"><a xlink:href="classdenoptim_1_1graph_1_1_d_graph_test.html#ade544f5bf2f66ccb7a4f179e84b33c1c" target="_top" xlink:title="Returns a graph with peculiar definition of symmetric vertexes and symmetric APs meant for testing pu...">
<polygon fill="white" stroke="black" points="614,-500.5 614,-530.5 778,-530.5 778,-500.5 614,-500.5"/>
<text text-anchor="start" x="622" y="-518.5" font-family="Helvetica,sans-Serif" font-size="10.00">denoptim.graph.DGraphTest.make</text>
<text text-anchor="middle" x="696" y="-507.5" font-family="Helvetica,sans-Serif" font-size="10.00">TestGraphN</text>
</a>
</g>
</g>
<!-- Node2&#45;&gt;Node6 -->
<g id="edge5" class="edge">
<title>Node2&#45;&gt;Node6</title>
<path fill="none" stroke="midnightblue" d="M881.43,-455.39C857.95,-466.23 823.85,-481.15 793,-491.5 783.39,-494.72 773.11,-497.74 762.98,-500.46"/>
<polygon fill="midnightblue" stroke="midnightblue" points="882.91,-458.56 890.5,-451.16 879.95,-452.21 882.91,-458.56"/>
</g>
<!-- Node7 -->
<g id="node7" class="node">
<title>Node7</title>
<g id="a_node7"><a xlink:href="classdenoptim_1_1graph_1_1_vertex_test.html#ab36c441c57e9852e2be6d810d80fbc87" target="_top" xlink:title=" ">
<polygon fill="white" stroke="black" points="620.5,-353.5 620.5,-383.5 771.5,-383.5 771.5,-353.5 620.5,-353.5"/>
<text text-anchor="start" x="628.5" y="-371.5" font-family="Helvetica,sans-Serif" font-size="10.00">denoptim.graph.VertexTest.test</text>
<text text-anchor="middle" x="696" y="-360.5" font-family="Helvetica,sans-Serif" font-size="10.00">Clone</text>
</a>
</g>
</g>
<!-- Node2&#45;&gt;Node7 -->
<g id="edge6" class="edge">
<title>Node2&#45;&gt;Node7</title>
<path fill="none" stroke="midnightblue" d="M880.18,-427.81C856.7,-417.53 823.19,-403.55 793,-393.5 782.3,-389.94 770.79,-386.56 759.58,-383.51"/>
<polygon fill="midnightblue" stroke="midnightblue" points="879.03,-431.13 889.59,-431.97 881.86,-424.73 879.03,-431.13"/>
</g>
<!-- Node8 -->
<g id="node8" class="node">
<title>Node8</title>
<g id="a_node8"><a xlink:href="classdenoptim_1_1graph_1_1_attachment_point_test.html#a309f26b0bad9acff15e95672089c2432" target="_top" xlink:title=" ">
<polygon fill="white" stroke="black" points="628.5,-451.5 628.5,-481.5 763.5,-481.5 763.5,-451.5 628.5,-451.5"/>
<text text-anchor="start" x="636.5" y="-469.5" font-family="Helvetica,sans-Serif" font-size="10.00">denoptim.graph.Attachment</text>
<text text-anchor="middle" x="696" y="-458.5" font-family="Helvetica,sans-Serif" font-size="10.00">PointTest.testSameAs</text>
</a>
</g>
</g>
<!-- Node2&#45;&gt;Node8 -->
<g id="edge7" class="edge">
<title>Node2&#45;&gt;Node8</title>
<path fill="none" stroke="midnightblue" d="M819.18,-452.19C800.49,-454.38 781.16,-456.65 763.54,-458.71"/>
<polygon fill="midnightblue" stroke="midnightblue" points="819.65,-455.66 829.18,-451.02 818.84,-448.71 819.65,-455.66"/>
</g>
<!-- Node9 -->
<g id="node9" class="node">
<title>Node9</title>
<g id="a_node9"><a xlink:href="classdenoptim_1_1graph_1_1_attachment_point_test.html#af2fc2503c300637c2369eb4347c990c1" target="_top" xlink:title=" ">
<polygon fill="white" stroke="black" points="609.5,-402.5 609.5,-432.5 782.5,-432.5 782.5,-402.5 609.5,-402.5"/>
<text text-anchor="start" x="617.5" y="-420.5" font-family="Helvetica,sans-Serif" font-size="10.00">denoptim.graph.Attachment</text>
<text text-anchor="middle" x="696" y="-409.5" font-family="Helvetica,sans-Serif" font-size="10.00">PointTest.testSameAs_DiffAPClass</text>
</a>
</g>
</g>
<!-- Node2&#45;&gt;Node9 -->
<g id="edge8" class="edge">
<title>Node2&#45;&gt;Node9</title>
<path fill="none" stroke="midnightblue" d="M818.89,-431.2C806.93,-429.86 794.7,-428.48 782.84,-427.15"/>
<polygon fill="midnightblue" stroke="midnightblue" points="818.54,-434.68 828.87,-432.32 819.32,-427.73 818.54,-434.68"/>
</g>
<!-- Node4 -->
<g id="node4" class="node">
<title>Node4</title>
<g id="a_node4"><a xlink:href="classdenoptim_1_1graph_1_1_d_graph_test.html#a05b87ffb43b9710fcea83b0777654e27" target="_top" xlink:title=" ">
<polygon fill="white" stroke="black" points="390.5,-524.5 390.5,-554.5 546.5,-554.5 546.5,-524.5 390.5,-524.5"/>
<text text-anchor="start" x="398.5" y="-542.5" font-family="Helvetica,sans-Serif" font-size="10.00">denoptim.graph.DGraphTest.test</text>
<text text-anchor="middle" x="468.5" y="-531.5" font-family="Helvetica,sans-Serif" font-size="10.00">DetectSymVertexSets</text>
</a>
</g>
</g>
<!-- Node3&#45;&gt;Node4 -->
<g id="edge3" class="edge">
<title>Node3&#45;&gt;Node4</title>
<path fill="none" stroke="midnightblue" d="M603.82,-554.39C584.93,-552.3 565.2,-550.11 546.86,-548.08"/>
<polygon fill="midnightblue" stroke="midnightblue" points="603.58,-557.89 613.91,-555.51 604.35,-550.93 603.58,-557.89"/>
</g>
<!-- Node5 -->
<g id="node5" class="node">
<title>Node5</title>
<g id="a_node5"><a xlink:href="classdenoptim_1_1graph_1_1_d_graph_test.html#ac02ab6b199aee9280e88a14d0026a175" target="_top" xlink:title=" ">
<polygon fill="white" stroke="black" points="383.5,-573.5 383.5,-603.5 553.5,-603.5 553.5,-573.5 383.5,-573.5"/>
<text text-anchor="start" x="391.5" y="-591.5" font-family="Helvetica,sans-Serif" font-size="10.00">denoptim.graph.DGraphTest.test</text>
<text text-anchor="middle" x="468.5" y="-580.5" font-family="Helvetica,sans-Serif" font-size="10.00">FindSymmetrySetsOfChildVertexes</text>
</a>
</g>
</g>
<!-- Node3&#45;&gt;Node5 -->
<g id="edge4" class="edge">
<title>Node3&#45;&gt;Node5</title>
<path fill="none" stroke="midnightblue" d="M603.71,-574.22C587.17,-575.98 569.99,-577.8 553.67,-579.54"/>
<polygon fill="midnightblue" stroke="midnightblue" points="604.33,-577.67 613.91,-573.13 603.59,-570.71 604.33,-577.67"/>
</g>
<!-- Node10&#45;&gt;Node7 -->
<g id="edge21" class="edge">
<title>Node10&#45;&gt;Node7</title>
<path fill="none" stroke="midnightblue" d="M898.24,-239.8C879.07,-266.94 839.36,-317.55 793,-344.5 786.32,-348.39 779.02,-351.65 771.52,-354.38"/>
<polygon fill="midnightblue" stroke="midnightblue" points="901.34,-241.48 904.14,-231.26 895.58,-237.5 901.34,-241.48"/>
</g>
<!-- Node10&#45;&gt;Node10 -->
<g id="edge10" class="edge">
<title>Node10&#45;&gt;Node10</title>
<path fill="none" stroke="midnightblue" d="M946.36,-239.39C945.85,-245.04 934.23,-249.5 911.5,-249.5 878.44,-249.5 868.89,-240.07 882.83,-231.26"/>
<polygon fill="midnightblue" stroke="midnightblue" points="949.01,-237.1 940.17,-231.26 943.44,-241.33 949.01,-237.1"/>
</g>
<!-- Node10&#45;&gt;Node11 -->
<g id="edge11" class="edge">
<title>Node10&#45;&gt;Node11</title>
<path fill="none" stroke="midnightblue" d="M889.62,-237.19C866.92,-253.59 829.04,-279.03 793,-294.5 784.22,-298.27 774.73,-301.58 765.26,-304.45"/>
<polygon fill="midnightblue" stroke="midnightblue" points="891.82,-239.92 897.82,-231.19 887.69,-234.27 891.82,-239.92"/>
</g>
<!-- Node12 -->
<g id="node12" class="node">
<title>Node12</title>
<g id="a_node12"><a xlink:href="classdenoptim_1_1fragmenter_1_1_clusterable_fragment.html#a1e02c5f6054d5764ff597bd12337345a" target="_top" xlink:title=" ">
<polygon fill="white" stroke="black" points="618,-255.5 618,-285.5 774,-285.5 774,-255.5 618,-255.5"/>
<text text-anchor="start" x="626" y="-273.5" font-family="Helvetica,sans-Serif" font-size="10.00">denoptim.fragmenter.Clusterable</text>
<text text-anchor="middle" x="696" y="-262.5" font-family="Helvetica,sans-Serif" font-size="10.00">Fragment.getTransformedCopy</text>
</a>
</g>
</g>
<!-- Node10&#45;&gt;Node12 -->
<g id="edge12" class="edge">
<title>Node10&#45;&gt;Node12</title>
<path fill="none" stroke="midnightblue" d="M859.17,-233.28C830.2,-239.93 793.7,-248.31 762.67,-255.43"/>
<polygon fill="midnightblue" stroke="midnightblue" points="860.12,-236.65 869.08,-231.01 858.55,-229.83 860.12,-236.65"/>
</g>
<!-- Node19 -->
<g id="node19" class="node">
<title>Node19</title>
<g id="a_node19"><a xlink:href="classdenoptim_1_1graph_1_1_fragment_test.html#a0a98792d99861bb6673e66a76ff49d31" target="_top" xlink:title=" ">
<polygon fill="white" stroke="black" points="614,-206.5 614,-236.5 778,-236.5 778,-206.5 614,-206.5"/>
<text text-anchor="start" x="622" y="-224.5" font-family="Helvetica,sans-Serif" font-size="10.00">denoptim.graph.FragmentTest.test</text>
<text text-anchor="middle" x="696" y="-213.5" font-family="Helvetica,sans-Serif" font-size="10.00">Clone</text>
</a>
</g>
</g>
<!-- Node10&#45;&gt;Node19 -->
<g id="edge20" class="edge">
<title>Node10&#45;&gt;Node19</title>
<path fill="none" stroke="midnightblue" d="M825.14,-221.5C809.63,-221.5 793.5,-221.5 778.12,-221.5"/>
<polygon fill="midnightblue" stroke="midnightblue" points="825.23,-225 835.23,-221.5 825.23,-218 825.23,-225"/>
</g>
<!-- Node20 -->
<g id="node20" class="node">
<title>Node20</title>
<g id="a_node20"><a xlink:href="classdenoptim_1_1fragmenter_1_1_conformer_extractor_task_test.html#a2dc64f375774087fc0b4511384f50bc9" target="_top" xlink:title=" ">
<polygon fill="white" stroke="black" points="599,-147 599,-188 793,-188 793,-147 599,-147"/>
<text text-anchor="start" x="607" y="-176" font-family="Helvetica,sans-Serif" font-size="10.00">denoptim.fragmenter.Conformer</text>
<text text-anchor="start" x="607" y="-165" font-family="Helvetica,sans-Serif" font-size="10.00">ExtractorTaskTest.testExtractClusterable</text>
<text text-anchor="middle" x="696" y="-154" font-family="Helvetica,sans-Serif" font-size="10.00">Fragments</text>
</a>
</g>
</g>
<!-- Node10&#45;&gt;Node20 -->
<g id="edge22" class="edge">
<title>Node10&#45;&gt;Node20</title>
<path fill="none" stroke="midnightblue" d="M862.89,-209.46C837.95,-203.15 806.7,-195.25 778.08,-188.01"/>
<polygon fill="midnightblue" stroke="midnightblue" points="862.27,-212.91 872.82,-211.97 863.99,-206.12 862.27,-212.91"/>
</g>
<!-- Node21 -->
<g id="node21" class="node">
<title>Node21</title>
<g id="a_node21"><a xlink:href="classdenoptim_1_1fragmenter_1_1_fragment_alignement_test.html#ad46b9a4324bb5b9bbfc08c73de0e1124" target="_top" xlink:title=" ">
<polygon fill="white" stroke="black" points="602,-98.5 602,-128.5 790,-128.5 790,-98.5 602,-98.5"/>
<text text-anchor="start" x="610" y="-116.5" font-family="Helvetica,sans-Serif" font-size="10.00">denoptim.fragmenter.Fragment</text>
<text text-anchor="middle" x="696" y="-105.5" font-family="Helvetica,sans-Serif" font-size="10.00">AlignementTest.testGetMinimumRMSD</text>
</a>
</g>
</g>
<!-- Node10&#45;&gt;Node21 -->
<g id="edge23" class="edge">
<title>Node10&#45;&gt;Node21</title>
<path fill="none" stroke="midnightblue" d="M892.48,-205.27C870.52,-186.32 831.55,-155.31 793,-137.5 785.59,-134.08 777.63,-131.1 769.57,-128.52"/>
<polygon fill="midnightblue" stroke="midnightblue" points="890.2,-207.93 900.03,-211.89 894.82,-202.66 890.2,-207.93"/>
</g>
<!-- Node22 -->
<g id="node22" class="node">
<title>Node22</title>
<g id="a_node22"><a xlink:href="classdenoptim_1_1graph_1_1_attachment_point_test.html#af88d30ce68477984fe6179325d1540b2" target="_top" xlink:title=" ">
<polygon fill="white" stroke="black" points="606,-49.5 606,-79.5 786,-79.5 786,-49.5 606,-49.5"/>
<text text-anchor="start" x="614" y="-67.5" font-family="Helvetica,sans-Serif" font-size="10.00">denoptim.graph.Attachment</text>
<text text-anchor="middle" x="696" y="-56.5" font-family="Helvetica,sans-Serif" font-size="10.00">PointTest.testHasConnectedSrcAtom</text>
</a>
</g>
</g>
<!-- Node10&#45;&gt;Node22 -->
<g id="edge24" class="edge">
<title>Node10&#45;&gt;Node22</title>
<path fill="none" stroke="midnightblue" d="M899.4,-202.93C881.03,-173.88 841.49,-117.97 793,-88.5 787.42,-85.11 781.38,-82.2 775.15,-79.69"/>
<polygon fill="midnightblue" stroke="midnightblue" points="896.56,-205 904.79,-211.67 902.52,-201.33 896.56,-205"/>
</g>
<!-- Node23 -->
<g id="node23" class="node">
<title>Node23</title>
<g id="a_node23"><a xlink:href="classdenoptim_1_1graph_1_1_attachment_point_test.html#a4889032266eb87d0f91af8b4e9869360" target="_top" xlink:title=" ">
<polygon fill="white" stroke="black" points="616.5,-0.5 616.5,-30.5 775.5,-30.5 775.5,-0.5 616.5,-0.5"/>
<text text-anchor="start" x="624.5" y="-18.5" font-family="Helvetica,sans-Serif" font-size="10.00">denoptim.graph.Attachment</text>
<text text-anchor="middle" x="696" y="-7.5" font-family="Helvetica,sans-Serif" font-size="10.00">PointTest.testHasSameSrcAtom</text>
</a>
</g>
</g>
<!-- Node10&#45;&gt;Node23 -->
<g id="edge25" class="edge">
<title>Node10&#45;&gt;Node23</title>
<path fill="none" stroke="midnightblue" d="M903.57,-202.04C889.16,-164.47 852.29,-81.94 793,-39.5 787.69,-35.7 781.84,-32.5 775.73,-29.8"/>
<polygon fill="midnightblue" stroke="midnightblue" points="900.42,-203.61 907.18,-211.77 906.98,-201.17 900.42,-203.61"/>
</g>
<!-- Node13 -->
<g id="node13" class="node">
<title>Node13</title>
<g id="a_node13"><a xlink:href="classdenoptim_1_1fragmenter_1_1_fragment_clusterer.html#a1845241fead0bee7fd92feaf6d71e331" target="_top" xlink:title="Once the clustering is done, this method return the list of cluster centroids.">
<polygon fill="white" stroke="black" points="394,-255.5 394,-285.5 543,-285.5 543,-255.5 394,-255.5"/>
<text text-anchor="start" x="402" y="-273.5" font-family="Helvetica,sans-Serif" font-size="10.00">denoptim.fragmenter.Fragment</text>
<text text-anchor="middle" x="468.5" y="-262.5" font-family="Helvetica,sans-Serif" font-size="10.00">Clusterer.getClusterCentroids</text>
</a>
</g>
</g>
<!-- Node12&#45;&gt;Node13 -->
<g id="edge13" class="edge">
<title>Node12&#45;&gt;Node13</title>
<path fill="none" stroke="midnightblue" d="M607.71,-270.5C586.42,-270.5 563.85,-270.5 543.26,-270.5"/>
<polygon fill="midnightblue" stroke="midnightblue" points="607.71,-274 617.71,-270.5 607.71,-267 607.71,-274"/>
</g>
<!-- Node17 -->
<g id="node17" class="node">
<title>Node17</title>
<g id="a_node17"><a xlink:href="classdenoptim_1_1fragmenter_1_1_fragment_clusterer.html#aae37739ae959ab8a85bf01286c5a518e" target="_top" xlink:title="Once the clustering is done, this method return the list of fragments that are nearest to the respect...">
<polygon fill="white" stroke="black" points="374,-304.5 374,-334.5 563,-334.5 563,-304.5 374,-304.5"/>
<text text-anchor="start" x="382" y="-322.5" font-family="Helvetica,sans-Serif" font-size="10.00">denoptim.fragmenter.Fragment</text>
<text text-anchor="middle" x="468.5" y="-311.5" font-family="Helvetica,sans-Serif" font-size="10.00">Clusterer.getNearestToClusterCentroids</text>
</a>
</g>
</g>
<!-- Node12&#45;&gt;Node17 -->
<g id="edge17" class="edge">
<title>Node12&#45;&gt;Node17</title>
<path fill="none" stroke="midnightblue" d="M615.91,-287.69C590.7,-293.16 563.01,-299.18 538.56,-304.49"/>
<polygon fill="midnightblue" stroke="midnightblue" points="616.78,-291.08 625.81,-285.53 615.29,-284.24 616.78,-291.08"/>
</g>
<!-- Node18 -->
<g id="node18" class="node">
<title>Node18</title>
<g id="a_node18"><a xlink:href="classdenoptim_1_1fragmenter_1_1_clusterable_fragment_test.html#a30be40702849bf4781129bf3dabf88e8" target="_top" xlink:title=" ">
<polygon fill="white" stroke="black" points="374.5,-206.5 374.5,-236.5 562.5,-236.5 562.5,-206.5 374.5,-206.5"/>
<text text-anchor="start" x="382.5" y="-224.5" font-family="Helvetica,sans-Serif" font-size="10.00">denoptim.fragmenter.Clusterable</text>
<text text-anchor="middle" x="468.5" y="-213.5" font-family="Helvetica,sans-Serif" font-size="10.00">FragmentTest.testGetTransformedCopy</text>
</a>
</g>
</g>
<!-- Node12&#45;&gt;Node18 -->
<g id="edge19" class="edge">
<title>Node12&#45;&gt;Node18</title>
<path fill="none" stroke="midnightblue" d="M615.91,-253.31C590.7,-247.84 563.01,-241.82 538.56,-236.51"/>
<polygon fill="midnightblue" stroke="midnightblue" points="615.29,-256.76 625.81,-255.47 616.78,-249.92 615.29,-256.76"/>
</g>
<!-- Node14 -->
<g id="node14" class="node">
<title>Node14</title>
<g id="a_node14"><a xlink:href="classdenoptim_1_1fragmenter_1_1_conformer_extractor_task.html#aa21ebdf147f5bdb2685f9e775efd0b10" target="_top" xlink:title=" ">
<polygon fill="white" stroke="black" points="186,-304.5 186,-334.5 338,-334.5 338,-304.5 186,-304.5"/>
<text text-anchor="start" x="194" y="-322.5" font-family="Helvetica,sans-Serif" font-size="10.00">denoptim.fragmenter.Conformer</text>
<text text-anchor="middle" x="262" y="-311.5" font-family="Helvetica,sans-Serif" font-size="10.00">ExtractorTask.call</text>
</a>
</g>
</g>
<!-- Node13&#45;&gt;Node14 -->
<g id="edge14" class="edge">
<title>Node13&#45;&gt;Node14</title>
<path fill="none" stroke="midnightblue" d="M394.87,-287.9C372.24,-293.32 347.5,-299.25 325.63,-304.49"/>
<polygon fill="midnightblue" stroke="midnightblue" points="395.84,-291.27 404.75,-285.53 394.21,-284.46 395.84,-291.27"/>
</g>
<!-- Node16 -->
<g id="node16" class="node">
<title>Node16</title>
<g id="a_node16"><a xlink:href="classdenoptim_1_1fragmenter_1_1_fragment_clusterer_test.html#aa17925160f3f03080e8680c7016fc1c4" target="_top" xlink:title=" ">
<polygon fill="white" stroke="black" points="187.5,-255.5 187.5,-285.5 336.5,-285.5 336.5,-255.5 187.5,-255.5"/>
<text text-anchor="start" x="195.5" y="-273.5" font-family="Helvetica,sans-Serif" font-size="10.00">denoptim.fragmenter.Fragment</text>
<text text-anchor="middle" x="262" y="-262.5" font-family="Helvetica,sans-Serif" font-size="10.00">ClustererTest.testCluster</text>
</a>
</g>
</g>
<!-- Node13&#45;&gt;Node16 -->
<g id="edge16" class="edge">
<title>Node13&#45;&gt;Node16</title>
<path fill="none" stroke="midnightblue" d="M383.78,-270.5C368.13,-270.5 351.89,-270.5 336.57,-270.5"/>
<polygon fill="midnightblue" stroke="midnightblue" points="383.96,-274 393.96,-270.5 383.96,-267 383.96,-274"/>
</g>
<!-- Node15 -->
<g id="node15" class="node">
<title>Node15</title>
<g id="a_node15"><a xlink:href="classdenoptim_1_1programs_1_1fragmenter_1_1_fragmenter.html#aa27df9705e3aed34cc8cb8bc05e6ce85" target="_top" xlink:title=" ">
<polygon fill="white" stroke="black" points="0,-304.5 0,-334.5 150,-334.5 150,-304.5 0,-304.5"/>
<text text-anchor="start" x="8" y="-322.5" font-family="Helvetica,sans-Serif" font-size="10.00">denoptim.programs.fragmenter.</text>
<text text-anchor="middle" x="75" y="-311.5" font-family="Helvetica,sans-Serif" font-size="10.00">Fragmenter.runProgram</text>
</a>
</g>
</g>
<!-- Node14&#45;&gt;Node15 -->
<g id="edge15" class="edge">
<title>Node14&#45;&gt;Node15</title>
<path fill="none" stroke="midnightblue" d="M175.53,-319.5C167.1,-319.5 158.59,-319.5 150.28,-319.5"/>
<polygon fill="midnightblue" stroke="midnightblue" points="175.75,-323 185.75,-319.5 175.75,-316 175.75,-323"/>
</g>
<!-- Node17&#45;&gt;Node14 -->
<g id="edge18" class="edge">
<title>Node17&#45;&gt;Node14</title>
<path fill="none" stroke="midnightblue" d="M363.79,-319.5C355.14,-319.5 346.51,-319.5 338.14,-319.5"/>
<polygon fill="midnightblue" stroke="midnightblue" points="363.93,-323 373.93,-319.5 363.93,-316 363.93,-323"/>
</g>
</g>
</svg>
