<?xml version="1.0" encoding="UTF-8" standalone="no"?>
<!DOCTYPE svg PUBLIC "-//W3C//DTD SVG 1.1//EN"
 "http://www.w3.org/Graphics/SVG/1.1/DTD/svg11.dtd">
<!-- Generated by graphviz version 3.0.0 (20221109.1736)
 -->
<!-- Title: denoptim.graph.APClass.isCPMapCompatibleWith Pages: 1 -->
<!--zoomable 374 -->
<svg id="main" version="1.1" xmlns="http://www.w3.org/2000/svg" xmlns:xlink="http://www.w3.org/1999/xlink" xml:space="preserve" onload="init(evt)">
<style type="text/css"><![CDATA[
.edge:hover path { stroke: red; }
.edge:hover polygon { stroke: red; fill: red; }
]]></style>
<script type="text/javascript"><![CDATA[
var edges = document.getElementsByTagName('g');
if (edges && edges.length) {
  for (var i=0;i<edges.length;i++) {
    if (edges[i].id.substr(0,4)=='edge') {
      edges[i].setAttribute('class','edge');
    }
  }
}
]]></script>
        <defs>
                <circle id="rim" cx="0" cy="0" r="7"/>
                <circle id="rim2" cx="0" cy="0" r="3.5"/>
                <g id="zoomPlus">
                        <use xlink:href="#rim" fill="#404040">
                                <set attributeName="fill" to="#808080" begin="zoomplus.mouseover" end="zoomplus.mouseout"/>
                        </use>
                        <path d="M-4,0h8M0,-4v8" fill="none" stroke="white" stroke-width="1.5" pointer-events="none"/>
                </g>
                <g id="zoomMin">
                        <use xlink:href="#rim" fill="#404040">
                                <set attributeName="fill" to="#808080" begin="zoomminus.mouseover" end="zoomminus.mouseout"/>
                        </use>
                        <path d="M-4,0h8" fill="none" stroke="white" stroke-width="1.5" pointer-events="none"/>
                </g>
                <g id="dirArrow">
                        <path fill="none" stroke="white" stroke-width="1.5" d="M0,-3.0v7 M-2.5,-0.5L0,-3.0L2.5,-0.5"/>
                </g>
               <g id="resetDef">
                       <use xlink:href="#rim2" fill="#404040">
                               <set attributeName="fill" to="#808080" begin="reset.mouseover" end="reset.mouseout"/>
                       </use>
               </g>
        </defs>

<script type="text/javascript">
var viewWidth = 1164;
var viewHeight = 374;
var sectionId = 'dynsection-12';
</script>
<script xlink:href="svgpan.js"/>
<svg id="graph" class="graph">
<g id="viewport">
<title>denoptim.graph.APClass.isCPMapCompatibleWith</title>
<polygon fill="white" stroke="transparent" points="-4,4 -4,-369.5 1160,-369.5 1160,4 -4,4"/>
<!-- Node1 -->
<g id="node1" class="node">
<title>Node1</title>
<g id="a_node1"><a xlink:title="Check compatibility as defined in the compatibility matrix considering this AP as source and the othe...">
<polygon fill="#bfbfbf" stroke="black" points="1023,-169 1023,-199 1156,-199 1156,-169 1023,-169"/>
<text text-anchor="start" x="1031" y="-187" font-family="Helvetica,sans-Serif" font-size="10.00">denoptim.graph.APClass.is</text>
<text text-anchor="middle" x="1089.5" y="-176" font-family="Helvetica,sans-Serif" font-size="10.00">CPMapCompatibleWith</text>
</a>
</g>
</g>
<!-- Node2 -->
<g id="node2" class="node">
<title>Node2</title>
<g id="a_node2"><a xlink:href="classdenoptim_1_1fragspace_1_1_a_p_map_finder.html#a5868844d747acb9bd5331c760a24ff09" target="_top" xlink:title="Compares the AttachmentPoint of two lists searching for all the APs of the second list that are &quot;comp...">
<polygon fill="white" stroke="black" points="811,-316 811,-346 978,-346 978,-316 811,-316"/>
<text text-anchor="start" x="819" y="-334" font-family="Helvetica,sans-Serif" font-size="10.00">denoptim.fragspace.APMap</text>
<text text-anchor="middle" x="894.5" y="-323" font-family="Helvetica,sans-Serif" font-size="10.00">Finder.findMappingCompatibileAPs</text>
</a>
</g>
</g>
<!-- Node1&#45;&gt;Node2 -->
<g id="edge1" class="edge">
<title>Node1&#45;&gt;Node2</title>
<path fill="none" stroke="midnightblue" d="M1075.2,-207.83C1058.33,-235.84 1026.61,-281.68 987,-307 981.6,-310.45 975.73,-313.4 969.64,-315.94"/>
<polygon fill="midnightblue" stroke="midnightblue" points="1078.3,-209.47 1080.34,-199.07 1072.26,-205.93 1078.3,-209.47"/>
</g>
<!-- Node5 -->
<g id="node5" class="node">
<title>Node5</title>
<g id="a_node5"><a xlink:href="classdenoptim_1_1ga_1_1_graph_operations.html#a8c3e7dd2981cbda13c9e5847f4a4e826" target="_top" xlink:title="Select a compatible ring&#45;closing vertex for the given attachment point.">
<polygon fill="white" stroke="black" points="814,-267 814,-297 975,-297 975,-267 814,-267"/>
<text text-anchor="start" x="822" y="-285" font-family="Helvetica,sans-Serif" font-size="10.00">denoptim.ga.GraphOperations.get</text>
<text text-anchor="middle" x="894.5" y="-274" font-family="Helvetica,sans-Serif" font-size="10.00">RCVForSrcAp</text>
</a>
</g>
</g>
<!-- Node1&#45;&gt;Node5 -->
<g id="edge4" class="edge">
<title>Node1&#45;&gt;Node5</title>
<path fill="none" stroke="midnightblue" d="M1064.01,-205.94C1044.43,-222.42 1015.61,-244.42 987,-258 979.88,-261.38 972.21,-264.34 964.45,-266.91"/>
<polygon fill="midnightblue" stroke="midnightblue" points="1066.5,-208.42 1071.81,-199.25 1061.94,-203.1 1066.5,-208.42"/>
</g>
<!-- Node7 -->
<g id="node7" class="node">
<title>Node7</title>
<g id="a_node7"><a xlink:href="classdenoptim_1_1fragspace_1_1_graph_link_finder.html#a9a9f36816442f741ecae5391e186bc49" target="_top" xlink:title="Constructor that specifies which edge has to be replaced with a vertex and two edges.">
<polygon fill="white" stroke="black" points="826,-218 826,-248 963,-248 963,-218 826,-218"/>
<text text-anchor="start" x="834" y="-236" font-family="Helvetica,sans-Serif" font-size="10.00">denoptim.fragspace.Graph</text>
<text text-anchor="middle" x="894.5" y="-225" font-family="Helvetica,sans-Serif" font-size="10.00">LinkFinder.GraphLinkFinder</text>
</a>
</g>
</g>
<!-- Node1&#45;&gt;Node7 -->
<g id="edge6" class="edge">
<title>Node1&#45;&gt;Node7</title>
<path fill="none" stroke="midnightblue" d="M1019.38,-201.55C998.18,-206.93 975.07,-212.8 954.61,-217.99"/>
<polygon fill="midnightblue" stroke="midnightblue" points="1020.45,-204.89 1029.28,-199.03 1018.73,-198.1 1020.45,-204.89"/>
</g>
<!-- Node8 -->
<g id="node8" class="node">
<title>Node8</title>
<g id="a_node8"><a xlink:href="classdenoptim_1_1ga_1_1_graph_operations.html#a4f66827484cc4de0ac568545fb2033c2" target="_top" xlink:title="Evaluate AP class&#45;compatibility of a pair of edges with respect to crossover.">
<polygon fill="white" stroke="black" points="817,-169 817,-199 972,-199 972,-169 817,-169"/>
<text text-anchor="start" x="825" y="-187" font-family="Helvetica,sans-Serif" font-size="10.00">denoptim.ga.GraphOperations.is</text>
<text text-anchor="middle" x="894.5" y="-176" font-family="Helvetica,sans-Serif" font-size="10.00">CrossoverPossible</text>
</a>
</g>
</g>
<!-- Node1&#45;&gt;Node8 -->
<g id="edge7" class="edge">
<title>Node1&#45;&gt;Node8</title>
<path fill="none" stroke="midnightblue" d="M1012.82,-184C999.49,-184 985.61,-184 972.25,-184"/>
<polygon fill="midnightblue" stroke="midnightblue" points="1012.89,-187.5 1022.89,-184 1012.89,-180.5 1012.89,-187.5"/>
</g>
<!-- Node18 -->
<g id="node18" class="node">
<title>Node18</title>
<g id="a_node18"><a xlink:href="classdenoptim_1_1graph_1_1_d_graph.html#af404e25092eabcdfbe69b5d7204e9483" target="_top" xlink:title="Mutates the graph by removing the chain where a given vertex is located up to the first branching (i....">
<polygon fill="white" stroke="black" points="818.5,-120 818.5,-150 970.5,-150 970.5,-120 818.5,-120"/>
<text text-anchor="start" x="826.5" y="-138" font-family="Helvetica,sans-Serif" font-size="10.00">denoptim.graph.DGraph.remove</text>
<text text-anchor="middle" x="894.5" y="-127" font-family="Helvetica,sans-Serif" font-size="10.00">ChainUpToBranching</text>
</a>
</g>
</g>
<!-- Node1&#45;&gt;Node18 -->
<g id="edge18" class="edge">
<title>Node1&#45;&gt;Node18</title>
<path fill="none" stroke="midnightblue" d="M1019.38,-166.45C998.18,-161.07 975.07,-155.2 954.61,-150.01"/>
<polygon fill="midnightblue" stroke="midnightblue" points="1018.73,-169.9 1029.28,-168.97 1020.45,-163.11 1018.73,-169.9"/>
</g>
<!-- Node21 -->
<g id="node21" class="node">
<title>Node21</title>
<g id="a_node21"><a xlink:href="classdenoptim_1_1fragspace_1_1_fragment_space_test.html#ae884d9d970bc9d561dad00bf0c20b4b5" target="_top" xlink:title=" ">
<polygon fill="white" stroke="black" points="802,-60.5 802,-101.5 987,-101.5 987,-60.5 802,-60.5"/>
<text text-anchor="start" x="810" y="-89.5" font-family="Helvetica,sans-Serif" font-size="10.00">denoptim.fragspace.Fragment</text>
<text text-anchor="start" x="810" y="-78.5" font-family="Helvetica,sans-Serif" font-size="10.00">SpaceTest.testGetFragAPsCompatible</text>
<text text-anchor="middle" x="894.5" y="-67.5" font-family="Helvetica,sans-Serif" font-size="10.00">WithClass</text>
</a>
</g>
</g>
<!-- Node1&#45;&gt;Node21 -->
<g id="edge21" class="edge">
<title>Node1&#45;&gt;Node21</title>
<path fill="none" stroke="midnightblue" d="M1063.46,-162.17C1043.78,-145.93 1015.09,-124.22 987,-110 981.05,-106.99 974.73,-104.21 968.29,-101.67"/>
<polygon fill="midnightblue" stroke="midnightblue" points="1061.4,-165.01 1071.31,-168.75 1065.9,-159.65 1061.4,-165.01"/>
</g>
<!-- Node22 -->
<g id="node22" class="node">
<title>Node22</title>
<g id="a_node22"><a xlink:href="classdenoptim_1_1fragspace_1_1_fragment_space_test.html#a2ba7718688486212e987638aef444bad" target="_top" xlink:title=" ">
<polygon fill="white" stroke="black" points="802,-0.5 802,-41.5 987,-41.5 987,-0.5 802,-0.5"/>
<text text-anchor="start" x="810" y="-29.5" font-family="Helvetica,sans-Serif" font-size="10.00">denoptim.fragspace.Fragment</text>
<text text-anchor="start" x="810" y="-18.5" font-family="Helvetica,sans-Serif" font-size="10.00">SpaceTest.testGetFragAPsCompatible</text>
<text text-anchor="middle" x="894.5" y="-7.5" font-family="Helvetica,sans-Serif" font-size="10.00">WithTheseAPs</text>
</a>
</g>
</g>
<!-- Node1&#45;&gt;Node22 -->
<g id="edge22" class="edge">
<title>Node1&#45;&gt;Node22</title>
<path fill="none" stroke="midnightblue" d="M1076.14,-159.97C1059.67,-130.23 1027.8,-80 987,-51 982.09,-47.51 976.76,-44.41 971.21,-41.66"/>
<polygon fill="midnightblue" stroke="midnightblue" points="1073.11,-161.71 1080.94,-168.85 1079.26,-158.39 1073.11,-161.71"/>
</g>
<!-- Node3 -->
<g id="node3" class="node">
<title>Node3</title>
<g id="a_node3"><a xlink:href="classdenoptim_1_1fragspace_1_1_a_p_map_finder.html#ae5c8afa4b7defd6ce35df0fa1c5facf2" target="_top" xlink:title="Searches for mappings between the AttachmentPoints on the two lists.">
<polygon fill="white" stroke="black" points="610,-316 610,-346 746,-346 746,-316 610,-316"/>
<text text-anchor="start" x="618" y="-334" font-family="Helvetica,sans-Serif" font-size="10.00">denoptim.fragspace.APMap</text>
<text text-anchor="middle" x="678" y="-323" font-family="Helvetica,sans-Serif" font-size="10.00">Finder.findAllMappings</text>
</a>
</g>
</g>
<!-- Node2&#45;&gt;Node3 -->
<g id="edge2" class="edge">
<title>Node2&#45;&gt;Node3</title>
<path fill="none" stroke="midnightblue" d="M800.78,-331C782.46,-331 763.58,-331 746.3,-331"/>
<polygon fill="midnightblue" stroke="midnightblue" points="800.88,-334.5 810.88,-331 800.88,-327.5 800.88,-334.5"/>
</g>
<!-- Node4 -->
<g id="node4" class="node">
<title>Node4</title>
<g id="a_node4"><a xlink:href="classdenoptim_1_1fragspace_1_1_a_p_map_finder.html#ada1b2c2155faeefced1d9a64f82a6668" target="_top" xlink:title="Constructor that launches the search for a mapping between the AttachmentPoints on the first vertex t...">
<polygon fill="white" stroke="black" points="391.5,-316 391.5,-346 527.5,-346 527.5,-316 391.5,-316"/>
<text text-anchor="start" x="399.5" y="-334" font-family="Helvetica,sans-Serif" font-size="10.00">denoptim.fragspace.APMap</text>
<text text-anchor="middle" x="459.5" y="-323" font-family="Helvetica,sans-Serif" font-size="10.00">Finder.APMapFinder</text>
</a>
</g>
</g>
<!-- Node3&#45;&gt;Node4 -->
<g id="edge3" class="edge">
<title>Node3&#45;&gt;Node4</title>
<path fill="none" stroke="midnightblue" d="M599.67,-331C576.11,-331 550.41,-331 527.58,-331"/>
<polygon fill="midnightblue" stroke="midnightblue" points="599.98,-334.5 609.98,-331 599.98,-327.5 599.98,-334.5"/>
</g>
<!-- Node6 -->
<g id="node6" class="node">
<title>Node6</title>
<g id="a_node6"><a xlink:href="classdenoptim_1_1ga_1_1_graph_operations.html#a104e82aba7242a457da09540ff0400da" target="_top" xlink:title="function that will keep extending the graph.">
<polygon fill="white" stroke="black" points="590,-267 590,-297 766,-297 766,-267 590,-267"/>
<text text-anchor="start" x="598" y="-285" font-family="Helvetica,sans-Serif" font-size="10.00">denoptim.ga.GraphOperations.extend</text>
<text text-anchor="middle" x="678" y="-274" font-family="Helvetica,sans-Serif" font-size="10.00">Graph</text>
</a>
</g>
</g>
<!-- Node5&#45;&gt;Node6 -->
<g id="edge5" class="edge">
<title>Node5&#45;&gt;Node6</title>
<path fill="none" stroke="midnightblue" d="M803.58,-282C791.14,-282 778.39,-282 766.01,-282"/>
<polygon fill="midnightblue" stroke="midnightblue" points="803.93,-285.5 813.93,-282 803.93,-278.5 803.93,-285.5"/>
</g>
<!-- Node9 -->
<g id="node9" class="node">
<title>Node9</title>
<g id="a_node9"><a xlink:href="classdenoptim_1_1ga_1_1_graph_operations.html#a2396c23acf24d07f255b94eb3a2105b7" target="_top" xlink:title="Identify crossover sites, i.e., subgraphs that can be swapped between two graphs (i....">
<polygon fill="white" stroke="black" points="591.5,-169 591.5,-199 764.5,-199 764.5,-169 591.5,-169"/>
<text text-anchor="start" x="599.5" y="-187" font-family="Helvetica,sans-Serif" font-size="10.00">denoptim.ga.GraphOperations.locate</text>
<text text-anchor="middle" x="678" y="-176" font-family="Helvetica,sans-Serif" font-size="10.00">CompatibleXOverPoints</text>
</a>
</g>
</g>
<!-- Node8&#45;&gt;Node9 -->
<g id="edge8" class="edge">
<title>Node8&#45;&gt;Node9</title>
<path fill="none" stroke="midnightblue" d="M806.91,-184C792.97,-184 778.54,-184 764.62,-184"/>
<polygon fill="midnightblue" stroke="midnightblue" points="806.97,-187.5 816.97,-184 806.97,-180.5 806.97,-187.5"/>
</g>
<!-- Node9&#45;&gt;Node9 -->
<g id="edge14" class="edge">
<title>Node9&#45;&gt;Node9</title>
<path fill="none" stroke="midnightblue" d="M716.38,-209.46C711.62,-214.18 698.82,-217.5 678,-217.5 643.83,-217.5 631.28,-208.56 640.36,-199.16"/>
<polygon fill="midnightblue" stroke="midnightblue" points="719.85,-208.88 715.64,-199.16 712.87,-209.38 719.85,-208.88"/>
</g>
<!-- Node10 -->
<g id="node10" class="node">
<title>Node10</title>
<g id="a_node10"><a xlink:href="classdenoptim_1_1ga_1_1_population.html#a31b74cc5407c42fa3a4214029fb08190" target="_top" xlink:title="Returns a list of population members that can do crossover with the specified member.">
<polygon fill="white" stroke="black" points="393,-267 393,-297 526,-297 526,-267 393,-267"/>
<text text-anchor="start" x="401" y="-285" font-family="Helvetica,sans-Serif" font-size="10.00">denoptim.ga.Population.get</text>
<text text-anchor="middle" x="459.5" y="-274" font-family="Helvetica,sans-Serif" font-size="10.00">XoverPartners</text>
</a>
</g>
</g>
<!-- Node9&#45;&gt;Node10 -->
<g id="edge9" class="edge">
<title>Node9&#45;&gt;Node10</title>
<path fill="none" stroke="midnightblue" d="M647.89,-204.85C623.74,-221.3 587.99,-243.77 554,-258 545.19,-261.69 535.67,-264.92 526.18,-267.73"/>
<polygon fill="midnightblue" stroke="midnightblue" points="649.99,-207.65 656.23,-199.08 646.01,-201.89 649.99,-207.65"/>
</g>
<!-- Node15 -->
<g id="node15" class="node">
<title>Node15</title>
<g id="a_node15"><a xlink:href="classdenoptim_1_1programs_1_1genetweeker_1_1_gene_ops_runner.html#ab0f92a94c4fb2334e7d3813e73fc4247" target="_top" xlink:title=" ">
<polygon fill="white" stroke="black" points="380,-218 380,-248 539,-248 539,-218 380,-218"/>
<text text-anchor="start" x="388" y="-236" font-family="Helvetica,sans-Serif" font-size="10.00">denoptim.programs.genetweeker.</text>
<text text-anchor="middle" x="459.5" y="-225" font-family="Helvetica,sans-Serif" font-size="10.00">GeneOpsRunner.runXOver</text>
</a>
</g>
</g>
<!-- Node9&#45;&gt;Node15 -->
<g id="edge15" class="edge">
<title>Node9&#45;&gt;Node15</title>
<path fill="none" stroke="midnightblue" d="M600.75,-201.26C576.62,-206.72 550.17,-212.71 526.8,-217.99"/>
<polygon fill="midnightblue" stroke="midnightblue" points="601.59,-204.66 610.57,-199.03 600.05,-197.83 601.59,-204.66"/>
</g>
<!-- Node17 -->
<g id="node17" class="node">
<title>Node17</title>
<g id="a_node17"><a xlink:href="classdenoptim_1_1ga_1_1_graph_operations_test.html#a9fcf8fffef10a59df722c92e94da2815" target="_top" xlink:title=" ">
<polygon fill="white" stroke="black" points="365,-169 365,-199 554,-199 554,-169 365,-169"/>
<text text-anchor="start" x="373" y="-187" font-family="Helvetica,sans-Serif" font-size="10.00">denoptim.ga.GraphOperations</text>
<text text-anchor="middle" x="459.5" y="-176" font-family="Helvetica,sans-Serif" font-size="10.00">Test.testLocateCompatibleXOverPoints</text>
</a>
</g>
</g>
<!-- Node9&#45;&gt;Node17 -->
<g id="edge17" class="edge">
<title>Node9&#45;&gt;Node17</title>
<path fill="none" stroke="midnightblue" d="M581.27,-184C572.22,-184 563.04,-184 554,-184"/>
<polygon fill="midnightblue" stroke="midnightblue" points="581.43,-187.5 591.43,-184 581.43,-180.5 581.43,-187.5"/>
</g>
<!-- Node11 -->
<g id="node11" class="node">
<title>Node11</title>
<g id="a_node11"><a xlink:href="classdenoptim_1_1ga_1_1_e_a_utils.html#a45d4e9ec6a308aa73891efa1d501dd5e" target="_top" xlink:title="Perform fitness&#45;based, class&#45;compatible selection of parents that can do crossover operations.">
<polygon fill="white" stroke="black" points="163,-340.5 163,-359.5 329,-359.5 329,-340.5 163,-340.5"/>
<text text-anchor="middle" x="246" y="-347.5" font-family="Helvetica,sans-Serif" font-size="10.00">denoptim.ga.EAUtils.performFBCC</text>
</a>
</g>
</g>
<!-- Node10&#45;&gt;Node11 -->
<g id="edge10" class="edge">
<title>Node10&#45;&gt;Node11</title>
<path fill="none" stroke="midnightblue" d="M382.93,-299.89C376.78,-302.04 370.73,-304.41 365,-307 347.48,-314.92 346.65,-323.37 329,-331 320.15,-334.83 310.41,-337.94 300.83,-340.46"/>
<polygon fill="midnightblue" stroke="midnightblue" points="384.26,-303.14 392.66,-296.68 382.07,-296.49 384.26,-303.14"/>
</g>
<!-- Node13 -->
<g id="node13" class="node">
<title>Node13</title>
<g id="a_node13"><a xlink:href="classdenoptim_1_1ga_1_1_population_test.html#a5db0672054a9fc1dbc923310732fdb3a" target="_top" xlink:title=" ">
<polygon fill="white" stroke="black" points="168.5,-291 168.5,-321 323.5,-321 323.5,-291 168.5,-291"/>
<text text-anchor="start" x="176.5" y="-309" font-family="Helvetica,sans-Serif" font-size="10.00">denoptim.ga.PopulationTest.test</text>
<text text-anchor="middle" x="246" y="-298" font-family="Helvetica,sans-Serif" font-size="10.00">Clone</text>
</a>
</g>
</g>
<!-- Node10&#45;&gt;Node13 -->
<g id="edge12" class="edge">
<title>Node10&#45;&gt;Node13</title>
<path fill="none" stroke="midnightblue" d="M382.59,-290.61C363.49,-292.78 342.98,-295.11 323.83,-297.28"/>
<polygon fill="midnightblue" stroke="midnightblue" points="383.2,-294.07 392.74,-289.46 382.41,-287.11 383.2,-294.07"/>
</g>
<!-- Node14 -->
<g id="node14" class="node">
<title>Node14</title>
<g id="a_node14"><a xlink:href="classdenoptim_1_1ga_1_1_population_test.html#a278212ebff2501b7071d342f9a027599" target="_top" xlink:title=" ">
<polygon fill="white" stroke="black" points="168.5,-242 168.5,-272 323.5,-272 323.5,-242 168.5,-242"/>
<text text-anchor="start" x="176.5" y="-260" font-family="Helvetica,sans-Serif" font-size="10.00">denoptim.ga.PopulationTest.test</text>
<text text-anchor="middle" x="246" y="-249" font-family="Helvetica,sans-Serif" font-size="10.00">XOverCompatibility</text>
</a>
</g>
</g>
<!-- Node10&#45;&gt;Node14 -->
<g id="edge13" class="edge">
<title>Node10&#45;&gt;Node14</title>
<path fill="none" stroke="midnightblue" d="M382.59,-273.03C363.49,-270.77 342.98,-268.34 323.83,-266.08"/>
<polygon fill="midnightblue" stroke="midnightblue" points="382.4,-276.53 392.74,-274.23 383.22,-269.58 382.4,-276.53"/>
</g>
<!-- Node12 -->
<g id="node12" class="node">
<title>Node12</title>
<g id="a_node12"><a xlink:href="classdenoptim_1_1ga_1_1_e_a_utils.html#a0b958439d79fae30f14530213ad22e3a" target="_top" xlink:title="Generates up to a pair of new offspring by performing a crossover operation.">
<polygon fill="white" stroke="black" points="0,-335 0,-365 127,-365 127,-335 0,-335"/>
<text text-anchor="start" x="8" y="-353" font-family="Helvetica,sans-Serif" font-size="10.00">denoptim.ga.EAUtils.build</text>
<text text-anchor="middle" x="63.5" y="-342" font-family="Helvetica,sans-Serif" font-size="10.00">CandidatesByXOver</text>
</a>
</g>
</g>
<!-- Node11&#45;&gt;Node12 -->
<g id="edge11" class="edge">
<title>Node11&#45;&gt;Node12</title>
<path fill="none" stroke="midnightblue" d="M152.77,-350C144.11,-350 135.47,-350 127.17,-350"/>
<polygon fill="midnightblue" stroke="midnightblue" points="152.94,-353.5 162.94,-350 152.94,-346.5 152.94,-353.5"/>
</g>
<!-- Node16 -->
<g id="node16" class="node">
<title>Node16</title>
<g id="a_node16"><a xlink:href="classdenoptim_1_1programs_1_1genetweeker_1_1_gene_ops_runner.html#a3c2407eb1204a7b25600d3d347d98447" target="_top" xlink:title=" ">
<polygon fill="white" stroke="black" points="166.5,-193 166.5,-223 325.5,-223 325.5,-193 166.5,-193"/>
<text text-anchor="start" x="174.5" y="-211" font-family="Helvetica,sans-Serif" font-size="10.00">denoptim.programs.genetweeker.</text>
<text text-anchor="middle" x="246" y="-200" font-family="Helvetica,sans-Serif" font-size="10.00">GeneOpsRunner.runProgram</text>
</a>
</g>
</g>
<!-- Node15&#45;&gt;Node16 -->
<g id="edge16" class="edge">
<title>Node15&#45;&gt;Node16</title>
<path fill="none" stroke="midnightblue" d="M369.74,-222.51C355.16,-220.78 340.14,-219.01 325.82,-217.32"/>
<polygon fill="midnightblue" stroke="midnightblue" points="369.4,-225.99 379.75,-223.69 370.23,-219.04 369.4,-225.99"/>
</g>
<!-- Node19 -->
<g id="node19" class="node">
<title>Node19</title>
<g id="a_node19"><a xlink:href="classdenoptim_1_1ga_1_1_graph_operations.html#afd659e74a056d1a6ae6f52513fee0be3" target="_top" xlink:title="Deletes the given vertex and all other vertexes that are not connected to more than 2 non&#45;capping gro...">
<polygon fill="white" stroke="black" points="591.5,-120 591.5,-150 764.5,-150 764.5,-120 591.5,-120"/>
<text text-anchor="start" x="599.5" y="-138" font-family="Helvetica,sans-Serif" font-size="10.00">denoptim.ga.GraphOperations.delete</text>
<text text-anchor="middle" x="678" y="-127" font-family="Helvetica,sans-Serif" font-size="10.00">Chain</text>
</a>
</g>
</g>
<!-- Node18&#45;&gt;Node19 -->
<g id="edge19" class="edge">
<title>Node18&#45;&gt;Node19</title>
<path fill="none" stroke="midnightblue" d="M808.16,-135C793.83,-135 778.96,-135 764.62,-135"/>
<polygon fill="midnightblue" stroke="midnightblue" points="808.48,-138.5 818.48,-135 808.48,-131.5 808.48,-138.5"/>
</g>
<!-- Node20 -->
<g id="node20" class="node">
<title>Node20</title>
<g id="a_node20"><a xlink:href="classdenoptim_1_1ga_1_1_graph_operations.html#a0c851972015fbb4b2a317b053b8b81d9" target="_top" xlink:title="Mutates the given vertex according to the given mutation type, if possible.">
<polygon fill="white" stroke="black" points="369.5,-120 369.5,-150 549.5,-150 549.5,-120 369.5,-120"/>
<text text-anchor="start" x="377.5" y="-138" font-family="Helvetica,sans-Serif" font-size="10.00">denoptim.ga.GraphOperations.perform</text>
<text text-anchor="middle" x="459.5" y="-127" font-family="Helvetica,sans-Serif" font-size="10.00">Mutation</text>
</a>
</g>
</g>
<!-- Node19&#45;&gt;Node20 -->
<g id="edge20" class="edge">
<title>Node19&#45;&gt;Node20</title>
<path fill="none" stroke="midnightblue" d="M581.4,-135C570.86,-135 560.16,-135 549.71,-135"/>
<polygon fill="midnightblue" stroke="midnightblue" points="581.43,-138.5 591.43,-135 581.43,-131.5 581.43,-138.5"/>
</g>
</g>
</svg>
        <g id="navigator" transform="translate(0 0)" fill="#404254">
                <rect fill="#f2f5e9" fill-opacity="0.5" stroke="#606060" stroke-width=".5" x="0" y="0" width="60" height="60"/>
                <use id="zoomplus" xlink:href="#zoomPlus" x="17" y="9" onmousedown="handleZoom(evt,'in')"/>
                <use id="zoomminus" xlink:href="#zoomMin" x="42" y="9" onmousedown="handleZoom(evt,'out')"/>
                <use id="reset" xlink:href="#resetDef" x="30" y="36" onmousedown="handleReset()"/>
                <g id="arrowUp" xlink:href="#dirArrow" transform="translate(30 24)" onmousedown="handlePan(0,-1)">
                  <use xlink:href="#rim" fill="#404040">
                        <set attributeName="fill" to="#808080" begin="arrowUp.mouseover" end="arrowUp.mouseout"/>
                  </use>
                  <path fill="none" stroke="white" stroke-width="1.5" d="M0,-3.0v7 M-2.5,-0.5L0,-3.0L2.5,-0.5"/>
                </g>
                <g id="arrowRight" xlink:href="#dirArrow" transform="rotate(90) translate(36 -43)" onmousedown="handlePan(1,0)">
                  <use xlink:href="#rim" fill="#404040">
                        <set attributeName="fill" to="#808080" begin="arrowRight.mouseover" end="arrowRight.mouseout"/>
                  </use>
                  <path fill="none" stroke="white" stroke-width="1.5" d="M0,-3.0v7 M-2.5,-0.5L0,-3.0L2.5,-0.5"/>
                </g>
                <g id="arrowDown" xlink:href="#dirArrow" transform="rotate(180) translate(-30 -48)" onmousedown="handlePan(0,1)">
                  <use xlink:href="#rim" fill="#404040">
                        <set attributeName="fill" to="#808080" begin="arrowDown.mouseover" end="arrowDown.mouseout"/>
                  </use>
                  <path fill="none" stroke="white" stroke-width="1.5" d="M0,-3.0v7 M-2.5,-0.5L0,-3.0L2.5,-0.5"/>
                </g>
                <g id="arrowLeft" xlink:href="#dirArrow" transform="rotate(270) translate(-36 17)" onmousedown="handlePan(-1,0)">
                  <use xlink:href="#rim" fill="#404040">
                        <set attributeName="fill" to="#808080" begin="arrowLeft.mouseover" end="arrowLeft.mouseout"/>
                  </use>
                  <path fill="none" stroke="white" stroke-width="1.5" d="M0,-3.0v7 M-2.5,-0.5L0,-3.0L2.5,-0.5"/>
                </g>
        </g>
        <svg viewBox="0 0 15 15" width="100%" height="30px" preserveAspectRatio="xMaxYMin meet">
         <g id="arrow_out" transform="scale(0.3 0.3)">
          <a xlink:href="classdenoptim_1_1graph_1_1_a_p_class_a12ddb416c705a90f1e9bccb1b0de2749_icgraph_org.svg" target="_base">
           <rect id="button" ry="5" rx="5" y="6" x="6" height="38" width="38"
                fill="#f2f5e9" fill-opacity="0.5" stroke="#606060" stroke-width="1.0"/>
           <path id="arrow"
             d="M 11.500037,31.436501 C 11.940474,20.09759 22.043105,11.32322 32.158766,21.979434 L 37.068811,17.246167 C 37.068811,17.246167 37.088388,32 37.088388,32 L 22.160133,31.978069 C 22.160133,31.978069 26.997745,27.140456 26.997745,27.140456 C 18.528582,18.264221 13.291696,25.230495 11.500037,31.436501 z"
             style="fill:#404040;"/>
          </a>
         </g>
        </svg>
</svg>
