<?xml version="1.0" encoding="UTF-8" standalone="no"?>
<!DOCTYPE svg PUBLIC "-//W3C//DTD SVG 1.1//EN"
 "http://www.w3.org/Graphics/SVG/1.1/DTD/svg11.dtd">
<!-- Generated by graphviz version 3.0.0 (20221109.1736)
 -->
<!-- Title: denoptim.graph.DGraph.indexOf Pages: 1 -->
<svg width="967pt" height="276pt"
 viewBox="0.00 0.00 967.00 276.27" xmlns="http://www.w3.org/2000/svg" xmlns:xlink="http://www.w3.org/1999/xlink">
<g id="graph0" class="graph" transform="scale(1 1) rotate(0) translate(4 272.27)">
<title>denoptim.graph.DGraph.indexOf</title>
<polygon fill="white" stroke="transparent" points="-4,4 -4,-272.27 963,-272.27 963,4 -4,4"/>
<!-- Node1 -->
<g id="node1" class="node">
<title>Node1</title>
<g id="a_node1"><a xlink:title="Returns the index of a vertex in the list of vertices of this graph.">
<polygon fill="#bfbfbf" stroke="black" points="806,-94 806,-113 959,-113 959,-94 806,-94"/>
<text text-anchor="middle" x="882.5" y="-101" font-family="Helvetica,sans-Serif" font-size="10.00">denoptim.graph.DGraph.indexOf</text>
</a>
</g>
</g>
<!-- Node2 -->
<g id="node2" class="node">
<title>Node2</title>
<g id="a_node2"><a xlink:href="classdenoptim_1_1graph_1_1_d_graph.html#a4c897937d4e30c60a8a0c02a0c971262" target="_top" xlink:title="Creates a new graph that corresponds to the subgraph of this graph when exploring the spanning tree f...">
<polygon fill="white" stroke="black" points="605.5,-219.5 605.5,-249.5 754.5,-249.5 754.5,-219.5 605.5,-219.5"/>
<text text-anchor="start" x="613.5" y="-237.5" font-family="Helvetica,sans-Serif" font-size="10.00">denoptim.graph.DGraph.extract</text>
<text text-anchor="middle" x="680" y="-226.5" font-family="Helvetica,sans-Serif" font-size="10.00">Subgraph</text>
</a>
</g>
</g>
<!-- Node1&#45;&gt;Node2 -->
<g id="edge1" class="edge">
<title>Node1&#45;&gt;Node2</title>
<path fill="none" stroke="midnightblue" d="M868.09,-121.01C848.92,-144.82 811.4,-187.12 770,-210.5 764.01,-213.88 757.52,-216.81 750.87,-219.33"/>
<polygon fill="midnightblue" stroke="midnightblue" points="870.85,-123.17 874.29,-113.15 865.35,-118.83 870.85,-123.17"/>
</g>
<!-- Node3 -->
<g id="node3" class="node">
<title>Node3</title>
<g id="a_node3"><a xlink:href="classdenoptim_1_1graph_1_1_d_graph.html#a5978aa281e26639d50c93c6875e6c7ab" target="_top" xlink:title="Searches for a graphs (X) embedded at any level in a graph (Y) by knowing.">
<polygon fill="white" stroke="black" points="613,-170.5 613,-200.5 747,-200.5 747,-170.5 613,-170.5"/>
<text text-anchor="start" x="621" y="-188.5" font-family="Helvetica,sans-Serif" font-size="10.00">denoptim.graph.DGraph.get</text>
<text text-anchor="middle" x="680" y="-177.5" font-family="Helvetica,sans-Serif" font-size="10.00">EmbeddedGraphInClone</text>
</a>
</g>
</g>
<!-- Node1&#45;&gt;Node3 -->
<g id="edge2" class="edge">
<title>Node1&#45;&gt;Node3</title>
<path fill="none" stroke="midnightblue" d="M848.57,-116.97C812.64,-131.66 755.23,-155.14 717.82,-170.44"/>
<polygon fill="midnightblue" stroke="midnightblue" points="850.18,-120.09 858.11,-113.07 847.53,-113.61 850.18,-120.09"/>
</g>
<!-- Node8 -->
<g id="node8" class="node">
<title>Node8</title>
<g id="a_node8"><a xlink:href="classdenoptim_1_1ga_1_1_graph_operations.html#a2396c23acf24d07f255b94eb3a2105b7" target="_top" xlink:title="Identify crossover sites, i.e., subgraphs that can be swapped between two graphs (i....">
<polygon fill="white" stroke="black" points="593.5,-88.5 593.5,-118.5 766.5,-118.5 766.5,-88.5 593.5,-88.5"/>
<text text-anchor="start" x="601.5" y="-106.5" font-family="Helvetica,sans-Serif" font-size="10.00">denoptim.ga.GraphOperations.locate</text>
<text text-anchor="middle" x="680" y="-95.5" font-family="Helvetica,sans-Serif" font-size="10.00">CompatibleXOverPoints</text>
</a>
</g>
</g>
<!-- Node1&#45;&gt;Node8 -->
<g id="edge7" class="edge">
<title>Node1&#45;&gt;Node8</title>
<path fill="none" stroke="midnightblue" d="M795.93,-103.5C786.19,-103.5 776.27,-103.5 766.54,-103.5"/>
<polygon fill="midnightblue" stroke="midnightblue" points="795.99,-107 805.99,-103.5 795.99,-100 795.99,-107"/>
</g>
<!-- Node15 -->
<g id="node15" class="node">
<title>Node15</title>
<g id="a_node15"><a xlink:href="classdenoptim_1_1ga_1_1_graph_operations_test.html#a9fcf8fffef10a59df722c92e94da2815" target="_top" xlink:title=" ">
<polygon fill="white" stroke="black" points="365,-31.5 365,-61.5 554,-61.5 554,-31.5 365,-31.5"/>
<text text-anchor="start" x="373" y="-49.5" font-family="Helvetica,sans-Serif" font-size="10.00">denoptim.ga.GraphOperations</text>
<text text-anchor="middle" x="459.5" y="-38.5" font-family="Helvetica,sans-Serif" font-size="10.00">Test.testLocateCompatibleXOverPoints</text>
</a>
</g>
</g>
<!-- Node1&#45;&gt;Node15 -->
<g id="edge18" class="edge">
<title>Node1&#45;&gt;Node15</title>
<path fill="none" stroke="midnightblue" d="M832.4,-91.76C813.05,-87.44 790.56,-82.8 770,-79.5 697.97,-67.94 615.84,-59.4 554.29,-53.9"/>
<polygon fill="midnightblue" stroke="midnightblue" points="831.69,-95.19 842.22,-93.98 833.24,-88.36 831.69,-95.19"/>
</g>
<!-- Node16 -->
<g id="node16" class="node">
<title>Node16</title>
<g id="a_node16"><a xlink:href="classdenoptim_1_1ga_1_1_graph_operations.html#a31415e2dbad52f4e03cdd7b5f42950a6" target="_top" xlink:title="Mutates the given vertex according to the given mutation type, if possible.">
<polygon fill="white" stroke="black" points="590,-0.5 590,-30.5 770,-30.5 770,-0.5 590,-0.5"/>
<text text-anchor="start" x="598" y="-18.5" font-family="Helvetica,sans-Serif" font-size="10.00">denoptim.ga.GraphOperations.perform</text>
<text text-anchor="middle" x="680" y="-7.5" font-family="Helvetica,sans-Serif" font-size="10.00">Mutation</text>
</a>
</g>
</g>
<!-- Node1&#45;&gt;Node16 -->
<g id="edge17" class="edge">
<title>Node1&#45;&gt;Node16</title>
<path fill="none" stroke="midnightblue" d="M856.08,-88.84C833.83,-76.35 800.39,-58.44 770,-45.5 757.25,-40.07 743.15,-34.94 730.01,-30.51"/>
<polygon fill="midnightblue" stroke="midnightblue" points="854.46,-91.94 864.89,-93.82 857.91,-85.85 854.46,-91.94"/>
</g>
<!-- Node4 -->
<g id="node4" class="node">
<title>Node4</title>
<g id="a_node4"><a xlink:href="classdenoptim_1_1ga_1_1_xover_site.html#a1d75cc7f886374a295deec540178cb61" target="_top" xlink:title="Creates a new instance of this class that contains the list of vertexes that correspond to those cont...">
<polygon fill="white" stroke="black" points="386.5,-227.5 386.5,-257.5 532.5,-257.5 532.5,-227.5 386.5,-227.5"/>
<text text-anchor="start" x="394.5" y="-245.5" font-family="Helvetica,sans-Serif" font-size="10.00">denoptim.ga.XoverSite.project</text>
<text text-anchor="middle" x="459.5" y="-234.5" font-family="Helvetica,sans-Serif" font-size="10.00">ToClonedGraphs</text>
</a>
</g>
</g>
<!-- Node3&#45;&gt;Node4 -->
<g id="edge3" class="edge">
<title>Node3&#45;&gt;Node4</title>
<path fill="none" stroke="midnightblue" d="M612.67,-203.1C593.72,-208.11 573.05,-213.54 554,-218.5 542.81,-221.41 530.86,-224.5 519.37,-227.45"/>
<polygon fill="midnightblue" stroke="midnightblue" points="613.62,-206.47 622.4,-200.53 611.83,-199.7 613.62,-206.47"/>
</g>
<!-- Node7 -->
<g id="node7" class="node">
<title>Node7</title>
<g id="a_node7"><a xlink:href="classdenoptim_1_1graph_1_1_d_graph_test.html#abbd9f77ca8e1f7b733ca74bce6ccad28" target="_top" xlink:title=" ">
<polygon fill="white" stroke="black" points="381.5,-178.5 381.5,-208.5 537.5,-208.5 537.5,-178.5 381.5,-178.5"/>
<text text-anchor="start" x="389.5" y="-196.5" font-family="Helvetica,sans-Serif" font-size="10.00">denoptim.graph.DGraphTest.test</text>
<text text-anchor="middle" x="459.5" y="-185.5" font-family="Helvetica,sans-Serif" font-size="10.00">GetEmbeddedGraphInClone</text>
</a>
</g>
</g>
<!-- Node3&#45;&gt;Node7 -->
<g id="edge6" class="edge">
<title>Node3&#45;&gt;Node7</title>
<path fill="none" stroke="midnightblue" d="M602.66,-188.3C581.57,-189.07 558.68,-189.91 537.55,-190.68"/>
<polygon fill="midnightblue" stroke="midnightblue" points="602.98,-191.79 612.85,-187.92 602.73,-184.79 602.98,-191.79"/>
</g>
<!-- Node5 -->
<g id="node5" class="node">
<title>Node5</title>
<g id="a_node5"><a xlink:href="classdenoptim_1_1ga_1_1_e_a_utils.html#a0b958439d79fae30f14530213ad22e3a" target="_top" xlink:title="Generates up to a pair of new offspring by performing a crossover operation.">
<polygon fill="white" stroke="black" points="0,-222.5 0,-252.5 127,-252.5 127,-222.5 0,-222.5"/>
<text text-anchor="start" x="8" y="-240.5" font-family="Helvetica,sans-Serif" font-size="10.00">denoptim.ga.EAUtils.build</text>
<text text-anchor="middle" x="63.5" y="-229.5" font-family="Helvetica,sans-Serif" font-size="10.00">CandidatesByXOver</text>
</a>
</g>
</g>
<!-- Node4&#45;&gt;Node5 -->
<g id="edge4" class="edge">
<title>Node4&#45;&gt;Node5</title>
<path fill="none" stroke="midnightblue" d="M376.29,-257.13C360.64,-259.37 344.35,-261.32 329,-262.5 255.44,-268.15 236.21,-271.65 163,-262.5 146.72,-260.47 129.27,-256.61 113.64,-252.53"/>
<polygon fill="midnightblue" stroke="midnightblue" points="377.08,-260.55 386.47,-255.63 376.06,-253.63 377.08,-260.55"/>
</g>
<!-- Node6 -->
<g id="node6" class="node">
<title>Node6</title>
<g id="a_node6"><a xlink:href="classdenoptim_1_1ga_1_1_xover_site_test.html#a3936ca2cfc1bb9ace410f7f47ad2c1f2" target="_top" xlink:title=" ">
<polygon fill="white" stroke="black" points="170,-222.5 170,-252.5 322,-252.5 322,-222.5 170,-222.5"/>
<text text-anchor="start" x="178" y="-240.5" font-family="Helvetica,sans-Serif" font-size="10.00">denoptim.ga.XoverSiteTest.test</text>
<text text-anchor="middle" x="246" y="-229.5" font-family="Helvetica,sans-Serif" font-size="10.00">ProjectToClonedGraphs</text>
</a>
</g>
</g>
<!-- Node4&#45;&gt;Node6 -->
<g id="edge5" class="edge">
<title>Node4&#45;&gt;Node6</title>
<path fill="none" stroke="midnightblue" d="M375.98,-240.55C358.23,-240.13 339.56,-239.69 322.11,-239.28"/>
<polygon fill="midnightblue" stroke="midnightblue" points="376.23,-244.06 386.31,-240.79 376.39,-237.06 376.23,-244.06"/>
</g>
<!-- Node8&#45;&gt;Node8 -->
<g id="edge13" class="edge">
<title>Node8&#45;&gt;Node8</title>
<path fill="none" stroke="midnightblue" d="M715.89,-128.96C711.44,-133.68 699.47,-137 680,-137 648.04,-137 636.31,-128.06 644.8,-118.66"/>
<polygon fill="midnightblue" stroke="midnightblue" points="719.36,-128.4 715.2,-118.66 712.38,-128.87 719.36,-128.4"/>
</g>
<!-- Node9 -->
<g id="node9" class="node">
<title>Node9</title>
<g id="a_node9"><a xlink:href="classdenoptim_1_1ga_1_1_population.html#a31b74cc5407c42fa3a4214029fb08190" target="_top" xlink:title="Returns a list of population members that can do crossover with the specified member.">
<polygon fill="white" stroke="black" points="393,-129.5 393,-159.5 526,-159.5 526,-129.5 393,-129.5"/>
<text text-anchor="start" x="401" y="-147.5" font-family="Helvetica,sans-Serif" font-size="10.00">denoptim.ga.Population.get</text>
<text text-anchor="middle" x="459.5" y="-136.5" font-family="Helvetica,sans-Serif" font-size="10.00">XoverPartners</text>
</a>
</g>
</g>
<!-- Node8&#45;&gt;Node9 -->
<g id="edge8" class="edge">
<title>Node8&#45;&gt;Node9</title>
<path fill="none" stroke="midnightblue" d="M588.99,-120.39C567.99,-124.33 546.01,-128.45 526.29,-132.16"/>
<polygon fill="midnightblue" stroke="midnightblue" points="589.7,-123.82 598.88,-118.53 588.41,-116.94 589.7,-123.82"/>
</g>
<!-- Node13 -->
<g id="node13" class="node">
<title>Node13</title>
<g id="a_node13"><a xlink:href="classdenoptim_1_1programs_1_1genetweeker_1_1_gene_ops_runner.html#ab0f92a94c4fb2334e7d3813e73fc4247" target="_top" xlink:title=" ">
<polygon fill="white" stroke="black" points="380,-80.5 380,-110.5 539,-110.5 539,-80.5 380,-80.5"/>
<text text-anchor="start" x="388" y="-98.5" font-family="Helvetica,sans-Serif" font-size="10.00">denoptim.programs.genetweeker.</text>
<text text-anchor="middle" x="459.5" y="-87.5" font-family="Helvetica,sans-Serif" font-size="10.00">GeneOpsRunner.runXOver</text>
</a>
</g>
</g>
<!-- Node8&#45;&gt;Node13 -->
<g id="edge14" class="edge">
<title>Node8&#45;&gt;Node13</title>
<path fill="none" stroke="midnightblue" d="M583.17,-99.99C568.49,-99.45 553.48,-98.9 539.22,-98.38"/>
<polygon fill="midnightblue" stroke="midnightblue" points="583.15,-103.49 593.27,-100.36 583.4,-96.5 583.15,-103.49"/>
</g>
<!-- Node8&#45;&gt;Node15 -->
<g id="edge16" class="edge">
<title>Node8&#45;&gt;Node15</title>
<path fill="none" stroke="midnightblue" d="M611.38,-85.86C581.51,-78.07 546.76,-69 518.14,-61.54"/>
<polygon fill="midnightblue" stroke="midnightblue" points="610.75,-89.31 621.31,-88.45 612.51,-82.54 610.75,-89.31"/>
</g>
<!-- Node10 -->
<g id="node10" class="node">
<title>Node10</title>
<g id="a_node10"><a xlink:href="classdenoptim_1_1ga_1_1_e_a_utils.html#a45d4e9ec6a308aa73891efa1d501dd5e" target="_top" xlink:title="Perform fitness&#45;based, class&#45;compatible selection of parents that can do crossover operations.">
<polygon fill="white" stroke="black" points="163,-184 163,-203 329,-203 329,-184 163,-184"/>
<text text-anchor="middle" x="246" y="-191" font-family="Helvetica,sans-Serif" font-size="10.00">denoptim.ga.EAUtils.performFBCC</text>
</a>
</g>
</g>
<!-- Node9&#45;&gt;Node10 -->
<g id="edge9" class="edge">
<title>Node9&#45;&gt;Node10</title>
<path fill="none" stroke="midnightblue" d="M383.78,-161.81C351.62,-169.26 315.27,-177.68 288.13,-183.97"/>
<polygon fill="midnightblue" stroke="midnightblue" points="384.65,-165.2 393.61,-159.53 383.07,-158.38 384.65,-165.2"/>
</g>
<!-- Node11 -->
<g id="node11" class="node">
<title>Node11</title>
<g id="a_node11"><a xlink:href="classdenoptim_1_1ga_1_1_population_test.html#a5db0672054a9fc1dbc923310732fdb3a" target="_top" xlink:title=" ">
<polygon fill="white" stroke="black" points="168.5,-134.5 168.5,-164.5 323.5,-164.5 323.5,-134.5 168.5,-134.5"/>
<text text-anchor="start" x="176.5" y="-152.5" font-family="Helvetica,sans-Serif" font-size="10.00">denoptim.ga.PopulationTest.test</text>
<text text-anchor="middle" x="246" y="-141.5" font-family="Helvetica,sans-Serif" font-size="10.00">Clone</text>
</a>
</g>
</g>
<!-- Node9&#45;&gt;Node11 -->
<g id="edge11" class="edge">
<title>Node9&#45;&gt;Node11</title>
<path fill="none" stroke="midnightblue" d="M382.59,-146.29C363.49,-146.75 342.98,-147.23 323.83,-147.68"/>
<polygon fill="midnightblue" stroke="midnightblue" points="382.82,-149.79 392.74,-146.05 382.66,-142.79 382.82,-149.79"/>
</g>
<!-- Node12 -->
<g id="node12" class="node">
<title>Node12</title>
<g id="a_node12"><a xlink:href="classdenoptim_1_1ga_1_1_population_test.html#a278212ebff2501b7071d342f9a027599" target="_top" xlink:title=" ">
<polygon fill="white" stroke="black" points="168.5,-85.5 168.5,-115.5 323.5,-115.5 323.5,-85.5 168.5,-85.5"/>
<text text-anchor="start" x="176.5" y="-103.5" font-family="Helvetica,sans-Serif" font-size="10.00">denoptim.ga.PopulationTest.test</text>
<text text-anchor="middle" x="246" y="-92.5" font-family="Helvetica,sans-Serif" font-size="10.00">XOverCompatibility</text>
</a>
</g>
</g>
<!-- Node9&#45;&gt;Node12 -->
<g id="edge12" class="edge">
<title>Node9&#45;&gt;Node12</title>
<path fill="none" stroke="midnightblue" d="M382.75,-128.74C362.11,-124.45 339.8,-119.8 319.34,-115.55"/>
<polygon fill="midnightblue" stroke="midnightblue" points="382.24,-132.21 392.74,-130.82 383.66,-125.36 382.24,-132.21"/>
</g>
<!-- Node10&#45;&gt;Node5 -->
<g id="edge10" class="edge">
<title>Node10&#45;&gt;Node5</title>
<path fill="none" stroke="midnightblue" d="M195.96,-205.46C174.49,-210.69 149.05,-216.89 126.3,-222.43"/>
<polygon fill="midnightblue" stroke="midnightblue" points="196.95,-208.82 205.83,-203.05 195.29,-202.02 196.95,-208.82"/>
</g>
<!-- Node14 -->
<g id="node14" class="node">
<title>Node14</title>
<g id="a_node14"><a xlink:href="classdenoptim_1_1programs_1_1genetweeker_1_1_gene_ops_runner.html#a3c2407eb1204a7b25600d3d347d98447" target="_top" xlink:title=" ">
<polygon fill="white" stroke="black" points="166.5,-36.5 166.5,-66.5 325.5,-66.5 325.5,-36.5 166.5,-36.5"/>
<text text-anchor="start" x="174.5" y="-54.5" font-family="Helvetica,sans-Serif" font-size="10.00">denoptim.programs.genetweeker.</text>
<text text-anchor="middle" x="246" y="-43.5" font-family="Helvetica,sans-Serif" font-size="10.00">GeneOpsRunner.runProgram</text>
</a>
</g>
</g>
<!-- Node13&#45;&gt;Node14 -->
<g id="edge15" class="edge">
<title>Node13&#45;&gt;Node14</title>
<path fill="none" stroke="midnightblue" d="M376.27,-78.39C357.46,-74.48 337.59,-70.35 319.23,-66.53"/>
<polygon fill="midnightblue" stroke="midnightblue" points="375.8,-81.87 386.31,-80.48 377.23,-75.02 375.8,-81.87"/>
</g>
</g>
</svg>
