<?xml version="1.0" encoding="UTF-8" standalone="no"?>
<!DOCTYPE svg PUBLIC "-//W3C//DTD SVG 1.1//EN"
 "http://www.w3.org/Graphics/SVG/1.1/DTD/svg11.dtd">
<!-- Generated by graphviz version 3.0.0 (20221109.1736)
 -->
<!-- Title: denoptim.utils.ManySMARTSQuery.hasProblems Pages: 1 -->
<!--zoomable 507 -->
<svg id="main" version="1.1" xmlns="http://www.w3.org/2000/svg" xmlns:xlink="http://www.w3.org/1999/xlink" xml:space="preserve" onload="init(evt)">
<style type="text/css"><![CDATA[
.edge:hover path { stroke: red; }
.edge:hover polygon { stroke: red; fill: red; }
]]></style>
<script type="text/javascript"><![CDATA[
var edges = document.getElementsByTagName('g');
if (edges && edges.length) {
  for (var i=0;i<edges.length;i++) {
    if (edges[i].id.substr(0,4)=='edge') {
      edges[i].setAttribute('class','edge');
    }
  }
}
]]></script>
        <defs>
                <circle id="rim" cx="0" cy="0" r="7"/>
                <circle id="rim2" cx="0" cy="0" r="3.5"/>
                <g id="zoomPlus">
                        <use xlink:href="#rim" fill="#404040">
                                <set attributeName="fill" to="#808080" begin="zoomplus.mouseover" end="zoomplus.mouseout"/>
                        </use>
                        <path d="M-4,0h8M0,-4v8" fill="none" stroke="white" stroke-width="1.5" pointer-events="none"/>
                </g>
                <g id="zoomMin">
                        <use xlink:href="#rim" fill="#404040">
                                <set attributeName="fill" to="#808080" begin="zoomminus.mouseover" end="zoomminus.mouseout"/>
                        </use>
                        <path d="M-4,0h8" fill="none" stroke="white" stroke-width="1.5" pointer-events="none"/>
                </g>
                <g id="dirArrow">
                        <path fill="none" stroke="white" stroke-width="1.5" d="M0,-3.0v7 M-2.5,-0.5L0,-3.0L2.5,-0.5"/>
                </g>
               <g id="resetDef">
                       <use xlink:href="#rim2" fill="#404040">
                               <set attributeName="fill" to="#808080" begin="reset.mouseover" end="reset.mouseout"/>
                       </use>
               </g>
        </defs>

<script type="text/javascript">
var viewWidth = 2030;
var viewHeight = 507;
var sectionId = 'dynsection-7';
</script>
<script xlink:href="svgpan.js"/>
<svg id="graph" class="graph">
<g id="viewport">
<title>denoptim.utils.ManySMARTSQuery.hasProblems</title>
<polygon fill="white" stroke="transparent" points="-4,4 -4,-502.5 2026,-502.5 2026,4 -4,4"/>
<!-- Node1 -->
<g id="node1" class="node">
<title>Node1</title>
<g id="a_node1"><a xlink:title=" ">
<polygon fill="#bfbfbf" stroke="black" points="1835,-181.5 1835,-211.5 2022,-211.5 2022,-181.5 1835,-181.5"/>
<text text-anchor="start" x="1843" y="-199.5" font-family="Helvetica,sans-Serif" font-size="10.00">denoptim.utils.ManySMARTSQuery.has</text>
<text text-anchor="middle" x="1928.5" y="-188.5" font-family="Helvetica,sans-Serif" font-size="10.00">Problems</text>
</a>
</g>
</g>
<!-- Node2 -->
<g id="node2" class="node">
<title>Node2</title>
<g id="a_node2"><a xlink:href="classdenoptim_1_1utils_1_1_rotational_space_utils.html#af386024b4389e50ad3ff118168e5382d" target="_top" xlink:title="Define the rotational space (also torsional space) for a given molecule.">
<polygon fill="white" stroke="black" points="1199.5,-426.5 1199.5,-456.5 1360.5,-456.5 1360.5,-426.5 1199.5,-426.5"/>
<text text-anchor="start" x="1207.5" y="-444.5" font-family="Helvetica,sans-Serif" font-size="10.00">denoptim.utils.Rotational</text>
<text text-anchor="middle" x="1280" y="-433.5" font-family="Helvetica,sans-Serif" font-size="10.00">SpaceUtils.defineRotatableBonds</text>
</a>
</g>
</g>
<!-- Node1&#45;&gt;Node2 -->
<g id="edge1" class="edge">
<title>Node1&#45;&gt;Node2</title>
<path fill="none" stroke="midnightblue" d="M1915.65,-220.62C1896.4,-257.17 1854.8,-326.19 1799,-362.5 1664.42,-450.07 1469.18,-454.44 1360.9,-448.71"/>
<polygon fill="midnightblue" stroke="midnightblue" points="1918.8,-222.13 1920.27,-211.64 1912.58,-218.93 1918.8,-222.13"/>
</g>
<!-- Node19 -->
<g id="node19" class="node">
<title>Node19</title>
<g id="a_node19"><a xlink:href="classdenoptim_1_1graph_1_1rings_1_1_cyclic_graph_handler.html#ae14cac1f0746cf7b50db933cab59e4e4" target="_top" xlink:title="Method to evaluate the closability of a single path considering only its constitution.">
<polygon fill="white" stroke="black" points="1624,-312 1624,-353 1799,-353 1799,-312 1624,-312"/>
<text text-anchor="start" x="1632" y="-341" font-family="Helvetica,sans-Serif" font-size="10.00">denoptim.graph.rings.Cyclic</text>
<text text-anchor="start" x="1632" y="-330" font-family="Helvetica,sans-Serif" font-size="10.00">GraphHandler.evaluateConstitutional</text>
<text text-anchor="middle" x="1711.5" y="-319" font-family="Helvetica,sans-Serif" font-size="10.00">Closability</text>
</a>
</g>
</g>
<!-- Node1&#45;&gt;Node19 -->
<g id="edge22" class="edge">
<title>Node1&#45;&gt;Node19</title>
<path fill="none" stroke="midnightblue" d="M1894.99,-217.06C1854.51,-242.67 1785.76,-286.16 1745.19,-311.82"/>
<polygon fill="midnightblue" stroke="midnightblue" points="1897.09,-219.88 1903.67,-211.57 1893.35,-213.96 1897.09,-219.88"/>
</g>
<!-- Node23 -->
<g id="node23" class="node">
<title>Node23</title>
<g id="a_node23"><a xlink:href="classdenoptim_1_1fragmenter_1_1_fragmenter_tools.html#aacad4752a8f6324a9c8e5a96ff14efe5" target="_top" xlink:title="Filter fragments according to the criteria defined in the settings.">
<polygon fill="white" stroke="black" points="1633,-157.5 1633,-187.5 1790,-187.5 1790,-157.5 1633,-157.5"/>
<text text-anchor="start" x="1641" y="-175.5" font-family="Helvetica,sans-Serif" font-size="10.00">denoptim.fragmenter.Fragmenter</text>
<text text-anchor="middle" x="1711.5" y="-164.5" font-family="Helvetica,sans-Serif" font-size="10.00">Tools.filterFragment</text>
</a>
</g>
</g>
<!-- Node1&#45;&gt;Node23 -->
<g id="edge29" class="edge">
<title>Node1&#45;&gt;Node23</title>
<path fill="none" stroke="midnightblue" d="M1824.6,-185.01C1812.99,-183.72 1801.32,-182.41 1790.11,-181.16"/>
<polygon fill="midnightblue" stroke="midnightblue" points="1824.43,-188.52 1834.76,-186.15 1825.21,-181.56 1824.43,-188.52"/>
</g>
<!-- Node24 -->
<g id="node24" class="node">
<title>Node24</title>
<g id="a_node24"><a xlink:href="classdenoptim_1_1fragmenter_1_1_fragmenter_tools.html#ab89ea9451a597bb25940dc080087798e" target="_top" xlink:title="Removes from the structures anyone that matches any of the given SMARTS queries.">
<polygon fill="white" stroke="black" points="1632.5,-93.5 1632.5,-123.5 1790.5,-123.5 1790.5,-93.5 1632.5,-93.5"/>
<text text-anchor="start" x="1640.5" y="-111.5" font-family="Helvetica,sans-Serif" font-size="10.00">denoptim.fragmenter.Fragmenter</text>
<text text-anchor="middle" x="1711.5" y="-100.5" font-family="Helvetica,sans-Serif" font-size="10.00">Tools.filterStrucutresBySMARTS</text>
</a>
</g>
</g>
<!-- Node1&#45;&gt;Node24 -->
<g id="edge30" class="edge">
<title>Node1&#45;&gt;Node24</title>
<path fill="none" stroke="midnightblue" d="M1880.89,-177.42C1841.45,-161.28 1785.71,-138.46 1749.34,-123.58"/>
<polygon fill="midnightblue" stroke="midnightblue" points="1879.96,-180.82 1890.54,-181.37 1882.61,-174.35 1879.96,-180.82"/>
</g>
<!-- Node26 -->
<g id="node26" class="node">
<title>Node26</title>
<g id="a_node26"><a xlink:href="classdenoptim_1_1fitness_1_1_fitness_provider.html#aac598a60c7a09b7e84d8f1d5711dd0e5" target="_top" xlink:title="Calculated the fitness according to the current configuration.">
<polygon fill="white" stroke="black" points="1650.5,-206.5 1650.5,-236.5 1772.5,-236.5 1772.5,-206.5 1650.5,-206.5"/>
<text text-anchor="start" x="1658.5" y="-224.5" font-family="Helvetica,sans-Serif" font-size="10.00">denoptim.fitness.Fitness</text>
<text text-anchor="middle" x="1711.5" y="-213.5" font-family="Helvetica,sans-Serif" font-size="10.00">Provider.getFitness</text>
</a>
</g>
</g>
<!-- Node1&#45;&gt;Node26 -->
<g id="edge32" class="edge">
<title>Node1&#45;&gt;Node26</title>
<path fill="none" stroke="midnightblue" d="M1824.36,-208.49C1806.65,-210.55 1788.78,-212.63 1772.68,-214.5"/>
<polygon fill="midnightblue" stroke="midnightblue" points="1825.23,-211.92 1834.76,-207.28 1824.42,-204.96 1825.23,-211.92"/>
</g>
<!-- Node36 -->
<g id="node36" class="node">
<title>Node36</title>
<g id="a_node36"><a xlink:href="classdenoptim_1_1programs_1_1fragmenter_1_1_cutting_rule.html#a3047624614ab9e9f2ff28be11b29ff80" target="_top" xlink:title="Checks if a given bond satisfies the additional options of this rule beyond the matching of the SMART...">
<polygon fill="white" stroke="black" points="1636.5,-15.5 1636.5,-45.5 1786.5,-45.5 1786.5,-15.5 1636.5,-15.5"/>
<text text-anchor="start" x="1644.5" y="-33.5" font-family="Helvetica,sans-Serif" font-size="10.00">denoptim.programs.fragmenter.</text>
<text text-anchor="middle" x="1711.5" y="-22.5" font-family="Helvetica,sans-Serif" font-size="10.00">CuttingRule.satisfiesOptions</text>
</a>
</g>
</g>
<!-- Node1&#45;&gt;Node36 -->
<g id="edge43" class="edge">
<title>Node1&#45;&gt;Node36</title>
<path fill="none" stroke="midnightblue" d="M1904.03,-174.01C1878.96,-150.5 1837.63,-113.11 1799,-84.5 1779.65,-70.17 1756.45,-55.83 1738.95,-45.53"/>
<polygon fill="midnightblue" stroke="midnightblue" points="1901.89,-176.81 1911.57,-181.13 1906.7,-171.72 1901.89,-176.81"/>
</g>
<!-- Node3 -->
<g id="node3" class="node">
<title>Node3</title>
<g id="a_node3"><a xlink:href="classdenoptim_1_1molecularmodeling_1_1_multi_molecular_model_builder.html#a1cd879265bf12e9c2980efae1e8e74aa" target="_top" xlink:title="Generate 3D structure by assembling 3D fragments according to attachment point vector and following t...">
<polygon fill="white" stroke="black" points="962,-450.5 962,-480.5 1152,-480.5 1152,-450.5 962,-450.5"/>
<text text-anchor="start" x="970" y="-468.5" font-family="Helvetica,sans-Serif" font-size="10.00">denoptim.molecularmodeling.</text>
<text text-anchor="middle" x="1057" y="-457.5" font-family="Helvetica,sans-Serif" font-size="10.00">MultiMolecularModelBuilder.build3DTree</text>
</a>
</g>
</g>
<!-- Node2&#45;&gt;Node3 -->
<g id="edge2" class="edge">
<title>Node2&#45;&gt;Node3</title>
<path fill="none" stroke="midnightblue" d="M1189.13,-451.26C1177.01,-452.58 1164.54,-453.93 1152.34,-455.25"/>
<polygon fill="midnightblue" stroke="midnightblue" points="1189.65,-454.72 1199.21,-450.16 1188.89,-447.76 1189.65,-454.72"/>
</g>
<!-- Node6 -->
<g id="node6" class="node">
<title>Node6</title>
<g id="a_node6"><a xlink:href="classdenoptim_1_1graph_1_1_d_graph.html#a7a4743d014e860237f4b20703ef9779b" target="_top" xlink:title="Evaluates the possibility of closing rings in this graph and generates all alternative graphs resulti...">
<polygon fill="white" stroke="black" points="979.5,-312.5 979.5,-342.5 1134.5,-342.5 1134.5,-312.5 979.5,-312.5"/>
<text text-anchor="start" x="987.5" y="-330.5" font-family="Helvetica,sans-Serif" font-size="10.00">denoptim.graph.DGraph.make</text>
<text text-anchor="middle" x="1057" y="-319.5" font-family="Helvetica,sans-Serif" font-size="10.00">AllGraphsWithDifferentRingSets</text>
</a>
</g>
</g>
<!-- Node2&#45;&gt;Node6 -->
<g id="edge5" class="edge">
<title>Node2&#45;&gt;Node6</title>
<path fill="none" stroke="midnightblue" d="M1193.8,-421.43C1191.8,-420.2 1189.86,-418.89 1188,-417.5 1163.37,-399.15 1176.06,-377.59 1152,-358.5 1143.65,-351.88 1133.84,-346.64 1123.75,-342.52"/>
<polygon fill="midnightblue" stroke="midnightblue" points="1192.43,-424.67 1202.89,-426.36 1195.77,-418.52 1192.43,-424.67"/>
</g>
<!-- Node8 -->
<g id="node8" class="node">
<title>Node8</title>
<g id="a_node8"><a xlink:href="classdenoptim_1_1ga_1_1_e_a_utils.html#a1ddb932d4618434d435e4f85ce5e5eb5" target="_top" xlink:title="Evaluates the possibility of closing rings in a given graph and if any ring can be closed,...">
<polygon fill="white" stroke="black" points="991.5,-367.5 991.5,-397.5 1122.5,-397.5 1122.5,-367.5 991.5,-367.5"/>
<text text-anchor="start" x="999.5" y="-385.5" font-family="Helvetica,sans-Serif" font-size="10.00">denoptim.ga.EAUtils.setup</text>
<text text-anchor="middle" x="1057" y="-374.5" font-family="Helvetica,sans-Serif" font-size="10.00">Rings</text>
</a>
</g>
</g>
<!-- Node2&#45;&gt;Node8 -->
<g id="edge7" class="edge">
<title>Node2&#45;&gt;Node8</title>
<path fill="none" stroke="midnightblue" d="M1211.93,-423.85C1203.86,-421.72 1195.74,-419.56 1188,-417.5 1163.61,-411 1136.66,-403.76 1113.65,-397.55"/>
<polygon fill="midnightblue" stroke="midnightblue" points="1211.14,-427.27 1221.71,-426.44 1212.93,-420.5 1211.14,-427.27"/>
</g>
<!-- Node4 -->
<g id="node4" class="node">
<title>Node4</title>
<g id="a_node4"><a xlink:href="classdenoptim_1_1molecularmodeling_1_1_multi_molecular_model_builder.html#a6a8e314f3fb37f66c32c8c4d5695b8a4" target="_top" xlink:title="Given the graph representation of the molecular constitution, along with the 3D coordinates of the fr...">
<polygon fill="white" stroke="black" points="768,-457 768,-498 926,-498 926,-457 768,-457"/>
<text text-anchor="start" x="776" y="-486" font-family="Helvetica,sans-Serif" font-size="10.00">denoptim.molecularmodeling.</text>
<text text-anchor="start" x="776" y="-475" font-family="Helvetica,sans-Serif" font-size="10.00">MultiMolecularModelBuilder.build</text>
<text text-anchor="middle" x="847" y="-464" font-family="Helvetica,sans-Serif" font-size="10.00">Multi3DStructure</text>
</a>
</g>
</g>
<!-- Node3&#45;&gt;Node4 -->
<g id="edge3" class="edge">
<title>Node3&#45;&gt;Node4</title>
<path fill="none" stroke="midnightblue" d="M951.64,-471.52C943.03,-472.02 934.43,-472.51 926.06,-473"/>
<polygon fill="midnightblue" stroke="midnightblue" points="951.96,-475.01 961.74,-470.94 951.55,-468.02 951.96,-475.01"/>
</g>
<!-- Node5 -->
<g id="node5" class="node">
<title>Node5</title>
<g id="a_node5"><a xlink:href="classdenoptim_1_1programs_1_1moldecularmodelbuilder_1_1_molecular_model_builder.html#ad2e44290de6a861274def677044e9754" target="_top" xlink:title=" ">
<polygon fill="white" stroke="black" points="526,-462.5 526,-492.5 732,-492.5 732,-462.5 526,-462.5"/>
<text text-anchor="start" x="534" y="-480.5" font-family="Helvetica,sans-Serif" font-size="10.00">denoptim.programs.moldecularmodelbuilder.</text>
<text text-anchor="middle" x="629" y="-469.5" font-family="Helvetica,sans-Serif" font-size="10.00">MolecularModelBuilder.runProgram</text>
</a>
</g>
</g>
<!-- Node4&#45;&gt;Node5 -->
<g id="edge4" class="edge">
<title>Node4&#45;&gt;Node5</title>
<path fill="none" stroke="midnightblue" d="M757.55,-477.5C749.14,-477.5 740.57,-477.5 732.05,-477.5"/>
<polygon fill="midnightblue" stroke="midnightblue" points="757.71,-481 767.71,-477.5 757.71,-474 757.71,-481"/>
</g>
<!-- Node7 -->
<g id="node7" class="node">
<title>Node7</title>
<g id="a_node7"><a xlink:href="classdenoptim_1_1combinatorial_1_1_graph_building_task.html#a3eaee724fc921194fa158714aafe182d" target="_top" xlink:title="Calls the task.">
<polygon fill="white" stroke="black" points="774.5,-219.5 774.5,-249.5 919.5,-249.5 919.5,-219.5 774.5,-219.5"/>
<text text-anchor="start" x="782.5" y="-237.5" font-family="Helvetica,sans-Serif" font-size="10.00">denoptim.combinatorial.Graph</text>
<text text-anchor="middle" x="847" y="-226.5" font-family="Helvetica,sans-Serif" font-size="10.00">BuildingTask.call</text>
</a>
</g>
</g>
<!-- Node6&#45;&gt;Node7 -->
<g id="edge6" class="edge">
<title>Node6&#45;&gt;Node7</title>
<path fill="none" stroke="midnightblue" d="M982.97,-309.35C975.8,-306.95 968.7,-304.34 962,-301.5 928.18,-287.18 892.1,-264.59 869.8,-249.66"/>
<polygon fill="midnightblue" stroke="midnightblue" points="982.18,-312.77 992.78,-312.47 984.31,-306.1 982.18,-312.77"/>
</g>
<!-- Node9 -->
<g id="node9" class="node">
<title>Node9</title>
<g id="a_node9"><a xlink:href="classdenoptim_1_1ga_1_1_e_a_utils.html#a8122818f58919fce84dce75e7506025a" target="_top" xlink:title=" ">
<polygon fill="white" stroke="black" points="783.5,-408.5 783.5,-438.5 910.5,-438.5 910.5,-408.5 783.5,-408.5"/>
<text text-anchor="start" x="791.5" y="-426.5" font-family="Helvetica,sans-Serif" font-size="10.00">denoptim.ga.EAUtils.build</text>
<text text-anchor="middle" x="847" y="-415.5" font-family="Helvetica,sans-Serif" font-size="10.00">CandidateByMutation</text>
</a>
</g>
</g>
<!-- Node8&#45;&gt;Node9 -->
<g id="edge8" class="edge">
<title>Node8&#45;&gt;Node9</title>
<path fill="none" stroke="midnightblue" d="M981.24,-397.24C958.18,-401.78 933.03,-406.74 910.85,-411.11"/>
<polygon fill="midnightblue" stroke="midnightblue" points="982.19,-400.62 991.33,-395.25 980.84,-393.75 982.19,-400.62"/>
</g>
<!-- Node16 -->
<g id="node16" class="node">
<title>Node16</title>
<g id="a_node16"><a xlink:href="classdenoptim_1_1ga_1_1_e_a_utils.html#ad3d2daeb11e68a356e971ca1846596b5" target="_top" xlink:title=" ">
<polygon fill="white" stroke="black" points="783.5,-359.5 783.5,-389.5 910.5,-389.5 910.5,-359.5 783.5,-359.5"/>
<text text-anchor="start" x="791.5" y="-377.5" font-family="Helvetica,sans-Serif" font-size="10.00">denoptim.ga.EAUtils.build</text>
<text text-anchor="middle" x="847" y="-366.5" font-family="Helvetica,sans-Serif" font-size="10.00">CandidateFromScratch</text>
</a>
</g>
</g>
<!-- Node8&#45;&gt;Node16 -->
<g id="edge16" class="edge">
<title>Node8&#45;&gt;Node16</title>
<path fill="none" stroke="midnightblue" d="M981.24,-379.62C958.18,-378.74 933.03,-377.77 910.85,-376.92"/>
<polygon fill="midnightblue" stroke="midnightblue" points="981.2,-383.13 991.33,-380.01 981.47,-376.13 981.2,-383.13"/>
</g>
<!-- Node18 -->
<g id="node18" class="node">
<title>Node18</title>
<g id="a_node18"><a xlink:href="classdenoptim_1_1ga_1_1_e_a_utils.html#a0b958439d79fae30f14530213ad22e3a" target="_top" xlink:title="Generates up to a pair of new offspring by performing a crossover operation.">
<polygon fill="white" stroke="black" points="783.5,-310.5 783.5,-340.5 910.5,-340.5 910.5,-310.5 783.5,-310.5"/>
<text text-anchor="start" x="791.5" y="-328.5" font-family="Helvetica,sans-Serif" font-size="10.00">denoptim.ga.EAUtils.build</text>
<text text-anchor="middle" x="847" y="-317.5" font-family="Helvetica,sans-Serif" font-size="10.00">CandidatesByXOver</text>
</a>
</g>
</g>
<!-- Node8&#45;&gt;Node18 -->
<g id="edge21" class="edge">
<title>Node8&#45;&gt;Node18</title>
<path fill="none" stroke="midnightblue" d="M991.26,-364.76C962.91,-356.99 929.99,-347.97 902.87,-340.54"/>
<polygon fill="midnightblue" stroke="midnightblue" points="990.51,-368.18 1001.08,-367.45 992.36,-361.43 990.51,-368.18"/>
</g>
<!-- Node10 -->
<g id="node10" class="node">
<title>Node10</title>
<g id="a_node10"><a xlink:href="classdenoptim_1_1ga_1_1_evolutionary_algorithm.html#a0c2e353b243250b4959a3f86608f1020" target="_top" xlink:title="Generates one offspring according to the method where crossover and mutation are decoupled,...">
<polygon fill="white" stroke="black" points="564,-359.5 564,-389.5 694,-389.5 694,-359.5 564,-359.5"/>
<text text-anchor="start" x="572" y="-377.5" font-family="Helvetica,sans-Serif" font-size="10.00">denoptim.ga.Evolutionary</text>
<text text-anchor="middle" x="629" y="-366.5" font-family="Helvetica,sans-Serif" font-size="10.00">Algorithm.makeOffspringA</text>
</a>
</g>
</g>
<!-- Node9&#45;&gt;Node10 -->
<g id="edge9" class="edge">
<title>Node9&#45;&gt;Node10</title>
<path fill="none" stroke="midnightblue" d="M773.19,-406.98C747.54,-401.16 718.92,-394.67 694.05,-389.03"/>
<polygon fill="midnightblue" stroke="midnightblue" points="772.71,-410.46 783.23,-409.26 774.26,-403.64 772.71,-410.46"/>
</g>
<!-- Node15 -->
<g id="node15" class="node">
<title>Node15</title>
<g id="a_node15"><a xlink:href="classdenoptim_1_1ga_1_1_evolutionary_algorithm.html#ae7a90a911b109ed47b3acf54193acc35" target="_top" xlink:title="Generates one offspring according to the method where crossover and mutation are coupled,...">
<polygon fill="white" stroke="black" points="564,-408.5 564,-438.5 694,-438.5 694,-408.5 564,-408.5"/>
<text text-anchor="start" x="572" y="-426.5" font-family="Helvetica,sans-Serif" font-size="10.00">denoptim.ga.Evolutionary</text>
<text text-anchor="middle" x="629" y="-415.5" font-family="Helvetica,sans-Serif" font-size="10.00">Algorithm.makeOffspringB</text>
</a>
</g>
</g>
<!-- Node9&#45;&gt;Node15 -->
<g id="edge14" class="edge">
<title>Node9&#45;&gt;Node15</title>
<path fill="none" stroke="midnightblue" d="M773.19,-423.5C747.54,-423.5 718.92,-423.5 694.05,-423.5"/>
<polygon fill="midnightblue" stroke="midnightblue" points="773.23,-427 783.23,-423.5 773.23,-420 773.23,-427"/>
</g>
<!-- Node11 -->
<g id="node11" class="node">
<title>Node11</title>
<g id="a_node11"><a xlink:href="classdenoptim_1_1ga_1_1_evolutionary_algorithm.html#a596b2f5f0b097c5b67a6e5163bd6fe66" target="_top" xlink:title="Generates a given number of new candidate items and adds them to the current population.">
<polygon fill="white" stroke="black" points="353,-364.5 353,-394.5 487,-394.5 487,-364.5 353,-364.5"/>
<text text-anchor="start" x="361" y="-382.5" font-family="Helvetica,sans-Serif" font-size="10.00">denoptim.ga.Evolutionary</text>
<text text-anchor="middle" x="420" y="-371.5" font-family="Helvetica,sans-Serif" font-size="10.00">Algorithm.evolvePopulation</text>
</a>
</g>
</g>
<!-- Node10&#45;&gt;Node11 -->
<g id="edge10" class="edge">
<title>Node10&#45;&gt;Node11</title>
<path fill="none" stroke="midnightblue" d="M553.76,-376.29C532.05,-376.82 508.46,-377.39 487.28,-377.9"/>
<polygon fill="midnightblue" stroke="midnightblue" points="554.01,-379.79 563.92,-376.05 553.84,-372.79 554.01,-379.79"/>
</g>
<!-- Node12 -->
<g id="node12" class="node">
<title>Node12</title>
<g id="a_node12"><a xlink:href="classdenoptim_1_1ga_1_1_evolutionary_algorithm.html#a6bfc2fa59b199da6259b5b6bad3d6de7" target="_top" xlink:title=" ">
<polygon fill="white" stroke="black" points="190,-339.5 190,-369.5 314,-369.5 314,-339.5 190,-339.5"/>
<text text-anchor="start" x="198" y="-357.5" font-family="Helvetica,sans-Serif" font-size="10.00">denoptim.ga.Evolutionary</text>
<text text-anchor="middle" x="252" y="-346.5" font-family="Helvetica,sans-Serif" font-size="10.00">Algorithm.run</text>
</a>
</g>
</g>
<!-- Node11&#45;&gt;Node12 -->
<g id="edge11" class="edge">
<title>Node11&#45;&gt;Node12</title>
<path fill="none" stroke="midnightblue" d="M342.9,-368.04C333.21,-366.58 323.41,-365.1 314.01,-363.69"/>
<polygon fill="midnightblue" stroke="midnightblue" points="342.51,-371.52 352.92,-369.55 343.55,-364.6 342.51,-371.52"/>
</g>
<!-- Node13 -->
<g id="node13" class="node">
<title>Node13</title>
<g id="a_node13"><a xlink:href="classdenoptim_1_1ga_1_1_evolutionary_algorithm.html#a0f2063b722b7291daf83d62acaa683d3" target="_top" xlink:title=" ">
<polygon fill="white" stroke="black" points="0,-364.5 0,-394.5 154,-394.5 154,-364.5 0,-364.5"/>
<text text-anchor="start" x="8" y="-382.5" font-family="Helvetica,sans-Serif" font-size="10.00">denoptim.ga.Evolutionary</text>
<text text-anchor="middle" x="77" y="-371.5" font-family="Helvetica,sans-Serif" font-size="10.00">Algorithm.EvolutionaryAlgorithm</text>
</a>
</g>
</g>
<!-- Node12&#45;&gt;Node13 -->
<g id="edge12" class="edge">
<title>Node12&#45;&gt;Node13</title>
<path fill="none" stroke="midnightblue" d="M179.44,-364.84C171.09,-366.05 162.54,-367.28 154.12,-368.5"/>
<polygon fill="midnightblue" stroke="midnightblue" points="180.12,-368.28 189.52,-363.38 179.12,-361.35 180.12,-368.28"/>
</g>
<!-- Node14 -->
<g id="node14" class="node">
<title>Node14</title>
<g id="a_node14"><a xlink:href="classdenoptim_1_1programs_1_1denovo_1_1_g_a_runner.html#a7cafd6d78727b89dce3e2c8d06f0dd7c" target="_top" xlink:title=" ">
<polygon fill="white" stroke="black" points="9.5,-315.5 9.5,-345.5 144.5,-345.5 144.5,-315.5 9.5,-315.5"/>
<text text-anchor="start" x="17.5" y="-333.5" font-family="Helvetica,sans-Serif" font-size="10.00">denoptim.programs.denovo.</text>
<text text-anchor="middle" x="77" y="-322.5" font-family="Helvetica,sans-Serif" font-size="10.00">GARunner.runProgram</text>
</a>
</g>
</g>
<!-- Node12&#45;&gt;Node14 -->
<g id="edge13" class="edge">
<title>Node12&#45;&gt;Node14</title>
<path fill="none" stroke="midnightblue" d="M179.48,-344.58C167.92,-342.97 156,-341.32 144.57,-339.73"/>
<polygon fill="midnightblue" stroke="midnightblue" points="179.13,-348.06 189.52,-345.97 180.1,-341.13 179.13,-348.06"/>
</g>
<!-- Node15&#45;&gt;Node11 -->
<g id="edge15" class="edge">
<title>Node15&#45;&gt;Node11</title>
<path fill="none" stroke="midnightblue" d="M554.06,-407.78C532.26,-403.15 508.56,-398.11 487.28,-393.59"/>
<polygon fill="midnightblue" stroke="midnightblue" points="553.41,-411.22 563.92,-409.88 554.87,-404.38 553.41,-411.22"/>
</g>
<!-- Node16&#45;&gt;Node10 -->
<g id="edge19" class="edge">
<title>Node16&#45;&gt;Node10</title>
<path fill="none" stroke="midnightblue" d="M773.19,-374.5C747.54,-374.5 718.92,-374.5 694.05,-374.5"/>
<polygon fill="midnightblue" stroke="midnightblue" points="773.23,-378 783.23,-374.5 773.23,-371 773.23,-378"/>
</g>
<!-- Node16&#45;&gt;Node15 -->
<g id="edge20" class="edge">
<title>Node16&#45;&gt;Node15</title>
<path fill="none" stroke="midnightblue" d="M773.19,-391.02C747.54,-396.84 718.92,-403.33 694.05,-408.97"/>
<polygon fill="midnightblue" stroke="midnightblue" points="774.26,-394.36 783.23,-388.74 772.71,-387.54 774.26,-394.36"/>
</g>
<!-- Node17 -->
<g id="node17" class="node">
<title>Node17</title>
<g id="a_node17"><a xlink:href="classdenoptim_1_1ga_1_1_evolutionary_algorithm.html#ad43588620dab3340e0d8b0042ec73618" target="_top" xlink:title="Fills up the population with candidates build from scratch.">
<polygon fill="white" stroke="black" points="350,-315.5 350,-345.5 490,-345.5 490,-315.5 350,-315.5"/>
<text text-anchor="start" x="358" y="-333.5" font-family="Helvetica,sans-Serif" font-size="10.00">denoptim.ga.Evolutionary</text>
<text text-anchor="middle" x="420" y="-322.5" font-family="Helvetica,sans-Serif" font-size="10.00">Algorithm.initializePopulation</text>
</a>
</g>
</g>
<!-- Node16&#45;&gt;Node17 -->
<g id="edge17" class="edge">
<title>Node16&#45;&gt;Node17</title>
<path fill="none" stroke="midnightblue" d="M773.41,-357.6C759.71,-354.87 745.46,-352.34 732,-350.5 649.31,-339.2 553.36,-334.25 490.15,-332.11"/>
<polygon fill="midnightblue" stroke="midnightblue" points="772.77,-361.04 783.27,-359.61 774.17,-354.18 772.77,-361.04"/>
</g>
<!-- Node17&#45;&gt;Node12 -->
<g id="edge18" class="edge">
<title>Node17&#45;&gt;Node12</title>
<path fill="none" stroke="midnightblue" d="M339.6,-341.98C331.08,-343.21 322.5,-344.45 314.24,-345.65"/>
<polygon fill="midnightblue" stroke="midnightblue" points="340.17,-345.43 349.56,-340.54 339.16,-338.51 340.17,-345.43"/>
</g>
<!-- Node20 -->
<g id="node20" class="node">
<title>Node20</title>
<g id="a_node20"><a xlink:href="classdenoptim_1_1graph_1_1rings_1_1_cyclic_graph_handler.html#abd43d52fe626625dab3da6a32038e57b" target="_top" xlink:title="Method to evaluate the closability of a single path in a graph representing a molecule.">
<polygon fill="white" stroke="black" points="1408,-374.5 1408,-404.5 1588,-404.5 1588,-374.5 1408,-374.5"/>
<text text-anchor="start" x="1416" y="-392.5" font-family="Helvetica,sans-Serif" font-size="10.00">denoptim.graph.rings.Cyclic</text>
<text text-anchor="middle" x="1498" y="-381.5" font-family="Helvetica,sans-Serif" font-size="10.00">GraphHandler.evaluatePathClosability</text>
</a>
</g>
</g>
<!-- Node19&#45;&gt;Node20 -->
<g id="edge23" class="edge">
<title>Node19&#45;&gt;Node20</title>
<path fill="none" stroke="midnightblue" d="M1624.18,-355.76C1600.72,-362.09 1575.94,-368.76 1554.67,-374.5"/>
<polygon fill="midnightblue" stroke="midnightblue" points="1625.4,-359.06 1634.14,-353.08 1623.58,-352.3 1625.4,-359.06"/>
</g>
<!-- Node21 -->
<g id="node21" class="node">
<title>Node21</title>
<g id="a_node21"><a xlink:href="classdenoptim_1_1graph_1_1rings_1_1_cyclic_graph_handler.html#a3ce96322723f45d9285a248ebcef94d3" target="_top" xlink:title="Identifies all possible ring closing paths and returns them as list of DENOPTIMRings ready to be appe...">
<polygon fill="white" stroke="black" points="1188,-307 1188,-348 1372,-348 1372,-307 1188,-307"/>
<text text-anchor="start" x="1196" y="-336" font-family="Helvetica,sans-Serif" font-size="10.00">denoptim.graph.rings.Cyclic</text>
<text text-anchor="start" x="1196" y="-325" font-family="Helvetica,sans-Serif" font-size="10.00">GraphHandler.getPossibleCombination</text>
<text text-anchor="middle" x="1280" y="-314" font-family="Helvetica,sans-Serif" font-size="10.00">OfRings</text>
</a>
</g>
</g>
<!-- Node20&#45;&gt;Node21 -->
<g id="edge24" class="edge">
<title>Node20&#45;&gt;Node21</title>
<path fill="none" stroke="midnightblue" d="M1430.76,-371.85C1423.07,-369.74 1415.36,-367.59 1408,-365.5 1388.63,-359.99 1367.66,-353.81 1348.46,-348.06"/>
<polygon fill="midnightblue" stroke="midnightblue" points="1429.87,-375.24 1440.44,-374.5 1431.71,-368.48 1429.87,-375.24"/>
</g>
<!-- Node22 -->
<g id="node22" class="node">
<title>Node22</title>
<g id="a_node22"><a xlink:href="classdenoptim_1_1graph_1_1rings_1_1_cyclic_graph_handler.html#a08b02946eaac7c2cbbe6e71332d702e6" target="_top" xlink:title="Identifies a random combination of ring closing paths and returns it as list of DENOPTIMRings ready t...">
<polygon fill="white" stroke="black" points="1189,-367 1189,-408 1371,-408 1371,-367 1189,-367"/>
<text text-anchor="start" x="1197" y="-396" font-family="Helvetica,sans-Serif" font-size="10.00">denoptim.graph.rings.Cyclic</text>
<text text-anchor="start" x="1197" y="-385" font-family="Helvetica,sans-Serif" font-size="10.00">GraphHandler.getRandomCombination</text>
<text text-anchor="middle" x="1280" y="-374" font-family="Helvetica,sans-Serif" font-size="10.00">OfRings</text>
</a>
</g>
</g>
<!-- Node20&#45;&gt;Node22 -->
<g id="edge27" class="edge">
<title>Node20&#45;&gt;Node22</title>
<path fill="none" stroke="midnightblue" d="M1397.64,-388.58C1388.85,-388.5 1379.99,-388.42 1371.29,-388.34"/>
<polygon fill="midnightblue" stroke="midnightblue" points="1397.87,-392.08 1407.9,-388.67 1397.93,-385.08 1397.87,-392.08"/>
</g>
<!-- Node21&#45;&gt;Node6 -->
<g id="edge25" class="edge">
<title>Node21&#45;&gt;Node6</title>
<path fill="none" stroke="midnightblue" d="M1177.81,-327.5C1163.26,-327.5 1148.5,-327.5 1134.53,-327.5"/>
<polygon fill="midnightblue" stroke="midnightblue" points="1177.83,-331 1187.83,-327.5 1177.83,-324 1177.83,-331"/>
</g>
<!-- Node21&#45;&gt;Node8 -->
<g id="edge26" class="edge">
<title>Node21&#45;&gt;Node8</title>
<path fill="none" stroke="midnightblue" d="M1186.6,-350.49C1163.57,-356.23 1139.47,-362.23 1118.43,-367.46"/>
<polygon fill="midnightblue" stroke="midnightblue" points="1187.53,-353.87 1196.39,-348.06 1185.84,-347.08 1187.53,-353.87"/>
</g>
<!-- Node22&#45;&gt;Node8 -->
<g id="edge28" class="edge">
<title>Node22&#45;&gt;Node8</title>
<path fill="none" stroke="midnightblue" d="M1178.58,-385.23C1159.54,-384.8 1140.11,-384.36 1122.55,-383.96"/>
<polygon fill="midnightblue" stroke="midnightblue" points="1178.72,-388.73 1188.79,-385.46 1178.87,-381.73 1178.72,-388.73"/>
</g>
<!-- Node25 -->
<g id="node25" class="node">
<title>Node25</title>
<g id="a_node25"><a xlink:href="classdenoptim_1_1fragmenter_1_1_fragmenter_task.html#ad73de82da7bcd76c0159c2d5080682c4" target="_top" xlink:title="Performs the whatever work has to be done by this task.">
<polygon fill="white" stroke="black" points="1419.5,-49.5 1419.5,-79.5 1576.5,-79.5 1576.5,-49.5 1419.5,-49.5"/>
<text text-anchor="start" x="1427.5" y="-67.5" font-family="Helvetica,sans-Serif" font-size="10.00">denoptim.fragmenter.Fragmenter</text>
<text text-anchor="middle" x="1498" y="-56.5" font-family="Helvetica,sans-Serif" font-size="10.00">Task.call</text>
</a>
</g>
</g>
<!-- Node24&#45;&gt;Node25 -->
<g id="edge31" class="edge">
<title>Node24&#45;&gt;Node25</title>
<path fill="none" stroke="midnightblue" d="M1628.27,-91.39C1609.46,-87.48 1589.59,-83.35 1571.23,-79.53"/>
<polygon fill="midnightblue" stroke="midnightblue" points="1627.8,-94.87 1638.31,-93.48 1629.23,-88.02 1627.8,-94.87"/>
</g>
<!-- Node27 -->
<g id="node27" class="node">
<title>Node27</title>
<g id="a_node27"><a xlink:href="classdenoptim_1_1task_1_1_fitness_task.html#aa35dd8ab897188899e5498f953b6939e" target="_top" xlink:title=" ">
<polygon fill="white" stroke="black" points="1423.5,-206.5 1423.5,-236.5 1572.5,-236.5 1572.5,-206.5 1423.5,-206.5"/>
<text text-anchor="start" x="1431.5" y="-224.5" font-family="Helvetica,sans-Serif" font-size="10.00">denoptim.task.FitnessTask.run</text>
<text text-anchor="middle" x="1498" y="-213.5" font-family="Helvetica,sans-Serif" font-size="10.00">InternalFitness</text>
</a>
</g>
</g>
<!-- Node26&#45;&gt;Node27 -->
<g id="edge33" class="edge">
<title>Node26&#45;&gt;Node27</title>
<path fill="none" stroke="midnightblue" d="M1640.34,-221.5C1618.64,-221.5 1594.67,-221.5 1572.74,-221.5"/>
<polygon fill="midnightblue" stroke="midnightblue" points="1640.46,-225 1650.46,-221.5 1640.46,-218 1640.46,-225"/>
</g>
<!-- Node32 -->
<g id="node32" class="node">
<title>Node32</title>
<g id="a_node32"><a xlink:href="classdenoptim_1_1fitness_1_1_fitness_provider_test.html#a2272dbcf72c993b4544719ddf64c98b6" target="_top" xlink:title=" ">
<polygon fill="white" stroke="black" points="1425,-147 1425,-188 1571,-188 1571,-147 1425,-147"/>
<text text-anchor="start" x="1433" y="-176" font-family="Helvetica,sans-Serif" font-size="10.00">denoptim.fitness.Fitness</text>
<text text-anchor="start" x="1433" y="-165" font-family="Helvetica,sans-Serif" font-size="10.00">ProviderTest.testGetConstant</text>
<text text-anchor="middle" x="1498" y="-154" font-family="Helvetica,sans-Serif" font-size="10.00">Fitness</text>
</a>
</g>
</g>
<!-- Node26&#45;&gt;Node32 -->
<g id="edge39" class="edge">
<title>Node26&#45;&gt;Node32</title>
<path fill="none" stroke="midnightblue" d="M1641.74,-203.94C1619.15,-198.18 1593.98,-191.75 1571.15,-185.92"/>
<polygon fill="midnightblue" stroke="midnightblue" points="1641.03,-207.38 1651.59,-206.46 1642.76,-200.59 1641.03,-207.38"/>
</g>
<!-- Node33 -->
<g id="node33" class="node">
<title>Node33</title>
<g id="a_node33"><a xlink:href="classdenoptim_1_1fitness_1_1_fitness_provider_test.html#a797d2bef11fed4d885baa11089538b23" target="_top" xlink:title=" ">
<polygon fill="white" stroke="black" points="1428.5,-98.5 1428.5,-128.5 1567.5,-128.5 1567.5,-98.5 1428.5,-98.5"/>
<text text-anchor="start" x="1436.5" y="-116.5" font-family="Helvetica,sans-Serif" font-size="10.00">denoptim.fitness.Fitness</text>
<text text-anchor="middle" x="1498" y="-105.5" font-family="Helvetica,sans-Serif" font-size="10.00">ProviderTest.testGetFitness</text>
</a>
</g>
</g>
<!-- Node26&#45;&gt;Node33 -->
<g id="edge40" class="edge">
<title>Node26&#45;&gt;Node33</title>
<path fill="none" stroke="midnightblue" d="M1640.85,-207.41C1634.85,-204.67 1629.13,-201.4 1624,-197.5 1599.25,-178.67 1612.82,-156.24 1588,-137.5 1581.87,-132.87 1574.91,-129.13 1567.65,-126.12"/>
<polygon fill="midnightblue" stroke="midnightblue" points="1639.88,-210.79 1650.46,-211.28 1642.5,-204.29 1639.88,-210.79"/>
</g>
<!-- Node34 -->
<g id="node34" class="node">
<title>Node34</title>
<g id="a_node34"><a xlink:href="classdenoptim_1_1fitness_1_1_fitness_provider_test.html#a49819c248ea4d3acf19689f8d6fcec2c" target="_top" xlink:title=" ">
<polygon fill="white" stroke="black" points="1419,-315 1419,-356 1577,-356 1577,-315 1419,-315"/>
<text text-anchor="start" x="1427" y="-344" font-family="Helvetica,sans-Serif" font-size="10.00">denoptim.fitness.Fitness</text>
<text text-anchor="start" x="1427" y="-333" font-family="Helvetica,sans-Serif" font-size="10.00">ProviderTest.testGetFitnessWith</text>
<text text-anchor="middle" x="1498" y="-322" font-family="Helvetica,sans-Serif" font-size="10.00">CustomDescriptors</text>
</a>
</g>
</g>
<!-- Node26&#45;&gt;Node34 -->
<g id="edge41" class="edge">
<title>Node26&#45;&gt;Node34</title>
<path fill="none" stroke="midnightblue" d="M1684.09,-242.81C1660.14,-261.33 1623.29,-287.88 1588,-305.5 1581.29,-308.85 1574.12,-311.97 1566.87,-314.82"/>
<polygon fill="midnightblue" stroke="midnightblue" points="1686.28,-245.54 1692,-236.62 1681.97,-240.02 1686.28,-245.54"/>
</g>
<!-- Node35 -->
<g id="node35" class="node">
<title>Node35</title>
<g id="a_node35"><a xlink:href="classdenoptim_1_1fitness_1_1_fitness_provider_test.html#ac3684e1e2969ee1c883ab279d4d5c048" target="_top" xlink:title="This test is reproducing most of what done in FitnessParametersTest#testProcessExpressions() so if bo...">
<polygon fill="white" stroke="black" points="1419,-255 1419,-296 1577,-296 1577,-255 1419,-255"/>
<text text-anchor="start" x="1427" y="-284" font-family="Helvetica,sans-Serif" font-size="10.00">denoptim.fitness.Fitness</text>
<text text-anchor="start" x="1427" y="-273" font-family="Helvetica,sans-Serif" font-size="10.00">ProviderTest.testGetFitnessWith</text>
<text text-anchor="middle" x="1498" y="-262" font-family="Helvetica,sans-Serif" font-size="10.00">ParametrizedDescriptors</text>
</a>
</g>
</g>
<!-- Node26&#45;&gt;Node35 -->
<g id="edge42" class="edge">
<title>Node26&#45;&gt;Node35</title>
<path fill="none" stroke="midnightblue" d="M1641.69,-239.07C1621.15,-244.31 1598.48,-250.1 1577.37,-255.49"/>
<polygon fill="midnightblue" stroke="midnightblue" points="1642.76,-242.41 1651.59,-236.54 1641.03,-235.62 1642.76,-242.41"/>
</g>
<!-- Node28 -->
<g id="node28" class="node">
<title>Node28</title>
<g id="a_node28"><a xlink:href="classdenoptim_1_1task_1_1_fitness_task.html#a39bac06427179a7d067d3eadee30ba79" target="_top" xlink:title="This method runs the actual evaluation of the fitness, whether that is run internally (i....">
<polygon fill="white" stroke="black" points="1205.5,-210.5 1205.5,-240.5 1354.5,-240.5 1354.5,-210.5 1205.5,-210.5"/>
<text text-anchor="start" x="1213.5" y="-228.5" font-family="Helvetica,sans-Serif" font-size="10.00">denoptim.task.FitnessTask.run</text>
<text text-anchor="middle" x="1280" y="-217.5" font-family="Helvetica,sans-Serif" font-size="10.00">FitnessProvider</text>
</a>
</g>
</g>
<!-- Node27&#45;&gt;Node28 -->
<g id="edge34" class="edge">
<title>Node27&#45;&gt;Node28</title>
<path fill="none" stroke="midnightblue" d="M1413.03,-223.06C1393.81,-223.41 1373.52,-223.79 1354.77,-224.13"/>
<polygon fill="midnightblue" stroke="midnightblue" points="1413.34,-226.55 1423.27,-222.87 1413.21,-219.55 1413.34,-226.55"/>
</g>
<!-- Node29 -->
<g id="node29" class="node">
<title>Node29</title>
<g id="a_node29"><a xlink:href="classdenoptim_1_1ga_1_1_offspring_evaluation_task.html#aab5b9c0b8a88922460f5c28ae161d1fa" target="_top" xlink:title=" ">
<polygon fill="white" stroke="black" points="979.5,-212.5 979.5,-242.5 1134.5,-242.5 1134.5,-212.5 979.5,-212.5"/>
<text text-anchor="start" x="987.5" y="-230.5" font-family="Helvetica,sans-Serif" font-size="10.00">denoptim.ga.OffspringEvaluation</text>
<text text-anchor="middle" x="1057" y="-219.5" font-family="Helvetica,sans-Serif" font-size="10.00">Task.call</text>
</a>
</g>
</g>
<!-- Node28&#45;&gt;Node29 -->
<g id="edge35" class="edge">
<title>Node28&#45;&gt;Node29</title>
<path fill="none" stroke="midnightblue" d="M1195.15,-226.26C1175.28,-226.44 1154.2,-226.63 1134.67,-226.81"/>
<polygon fill="midnightblue" stroke="midnightblue" points="1195.44,-229.76 1205.41,-226.17 1195.38,-222.76 1195.44,-229.76"/>
</g>
<!-- Node30 -->
<g id="node30" class="node">
<title>Node30</title>
<g id="a_node30"><a xlink:href="classdenoptim_1_1programs_1_1fitnessevaluator_1_1_fitness_evaluation_task.html#a498b4214d06fc161d92cf1a38635ece3" target="_top" xlink:title=" ">
<polygon fill="white" stroke="black" points="971,-261.5 971,-291.5 1143,-291.5 1143,-261.5 971,-261.5"/>
<text text-anchor="start" x="979" y="-279.5" font-family="Helvetica,sans-Serif" font-size="10.00">denoptim.programs.fitnessevaluator.</text>
<text text-anchor="middle" x="1057" y="-268.5" font-family="Helvetica,sans-Serif" font-size="10.00">FitnessEvaluationTask.call</text>
</a>
</g>
</g>
<!-- Node28&#45;&gt;Node30 -->
<g id="edge36" class="edge">
<title>Node28&#45;&gt;Node30</title>
<path fill="none" stroke="midnightblue" d="M1203.98,-242.81C1177.7,-248.88 1148.42,-255.63 1123.03,-261.49"/>
<polygon fill="midnightblue" stroke="midnightblue" points="1204.93,-246.18 1213.89,-240.53 1203.36,-239.36 1204.93,-246.18"/>
</g>
<!-- Node31 -->
<g id="node31" class="node">
<title>Node31</title>
<g id="a_node31"><a xlink:href="classdenoptim_1_1combinatorial_1_1_graph_building_task.html#a6b74fb1e5678145e094259bfa2401bd4" target="_top" xlink:title=" ">
<polygon fill="white" stroke="black" points="969,-163.5 969,-193.5 1145,-193.5 1145,-163.5 969,-163.5"/>
<text text-anchor="start" x="977" y="-181.5" font-family="Helvetica,sans-Serif" font-size="10.00">denoptim.combinatorial.Graph</text>
<text text-anchor="middle" x="1057" y="-170.5" font-family="Helvetica,sans-Serif" font-size="10.00">BuildingTask.sendToFitnessProvider</text>
</a>
</g>
</g>
<!-- Node28&#45;&gt;Node31 -->
<g id="edge37" class="edge">
<title>Node28&#45;&gt;Node31</title>
<path fill="none" stroke="midnightblue" d="M1198.45,-208.37C1175.58,-203.51 1150.86,-198.25 1128.62,-193.52"/>
<polygon fill="midnightblue" stroke="midnightblue" points="1197.96,-211.84 1208.47,-210.5 1199.41,-205 1197.96,-211.84"/>
</g>
<!-- Node31&#45;&gt;Node7 -->
<g id="edge38" class="edge">
<title>Node31&#45;&gt;Node7</title>
<path fill="none" stroke="midnightblue" d="M989.41,-196.16C980.2,-198.62 970.86,-201.12 962,-203.5 942.79,-208.67 921.77,-214.37 903.07,-219.46"/>
<polygon fill="midnightblue" stroke="midnightblue" points="990.56,-199.48 999.32,-193.52 988.76,-192.71 990.56,-199.48"/>
</g>
<!-- Node37 -->
<g id="node37" class="node">
<title>Node37</title>
<g id="a_node37"><a xlink:href="classdenoptim_1_1programs_1_1fragmenter_1_1_matched_bond.html#a2bf2fb6eb5b31a9fa4bf1086c420052e" target="_top" xlink:title="Checks if this bond satisfies all the option of the cutting rule.">
<polygon fill="white" stroke="black" points="1414,-0.5 1414,-30.5 1582,-30.5 1582,-0.5 1414,-0.5"/>
<text text-anchor="start" x="1422" y="-18.5" font-family="Helvetica,sans-Serif" font-size="10.00">denoptim.programs.fragmenter.</text>
<text text-anchor="middle" x="1498" y="-7.5" font-family="Helvetica,sans-Serif" font-size="10.00">MatchedBond.satisfiesRuleOptions</text>
</a>
</g>
</g>
<!-- Node36&#45;&gt;Node37 -->
<g id="edge44" class="edge">
<title>Node36&#45;&gt;Node37</title>
<path fill="none" stroke="midnightblue" d="M1625.85,-24.5C1611.44,-23.47 1596.48,-22.41 1582.11,-21.39"/>
<polygon fill="midnightblue" stroke="midnightblue" points="1626.01,-28.02 1636.23,-25.23 1626.5,-21.03 1626.01,-28.02"/>
</g>
</g>
</svg>
        <g id="navigator" transform="translate(0 0)" fill="#404254">
                <rect fill="#f2f5e9" fill-opacity="0.5" stroke="#606060" stroke-width=".5" x="0" y="0" width="60" height="60"/>
                <use id="zoomplus" xlink:href="#zoomPlus" x="17" y="9" onmousedown="handleZoom(evt,'in')"/>
                <use id="zoomminus" xlink:href="#zoomMin" x="42" y="9" onmousedown="handleZoom(evt,'out')"/>
                <use id="reset" xlink:href="#resetDef" x="30" y="36" onmousedown="handleReset()"/>
                <g id="arrowUp" xlink:href="#dirArrow" transform="translate(30 24)" onmousedown="handlePan(0,-1)">
                  <use xlink:href="#rim" fill="#404040">
                        <set attributeName="fill" to="#808080" begin="arrowUp.mouseover" end="arrowUp.mouseout"/>
                  </use>
                  <path fill="none" stroke="white" stroke-width="1.5" d="M0,-3.0v7 M-2.5,-0.5L0,-3.0L2.5,-0.5"/>
                </g>
                <g id="arrowRight" xlink:href="#dirArrow" transform="rotate(90) translate(36 -43)" onmousedown="handlePan(1,0)">
                  <use xlink:href="#rim" fill="#404040">
                        <set attributeName="fill" to="#808080" begin="arrowRight.mouseover" end="arrowRight.mouseout"/>
                  </use>
                  <path fill="none" stroke="white" stroke-width="1.5" d="M0,-3.0v7 M-2.5,-0.5L0,-3.0L2.5,-0.5"/>
                </g>
                <g id="arrowDown" xlink:href="#dirArrow" transform="rotate(180) translate(-30 -48)" onmousedown="handlePan(0,1)">
                  <use xlink:href="#rim" fill="#404040">
                        <set attributeName="fill" to="#808080" begin="arrowDown.mouseover" end="arrowDown.mouseout"/>
                  </use>
                  <path fill="none" stroke="white" stroke-width="1.5" d="M0,-3.0v7 M-2.5,-0.5L0,-3.0L2.5,-0.5"/>
                </g>
                <g id="arrowLeft" xlink:href="#dirArrow" transform="rotate(270) translate(-36 17)" onmousedown="handlePan(-1,0)">
                  <use xlink:href="#rim" fill="#404040">
                        <set attributeName="fill" to="#808080" begin="arrowLeft.mouseover" end="arrowLeft.mouseout"/>
                  </use>
                  <path fill="none" stroke="white" stroke-width="1.5" d="M0,-3.0v7 M-2.5,-0.5L0,-3.0L2.5,-0.5"/>
                </g>
        </g>
        <svg viewBox="0 0 15 15" width="100%" height="30px" preserveAspectRatio="xMaxYMin meet">
         <g id="arrow_out" transform="scale(0.3 0.3)">
          <a xlink:href="classdenoptim_1_1utils_1_1_many_s_m_a_r_t_s_query_aaffb007354a24c9fb679742e431c9980_icgraph_org.svg" target="_base">
           <rect id="button" ry="5" rx="5" y="6" x="6" height="38" width="38"
                fill="#f2f5e9" fill-opacity="0.5" stroke="#606060" stroke-width="1.0"/>
           <path id="arrow"
             d="M 11.500037,31.436501 C 11.940474,20.09759 22.043105,11.32322 32.158766,21.979434 L 37.068811,17.246167 C 37.068811,17.246167 37.088388,32 37.088388,32 L 22.160133,31.978069 C 22.160133,31.978069 26.997745,27.140456 26.997745,27.140456 C 18.528582,18.264221 13.291696,25.230495 11.500037,31.436501 z"
             style="fill:#404040;"/>
          </a>
         </g>
        </svg>
</svg>
