<?xml version="1.0" encoding="UTF-8" standalone="no"?>
<!DOCTYPE svg PUBLIC "-//W3C//DTD SVG 1.1//EN"
 "http://www.w3.org/Graphics/SVG/1.1/DTD/svg11.dtd">
<!-- Generated by graphviz version 3.0.0 (20221109.1736)
 -->
<!-- Title: denoptim.graph.DGraph.findSymmetrySetsOfChildVertexes Pages: 1 -->
<svg width="1106pt" height="530pt"
 viewBox="0.00 0.00 1106.00 530.00" xmlns="http://www.w3.org/2000/svg" xmlns:xlink="http://www.w3.org/1999/xlink">
<g id="graph0" class="graph" transform="scale(1 1) rotate(0) translate(4 526)">
<title>denoptim.graph.DGraph.findSymmetrySetsOfChildVertexes</title>
<polygon fill="white" stroke="transparent" points="-4,4 -4,-526 1102,-526 1102,4 -4,4"/>
<!-- Node1 -->
<g id="node1" class="node">
<title>Node1</title>
<g id="a_node1"><a xlink:title=" ">
<polygon fill="#bfbfbf" stroke="black" points="0,-115.5 0,-145.5 151,-145.5 151,-115.5 0,-115.5"/>
<text text-anchor="start" x="8" y="-133.5" font-family="Helvetica,sans-Serif" font-size="10.00">denoptim.graph.DGraph.find</text>
<text text-anchor="middle" x="75.5" y="-122.5" font-family="Helvetica,sans-Serif" font-size="10.00">SymmetrySetsOfChildVertexes</text>
</a>
</g>
</g>
<!-- Node2 -->
<g id="node2" class="node">
<title>Node2</title>
<g id="a_node2"><a xlink:href="classdenoptim_1_1graph_1_1_symmetric_set.html#aa3db3c29bdb4ed481b63257a2ffa1b14" target="_top" xlink:title="Adds an item to this list, if not already present.">
<polygon fill="white" stroke="black" points="192,-225.5 192,-255.5 323,-255.5 323,-225.5 192,-225.5"/>
<text text-anchor="start" x="200" y="-243.5" font-family="Helvetica,sans-Serif" font-size="10.00">denoptim.graph.Symmetric</text>
<text text-anchor="middle" x="257.5" y="-232.5" font-family="Helvetica,sans-Serif" font-size="10.00">Set.add</text>
</a>
</g>
</g>
<!-- Node1&#45;&gt;Node2 -->
<g id="edge1" class="edge">
<title>Node1&#45;&gt;Node2</title>
<path fill="none" stroke="midnightblue" d="M94.81,-145.7C116.07,-162.86 152.62,-190.95 187,-210.5 193.75,-214.34 201.08,-218 208.37,-221.37"/>
<polygon fill="midnightblue" stroke="midnightblue" points="206.98,-224.58 217.53,-225.46 209.83,-218.19 206.98,-224.58"/>
</g>
<!-- Node3 -->
<g id="node3" class="node">
<title>Node3</title>
<g id="a_node3"><a xlink:href="classdenoptim_1_1graph_1_1_d_graph.html#ad38e8849839cb63835e727530ca124d9" target="_top" xlink:title="Checks if the Vertexs that are attached to two given AttachmentPoints apA and apB satisfy these condi...">
<polygon fill="white" stroke="black" points="187,-137.5 187,-167.5 328,-167.5 328,-137.5 187,-137.5"/>
<text text-anchor="start" x="195" y="-155.5" font-family="Helvetica,sans-Serif" font-size="10.00">denoptim.graph.DGraph.are</text>
<text text-anchor="middle" x="257.5" y="-144.5" font-family="Helvetica,sans-Serif" font-size="10.00">ApsUsedBySymmetricUsers</text>
</a>
</g>
</g>
<!-- Node1&#45;&gt;Node3 -->
<g id="edge2" class="edge">
<title>Node1&#45;&gt;Node3</title>
<path fill="none" stroke="midnightblue" d="M151.01,-139.61C159.56,-140.65 168.31,-141.72 176.92,-142.77"/>
<polygon fill="midnightblue" stroke="midnightblue" points="176.6,-146.26 186.95,-144 177.45,-139.31 176.6,-146.26"/>
</g>
<!-- Node4 -->
<g id="node4" class="node">
<title>Node4</title>
<g id="a_node4"><a xlink:href="classdenoptim_1_1graph_1_1_attachment_point.html#adfc2840f3e5126d847c8d800082f8958" target="_top" xlink:title="Gets the attachment point (AP) that is connected to this AP via the edge user or in any edge user tha...">
<polygon fill="white" stroke="black" points="366.5,-319.5 366.5,-349.5 512.5,-349.5 512.5,-319.5 366.5,-319.5"/>
<text text-anchor="start" x="374.5" y="-337.5" font-family="Helvetica,sans-Serif" font-size="10.00">denoptim.graph.Attachment</text>
<text text-anchor="middle" x="439.5" y="-326.5" font-family="Helvetica,sans-Serif" font-size="10.00">Point.getLinkedAPThroughout</text>
</a>
</g>
</g>
<!-- Node1&#45;&gt;Node4 -->
<g id="edge27" class="edge">
<title>Node1&#45;&gt;Node4</title>
<path fill="none" stroke="midnightblue" d="M109.93,-145.7C131.64,-155.24 160.68,-167.42 187,-176.5 248.47,-197.7 272.44,-181.73 328,-215.5 349.36,-228.48 394.15,-280.58 419.66,-311.37"/>
<polygon fill="midnightblue" stroke="midnightblue" points="417.25,-313.95 426.31,-319.44 422.65,-309.5 417.25,-313.95"/>
</g>
<!-- Node14 -->
<g id="node14" class="node">
<title>Node14</title>
<g id="a_node14"><a xlink:href="classdenoptim_1_1graph_1_1_attachment_point.html#ac8551521d38644f5109800b665957ee9" target="_top" xlink:title=" ">
<polygon fill="white" stroke="black" points="372,-31.5 372,-61.5 507,-61.5 507,-31.5 372,-31.5"/>
<text text-anchor="start" x="380" y="-49.5" font-family="Helvetica,sans-Serif" font-size="10.00">denoptim.graph.Attachment</text>
<text text-anchor="middle" x="439.5" y="-38.5" font-family="Helvetica,sans-Serif" font-size="10.00">Point.getOwner</text>
</a>
</g>
</g>
<!-- Node1&#45;&gt;Node14 -->
<g id="edge28" class="edge">
<title>Node1&#45;&gt;Node14</title>
<path fill="none" stroke="midnightblue" d="M151.21,-123.49C201.92,-117.41 270.02,-106.65 328,-88.5 344.89,-83.21 347.58,-78.1 364,-71.5 369.51,-69.28 375.31,-67.09 381.13,-64.99"/>
<polygon fill="midnightblue" stroke="midnightblue" points="382.64,-68.17 390.9,-61.54 380.31,-61.57 382.64,-68.17"/>
</g>
<!-- Node21 -->
<g id="node21" class="node">
<title>Node21</title>
<g id="a_node21"><a xlink:href="classdenoptim_1_1graph_1_1_vertex.html#a85aa901ec3fff8e566c0cc32d9c9f84e" target="_top" xlink:title=" ">
<polygon fill="white" stroke="black" points="193.5,-49.5 193.5,-79.5 321.5,-79.5 321.5,-49.5 193.5,-49.5"/>
<text text-anchor="start" x="201.5" y="-67.5" font-family="Helvetica,sans-Serif" font-size="10.00">denoptim.graph.Vertex.get</text>
<text text-anchor="middle" x="257.5" y="-56.5" font-family="Helvetica,sans-Serif" font-size="10.00">AttachmentPoints</text>
</a>
</g>
</g>
<!-- Node1&#45;&gt;Node21 -->
<g id="edge26" class="edge">
<title>Node1&#45;&gt;Node21</title>
<path fill="none" stroke="midnightblue" d="M117.8,-115.36C143.98,-105.76 178.03,-93.27 205.84,-83.07"/>
<polygon fill="midnightblue" stroke="midnightblue" points="207.21,-86.3 215.4,-79.57 204.8,-79.73 207.21,-86.3"/>
</g>
<!-- Node22 -->
<g id="node22" class="node">
<title>Node22</title>
<g id="a_node22"><a xlink:href="classdenoptim_1_1graph_1_1_vertex.html#a9542f18a17ab836ed3ade18348b22f3c" target="_top" xlink:title=" ">
<polygon fill="white" stroke="black" points="193.5,-0.5 193.5,-30.5 321.5,-30.5 321.5,-0.5 193.5,-0.5"/>
<text text-anchor="start" x="201.5" y="-18.5" font-family="Helvetica,sans-Serif" font-size="10.00">denoptim.graph.Vertex.get</text>
<text text-anchor="middle" x="257.5" y="-7.5" font-family="Helvetica,sans-Serif" font-size="10.00">SymmetricAPSets</text>
</a>
</g>
</g>
<!-- Node1&#45;&gt;Node22 -->
<g id="edge29" class="edge">
<title>Node1&#45;&gt;Node22</title>
<path fill="none" stroke="midnightblue" d="M91.29,-115.32C111.35,-95.48 149.06,-60.76 187,-39.5 190.04,-37.79 193.23,-36.18 196.49,-34.66"/>
<polygon fill="midnightblue" stroke="midnightblue" points="198.06,-37.79 205.84,-30.6 195.27,-31.37 198.06,-37.79"/>
</g>
<!-- Node3&#45;&gt;Node4 -->
<g id="edge3" class="edge">
<title>Node3&#45;&gt;Node4</title>
<path fill="none" stroke="midnightblue" d="M304.69,-167.54C313.01,-171.56 321.2,-176.5 328,-182.5 351.61,-203.32 345.98,-217.69 364,-243.5 380.93,-267.74 402.55,-293.68 418.13,-311.63"/>
<polygon fill="midnightblue" stroke="midnightblue" points="415.61,-314.07 424.83,-319.29 420.88,-309.46 415.61,-314.07"/>
</g>
<!-- Node3&#45;&gt;Node14 -->
<g id="edge17" class="edge">
<title>Node3&#45;&gt;Node14</title>
<path fill="none" stroke="midnightblue" d="M303.58,-137.36C312.18,-133.31 320.76,-128.38 328,-122.5 349.54,-105.02 341.75,-88.07 364,-71.5 366.49,-69.65 369.13,-67.92 371.87,-66.32"/>
<polygon fill="midnightblue" stroke="midnightblue" points="373.64,-69.35 380.9,-61.63 370.41,-63.14 373.64,-69.35"/>
</g>
<!-- Node15 -->
<g id="node15" class="node">
<title>Node15</title>
<g id="a_node15"><a xlink:href="classdenoptim_1_1graph_1_1_fragment.html#a6137d8c74ece46574e14b9a3cd02d00d" target="_top" xlink:title="Checks for isomorphism of the graph representation of this and another fragment.">
<polygon fill="white" stroke="black" points="371.5,-204.5 371.5,-234.5 507.5,-234.5 507.5,-204.5 371.5,-204.5"/>
<text text-anchor="start" x="379.5" y="-222.5" font-family="Helvetica,sans-Serif" font-size="10.00">denoptim.graph.Fragment.is</text>
<text text-anchor="middle" x="439.5" y="-211.5" font-family="Helvetica,sans-Serif" font-size="10.00">IsomorphicTo</text>
</a>
</g>
</g>
<!-- Node3&#45;&gt;Node15 -->
<g id="edge18" class="edge">
<title>Node3&#45;&gt;Node15</title>
<path fill="none" stroke="midnightblue" d="M294.93,-167.58C315.17,-175.81 340.86,-186.02 364,-194.5 369.97,-196.69 376.23,-198.91 382.49,-201.07"/>
<polygon fill="midnightblue" stroke="midnightblue" points="381.67,-204.49 392.26,-204.42 383.94,-197.87 381.67,-204.49"/>
</g>
<!-- Node19 -->
<g id="node19" class="node">
<title>Node19</title>
<g id="a_node19"><a xlink:href="classdenoptim_1_1graph_1_1_attachment_point.html#ab1226264e663d411606bc5af27dd921e" target="_top" xlink:title="Compares the features of this and another attachment point and decides if the two are same.">
<polygon fill="white" stroke="black" points="372,-137.5 372,-167.5 507,-167.5 507,-137.5 372,-137.5"/>
<text text-anchor="start" x="380" y="-155.5" font-family="Helvetica,sans-Serif" font-size="10.00">denoptim.graph.Attachment</text>
<text text-anchor="middle" x="439.5" y="-144.5" font-family="Helvetica,sans-Serif" font-size="10.00">Point.sameAs</text>
</a>
</g>
</g>
<!-- Node3&#45;&gt;Node19 -->
<g id="edge22" class="edge">
<title>Node3&#45;&gt;Node19</title>
<path fill="none" stroke="midnightblue" d="M328.09,-152.5C339.08,-152.5 350.49,-152.5 361.62,-152.5"/>
<polygon fill="midnightblue" stroke="midnightblue" points="361.75,-156 371.75,-152.5 361.75,-149 361.75,-156"/>
</g>
<!-- Node20 -->
<g id="node20" class="node">
<title>Node20</title>
<g id="a_node20"><a xlink:href="classdenoptim_1_1graph_1_1_vertex.html#ab5ad2e99d1398d6b1ef5504774fc4921" target="_top" xlink:title="Compares this and another vertex ignoring vertex IDs.">
<polygon fill="white" stroke="black" points="364,-81 364,-100 515,-100 515,-81 364,-81"/>
<text text-anchor="middle" x="439.5" y="-88" font-family="Helvetica,sans-Serif" font-size="10.00">denoptim.graph.Vertex.sameAs</text>
</a>
</g>
</g>
<!-- Node3&#45;&gt;Node20 -->
<g id="edge24" class="edge">
<title>Node3&#45;&gt;Node20</title>
<path fill="none" stroke="midnightblue" d="M302.07,-137.49C332.32,-127.07 372.21,-113.33 401.03,-103.41"/>
<polygon fill="midnightblue" stroke="midnightblue" points="402.41,-106.63 410.73,-100.07 400.13,-100.01 402.41,-106.63"/>
</g>
<!-- Node5 -->
<g id="node5" class="node">
<title>Node5</title>
<g id="a_node5"><a xlink:href="classdenoptim_1_1graph_1_1_attachment_point.html#aa1ae3c328e8ea24ead206b822daca7f7" target="_top" xlink:title="Gets the edge that is using this AP, or null if no edge is using this AP.">
<polygon fill="white" stroke="black" points="569,-467.5 569,-497.5 715,-497.5 715,-467.5 569,-467.5"/>
<text text-anchor="start" x="577" y="-485.5" font-family="Helvetica,sans-Serif" font-size="10.00">denoptim.graph.Attachment</text>
<text text-anchor="middle" x="642" y="-474.5" font-family="Helvetica,sans-Serif" font-size="10.00">Point.getEdgeUserThroughout</text>
</a>
</g>
</g>
<!-- Node4&#45;&gt;Node5 -->
<g id="edge4" class="edge">
<title>Node4&#45;&gt;Node5</title>
<path fill="none" stroke="midnightblue" d="M450.91,-349.82C468.63,-374.8 507.05,-424.33 551,-452.5 557.53,-456.69 564.71,-460.35 572.07,-463.54"/>
<polygon fill="midnightblue" stroke="midnightblue" points="570.88,-466.83 581.46,-467.33 573.5,-460.34 570.88,-466.83"/>
</g>
<!-- Node9 -->
<g id="node9" class="node">
<title>Node9</title>
<g id="a_node9"><a xlink:href="classdenoptim_1_1graph_1_1_attachment_point.html#a0e96f6c954de060a628eb3de1b2f4554" target="_top" xlink:title="For vertices that are templates this method returns the attachment point that is embedded in the temp...">
<polygon fill="white" stroke="black" points="772,-341.5 772,-371.5 907,-371.5 907,-341.5 772,-341.5"/>
<text text-anchor="start" x="780" y="-359.5" font-family="Helvetica,sans-Serif" font-size="10.00">denoptim.graph.Attachment</text>
<text text-anchor="middle" x="839.5" y="-348.5" font-family="Helvetica,sans-Serif" font-size="10.00">Point.getEmbeddedAP</text>
</a>
</g>
</g>
<!-- Node4&#45;&gt;Node9 -->
<g id="edge9" class="edge">
<title>Node4&#45;&gt;Node9</title>
<path fill="none" stroke="midnightblue" d="M453.66,-349.5C472.72,-369.95 510.21,-405.63 551,-419.5 627.58,-445.55 655.02,-441.01 733,-419.5 762.33,-411.41 791.73,-392.78 812.01,-377.86"/>
<polygon fill="midnightblue" stroke="midnightblue" points="814.25,-380.56 820.12,-371.74 810.03,-374.97 814.25,-380.56"/>
</g>
<!-- Node10 -->
<g id="node10" class="node">
<title>Node10</title>
<g id="a_node10"><a xlink:href="classdenoptim_1_1graph_1_1_edge.html#a658e275a18a50f12474777f5f28c35e9" target="_top" xlink:title=" ">
<polygon fill="white" stroke="black" points="566.5,-391 566.5,-410 717.5,-410 717.5,-391 566.5,-391"/>
<text text-anchor="middle" x="642" y="-398" font-family="Helvetica,sans-Serif" font-size="10.00">denoptim.graph.Edge.getSrcAP</text>
</a>
</g>
</g>
<!-- Node4&#45;&gt;Node10 -->
<g id="edge11" class="edge">
<title>Node4&#45;&gt;Node10</title>
<path fill="none" stroke="midnightblue" d="M471.33,-349.52C493.16,-359.69 523.36,-372.8 551,-381.5 559.41,-384.15 568.38,-386.54 577.28,-388.66"/>
<polygon fill="midnightblue" stroke="midnightblue" points="576.73,-392.12 587.26,-390.94 578.29,-385.3 576.73,-392.12"/>
</g>
<!-- Node11 -->
<g id="node11" class="node">
<title>Node11</title>
<g id="a_node11"><a xlink:href="classdenoptim_1_1graph_1_1_edge.html#a20a0c78541321532267b2fda0a6b634b" target="_top" xlink:title=" ">
<polygon fill="white" stroke="black" points="573.5,-341.5 573.5,-371.5 710.5,-371.5 710.5,-341.5 573.5,-341.5"/>
<text text-anchor="start" x="581.5" y="-359.5" font-family="Helvetica,sans-Serif" font-size="10.00">denoptim.graph.Edge.getSrc</text>
<text text-anchor="middle" x="642" y="-348.5" font-family="Helvetica,sans-Serif" font-size="10.00">APThroughout</text>
</a>
</g>
</g>
<!-- Node4&#45;&gt;Node11 -->
<g id="edge12" class="edge">
<title>Node4&#45;&gt;Node11</title>
<path fill="none" stroke="midnightblue" d="M512.6,-342.41C528.96,-344.21 546.42,-346.12 563.01,-347.94"/>
<polygon fill="midnightblue" stroke="midnightblue" points="562.89,-351.45 573.22,-349.06 563.66,-344.49 562.89,-351.45"/>
</g>
<!-- Node12 -->
<g id="node12" class="node">
<title>Node12</title>
<g id="a_node12"><a xlink:href="classdenoptim_1_1graph_1_1_edge.html#a44521a3ad1a83e5d0a6be227e35ceffa" target="_top" xlink:title=" ">
<polygon fill="white" stroke="black" points="567,-303 567,-322 717,-322 717,-303 567,-303"/>
<text text-anchor="middle" x="642" y="-310" font-family="Helvetica,sans-Serif" font-size="10.00">denoptim.graph.Edge.getTrgAP</text>
</a>
</g>
</g>
<!-- Node4&#45;&gt;Node12 -->
<g id="edge14" class="edge">
<title>Node4&#45;&gt;Node12</title>
<path fill="none" stroke="midnightblue" d="M512.6,-326.59C526.92,-325.02 542.08,-323.35 556.76,-321.74"/>
<polygon fill="midnightblue" stroke="midnightblue" points="557.28,-325.21 566.84,-320.64 556.52,-318.25 557.28,-325.21"/>
</g>
<!-- Node13 -->
<g id="node13" class="node">
<title>Node13</title>
<g id="a_node13"><a xlink:href="classdenoptim_1_1graph_1_1_edge.html#ae5c20718860e84083e008b5bef44e1ae" target="_top" xlink:title=" ">
<polygon fill="white" stroke="black" points="573.5,-253.5 573.5,-283.5 710.5,-283.5 710.5,-253.5 573.5,-253.5"/>
<text text-anchor="start" x="581.5" y="-271.5" font-family="Helvetica,sans-Serif" font-size="10.00">denoptim.graph.Edge.getTrg</text>
<text text-anchor="middle" x="642" y="-260.5" font-family="Helvetica,sans-Serif" font-size="10.00">APThroughout</text>
</a>
</g>
</g>
<!-- Node4&#45;&gt;Node13 -->
<g id="edge15" class="edge">
<title>Node4&#45;&gt;Node13</title>
<path fill="none" stroke="midnightblue" d="M478.58,-319.47C499.75,-311.34 526.67,-301.38 551,-293.5 558.57,-291.05 566.54,-288.62 574.48,-286.29"/>
<polygon fill="midnightblue" stroke="midnightblue" points="575.49,-289.65 584.13,-283.51 573.55,-282.92 575.49,-289.65"/>
</g>
<!-- Node5&#45;&gt;Node5 -->
<g id="edge5" class="edge">
<title>Node5&#45;&gt;Node5</title>
<path fill="none" stroke="midnightblue" d="M607.84,-497.66C599.61,-507.06 610.99,-516 642,-516 660.9,-516 672.5,-512.68 676.83,-507.96"/>
<polygon fill="midnightblue" stroke="midnightblue" points="680.3,-507.41 676.16,-497.66 673.31,-507.87 680.3,-507.41"/>
</g>
<!-- Node6 -->
<g id="node6" class="node">
<title>Node6</title>
<g id="a_node6"><a xlink:href="classdenoptim_1_1graph_1_1_vertex.html#a6615f1c869173b8bd6d730c6683b9de4" target="_top" xlink:title="Returns the graph this vertex belongs to or null.">
<polygon fill="white" stroke="black" points="775.5,-491.5 775.5,-521.5 903.5,-521.5 903.5,-491.5 775.5,-491.5"/>
<text text-anchor="start" x="783.5" y="-509.5" font-family="Helvetica,sans-Serif" font-size="10.00">denoptim.graph.Vertex.get</text>
<text text-anchor="middle" x="839.5" y="-498.5" font-family="Helvetica,sans-Serif" font-size="10.00">GraphOwner</text>
</a>
</g>
</g>
<!-- Node5&#45;&gt;Node6 -->
<g id="edge6" class="edge">
<title>Node5&#45;&gt;Node6</title>
<path fill="none" stroke="midnightblue" d="M715.24,-491.37C731.55,-493.37 748.87,-495.5 765.21,-497.5"/>
<polygon fill="midnightblue" stroke="midnightblue" points="764.9,-500.99 775.25,-498.73 765.75,-494.04 764.9,-500.99"/>
</g>
<!-- Node7 -->
<g id="node7" class="node">
<title>Node7</title>
<g id="a_node7"><a xlink:href="classdenoptim_1_1graph_1_1_template.html#aca9a03a1d6e2fd5de8f859f18996ec62" target="_top" xlink:title=" ">
<polygon fill="white" stroke="black" points="769,-442.5 769,-472.5 910,-472.5 910,-442.5 769,-442.5"/>
<text text-anchor="start" x="777" y="-460.5" font-family="Helvetica,sans-Serif" font-size="10.00">denoptim.graph.Template.get</text>
<text text-anchor="middle" x="839.5" y="-449.5" font-family="Helvetica,sans-Serif" font-size="10.00">OuterAPFromInnerAP</text>
</a>
</g>
</g>
<!-- Node5&#45;&gt;Node7 -->
<g id="edge7" class="edge">
<title>Node5&#45;&gt;Node7</title>
<path fill="none" stroke="midnightblue" d="M715.24,-473.26C729.33,-471.46 744.19,-469.56 758.51,-467.73"/>
<polygon fill="midnightblue" stroke="midnightblue" points="759.36,-471.15 768.83,-466.41 758.47,-464.21 759.36,-471.15"/>
</g>
<!-- Node8 -->
<g id="node8" class="node">
<title>Node8</title>
<g id="a_node8"><a xlink:href="classdenoptim_1_1graph_1_1_a_p_tree_map.html#abb77efcfaa507592758e7fd4845bdd80" target="_top" xlink:title=" ">
<polygon fill="white" stroke="black" points="946,-448 946,-467 1098,-467 1098,-448 946,-448"/>
<text text-anchor="middle" x="1022" y="-455" font-family="Helvetica,sans-Serif" font-size="10.00">denoptim.graph.APTreeMap.get</text>
</a>
</g>
</g>
<!-- Node7&#45;&gt;Node8 -->
<g id="edge8" class="edge">
<title>Node7&#45;&gt;Node8</title>
<path fill="none" stroke="midnightblue" d="M910.03,-457.5C918.45,-457.5 927.13,-457.5 935.74,-457.5"/>
<polygon fill="midnightblue" stroke="midnightblue" points="935.81,-461 945.81,-457.5 935.81,-454 935.81,-461"/>
</g>
<!-- Node9&#45;&gt;Node9 -->
<g id="edge10" class="edge">
<title>Node9&#45;&gt;Node9</title>
<path fill="none" stroke="midnightblue" d="M807.78,-371.66C800.13,-381.06 810.71,-390 839.5,-390 857.05,-390 867.83,-386.68 871.84,-381.96"/>
<polygon fill="midnightblue" stroke="midnightblue" points="875.31,-381.43 871.22,-371.66 868.33,-381.85 875.31,-381.43"/>
</g>
<!-- Node11&#45;&gt;Node9 -->
<g id="edge13" class="edge">
<title>Node11&#45;&gt;Node9</title>
<path fill="none" stroke="midnightblue" d="M710.55,-356.5C727.01,-356.5 744.72,-356.5 761.57,-356.5"/>
<polygon fill="midnightblue" stroke="midnightblue" points="761.94,-360 771.94,-356.5 761.94,-353 761.94,-360"/>
</g>
<!-- Node13&#45;&gt;Node9 -->
<g id="edge16" class="edge">
<title>Node13&#45;&gt;Node9</title>
<path fill="none" stroke="midnightblue" d="M705.72,-283.59C715.01,-286.49 724.35,-289.8 733,-293.5 759.82,-304.99 788.09,-322.18 808.61,-335.7"/>
<polygon fill="midnightblue" stroke="midnightblue" points="806.93,-338.79 817.18,-341.44 810.82,-332.97 806.93,-338.79"/>
</g>
<!-- Node16 -->
<g id="node16" class="node">
<title>Node16</title>
<g id="a_node16"><a xlink:href="classdenoptim_1_1graph_1_1_fragment.html#ad9843701125210a688964d85a77bfac4" target="_top" xlink:title="Constructor of an empty fragment.">
<polygon fill="white" stroke="black" points="578,-204.5 578,-234.5 706,-234.5 706,-204.5 578,-204.5"/>
<text text-anchor="start" x="586" y="-222.5" font-family="Helvetica,sans-Serif" font-size="10.00">denoptim.graph.Fragment.</text>
<text text-anchor="middle" x="642" y="-211.5" font-family="Helvetica,sans-Serif" font-size="10.00">Fragment</text>
</a>
</g>
</g>
<!-- Node15&#45;&gt;Node16 -->
<g id="edge19" class="edge">
<title>Node15&#45;&gt;Node16</title>
<path fill="none" stroke="midnightblue" d="M507.54,-219.5C526.83,-219.5 547.98,-219.5 567.63,-219.5"/>
<polygon fill="midnightblue" stroke="midnightblue" points="567.75,-223 577.75,-219.5 567.75,-216 567.75,-223"/>
</g>
<!-- Node17 -->
<g id="node17" class="node">
<title>Node17</title>
<g id="a_node17"><a xlink:href="classdenoptim_1_1graph_1_1_fragment.html#a366dfaf65191c724b8e393b9d9dc899f" target="_top" xlink:title=" ">
<polygon fill="white" stroke="black" points="571,-155.5 571,-185.5 713,-185.5 713,-155.5 571,-155.5"/>
<text text-anchor="start" x="579" y="-173.5" font-family="Helvetica,sans-Serif" font-size="10.00">denoptim.graph.Fragment.get</text>
<text text-anchor="middle" x="642" y="-162.5" font-family="Helvetica,sans-Serif" font-size="10.00">AttachmentPoints</text>
</a>
</g>
</g>
<!-- Node15&#45;&gt;Node17 -->
<g id="edge20" class="edge">
<title>Node15&#45;&gt;Node17</title>
<path fill="none" stroke="midnightblue" d="M502.02,-204.47C523.38,-199.24 547.52,-193.35 569.61,-187.95"/>
<polygon fill="midnightblue" stroke="midnightblue" points="570.71,-191.28 579.6,-185.51 569.05,-184.48 570.71,-191.28"/>
</g>
<!-- Node18 -->
<g id="node18" class="node">
<title>Node18</title>
<g id="a_node18"><a xlink:href="classdenoptim_1_1graph_1_1_fragment_isomorphism_inspector.html#a7170efe46e1730c48fe2dbf1d5a0aefc" target="_top" xlink:title=" ">
<polygon fill="white" stroke="black" points="551,-106.5 551,-136.5 733,-136.5 733,-106.5 551,-106.5"/>
<text text-anchor="start" x="559" y="-124.5" font-family="Helvetica,sans-Serif" font-size="10.00">denoptim.graph.FragmentIsomorphism</text>
<text text-anchor="middle" x="642" y="-113.5" font-family="Helvetica,sans-Serif" font-size="10.00">Inspector.isomorphismExists</text>
</a>
</g>
</g>
<!-- Node15&#45;&gt;Node18 -->
<g id="edge21" class="edge">
<title>Node15&#45;&gt;Node18</title>
<path fill="none" stroke="midnightblue" d="M497.65,-204.45C503.79,-201.65 509.71,-198.36 515,-194.5 536.83,-178.57 528.68,-160.73 551,-145.5 553.38,-143.88 555.86,-142.36 558.43,-140.95"/>
<polygon fill="midnightblue" stroke="midnightblue" points="559.97,-144.09 567.4,-136.53 556.88,-137.81 559.97,-144.09"/>
</g>
<!-- Node19&#45;&gt;Node19 -->
<g id="edge23" class="edge">
<title>Node19&#45;&gt;Node19</title>
<path fill="none" stroke="midnightblue" d="M407.78,-167.66C400.13,-177.06 410.71,-186 439.5,-186 457.05,-186 467.83,-182.68 471.84,-177.96"/>
<polygon fill="midnightblue" stroke="midnightblue" points="475.31,-177.43 471.22,-167.66 468.33,-177.85 475.31,-177.43"/>
</g>
<!-- Node20&#45;&gt;Node20 -->
<g id="edge25" class="edge">
<title>Node20&#45;&gt;Node20</title>
<path fill="none" stroke="midnightblue" d="M411.45,-100.26C397.8,-109.07 407.15,-118.5 439.5,-118.5 461.74,-118.5 473.11,-114.04 473.61,-108.39"/>
<polygon fill="midnightblue" stroke="midnightblue" points="476.33,-106.19 467.55,-100.26 470.72,-110.37 476.33,-106.19"/>
</g>
</g>
</svg>
