<?xml version="1.0" encoding="UTF-8" standalone="no"?>
<!DOCTYPE svg PUBLIC "-//W3C//DTD SVG 1.1//EN"
 "http://www.w3.org/Graphics/SVG/1.1/DTD/svg11.dtd">
<!-- Generated by graphviz version 3.0.0 (20221109.1736)
 -->
<!-- Title: denoptim.molecularmodeling.ThreeDimTreeBuilder.setAlignBBsIn3D Pages: 1 -->
<!--zoomable 225 -->
<svg id="main" version="1.1" xmlns="http://www.w3.org/2000/svg" xmlns:xlink="http://www.w3.org/1999/xlink" xml:space="preserve" onload="init(evt)">
<style type="text/css"><![CDATA[
.edge:hover path { stroke: red; }
.edge:hover polygon { stroke: red; fill: red; }
]]></style>
<script type="text/javascript"><![CDATA[
var edges = document.getElementsByTagName('g');
if (edges && edges.length) {
  for (var i=0;i<edges.length;i++) {
    if (edges[i].id.substr(0,4)=='edge') {
      edges[i].setAttribute('class','edge');
    }
  }
}
]]></script>
        <defs>
                <circle id="rim" cx="0" cy="0" r="7"/>
                <circle id="rim2" cx="0" cy="0" r="3.5"/>
                <g id="zoomPlus">
                        <use xlink:href="#rim" fill="#404040">
                                <set attributeName="fill" to="#808080" begin="zoomplus.mouseover" end="zoomplus.mouseout"/>
                        </use>
                        <path d="M-4,0h8M0,-4v8" fill="none" stroke="white" stroke-width="1.5" pointer-events="none"/>
                </g>
                <g id="zoomMin">
                        <use xlink:href="#rim" fill="#404040">
                                <set attributeName="fill" to="#808080" begin="zoomminus.mouseover" end="zoomminus.mouseout"/>
                        </use>
                        <path d="M-4,0h8" fill="none" stroke="white" stroke-width="1.5" pointer-events="none"/>
                </g>
                <g id="dirArrow">
                        <path fill="none" stroke="white" stroke-width="1.5" d="M0,-3.0v7 M-2.5,-0.5L0,-3.0L2.5,-0.5"/>
                </g>
               <g id="resetDef">
                       <use xlink:href="#rim2" fill="#404040">
                               <set attributeName="fill" to="#808080" begin="reset.mouseover" end="reset.mouseout"/>
                       </use>
               </g>
        </defs>

<script type="text/javascript">
var viewWidth = 1288;
var viewHeight = 225;
var sectionId = 'dynsection-9';
</script>
<script xlink:href="svgpan.js"/>
<svg id="graph" class="graph">
<g id="viewport">
<title>denoptim.molecularmodeling.ThreeDimTreeBuilder.setAlignBBsIn3D</title>
<polygon fill="white" stroke="transparent" points="-4,4 -4,-221 1284,-221 1284,4 -4,4"/>
<!-- Node1 -->
<g id="node1" class="node">
<title>Node1</title>
<g id="a_node1"><a xlink:title="Sets the flag that controls whether building blocks have to be aligned according to the AP vectors or...">
<polygon fill="#bfbfbf" stroke="black" points="1095,-98.5 1095,-128.5 1280,-128.5 1280,-98.5 1095,-98.5"/>
<text text-anchor="start" x="1103" y="-116.5" font-family="Helvetica,sans-Serif" font-size="10.00">denoptim.molecularmodeling.</text>
<text text-anchor="middle" x="1187.5" y="-105.5" font-family="Helvetica,sans-Serif" font-size="10.00">ThreeDimTreeBuilder.setAlignBBsIn3D</text>
</a>
</g>
</g>
<!-- Node2 -->
<g id="node2" class="node">
<title>Node2</title>
<g id="a_node2"><a xlink:href="classdenoptim_1_1combinatorial_1_1_graph_building_task.html#a3eaee724fc921194fa158714aafe182d" target="_top" xlink:title="Calls the task.">
<polygon fill="white" stroke="black" points="692,-166.5 692,-196.5 837,-196.5 837,-166.5 692,-166.5"/>
<text text-anchor="start" x="700" y="-184.5" font-family="Helvetica,sans-Serif" font-size="10.00">denoptim.combinatorial.Graph</text>
<text text-anchor="middle" x="764.5" y="-173.5" font-family="Helvetica,sans-Serif" font-size="10.00">BuildingTask.call</text>
</a>
</g>
</g>
<!-- Node1&#45;&gt;Node2 -->
<g id="edge1" class="edge">
<title>Node1&#45;&gt;Node2</title>
<path fill="none" stroke="midnightblue" d="M1103.06,-130.46C1088.4,-133.27 1073.27,-136.06 1059,-138.5 983.49,-151.43 896.64,-163.85 837.12,-171.99"/>
<polygon fill="midnightblue" stroke="midnightblue" points="1103.97,-133.85 1113.12,-128.51 1102.64,-126.98 1103.97,-133.85"/>
</g>
<!-- Node3 -->
<g id="node3" class="node">
<title>Node3</title>
<g id="a_node3"><a xlink:href="classdenoptim_1_1graph_1_1_d_graph.html#ac1e5c9703afc6f29fe11cca08ddb1a1c" target="_top" xlink:title="Peeks into this graph to derive a preliminary chemical representation with SMILES and InChIKey.">
<polygon fill="white" stroke="black" points="893,-98.5 893,-128.5 1039,-128.5 1039,-98.5 893,-98.5"/>
<text text-anchor="start" x="901" y="-116.5" font-family="Helvetica,sans-Serif" font-size="10.00">denoptim.graph.DGraph.check</text>
<text text-anchor="middle" x="966" y="-105.5" font-family="Helvetica,sans-Serif" font-size="10.00">Consistency</text>
</a>
</g>
</g>
<!-- Node1&#45;&gt;Node3 -->
<g id="edge2" class="edge">
<title>Node1&#45;&gt;Node3</title>
<path fill="none" stroke="midnightblue" d="M1084.62,-113.5C1069.25,-113.5 1053.67,-113.5 1039.09,-113.5"/>
<polygon fill="midnightblue" stroke="midnightblue" points="1084.68,-117 1094.68,-113.5 1084.68,-110 1084.68,-117"/>
</g>
<!-- Node4 -->
<g id="node4" class="node">
<title>Node4</title>
<g id="a_node4"><a xlink:href="classdenoptim_1_1graph_1_1_d_graph.html#a7a4743d014e860237f4b20703ef9779b" target="_top" xlink:title="Evaluates the possibility of closing rings in this graph and generates all alternative graphs resulti...">
<polygon fill="white" stroke="black" points="888.5,-186.5 888.5,-216.5 1043.5,-216.5 1043.5,-186.5 888.5,-186.5"/>
<text text-anchor="start" x="896.5" y="-204.5" font-family="Helvetica,sans-Serif" font-size="10.00">denoptim.graph.DGraph.make</text>
<text text-anchor="middle" x="966" y="-193.5" font-family="Helvetica,sans-Serif" font-size="10.00">AllGraphsWithDifferentRingSets</text>
</a>
</g>
</g>
<!-- Node1&#45;&gt;Node4 -->
<g id="edge3" class="edge">
<title>Node1&#45;&gt;Node4</title>
<path fill="none" stroke="midnightblue" d="M1146.86,-132.92C1121.94,-144.78 1088.94,-159.85 1059,-171.5 1045.38,-176.8 1030.39,-181.96 1016.54,-186.47"/>
<polygon fill="midnightblue" stroke="midnightblue" points="1148.49,-136.02 1156,-128.54 1145.46,-129.7 1148.49,-136.02"/>
</g>
<!-- Node5 -->
<g id="node5" class="node">
<title>Node5</title>
<g id="a_node5"><a xlink:href="classdenoptim_1_1ga_1_1_e_a_utils.html#a1ddb932d4618434d435e4f85ce5e5eb5" target="_top" xlink:title="Evaluates the possibility of closing rings in a given graph and if any ring can be closed,...">
<polygon fill="white" stroke="black" points="900.5,-49.5 900.5,-79.5 1031.5,-79.5 1031.5,-49.5 900.5,-49.5"/>
<text text-anchor="start" x="908.5" y="-67.5" font-family="Helvetica,sans-Serif" font-size="10.00">denoptim.ga.EAUtils.setup</text>
<text text-anchor="middle" x="966" y="-56.5" font-family="Helvetica,sans-Serif" font-size="10.00">Rings</text>
</a>
</g>
</g>
<!-- Node1&#45;&gt;Node5 -->
<g id="edge5" class="edge">
<title>Node1&#45;&gt;Node5</title>
<path fill="none" stroke="midnightblue" d="M1109.2,-96.24C1083.83,-90.58 1055.92,-84.35 1031.59,-78.92"/>
<polygon fill="midnightblue" stroke="midnightblue" points="1108.63,-99.7 1119.15,-98.47 1110.15,-92.87 1108.63,-99.7"/>
</g>
<!-- Node16 -->
<g id="node16" class="node">
<title>Node16</title>
<g id="a_node16"><a xlink:href="classdenoptim_1_1graph_1_1rings_1_1_path_sub_graph_test.html#aa8b4f4d926b012b1eb56c9c1477abd9f" target="_top" xlink:title=" ">
<polygon fill="white" stroke="black" points="873,-0.5 873,-30.5 1059,-30.5 1059,-0.5 873,-0.5"/>
<text text-anchor="start" x="881" y="-18.5" font-family="Helvetica,sans-Serif" font-size="10.00">denoptim.graph.rings.Path</text>
<text text-anchor="middle" x="966" y="-7.5" font-family="Helvetica,sans-Serif" font-size="10.00">SubGraphTest.testMakePathSubGraph</text>
</a>
</g>
</g>
<!-- Node1&#45;&gt;Node16 -->
<g id="edge20" class="edge">
<title>Node1&#45;&gt;Node16</title>
<path fill="none" stroke="midnightblue" d="M1155.66,-92.85C1130.52,-76.77 1093.63,-54.84 1059,-40.5 1050.13,-36.83 1040.56,-33.53 1031.06,-30.64"/>
<polygon fill="midnightblue" stroke="midnightblue" points="1154.06,-95.99 1164.36,-98.49 1157.87,-90.12 1154.06,-95.99"/>
</g>
<!-- Node4&#45;&gt;Node2 -->
<g id="edge4" class="edge">
<title>Node4&#45;&gt;Node2</title>
<path fill="none" stroke="midnightblue" d="M878.1,-192.79C864.47,-191.42 850.51,-190.02 837.27,-188.69"/>
<polygon fill="midnightblue" stroke="midnightblue" points="878.14,-196.31 888.44,-193.82 878.84,-189.34 878.14,-196.31"/>
</g>
<!-- Node6 -->
<g id="node6" class="node">
<title>Node6</title>
<g id="a_node6"><a xlink:href="classdenoptim_1_1ga_1_1_e_a_utils.html#a8122818f58919fce84dce75e7506025a" target="_top" xlink:title=" ">
<polygon fill="white" stroke="black" points="701,-98.5 701,-128.5 828,-128.5 828,-98.5 701,-98.5"/>
<text text-anchor="start" x="709" y="-116.5" font-family="Helvetica,sans-Serif" font-size="10.00">denoptim.ga.EAUtils.build</text>
<text text-anchor="middle" x="764.5" y="-105.5" font-family="Helvetica,sans-Serif" font-size="10.00">CandidateByMutation</text>
</a>
</g>
</g>
<!-- Node5&#45;&gt;Node6 -->
<g id="edge6" class="edge">
<title>Node5&#45;&gt;Node6</title>
<path fill="none" stroke="midnightblue" d="M893.84,-81.98C871.86,-87.38 847.84,-93.28 826.6,-98.49"/>
<polygon fill="midnightblue" stroke="midnightblue" points="894.91,-85.32 903.79,-79.53 893.24,-78.52 894.91,-85.32"/>
</g>
<!-- Node13 -->
<g id="node13" class="node">
<title>Node13</title>
<g id="a_node13"><a xlink:href="classdenoptim_1_1ga_1_1_e_a_utils.html#ad3d2daeb11e68a356e971ca1846596b5" target="_top" xlink:title=" ">
<polygon fill="white" stroke="black" points="701,-49.5 701,-79.5 828,-79.5 828,-49.5 701,-49.5"/>
<text text-anchor="start" x="709" y="-67.5" font-family="Helvetica,sans-Serif" font-size="10.00">denoptim.ga.EAUtils.build</text>
<text text-anchor="middle" x="764.5" y="-56.5" font-family="Helvetica,sans-Serif" font-size="10.00">CandidateFromScratch</text>
</a>
</g>
</g>
<!-- Node5&#45;&gt;Node13 -->
<g id="edge14" class="edge">
<title>Node5&#45;&gt;Node13</title>
<path fill="none" stroke="midnightblue" d="M890.05,-64.5C869.69,-64.5 847.86,-64.5 828.25,-64.5"/>
<polygon fill="midnightblue" stroke="midnightblue" points="890.23,-68 900.23,-64.5 890.23,-61 890.23,-68"/>
</g>
<!-- Node15 -->
<g id="node15" class="node">
<title>Node15</title>
<g id="a_node15"><a xlink:href="classdenoptim_1_1ga_1_1_e_a_utils.html#a0b958439d79fae30f14530213ad22e3a" target="_top" xlink:title="Generates up to a pair of new offspring by performing a crossover operation.">
<polygon fill="white" stroke="black" points="701,-0.5 701,-30.5 828,-30.5 828,-0.5 701,-0.5"/>
<text text-anchor="start" x="709" y="-18.5" font-family="Helvetica,sans-Serif" font-size="10.00">denoptim.ga.EAUtils.build</text>
<text text-anchor="middle" x="764.5" y="-7.5" font-family="Helvetica,sans-Serif" font-size="10.00">CandidatesByXOver</text>
</a>
</g>
</g>
<!-- Node5&#45;&gt;Node15 -->
<g id="edge19" class="edge">
<title>Node5&#45;&gt;Node15</title>
<path fill="none" stroke="midnightblue" d="M893.84,-47.02C871.86,-41.62 847.84,-35.72 826.6,-30.51"/>
<polygon fill="midnightblue" stroke="midnightblue" points="893.24,-50.48 903.79,-49.47 894.91,-43.68 893.24,-50.48"/>
</g>
<!-- Node7 -->
<g id="node7" class="node">
<title>Node7</title>
<g id="a_node7"><a xlink:href="classdenoptim_1_1ga_1_1_evolutionary_algorithm.html#a0c2e353b243250b4959a3f86608f1020" target="_top" xlink:title="Generates one offspring according to the method where crossover and mutation are decoupled,...">
<polygon fill="white" stroke="black" points="526,-49.5 526,-79.5 656,-79.5 656,-49.5 526,-49.5"/>
<text text-anchor="start" x="534" y="-67.5" font-family="Helvetica,sans-Serif" font-size="10.00">denoptim.ga.Evolutionary</text>
<text text-anchor="middle" x="591" y="-56.5" font-family="Helvetica,sans-Serif" font-size="10.00">Algorithm.makeOffspringA</text>
</a>
</g>
</g>
<!-- Node6&#45;&gt;Node7 -->
<g id="edge7" class="edge">
<title>Node6&#45;&gt;Node7</title>
<path fill="none" stroke="midnightblue" d="M700.87,-95.61C682.42,-90.34 662.44,-84.62 644.68,-79.55"/>
<polygon fill="midnightblue" stroke="midnightblue" points="700.07,-99.02 710.64,-98.4 701.99,-92.29 700.07,-99.02"/>
</g>
<!-- Node12 -->
<g id="node12" class="node">
<title>Node12</title>
<g id="a_node12"><a xlink:href="classdenoptim_1_1ga_1_1_evolutionary_algorithm.html#ae7a90a911b109ed47b3acf54193acc35" target="_top" xlink:title="Generates one offspring according to the method where crossover and mutation are coupled,...">
<polygon fill="white" stroke="black" points="526,-98.5 526,-128.5 656,-128.5 656,-98.5 526,-98.5"/>
<text text-anchor="start" x="534" y="-116.5" font-family="Helvetica,sans-Serif" font-size="10.00">denoptim.ga.Evolutionary</text>
<text text-anchor="middle" x="591" y="-105.5" font-family="Helvetica,sans-Serif" font-size="10.00">Algorithm.makeOffspringB</text>
</a>
</g>
</g>
<!-- Node6&#45;&gt;Node12 -->
<g id="edge12" class="edge">
<title>Node6&#45;&gt;Node12</title>
<path fill="none" stroke="midnightblue" d="M690.61,-113.5C679.12,-113.5 667.3,-113.5 656.03,-113.5"/>
<polygon fill="midnightblue" stroke="midnightblue" points="690.61,-117 700.61,-113.5 690.61,-110 690.61,-117"/>
</g>
<!-- Node8 -->
<g id="node8" class="node">
<title>Node8</title>
<g id="a_node8"><a xlink:href="classdenoptim_1_1ga_1_1_evolutionary_algorithm.html#a596b2f5f0b097c5b67a6e5163bd6fe66" target="_top" xlink:title="Generates a given number of new candidate items and adds them to the current population.">
<polygon fill="white" stroke="black" points="353,-54.5 353,-84.5 487,-84.5 487,-54.5 353,-54.5"/>
<text text-anchor="start" x="361" y="-72.5" font-family="Helvetica,sans-Serif" font-size="10.00">denoptim.ga.Evolutionary</text>
<text text-anchor="middle" x="420" y="-61.5" font-family="Helvetica,sans-Serif" font-size="10.00">Algorithm.evolvePopulation</text>
</a>
</g>
</g>
<!-- Node7&#45;&gt;Node8 -->
<g id="edge8" class="edge">
<title>Node7&#45;&gt;Node8</title>
<path fill="none" stroke="midnightblue" d="M515.48,-66.7C506.05,-66.98 496.45,-67.27 487.16,-67.54"/>
<polygon fill="midnightblue" stroke="midnightblue" points="515.73,-70.2 525.63,-66.4 515.53,-63.2 515.73,-70.2"/>
</g>
<!-- Node9 -->
<g id="node9" class="node">
<title>Node9</title>
<g id="a_node9"><a xlink:href="classdenoptim_1_1ga_1_1_evolutionary_algorithm.html#a6bfc2fa59b199da6259b5b6bad3d6de7" target="_top" xlink:title=" ">
<polygon fill="white" stroke="black" points="190,-29.5 190,-59.5 314,-59.5 314,-29.5 190,-29.5"/>
<text text-anchor="start" x="198" y="-47.5" font-family="Helvetica,sans-Serif" font-size="10.00">denoptim.ga.Evolutionary</text>
<text text-anchor="middle" x="252" y="-36.5" font-family="Helvetica,sans-Serif" font-size="10.00">Algorithm.run</text>
</a>
</g>
</g>
<!-- Node8&#45;&gt;Node9 -->
<g id="edge9" class="edge">
<title>Node8&#45;&gt;Node9</title>
<path fill="none" stroke="midnightblue" d="M342.9,-58.04C333.21,-56.58 323.41,-55.1 314.01,-53.69"/>
<polygon fill="midnightblue" stroke="midnightblue" points="342.51,-61.52 352.92,-59.55 343.55,-54.6 342.51,-61.52"/>
</g>
<!-- Node10 -->
<g id="node10" class="node">
<title>Node10</title>
<g id="a_node10"><a xlink:href="classdenoptim_1_1ga_1_1_evolutionary_algorithm.html#a0f2063b722b7291daf83d62acaa683d3" target="_top" xlink:title=" ">
<polygon fill="white" stroke="black" points="0,-54.5 0,-84.5 154,-84.5 154,-54.5 0,-54.5"/>
<text text-anchor="start" x="8" y="-72.5" font-family="Helvetica,sans-Serif" font-size="10.00">denoptim.ga.Evolutionary</text>
<text text-anchor="middle" x="77" y="-61.5" font-family="Helvetica,sans-Serif" font-size="10.00">Algorithm.EvolutionaryAlgorithm</text>
</a>
</g>
</g>
<!-- Node9&#45;&gt;Node10 -->
<g id="edge10" class="edge">
<title>Node9&#45;&gt;Node10</title>
<path fill="none" stroke="midnightblue" d="M179.44,-54.84C171.09,-56.05 162.54,-57.28 154.12,-58.5"/>
<polygon fill="midnightblue" stroke="midnightblue" points="180.12,-58.28 189.52,-53.38 179.12,-51.35 180.12,-58.28"/>
</g>
<!-- Node11 -->
<g id="node11" class="node">
<title>Node11</title>
<g id="a_node11"><a xlink:href="classdenoptim_1_1programs_1_1denovo_1_1_g_a_runner.html#a7cafd6d78727b89dce3e2c8d06f0dd7c" target="_top" xlink:title=" ">
<polygon fill="white" stroke="black" points="9.5,-5.5 9.5,-35.5 144.5,-35.5 144.5,-5.5 9.5,-5.5"/>
<text text-anchor="start" x="17.5" y="-23.5" font-family="Helvetica,sans-Serif" font-size="10.00">denoptim.programs.denovo.</text>
<text text-anchor="middle" x="77" y="-12.5" font-family="Helvetica,sans-Serif" font-size="10.00">GARunner.runProgram</text>
</a>
</g>
</g>
<!-- Node9&#45;&gt;Node11 -->
<g id="edge11" class="edge">
<title>Node9&#45;&gt;Node11</title>
<path fill="none" stroke="midnightblue" d="M179.48,-34.58C167.92,-32.97 156,-31.32 144.57,-29.73"/>
<polygon fill="midnightblue" stroke="midnightblue" points="179.13,-38.06 189.52,-35.97 180.1,-31.13 179.13,-38.06"/>
</g>
<!-- Node12&#45;&gt;Node8 -->
<g id="edge13" class="edge">
<title>Node12&#45;&gt;Node8</title>
<path fill="none" stroke="midnightblue" d="M522.42,-95.91C507.95,-92.14 492.78,-88.19 478.71,-84.53"/>
<polygon fill="midnightblue" stroke="midnightblue" points="521.75,-99.35 532.31,-98.48 523.52,-92.57 521.75,-99.35"/>
</g>
<!-- Node13&#45;&gt;Node7 -->
<g id="edge17" class="edge">
<title>Node13&#45;&gt;Node7</title>
<path fill="none" stroke="midnightblue" d="M690.61,-64.5C679.12,-64.5 667.3,-64.5 656.03,-64.5"/>
<polygon fill="midnightblue" stroke="midnightblue" points="690.61,-68 700.61,-64.5 690.61,-61 690.61,-68"/>
</g>
<!-- Node13&#45;&gt;Node12 -->
<g id="edge18" class="edge">
<title>Node13&#45;&gt;Node12</title>
<path fill="none" stroke="midnightblue" d="M700.87,-82.39C682.42,-87.66 662.44,-93.38 644.68,-98.45"/>
<polygon fill="midnightblue" stroke="midnightblue" points="701.99,-85.71 710.64,-79.6 700.07,-78.98 701.99,-85.71"/>
</g>
<!-- Node14 -->
<g id="node14" class="node">
<title>Node14</title>
<g id="a_node14"><a xlink:href="classdenoptim_1_1ga_1_1_evolutionary_algorithm.html#ad43588620dab3340e0d8b0042ec73618" target="_top" xlink:title="Fills up the population with candidates build from scratch.">
<polygon fill="white" stroke="black" points="350,-5.5 350,-35.5 490,-35.5 490,-5.5 350,-5.5"/>
<text text-anchor="start" x="358" y="-23.5" font-family="Helvetica,sans-Serif" font-size="10.00">denoptim.ga.Evolutionary</text>
<text text-anchor="middle" x="420" y="-12.5" font-family="Helvetica,sans-Serif" font-size="10.00">Algorithm.initializePopulation</text>
</a>
</g>
</g>
<!-- Node13&#45;&gt;Node14 -->
<g id="edge15" class="edge">
<title>Node13&#45;&gt;Node14</title>
<path fill="none" stroke="midnightblue" d="M693.16,-47.37C680.83,-44.78 668.08,-42.35 656,-40.5 600.55,-31.99 537.15,-26.86 490.18,-23.93"/>
<polygon fill="midnightblue" stroke="midnightblue" points="692.43,-50.79 702.94,-49.48 693.9,-43.95 692.43,-50.79"/>
</g>
<!-- Node14&#45;&gt;Node9 -->
<g id="edge16" class="edge">
<title>Node14&#45;&gt;Node9</title>
<path fill="none" stroke="midnightblue" d="M339.6,-31.98C331.08,-33.21 322.5,-34.45 314.24,-35.65"/>
<polygon fill="midnightblue" stroke="midnightblue" points="340.17,-35.43 349.56,-30.54 339.16,-28.51 340.17,-35.43"/>
</g>
</g>
</svg>
        <g id="navigator" transform="translate(0 0)" fill="#404254">
                <rect fill="#f2f5e9" fill-opacity="0.5" stroke="#606060" stroke-width=".5" x="0" y="0" width="60" height="60"/>
                <use id="zoomplus" xlink:href="#zoomPlus" x="17" y="9" onmousedown="handleZoom(evt,'in')"/>
                <use id="zoomminus" xlink:href="#zoomMin" x="42" y="9" onmousedown="handleZoom(evt,'out')"/>
                <use id="reset" xlink:href="#resetDef" x="30" y="36" onmousedown="handleReset()"/>
                <g id="arrowUp" xlink:href="#dirArrow" transform="translate(30 24)" onmousedown="handlePan(0,-1)">
                  <use xlink:href="#rim" fill="#404040">
                        <set attributeName="fill" to="#808080" begin="arrowUp.mouseover" end="arrowUp.mouseout"/>
                  </use>
                  <path fill="none" stroke="white" stroke-width="1.5" d="M0,-3.0v7 M-2.5,-0.5L0,-3.0L2.5,-0.5"/>
                </g>
                <g id="arrowRight" xlink:href="#dirArrow" transform="rotate(90) translate(36 -43)" onmousedown="handlePan(1,0)">
                  <use xlink:href="#rim" fill="#404040">
                        <set attributeName="fill" to="#808080" begin="arrowRight.mouseover" end="arrowRight.mouseout"/>
                  </use>
                  <path fill="none" stroke="white" stroke-width="1.5" d="M0,-3.0v7 M-2.5,-0.5L0,-3.0L2.5,-0.5"/>
                </g>
                <g id="arrowDown" xlink:href="#dirArrow" transform="rotate(180) translate(-30 -48)" onmousedown="handlePan(0,1)">
                  <use xlink:href="#rim" fill="#404040">
                        <set attributeName="fill" to="#808080" begin="arrowDown.mouseover" end="arrowDown.mouseout"/>
                  </use>
                  <path fill="none" stroke="white" stroke-width="1.5" d="M0,-3.0v7 M-2.5,-0.5L0,-3.0L2.5,-0.5"/>
                </g>
                <g id="arrowLeft" xlink:href="#dirArrow" transform="rotate(270) translate(-36 17)" onmousedown="handlePan(-1,0)">
                  <use xlink:href="#rim" fill="#404040">
                        <set attributeName="fill" to="#808080" begin="arrowLeft.mouseover" end="arrowLeft.mouseout"/>
                  </use>
                  <path fill="none" stroke="white" stroke-width="1.5" d="M0,-3.0v7 M-2.5,-0.5L0,-3.0L2.5,-0.5"/>
                </g>
        </g>
        <svg viewBox="0 0 15 15" width="100%" height="30px" preserveAspectRatio="xMaxYMin meet">
         <g id="arrow_out" transform="scale(0.3 0.3)">
          <a xlink:href="classdenoptim_1_1molecularmodeling_1_1_three_dim_tree_builder_a3d187f47c0c8df855ea6a0601e95fcc0_icgraph_org.svg" target="_base">
           <rect id="button" ry="5" rx="5" y="6" x="6" height="38" width="38"
                fill="#f2f5e9" fill-opacity="0.5" stroke="#606060" stroke-width="1.0"/>
           <path id="arrow"
             d="M 11.500037,31.436501 C 11.940474,20.09759 22.043105,11.32322 32.158766,21.979434 L 37.068811,17.246167 C 37.068811,17.246167 37.088388,32 37.088388,32 L 22.160133,31.978069 C 22.160133,31.978069 26.997745,27.140456 26.997745,27.140456 C 18.528582,18.264221 13.291696,25.230495 11.500037,31.436501 z"
             style="fill:#404040;"/>
          </a>
         </g>
        </svg>
</svg>
