<?xml version="1.0" encoding="UTF-8" standalone="no"?>
<!DOCTYPE svg PUBLIC "-//W3C//DTD SVG 1.1//EN"
 "http://www.w3.org/Graphics/SVG/1.1/DTD/svg11.dtd">
<!-- Generated by graphviz version 3.0.0 (20221109.1736)
 -->
<!-- Title: denoptim.fragspace.FragmentSpace.useAPclassBasedApproach Pages: 1 -->
<svg width="1395pt" height="514pt"
 viewBox="0.00 0.00 1395.00 514.36" xmlns="http://www.w3.org/2000/svg" xmlns:xlink="http://www.w3.org/1999/xlink">
<g id="graph0" class="graph" transform="scale(1 1) rotate(0) translate(4 510.36)">
<title>denoptim.fragspace.FragmentSpace.useAPclassBasedApproach</title>
<polygon fill="white" stroke="transparent" points="-4,4 -4,-510.36 1391,-510.36 1391,4 -4,4"/>
<!-- Node1 -->
<g id="node1" class="node">
<title>Node1</title>
<g id="a_node1"><a xlink:title="Check usage of APClass&#45;based approach, i.e., uses attachment points with annotated data (i....">
<polygon fill="#bfbfbf" stroke="black" points="1219,-254.86 1219,-284.86 1387,-284.86 1387,-254.86 1219,-254.86"/>
<text text-anchor="start" x="1227" y="-272.86" font-family="Helvetica,sans-Serif" font-size="10.00">denoptim.fragspace.Fragment</text>
<text text-anchor="middle" x="1303" y="-261.86" font-family="Helvetica,sans-Serif" font-size="10.00">Space.useAPclassBasedApproach</text>
</a>
</g>
</g>
<!-- Node2 -->
<g id="node2" class="node">
<title>Node2</title>
<g id="a_node2"><a xlink:href="classdenoptim_1_1ga_1_1_e_a_utils.html#a0b958439d79fae30f14530213ad22e3a" target="_top" xlink:title="Generates up to a pair of new offspring by performing a crossover operation.">
<polygon fill="white" stroke="black" points="818.5,-475.86 818.5,-505.86 945.5,-505.86 945.5,-475.86 818.5,-475.86"/>
<text text-anchor="start" x="826.5" y="-493.86" font-family="Helvetica,sans-Serif" font-size="10.00">denoptim.ga.EAUtils.build</text>
<text text-anchor="middle" x="882" y="-482.86" font-family="Helvetica,sans-Serif" font-size="10.00">CandidatesByXOver</text>
</a>
</g>
</g>
<!-- Node1&#45;&gt;Node2 -->
<g id="edge1" class="edge">
<title>Node1&#45;&gt;Node2</title>
<path fill="none" stroke="midnightblue" d="M1294.73,-294.44C1280.78,-336.79 1245.92,-422.74 1183,-461.86 1111.01,-506.61 1009.99,-506.33 945.52,-500.1"/>
<polygon fill="midnightblue" stroke="midnightblue" points="1298.07,-295.49 1297.76,-284.9 1291.4,-293.37 1298.07,-295.49"/>
</g>
<!-- Node3 -->
<g id="node3" class="node">
<title>Node3</title>
<g id="a_node3"><a xlink:href="classdenoptim_1_1combinatorial_1_1_graph_building_task.html#a3eaee724fc921194fa158714aafe182d" target="_top" xlink:title="Calls the task.">
<polygon fill="white" stroke="black" points="809.5,-328.86 809.5,-358.86 954.5,-358.86 954.5,-328.86 809.5,-328.86"/>
<text text-anchor="start" x="817.5" y="-346.86" font-family="Helvetica,sans-Serif" font-size="10.00">denoptim.combinatorial.Graph</text>
<text text-anchor="middle" x="882" y="-335.86" font-family="Helvetica,sans-Serif" font-size="10.00">BuildingTask.call</text>
</a>
</g>
</g>
<!-- Node1&#45;&gt;Node3 -->
<g id="edge2" class="edge">
<title>Node1&#45;&gt;Node3</title>
<path fill="none" stroke="midnightblue" d="M1283.51,-292.64C1262.22,-316.87 1224.78,-353.75 1183,-368.86 1113.2,-394.09 1089.9,-375.74 1016,-368.86 994.24,-366.83 970.74,-362.97 949.64,-358.89"/>
<polygon fill="midnightblue" stroke="midnightblue" points="1286.24,-294.82 1290.09,-284.95 1280.93,-290.27 1286.24,-294.82"/>
</g>
<!-- Node4 -->
<g id="node4" class="node">
<title>Node4</title>
<g id="a_node4"><a xlink:href="classdenoptim_1_1graph_1_1_d_graph.html#ac1e5c9703afc6f29fe11cca08ddb1a1c" target="_top" xlink:title="Peeks into this graph to derive a preliminary chemical representation with SMILES and InChIKey.">
<polygon fill="white" stroke="black" points="1026.5,-279.86 1026.5,-309.86 1172.5,-309.86 1172.5,-279.86 1026.5,-279.86"/>
<text text-anchor="start" x="1034.5" y="-297.86" font-family="Helvetica,sans-Serif" font-size="10.00">denoptim.graph.DGraph.check</text>
<text text-anchor="middle" x="1099.5" y="-286.86" font-family="Helvetica,sans-Serif" font-size="10.00">Consistency</text>
</a>
</g>
</g>
<!-- Node1&#45;&gt;Node4 -->
<g id="edge3" class="edge">
<title>Node1&#45;&gt;Node4</title>
<path fill="none" stroke="midnightblue" d="M1208.78,-281.42C1196.7,-282.92 1184.48,-284.44 1172.81,-285.88"/>
<polygon fill="midnightblue" stroke="midnightblue" points="1209.39,-284.87 1218.88,-280.17 1208.52,-277.93 1209.39,-284.87"/>
</g>
<!-- Node5 -->
<g id="node5" class="node">
<title>Node5</title>
<g id="a_node5"><a xlink:href="classdenoptim_1_1fragspace_1_1_fragment_space.html#a13df4c55db0679bb62fb833a91ef38b2" target="_top" xlink:title="Classify a fragment in terms of the number of APs and possibly their type (AP&#45;Class).">
<polygon fill="white" stroke="black" points="1027,-230.86 1027,-260.86 1172,-260.86 1172,-230.86 1027,-230.86"/>
<text text-anchor="start" x="1035" y="-248.86" font-family="Helvetica,sans-Serif" font-size="10.00">denoptim.fragspace.Fragment</text>
<text text-anchor="middle" x="1099.5" y="-237.86" font-family="Helvetica,sans-Serif" font-size="10.00">Space.classifyFragment</text>
</a>
</g>
</g>
<!-- Node1&#45;&gt;Node5 -->
<g id="edge4" class="edge">
<title>Node1&#45;&gt;Node5</title>
<path fill="none" stroke="midnightblue" d="M1208.64,-258.74C1196.39,-257.28 1183.99,-255.8 1172.18,-254.39"/>
<polygon fill="midnightblue" stroke="midnightblue" points="1208.54,-262.25 1218.88,-259.95 1209.36,-255.3 1208.54,-262.25"/>
</g>
<!-- Node18 -->
<g id="node18" class="node">
<title>Node18</title>
<g id="a_node18"><a xlink:href="classdenoptim_1_1fragspace_1_1_a_p_map_finder.html#a5868844d747acb9bd5331c760a24ff09" target="_top" xlink:title="Compares the AttachmentPoint of two lists searching for all the APs of the second list that are &quot;comp...">
<polygon fill="white" stroke="black" points="1016,-181.86 1016,-211.86 1183,-211.86 1183,-181.86 1016,-181.86"/>
<text text-anchor="start" x="1024" y="-199.86" font-family="Helvetica,sans-Serif" font-size="10.00">denoptim.fragspace.APMap</text>
<text text-anchor="middle" x="1099.5" y="-188.86" font-family="Helvetica,sans-Serif" font-size="10.00">Finder.findMappingCompatibileAPs</text>
</a>
</g>
</g>
<!-- Node1&#45;&gt;Node18 -->
<g id="edge21" class="edge">
<title>Node1&#45;&gt;Node18</title>
<path fill="none" stroke="midnightblue" d="M1257.66,-250.88C1235.43,-241.64 1207.98,-230.66 1183,-221.86 1173.26,-218.42 1162.78,-215.02 1152.66,-211.89"/>
<polygon fill="midnightblue" stroke="midnightblue" points="1256.59,-254.22 1267.17,-254.85 1259.29,-247.76 1256.59,-254.22"/>
</g>
<!-- Node21 -->
<g id="node21" class="node">
<title>Node21</title>
<g id="a_node21"><a xlink:href="classdenoptim_1_1fragspace_1_1_graph_link_finder.html#a9a9f36816442f741ecae5391e186bc49" target="_top" xlink:title="Constructor that specifies which edge has to be replaced with a vertex and two edges.">
<polygon fill="white" stroke="black" points="1031,-132.86 1031,-162.86 1168,-162.86 1168,-132.86 1031,-132.86"/>
<text text-anchor="start" x="1039" y="-150.86" font-family="Helvetica,sans-Serif" font-size="10.00">denoptim.fragspace.Graph</text>
<text text-anchor="middle" x="1099.5" y="-139.86" font-family="Helvetica,sans-Serif" font-size="10.00">LinkFinder.GraphLinkFinder</text>
</a>
</g>
</g>
<!-- Node1&#45;&gt;Node21 -->
<g id="edge24" class="edge">
<title>Node1&#45;&gt;Node21</title>
<path fill="none" stroke="midnightblue" d="M1279.9,-247.3C1257.36,-225.45 1220.46,-192.79 1183,-172.86 1175.87,-169.06 1168.07,-165.75 1160.21,-162.9"/>
<polygon fill="midnightblue" stroke="midnightblue" points="1277.67,-250.01 1287.25,-254.54 1282.58,-245.03 1277.67,-250.01"/>
</g>
<!-- Node22 -->
<g id="node22" class="node">
<title>Node22</title>
<g id="a_node22"><a xlink:href="classdenoptim_1_1graph_1_1_d_graph.html#a7a4743d014e860237f4b20703ef9779b" target="_top" xlink:title="Evaluates the possibility of closing rings in this graph and generates all alternative graphs resulti...">
<polygon fill="white" stroke="black" points="1022,-328.86 1022,-358.86 1177,-358.86 1177,-328.86 1022,-328.86"/>
<text text-anchor="start" x="1030" y="-346.86" font-family="Helvetica,sans-Serif" font-size="10.00">denoptim.graph.DGraph.make</text>
<text text-anchor="middle" x="1099.5" y="-335.86" font-family="Helvetica,sans-Serif" font-size="10.00">AllGraphsWithDifferentRingSets</text>
</a>
</g>
</g>
<!-- Node1&#45;&gt;Node22 -->
<g id="edge25" class="edge">
<title>Node1&#45;&gt;Node22</title>
<path fill="none" stroke="midnightblue" d="M1259.78,-288.99C1237.24,-298.85 1208.88,-310.69 1183,-319.86 1174.14,-322.99 1164.65,-326.04 1155.37,-328.85"/>
<polygon fill="midnightblue" stroke="midnightblue" points="1261.32,-292.13 1269.06,-284.9 1258.5,-285.73 1261.32,-292.13"/>
</g>
<!-- Node23 -->
<g id="node23" class="node">
<title>Node23</title>
<g id="a_node23"><a xlink:href="classdenoptim_1_1fragspace_1_1_fragment_space.html#a135ebdda8ec9f789934d7ca2b82079ad" target="_top" xlink:title="Given two lists of APs this method maps the APClass&#45;compatibilities from between the two lists consid...">
<polygon fill="white" stroke="black" points="1016,-83.86 1016,-113.86 1183,-113.86 1183,-83.86 1016,-83.86"/>
<text text-anchor="start" x="1024" y="-101.86" font-family="Helvetica,sans-Serif" font-size="10.00">denoptim.fragspace.Fragment</text>
<text text-anchor="middle" x="1099.5" y="-90.86" font-family="Helvetica,sans-Serif" font-size="10.00">Space.mapAPClassCompatibilities</text>
</a>
</g>
</g>
<!-- Node1&#45;&gt;Node23 -->
<g id="edge27" class="edge">
<title>Node1&#45;&gt;Node23</title>
<path fill="none" stroke="midnightblue" d="M1288.59,-245.7C1269.37,-213.26 1230.96,-156.01 1183,-123.86 1177.28,-120.02 1170.95,-116.76 1164.42,-113.98"/>
<polygon fill="midnightblue" stroke="midnightblue" points="1285.67,-247.63 1293.71,-254.53 1291.72,-244.12 1285.67,-247.63"/>
</g>
<!-- Node24 -->
<g id="node24" class="node">
<title>Node24</title>
<g id="a_node24"><a xlink:href="classdenoptim_1_1ga_1_1_population.html#a61b4df049189c95349aec0e4fb292c66" target="_top" xlink:title=" ">
<polygon fill="white" stroke="black" points="1017,-45.36 1017,-64.36 1182,-64.36 1182,-45.36 1017,-45.36"/>
<text text-anchor="middle" x="1099.5" y="-52.36" font-family="Helvetica,sans-Serif" font-size="10.00">denoptim.ga.Population.Population</text>
</a>
</g>
</g>
<!-- Node1&#45;&gt;Node24 -->
<g id="edge28" class="edge">
<title>Node1&#45;&gt;Node24</title>
<path fill="none" stroke="midnightblue" d="M1294.13,-245.03C1279.43,-202.9 1243.68,-117.7 1183,-73.86 1177.64,-69.98 1171.61,-66.88 1165.32,-64.41"/>
<polygon fill="midnightblue" stroke="midnightblue" points="1290.9,-246.41 1297.41,-254.77 1297.53,-244.17 1290.9,-246.41"/>
</g>
<!-- Node27 -->
<g id="node27" class="node">
<title>Node27</title>
<g id="a_node27"><a xlink:href="classdenoptim_1_1ga_1_1_e_a_utils.html#a1ddb932d4618434d435e4f85ce5e5eb5" target="_top" xlink:title="Evaluates the possibility of closing rings in a given graph and if any ring can be closed,...">
<polygon fill="white" stroke="black" points="1034,-421.86 1034,-451.86 1165,-451.86 1165,-421.86 1034,-421.86"/>
<text text-anchor="start" x="1042" y="-439.86" font-family="Helvetica,sans-Serif" font-size="10.00">denoptim.ga.EAUtils.setup</text>
<text text-anchor="middle" x="1099.5" y="-428.86" font-family="Helvetica,sans-Serif" font-size="10.00">Rings</text>
</a>
</g>
</g>
<!-- Node1&#45;&gt;Node27 -->
<g id="edge32" class="edge">
<title>Node1&#45;&gt;Node27</title>
<path fill="none" stroke="midnightblue" d="M1286,-293.12C1265.16,-321.95 1226.26,-371.02 1183,-401.86 1171.85,-409.8 1158.62,-416.42 1146.05,-421.69"/>
<polygon fill="midnightblue" stroke="midnightblue" points="1288.93,-295.05 1291.87,-284.87 1283.22,-290.99 1288.93,-295.05"/>
</g>
<!-- Node6 -->
<g id="node6" class="node">
<title>Node6</title>
<g id="a_node6"><a xlink:href="classdenoptim_1_1fragspace_1_1_fragment_space.html#a32b0be109306e9c81fc830867296bc66" target="_top" xlink:title="Extracts a system of one or more fused rings and adds them to the fragment space if not already prese...">
<polygon fill="white" stroke="black" points="784,-247.86 784,-277.86 980,-277.86 980,-247.86 784,-247.86"/>
<text text-anchor="start" x="792" y="-265.86" font-family="Helvetica,sans-Serif" font-size="10.00">denoptim.fragspace.Fragment</text>
<text text-anchor="middle" x="882" y="-254.86" font-family="Helvetica,sans-Serif" font-size="10.00">Space.addFusedRingsToFragmentLibrary</text>
</a>
</g>
</g>
<!-- Node5&#45;&gt;Node6 -->
<g id="edge5" class="edge">
<title>Node5&#45;&gt;Node6</title>
<path fill="none" stroke="midnightblue" d="M1016.44,-252.33C1004.58,-253.26 992.27,-254.24 980.15,-255.19"/>
<polygon fill="midnightblue" stroke="midnightblue" points="1017.05,-255.79 1026.74,-251.52 1016.5,-248.81 1017.05,-255.79"/>
</g>
<!-- Node7 -->
<g id="node7" class="node">
<title>Node7</title>
<g id="a_node7"><a xlink:href="classdenoptim_1_1fragspace_1_1_fragment_space.html#a500eaadf61dbb4a0d9c1105f907212c7" target="_top" xlink:title="Performs grouping and classification operations on the library of building blocks of BBType#FRAGMENT.">
<polygon fill="white" stroke="black" points="797.5,-198.86 797.5,-228.86 966.5,-228.86 966.5,-198.86 797.5,-198.86"/>
<text text-anchor="start" x="805.5" y="-216.86" font-family="Helvetica,sans-Serif" font-size="10.00">denoptim.fragspace.Fragment</text>
<text text-anchor="middle" x="882" y="-205.86" font-family="Helvetica,sans-Serif" font-size="10.00">Space.groupAndClassifyFragments</text>
</a>
</g>
</g>
<!-- Node5&#45;&gt;Node7 -->
<g id="edge6" class="edge">
<title>Node5&#45;&gt;Node7</title>
<path fill="none" stroke="midnightblue" d="M1016.69,-233.71C1000.35,-231.28 983.16,-228.73 966.76,-226.29"/>
<polygon fill="midnightblue" stroke="midnightblue" points="1016.34,-237.19 1026.74,-235.2 1017.36,-230.27 1016.34,-237.19"/>
</g>
<!-- Node8 -->
<g id="node8" class="node">
<title>Node8</title>
<g id="a_node8"><a xlink:href="classdenoptim_1_1fragspace_1_1_fragment_space.html#a4792b534137a7989aab4ab2237d12438" target="_top" xlink:title="Define all components of this fragment space.">
<polygon fill="white" stroke="black" points="598,-262.86 598,-292.86 743,-292.86 743,-262.86 598,-262.86"/>
<text text-anchor="start" x="606" y="-280.86" font-family="Helvetica,sans-Serif" font-size="10.00">denoptim.fragspace.Fragment</text>
<text text-anchor="middle" x="670.5" y="-269.86" font-family="Helvetica,sans-Serif" font-size="10.00">Space.define</text>
</a>
</g>
</g>
<!-- Node7&#45;&gt;Node8 -->
<g id="edge7" class="edge">
<title>Node7&#45;&gt;Node8</title>
<path fill="none" stroke="midnightblue" d="M809.71,-231.52C801.02,-233.88 792.29,-236.36 784,-238.86 760.05,-246.08 733.61,-255.19 712.38,-262.78"/>
<polygon fill="midnightblue" stroke="midnightblue" points="810.72,-234.87 819.47,-228.91 808.91,-228.11 810.72,-234.87"/>
</g>
<!-- Node10 -->
<g id="node10" class="node">
<title>Node10</title>
<g id="a_node10"><a xlink:href="classdenoptim_1_1fragspace_1_1_graph_link_finder_test.html#a5703166de7261111b98b40fce0c9fad6" target="_top" xlink:title=" ">
<polygon fill="white" stroke="black" points="605.5,-174.86 605.5,-204.86 735.5,-204.86 735.5,-174.86 605.5,-174.86"/>
<text text-anchor="start" x="613.5" y="-192.86" font-family="Helvetica,sans-Serif" font-size="10.00">denoptim.fragspace.Graph</text>
<text text-anchor="middle" x="670.5" y="-181.86" font-family="Helvetica,sans-Serif" font-size="10.00">LinkFinderTest.prepare</text>
</a>
</g>
</g>
<!-- Node7&#45;&gt;Node10 -->
<g id="edge9" class="edge">
<title>Node7&#45;&gt;Node10</title>
<path fill="none" stroke="midnightblue" d="M787.12,-203.1C769.74,-201.11 751.95,-199.07 735.71,-197.21"/>
<polygon fill="midnightblue" stroke="midnightblue" points="786.96,-206.61 797.3,-204.27 787.76,-199.65 786.96,-206.61"/>
</g>
<!-- Node9 -->
<g id="node9" class="node">
<title>Node9</title>
<g id="a_node9"><a xlink:href="classdenoptim_1_1fragspace_1_1_fragment_space.html#ad10ece408a10dbb06fa5d75747ae1fbb" target="_top" xlink:title="Define all components of a fragment space that implements the attachment point class&#45;approach.">
<polygon fill="white" stroke="black" points="404,-305.86 404,-335.86 549,-335.86 549,-305.86 404,-305.86"/>
<text text-anchor="start" x="412" y="-323.86" font-family="Helvetica,sans-Serif" font-size="10.00">denoptim.fragspace.Fragment</text>
<text text-anchor="middle" x="476.5" y="-312.86" font-family="Helvetica,sans-Serif" font-size="10.00">Space.FragmentSpace</text>
</a>
</g>
</g>
<!-- Node8&#45;&gt;Node9 -->
<g id="edge8" class="edge">
<title>Node8&#45;&gt;Node9</title>
<path fill="none" stroke="midnightblue" d="M592.57,-295.08C576.7,-298.64 560.11,-302.36 544.61,-305.82"/>
<polygon fill="midnightblue" stroke="midnightblue" points="593.35,-298.5 602.35,-292.89 591.82,-291.66 593.35,-298.5"/>
</g>
<!-- Node11 -->
<g id="node11" class="node">
<title>Node11</title>
<g id="a_node11"><a xlink:href="classdenoptim_1_1fragspace_1_1_graph_link_finder_test.html#a586ff58307127b487068fe2aa5e43359" target="_top" xlink:title="Creates a test graph that looks like this: v0(A)&#45;(A)v1(B)&#45;(C)v2.">
<polygon fill="white" stroke="black" points="396,-130.86 396,-160.86 557,-160.86 557,-130.86 396,-130.86"/>
<text text-anchor="start" x="404" y="-148.86" font-family="Helvetica,sans-Serif" font-size="10.00">denoptim.fragspace.Graph</text>
<text text-anchor="middle" x="476.5" y="-137.86" font-family="Helvetica,sans-Serif" font-size="10.00">LinkFinderTest.makeTestGraphA</text>
</a>
</g>
</g>
<!-- Node10&#45;&gt;Node11 -->
<g id="edge10" class="edge">
<title>Node10&#45;&gt;Node11</title>
<path fill="none" stroke="midnightblue" d="M595.33,-172.86C578.18,-168.93 560.04,-164.77 543.28,-160.93"/>
<polygon fill="midnightblue" stroke="midnightblue" points="594.77,-176.32 605.3,-175.14 596.33,-169.5 594.77,-176.32"/>
</g>
<!-- Node12 -->
<g id="node12" class="node">
<title>Node12</title>
<g id="a_node12"><a xlink:href="classdenoptim_1_1fragspace_1_1_graph_link_finder_test.html#a10f29a0409c104973230371493a734ed" target="_top" xlink:title=" ">
<polygon fill="white" stroke="black" points="193,-92.86 193,-122.86 357,-122.86 357,-92.86 193,-92.86"/>
<text text-anchor="start" x="201" y="-110.86" font-family="Helvetica,sans-Serif" font-size="10.00">denoptim.fragspace.Graph</text>
<text text-anchor="middle" x="275" y="-99.86" font-family="Helvetica,sans-Serif" font-size="10.00">LinkFinderTest.testLinkFromEdge</text>
</a>
</g>
</g>
<!-- Node10&#45;&gt;Node12 -->
<g id="edge17" class="edge">
<title>Node10&#45;&gt;Node12</title>
<path fill="none" stroke="midnightblue" d="M600.44,-170.38C597.87,-168.97 595.38,-167.46 593,-165.86 572.07,-151.7 579.56,-133.24 557,-121.86 495.19,-90.66 415.68,-89.72 357.01,-95.09"/>
<polygon fill="midnightblue" stroke="midnightblue" points="598.92,-173.53 609.44,-174.8 602.01,-167.25 598.92,-173.53"/>
</g>
<!-- Node13 -->
<g id="node13" class="node">
<title>Node13</title>
<g id="a_node13"><a xlink:href="classdenoptim_1_1fragspace_1_1_graph_link_finder_test.html#a11b5fce33ae34132f5b16a11b57aaae7" target="_top" xlink:title=" ">
<polygon fill="white" stroke="black" points="190,-160.86 190,-190.86 360,-190.86 360,-160.86 190,-160.86"/>
<text text-anchor="start" x="198" y="-178.86" font-family="Helvetica,sans-Serif" font-size="10.00">denoptim.fragspace.Graph</text>
<text text-anchor="middle" x="275" y="-167.86" font-family="Helvetica,sans-Serif" font-size="10.00">LinkFinderTest.testLinkFromVertex</text>
</a>
</g>
</g>
<!-- Node10&#45;&gt;Node13 -->
<g id="edge20" class="edge">
<title>Node10&#45;&gt;Node13</title>
<path fill="none" stroke="midnightblue" d="M595.36,-187.22C528.49,-184.84 430.19,-181.34 360.34,-178.86"/>
<polygon fill="midnightblue" stroke="midnightblue" points="595.28,-190.72 605.4,-187.57 595.53,-183.72 595.28,-190.72"/>
</g>
<!-- Node14 -->
<g id="node14" class="node">
<title>Node14</title>
<g id="a_node14"><a xlink:href="classdenoptim_1_1fragspace_1_1_graph_link_finder_test.html#a788a4b1620fa0610d9f306e2e8b3a75a" target="_top" xlink:title="Creates a test graph that looks like this: v0(E)&#45;(E)v1.">
<polygon fill="white" stroke="black" points="396.5,-42.86 396.5,-72.86 556.5,-72.86 556.5,-42.86 396.5,-42.86"/>
<text text-anchor="start" x="404.5" y="-60.86" font-family="Helvetica,sans-Serif" font-size="10.00">denoptim.fragspace.Graph</text>
<text text-anchor="middle" x="476.5" y="-49.86" font-family="Helvetica,sans-Serif" font-size="10.00">LinkFinderTest.makeTestGraphE</text>
</a>
</g>
</g>
<!-- Node10&#45;&gt;Node14 -->
<g id="edge13" class="edge">
<title>Node10&#45;&gt;Node14</title>
<path fill="none" stroke="midnightblue" d="M597.15,-169.19C595.72,-168.14 594.33,-167.02 593,-165.86 564.33,-140.65 584.95,-113.87 557,-87.86 550.41,-81.72 542.45,-76.81 534.14,-72.88"/>
<polygon fill="midnightblue" stroke="midnightblue" points="595.5,-172.29 605.82,-174.68 599.24,-166.38 595.5,-172.29"/>
</g>
<!-- Node15 -->
<g id="node15" class="node">
<title>Node15</title>
<g id="a_node15"><a xlink:href="classdenoptim_1_1fragspace_1_1_graph_link_finder_test.html#a0ec3c77508e8ec583b570a6803056e9a" target="_top" xlink:title=" ">
<polygon fill="white" stroke="black" points="193,-16.36 193,-57.36 357,-57.36 357,-16.36 193,-16.36"/>
<text text-anchor="start" x="201" y="-45.36" font-family="Helvetica,sans-Serif" font-size="10.00">denoptim.fragspace.Graph</text>
<text text-anchor="start" x="201" y="-34.36" font-family="Helvetica,sans-Serif" font-size="10.00">LinkFinderTest.testLinkFromEdge</text>
<text text-anchor="middle" x="275" y="-23.36" font-family="Helvetica,sans-Serif" font-size="10.00">OneMatch</text>
</a>
</g>
</g>
<!-- Node10&#45;&gt;Node15 -->
<g id="edge19" class="edge">
<title>Node10&#45;&gt;Node15</title>
<path fill="none" stroke="midnightblue" d="M596.87,-169.49C595.52,-168.34 594.23,-167.13 593,-165.86 550.57,-121.7 605.63,-70.07 557,-32.86 494.14,15.26 398.08,0.78 336.16,-16.28"/>
<polygon fill="midnightblue" stroke="midnightblue" points="594.99,-172.44 605.17,-175.37 599.03,-166.73 594.99,-172.44"/>
</g>
<!-- Node16 -->
<g id="node16" class="node">
<title>Node16</title>
<g id="a_node16"><a xlink:href="classdenoptim_1_1fragspace_1_1_graph_link_finder_test.html#a978d58856f04a9a844344ad2cacc812b" target="_top" xlink:title="Creates a test graph that looks like this: v0(F)&#45;(F)v1.">
<polygon fill="white" stroke="black" points="396.5,-256.86 396.5,-286.86 556.5,-286.86 556.5,-256.86 396.5,-256.86"/>
<text text-anchor="start" x="404.5" y="-274.86" font-family="Helvetica,sans-Serif" font-size="10.00">denoptim.fragspace.Graph</text>
<text text-anchor="middle" x="476.5" y="-263.86" font-family="Helvetica,sans-Serif" font-size="10.00">LinkFinderTest.makeTestGraphF</text>
</a>
</g>
</g>
<!-- Node10&#45;&gt;Node16 -->
<g id="edge15" class="edge">
<title>Node10&#45;&gt;Node16</title>
<path fill="none" stroke="midnightblue" d="M629.17,-209.35C607.87,-219.43 581.2,-231.71 557,-241.86 544.76,-246.99 531.29,-252.22 518.99,-256.85"/>
<polygon fill="midnightblue" stroke="midnightblue" points="630.72,-212.49 638.25,-205.04 627.72,-206.17 630.72,-212.49"/>
</g>
<!-- Node17 -->
<g id="node17" class="node">
<title>Node17</title>
<g id="a_node17"><a xlink:href="classdenoptim_1_1fragspace_1_1_graph_link_finder_test.html#a027bbe60b63ad7c458011fe4c4814ff7" target="_top" xlink:title=" ">
<polygon fill="white" stroke="black" points="193,-220.36 193,-261.36 357,-261.36 357,-220.36 193,-220.36"/>
<text text-anchor="start" x="201" y="-249.36" font-family="Helvetica,sans-Serif" font-size="10.00">denoptim.fragspace.Graph</text>
<text text-anchor="start" x="201" y="-238.36" font-family="Helvetica,sans-Serif" font-size="10.00">LinkFinderTest.testLinkFromEdge</text>
<text text-anchor="middle" x="275" y="-227.36" font-family="Helvetica,sans-Serif" font-size="10.00">NoMatch</text>
</a>
</g>
</g>
<!-- Node10&#45;&gt;Node17 -->
<g id="edge18" class="edge">
<title>Node10&#45;&gt;Node17</title>
<path fill="none" stroke="midnightblue" d="M595.21,-199.48C527.3,-208.28 427.1,-221.27 357.13,-230.34"/>
<polygon fill="midnightblue" stroke="midnightblue" points="595.93,-202.92 605.4,-198.16 595.03,-195.98 595.93,-202.92"/>
</g>
<!-- Node11&#45;&gt;Node12 -->
<g id="edge11" class="edge">
<title>Node11&#45;&gt;Node12</title>
<path fill="none" stroke="midnightblue" d="M386.6,-128.92C376.05,-126.91 365.33,-124.87 354.93,-122.89"/>
<polygon fill="midnightblue" stroke="midnightblue" points="386.17,-132.4 396.65,-130.84 387.48,-125.53 386.17,-132.4"/>
</g>
<!-- Node11&#45;&gt;Node13 -->
<g id="edge12" class="edge">
<title>Node11&#45;&gt;Node13</title>
<path fill="none" stroke="midnightblue" d="M385.83,-159.34C377.28,-160.62 368.64,-161.92 360.16,-163.2"/>
<polygon fill="midnightblue" stroke="midnightblue" points="386.42,-162.79 395.79,-157.84 385.38,-155.87 386.42,-162.79"/>
</g>
<!-- Node14&#45;&gt;Node15 -->
<g id="edge14" class="edge">
<title>Node14&#45;&gt;Node15</title>
<path fill="none" stroke="midnightblue" d="M386.36,-48.47C376.69,-47.45 366.89,-46.42 357.33,-45.42"/>
<polygon fill="midnightblue" stroke="midnightblue" points="386.05,-51.96 396.37,-49.53 386.79,-45 386.05,-51.96"/>
</g>
<!-- Node16&#45;&gt;Node17 -->
<g id="edge16" class="edge">
<title>Node16&#45;&gt;Node17</title>
<path fill="none" stroke="midnightblue" d="M386.36,-258C376.69,-256.5 366.89,-254.98 357.33,-253.49"/>
<polygon fill="midnightblue" stroke="midnightblue" points="385.95,-261.48 396.37,-259.56 387.02,-254.56 385.95,-261.48"/>
</g>
<!-- Node19 -->
<g id="node19" class="node">
<title>Node19</title>
<g id="a_node19"><a xlink:href="classdenoptim_1_1fragspace_1_1_a_p_map_finder.html#ae5c8afa4b7defd6ce35df0fa1c5facf2" target="_top" xlink:title="Searches for mappings between the AttachmentPoints on the two lists.">
<polygon fill="white" stroke="black" points="814,-138.86 814,-168.86 950,-168.86 950,-138.86 814,-138.86"/>
<text text-anchor="start" x="822" y="-156.86" font-family="Helvetica,sans-Serif" font-size="10.00">denoptim.fragspace.APMap</text>
<text text-anchor="middle" x="882" y="-145.86" font-family="Helvetica,sans-Serif" font-size="10.00">Finder.findAllMappings</text>
</a>
</g>
</g>
<!-- Node18&#45;&gt;Node19 -->
<g id="edge22" class="edge">
<title>Node18&#45;&gt;Node19</title>
<path fill="none" stroke="midnightblue" d="M1013.25,-179.85C992.25,-175.66 970.06,-171.23 950.06,-167.24"/>
<polygon fill="midnightblue" stroke="midnightblue" points="1012.64,-183.29 1023.13,-181.82 1014.01,-176.43 1012.64,-183.29"/>
</g>
<!-- Node20 -->
<g id="node20" class="node">
<title>Node20</title>
<g id="a_node20"><a xlink:href="classdenoptim_1_1fragspace_1_1_a_p_map_finder.html#ada1b2c2155faeefced1d9a64f82a6668" target="_top" xlink:title="Constructor that launches the search for a mapping between the AttachmentPoints on the first vertex t...">
<polygon fill="white" stroke="black" points="602.5,-125.86 602.5,-155.86 738.5,-155.86 738.5,-125.86 602.5,-125.86"/>
<text text-anchor="start" x="610.5" y="-143.86" font-family="Helvetica,sans-Serif" font-size="10.00">denoptim.fragspace.APMap</text>
<text text-anchor="middle" x="670.5" y="-132.86" font-family="Helvetica,sans-Serif" font-size="10.00">Finder.APMapFinder</text>
</a>
</g>
</g>
<!-- Node19&#45;&gt;Node20 -->
<g id="edge23" class="edge">
<title>Node19&#45;&gt;Node20</title>
<path fill="none" stroke="midnightblue" d="M803.83,-149.07C782.44,-147.74 759.4,-146.31 738.63,-145.02"/>
<polygon fill="midnightblue" stroke="midnightblue" points="803.65,-152.56 813.85,-149.69 804.08,-145.58 803.65,-152.56"/>
</g>
<!-- Node22&#45;&gt;Node3 -->
<g id="edge26" class="edge">
<title>Node22&#45;&gt;Node3</title>
<path fill="none" stroke="midnightblue" d="M1011.79,-343.86C992.83,-343.86 972.95,-343.86 954.65,-343.86"/>
<polygon fill="midnightblue" stroke="midnightblue" points="1011.92,-347.36 1021.92,-343.86 1011.92,-340.36 1011.92,-347.36"/>
</g>
<!-- Node25 -->
<g id="node25" class="node">
<title>Node25</title>
<g id="a_node25"><a xlink:href="classdenoptim_1_1ga_1_1_population.html#a6ee19df57078d4a4e9831cf97dcf7cc4" target="_top" xlink:title="Does not clone the cross&#45;over compatibility relations between each pairs of population members.">
<polygon fill="white" stroke="black" points="810.5,-45.36 810.5,-64.36 953.5,-64.36 953.5,-45.36 810.5,-45.36"/>
<text text-anchor="middle" x="882" y="-52.36" font-family="Helvetica,sans-Serif" font-size="10.00">denoptim.ga.Population.clone</text>
</a>
</g>
</g>
<!-- Node24&#45;&gt;Node25 -->
<g id="edge29" class="edge">
<title>Node24&#45;&gt;Node25</title>
<path fill="none" stroke="midnightblue" d="M1006.43,-54.86C988.81,-54.86 970.62,-54.86 953.8,-54.86"/>
<polygon fill="midnightblue" stroke="midnightblue" points="1006.72,-58.36 1016.72,-54.86 1006.72,-51.36 1006.72,-58.36"/>
</g>
<!-- Node25&#45;&gt;Node25 -->
<g id="edge30" class="edge">
<title>Node25&#45;&gt;Node25</title>
<path fill="none" stroke="midnightblue" d="M921.28,-71.47C922.65,-77.71 909.56,-82.86 882,-82.86 844.47,-82.86 833.77,-73.32 849.89,-64.47"/>
<polygon fill="midnightblue" stroke="midnightblue" points="923.7,-68.95 914.11,-64.47 918.81,-73.96 923.7,-68.95"/>
</g>
<!-- Node26 -->
<g id="node26" class="node">
<title>Node26</title>
<g id="a_node26"><a xlink:href="classdenoptim_1_1ga_1_1_population_test.html#a5db0672054a9fc1dbc923310732fdb3a" target="_top" xlink:title=" ">
<polygon fill="white" stroke="black" points="593,-39.86 593,-69.86 748,-69.86 748,-39.86 593,-39.86"/>
<text text-anchor="start" x="601" y="-57.86" font-family="Helvetica,sans-Serif" font-size="10.00">denoptim.ga.PopulationTest.test</text>
<text text-anchor="middle" x="670.5" y="-46.86" font-family="Helvetica,sans-Serif" font-size="10.00">Clone</text>
</a>
</g>
</g>
<!-- Node25&#45;&gt;Node26 -->
<g id="edge31" class="edge">
<title>Node25&#45;&gt;Node26</title>
<path fill="none" stroke="midnightblue" d="M799.93,-54.86C782.96,-54.86 765.11,-54.86 748.3,-54.86"/>
<polygon fill="midnightblue" stroke="midnightblue" points="800.36,-58.36 810.36,-54.86 800.36,-51.36 800.36,-58.36"/>
</g>
<!-- Node27&#45;&gt;Node2 -->
<g id="edge46" class="edge">
<title>Node27&#45;&gt;Node2</title>
<path fill="none" stroke="midnightblue" d="M1029.49,-454.39C1013.26,-458.5 996.03,-462.84 980,-466.86 968.39,-469.76 955.99,-472.84 944.07,-475.8"/>
<polygon fill="midnightblue" stroke="midnightblue" points="1030.61,-457.72 1039.45,-451.87 1028.89,-450.93 1030.61,-457.72"/>
</g>
<!-- Node28 -->
<g id="node28" class="node">
<title>Node28</title>
<g id="a_node28"><a xlink:href="classdenoptim_1_1ga_1_1_e_a_utils.html#a8122818f58919fce84dce75e7506025a" target="_top" xlink:title=" ">
<polygon fill="white" stroke="black" points="818.5,-426.86 818.5,-456.86 945.5,-456.86 945.5,-426.86 818.5,-426.86"/>
<text text-anchor="start" x="826.5" y="-444.86" font-family="Helvetica,sans-Serif" font-size="10.00">denoptim.ga.EAUtils.build</text>
<text text-anchor="middle" x="882" y="-433.86" font-family="Helvetica,sans-Serif" font-size="10.00">CandidateByMutation</text>
</a>
</g>
</g>
<!-- Node27&#45;&gt;Node28 -->
<g id="edge33" class="edge">
<title>Node27&#45;&gt;Node28</title>
<path fill="none" stroke="midnightblue" d="M1023.52,-438.59C998.15,-439.18 970.09,-439.83 945.76,-440.4"/>
<polygon fill="midnightblue" stroke="midnightblue" points="1023.93,-442.09 1033.84,-438.36 1023.76,-435.09 1023.93,-442.09"/>
</g>
<!-- Node35 -->
<g id="node35" class="node">
<title>Node35</title>
<g id="a_node35"><a xlink:href="classdenoptim_1_1ga_1_1_e_a_utils.html#ad3d2daeb11e68a356e971ca1846596b5" target="_top" xlink:title=" ">
<polygon fill="white" stroke="black" points="818.5,-377.86 818.5,-407.86 945.5,-407.86 945.5,-377.86 818.5,-377.86"/>
<text text-anchor="start" x="826.5" y="-395.86" font-family="Helvetica,sans-Serif" font-size="10.00">denoptim.ga.EAUtils.build</text>
<text text-anchor="middle" x="882" y="-384.86" font-family="Helvetica,sans-Serif" font-size="10.00">CandidateFromScratch</text>
</a>
</g>
</g>
<!-- Node27&#45;&gt;Node35 -->
<g id="edge41" class="edge">
<title>Node27&#45;&gt;Node35</title>
<path fill="none" stroke="midnightblue" d="M1023.86,-421.62C998.39,-416.42 970.2,-410.66 945.76,-405.67"/>
<polygon fill="midnightblue" stroke="midnightblue" points="1023.34,-425.08 1033.84,-423.65 1024.75,-418.22 1023.34,-425.08"/>
</g>
<!-- Node29 -->
<g id="node29" class="node">
<title>Node29</title>
<g id="a_node29"><a xlink:href="classdenoptim_1_1ga_1_1_evolutionary_algorithm.html#a0c2e353b243250b4959a3f86608f1020" target="_top" xlink:title="Generates one offspring according to the method where crossover and mutation are decoupled,...">
<polygon fill="white" stroke="black" points="605.5,-434.86 605.5,-464.86 735.5,-464.86 735.5,-434.86 605.5,-434.86"/>
<text text-anchor="start" x="613.5" y="-452.86" font-family="Helvetica,sans-Serif" font-size="10.00">denoptim.ga.Evolutionary</text>
<text text-anchor="middle" x="670.5" y="-441.86" font-family="Helvetica,sans-Serif" font-size="10.00">Algorithm.makeOffspringA</text>
</a>
</g>
</g>
<!-- Node28&#45;&gt;Node29 -->
<g id="edge34" class="edge">
<title>Node28&#45;&gt;Node29</title>
<path fill="none" stroke="midnightblue" d="M808.43,-444.63C784.73,-445.53 758.59,-446.53 735.56,-447.41"/>
<polygon fill="midnightblue" stroke="midnightblue" points="808.57,-448.12 818.43,-444.24 808.3,-441.13 808.57,-448.12"/>
</g>
<!-- Node34 -->
<g id="node34" class="node">
<title>Node34</title>
<g id="a_node34"><a xlink:href="classdenoptim_1_1ga_1_1_evolutionary_algorithm.html#ae7a90a911b109ed47b3acf54193acc35" target="_top" xlink:title="Generates one offspring according to the method where crossover and mutation are coupled,...">
<polygon fill="white" stroke="black" points="605.5,-385.86 605.5,-415.86 735.5,-415.86 735.5,-385.86 605.5,-385.86"/>
<text text-anchor="start" x="613.5" y="-403.86" font-family="Helvetica,sans-Serif" font-size="10.00">denoptim.ga.Evolutionary</text>
<text text-anchor="middle" x="670.5" y="-392.86" font-family="Helvetica,sans-Serif" font-size="10.00">Algorithm.makeOffspringB</text>
</a>
</g>
</g>
<!-- Node28&#45;&gt;Node34 -->
<g id="edge39" class="edge">
<title>Node28&#45;&gt;Node34</title>
<path fill="none" stroke="midnightblue" d="M808.43,-427.65C784.73,-423.02 758.59,-417.9 735.56,-413.39"/>
<polygon fill="midnightblue" stroke="midnightblue" points="807.94,-431.12 818.43,-429.61 809.29,-424.25 807.94,-431.12"/>
</g>
<!-- Node30 -->
<g id="node30" class="node">
<title>Node30</title>
<g id="a_node30"><a xlink:href="classdenoptim_1_1ga_1_1_evolutionary_algorithm.html#a596b2f5f0b097c5b67a6e5163bd6fe66" target="_top" xlink:title="Generates a given number of new candidate items and adds them to the current population.">
<polygon fill="white" stroke="black" points="409.5,-403.86 409.5,-433.86 543.5,-433.86 543.5,-403.86 409.5,-403.86"/>
<text text-anchor="start" x="417.5" y="-421.86" font-family="Helvetica,sans-Serif" font-size="10.00">denoptim.ga.Evolutionary</text>
<text text-anchor="middle" x="476.5" y="-410.86" font-family="Helvetica,sans-Serif" font-size="10.00">Algorithm.evolvePopulation</text>
</a>
</g>
</g>
<!-- Node29&#45;&gt;Node30 -->
<g id="edge35" class="edge">
<title>Node29&#45;&gt;Node30</title>
<path fill="none" stroke="midnightblue" d="M595.39,-437.89C578.33,-435.14 560.3,-432.22 543.61,-429.53"/>
<polygon fill="midnightblue" stroke="midnightblue" points="594.87,-441.35 605.3,-439.49 595.99,-434.44 594.87,-441.35"/>
</g>
<!-- Node31 -->
<g id="node31" class="node">
<title>Node31</title>
<g id="a_node31"><a xlink:href="classdenoptim_1_1ga_1_1_evolutionary_algorithm.html#a6bfc2fa59b199da6259b5b6bad3d6de7" target="_top" xlink:title=" ">
<polygon fill="white" stroke="black" points="213,-378.86 213,-408.86 337,-408.86 337,-378.86 213,-378.86"/>
<text text-anchor="start" x="221" y="-396.86" font-family="Helvetica,sans-Serif" font-size="10.00">denoptim.ga.Evolutionary</text>
<text text-anchor="middle" x="275" y="-385.86" font-family="Helvetica,sans-Serif" font-size="10.00">Algorithm.run</text>
</a>
</g>
</g>
<!-- Node30&#45;&gt;Node31 -->
<g id="edge36" class="edge">
<title>Node30&#45;&gt;Node31</title>
<path fill="none" stroke="midnightblue" d="M399.39,-409.32C378.84,-406.74 356.87,-403.99 337.25,-401.53"/>
<polygon fill="midnightblue" stroke="midnightblue" points="398.99,-412.79 409.35,-410.57 399.86,-405.85 398.99,-412.79"/>
</g>
<!-- Node32 -->
<g id="node32" class="node">
<title>Node32</title>
<g id="a_node32"><a xlink:href="classdenoptim_1_1ga_1_1_evolutionary_algorithm.html#a0f2063b722b7291daf83d62acaa683d3" target="_top" xlink:title=" ">
<polygon fill="white" stroke="black" points="0,-402.86 0,-432.86 154,-432.86 154,-402.86 0,-402.86"/>
<text text-anchor="start" x="8" y="-420.86" font-family="Helvetica,sans-Serif" font-size="10.00">denoptim.ga.Evolutionary</text>
<text text-anchor="middle" x="77" y="-409.86" font-family="Helvetica,sans-Serif" font-size="10.00">Algorithm.EvolutionaryAlgorithm</text>
</a>
</g>
</g>
<!-- Node31&#45;&gt;Node32 -->
<g id="edge37" class="edge">
<title>Node31&#45;&gt;Node32</title>
<path fill="none" stroke="midnightblue" d="M202.62,-402.6C186.9,-404.52 170.19,-406.57 154.28,-408.51"/>
<polygon fill="midnightblue" stroke="midnightblue" points="203.29,-406.04 212.79,-401.35 202.44,-399.09 203.29,-406.04"/>
</g>
<!-- Node33 -->
<g id="node33" class="node">
<title>Node33</title>
<g id="a_node33"><a xlink:href="classdenoptim_1_1programs_1_1denovo_1_1_g_a_runner.html#a7cafd6d78727b89dce3e2c8d06f0dd7c" target="_top" xlink:title=" ">
<polygon fill="white" stroke="black" points="9.5,-353.86 9.5,-383.86 144.5,-383.86 144.5,-353.86 9.5,-353.86"/>
<text text-anchor="start" x="17.5" y="-371.86" font-family="Helvetica,sans-Serif" font-size="10.00">denoptim.programs.denovo.</text>
<text text-anchor="middle" x="77" y="-360.86" font-family="Helvetica,sans-Serif" font-size="10.00">GARunner.runProgram</text>
</a>
</g>
</g>
<!-- Node31&#45;&gt;Node33 -->
<g id="edge38" class="edge">
<title>Node31&#45;&gt;Node33</title>
<path fill="none" stroke="midnightblue" d="M202.71,-384.76C183.71,-382.34 163.26,-379.73 144.53,-377.34"/>
<polygon fill="midnightblue" stroke="midnightblue" points="202.43,-388.25 212.79,-386.05 203.31,-381.31 202.43,-388.25"/>
</g>
<!-- Node34&#45;&gt;Node30 -->
<g id="edge40" class="edge">
<title>Node34&#45;&gt;Node30</title>
<path fill="none" stroke="midnightblue" d="M594.91,-407.85C577.99,-409.43 560.14,-411.11 543.61,-412.66"/>
<polygon fill="midnightblue" stroke="midnightblue" points="595.67,-411.29 605.3,-406.87 595.02,-404.32 595.67,-411.29"/>
</g>
<!-- Node35&#45;&gt;Node29 -->
<g id="edge44" class="edge">
<title>Node35&#45;&gt;Node29</title>
<path fill="none" stroke="midnightblue" d="M811.96,-410.42C802.55,-412.88 793.03,-415.41 784,-417.86 764.11,-423.25 742.3,-429.39 723.23,-434.85"/>
<polygon fill="midnightblue" stroke="midnightblue" points="812.89,-413.8 821.69,-407.89 811.13,-407.02 812.89,-413.8"/>
</g>
<!-- Node35&#45;&gt;Node34 -->
<g id="edge45" class="edge">
<title>Node35&#45;&gt;Node34</title>
<path fill="none" stroke="midnightblue" d="M808.43,-395.63C784.73,-396.53 758.59,-397.53 735.56,-398.41"/>
<polygon fill="midnightblue" stroke="midnightblue" points="808.57,-399.12 818.43,-395.24 808.3,-392.13 808.57,-399.12"/>
</g>
<!-- Node36 -->
<g id="node36" class="node">
<title>Node36</title>
<g id="a_node36"><a xlink:href="classdenoptim_1_1ga_1_1_evolutionary_algorithm.html#ad43588620dab3340e0d8b0042ec73618" target="_top" xlink:title="Fills up the population with candidates build from scratch.">
<polygon fill="white" stroke="black" points="406.5,-354.86 406.5,-384.86 546.5,-384.86 546.5,-354.86 406.5,-354.86"/>
<text text-anchor="start" x="414.5" y="-372.86" font-family="Helvetica,sans-Serif" font-size="10.00">denoptim.ga.Evolutionary</text>
<text text-anchor="middle" x="476.5" y="-361.86" font-family="Helvetica,sans-Serif" font-size="10.00">Algorithm.initializePopulation</text>
</a>
</g>
</g>
<!-- Node35&#45;&gt;Node36 -->
<g id="edge42" class="edge">
<title>Node35&#45;&gt;Node36</title>
<path fill="none" stroke="midnightblue" d="M808.16,-382.84C788.65,-380.5 767.55,-378.28 748,-376.86 679.59,-371.87 601.23,-370.29 546.52,-369.86"/>
<polygon fill="midnightblue" stroke="midnightblue" points="807.85,-386.33 818.2,-384.07 808.7,-379.38 807.85,-386.33"/>
</g>
<!-- Node36&#45;&gt;Node31 -->
<g id="edge43" class="edge">
<title>Node36&#45;&gt;Node31</title>
<path fill="none" stroke="midnightblue" d="M396.13,-379.4C376.48,-381.77 355.73,-384.26 337.1,-386.5"/>
<polygon fill="midnightblue" stroke="midnightblue" points="396.77,-382.85 406.28,-378.18 395.94,-375.9 396.77,-382.85"/>
</g>
</g>
</svg>
