<?xml version="1.0" encoding="UTF-8" standalone="no"?>
<!DOCTYPE svg PUBLIC "-//W3C//DTD SVG 1.1//EN"
 "http://www.w3.org/Graphics/SVG/1.1/DTD/svg11.dtd">
<!-- Generated by graphviz version 3.0.0 (20221109.1736)
 -->
<!-- Title: denoptim.utils.MoleculeUtils.removeRCA Pages: 1 -->
<svg width="2145pt" height="548pt"
 viewBox="0.00 0.00 2145.00 548.00" xmlns="http://www.w3.org/2000/svg" xmlns:xlink="http://www.w3.org/1999/xlink">
<g id="graph0" class="graph" transform="scale(1 1) rotate(0) translate(4 544)">
<title>denoptim.utils.MoleculeUtils.removeRCA</title>
<polygon fill="white" stroke="transparent" points="-4,4 -4,-544 2141,-544 2141,4 -4,4"/>
<!-- Node1 -->
<g id="node1" class="node">
<title>Node1</title>
<g id="a_node1"><a xlink:title="Replace any PseudoAtoms representing ring closing attractors with H.">
<polygon fill="#bfbfbf" stroke="black" points="1944,-277 1944,-296 2137,-296 2137,-277 1944,-277"/>
<text text-anchor="middle" x="2040.5" y="-284" font-family="Helvetica,sans-Serif" font-size="10.00">denoptim.utils.MoleculeUtils.removeRCA</text>
</a>
</g>
</g>
<!-- Node2 -->
<g id="node2" class="node">
<title>Node2</title>
<g id="a_node2"><a xlink:href="classdenoptim_1_1utils_1_1_rotational_space_utils.html#af386024b4389e50ad3ff118168e5382d" target="_top" xlink:title="Define the rotational space (also torsional space) for a given molecule.">
<polygon fill="white" stroke="black" points="1300.5,-456.5 1300.5,-486.5 1461.5,-486.5 1461.5,-456.5 1300.5,-456.5"/>
<text text-anchor="start" x="1308.5" y="-474.5" font-family="Helvetica,sans-Serif" font-size="10.00">denoptim.utils.Rotational</text>
<text text-anchor="middle" x="1381" y="-463.5" font-family="Helvetica,sans-Serif" font-size="10.00">SpaceUtils.defineRotatableBonds</text>
</a>
</g>
</g>
<!-- Node1&#45;&gt;Node2 -->
<g id="edge1" class="edge">
<title>Node1&#45;&gt;Node2</title>
<path fill="none" stroke="midnightblue" d="M2023,-303.24C1999.63,-325.86 1954.55,-365.62 1908,-385.5 1759.09,-449.11 1567.97,-465.94 1461.93,-470.22"/>
<polygon fill="midnightblue" stroke="midnightblue" points="2025.66,-305.53 2030.32,-296.02 2020.74,-300.55 2025.66,-305.53"/>
</g>
<!-- Node19 -->
<g id="node19" class="node">
<title>Node19</title>
<g id="a_node19"><a xlink:href="classdenoptim_1_1graph_1_1rings_1_1_cyclic_graph_handler.html#ae14cac1f0746cf7b50db933cab59e4e4" target="_top" xlink:title="Method to evaluate the closability of a single path considering only its constitution.">
<polygon fill="white" stroke="black" points="1729,-335 1729,-376 1904,-376 1904,-335 1729,-335"/>
<text text-anchor="start" x="1737" y="-364" font-family="Helvetica,sans-Serif" font-size="10.00">denoptim.graph.rings.Cyclic</text>
<text text-anchor="start" x="1737" y="-353" font-family="Helvetica,sans-Serif" font-size="10.00">GraphHandler.evaluateConstitutional</text>
<text text-anchor="middle" x="1816.5" y="-342" font-family="Helvetica,sans-Serif" font-size="10.00">Closability</text>
</a>
</g>
</g>
<!-- Node1&#45;&gt;Node19 -->
<g id="edge22" class="edge">
<title>Node1&#45;&gt;Node19</title>
<path fill="none" stroke="midnightblue" d="M1998.68,-299.19C1966.52,-309.18 1921.03,-323.32 1883.68,-334.93"/>
<polygon fill="midnightblue" stroke="midnightblue" points="2000.12,-302.4 2008.63,-296.09 1998.04,-295.72 2000.12,-302.4"/>
</g>
<!-- Node23 -->
<g id="node23" class="node">
<title>Node23</title>
<g id="a_node23"><a xlink:href="classdenoptim_1_1utils_1_1_molecule_utils.html#a58fcbd2f74b34850ddbf4d9f8b9fa06c" target="_top" xlink:title="Generates 2D coordinates for the molecule.">
<polygon fill="white" stroke="black" points="1725,-271.5 1725,-301.5 1908,-301.5 1908,-271.5 1725,-271.5"/>
<text text-anchor="start" x="1733" y="-289.5" font-family="Helvetica,sans-Serif" font-size="10.00">denoptim.utils.MoleculeUtils.generate2</text>
<text text-anchor="middle" x="1816.5" y="-278.5" font-family="Helvetica,sans-Serif" font-size="10.00">DCoordinates</text>
</a>
</g>
</g>
<!-- Node1&#45;&gt;Node23 -->
<g id="edge29" class="edge">
<title>Node1&#45;&gt;Node23</title>
<path fill="none" stroke="midnightblue" d="M1933.7,-286.5C1925.11,-286.5 1916.49,-286.5 1908.03,-286.5"/>
<polygon fill="midnightblue" stroke="midnightblue" points="1933.74,-290 1943.74,-286.5 1933.74,-283 1933.74,-290"/>
</g>
<!-- Node29 -->
<g id="node29" class="node">
<title>Node29</title>
<g id="a_node29"><a xlink:href="classdenoptim_1_1utils_1_1_molecule_utils.html#afd6e30de5541536b6f4eba0e5d9a5317" target="_top" xlink:title="Generates the INCHI key for the molecule.">
<polygon fill="white" stroke="black" points="1739.5,-183.5 1739.5,-213.5 1893.5,-213.5 1893.5,-183.5 1739.5,-183.5"/>
<text text-anchor="start" x="1747.5" y="-201.5" font-family="Helvetica,sans-Serif" font-size="10.00">denoptim.utils.MoleculeUtils.get</text>
<text text-anchor="middle" x="1816.5" y="-190.5" font-family="Helvetica,sans-Serif" font-size="10.00">InChIKeyForMolecule</text>
</a>
</g>
</g>
<!-- Node1&#45;&gt;Node29 -->
<g id="edge36" class="edge">
<title>Node1&#45;&gt;Node29</title>
<path fill="none" stroke="midnightblue" d="M2010.17,-272.6C1983.74,-260.31 1943.67,-242.24 1908,-228.5 1894.41,-223.26 1879.47,-218.08 1865.71,-213.54"/>
<polygon fill="midnightblue" stroke="midnightblue" points="2008.71,-275.78 2019.25,-276.85 2011.68,-269.44 2008.71,-275.78"/>
</g>
<!-- Node30 -->
<g id="node30" class="node">
<title>Node30</title>
<g id="a_node30"><a xlink:href="classdenoptim_1_1utils_1_1_molecule_utils.html#a572e6936929d9decea95808edbbfd16c" target="_top" xlink:title="Returns the SMILES representation of the molecule.">
<polygon fill="white" stroke="black" points="1304,-166.5 1304,-196.5 1458,-196.5 1458,-166.5 1304,-166.5"/>
<text text-anchor="start" x="1312" y="-184.5" font-family="Helvetica,sans-Serif" font-size="10.00">denoptim.utils.MoleculeUtils.get</text>
<text text-anchor="middle" x="1381" y="-173.5" font-family="Helvetica,sans-Serif" font-size="10.00">SMILESForMolecule</text>
</a>
</g>
</g>
<!-- Node1&#45;&gt;Node30 -->
<g id="edge37" class="edge">
<title>Node1&#45;&gt;Node30</title>
<path fill="none" stroke="midnightblue" d="M1981.87,-275.07C1958.92,-270.64 1932.24,-265.65 1908,-261.5 1748.44,-234.21 1560.84,-206.79 1458.36,-192.21"/>
<polygon fill="midnightblue" stroke="midnightblue" points="1981.31,-278.52 1991.79,-276.99 1982.64,-271.65 1981.31,-278.52"/>
</g>
<!-- Node3 -->
<g id="node3" class="node">
<title>Node3</title>
<g id="a_node3"><a xlink:href="classdenoptim_1_1molecularmodeling_1_1_multi_molecular_model_builder.html#a1cd879265bf12e9c2980efae1e8e74aa" target="_top" xlink:title="Generate 3D structure by assembling 3D fragments according to attachment point vector and following t...">
<polygon fill="white" stroke="black" points="1063,-490.5 1063,-520.5 1253,-520.5 1253,-490.5 1063,-490.5"/>
<text text-anchor="start" x="1071" y="-508.5" font-family="Helvetica,sans-Serif" font-size="10.00">denoptim.molecularmodeling.</text>
<text text-anchor="middle" x="1158" y="-497.5" font-family="Helvetica,sans-Serif" font-size="10.00">MultiMolecularModelBuilder.build3DTree</text>
</a>
</g>
</g>
<!-- Node2&#45;&gt;Node3 -->
<g id="edge2" class="edge">
<title>Node2&#45;&gt;Node3</title>
<path fill="none" stroke="midnightblue" d="M1290.13,-485.33C1278.01,-487.19 1265.54,-489.11 1253.34,-490.99"/>
<polygon fill="midnightblue" stroke="midnightblue" points="1290.86,-488.75 1300.21,-483.77 1289.8,-481.84 1290.86,-488.75"/>
</g>
<!-- Node6 -->
<g id="node6" class="node">
<title>Node6</title>
<g id="a_node6"><a xlink:href="classdenoptim_1_1graph_1_1_d_graph.html#a7a4743d014e860237f4b20703ef9779b" target="_top" xlink:title="Evaluates the possibility of closing rings in this graph and generates all alternative graphs resulti...">
<polygon fill="white" stroke="black" points="1080.5,-357.5 1080.5,-387.5 1235.5,-387.5 1235.5,-357.5 1080.5,-357.5"/>
<text text-anchor="start" x="1088.5" y="-375.5" font-family="Helvetica,sans-Serif" font-size="10.00">denoptim.graph.DGraph.make</text>
<text text-anchor="middle" x="1158" y="-364.5" font-family="Helvetica,sans-Serif" font-size="10.00">AllGraphsWithDifferentRingSets</text>
</a>
</g>
</g>
<!-- Node2&#45;&gt;Node6 -->
<g id="edge5" class="edge">
<title>Node2&#45;&gt;Node6</title>
<path fill="none" stroke="midnightblue" d="M1296.03,-451.86C1293.61,-450.5 1291.26,-449.05 1289,-447.5 1266.44,-431.99 1275.55,-413.04 1253,-397.5 1247.44,-393.67 1241.32,-390.42 1234.95,-387.67"/>
<polygon fill="midnightblue" stroke="midnightblue" points="1294.58,-455.05 1305.09,-456.38 1297.7,-448.78 1294.58,-455.05"/>
</g>
<!-- Node8 -->
<g id="node8" class="node">
<title>Node8</title>
<g id="a_node8"><a xlink:href="classdenoptim_1_1ga_1_1_e_a_utils.html#a1ddb932d4618434d435e4f85ce5e5eb5" target="_top" xlink:title="Evaluates the possibility of closing rings in a given graph and if any ring can be closed,...">
<polygon fill="white" stroke="black" points="1092.5,-406.5 1092.5,-436.5 1223.5,-436.5 1223.5,-406.5 1092.5,-406.5"/>
<text text-anchor="start" x="1100.5" y="-424.5" font-family="Helvetica,sans-Serif" font-size="10.00">denoptim.ga.EAUtils.setup</text>
<text text-anchor="middle" x="1158" y="-413.5" font-family="Helvetica,sans-Serif" font-size="10.00">Rings</text>
</a>
</g>
</g>
<!-- Node2&#45;&gt;Node8 -->
<g id="edge7" class="edge">
<title>Node2&#45;&gt;Node8</title>
<path fill="none" stroke="midnightblue" d="M1303.85,-454.27C1277.76,-448.37 1248.84,-441.83 1223.74,-436.15"/>
<polygon fill="midnightblue" stroke="midnightblue" points="1303.17,-457.71 1313.69,-456.5 1304.71,-450.88 1303.17,-457.71"/>
</g>
<!-- Node4 -->
<g id="node4" class="node">
<title>Node4</title>
<g id="a_node4"><a xlink:href="classdenoptim_1_1molecularmodeling_1_1_multi_molecular_model_builder.html#a6a8e314f3fb37f66c32c8c4d5695b8a4" target="_top" xlink:title="Given the graph representation of the molecular constitution, along with the 3D coordinates of the fr...">
<polygon fill="white" stroke="black" points="866,-496 866,-537 1024,-537 1024,-496 866,-496"/>
<text text-anchor="start" x="874" y="-525" font-family="Helvetica,sans-Serif" font-size="10.00">denoptim.molecularmodeling.</text>
<text text-anchor="start" x="874" y="-514" font-family="Helvetica,sans-Serif" font-size="10.00">MultiMolecularModelBuilder.build</text>
<text text-anchor="middle" x="945" y="-503" font-family="Helvetica,sans-Serif" font-size="10.00">Multi3DStructure</text>
</a>
</g>
</g>
<!-- Node3&#45;&gt;Node4 -->
<g id="edge3" class="edge">
<title>Node3&#45;&gt;Node4</title>
<path fill="none" stroke="midnightblue" d="M1052.85,-510.93C1043.18,-511.43 1033.49,-511.94 1024.11,-512.43"/>
<polygon fill="midnightblue" stroke="midnightblue" points="1053.11,-514.42 1062.92,-510.4 1052.75,-507.43 1053.11,-514.42"/>
</g>
<!-- Node5 -->
<g id="node5" class="node">
<title>Node5</title>
<g id="a_node5"><a xlink:href="classdenoptim_1_1programs_1_1moldecularmodelbuilder_1_1_molecular_model_builder.html#ad2e44290de6a861274def677044e9754" target="_top" xlink:title=" ">
<polygon fill="white" stroke="black" points="621,-509.5 621,-539.5 827,-539.5 827,-509.5 621,-509.5"/>
<text text-anchor="start" x="629" y="-527.5" font-family="Helvetica,sans-Serif" font-size="10.00">denoptim.programs.moldecularmodelbuilder.</text>
<text text-anchor="middle" x="724" y="-516.5" font-family="Helvetica,sans-Serif" font-size="10.00">MolecularModelBuilder.runProgram</text>
</a>
</g>
</g>
<!-- Node4&#45;&gt;Node5 -->
<g id="edge4" class="edge">
<title>Node4&#45;&gt;Node5</title>
<path fill="none" stroke="midnightblue" d="M855.77,-519.72C846.37,-520.07 836.76,-520.42 827.22,-520.77"/>
<polygon fill="midnightblue" stroke="midnightblue" points="856,-523.22 865.86,-519.35 855.74,-516.22 856,-523.22"/>
</g>
<!-- Node7 -->
<g id="node7" class="node">
<title>Node7</title>
<g id="a_node7"><a xlink:href="classdenoptim_1_1combinatorial_1_1_graph_building_task.html#a3eaee724fc921194fa158714aafe182d" target="_top" xlink:title="Calls the task.">
<polygon fill="white" stroke="black" points="872.5,-210.5 872.5,-240.5 1017.5,-240.5 1017.5,-210.5 872.5,-210.5"/>
<text text-anchor="start" x="880.5" y="-228.5" font-family="Helvetica,sans-Serif" font-size="10.00">denoptim.combinatorial.Graph</text>
<text text-anchor="middle" x="945" y="-217.5" font-family="Helvetica,sans-Serif" font-size="10.00">BuildingTask.call</text>
</a>
</g>
</g>
<!-- Node6&#45;&gt;Node7 -->
<g id="edge6" class="edge">
<title>Node6&#45;&gt;Node7</title>
<path fill="none" stroke="midnightblue" d="M1074.54,-353.48C1070.55,-351.66 1066.68,-349.67 1063,-347.5 1015.49,-319.46 974.66,-266.81 956.32,-240.82"/>
<polygon fill="midnightblue" stroke="midnightblue" points="1073.45,-356.81 1084.03,-357.42 1076.14,-350.35 1073.45,-356.81"/>
</g>
<!-- Node9 -->
<g id="node9" class="node">
<title>Node9</title>
<g id="a_node9"><a xlink:href="classdenoptim_1_1ga_1_1_e_a_utils.html#a8122818f58919fce84dce75e7506025a" target="_top" xlink:title=" ">
<polygon fill="white" stroke="black" points="881.5,-381.5 881.5,-411.5 1008.5,-411.5 1008.5,-381.5 881.5,-381.5"/>
<text text-anchor="start" x="889.5" y="-399.5" font-family="Helvetica,sans-Serif" font-size="10.00">denoptim.ga.EAUtils.build</text>
<text text-anchor="middle" x="945" y="-388.5" font-family="Helvetica,sans-Serif" font-size="10.00">CandidateByMutation</text>
</a>
</g>
</g>
<!-- Node8&#45;&gt;Node9 -->
<g id="edge8" class="edge">
<title>Node8&#45;&gt;Node9</title>
<path fill="none" stroke="midnightblue" d="M1082.14,-412.63C1058.15,-409.79 1031.84,-406.67 1008.81,-403.94"/>
<polygon fill="midnightblue" stroke="midnightblue" points="1081.92,-416.13 1092.26,-413.83 1082.74,-409.18 1081.92,-416.13"/>
</g>
<!-- Node16 -->
<g id="node16" class="node">
<title>Node16</title>
<g id="a_node16"><a xlink:href="classdenoptim_1_1ga_1_1_e_a_utils.html#ad3d2daeb11e68a356e971ca1846596b5" target="_top" xlink:title=" ">
<polygon fill="white" stroke="black" points="881.5,-430.5 881.5,-460.5 1008.5,-460.5 1008.5,-430.5 881.5,-430.5"/>
<text text-anchor="start" x="889.5" y="-448.5" font-family="Helvetica,sans-Serif" font-size="10.00">denoptim.ga.EAUtils.build</text>
<text text-anchor="middle" x="945" y="-437.5" font-family="Helvetica,sans-Serif" font-size="10.00">CandidateFromScratch</text>
</a>
</g>
</g>
<!-- Node8&#45;&gt;Node16 -->
<g id="edge16" class="edge">
<title>Node8&#45;&gt;Node16</title>
<path fill="none" stroke="midnightblue" d="M1082.14,-430.02C1058.15,-432.74 1031.84,-435.74 1008.81,-438.36"/>
<polygon fill="midnightblue" stroke="midnightblue" points="1082.72,-433.47 1092.26,-428.86 1081.93,-426.52 1082.72,-433.47"/>
</g>
<!-- Node18 -->
<g id="node18" class="node">
<title>Node18</title>
<g id="a_node18"><a xlink:href="classdenoptim_1_1ga_1_1_e_a_utils.html#a0b958439d79fae30f14530213ad22e3a" target="_top" xlink:title="Generates up to a pair of new offspring by performing a crossover operation.">
<polygon fill="white" stroke="black" points="881.5,-332.5 881.5,-362.5 1008.5,-362.5 1008.5,-332.5 881.5,-332.5"/>
<text text-anchor="start" x="889.5" y="-350.5" font-family="Helvetica,sans-Serif" font-size="10.00">denoptim.ga.EAUtils.build</text>
<text text-anchor="middle" x="945" y="-339.5" font-family="Helvetica,sans-Serif" font-size="10.00">CandidatesByXOver</text>
</a>
</g>
</g>
<!-- Node8&#45;&gt;Node18 -->
<g id="edge21" class="edge">
<title>Node8&#45;&gt;Node18</title>
<path fill="none" stroke="midnightblue" d="M1082.41,-405.11C1075.74,-402.85 1069.18,-400.32 1063,-397.5 1045.28,-389.41 1044.51,-381.03 1027,-372.5 1019.33,-368.76 1010.97,-365.44 1002.64,-362.52"/>
<polygon fill="midnightblue" stroke="midnightblue" points="1081.64,-408.53 1092.24,-408.22 1083.76,-401.86 1081.64,-408.53"/>
</g>
<!-- Node10 -->
<g id="node10" class="node">
<title>Node10</title>
<g id="a_node10"><a xlink:href="classdenoptim_1_1ga_1_1_evolutionary_algorithm.html#a0c2e353b243250b4959a3f86608f1020" target="_top" xlink:title="Generates one offspring according to the method where crossover and mutation are decoupled,...">
<polygon fill="white" stroke="black" points="659,-372.5 659,-402.5 789,-402.5 789,-372.5 659,-372.5"/>
<text text-anchor="start" x="667" y="-390.5" font-family="Helvetica,sans-Serif" font-size="10.00">denoptim.ga.Evolutionary</text>
<text text-anchor="middle" x="724" y="-379.5" font-family="Helvetica,sans-Serif" font-size="10.00">Algorithm.makeOffspringA</text>
</a>
</g>
</g>
<!-- Node9&#45;&gt;Node10 -->
<g id="edge9" class="edge">
<title>Node9&#45;&gt;Node10</title>
<path fill="none" stroke="midnightblue" d="M870.91,-393.5C844.5,-392.41 814.89,-391.19 789.29,-390.14"/>
<polygon fill="midnightblue" stroke="midnightblue" points="871.11,-397.01 881.24,-393.92 871.4,-390.01 871.11,-397.01"/>
</g>
<!-- Node15 -->
<g id="node15" class="node">
<title>Node15</title>
<g id="a_node15"><a xlink:href="classdenoptim_1_1ga_1_1_evolutionary_algorithm.html#ae7a90a911b109ed47b3acf54193acc35" target="_top" xlink:title="Generates one offspring according to the method where crossover and mutation are coupled,...">
<polygon fill="white" stroke="black" points="659,-421.5 659,-451.5 789,-451.5 789,-421.5 659,-421.5"/>
<text text-anchor="start" x="667" y="-439.5" font-family="Helvetica,sans-Serif" font-size="10.00">denoptim.ga.Evolutionary</text>
<text text-anchor="middle" x="724" y="-428.5" font-family="Helvetica,sans-Serif" font-size="10.00">Algorithm.makeOffspringB</text>
</a>
</g>
</g>
<!-- Node9&#45;&gt;Node15 -->
<g id="edge14" class="edge">
<title>Node9&#45;&gt;Node15</title>
<path fill="none" stroke="midnightblue" d="M871.26,-409.79C844.76,-414.63 815,-420.06 789.29,-424.76"/>
<polygon fill="midnightblue" stroke="midnightblue" points="872.04,-413.2 881.24,-407.96 870.78,-406.32 872.04,-413.2"/>
</g>
<!-- Node11 -->
<g id="node11" class="node">
<title>Node11</title>
<g id="a_node11"><a xlink:href="classdenoptim_1_1ga_1_1_evolutionary_algorithm.html#a596b2f5f0b097c5b67a6e5163bd6fe66" target="_top" xlink:title="Generates a given number of new candidate items and adds them to the current population.">
<polygon fill="white" stroke="black" points="419.5,-416.5 419.5,-446.5 553.5,-446.5 553.5,-416.5 419.5,-416.5"/>
<text text-anchor="start" x="427.5" y="-434.5" font-family="Helvetica,sans-Serif" font-size="10.00">denoptim.ga.Evolutionary</text>
<text text-anchor="middle" x="486.5" y="-423.5" font-family="Helvetica,sans-Serif" font-size="10.00">Algorithm.evolvePopulation</text>
</a>
</g>
</g>
<!-- Node10&#45;&gt;Node11 -->
<g id="edge10" class="edge">
<title>Node10&#45;&gt;Node11</title>
<path fill="none" stroke="midnightblue" d="M648.8,-401.36C618.27,-407.07 583.2,-413.62 553.58,-419.15"/>
<polygon fill="midnightblue" stroke="midnightblue" points="649.77,-404.74 658.96,-399.47 648.49,-397.86 649.77,-404.74"/>
</g>
<!-- Node12 -->
<g id="node12" class="node">
<title>Node12</title>
<g id="a_node12"><a xlink:href="classdenoptim_1_1ga_1_1_evolutionary_algorithm.html#a6bfc2fa59b199da6259b5b6bad3d6de7" target="_top" xlink:title=" ">
<polygon fill="white" stroke="black" points="209,-440.5 209,-470.5 333,-470.5 333,-440.5 209,-440.5"/>
<text text-anchor="start" x="217" y="-458.5" font-family="Helvetica,sans-Serif" font-size="10.00">denoptim.ga.Evolutionary</text>
<text text-anchor="middle" x="271" y="-447.5" font-family="Helvetica,sans-Serif" font-size="10.00">Algorithm.run</text>
</a>
</g>
</g>
<!-- Node11&#45;&gt;Node12 -->
<g id="edge11" class="edge">
<title>Node11&#45;&gt;Node12</title>
<path fill="none" stroke="midnightblue" d="M409.23,-440.07C384.22,-442.88 356.78,-445.97 333.05,-448.64"/>
<polygon fill="midnightblue" stroke="midnightblue" points="409.86,-443.52 419.41,-438.93 409.08,-436.57 409.86,-443.52"/>
</g>
<!-- Node13 -->
<g id="node13" class="node">
<title>Node13</title>
<g id="a_node13"><a xlink:href="classdenoptim_1_1ga_1_1_evolutionary_algorithm.html#a0f2063b722b7291daf83d62acaa683d3" target="_top" xlink:title=" ">
<polygon fill="white" stroke="black" points="0,-465.5 0,-495.5 154,-495.5 154,-465.5 0,-465.5"/>
<text text-anchor="start" x="8" y="-483.5" font-family="Helvetica,sans-Serif" font-size="10.00">denoptim.ga.Evolutionary</text>
<text text-anchor="middle" x="77" y="-472.5" font-family="Helvetica,sans-Serif" font-size="10.00">Algorithm.EvolutionaryAlgorithm</text>
</a>
</g>
</g>
<!-- Node12&#45;&gt;Node13 -->
<g id="edge12" class="edge">
<title>Node12&#45;&gt;Node13</title>
<path fill="none" stroke="midnightblue" d="M199,-464.75C184.34,-466.65 168.86,-468.67 154.04,-470.6"/>
<polygon fill="midnightblue" stroke="midnightblue" points="199.52,-468.21 208.99,-463.44 198.62,-461.27 199.52,-468.21"/>
</g>
<!-- Node14 -->
<g id="node14" class="node">
<title>Node14</title>
<g id="a_node14"><a xlink:href="classdenoptim_1_1programs_1_1denovo_1_1_g_a_runner.html#a7cafd6d78727b89dce3e2c8d06f0dd7c" target="_top" xlink:title=" ">
<polygon fill="white" stroke="black" points="9.5,-416.5 9.5,-446.5 144.5,-446.5 144.5,-416.5 9.5,-416.5"/>
<text text-anchor="start" x="17.5" y="-434.5" font-family="Helvetica,sans-Serif" font-size="10.00">denoptim.programs.denovo.</text>
<text text-anchor="middle" x="77" y="-423.5" font-family="Helvetica,sans-Serif" font-size="10.00">GARunner.runProgram</text>
</a>
</g>
</g>
<!-- Node12&#45;&gt;Node14 -->
<g id="edge13" class="edge">
<title>Node12&#45;&gt;Node14</title>
<path fill="none" stroke="midnightblue" d="M198.7,-446.59C180.96,-444.37 162.01,-442 144.51,-439.81"/>
<polygon fill="midnightblue" stroke="midnightblue" points="198.63,-450.11 208.99,-447.87 199.5,-443.16 198.63,-450.11"/>
</g>
<!-- Node15&#45;&gt;Node11 -->
<g id="edge15" class="edge">
<title>Node15&#45;&gt;Node11</title>
<path fill="none" stroke="midnightblue" d="M648.8,-434.92C618.27,-434.28 583.2,-433.53 553.58,-432.9"/>
<polygon fill="midnightblue" stroke="midnightblue" points="648.89,-438.43 658.96,-435.14 649.04,-431.43 648.89,-438.43"/>
</g>
<!-- Node16&#45;&gt;Node10 -->
<g id="edge19" class="edge">
<title>Node16&#45;&gt;Node10</title>
<path fill="none" stroke="midnightblue" d="M882.53,-427.73C864.66,-422.68 845.08,-417.26 827,-412.5 814.39,-409.18 800.87,-405.76 787.93,-402.56"/>
<polygon fill="midnightblue" stroke="midnightblue" points="881.69,-431.13 892.27,-430.49 883.6,-424.4 881.69,-431.13"/>
</g>
<!-- Node16&#45;&gt;Node15 -->
<g id="edge20" class="edge">
<title>Node16&#45;&gt;Node15</title>
<path fill="none" stroke="midnightblue" d="M870.91,-442.5C844.5,-441.41 814.89,-440.19 789.29,-439.14"/>
<polygon fill="midnightblue" stroke="midnightblue" points="871.11,-446.01 881.24,-442.92 871.4,-439.01 871.11,-446.01"/>
</g>
<!-- Node17 -->
<g id="node17" class="node">
<title>Node17</title>
<g id="a_node17"><a xlink:href="classdenoptim_1_1ga_1_1_evolutionary_algorithm.html#ad43588620dab3340e0d8b0042ec73618" target="_top" xlink:title="Fills up the population with candidates build from scratch.">
<polygon fill="white" stroke="black" points="416.5,-465.5 416.5,-495.5 556.5,-495.5 556.5,-465.5 416.5,-465.5"/>
<text text-anchor="start" x="424.5" y="-483.5" font-family="Helvetica,sans-Serif" font-size="10.00">denoptim.ga.Evolutionary</text>
<text text-anchor="middle" x="486.5" y="-472.5" font-family="Helvetica,sans-Serif" font-size="10.00">Algorithm.initializePopulation</text>
</a>
</g>
</g>
<!-- Node16&#45;&gt;Node17 -->
<g id="edge17" class="edge">
<title>Node16&#45;&gt;Node17</title>
<path fill="none" stroke="midnightblue" d="M871.26,-456.37C856.63,-458.29 841.34,-460.12 827,-461.5 733.57,-470.49 625.23,-475.64 556.55,-478.26"/>
<polygon fill="midnightblue" stroke="midnightblue" points="871.82,-459.82 881.26,-455.02 870.89,-452.88 871.82,-459.82"/>
</g>
<!-- Node17&#45;&gt;Node12 -->
<g id="edge18" class="edge">
<title>Node17&#45;&gt;Node12</title>
<path fill="none" stroke="midnightblue" d="M406.27,-471.22C382.13,-468.4 355.98,-465.33 333.22,-462.67"/>
<polygon fill="midnightblue" stroke="midnightblue" points="406.14,-474.73 416.48,-472.42 406.95,-467.78 406.14,-474.73"/>
</g>
<!-- Node20 -->
<g id="node20" class="node">
<title>Node20</title>
<g id="a_node20"><a xlink:href="classdenoptim_1_1graph_1_1rings_1_1_cyclic_graph_handler.html#abd43d52fe626625dab3da6a32038e57b" target="_top" xlink:title="Method to evaluate the closability of a single path in a graph representing a molecule.">
<polygon fill="white" stroke="black" points="1509,-342.5 1509,-372.5 1689,-372.5 1689,-342.5 1509,-342.5"/>
<text text-anchor="start" x="1517" y="-360.5" font-family="Helvetica,sans-Serif" font-size="10.00">denoptim.graph.rings.Cyclic</text>
<text text-anchor="middle" x="1599" y="-349.5" font-family="Helvetica,sans-Serif" font-size="10.00">GraphHandler.evaluatePathClosability</text>
</a>
</g>
</g>
<!-- Node19&#45;&gt;Node20 -->
<g id="edge23" class="edge">
<title>Node19&#45;&gt;Node20</title>
<path fill="none" stroke="midnightblue" d="M1718.58,-356.4C1708.73,-356.49 1698.76,-356.58 1689,-356.67"/>
<polygon fill="midnightblue" stroke="midnightblue" points="1718.81,-359.9 1728.78,-356.3 1718.75,-352.9 1718.81,-359.9"/>
</g>
<!-- Node21 -->
<g id="node21" class="node">
<title>Node21</title>
<g id="a_node21"><a xlink:href="classdenoptim_1_1graph_1_1rings_1_1_cyclic_graph_handler.html#a3ce96322723f45d9285a248ebcef94d3" target="_top" xlink:title="Identifies all possible ring closing paths and returns them as list of DENOPTIMRings ready to be appe...">
<polygon fill="white" stroke="black" points="1289,-337 1289,-378 1473,-378 1473,-337 1289,-337"/>
<text text-anchor="start" x="1297" y="-366" font-family="Helvetica,sans-Serif" font-size="10.00">denoptim.graph.rings.Cyclic</text>
<text text-anchor="start" x="1297" y="-355" font-family="Helvetica,sans-Serif" font-size="10.00">GraphHandler.getPossibleCombination</text>
<text text-anchor="middle" x="1381" y="-344" font-family="Helvetica,sans-Serif" font-size="10.00">OfRings</text>
</a>
</g>
</g>
<!-- Node20&#45;&gt;Node21 -->
<g id="edge24" class="edge">
<title>Node20&#45;&gt;Node21</title>
<path fill="none" stroke="midnightblue" d="M1498.66,-357.5C1490.22,-357.5 1481.71,-357.5 1473.34,-357.5"/>
<polygon fill="midnightblue" stroke="midnightblue" points="1498.9,-361 1508.9,-357.5 1498.9,-354 1498.9,-361"/>
</g>
<!-- Node22 -->
<g id="node22" class="node">
<title>Node22</title>
<g id="a_node22"><a xlink:href="classdenoptim_1_1graph_1_1rings_1_1_cyclic_graph_handler.html#a08b02946eaac7c2cbbe6e71332d702e6" target="_top" xlink:title="Identifies a random combination of ring closing paths and returns it as list of DENOPTIMRings ready t...">
<polygon fill="white" stroke="black" points="1290,-397 1290,-438 1472,-438 1472,-397 1290,-397"/>
<text text-anchor="start" x="1298" y="-426" font-family="Helvetica,sans-Serif" font-size="10.00">denoptim.graph.rings.Cyclic</text>
<text text-anchor="start" x="1298" y="-415" font-family="Helvetica,sans-Serif" font-size="10.00">GraphHandler.getRandomCombination</text>
<text text-anchor="middle" x="1381" y="-404" font-family="Helvetica,sans-Serif" font-size="10.00">OfRings</text>
</a>
</g>
</g>
<!-- Node20&#45;&gt;Node22 -->
<g id="edge27" class="edge">
<title>Node20&#45;&gt;Node22</title>
<path fill="none" stroke="midnightblue" d="M1533.86,-375.32C1509.34,-382.13 1481.19,-389.95 1455.84,-396.99"/>
<polygon fill="midnightblue" stroke="midnightblue" points="1535.07,-378.61 1543.77,-372.56 1533.2,-371.87 1535.07,-378.61"/>
</g>
<!-- Node21&#45;&gt;Node6 -->
<g id="edge25" class="edge">
<title>Node21&#45;&gt;Node6</title>
<path fill="none" stroke="midnightblue" d="M1278.81,-364.37C1264.26,-365.36 1249.5,-366.36 1235.53,-367.31"/>
<polygon fill="midnightblue" stroke="midnightblue" points="1279.09,-367.86 1288.83,-363.69 1278.62,-360.87 1279.09,-367.86"/>
</g>
<!-- Node21&#45;&gt;Node8 -->
<g id="edge26" class="edge">
<title>Node21&#45;&gt;Node8</title>
<path fill="none" stroke="midnightblue" d="M1307.5,-381.09C1289.73,-386.66 1270.73,-392.45 1253,-397.5 1242.31,-400.55 1230.88,-403.62 1219.81,-406.5"/>
<polygon fill="midnightblue" stroke="midnightblue" points="1308.74,-384.37 1317.22,-378.03 1306.63,-377.7 1308.74,-384.37"/>
</g>
<!-- Node22&#45;&gt;Node8 -->
<g id="edge28" class="edge">
<title>Node22&#45;&gt;Node8</title>
<path fill="none" stroke="midnightblue" d="M1279.58,-419.32C1260.54,-419.66 1241.11,-420.01 1223.55,-420.33"/>
<polygon fill="midnightblue" stroke="midnightblue" points="1279.86,-422.81 1289.79,-419.13 1279.73,-415.81 1279.86,-422.81"/>
</g>
<!-- Node24 -->
<g id="node24" class="node">
<title>Node24</title>
<g id="a_node24"><a xlink:href="classdenoptim_1_1utils_1_1_molecule_utils.html#ac0d5284bdf4e4631f18ffbea43496dc7" target="_top" xlink:title="Generate a PNG image from molecule mol">
<polygon fill="white" stroke="black" points="1509.5,-271.5 1509.5,-301.5 1688.5,-301.5 1688.5,-271.5 1509.5,-271.5"/>
<text text-anchor="start" x="1517.5" y="-289.5" font-family="Helvetica,sans-Serif" font-size="10.00">denoptim.utils.MoleculeUtils.molecule</text>
<text text-anchor="middle" x="1599" y="-278.5" font-family="Helvetica,sans-Serif" font-size="10.00">ToPNG</text>
</a>
</g>
</g>
<!-- Node23&#45;&gt;Node24 -->
<g id="edge30" class="edge">
<title>Node23&#45;&gt;Node24</title>
<path fill="none" stroke="midnightblue" d="M1714.59,-286.5C1705.91,-286.5 1697.17,-286.5 1688.59,-286.5"/>
<polygon fill="midnightblue" stroke="midnightblue" points="1714.73,-290 1724.73,-286.5 1714.73,-283 1714.73,-290"/>
</g>
<!-- Node25 -->
<g id="node25" class="node">
<title>Node25</title>
<g id="a_node25"><a xlink:href="classdenoptim_1_1task_1_1_fitness_task.html#a39bac06427179a7d067d3eadee30ba79" target="_top" xlink:title="This method runs the actual evaluation of the fitness, whether that is run internally (i....">
<polygon fill="white" stroke="black" points="1306.5,-267.5 1306.5,-297.5 1455.5,-297.5 1455.5,-267.5 1306.5,-267.5"/>
<text text-anchor="start" x="1314.5" y="-285.5" font-family="Helvetica,sans-Serif" font-size="10.00">denoptim.task.FitnessTask.run</text>
<text text-anchor="middle" x="1381" y="-274.5" font-family="Helvetica,sans-Serif" font-size="10.00">FitnessProvider</text>
</a>
</g>
</g>
<!-- Node24&#45;&gt;Node25 -->
<g id="edge31" class="edge">
<title>Node24&#45;&gt;Node25</title>
<path fill="none" stroke="midnightblue" d="M1499.13,-284.67C1484.51,-284.4 1469.65,-284.12 1455.66,-283.86"/>
<polygon fill="midnightblue" stroke="midnightblue" points="1499.15,-288.17 1509.21,-284.86 1499.28,-281.17 1499.15,-288.17"/>
</g>
<!-- Node26 -->
<g id="node26" class="node">
<title>Node26</title>
<g id="a_node26"><a xlink:href="classdenoptim_1_1ga_1_1_offspring_evaluation_task.html#aab5b9c0b8a88922460f5c28ae161d1fa" target="_top" xlink:title=" ">
<polygon fill="white" stroke="black" points="1080.5,-308.5 1080.5,-338.5 1235.5,-338.5 1235.5,-308.5 1080.5,-308.5"/>
<text text-anchor="start" x="1088.5" y="-326.5" font-family="Helvetica,sans-Serif" font-size="10.00">denoptim.ga.OffspringEvaluation</text>
<text text-anchor="middle" x="1158" y="-315.5" font-family="Helvetica,sans-Serif" font-size="10.00">Task.call</text>
</a>
</g>
</g>
<!-- Node25&#45;&gt;Node26 -->
<g id="edge32" class="edge">
<title>Node25&#45;&gt;Node26</title>
<path fill="none" stroke="midnightblue" d="M1296.42,-298.01C1276.48,-301.71 1255.29,-305.64 1235.67,-309.28"/>
<polygon fill="midnightblue" stroke="midnightblue" points="1297.22,-301.42 1306.41,-296.15 1295.94,-294.54 1297.22,-301.42"/>
</g>
<!-- Node27 -->
<g id="node27" class="node">
<title>Node27</title>
<g id="a_node27"><a xlink:href="classdenoptim_1_1programs_1_1fitnessevaluator_1_1_fitness_evaluation_task.html#a498b4214d06fc161d92cf1a38635ece3" target="_top" xlink:title=" ">
<polygon fill="white" stroke="black" points="1072,-259.5 1072,-289.5 1244,-289.5 1244,-259.5 1072,-259.5"/>
<text text-anchor="start" x="1080" y="-277.5" font-family="Helvetica,sans-Serif" font-size="10.00">denoptim.programs.fitnessevaluator.</text>
<text text-anchor="middle" x="1158" y="-266.5" font-family="Helvetica,sans-Serif" font-size="10.00">FitnessEvaluationTask.call</text>
</a>
</g>
</g>
<!-- Node25&#45;&gt;Node27 -->
<g id="edge33" class="edge">
<title>Node25&#45;&gt;Node27</title>
<path fill="none" stroke="midnightblue" d="M1295.97,-279.46C1278.99,-278.84 1261.13,-278.2 1244.12,-277.58"/>
<polygon fill="midnightblue" stroke="midnightblue" points="1296.29,-282.97 1306.41,-279.84 1296.54,-275.98 1296.29,-282.97"/>
</g>
<!-- Node28 -->
<g id="node28" class="node">
<title>Node28</title>
<g id="a_node28"><a xlink:href="classdenoptim_1_1combinatorial_1_1_graph_building_task.html#a6b74fb1e5678145e094259bfa2401bd4" target="_top" xlink:title=" ">
<polygon fill="white" stroke="black" points="1070,-210.5 1070,-240.5 1246,-240.5 1246,-210.5 1070,-210.5"/>
<text text-anchor="start" x="1078" y="-228.5" font-family="Helvetica,sans-Serif" font-size="10.00">denoptim.combinatorial.Graph</text>
<text text-anchor="middle" x="1158" y="-217.5" font-family="Helvetica,sans-Serif" font-size="10.00">BuildingTask.sendToFitnessProvider</text>
</a>
</g>
</g>
<!-- Node25&#45;&gt;Node28 -->
<g id="edge34" class="edge">
<title>Node25&#45;&gt;Node28</title>
<path fill="none" stroke="midnightblue" d="M1312.6,-264.93C1293.35,-259.93 1272.35,-254.48 1253,-249.5 1241.66,-246.58 1229.56,-243.48 1217.93,-240.5"/>
<polygon fill="midnightblue" stroke="midnightblue" points="1311.92,-268.37 1322.48,-267.5 1313.68,-261.6 1311.92,-268.37"/>
</g>
<!-- Node28&#45;&gt;Node7 -->
<g id="edge35" class="edge">
<title>Node28&#45;&gt;Node7</title>
<path fill="none" stroke="midnightblue" d="M1059.72,-225.5C1045.59,-225.5 1031.26,-225.5 1017.75,-225.5"/>
<polygon fill="midnightblue" stroke="midnightblue" points="1059.96,-229 1069.96,-225.5 1059.96,-222 1059.96,-229"/>
</g>
<!-- Node30&#45;&gt;Node7 -->
<g id="edge38" class="edge">
<title>Node30&#45;&gt;Node7</title>
<path fill="none" stroke="midnightblue" d="M1293.75,-183.16C1229.81,-185.25 1140.65,-189.94 1063,-200.5 1044.99,-202.95 1025.62,-206.65 1007.93,-210.45"/>
<polygon fill="midnightblue" stroke="midnightblue" points="1293.9,-186.66 1303.79,-182.85 1293.68,-179.66 1293.9,-186.66"/>
</g>
<!-- Node30&#45;&gt;Node8 -->
<g id="edge50" class="edge">
<title>Node30&#45;&gt;Node8</title>
<path fill="none" stroke="midnightblue" d="M1345.86,-202.23C1326.46,-215.69 1303.27,-234.91 1289,-257.5 1254.69,-311.82 1298.47,-352.11 1253,-397.5 1244.89,-405.59 1234.46,-411.08 1223.51,-414.77"/>
<polygon fill="midnightblue" stroke="midnightblue" points="1347.83,-205.12 1354.18,-196.64 1343.93,-199.31 1347.83,-205.12"/>
</g>
<!-- Node31 -->
<g id="node31" class="node">
<title>Node31</title>
<g id="a_node31"><a xlink:href="classdenoptim_1_1graph_1_1_d_graph.html#ac1e5c9703afc6f29fe11cca08ddb1a1c" target="_top" xlink:title="Peeks into this graph to derive a preliminary chemical representation with SMILES and InChIKey.">
<polygon fill="white" stroke="black" points="1085,-122.5 1085,-152.5 1231,-152.5 1231,-122.5 1085,-122.5"/>
<text text-anchor="start" x="1093" y="-140.5" font-family="Helvetica,sans-Serif" font-size="10.00">denoptim.graph.DGraph.check</text>
<text text-anchor="middle" x="1158" y="-129.5" font-family="Helvetica,sans-Serif" font-size="10.00">Consistency</text>
</a>
</g>
</g>
<!-- Node30&#45;&gt;Node31 -->
<g id="edge39" class="edge">
<title>Node30&#45;&gt;Node31</title>
<path fill="none" stroke="midnightblue" d="M1294.7,-164.52C1273.7,-160.34 1251.42,-155.9 1231.11,-151.86"/>
<polygon fill="midnightblue" stroke="midnightblue" points="1294.07,-167.96 1304.56,-166.48 1295.44,-161.1 1294.07,-167.96"/>
</g>
<!-- Node32 -->
<g id="node32" class="node">
<title>Node32</title>
<g id="a_node32"><a xlink:href="classdenoptim_1_1gui_1_1_fragment_view_panel.html#ae583c90795f338ffbf02776738700c09" target="_top" xlink:title="Returns the chemical representation of the currently loaded chemical object.">
<polygon fill="white" stroke="black" points="1089.5,-73.5 1089.5,-103.5 1226.5,-103.5 1226.5,-73.5 1089.5,-73.5"/>
<text text-anchor="start" x="1097.5" y="-91.5" font-family="Helvetica,sans-Serif" font-size="10.00">denoptim.gui.FragmentView</text>
<text text-anchor="middle" x="1158" y="-80.5" font-family="Helvetica,sans-Serif" font-size="10.00">Panel.getLoadedStructure</text>
</a>
</g>
</g>
<!-- Node30&#45;&gt;Node32 -->
<g id="edge40" class="edge">
<title>Node30&#45;&gt;Node32</title>
<path fill="none" stroke="midnightblue" d="M1347.81,-161.1C1322.76,-145.96 1286.7,-125.72 1253,-112.5 1244.53,-109.18 1235.46,-106.19 1226.4,-103.54"/>
<polygon fill="midnightblue" stroke="midnightblue" points="1346.16,-164.19 1356.51,-166.43 1349.81,-158.22 1346.16,-164.19"/>
</g>
<!-- Node33 -->
<g id="node33" class="node">
<title>Node33</title>
<g id="a_node33"><a xlink:href="classdenoptim_1_1gui_1_1_vertex_view_panel.html#a756c2375d70d66c5bbba03e8772bb24a" target="_top" xlink:title="Returns the currently loaded vertex.">
<polygon fill="white" stroke="black" points="863,-73.5 863,-103.5 1027,-103.5 1027,-73.5 863,-73.5"/>
<text text-anchor="start" x="871" y="-91.5" font-family="Helvetica,sans-Serif" font-size="10.00">denoptim.gui.VertexViewPanel.get</text>
<text text-anchor="middle" x="945" y="-80.5" font-family="Helvetica,sans-Serif" font-size="10.00">LoadedStructure</text>
</a>
</g>
</g>
<!-- Node32&#45;&gt;Node33 -->
<g id="edge41" class="edge">
<title>Node32&#45;&gt;Node33</title>
<path fill="none" stroke="midnightblue" d="M1079.01,-88.5C1062.14,-88.5 1044.26,-88.5 1027.26,-88.5"/>
<polygon fill="midnightblue" stroke="midnightblue" points="1079.37,-92 1089.37,-88.5 1079.37,-85 1079.37,-92"/>
</g>
<!-- Node34 -->
<g id="node34" class="node">
<title>Node34</title>
<g id="a_node34"><a xlink:href="classdenoptim_1_1gui_1_1_g_u_i_vertex_inspector.html#a7e833ba52549966556cc1bd1852dcfa4" target="_top" xlink:title=" ">
<polygon fill="white" stroke="black" points="629.5,-98.5 629.5,-128.5 818.5,-128.5 818.5,-98.5 629.5,-98.5"/>
<text text-anchor="start" x="637.5" y="-116.5" font-family="Helvetica,sans-Serif" font-size="10.00">denoptim.gui.GUIVertexInspector.import</text>
<text text-anchor="middle" x="724" y="-105.5" font-family="Helvetica,sans-Serif" font-size="10.00">StructureFromFile</text>
</a>
</g>
</g>
<!-- Node33&#45;&gt;Node34 -->
<g id="edge42" class="edge">
<title>Node33&#45;&gt;Node34</title>
<path fill="none" stroke="midnightblue" d="M852.56,-98.94C841.36,-100.22 829.9,-101.53 818.67,-102.81"/>
<polygon fill="midnightblue" stroke="midnightblue" points="853.23,-102.39 862.76,-97.77 852.43,-95.43 853.23,-102.39"/>
</g>
<!-- Node35 -->
<g id="node35" class="node">
<title>Node35</title>
<g id="a_node35"><a xlink:href="classdenoptim_1_1gui_1_1_g_u_i_vertex_inspector.html#acadecc92299a7ea46113c06382a1f333" target="_top" xlink:title="Initialize the panel and add buttons.">
<polygon fill="white" stroke="black" points="388,-80 388,-99 585,-99 585,-80 388,-80"/>
<text text-anchor="middle" x="486.5" y="-87" font-family="Helvetica,sans-Serif" font-size="10.00">denoptim.gui.GUIVertexInspector.initialize</text>
</a>
</g>
</g>
<!-- Node33&#45;&gt;Node35 -->
<g id="edge47" class="edge">
<title>Node33&#45;&gt;Node35</title>
<path fill="none" stroke="midnightblue" d="M907.46,-108.23C884.97,-119.24 855.15,-131.84 827,-137.5 737.24,-155.54 711.2,-153.22 621,-137.5 579.02,-130.18 532.81,-110.83 507.26,-99.06"/>
<polygon fill="midnightblue" stroke="midnightblue" points="909.26,-111.25 916.63,-103.64 906.12,-104.99 909.26,-111.25"/>
</g>
<!-- Node37 -->
<g id="node37" class="node">
<title>Node37</title>
<g id="a_node37"><a xlink:href="classdenoptim_1_1gui_1_1_g_u_i_vertex_inspector.html#a530b2f509d3e15fd285526a34461cc9e" target="_top" xlink:title="Imports the given SMILES into the viewer.">
<polygon fill="white" stroke="black" points="629.5,-49.5 629.5,-79.5 818.5,-79.5 818.5,-49.5 629.5,-49.5"/>
<text text-anchor="start" x="637.5" y="-67.5" font-family="Helvetica,sans-Serif" font-size="10.00">denoptim.gui.GUIVertexInspector.import</text>
<text text-anchor="middle" x="724" y="-56.5" font-family="Helvetica,sans-Serif" font-size="10.00">StructureFromSMILES</text>
</a>
</g>
</g>
<!-- Node33&#45;&gt;Node37 -->
<g id="edge45" class="edge">
<title>Node33&#45;&gt;Node37</title>
<path fill="none" stroke="midnightblue" d="M852.56,-78.48C841.36,-77.25 829.9,-76 818.67,-74.76"/>
<polygon fill="midnightblue" stroke="midnightblue" points="852.44,-81.99 862.76,-79.6 853.2,-75.03 852.44,-81.99"/>
</g>
<!-- Node38 -->
<g id="node38" class="node">
<title>Node38</title>
<g id="a_node38"><a xlink:href="classdenoptim_1_1gui_1_1_g_u_i_vertex_inspector.html#a09363e21a5254efe8f128a99e82acbf0" target="_top" xlink:title=" ">
<polygon fill="white" stroke="black" points="632.5,-0.5 632.5,-30.5 815.5,-30.5 815.5,-0.5 632.5,-0.5"/>
<text text-anchor="start" x="640.5" y="-18.5" font-family="Helvetica,sans-Serif" font-size="10.00">denoptim.gui.GUIVertexInspector.save</text>
<text text-anchor="middle" x="724" y="-7.5" font-family="Helvetica,sans-Serif" font-size="10.00">UnsavedChanges</text>
</a>
</g>
</g>
<!-- Node33&#45;&gt;Node38 -->
<g id="edge48" class="edge">
<title>Node33&#45;&gt;Node38</title>
<path fill="none" stroke="midnightblue" d="M902.37,-69.08C880.3,-59.3 852.54,-47.79 827,-39.5 816.96,-36.24 806.24,-33.23 795.65,-30.52"/>
<polygon fill="midnightblue" stroke="midnightblue" points="901.21,-72.4 911.77,-73.3 904.07,-66.01 901.21,-72.4"/>
</g>
<!-- Node34&#45;&gt;Node35 -->
<g id="edge43" class="edge">
<title>Node34&#45;&gt;Node35</title>
<path fill="none" stroke="midnightblue" d="M619.11,-102.91C606.4,-101.62 593.47,-100.3 580.93,-99.02"/>
<polygon fill="midnightblue" stroke="midnightblue" points="618.94,-106.41 629.25,-103.95 619.65,-99.45 618.94,-106.41"/>
</g>
<!-- Node36 -->
<g id="node36" class="node">
<title>Node36</title>
<g id="a_node36"><a xlink:href="classdenoptim_1_1gui_1_1_g_u_i_vertex_inspector.html#abc5d3c33ad9b2b114ce43e9b2cd577bb" target="_top" xlink:title="Constructor.">
<polygon fill="white" stroke="black" points="190,-74.5 190,-104.5 352,-104.5 352,-74.5 190,-74.5"/>
<text text-anchor="start" x="198" y="-92.5" font-family="Helvetica,sans-Serif" font-size="10.00">denoptim.gui.GUIVertexInspector.</text>
<text text-anchor="middle" x="271" y="-81.5" font-family="Helvetica,sans-Serif" font-size="10.00">GUIVertexInspector</text>
</a>
</g>
</g>
<!-- Node35&#45;&gt;Node36 -->
<g id="edge44" class="edge">
<title>Node35&#45;&gt;Node36</title>
<path fill="none" stroke="midnightblue" d="M377.69,-89.5C369.06,-89.5 360.44,-89.5 352.05,-89.5"/>
<polygon fill="midnightblue" stroke="midnightblue" points="377.81,-93 387.81,-89.5 377.81,-86 377.81,-93"/>
</g>
<!-- Node37&#45;&gt;Node35 -->
<g id="edge46" class="edge">
<title>Node37&#45;&gt;Node35</title>
<path fill="none" stroke="midnightblue" d="M619.11,-75.53C605.1,-77.02 590.83,-78.53 577.1,-79.99"/>
<polygon fill="midnightblue" stroke="midnightblue" points="619.67,-78.99 629.25,-74.45 618.93,-72.03 619.67,-78.99"/>
</g>
<!-- Node38&#45;&gt;Node35 -->
<g id="edge49" class="edge">
<title>Node38&#45;&gt;Node35</title>
<path fill="none" stroke="midnightblue" d="M643.96,-33.04C636.17,-35.09 628.4,-37.25 621,-39.5 581.45,-51.51 536.69,-69.13 510.35,-79.93"/>
<polygon fill="midnightblue" stroke="midnightblue" points="645,-36.39 653.82,-30.52 643.27,-29.61 645,-36.39"/>
</g>
</g>
</svg>
