<?xml version="1.0" encoding="UTF-8" standalone="no"?>
<!DOCTYPE svg PUBLIC "-//W3C//DTD SVG 1.1//EN"
 "http://www.w3.org/Graphics/SVG/1.1/DTD/svg11.dtd">
<!-- Generated by graphviz version 3.0.0 (20221109.1736)
 -->
<!-- Title: denoptim.graph.Edge.getBondType Pages: 1 -->
<svg width="1557pt" height="529pt"
 viewBox="0.00 0.00 1557.00 529.00" xmlns="http://www.w3.org/2000/svg" xmlns:xlink="http://www.w3.org/1999/xlink">
<g id="graph0" class="graph" transform="scale(1 1) rotate(0) translate(4 525)">
<title>denoptim.graph.Edge.getBondType</title>
<polygon fill="white" stroke="transparent" points="-4,4 -4,-525 1553,-525 1553,4 -4,4"/>
<!-- Node1 -->
<g id="node1" class="node">
<title>Node1</title>
<g id="a_node1"><a xlink:title=" ">
<polygon fill="#bfbfbf" stroke="black" points="1383,-232 1383,-251 1549,-251 1549,-232 1383,-232"/>
<text text-anchor="middle" x="1466" y="-239" font-family="Helvetica,sans-Serif" font-size="10.00">denoptim.graph.Edge.getBondType</text>
</a>
</g>
</g>
<!-- Node2 -->
<g id="node2" class="node">
<title>Node2</title>
<g id="a_node2"><a xlink:href="classdenoptim_1_1graph_1_1_edge.html#a32e31de78eb07c2ac9eb0424e1530efd" target="_top" xlink:title="Compares this and another edge ignoring the directionality of both, i.e., as if both edges were undir...">
<polygon fill="white" stroke="black" points="1183,-483.5 1183,-513.5 1329,-513.5 1329,-483.5 1183,-483.5"/>
<text text-anchor="start" x="1191" y="-501.5" font-family="Helvetica,sans-Serif" font-size="10.00">denoptim.graph.Edge.compare</text>
<text text-anchor="middle" x="1256" y="-490.5" font-family="Helvetica,sans-Serif" font-size="10.00">AsUndirected</text>
</a>
</g>
</g>
<!-- Node1&#45;&gt;Node2 -->
<g id="edge1" class="edge">
<title>Node1&#45;&gt;Node2</title>
<path fill="none" stroke="midnightblue" d="M1459.59,-261.09C1446.91,-303.54 1411.38,-404.84 1347,-462.5 1337.1,-471.37 1324.74,-478.19 1312.38,-483.39"/>
<polygon fill="midnightblue" stroke="midnightblue" points="1462.97,-261.99 1462.38,-251.41 1456.25,-260.05 1462.97,-261.99"/>
</g>
<!-- Node4 -->
<g id="node4" class="node">
<title>Node4</title>
<g id="a_node4"><a xlink:href="classdenoptim_1_1graph_1_1_d_graph.html#a4df69c91a742d22f8d14d44489aeac15" target="_top" xlink:title="Edit this graph according to a given list of edit tasks.">
<polygon fill="white" stroke="black" points="974.5,-392.5 974.5,-422.5 1110.5,-422.5 1110.5,-392.5 974.5,-392.5"/>
<text text-anchor="start" x="982.5" y="-410.5" font-family="Helvetica,sans-Serif" font-size="10.00">denoptim.graph.DGraph.edit</text>
<text text-anchor="middle" x="1042.5" y="-399.5" font-family="Helvetica,sans-Serif" font-size="10.00">Graph</text>
</a>
</g>
</g>
<!-- Node1&#45;&gt;Node4 -->
<g id="edge3" class="edge">
<title>Node1&#45;&gt;Node4</title>
<path fill="none" stroke="midnightblue" d="M1435.64,-255.4C1377.84,-282.43 1244.84,-342.98 1129,-383.5 1119.98,-386.66 1110.31,-389.69 1100.84,-392.48"/>
<polygon fill="midnightblue" stroke="midnightblue" points="1437.33,-258.47 1444.9,-251.06 1434.36,-252.14 1437.33,-258.47"/>
</g>
<!-- Node6 -->
<g id="node6" class="node">
<title>Node6</title>
<g id="a_node6"><a xlink:href="classdenoptim_1_1graph_1_1rings_1_1_cyclic_graph_handler.html#a08b02946eaac7c2cbbe6e71332d702e6" target="_top" xlink:title="Identifies a random combination of ring closing paths and returns it as list of DENOPTIMRings ready t...">
<polygon fill="white" stroke="black" points="1165,-412 1165,-453 1347,-453 1347,-412 1165,-412"/>
<text text-anchor="start" x="1173" y="-441" font-family="Helvetica,sans-Serif" font-size="10.00">denoptim.graph.rings.Cyclic</text>
<text text-anchor="start" x="1173" y="-430" font-family="Helvetica,sans-Serif" font-size="10.00">GraphHandler.getRandomCombination</text>
<text text-anchor="middle" x="1256" y="-419" font-family="Helvetica,sans-Serif" font-size="10.00">OfRings</text>
</a>
</g>
</g>
<!-- Node1&#45;&gt;Node6 -->
<g id="edge5" class="edge">
<title>Node1&#45;&gt;Node6</title>
<path fill="none" stroke="midnightblue" d="M1451.57,-259.29C1430.91,-285.97 1389.28,-337.1 1347,-373.5 1330.43,-387.76 1310.21,-401.31 1293.13,-411.82"/>
<polygon fill="midnightblue" stroke="midnightblue" points="1454.44,-261.3 1457.75,-251.23 1448.88,-257.04 1454.44,-261.3"/>
</g>
<!-- Node18 -->
<g id="node18" class="node">
<title>Node18</title>
<g id="a_node18"><a xlink:href="classdenoptim_1_1graph_1_1rings_1_1_path_sub_graph.html#a5c018cc9952d2cac46a5d44f8bf06d8c" target="_top" xlink:title="Constructs a new PathSubGraph specifying the first and last vertex of the path.">
<polygon fill="white" stroke="black" points="1192,-202.5 1192,-232.5 1320,-232.5 1320,-202.5 1192,-202.5"/>
<text text-anchor="start" x="1200" y="-220.5" font-family="Helvetica,sans-Serif" font-size="10.00">denoptim.graph.rings.Path</text>
<text text-anchor="middle" x="1256" y="-209.5" font-family="Helvetica,sans-Serif" font-size="10.00">SubGraph.PathSubGraph</text>
</a>
</g>
</g>
<!-- Node1&#45;&gt;Node18 -->
<g id="edge21" class="edge">
<title>Node1&#45;&gt;Node18</title>
<path fill="none" stroke="midnightblue" d="M1372.43,-230.82C1354.7,-228.77 1336.53,-226.68 1320.01,-224.77"/>
<polygon fill="midnightblue" stroke="midnightblue" points="1372.46,-234.35 1382.79,-232.01 1373.26,-227.39 1372.46,-234.35"/>
</g>
<!-- Node19 -->
<g id="node19" class="node">
<title>Node19</title>
<g id="a_node19"><a xlink:href="classdenoptim_1_1graph_1_1_d_graph.html#af404e25092eabcdfbe69b5d7204e9483" target="_top" xlink:title="Mutates the graph by removing the chain where a given vertex is located up to the first branching (i....">
<polygon fill="white" stroke="black" points="1180,-135.5 1180,-165.5 1332,-165.5 1332,-135.5 1180,-135.5"/>
<text text-anchor="start" x="1188" y="-153.5" font-family="Helvetica,sans-Serif" font-size="10.00">denoptim.graph.DGraph.remove</text>
<text text-anchor="middle" x="1256" y="-142.5" font-family="Helvetica,sans-Serif" font-size="10.00">ChainUpToBranching</text>
</a>
</g>
</g>
<!-- Node1&#45;&gt;Node19 -->
<g id="edge22" class="edge">
<title>Node1&#45;&gt;Node19</title>
<path fill="none" stroke="midnightblue" d="M1433.56,-227.74C1395.38,-211.04 1331.19,-182.96 1291.63,-165.65"/>
<polygon fill="midnightblue" stroke="midnightblue" points="1432.57,-231.13 1443.13,-231.93 1435.37,-224.72 1432.57,-231.13"/>
</g>
<!-- Node22 -->
<g id="node22" class="node">
<title>Node22</title>
<g id="a_node22"><a xlink:href="classdenoptim_1_1graph_1_1_d_graph.html#aefca90eb3594e935ee283f1e56fec5b4" target="_top" xlink:title="Replaced the subgraph represented by a given collection of vertices that belong to this graph.">
<polygon fill="white" stroke="black" points="1180,-251.5 1180,-281.5 1332,-281.5 1332,-251.5 1180,-251.5"/>
<text text-anchor="start" x="1188" y="-269.5" font-family="Helvetica,sans-Serif" font-size="10.00">denoptim.graph.DGraph.replace</text>
<text text-anchor="middle" x="1256" y="-258.5" font-family="Helvetica,sans-Serif" font-size="10.00">SingleSubGraph</text>
</a>
</g>
</g>
<!-- Node1&#45;&gt;Node22 -->
<g id="edge25" class="edge">
<title>Node1&#45;&gt;Node22</title>
<path fill="none" stroke="midnightblue" d="M1375.8,-252.22C1361.28,-253.97 1346.38,-255.76 1332.24,-257.46"/>
<polygon fill="midnightblue" stroke="midnightblue" points="1376.26,-255.69 1385.77,-251.02 1375.42,-248.74 1376.26,-255.69"/>
</g>
<!-- Node32 -->
<g id="node32" class="node">
<title>Node32</title>
<g id="a_node32"><a xlink:href="classdenoptim_1_1graph_1_1_edge.html#a1799d4f41f26b56897fbba446a9ccca8" target="_top" xlink:title="Compares this and another edge ignoring edge and vertex IDs.">
<polygon fill="white" stroke="black" points="1183.5,-64 1183.5,-83 1328.5,-83 1328.5,-64 1183.5,-64"/>
<text text-anchor="middle" x="1256" y="-71" font-family="Helvetica,sans-Serif" font-size="10.00">denoptim.graph.Edge.sameAs</text>
</a>
</g>
</g>
<!-- Node1&#45;&gt;Node32 -->
<g id="edge37" class="edge">
<title>Node1&#45;&gt;Node32</title>
<path fill="none" stroke="midnightblue" d="M1449.76,-224.23C1428.3,-200.5 1387.26,-157.26 1347,-126.5 1324.09,-109 1294.92,-92.79 1276.1,-83.02"/>
<polygon fill="midnightblue" stroke="midnightblue" points="1447.23,-226.65 1456.5,-231.76 1452.44,-221.98 1447.23,-226.65"/>
</g>
<!-- Node35 -->
<g id="node35" class="node">
<title>Node35</title>
<g id="a_node35"><a xlink:href="classdenoptim_1_1graph_1_1_edge_1_1_d_e_n_o_p_t_i_m_edge_serializer.html#ac241e0a82349f1480db9a6ff1da5fd71" target="_top" xlink:title=" ">
<polygon fill="white" stroke="black" points="1165,-14.5 1165,-44.5 1347,-44.5 1347,-14.5 1165,-14.5"/>
<text text-anchor="start" x="1173" y="-32.5" font-family="Helvetica,sans-Serif" font-size="10.00">denoptim.graph.Edge.DENOPTIMEdge</text>
<text text-anchor="middle" x="1256" y="-21.5" font-family="Helvetica,sans-Serif" font-size="10.00">Serializer.serialize</text>
</a>
</g>
</g>
<!-- Node1&#45;&gt;Node35 -->
<g id="edge41" class="edge">
<title>Node1&#45;&gt;Node35</title>
<path fill="none" stroke="midnightblue" d="M1458.26,-222.14C1443.98,-184.02 1406.98,-99.1 1347,-54.5 1341.79,-50.63 1336.02,-47.36 1329.98,-44.59"/>
<polygon fill="midnightblue" stroke="midnightblue" points="1454.98,-223.37 1461.68,-231.57 1461.56,-220.98 1454.98,-223.37"/>
</g>
<!-- Node3 -->
<g id="node3" class="node">
<title>Node3</title>
<g id="a_node3"><a xlink:href="classdenoptim_1_1graph_1_1_edge_test.html#aeb47a9169ac3c3583ac5c1c061431599" target="_top" xlink:title=" ">
<polygon fill="white" stroke="black" points="970,-490.5 970,-520.5 1115,-520.5 1115,-490.5 970,-490.5"/>
<text text-anchor="start" x="978" y="-508.5" font-family="Helvetica,sans-Serif" font-size="10.00">denoptim.graph.EdgeTest.test</text>
<text text-anchor="middle" x="1042.5" y="-497.5" font-family="Helvetica,sans-Serif" font-size="10.00">UndirectedComparison</text>
</a>
</g>
</g>
<!-- Node2&#45;&gt;Node3 -->
<g id="edge2" class="edge">
<title>Node2&#45;&gt;Node3</title>
<path fill="none" stroke="midnightblue" d="M1172.66,-501.23C1153.63,-501.85 1133.54,-502.52 1115.01,-503.13"/>
<polygon fill="midnightblue" stroke="midnightblue" points="1172.93,-504.72 1182.81,-500.89 1172.69,-497.72 1172.93,-504.72"/>
</g>
<!-- Node5 -->
<g id="node5" class="node">
<title>Node5</title>
<g id="a_node5"><a xlink:href="classdenoptim_1_1programs_1_1grapheditor_1_1_graph_editor.html#a649a62e3d4635ef4c19424fa49e6dcd4" target="_top" xlink:title=" ">
<polygon fill="white" stroke="black" points="754,-353.5 754,-383.5 906,-383.5 906,-353.5 754,-353.5"/>
<text text-anchor="start" x="762" y="-371.5" font-family="Helvetica,sans-Serif" font-size="10.00">denoptim.programs.grapheditor.</text>
<text text-anchor="middle" x="830" y="-360.5" font-family="Helvetica,sans-Serif" font-size="10.00">GraphEditor.runProgram</text>
</a>
</g>
</g>
<!-- Node4&#45;&gt;Node5 -->
<g id="edge4" class="edge">
<title>Node4&#45;&gt;Node5</title>
<path fill="none" stroke="midnightblue" d="M964.26,-393.19C945.35,-389.69 925.13,-385.94 906.31,-382.45"/>
<polygon fill="midnightblue" stroke="midnightblue" points="963.85,-396.67 974.32,-395.05 965.12,-389.79 963.85,-396.67"/>
</g>
<!-- Node7 -->
<g id="node7" class="node">
<title>Node7</title>
<g id="a_node7"><a xlink:href="classdenoptim_1_1ga_1_1_e_a_utils.html#a1ddb932d4618434d435e4f85ce5e5eb5" target="_top" xlink:title="Evaluates the possibility of closing rings in a given graph and if any ring can be closed,...">
<polygon fill="white" stroke="black" points="977,-441.5 977,-471.5 1108,-471.5 1108,-441.5 977,-441.5"/>
<text text-anchor="start" x="985" y="-459.5" font-family="Helvetica,sans-Serif" font-size="10.00">denoptim.ga.EAUtils.setup</text>
<text text-anchor="middle" x="1042.5" y="-448.5" font-family="Helvetica,sans-Serif" font-size="10.00">Rings</text>
</a>
</g>
</g>
<!-- Node6&#45;&gt;Node7 -->
<g id="edge6" class="edge">
<title>Node6&#45;&gt;Node7</title>
<path fill="none" stroke="midnightblue" d="M1154.64,-443.89C1138.82,-445.68 1122.85,-447.5 1108.13,-449.17"/>
<polygon fill="midnightblue" stroke="midnightblue" points="1155.46,-447.32 1165,-442.71 1154.67,-440.36 1155.46,-447.32"/>
</g>
<!-- Node8 -->
<g id="node8" class="node">
<title>Node8</title>
<g id="a_node8"><a xlink:href="classdenoptim_1_1ga_1_1_e_a_utils.html#a8122818f58919fce84dce75e7506025a" target="_top" xlink:title=" ">
<polygon fill="white" stroke="black" points="766.5,-490.5 766.5,-520.5 893.5,-520.5 893.5,-490.5 766.5,-490.5"/>
<text text-anchor="start" x="774.5" y="-508.5" font-family="Helvetica,sans-Serif" font-size="10.00">denoptim.ga.EAUtils.build</text>
<text text-anchor="middle" x="830" y="-497.5" font-family="Helvetica,sans-Serif" font-size="10.00">CandidateByMutation</text>
</a>
</g>
</g>
<!-- Node7&#45;&gt;Node8 -->
<g id="edge7" class="edge">
<title>Node7&#45;&gt;Node8</title>
<path fill="none" stroke="midnightblue" d="M967.13,-473.81C943.12,-479.4 916.74,-485.54 893.66,-490.91"/>
<polygon fill="midnightblue" stroke="midnightblue" points="967.97,-477.21 976.91,-471.53 966.38,-470.39 967.97,-477.21"/>
</g>
<!-- Node15 -->
<g id="node15" class="node">
<title>Node15</title>
<g id="a_node15"><a xlink:href="classdenoptim_1_1ga_1_1_e_a_utils.html#ad3d2daeb11e68a356e971ca1846596b5" target="_top" xlink:title=" ">
<polygon fill="white" stroke="black" points="766.5,-441.5 766.5,-471.5 893.5,-471.5 893.5,-441.5 766.5,-441.5"/>
<text text-anchor="start" x="774.5" y="-459.5" font-family="Helvetica,sans-Serif" font-size="10.00">denoptim.ga.EAUtils.build</text>
<text text-anchor="middle" x="830" y="-448.5" font-family="Helvetica,sans-Serif" font-size="10.00">CandidateFromScratch</text>
</a>
</g>
</g>
<!-- Node7&#45;&gt;Node15 -->
<g id="edge15" class="edge">
<title>Node7&#45;&gt;Node15</title>
<path fill="none" stroke="midnightblue" d="M966.81,-456.5C942.88,-456.5 916.64,-456.5 893.66,-456.5"/>
<polygon fill="midnightblue" stroke="midnightblue" points="966.91,-460 976.91,-456.5 966.91,-453 966.91,-460"/>
</g>
<!-- Node17 -->
<g id="node17" class="node">
<title>Node17</title>
<g id="a_node17"><a xlink:href="classdenoptim_1_1ga_1_1_e_a_utils.html#a0b958439d79fae30f14530213ad22e3a" target="_top" xlink:title="Generates up to a pair of new offspring by performing a crossover operation.">
<polygon fill="white" stroke="black" points="561,-324.5 561,-354.5 688,-354.5 688,-324.5 561,-324.5"/>
<text text-anchor="start" x="569" y="-342.5" font-family="Helvetica,sans-Serif" font-size="10.00">denoptim.ga.EAUtils.build</text>
<text text-anchor="middle" x="624.5" y="-331.5" font-family="Helvetica,sans-Serif" font-size="10.00">CandidatesByXOver</text>
</a>
</g>
</g>
<!-- Node7&#45;&gt;Node17 -->
<g id="edge20" class="edge">
<title>Node7&#45;&gt;Node17</title>
<path fill="none" stroke="midnightblue" d="M966.69,-441.32C880.96,-423.86 750.81,-397.12 740,-393.5 709.16,-383.16 675.71,-366.73 652.97,-354.71"/>
<polygon fill="midnightblue" stroke="midnightblue" points="966.15,-444.79 976.65,-443.35 967.55,-437.93 966.15,-444.79"/>
</g>
<!-- Node9 -->
<g id="node9" class="node">
<title>Node9</title>
<g id="a_node9"><a xlink:href="classdenoptim_1_1ga_1_1_evolutionary_algorithm.html#a0c2e353b243250b4959a3f86608f1020" target="_top" xlink:title="Generates one offspring according to the method where crossover and mutation are decoupled,...">
<polygon fill="white" stroke="black" points="559.5,-490.5 559.5,-520.5 689.5,-520.5 689.5,-490.5 559.5,-490.5"/>
<text text-anchor="start" x="567.5" y="-508.5" font-family="Helvetica,sans-Serif" font-size="10.00">denoptim.ga.Evolutionary</text>
<text text-anchor="middle" x="624.5" y="-497.5" font-family="Helvetica,sans-Serif" font-size="10.00">Algorithm.makeOffspringA</text>
</a>
</g>
</g>
<!-- Node8&#45;&gt;Node9 -->
<g id="edge8" class="edge">
<title>Node8&#45;&gt;Node9</title>
<path fill="none" stroke="midnightblue" d="M756.14,-505.5C734.46,-505.5 710.86,-505.5 689.77,-505.5"/>
<polygon fill="midnightblue" stroke="midnightblue" points="756.28,-509 766.28,-505.5 756.28,-502 756.28,-509"/>
</g>
<!-- Node14 -->
<g id="node14" class="node">
<title>Node14</title>
<g id="a_node14"><a xlink:href="classdenoptim_1_1ga_1_1_evolutionary_algorithm.html#ae7a90a911b109ed47b3acf54193acc35" target="_top" xlink:title="Generates one offspring according to the method where crossover and mutation are coupled,...">
<polygon fill="white" stroke="black" points="559.5,-441.5 559.5,-471.5 689.5,-471.5 689.5,-441.5 559.5,-441.5"/>
<text text-anchor="start" x="567.5" y="-459.5" font-family="Helvetica,sans-Serif" font-size="10.00">denoptim.ga.Evolutionary</text>
<text text-anchor="middle" x="624.5" y="-448.5" font-family="Helvetica,sans-Serif" font-size="10.00">Algorithm.makeOffspringB</text>
</a>
</g>
</g>
<!-- Node8&#45;&gt;Node14 -->
<g id="edge13" class="edge">
<title>Node8&#45;&gt;Node14</title>
<path fill="none" stroke="midnightblue" d="M756.72,-488.1C734.21,-482.68 709.59,-476.75 687.82,-471.51"/>
<polygon fill="midnightblue" stroke="midnightblue" points="756.02,-491.53 766.56,-490.47 757.66,-484.72 756.02,-491.53"/>
</g>
<!-- Node10 -->
<g id="node10" class="node">
<title>Node10</title>
<g id="a_node10"><a xlink:href="classdenoptim_1_1ga_1_1_evolutionary_algorithm.html#a596b2f5f0b097c5b67a6e5163bd6fe66" target="_top" xlink:title="Generates a given number of new candidate items and adds them to the current population.">
<polygon fill="white" stroke="black" points="362.5,-446.5 362.5,-476.5 496.5,-476.5 496.5,-446.5 362.5,-446.5"/>
<text text-anchor="start" x="370.5" y="-464.5" font-family="Helvetica,sans-Serif" font-size="10.00">denoptim.ga.Evolutionary</text>
<text text-anchor="middle" x="429.5" y="-453.5" font-family="Helvetica,sans-Serif" font-size="10.00">Algorithm.evolvePopulation</text>
</a>
</g>
</g>
<!-- Node9&#45;&gt;Node10 -->
<g id="edge9" class="edge">
<title>Node9&#45;&gt;Node10</title>
<path fill="none" stroke="midnightblue" d="M549.15,-488.55C531.79,-484.59 513.43,-480.41 496.46,-476.54"/>
<polygon fill="midnightblue" stroke="midnightblue" points="548.71,-492.04 559.23,-490.85 550.26,-485.21 548.71,-492.04"/>
</g>
<!-- Node11 -->
<g id="node11" class="node">
<title>Node11</title>
<g id="a_node11"><a xlink:href="classdenoptim_1_1ga_1_1_evolutionary_algorithm.html#a6bfc2fa59b199da6259b5b6bad3d6de7" target="_top" xlink:title=" ">
<polygon fill="white" stroke="black" points="190,-421.5 190,-451.5 314,-451.5 314,-421.5 190,-421.5"/>
<text text-anchor="start" x="198" y="-439.5" font-family="Helvetica,sans-Serif" font-size="10.00">denoptim.ga.Evolutionary</text>
<text text-anchor="middle" x="252" y="-428.5" font-family="Helvetica,sans-Serif" font-size="10.00">Algorithm.run</text>
</a>
</g>
</g>
<!-- Node10&#45;&gt;Node11 -->
<g id="edge10" class="edge">
<title>Node10&#45;&gt;Node11</title>
<path fill="none" stroke="midnightblue" d="M352.09,-450.62C339.43,-448.81 326.46,-446.96 314.24,-445.22"/>
<polygon fill="midnightblue" stroke="midnightblue" points="351.76,-454.1 362.15,-452.05 352.74,-447.17 351.76,-454.1"/>
</g>
<!-- Node12 -->
<g id="node12" class="node">
<title>Node12</title>
<g id="a_node12"><a xlink:href="classdenoptim_1_1ga_1_1_evolutionary_algorithm.html#a0f2063b722b7291daf83d62acaa683d3" target="_top" xlink:title=" ">
<polygon fill="white" stroke="black" points="0,-446.5 0,-476.5 154,-476.5 154,-446.5 0,-446.5"/>
<text text-anchor="start" x="8" y="-464.5" font-family="Helvetica,sans-Serif" font-size="10.00">denoptim.ga.Evolutionary</text>
<text text-anchor="middle" x="77" y="-453.5" font-family="Helvetica,sans-Serif" font-size="10.00">Algorithm.EvolutionaryAlgorithm</text>
</a>
</g>
</g>
<!-- Node11&#45;&gt;Node12 -->
<g id="edge11" class="edge">
<title>Node11&#45;&gt;Node12</title>
<path fill="none" stroke="midnightblue" d="M179.44,-446.84C171.09,-448.05 162.54,-449.28 154.12,-450.5"/>
<polygon fill="midnightblue" stroke="midnightblue" points="180.12,-450.28 189.52,-445.38 179.12,-443.35 180.12,-450.28"/>
</g>
<!-- Node13 -->
<g id="node13" class="node">
<title>Node13</title>
<g id="a_node13"><a xlink:href="classdenoptim_1_1programs_1_1denovo_1_1_g_a_runner.html#a7cafd6d78727b89dce3e2c8d06f0dd7c" target="_top" xlink:title=" ">
<polygon fill="white" stroke="black" points="9.5,-397.5 9.5,-427.5 144.5,-427.5 144.5,-397.5 9.5,-397.5"/>
<text text-anchor="start" x="17.5" y="-415.5" font-family="Helvetica,sans-Serif" font-size="10.00">denoptim.programs.denovo.</text>
<text text-anchor="middle" x="77" y="-404.5" font-family="Helvetica,sans-Serif" font-size="10.00">GARunner.runProgram</text>
</a>
</g>
</g>
<!-- Node11&#45;&gt;Node13 -->
<g id="edge12" class="edge">
<title>Node11&#45;&gt;Node13</title>
<path fill="none" stroke="midnightblue" d="M179.48,-426.58C167.92,-424.97 156,-423.32 144.57,-421.73"/>
<polygon fill="midnightblue" stroke="midnightblue" points="179.13,-430.06 189.52,-427.97 180.1,-423.13 179.13,-430.06"/>
</g>
<!-- Node14&#45;&gt;Node10 -->
<g id="edge14" class="edge">
<title>Node14&#45;&gt;Node10</title>
<path fill="none" stroke="midnightblue" d="M549.21,-458.42C531.95,-458.87 513.68,-459.34 496.8,-459.78"/>
<polygon fill="midnightblue" stroke="midnightblue" points="549.33,-461.92 559.23,-458.16 549.15,-454.93 549.33,-461.92"/>
</g>
<!-- Node15&#45;&gt;Node9 -->
<g id="edge18" class="edge">
<title>Node15&#45;&gt;Node9</title>
<path fill="none" stroke="midnightblue" d="M756.72,-473.9C734.21,-479.32 709.59,-485.25 687.82,-490.49"/>
<polygon fill="midnightblue" stroke="midnightblue" points="757.66,-477.28 766.56,-471.53 756.02,-470.47 757.66,-477.28"/>
</g>
<!-- Node15&#45;&gt;Node14 -->
<g id="edge19" class="edge">
<title>Node15&#45;&gt;Node14</title>
<path fill="none" stroke="midnightblue" d="M756.14,-456.5C734.46,-456.5 710.86,-456.5 689.77,-456.5"/>
<polygon fill="midnightblue" stroke="midnightblue" points="756.28,-460 766.28,-456.5 756.28,-453 756.28,-460"/>
</g>
<!-- Node16 -->
<g id="node16" class="node">
<title>Node16</title>
<g id="a_node16"><a xlink:href="classdenoptim_1_1ga_1_1_evolutionary_algorithm.html#ad43588620dab3340e0d8b0042ec73618" target="_top" xlink:title="Fills up the population with candidates build from scratch.">
<polygon fill="white" stroke="black" points="359.5,-397.5 359.5,-427.5 499.5,-427.5 499.5,-397.5 359.5,-397.5"/>
<text text-anchor="start" x="367.5" y="-415.5" font-family="Helvetica,sans-Serif" font-size="10.00">denoptim.ga.Evolutionary</text>
<text text-anchor="middle" x="429.5" y="-404.5" font-family="Helvetica,sans-Serif" font-size="10.00">Algorithm.initializePopulation</text>
</a>
</g>
</g>
<!-- Node15&#45;&gt;Node16 -->
<g id="edge16" class="edge">
<title>Node15&#45;&gt;Node16</title>
<path fill="none" stroke="midnightblue" d="M756.36,-441.07C739.25,-437.85 721.03,-434.75 704,-432.5 634.73,-423.35 555.01,-418.12 499.57,-415.32"/>
<polygon fill="midnightblue" stroke="midnightblue" points="755.8,-444.53 766.28,-442.97 757.12,-437.65 755.8,-444.53"/>
</g>
<!-- Node16&#45;&gt;Node11 -->
<g id="edge17" class="edge">
<title>Node16&#45;&gt;Node11</title>
<path fill="none" stroke="midnightblue" d="M349.48,-423.31C337.6,-424.93 325.5,-426.58 314.08,-428.15"/>
<polygon fill="midnightblue" stroke="midnightblue" points="349.96,-426.77 359.39,-421.95 349.01,-419.84 349.96,-426.77"/>
</g>
<!-- Node20 -->
<g id="node20" class="node">
<title>Node20</title>
<g id="a_node20"><a xlink:href="classdenoptim_1_1ga_1_1_graph_operations.html#afd659e74a056d1a6ae6f52513fee0be3" target="_top" xlink:title="Deletes the given vertex and all other vertexes that are not connected to more than 2 non&#45;capping gro...">
<polygon fill="white" stroke="black" points="956,-98.5 956,-128.5 1129,-128.5 1129,-98.5 956,-98.5"/>
<text text-anchor="start" x="964" y="-116.5" font-family="Helvetica,sans-Serif" font-size="10.00">denoptim.ga.GraphOperations.delete</text>
<text text-anchor="middle" x="1042.5" y="-105.5" font-family="Helvetica,sans-Serif" font-size="10.00">Chain</text>
</a>
</g>
</g>
<!-- Node19&#45;&gt;Node20 -->
<g id="edge23" class="edge">
<title>Node19&#45;&gt;Node20</title>
<path fill="none" stroke="midnightblue" d="M1169.73,-135.58C1156.39,-133.25 1142.59,-130.84 1129.23,-128.5"/>
<polygon fill="midnightblue" stroke="midnightblue" points="1169.38,-139.08 1179.84,-137.35 1170.59,-132.18 1169.38,-139.08"/>
</g>
<!-- Node21 -->
<g id="node21" class="node">
<title>Node21</title>
<g id="a_node21"><a xlink:href="classdenoptim_1_1ga_1_1_graph_operations.html#a0c851972015fbb4b2a317b053b8b81d9" target="_top" xlink:title="Mutates the given vertex according to the given mutation type, if possible.">
<polygon fill="white" stroke="black" points="740,-98.5 740,-128.5 920,-128.5 920,-98.5 740,-98.5"/>
<text text-anchor="start" x="748" y="-116.5" font-family="Helvetica,sans-Serif" font-size="10.00">denoptim.ga.GraphOperations.perform</text>
<text text-anchor="middle" x="830" y="-105.5" font-family="Helvetica,sans-Serif" font-size="10.00">Mutation</text>
</a>
</g>
</g>
<!-- Node20&#45;&gt;Node21 -->
<g id="edge24" class="edge">
<title>Node20&#45;&gt;Node21</title>
<path fill="none" stroke="midnightblue" d="M945.65,-113.5C937.21,-113.5 928.69,-113.5 920.31,-113.5"/>
<polygon fill="midnightblue" stroke="midnightblue" points="945.88,-117 955.88,-113.5 945.88,-110 945.88,-117"/>
</g>
<!-- Node22&#45;&gt;Node4 -->
<g id="edge26" class="edge">
<title>Node22&#45;&gt;Node4</title>
<path fill="none" stroke="midnightblue" d="M1228.73,-288.45C1210.47,-303.97 1185.78,-325.49 1165,-345.5 1148.24,-361.64 1148.92,-371.48 1129,-383.5 1123.32,-386.93 1117.14,-389.88 1110.79,-392.42"/>
<polygon fill="midnightblue" stroke="midnightblue" points="1231.26,-290.89 1236.63,-281.76 1226.74,-285.55 1231.26,-290.89"/>
</g>
<!-- Node23 -->
<g id="node23" class="node">
<title>Node23</title>
<g id="a_node23"><a xlink:href="classdenoptim_1_1graph_1_1_d_graph.html#a86e888ef245d2bd40b49d145c7ef3af0" target="_top" xlink:title="Replaced the subgraph represented by a given collection of vertices that belong to this graph.">
<polygon fill="white" stroke="black" points="966.5,-245.5 966.5,-275.5 1118.5,-275.5 1118.5,-245.5 966.5,-245.5"/>
<text text-anchor="start" x="974.5" y="-263.5" font-family="Helvetica,sans-Serif" font-size="10.00">denoptim.graph.DGraph.replace</text>
<text text-anchor="middle" x="1042.5" y="-252.5" font-family="Helvetica,sans-Serif" font-size="10.00">SubGraph</text>
</a>
</g>
</g>
<!-- Node22&#45;&gt;Node23 -->
<g id="edge27" class="edge">
<title>Node22&#45;&gt;Node23</title>
<path fill="none" stroke="midnightblue" d="M1169.49,-264.07C1152.7,-263.6 1135.2,-263.1 1118.78,-262.64"/>
<polygon fill="midnightblue" stroke="midnightblue" points="1169.74,-267.58 1179.84,-264.37 1169.94,-260.59 1169.74,-267.58"/>
</g>
<!-- Node28 -->
<g id="node28" class="node">
<title>Node28</title>
<g id="a_node28"><a xlink:href="classdenoptim_1_1graph_1_1_d_graph.html#adc362402e41af41656e820def73de5ad" target="_top" xlink:title="Replaced a given vertex belonging to this graph with a new vertex generated specifically for this pur...">
<polygon fill="white" stroke="black" points="966.5,-147.5 966.5,-177.5 1118.5,-177.5 1118.5,-147.5 966.5,-147.5"/>
<text text-anchor="start" x="974.5" y="-165.5" font-family="Helvetica,sans-Serif" font-size="10.00">denoptim.graph.DGraph.replace</text>
<text text-anchor="middle" x="1042.5" y="-154.5" font-family="Helvetica,sans-Serif" font-size="10.00">Vertex</text>
</a>
</g>
</g>
<!-- Node22&#45;&gt;Node28 -->
<g id="edge33" class="edge">
<title>Node22&#45;&gt;Node28</title>
<path fill="none" stroke="midnightblue" d="M1171.43,-246.7C1169.21,-245.39 1167.06,-243.99 1165,-242.5 1141.32,-225.38 1152.47,-204.9 1129,-187.5 1123.78,-183.63 1117.97,-180.36 1111.91,-177.59"/>
<polygon fill="midnightblue" stroke="midnightblue" points="1169.81,-249.8 1180.29,-251.35 1173.06,-243.6 1169.81,-249.8"/>
</g>
<!-- Node29 -->
<g id="node29" class="node">
<title>Node29</title>
<g id="a_node29"><a xlink:href="classdenoptim_1_1graph_1_1_d_graph_test.html#aea227d615f6c2f3bac5839a8099a900d" target="_top" xlink:title=" ">
<polygon fill="white" stroke="black" points="964.5,-343.5 964.5,-373.5 1120.5,-373.5 1120.5,-343.5 964.5,-343.5"/>
<text text-anchor="start" x="972.5" y="-361.5" font-family="Helvetica,sans-Serif" font-size="10.00">denoptim.graph.DGraphTest.test</text>
<text text-anchor="middle" x="1042.5" y="-350.5" font-family="Helvetica,sans-Serif" font-size="10.00">IsIsostructuralTo</text>
</a>
</g>
</g>
<!-- Node22&#45;&gt;Node29 -->
<g id="edge34" class="edge">
<title>Node22&#45;&gt;Node29</title>
<path fill="none" stroke="midnightblue" d="M1222.02,-286.92C1197.16,-301.66 1161.84,-321.22 1129,-334.5 1121,-337.74 1112.4,-340.71 1103.86,-343.37"/>
<polygon fill="midnightblue" stroke="midnightblue" points="1223.91,-289.87 1230.69,-281.73 1220.31,-283.86 1223.91,-289.87"/>
</g>
<!-- Node30 -->
<g id="node30" class="node">
<title>Node30</title>
<g id="a_node30"><a xlink:href="classdenoptim_1_1graph_1_1_d_graph_test.html#a83a9624ea5dc6a2c515407b865b62611" target="_top" xlink:title=" ">
<polygon fill="white" stroke="black" points="964.5,-294.5 964.5,-324.5 1120.5,-324.5 1120.5,-294.5 964.5,-294.5"/>
<text text-anchor="start" x="972.5" y="-312.5" font-family="Helvetica,sans-Serif" font-size="10.00">denoptim.graph.DGraphTest.test</text>
<text text-anchor="middle" x="1042.5" y="-301.5" font-family="Helvetica,sans-Serif" font-size="10.00">ReplaceSubGraph</text>
</a>
</g>
</g>
<!-- Node22&#45;&gt;Node30 -->
<g id="edge35" class="edge">
<title>Node22&#45;&gt;Node30</title>
<path fill="none" stroke="midnightblue" d="M1170.76,-283.63C1153.12,-287.21 1134.66,-290.97 1117.43,-294.47"/>
<polygon fill="midnightblue" stroke="midnightblue" points="1171.93,-286.96 1181.03,-281.54 1170.53,-280.1 1171.93,-286.96"/>
</g>
<!-- Node31 -->
<g id="node31" class="node">
<title>Node31</title>
<g id="a_node31"><a xlink:href="classdenoptim_1_1graph_1_1_d_graph_test.html#a0c949ec1131a872dea53524614b3b42a" target="_top" xlink:title=" ">
<polygon fill="white" stroke="black" points="964.5,-196.5 964.5,-226.5 1120.5,-226.5 1120.5,-196.5 964.5,-196.5"/>
<text text-anchor="start" x="972.5" y="-214.5" font-family="Helvetica,sans-Serif" font-size="10.00">denoptim.graph.DGraphTest.test</text>
<text text-anchor="middle" x="1042.5" y="-203.5" font-family="Helvetica,sans-Serif" font-size="10.00">ReplaceSubGraph_inTemplate</text>
</a>
</g>
</g>
<!-- Node22&#45;&gt;Node31 -->
<g id="edge36" class="edge">
<title>Node22&#45;&gt;Node31</title>
<path fill="none" stroke="midnightblue" d="M1187.2,-248.87C1159.5,-241.67 1127.79,-233.42 1101.22,-226.51"/>
<polygon fill="midnightblue" stroke="midnightblue" points="1186.65,-252.34 1197.21,-251.47 1188.41,-245.57 1186.65,-252.34"/>
</g>
<!-- Node24 -->
<g id="node24" class="node">
<title>Node24</title>
<g id="a_node24"><a xlink:href="classdenoptim_1_1graph_1_1_d_graph.html#a1cb3c55237933f7a4d32e002175b84bc" target="_top" xlink:title="Searches for the given pattern type and generated a new graph where each set of (clones of) vertexes ...">
<polygon fill="white" stroke="black" points="755.5,-294.5 755.5,-324.5 904.5,-324.5 904.5,-294.5 755.5,-294.5"/>
<text text-anchor="start" x="763.5" y="-312.5" font-family="Helvetica,sans-Serif" font-size="10.00">denoptim.graph.DGraph.embed</text>
<text text-anchor="middle" x="830" y="-301.5" font-family="Helvetica,sans-Serif" font-size="10.00">PatternsInTemplates</text>
</a>
</g>
</g>
<!-- Node23&#45;&gt;Node24 -->
<g id="edge28" class="edge">
<title>Node23&#45;&gt;Node24</title>
<path fill="none" stroke="midnightblue" d="M967.05,-277.83C943.68,-283.27 918.08,-289.23 895.47,-294.49"/>
<polygon fill="midnightblue" stroke="midnightblue" points="967.97,-281.21 976.91,-275.53 966.38,-274.39 967.97,-281.21"/>
</g>
<!-- Node25 -->
<g id="node25" class="node">
<title>Node25</title>
<g id="a_node25"><a xlink:href="classdenoptim_1_1ga_1_1_graph_operations.html#affb1be89a32e4a429bd7dbdfe0708419" target="_top" xlink:title="Performs the crossover that swaps the two subgraphs defining the given XoverSite.">
<polygon fill="white" stroke="black" points="740,-245.5 740,-275.5 920,-275.5 920,-245.5 740,-245.5"/>
<text text-anchor="start" x="748" y="-263.5" font-family="Helvetica,sans-Serif" font-size="10.00">denoptim.ga.GraphOperations.perform</text>
<text text-anchor="middle" x="830" y="-252.5" font-family="Helvetica,sans-Serif" font-size="10.00">Crossover</text>
</a>
</g>
</g>
<!-- Node23&#45;&gt;Node25 -->
<g id="edge29" class="edge">
<title>Node23&#45;&gt;Node25</title>
<path fill="none" stroke="midnightblue" d="M956.08,-260.5C944.23,-260.5 932.02,-260.5 920.1,-260.5"/>
<polygon fill="midnightblue" stroke="midnightblue" points="956.4,-264 966.4,-260.5 956.4,-257 956.4,-264"/>
</g>
<!-- Node25&#45;&gt;Node17 -->
<g id="edge30" class="edge">
<title>Node25&#45;&gt;Node17</title>
<path fill="none" stroke="midnightblue" d="M760.12,-278.61C753.27,-280.78 746.47,-283.09 740,-285.5 709.94,-296.72 676.92,-312.71 654.1,-324.37"/>
<polygon fill="midnightblue" stroke="midnightblue" points="761.61,-281.81 770.15,-275.53 759.56,-275.12 761.61,-281.81"/>
</g>
<!-- Node26 -->
<g id="node26" class="node">
<title>Node26</title>
<g id="a_node26"><a xlink:href="classdenoptim_1_1programs_1_1genetweeker_1_1_gene_ops_runner.html#ab0f92a94c4fb2334e7d3813e73fc4247" target="_top" xlink:title=" ">
<polygon fill="white" stroke="black" points="545,-245.5 545,-275.5 704,-275.5 704,-245.5 545,-245.5"/>
<text text-anchor="start" x="553" y="-263.5" font-family="Helvetica,sans-Serif" font-size="10.00">denoptim.programs.genetweeker.</text>
<text text-anchor="middle" x="624.5" y="-252.5" font-family="Helvetica,sans-Serif" font-size="10.00">GeneOpsRunner.runXOver</text>
</a>
</g>
</g>
<!-- Node25&#45;&gt;Node26 -->
<g id="edge31" class="edge">
<title>Node25&#45;&gt;Node26</title>
<path fill="none" stroke="midnightblue" d="M729.7,-260.5C721.12,-260.5 712.53,-260.5 704.15,-260.5"/>
<polygon fill="midnightblue" stroke="midnightblue" points="729.74,-264 739.74,-260.5 729.74,-257 729.74,-264"/>
</g>
<!-- Node27 -->
<g id="node27" class="node">
<title>Node27</title>
<g id="a_node27"><a xlink:href="classdenoptim_1_1programs_1_1genetweeker_1_1_gene_ops_runner.html#a3c2407eb1204a7b25600d3d347d98447" target="_top" xlink:title=" ">
<polygon fill="white" stroke="black" points="350,-245.5 350,-275.5 509,-275.5 509,-245.5 350,-245.5"/>
<text text-anchor="start" x="358" y="-263.5" font-family="Helvetica,sans-Serif" font-size="10.00">denoptim.programs.genetweeker.</text>
<text text-anchor="middle" x="429.5" y="-252.5" font-family="Helvetica,sans-Serif" font-size="10.00">GeneOpsRunner.runProgram</text>
</a>
</g>
</g>
<!-- Node26&#45;&gt;Node27 -->
<g id="edge32" class="edge">
<title>Node26&#45;&gt;Node27</title>
<path fill="none" stroke="midnightblue" d="M534.98,-260.5C526.39,-260.5 517.72,-260.5 509.24,-260.5"/>
<polygon fill="midnightblue" stroke="midnightblue" points="535,-264 545,-260.5 535,-257 535,-264"/>
</g>
<!-- Node32&#45;&gt;Node32 -->
<g id="edge38" class="edge">
<title>Node32&#45;&gt;Node32</title>
<path fill="none" stroke="midnightblue" d="M1295.28,-90.12C1296.65,-96.36 1283.56,-101.5 1256,-101.5 1218.47,-101.5 1207.77,-91.96 1223.89,-83.11"/>
<polygon fill="midnightblue" stroke="midnightblue" points="1297.7,-87.6 1288.11,-83.11 1292.81,-92.6 1297.7,-87.6"/>
</g>
<!-- Node33 -->
<g id="node33" class="node">
<title>Node33</title>
<g id="a_node33"><a xlink:href="classdenoptim_1_1graph_1_1_edge_test.html#a3069ad18e9587a0315ec276104e64f77" target="_top" xlink:title=" ">
<polygon fill="white" stroke="black" points="970,-0.5 970,-30.5 1115,-30.5 1115,-0.5 970,-0.5"/>
<text text-anchor="start" x="978" y="-18.5" font-family="Helvetica,sans-Serif" font-size="10.00">denoptim.graph.EdgeTest.test</text>
<text text-anchor="middle" x="1042.5" y="-7.5" font-family="Helvetica,sans-Serif" font-size="10.00">SameAs_DiffBndTyp</text>
</a>
</g>
</g>
<!-- Node32&#45;&gt;Node33 -->
<g id="edge39" class="edge">
<title>Node32&#45;&gt;Node33</title>
<path fill="none" stroke="midnightblue" d="M1192.7,-61.73C1183.36,-59.57 1173.88,-57.14 1165,-54.5 1148.55,-49.6 1145.25,-46.03 1129,-40.5 1118.9,-37.07 1108.03,-33.67 1097.54,-30.53"/>
<polygon fill="midnightblue" stroke="midnightblue" points="1192.24,-65.21 1202.76,-63.98 1193.77,-58.38 1192.24,-65.21"/>
</g>
<!-- Node34 -->
<g id="node34" class="node">
<title>Node34</title>
<g id="a_node34"><a xlink:href="classdenoptim_1_1graph_1_1_edge_test.html#a56c2ae67fa720a5a4f9fe3fccaddb54a" target="_top" xlink:title=" ">
<polygon fill="white" stroke="black" points="970,-49.5 970,-79.5 1115,-79.5 1115,-49.5 970,-49.5"/>
<text text-anchor="start" x="978" y="-67.5" font-family="Helvetica,sans-Serif" font-size="10.00">denoptim.graph.EdgeTest.test</text>
<text text-anchor="middle" x="1042.5" y="-56.5" font-family="Helvetica,sans-Serif" font-size="10.00">SameAs_Equal</text>
</a>
</g>
</g>
<!-- Node32&#45;&gt;Node34 -->
<g id="edge40" class="edge">
<title>Node32&#45;&gt;Node34</title>
<path fill="none" stroke="midnightblue" d="M1173.18,-70.02C1154,-69.2 1133.72,-68.34 1115.03,-67.54"/>
<polygon fill="midnightblue" stroke="midnightblue" points="1173.26,-73.52 1183.4,-70.45 1173.55,-66.53 1173.26,-73.52"/>
</g>
</g>
</svg>
