<?xml version="1.0" encoding="UTF-8" standalone="no"?>
<!DOCTYPE svg PUBLIC "-//W3C//DTD SVG 1.1//EN"
 "http://www.w3.org/Graphics/SVG/1.1/DTD/svg11.dtd">
<!-- Generated by graphviz version 3.0.0 (20221109.1736)
 -->
<!-- Title: denoptim.utils.Randomizer.nextInt Pages: 1 -->
<svg width="1722pt" height="530pt"
 viewBox="0.00 0.00 1722.00 529.50" xmlns="http://www.w3.org/2000/svg" xmlns:xlink="http://www.w3.org/1999/xlink">
<g id="graph0" class="graph" transform="scale(1 1) rotate(0) translate(4 525.5)">
<title>denoptim.utils.Randomizer.nextInt</title>
<polygon fill="white" stroke="transparent" points="-4,4 -4,-525.5 1718,-525.5 1718,4 -4,4"/>
<!-- Node1 -->
<g id="node1" class="node">
<title>Node1</title>
<g id="a_node1"><a xlink:title="Returns a pseudo&#45;random, uniformly distributed int value between 0 (inclusive) and the specified valu...">
<polygon fill="#bfbfbf" stroke="black" points="1553,-305.5 1553,-324.5 1714,-324.5 1714,-305.5 1553,-305.5"/>
<text text-anchor="middle" x="1633.5" y="-312.5" font-family="Helvetica,sans-Serif" font-size="10.00">denoptim.utils.Randomizer.nextInt</text>
</a>
</g>
</g>
<!-- Node2 -->
<g id="node2" class="node">
<title>Node2</title>
<g id="a_node2"><a xlink:href="classdenoptim_1_1graph_1_1rings_1_1_cyclic_graph_handler.html#a08b02946eaac7c2cbbe6e71332d702e6" target="_top" xlink:title="Identifies a random combination of ring closing paths and returns it as list of DENOPTIMRings ready t...">
<polygon fill="white" stroke="black" points="1335,-379.5 1335,-420.5 1517,-420.5 1517,-379.5 1335,-379.5"/>
<text text-anchor="start" x="1343" y="-408.5" font-family="Helvetica,sans-Serif" font-size="10.00">denoptim.graph.rings.Cyclic</text>
<text text-anchor="start" x="1343" y="-397.5" font-family="Helvetica,sans-Serif" font-size="10.00">GraphHandler.getRandomCombination</text>
<text text-anchor="middle" x="1426" y="-386.5" font-family="Helvetica,sans-Serif" font-size="10.00">OfRings</text>
</a>
</g>
</g>
<!-- Node1&#45;&gt;Node2 -->
<g id="edge1" class="edge">
<title>Node1&#45;&gt;Node2</title>
<path fill="none" stroke="midnightblue" d="M1600.08,-328.41C1566.92,-342.13 1514.95,-363.62 1476.61,-379.48"/>
<polygon fill="midnightblue" stroke="midnightblue" points="1601.42,-331.64 1609.33,-324.59 1598.75,-325.17 1601.42,-331.64"/>
</g>
<!-- Node14 -->
<g id="node14" class="node">
<title>Node14</title>
<g id="a_node14"><a xlink:href="classdenoptim_1_1molecularmodeling_1_1_three_dim_tree_builder.html#a6ef3c605f4c86de64db48e322f338119" target="_top" xlink:title=" ">
<polygon fill="white" stroke="black" points="1335,-73 1335,-103 1517,-103 1517,-73 1335,-73"/>
<text text-anchor="start" x="1343" y="-91" font-family="Helvetica,sans-Serif" font-size="10.00">denoptim.molecularmodeling.</text>
<text text-anchor="middle" x="1426" y="-80" font-family="Helvetica,sans-Serif" font-size="10.00">ThreeDimTreeBuilder.getRandomPoint</text>
</a>
</g>
</g>
<!-- Node1&#45;&gt;Node14 -->
<g id="edge17" class="edge">
<title>Node1&#45;&gt;Node14</title>
<path fill="none" stroke="midnightblue" d="M1616.73,-297.58C1577.73,-254.5 1477.29,-143.55 1440.64,-103.07"/>
<polygon fill="midnightblue" stroke="midnightblue" points="1614.36,-300.18 1623.67,-305.25 1619.55,-295.48 1614.36,-300.18"/>
</g>
<!-- Node17 -->
<g id="node17" class="node">
<title>Node17</title>
<g id="a_node17"><a xlink:href="classdenoptim_1_1fragspace_1_1_fragment_space.html#a95408f868832d8fac28eee1c1e793fab" target="_top" xlink:title="Randomly select a scaffold and return a fully configured clone of it.">
<polygon fill="white" stroke="black" points="1353.5,-468 1353.5,-498 1498.5,-498 1498.5,-468 1353.5,-468"/>
<text text-anchor="start" x="1361.5" y="-486" font-family="Helvetica,sans-Serif" font-size="10.00">denoptim.fragspace.Fragment</text>
<text text-anchor="middle" x="1426" y="-475" font-family="Helvetica,sans-Serif" font-size="10.00">Space.makeRandomScaffold</text>
</a>
</g>
</g>
<!-- Node1&#45;&gt;Node17 -->
<g id="edge22" class="edge">
<title>Node1&#45;&gt;Node17</title>
<path fill="none" stroke="midnightblue" d="M1617.66,-332.3C1596.73,-356.07 1556.66,-399.36 1517,-430 1498.2,-444.52 1475.07,-458.06 1456.97,-467.82"/>
<polygon fill="midnightblue" stroke="midnightblue" points="1620.3,-334.6 1624.23,-324.76 1615.02,-330 1620.3,-334.6"/>
</g>
<!-- Node20 -->
<g id="node20" class="node">
<title>Node20</title>
<g id="a_node20"><a xlink:href="classdenoptim_1_1utils_1_1_randomizer.html#a1ac7cea6bdf732a6dd69f1a83e591ed5" target="_top" xlink:title="Chooses one member among the given collection.">
<polygon fill="white" stroke="black" points="1340.5,-273 1340.5,-303 1511.5,-303 1511.5,-273 1340.5,-273"/>
<text text-anchor="start" x="1348.5" y="-291" font-family="Helvetica,sans-Serif" font-size="10.00">denoptim.utils.Randomizer.randomly</text>
<text text-anchor="middle" x="1426" y="-280" font-family="Helvetica,sans-Serif" font-size="10.00">ChooseOne</text>
</a>
</g>
</g>
<!-- Node1&#45;&gt;Node20 -->
<g id="edge26" class="edge">
<title>Node1&#45;&gt;Node20</title>
<path fill="none" stroke="midnightblue" d="M1550.06,-304.17C1537.46,-302.51 1524.45,-300.8 1511.8,-299.14"/>
<polygon fill="midnightblue" stroke="midnightblue" points="1549.68,-307.65 1560.05,-305.48 1550.59,-300.71 1549.68,-307.65"/>
</g>
<!-- Node3 -->
<g id="node3" class="node">
<title>Node3</title>
<g id="a_node3"><a xlink:href="classdenoptim_1_1ga_1_1_e_a_utils.html#a1ddb932d4618434d435e4f85ce5e5eb5" target="_top" xlink:title="Evaluates the possibility of closing rings in a given graph and if any ring can be closed,...">
<polygon fill="white" stroke="black" points="913,-426 913,-456 1044,-456 1044,-426 913,-426"/>
<text text-anchor="start" x="921" y="-444" font-family="Helvetica,sans-Serif" font-size="10.00">denoptim.ga.EAUtils.setup</text>
<text text-anchor="middle" x="978.5" y="-433" font-family="Helvetica,sans-Serif" font-size="10.00">Rings</text>
</a>
</g>
</g>
<!-- Node2&#45;&gt;Node3 -->
<g id="edge2" class="edge">
<title>Node2&#45;&gt;Node3</title>
<path fill="none" stroke="midnightblue" d="M1364.59,-423.92C1344.11,-430.87 1320.87,-437.53 1299,-441 1211.62,-454.86 1109.1,-451.45 1044.22,-446.91"/>
<polygon fill="midnightblue" stroke="midnightblue" points="1365.81,-427.2 1374.1,-420.6 1363.5,-420.59 1365.81,-427.2"/>
</g>
<!-- Node4 -->
<g id="node4" class="node">
<title>Node4</title>
<g id="a_node4"><a xlink:href="classdenoptim_1_1ga_1_1_e_a_utils.html#a8122818f58919fce84dce75e7506025a" target="_top" xlink:title=" ">
<polygon fill="white" stroke="black" points="711.5,-393 711.5,-423 838.5,-423 838.5,-393 711.5,-393"/>
<text text-anchor="start" x="719.5" y="-411" font-family="Helvetica,sans-Serif" font-size="10.00">denoptim.ga.EAUtils.build</text>
<text text-anchor="middle" x="775" y="-400" font-family="Helvetica,sans-Serif" font-size="10.00">CandidateByMutation</text>
</a>
</g>
</g>
<!-- Node3&#45;&gt;Node4 -->
<g id="edge3" class="edge">
<title>Node3&#45;&gt;Node4</title>
<path fill="none" stroke="midnightblue" d="M902.98,-428.8C881.78,-425.32 858.91,-421.58 838.5,-418.24"/>
<polygon fill="midnightblue" stroke="midnightblue" points="902.48,-432.26 912.91,-430.42 903.61,-425.35 902.48,-432.26"/>
</g>
<!-- Node11 -->
<g id="node11" class="node">
<title>Node11</title>
<g id="a_node11"><a xlink:href="classdenoptim_1_1ga_1_1_e_a_utils.html#ad3d2daeb11e68a356e971ca1846596b5" target="_top" xlink:title=" ">
<polygon fill="white" stroke="black" points="711.5,-442 711.5,-472 838.5,-472 838.5,-442 711.5,-442"/>
<text text-anchor="start" x="719.5" y="-460" font-family="Helvetica,sans-Serif" font-size="10.00">denoptim.ga.EAUtils.build</text>
<text text-anchor="middle" x="775" y="-449" font-family="Helvetica,sans-Serif" font-size="10.00">CandidateFromScratch</text>
</a>
</g>
</g>
<!-- Node3&#45;&gt;Node11 -->
<g id="edge11" class="edge">
<title>Node3&#45;&gt;Node11</title>
<path fill="none" stroke="midnightblue" d="M902.69,-446.94C881.57,-448.62 858.82,-450.42 838.5,-452.04"/>
<polygon fill="midnightblue" stroke="midnightblue" points="903.22,-450.41 912.91,-446.13 902.67,-443.43 903.22,-450.41"/>
</g>
<!-- Node13 -->
<g id="node13" class="node">
<title>Node13</title>
<g id="a_node13"><a xlink:href="classdenoptim_1_1ga_1_1_e_a_utils.html#a0b958439d79fae30f14530213ad22e3a" target="_top" xlink:title="Generates up to a pair of new offspring by performing a crossover operation.">
<polygon fill="white" stroke="black" points="527.5,-292 527.5,-322 654.5,-322 654.5,-292 527.5,-292"/>
<text text-anchor="start" x="535.5" y="-310" font-family="Helvetica,sans-Serif" font-size="10.00">denoptim.ga.EAUtils.build</text>
<text text-anchor="middle" x="591" y="-299" font-family="Helvetica,sans-Serif" font-size="10.00">CandidatesByXOver</text>
</a>
</g>
</g>
<!-- Node3&#45;&gt;Node13 -->
<g id="edge16" class="edge">
<title>Node3&#45;&gt;Node13</title>
<path fill="none" stroke="midnightblue" d="M941.61,-421.12C918.36,-408.94 887.09,-393.85 858,-384 786.58,-359.82 763.97,-371.48 692,-349 668.45,-341.65 642.82,-330.82 623.4,-322"/>
<polygon fill="midnightblue" stroke="midnightblue" points="940.27,-424.37 950.74,-425.97 943.55,-418.19 940.27,-424.37"/>
</g>
<!-- Node5 -->
<g id="node5" class="node">
<title>Node5</title>
<g id="a_node5"><a xlink:href="classdenoptim_1_1ga_1_1_evolutionary_algorithm.html#a0c2e353b243250b4959a3f86608f1020" target="_top" xlink:title="Generates one offspring according to the method where crossover and mutation are decoupled,...">
<polygon fill="white" stroke="black" points="526,-393 526,-423 656,-423 656,-393 526,-393"/>
<text text-anchor="start" x="534" y="-411" font-family="Helvetica,sans-Serif" font-size="10.00">denoptim.ga.Evolutionary</text>
<text text-anchor="middle" x="591" y="-400" font-family="Helvetica,sans-Serif" font-size="10.00">Algorithm.makeOffspringA</text>
</a>
</g>
</g>
<!-- Node4&#45;&gt;Node5 -->
<g id="edge4" class="edge">
<title>Node4&#45;&gt;Node5</title>
<path fill="none" stroke="midnightblue" d="M701.21,-408C686.36,-408 670.83,-408 656.3,-408"/>
<polygon fill="midnightblue" stroke="midnightblue" points="701.37,-411.5 711.37,-408 701.37,-404.5 701.37,-411.5"/>
</g>
<!-- Node10 -->
<g id="node10" class="node">
<title>Node10</title>
<g id="a_node10"><a xlink:href="classdenoptim_1_1ga_1_1_evolutionary_algorithm.html#ae7a90a911b109ed47b3acf54193acc35" target="_top" xlink:title="Generates one offspring according to the method where crossover and mutation are coupled,...">
<polygon fill="white" stroke="black" points="526,-442 526,-472 656,-472 656,-442 526,-442"/>
<text text-anchor="start" x="534" y="-460" font-family="Helvetica,sans-Serif" font-size="10.00">denoptim.ga.Evolutionary</text>
<text text-anchor="middle" x="591" y="-449" font-family="Helvetica,sans-Serif" font-size="10.00">Algorithm.makeOffspringB</text>
</a>
</g>
</g>
<!-- Node4&#45;&gt;Node10 -->
<g id="edge9" class="edge">
<title>Node4&#45;&gt;Node10</title>
<path fill="none" stroke="midnightblue" d="M708.08,-425.75C688.35,-431.06 666.92,-436.83 647.91,-441.95"/>
<polygon fill="midnightblue" stroke="midnightblue" points="709.16,-429.08 717.91,-423.1 707.34,-422.32 709.16,-429.08"/>
</g>
<!-- Node6 -->
<g id="node6" class="node">
<title>Node6</title>
<g id="a_node6"><a xlink:href="classdenoptim_1_1ga_1_1_evolutionary_algorithm.html#a596b2f5f0b097c5b67a6e5163bd6fe66" target="_top" xlink:title="Generates a given number of new candidate items and adds them to the current population.">
<polygon fill="white" stroke="black" points="353,-437 353,-467 487,-467 487,-437 353,-437"/>
<text text-anchor="start" x="361" y="-455" font-family="Helvetica,sans-Serif" font-size="10.00">denoptim.ga.Evolutionary</text>
<text text-anchor="middle" x="420" y="-444" font-family="Helvetica,sans-Serif" font-size="10.00">Algorithm.evolvePopulation</text>
</a>
</g>
</g>
<!-- Node5&#45;&gt;Node6 -->
<g id="edge5" class="edge">
<title>Node5&#45;&gt;Node6</title>
<path fill="none" stroke="midnightblue" d="M522.42,-425.59C507.95,-429.36 492.78,-433.31 478.71,-436.97"/>
<polygon fill="midnightblue" stroke="midnightblue" points="523.52,-428.93 532.31,-423.02 521.75,-422.15 523.52,-428.93"/>
</g>
<!-- Node7 -->
<g id="node7" class="node">
<title>Node7</title>
<g id="a_node7"><a xlink:href="classdenoptim_1_1ga_1_1_evolutionary_algorithm.html#a6bfc2fa59b199da6259b5b6bad3d6de7" target="_top" xlink:title=" ">
<polygon fill="white" stroke="black" points="190,-461 190,-491 314,-491 314,-461 190,-461"/>
<text text-anchor="start" x="198" y="-479" font-family="Helvetica,sans-Serif" font-size="10.00">denoptim.ga.Evolutionary</text>
<text text-anchor="middle" x="252" y="-468" font-family="Helvetica,sans-Serif" font-size="10.00">Algorithm.run</text>
</a>
</g>
</g>
<!-- Node6&#45;&gt;Node7 -->
<g id="edge6" class="edge">
<title>Node6&#45;&gt;Node7</title>
<path fill="none" stroke="midnightblue" d="M342.9,-463C333.21,-464.4 323.41,-465.82 314.01,-467.18"/>
<polygon fill="midnightblue" stroke="midnightblue" points="343.52,-466.45 352.92,-461.55 342.52,-459.52 343.52,-466.45"/>
</g>
<!-- Node8 -->
<g id="node8" class="node">
<title>Node8</title>
<g id="a_node8"><a xlink:href="classdenoptim_1_1ga_1_1_evolutionary_algorithm.html#a0f2063b722b7291daf83d62acaa683d3" target="_top" xlink:title=" ">
<polygon fill="white" stroke="black" points="0,-486 0,-516 154,-516 154,-486 0,-486"/>
<text text-anchor="start" x="8" y="-504" font-family="Helvetica,sans-Serif" font-size="10.00">denoptim.ga.Evolutionary</text>
<text text-anchor="middle" x="77" y="-493" font-family="Helvetica,sans-Serif" font-size="10.00">Algorithm.EvolutionaryAlgorithm</text>
</a>
</g>
</g>
<!-- Node7&#45;&gt;Node8 -->
<g id="edge7" class="edge">
<title>Node7&#45;&gt;Node8</title>
<path fill="none" stroke="midnightblue" d="M179.44,-486.34C171.09,-487.55 162.54,-488.78 154.12,-490"/>
<polygon fill="midnightblue" stroke="midnightblue" points="180.12,-489.78 189.52,-484.88 179.12,-482.85 180.12,-489.78"/>
</g>
<!-- Node9 -->
<g id="node9" class="node">
<title>Node9</title>
<g id="a_node9"><a xlink:href="classdenoptim_1_1programs_1_1denovo_1_1_g_a_runner.html#a7cafd6d78727b89dce3e2c8d06f0dd7c" target="_top" xlink:title=" ">
<polygon fill="white" stroke="black" points="9.5,-437 9.5,-467 144.5,-467 144.5,-437 9.5,-437"/>
<text text-anchor="start" x="17.5" y="-455" font-family="Helvetica,sans-Serif" font-size="10.00">denoptim.programs.denovo.</text>
<text text-anchor="middle" x="77" y="-444" font-family="Helvetica,sans-Serif" font-size="10.00">GARunner.runProgram</text>
</a>
</g>
</g>
<!-- Node7&#45;&gt;Node9 -->
<g id="edge8" class="edge">
<title>Node7&#45;&gt;Node9</title>
<path fill="none" stroke="midnightblue" d="M179.48,-466.08C167.92,-464.47 156,-462.82 144.57,-461.23"/>
<polygon fill="midnightblue" stroke="midnightblue" points="179.13,-469.56 189.52,-467.47 180.1,-462.63 179.13,-469.56"/>
</g>
<!-- Node10&#45;&gt;Node6 -->
<g id="edge10" class="edge">
<title>Node10&#45;&gt;Node6</title>
<path fill="none" stroke="midnightblue" d="M515.48,-454.8C506.05,-454.52 496.45,-454.23 487.16,-453.96"/>
<polygon fill="midnightblue" stroke="midnightblue" points="515.53,-458.3 525.63,-455.1 515.73,-451.3 515.53,-458.3"/>
</g>
<!-- Node11&#45;&gt;Node5 -->
<g id="edge14" class="edge">
<title>Node11&#45;&gt;Node5</title>
<path fill="none" stroke="midnightblue" d="M708.08,-439.25C688.35,-433.94 666.92,-428.17 647.91,-423.05"/>
<polygon fill="midnightblue" stroke="midnightblue" points="707.34,-442.68 717.91,-441.9 709.16,-435.92 707.34,-442.68"/>
</g>
<!-- Node11&#45;&gt;Node10 -->
<g id="edge15" class="edge">
<title>Node11&#45;&gt;Node10</title>
<path fill="none" stroke="midnightblue" d="M701.21,-457C686.36,-457 670.83,-457 656.3,-457"/>
<polygon fill="midnightblue" stroke="midnightblue" points="701.37,-460.5 711.37,-457 701.37,-453.5 701.37,-460.5"/>
</g>
<!-- Node12 -->
<g id="node12" class="node">
<title>Node12</title>
<g id="a_node12"><a xlink:href="classdenoptim_1_1ga_1_1_evolutionary_algorithm.html#ad43588620dab3340e0d8b0042ec73618" target="_top" xlink:title="Fills up the population with candidates build from scratch.">
<polygon fill="white" stroke="black" points="350,-486 350,-516 490,-516 490,-486 350,-486"/>
<text text-anchor="start" x="358" y="-504" font-family="Helvetica,sans-Serif" font-size="10.00">denoptim.ga.Evolutionary</text>
<text text-anchor="middle" x="420" y="-493" font-family="Helvetica,sans-Serif" font-size="10.00">Algorithm.initializePopulation</text>
</a>
</g>
</g>
<!-- Node11&#45;&gt;Node12 -->
<g id="edge12" class="edge">
<title>Node11&#45;&gt;Node12</title>
<path fill="none" stroke="midnightblue" d="M701.3,-473.93C686.38,-476.97 670.73,-479.85 656,-482 600.51,-490.09 537.11,-494.96 490.16,-497.74"/>
<polygon fill="midnightblue" stroke="midnightblue" points="702.42,-477.27 711.5,-471.8 700.99,-470.42 702.42,-477.27"/>
</g>
<!-- Node12&#45;&gt;Node7 -->
<g id="edge13" class="edge">
<title>Node12&#45;&gt;Node7</title>
<path fill="none" stroke="midnightblue" d="M339.6,-489.04C331.08,-487.76 322.5,-486.47 314.24,-485.22"/>
<polygon fill="midnightblue" stroke="midnightblue" points="339.15,-492.51 349.56,-490.54 340.2,-485.59 339.15,-492.51"/>
</g>
<!-- Node15 -->
<g id="node15" class="node">
<title>Node15</title>
<g id="a_node15"><a xlink:href="classdenoptim_1_1molecularmodeling_1_1_three_dim_tree_builder.html#a91fba166ba9fe73858ed16209d575cc5" target="_top" xlink:title="Recursive method that appends branches of building blocks following the edges of the graph.">
<polygon fill="white" stroke="black" points="1099,-0.5 1099,-41.5 1299,-41.5 1299,-0.5 1099,-0.5"/>
<text text-anchor="start" x="1107" y="-29.5" font-family="Helvetica,sans-Serif" font-size="10.00">denoptim.molecularmodeling.</text>
<text text-anchor="start" x="1107" y="-18.5" font-family="Helvetica,sans-Serif" font-size="10.00">ThreeDimTreeBuilder.append3DFragments</text>
<text text-anchor="middle" x="1199" y="-7.5" font-family="Helvetica,sans-Serif" font-size="10.00">ViaEdges</text>
</a>
</g>
</g>
<!-- Node14&#45;&gt;Node15 -->
<g id="edge18" class="edge">
<title>Node14&#45;&gt;Node15</title>
<path fill="none" stroke="midnightblue" d="M1364.76,-70.06C1335.29,-61.29 1299.67,-50.68 1269.09,-41.57"/>
<polygon fill="midnightblue" stroke="midnightblue" points="1363.92,-73.46 1374.51,-72.96 1365.92,-66.76 1363.92,-73.46"/>
</g>
<!-- Node16 -->
<g id="node16" class="node">
<title>Node16</title>
<g id="a_node16"><a xlink:href="classdenoptim_1_1molecularmodeling_1_1_three_dim_tree_builder.html#acbaf5061621ed283eecc80a51b523422" target="_top" xlink:title="Created a three&#45;dimensional molecular representation from a given DGraph.">
<polygon fill="white" stroke="black" points="894,-34.5 894,-75.5 1063,-75.5 1063,-34.5 894,-34.5"/>
<text text-anchor="start" x="902" y="-63.5" font-family="Helvetica,sans-Serif" font-size="10.00">denoptim.molecularmodeling.</text>
<text text-anchor="start" x="902" y="-52.5" font-family="Helvetica,sans-Serif" font-size="10.00">ThreeDimTreeBuilder.convertGraph</text>
<text text-anchor="middle" x="978.5" y="-41.5" font-family="Helvetica,sans-Serif" font-size="10.00">To3DAtomContainer</text>
</a>
</g>
</g>
<!-- Node14&#45;&gt;Node16 -->
<g id="edge21" class="edge">
<title>Node14&#45;&gt;Node16</title>
<path fill="none" stroke="midnightblue" d="M1324.78,-83.68C1260.25,-80.52 1174.59,-75.62 1099,-69 1087.35,-67.98 1075.07,-66.73 1063.01,-65.41"/>
<polygon fill="midnightblue" stroke="midnightblue" points="1324.8,-87.18 1334.96,-84.17 1325.14,-80.19 1324.8,-87.18"/>
</g>
<!-- Node15&#45;&gt;Node15 -->
<g id="edge19" class="edge">
<title>Node15&#45;&gt;Node15</title>
<path fill="none" stroke="midnightblue" d="M1236.85,-51.86C1231.22,-56.7 1218.6,-60 1199,-60 1167.63,-60 1154.15,-51.54 1158.57,-41.86"/>
<polygon fill="midnightblue" stroke="midnightblue" points="1240.32,-52.42 1239.43,-41.86 1233.54,-50.67 1240.32,-52.42"/>
</g>
<!-- Node15&#45;&gt;Node16 -->
<g id="edge20" class="edge">
<title>Node15&#45;&gt;Node16</title>
<path fill="none" stroke="midnightblue" d="M1088.85,-37.98C1080.22,-39.33 1071.58,-40.67 1063.16,-41.98"/>
<polygon fill="midnightblue" stroke="midnightblue" points="1089.64,-41.4 1098.98,-36.41 1088.56,-34.49 1089.64,-41.4"/>
</g>
<!-- Node18 -->
<g id="node18" class="node">
<title>Node18</title>
<g id="a_node18"><a xlink:href="classdenoptim_1_1ga_1_1_e_a_utils.html#a87ea0ad600ad26e1a89a4947abcfef86" target="_top" xlink:title="Graph construction starts with selecting a random core/scaffold.">
<polygon fill="white" stroke="black" points="915,-483 915,-513 1042,-513 1042,-483 915,-483"/>
<text text-anchor="start" x="923" y="-501" font-family="Helvetica,sans-Serif" font-size="10.00">denoptim.ga.EAUtils.build</text>
<text text-anchor="middle" x="978.5" y="-490" font-family="Helvetica,sans-Serif" font-size="10.00">Graph</text>
</a>
</g>
</g>
<!-- Node17&#45;&gt;Node18 -->
<g id="edge23" class="edge">
<title>Node17&#45;&gt;Node18</title>
<path fill="none" stroke="midnightblue" d="M1343.34,-485.75C1256.52,-488.67 1121.09,-493.23 1042.26,-495.89"/>
<polygon fill="midnightblue" stroke="midnightblue" points="1343.55,-489.24 1353.42,-485.41 1343.31,-482.25 1343.55,-489.24"/>
</g>
<!-- Node18&#45;&gt;Node11 -->
<g id="edge24" class="edge">
<title>Node18&#45;&gt;Node11</title>
<path fill="none" stroke="midnightblue" d="M905.02,-483.25C883.29,-478.83 859.65,-474.02 838.61,-469.74"/>
<polygon fill="midnightblue" stroke="midnightblue" points="904.35,-486.69 914.85,-485.25 905.75,-479.83 904.35,-486.69"/>
</g>
<!-- Node19 -->
<g id="node19" class="node">
<title>Node19</title>
<g id="a_node19"><a xlink:href="classdenoptim_1_1ga_1_1_e_a_utils_test.html#ab7a37d3340d35ab586332ce2122e7bb0" target="_top" xlink:title=" ">
<polygon fill="white" stroke="black" points="693.5,-491 693.5,-521 856.5,-521 856.5,-491 693.5,-491"/>
<text text-anchor="start" x="701.5" y="-509" font-family="Helvetica,sans-Serif" font-size="10.00">denoptim.ga.EAUtilsTest.test</text>
<text text-anchor="middle" x="775" y="-498" font-family="Helvetica,sans-Serif" font-size="10.00">BuildGraphFromTemplateScaffold</text>
</a>
</g>
</g>
<!-- Node18&#45;&gt;Node19 -->
<g id="edge25" class="edge">
<title>Node18&#45;&gt;Node19</title>
<path fill="none" stroke="midnightblue" d="M904.77,-500.89C889.2,-501.51 872.66,-502.16 856.8,-502.79"/>
<polygon fill="midnightblue" stroke="midnightblue" points="905,-504.38 914.85,-500.49 904.72,-497.39 905,-504.38"/>
</g>
<!-- Node21 -->
<g id="node21" class="node">
<title>Node21</title>
<g id="a_node21"><a xlink:href="classdenoptim_1_1fragspace_1_1_a_p_map_finder.html#ae5c8afa4b7defd6ce35df0fa1c5facf2" target="_top" xlink:title="Searches for mappings between the AttachmentPoints on the two lists.">
<polygon fill="white" stroke="black" points="1131,-166 1131,-196 1267,-196 1267,-166 1131,-166"/>
<text text-anchor="start" x="1139" y="-184" font-family="Helvetica,sans-Serif" font-size="10.00">denoptim.fragspace.APMap</text>
<text text-anchor="middle" x="1199" y="-173" font-family="Helvetica,sans-Serif" font-size="10.00">Finder.findAllMappings</text>
</a>
</g>
</g>
<!-- Node20&#45;&gt;Node21 -->
<g id="edge27" class="edge">
<title>Node20&#45;&gt;Node21</title>
<path fill="none" stroke="midnightblue" d="M1397.97,-266.61C1373.43,-248.15 1335.58,-221.99 1299,-206 1288.93,-201.6 1277.93,-197.86 1267.04,-194.73"/>
<polygon fill="midnightblue" stroke="midnightblue" points="1396,-269.51 1406.08,-272.8 1400.25,-263.95 1396,-269.51"/>
</g>
<!-- Node23 -->
<g id="node23" class="node">
<title>Node23</title>
<g id="a_node23"><a xlink:href="classdenoptim_1_1fragspace_1_1_fragment_space.html#af556efa5109b1a7edfe10bdfcfdfdd00" target="_top" xlink:title="Select a compatible capping group for the given APClass.">
<polygon fill="white" stroke="black" points="1126.5,-117 1126.5,-147 1271.5,-147 1271.5,-117 1126.5,-117"/>
<text text-anchor="start" x="1134.5" y="-135" font-family="Helvetica,sans-Serif" font-size="10.00">denoptim.fragspace.Fragment</text>
<text text-anchor="middle" x="1199" y="-124" font-family="Helvetica,sans-Serif" font-size="10.00">Space.getCappingFragment</text>
</a>
</g>
</g>
<!-- Node20&#45;&gt;Node23 -->
<g id="edge29" class="edge">
<title>Node20&#45;&gt;Node23</title>
<path fill="none" stroke="midnightblue" d="M1408.78,-264.31C1387.2,-234.66 1346.23,-184.43 1299,-157 1290.57,-152.1 1281.19,-148.16 1271.66,-144.98"/>
<polygon fill="midnightblue" stroke="midnightblue" points="1406.18,-266.7 1414.84,-272.81 1411.88,-262.63 1406.18,-266.7"/>
</g>
<!-- Node24 -->
<g id="node24" class="node">
<title>Node24</title>
<g id="a_node24"><a xlink:href="classdenoptim_1_1ga_1_1_e_a_utils.html#a45d4e9ec6a308aa73891efa1d501dd5e" target="_top" xlink:title="Perform fitness&#45;based, class&#45;compatible selection of parents that can do crossover operations.">
<polygon fill="white" stroke="black" points="692,-278.5 692,-297.5 858,-297.5 858,-278.5 692,-278.5"/>
<text text-anchor="middle" x="775" y="-285.5" font-family="Helvetica,sans-Serif" font-size="10.00">denoptim.ga.EAUtils.performFBCC</text>
</a>
</g>
</g>
<!-- Node20&#45;&gt;Node24 -->
<g id="edge30" class="edge">
<title>Node20&#45;&gt;Node24</title>
<path fill="none" stroke="midnightblue" d="M1330.36,-288C1203.05,-288 978.71,-288 858.14,-288"/>
<polygon fill="midnightblue" stroke="midnightblue" points="1330.49,-291.5 1340.49,-288 1330.49,-284.5 1330.49,-291.5"/>
</g>
<!-- Node25 -->
<g id="node25" class="node">
<title>Node25</title>
<g id="a_node25"><a xlink:href="classdenoptim_1_1ga_1_1_selection_helper.html#a276133ac3cc94b28a8dc93ef1cf41f1c" target="_top" xlink:title="Randomly select k individuals from the population.">
<polygon fill="white" stroke="black" points="1111,-401 1111,-431 1287,-431 1287,-401 1111,-401"/>
<text text-anchor="start" x="1119" y="-419" font-family="Helvetica,sans-Serif" font-size="10.00">denoptim.ga.SelectionHelper.perform</text>
<text text-anchor="middle" x="1199" y="-408" font-family="Helvetica,sans-Serif" font-size="10.00">RandomSelection</text>
</a>
</g>
</g>
<!-- Node20&#45;&gt;Node25 -->
<g id="edge32" class="edge">
<title>Node20&#45;&gt;Node25</title>
<path fill="none" stroke="midnightblue" d="M1401.03,-310.01C1371.06,-337.14 1321,-380.99 1299,-392 1292.12,-395.44 1284.72,-398.41 1277.17,-400.96"/>
<polygon fill="midnightblue" stroke="midnightblue" points="1403.51,-312.49 1408.55,-303.18 1398.8,-307.31 1403.51,-312.49"/>
</g>
<!-- Node27 -->
<g id="node27" class="node">
<title>Node27</title>
<g id="a_node27"><a xlink:href="classdenoptim_1_1ga_1_1_selection_helper.html#a555966cc6da7a4ef6fdd70293e9fd9e2" target="_top" xlink:title="Select p individuals at random.">
<polygon fill="white" stroke="black" points="1111,-352 1111,-382 1287,-382 1287,-352 1111,-352"/>
<text text-anchor="start" x="1119" y="-370" font-family="Helvetica,sans-Serif" font-size="10.00">denoptim.ga.SelectionHelper.perform</text>
<text text-anchor="middle" x="1199" y="-359" font-family="Helvetica,sans-Serif" font-size="10.00">TournamentSelection</text>
</a>
</g>
</g>
<!-- Node20&#45;&gt;Node27 -->
<g id="edge37" class="edge">
<title>Node20&#45;&gt;Node27</title>
<path fill="none" stroke="midnightblue" d="M1385.22,-307.49C1360.76,-318.93 1328.56,-333.05 1299,-343 1289.36,-346.24 1279.06,-349.24 1268.88,-351.94"/>
<polygon fill="midnightblue" stroke="midnightblue" points="1386.98,-310.53 1394.52,-303.09 1383.98,-304.2 1386.98,-310.53"/>
</g>
<!-- Node28 -->
<g id="node28" class="node">
<title>Node28</title>
<g id="a_node28"><a xlink:href="classdenoptim_1_1programs_1_1genetweeker_1_1_gene_ops_runner.html#ab0f92a94c4fb2334e7d3813e73fc4247" target="_top" xlink:title=" ">
<polygon fill="white" stroke="black" points="1119.5,-303 1119.5,-333 1278.5,-333 1278.5,-303 1119.5,-303"/>
<text text-anchor="start" x="1127.5" y="-321" font-family="Helvetica,sans-Serif" font-size="10.00">denoptim.programs.genetweeker.</text>
<text text-anchor="middle" x="1199" y="-310" font-family="Helvetica,sans-Serif" font-size="10.00">GeneOpsRunner.runXOver</text>
</a>
</g>
</g>
<!-- Node20&#45;&gt;Node28 -->
<g id="edge39" class="edge">
<title>Node20&#45;&gt;Node28</title>
<path fill="none" stroke="midnightblue" d="M1330.23,-300.64C1313.08,-302.92 1295.36,-305.29 1278.73,-307.5"/>
<polygon fill="midnightblue" stroke="midnightblue" points="1330.81,-304.09 1340.26,-299.3 1329.88,-297.15 1330.81,-304.09"/>
</g>
<!-- Node30 -->
<g id="node30" class="node">
<title>Node30</title>
<g id="a_node30"><a xlink:href="classdenoptim_1_1ga_1_1_e_a_utils.html#ac8c9339d352074aafb4a8e3cc206b0d6" target="_top" xlink:title="Chose randomly a vertex that is neither scaffold or capping group.">
<polygon fill="white" stroke="black" points="1132.5,-215 1132.5,-245 1265.5,-245 1265.5,-215 1132.5,-215"/>
<text text-anchor="start" x="1140.5" y="-233" font-family="Helvetica,sans-Serif" font-size="10.00">denoptim.ga.EAUtils.select</text>
<text text-anchor="middle" x="1199" y="-222" font-family="Helvetica,sans-Serif" font-size="10.00">NonScaffoldNonCapVertex</text>
</a>
</g>
</g>
<!-- Node20&#45;&gt;Node30 -->
<g id="edge41" class="edge">
<title>Node20&#45;&gt;Node30</title>
<path fill="none" stroke="midnightblue" d="M1356.78,-270.41C1325.37,-262.32 1288.48,-252.81 1258.38,-245.05"/>
<polygon fill="midnightblue" stroke="midnightblue" points="1356.21,-273.88 1366.76,-272.99 1357.95,-267.1 1356.21,-273.88"/>
</g>
<!-- Node22 -->
<g id="node22" class="node">
<title>Node22</title>
<g id="a_node22"><a xlink:href="classdenoptim_1_1fragspace_1_1_a_p_map_finder.html#ada1b2c2155faeefced1d9a64f82a6668" target="_top" xlink:title="Constructor that launches the search for a mapping between the AttachmentPoints on the first vertex t...">
<polygon fill="white" stroke="black" points="910.5,-127 910.5,-157 1046.5,-157 1046.5,-127 910.5,-127"/>
<text text-anchor="start" x="918.5" y="-145" font-family="Helvetica,sans-Serif" font-size="10.00">denoptim.fragspace.APMap</text>
<text text-anchor="middle" x="978.5" y="-134" font-family="Helvetica,sans-Serif" font-size="10.00">Finder.APMapFinder</text>
</a>
</g>
</g>
<!-- Node21&#45;&gt;Node22 -->
<g id="edge28" class="edge">
<title>Node21&#45;&gt;Node22</title>
<path fill="none" stroke="midnightblue" d="M1121.09,-167.27C1096.86,-162.95 1070.3,-158.21 1046.79,-154.01"/>
<polygon fill="midnightblue" stroke="midnightblue" points="1120.5,-170.72 1130.96,-169.03 1121.73,-163.83 1120.5,-170.72"/>
</g>
<!-- Node24&#45;&gt;Node13 -->
<g id="edge31" class="edge">
<title>Node24&#45;&gt;Node13</title>
<path fill="none" stroke="midnightblue" d="M681.56,-297.65C672.48,-298.6 663.43,-299.54 654.76,-300.45"/>
<polygon fill="midnightblue" stroke="midnightblue" points="682.2,-301.1 691.79,-296.58 681.48,-294.14 682.2,-301.1"/>
</g>
<!-- Node26 -->
<g id="node26" class="node">
<title>Node26</title>
<g id="a_node26"><a xlink:href="classdenoptim_1_1ga_1_1_e_a_utils.html#a17505cbf52d9203a1af793f07bcf27f9" target="_top" xlink:title="Selects a number of members from the given population.">
<polygon fill="white" stroke="black" points="912,-352 912,-382 1045,-382 1045,-352 912,-352"/>
<text text-anchor="start" x="920" y="-370" font-family="Helvetica,sans-Serif" font-size="10.00">denoptim.ga.EAUtils.select</text>
<text text-anchor="middle" x="978.5" y="-359" font-family="Helvetica,sans-Serif" font-size="10.00">BasedOnFitness</text>
</a>
</g>
</g>
<!-- Node25&#45;&gt;Node26 -->
<g id="edge33" class="edge">
<title>Node25&#45;&gt;Node26</title>
<path fill="none" stroke="midnightblue" d="M1120.9,-398.71C1096.2,-393.17 1069.1,-387.09 1045.29,-381.75"/>
<polygon fill="midnightblue" stroke="midnightblue" points="1120.43,-402.19 1130.96,-400.97 1121.97,-395.36 1120.43,-402.19"/>
</g>
<!-- Node26&#45;&gt;Node4 -->
<g id="edge34" class="edge">
<title>Node26&#45;&gt;Node4</title>
<path fill="none" stroke="midnightblue" d="M902,-382.36C881.08,-386.62 858.61,-391.19 838.53,-395.28"/>
<polygon fill="midnightblue" stroke="midnightblue" points="902.7,-385.79 911.8,-380.37 901.3,-378.93 902.7,-385.79"/>
</g>
<!-- Node26&#45;&gt;Node13 -->
<g id="edge35" class="edge">
<title>Node26&#45;&gt;Node13</title>
<path fill="none" stroke="midnightblue" d="M901.72,-355.21C829.55,-343.97 722.18,-327.26 654.68,-316.76"/>
<polygon fill="midnightblue" stroke="midnightblue" points="901.25,-358.67 911.67,-356.75 902.33,-351.76 901.25,-358.67"/>
</g>
<!-- Node26&#45;&gt;Node24 -->
<g id="edge36" class="edge">
<title>Node26&#45;&gt;Node24</title>
<path fill="none" stroke="midnightblue" d="M904.32,-348.01C900.77,-346.46 897.31,-344.79 894,-343 875.42,-332.96 876.55,-322.08 858,-312 846.66,-305.84 833.56,-301.09 821.2,-297.51"/>
<polygon fill="midnightblue" stroke="midnightblue" points="903.3,-351.37 913.88,-351.87 905.92,-344.88 903.3,-351.37"/>
</g>
<!-- Node27&#45;&gt;Node26 -->
<g id="edge38" class="edge">
<title>Node27&#45;&gt;Node26</title>
<path fill="none" stroke="midnightblue" d="M1100.63,-367C1081.85,-367 1062.59,-367 1045.12,-367"/>
<polygon fill="midnightblue" stroke="midnightblue" points="1100.7,-370.5 1110.7,-367 1100.7,-363.5 1100.7,-370.5"/>
</g>
<!-- Node29 -->
<g id="node29" class="node">
<title>Node29</title>
<g id="a_node29"><a xlink:href="classdenoptim_1_1programs_1_1genetweeker_1_1_gene_ops_runner.html#a3c2407eb1204a7b25600d3d347d98447" target="_top" xlink:title=" ">
<polygon fill="white" stroke="black" points="899,-303 899,-333 1058,-333 1058,-303 899,-303"/>
<text text-anchor="start" x="907" y="-321" font-family="Helvetica,sans-Serif" font-size="10.00">denoptim.programs.genetweeker.</text>
<text text-anchor="middle" x="978.5" y="-310" font-family="Helvetica,sans-Serif" font-size="10.00">GeneOpsRunner.runProgram</text>
</a>
</g>
</g>
<!-- Node28&#45;&gt;Node29 -->
<g id="edge40" class="edge">
<title>Node28&#45;&gt;Node29</title>
<path fill="none" stroke="midnightblue" d="M1109.03,-318C1092.16,-318 1074.63,-318 1058.11,-318"/>
<polygon fill="midnightblue" stroke="midnightblue" points="1109.43,-321.5 1119.43,-318 1109.43,-314.5 1109.43,-321.5"/>
</g>
<!-- Node30&#45;&gt;Node13 -->
<g id="edge42" class="edge">
<title>Node30&#45;&gt;Node13</title>
<path fill="none" stroke="midnightblue" d="M1122.45,-214.16C1103.16,-210.77 1082.39,-207.71 1063,-206 988.18,-199.4 968.25,-194.69 894,-206 801.03,-220.16 780.88,-238.28 692,-269 671.46,-276.1 648.81,-284.64 630.26,-291.83"/>
<polygon fill="midnightblue" stroke="midnightblue" points="1121.93,-217.62 1132.39,-215.95 1123.17,-210.73 1121.93,-217.62"/>
</g>
<!-- Node31 -->
<g id="node31" class="node">
<title>Node31</title>
<g id="a_node31"><a xlink:href="classdenoptim_1_1ga_1_1_e_a_utils_test.html#a60b1ca7ac8b9d3775e72bd7cea418f1a" target="_top" xlink:title=" ">
<polygon fill="white" stroke="black" points="898,-215 898,-245 1059,-245 1059,-215 898,-215"/>
<text text-anchor="start" x="906" y="-233" font-family="Helvetica,sans-Serif" font-size="10.00">denoptim.ga.EAUtilsTest.test</text>
<text text-anchor="middle" x="978.5" y="-222" font-family="Helvetica,sans-Serif" font-size="10.00">SelectNonScaffoldNonCapVertex</text>
</a>
</g>
</g>
<!-- Node30&#45;&gt;Node31 -->
<g id="edge43" class="edge">
<title>Node30&#45;&gt;Node31</title>
<path fill="none" stroke="midnightblue" d="M1122.29,-230C1101.94,-230 1079.87,-230 1059.3,-230"/>
<polygon fill="midnightblue" stroke="midnightblue" points="1122.44,-233.5 1132.44,-230 1122.44,-226.5 1122.44,-233.5"/>
</g>
</g>
</svg>
