<?xml version="1.0" encoding="UTF-8" standalone="no"?>
<!DOCTYPE svg PUBLIC "-//W3C//DTD SVG 1.1//EN"
 "http://www.w3.org/Graphics/SVG/1.1/DTD/svg11.dtd">
<!-- Generated by graphviz version 3.0.0 (20221109.1736)
 -->
<!-- Title: denoptim.fragspace.APMapFinder.APMapFinder Pages: 1 -->
<svg width="1385pt" height="607pt"
 viewBox="0.00 0.00 1385.00 607.00" xmlns="http://www.w3.org/2000/svg" xmlns:xlink="http://www.w3.org/1999/xlink">
<g id="graph0" class="graph" transform="scale(1 1) rotate(0) translate(4 603)">
<title>denoptim.fragspace.APMapFinder.APMapFinder</title>
<polygon fill="white" stroke="transparent" points="-4,4 -4,-603 1381,-603 1381,4 -4,4"/>
<!-- Node1 -->
<g id="node1" class="node">
<title>Node1</title>
<g id="a_node1"><a xlink:title="Constructor that launches the search for a mapping between the AttachmentPoints on the first vertex t...">
<polygon fill="#bfbfbf" stroke="black" points="0,-71.5 0,-101.5 136,-101.5 136,-71.5 0,-71.5"/>
<text text-anchor="start" x="8" y="-89.5" font-family="Helvetica,sans-Serif" font-size="10.00">denoptim.fragspace.APMap</text>
<text text-anchor="middle" x="68" y="-78.5" font-family="Helvetica,sans-Serif" font-size="10.00">Finder.APMapFinder</text>
</a>
</g>
</g>
<!-- Node2 -->
<g id="node2" class="node">
<title>Node2</title>
<g id="a_node2"><a xlink:href="classdenoptim_1_1fragspace_1_1_a_p_map_finder.html#ae5c8afa4b7defd6ce35df0fa1c5facf2" target="_top" xlink:title="Searches for mappings between the AttachmentPoints on the two lists.">
<polygon fill="white" stroke="black" points="172,-444.5 172,-474.5 308,-474.5 308,-444.5 172,-444.5"/>
<text text-anchor="start" x="180" y="-462.5" font-family="Helvetica,sans-Serif" font-size="10.00">denoptim.fragspace.APMap</text>
<text text-anchor="middle" x="240" y="-451.5" font-family="Helvetica,sans-Serif" font-size="10.00">Finder.findAllMappings</text>
</a>
</g>
</g>
<!-- Node1&#45;&gt;Node2 -->
<g id="edge1" class="edge">
<title>Node1&#45;&gt;Node2</title>
<path fill="none" stroke="midnightblue" d="M75.87,-101.58C101.98,-158.87 195.17,-363.32 227.7,-434.7"/>
<polygon fill="midnightblue" stroke="midnightblue" points="224.71,-436.58 232.04,-444.23 231.08,-433.68 224.71,-436.58"/>
</g>
<!-- Node11 -->
<g id="node11" class="node">
<title>Node11</title>
<g id="a_node11"><a xlink:href="classdenoptim_1_1graph_1_1_vertex.html#a6615f1c869173b8bd6d730c6683b9de4" target="_top" xlink:title="Returns the graph this vertex belongs to or null.">
<polygon fill="white" stroke="black" points="992.5,-139.5 992.5,-169.5 1120.5,-169.5 1120.5,-139.5 992.5,-139.5"/>
<text text-anchor="start" x="1000.5" y="-157.5" font-family="Helvetica,sans-Serif" font-size="10.00">denoptim.graph.Vertex.get</text>
<text text-anchor="middle" x="1056.5" y="-146.5" font-family="Helvetica,sans-Serif" font-size="10.00">GraphOwner</text>
</a>
</g>
</g>
<!-- Node1&#45;&gt;Node11 -->
<g id="edge39" class="edge">
<title>Node1&#45;&gt;Node11</title>
<path fill="none" stroke="midnightblue" d="M136.18,-93.07C208.34,-99.55 326.42,-108.5 428.5,-108.5 428.5,-108.5 428.5,-108.5 638,-108.5 759.28,-108.5 899.19,-127.91 982.33,-141.52"/>
<polygon fill="midnightblue" stroke="midnightblue" points="982,-145.01 992.43,-143.19 983.14,-138.1 982,-145.01"/>
</g>
<!-- Node33 -->
<g id="node33" class="node">
<title>Node33</title>
<g id="a_node33"><a xlink:href="classdenoptim_1_1graph_1_1_vertex.html#a85aa901ec3fff8e566c0cc32d9c9f84e" target="_top" xlink:title=" ">
<polygon fill="white" stroke="black" points="176,-49.5 176,-79.5 304,-79.5 304,-49.5 176,-49.5"/>
<text text-anchor="start" x="184" y="-67.5" font-family="Helvetica,sans-Serif" font-size="10.00">denoptim.graph.Vertex.get</text>
<text text-anchor="middle" x="240" y="-56.5" font-family="Helvetica,sans-Serif" font-size="10.00">AttachmentPoints</text>
</a>
</g>
</g>
<!-- Node1&#45;&gt;Node33 -->
<g id="edge38" class="edge">
<title>Node1&#45;&gt;Node33</title>
<path fill="none" stroke="midnightblue" d="M136.19,-77.81C145.9,-76.55 155.94,-75.25 165.76,-73.98"/>
<polygon fill="midnightblue" stroke="midnightblue" points="166.43,-77.42 175.9,-72.67 165.53,-70.48 166.43,-77.42"/>
</g>
<!-- Node34 -->
<g id="node34" class="node">
<title>Node34</title>
<g id="a_node34"><a xlink:href="classdenoptim_1_1graph_1_1_d_graph.html#a6e658646bb7be49c4deea6fc892150ee" target="_top" xlink:title="Searches for all AttachmentPoints that represent the interface between a subgraph,...">
<polygon fill="white" stroke="black" points="173,-0.5 173,-30.5 307,-30.5 307,-0.5 173,-0.5"/>
<text text-anchor="start" x="181" y="-18.5" font-family="Helvetica,sans-Serif" font-size="10.00">denoptim.graph.DGraph.get</text>
<text text-anchor="middle" x="240" y="-7.5" font-family="Helvetica,sans-Serif" font-size="10.00">InterfaceAPs</text>
</a>
</g>
</g>
<!-- Node1&#45;&gt;Node34 -->
<g id="edge40" class="edge">
<title>Node1&#45;&gt;Node34</title>
<path fill="none" stroke="midnightblue" d="M100.26,-71.41C120.52,-61.83 147.6,-49.42 172,-39.5 176.42,-37.7 181.03,-35.91 185.67,-34.14"/>
<polygon fill="midnightblue" stroke="midnightblue" points="187.04,-37.37 195.19,-30.59 184.6,-30.81 187.04,-37.37"/>
</g>
<!-- Node3 -->
<g id="node3" class="node">
<title>Node3</title>
<g id="a_node3"><a xlink:href="classdenoptim_1_1graph_1_1_a_p_mapping.html#a9b9fdac59130cd95e89edd7a74e2b7c5" target="_top" xlink:title="Shallow cloning.">
<polygon fill="white" stroke="black" points="556.5,-481 556.5,-500 717.5,-500 717.5,-481 556.5,-481"/>
<text text-anchor="middle" x="637" y="-488" font-family="Helvetica,sans-Serif" font-size="10.00">denoptim.graph.APMapping.clone</text>
</a>
</g>
</g>
<!-- Node2&#45;&gt;Node3 -->
<g id="edge2" class="edge">
<title>Node2&#45;&gt;Node3</title>
<path fill="none" stroke="midnightblue" d="M308.27,-467.84C320.16,-469.17 332.44,-470.45 344,-471.5 411.65,-477.64 488.3,-482.55 546.09,-485.84"/>
<polygon fill="midnightblue" stroke="midnightblue" points="546.11,-489.34 556.29,-486.41 546.5,-482.36 546.11,-489.34"/>
</g>
<!-- Node5 -->
<g id="node5" class="node">
<title>Node5</title>
<g id="a_node5"><a xlink:href="classdenoptim_1_1fragspace_1_1_a_p_map_finder.html#a5868844d747acb9bd5331c760a24ff09" target="_top" xlink:title="Compares the AttachmentPoint of two lists searching for all the APs of the second list that are &quot;comp...">
<polygon fill="white" stroke="black" points="346,-308.5 346,-338.5 513,-338.5 513,-308.5 346,-308.5"/>
<text text-anchor="start" x="354" y="-326.5" font-family="Helvetica,sans-Serif" font-size="10.00">denoptim.fragspace.APMap</text>
<text text-anchor="middle" x="429.5" y="-315.5" font-family="Helvetica,sans-Serif" font-size="10.00">Finder.findMappingCompatibileAPs</text>
</a>
</g>
</g>
<!-- Node2&#45;&gt;Node5 -->
<g id="edge4" class="edge">
<title>Node2&#45;&gt;Node5</title>
<path fill="none" stroke="midnightblue" d="M261.78,-444.43C295.29,-420.12 361.34,-372.21 399.48,-344.55"/>
<polygon fill="midnightblue" stroke="midnightblue" points="401.58,-347.35 407.62,-338.64 397.47,-341.68 401.58,-347.35"/>
</g>
<!-- Node23 -->
<g id="node23" class="node">
<title>Node23</title>
<g id="a_node23"><a xlink:href="classdenoptim_1_1fragspace_1_1_fragment_space.html#a3c2e32dc6957ef866770079087cc2513" target="_top" xlink:title="Returns the program&#45;specific randomizer that is associated with this program&#45;specific fragment space.">
<polygon fill="white" stroke="black" points="357,-568.5 357,-598.5 502,-598.5 502,-568.5 357,-568.5"/>
<text text-anchor="start" x="365" y="-586.5" font-family="Helvetica,sans-Serif" font-size="10.00">denoptim.fragspace.Fragment</text>
<text text-anchor="middle" x="429.5" y="-575.5" font-family="Helvetica,sans-Serif" font-size="10.00">Space.getRandomizer</text>
</a>
</g>
</g>
<!-- Node2&#45;&gt;Node23 -->
<g id="edge26" class="edge">
<title>Node2&#45;&gt;Node23</title>
<path fill="none" stroke="midnightblue" d="M252.57,-474.78C270.01,-496.74 305.15,-537.07 344,-559.5 347.06,-561.27 350.27,-562.92 353.56,-564.45"/>
<polygon fill="midnightblue" stroke="midnightblue" points="352.45,-567.78 363.03,-568.46 355.19,-561.33 352.45,-567.78"/>
</g>
<!-- Node25 -->
<g id="node25" class="node">
<title>Node25</title>
<g id="a_node25"><a xlink:href="classdenoptim_1_1utils_1_1_randomizer.html#a1ac7cea6bdf732a6dd69f1a83e591ed5" target="_top" xlink:title="Chooses one member among the given collection.">
<polygon fill="white" stroke="black" points="344,-519.5 344,-549.5 515,-549.5 515,-519.5 344,-519.5"/>
<text text-anchor="start" x="352" y="-537.5" font-family="Helvetica,sans-Serif" font-size="10.00">denoptim.utils.Randomizer.randomly</text>
<text text-anchor="middle" x="429.5" y="-526.5" font-family="Helvetica,sans-Serif" font-size="10.00">ChooseOne</text>
</a>
</g>
</g>
<!-- Node2&#45;&gt;Node25 -->
<g id="edge28" class="edge">
<title>Node2&#45;&gt;Node25</title>
<path fill="none" stroke="midnightblue" d="M274.15,-474.69C294.22,-483.71 320.41,-495.17 344,-504.5 353.76,-508.36 364.25,-512.27 374.4,-515.93"/>
<polygon fill="midnightblue" stroke="midnightblue" points="373.39,-519.29 383.99,-519.36 375.75,-512.7 373.39,-519.29"/>
</g>
<!-- Node32 -->
<g id="node32" class="node">
<title>Node32</title>
<g id="a_node32"><a xlink:href="classdenoptim_1_1fragspace_1_1_fragment_space_utils.html#ace7d0f68e2dd6f9bedc0d019790a9036" target="_top" xlink:title="Search for all possible combinations of compatible APs.">
<polygon fill="white" stroke="black" points="355.5,-413.5 355.5,-443.5 503.5,-443.5 503.5,-413.5 355.5,-413.5"/>
<text text-anchor="start" x="363.5" y="-431.5" font-family="Helvetica,sans-Serif" font-size="10.00">denoptim.fragspace.Fragment</text>
<text text-anchor="middle" x="429.5" y="-420.5" font-family="Helvetica,sans-Serif" font-size="10.00">SpaceUtils.recursiveCombiner</text>
</a>
</g>
</g>
<!-- Node2&#45;&gt;Node32 -->
<g id="edge35" class="edge">
<title>Node2&#45;&gt;Node32</title>
<path fill="none" stroke="midnightblue" d="M308.16,-448.4C320.27,-446.39 333.02,-444.29 345.51,-442.22"/>
<polygon fill="midnightblue" stroke="midnightblue" points="346.16,-445.66 355.46,-440.58 345.02,-438.75 346.16,-445.66"/>
</g>
<!-- Node4 -->
<g id="node4" class="node">
<title>Node4</title>
<g id="a_node4"><a xlink:href="classdenoptim_1_1graph_1_1_a_p_mapping.html#a32d3ef2e53f9b39cfeb5661d43b39592" target="_top" xlink:title="Creates a mapping that links no pair of APs.">
<polygon fill="white" stroke="black" points="774,-475.5 774,-505.5 911,-505.5 911,-475.5 774,-475.5"/>
<text text-anchor="start" x="782" y="-493.5" font-family="Helvetica,sans-Serif" font-size="10.00">denoptim.graph.APMapping.</text>
<text text-anchor="middle" x="842.5" y="-482.5" font-family="Helvetica,sans-Serif" font-size="10.00">APMapping</text>
</a>
</g>
</g>
<!-- Node3&#45;&gt;Node4 -->
<g id="edge3" class="edge">
<title>Node3&#45;&gt;Node4</title>
<path fill="none" stroke="midnightblue" d="M717.55,-490.5C732.68,-490.5 748.49,-490.5 763.57,-490.5"/>
<polygon fill="midnightblue" stroke="midnightblue" points="763.87,-494 773.87,-490.5 763.87,-487 763.87,-494"/>
</g>
<!-- Node6 -->
<g id="node6" class="node">
<title>Node6</title>
<g id="a_node6"><a xlink:href="classdenoptim_1_1graph_1_1_attachment_point.html#a31bed4cb29f6437bf8a888a1dda3fd95" target="_top" xlink:title="Returns the Attachment Point class.">
<polygon fill="white" stroke="black" points="569.5,-137.5 569.5,-167.5 704.5,-167.5 704.5,-137.5 569.5,-137.5"/>
<text text-anchor="start" x="577.5" y="-155.5" font-family="Helvetica,sans-Serif" font-size="10.00">denoptim.graph.Attachment</text>
<text text-anchor="middle" x="637" y="-144.5" font-family="Helvetica,sans-Serif" font-size="10.00">Point.getAPClass</text>
</a>
</g>
</g>
<!-- Node5&#45;&gt;Node6 -->
<g id="edge5" class="edge">
<title>Node5&#45;&gt;Node6</title>
<path fill="none" stroke="midnightblue" d="M438.59,-308.44C455.43,-278.59 497.16,-211.75 551,-176.5 553.91,-174.59 556.97,-172.84 560.14,-171.22"/>
<polygon fill="midnightblue" stroke="midnightblue" points="561.66,-174.37 569.28,-167.01 558.74,-168.01 561.66,-174.37"/>
</g>
<!-- Node7 -->
<g id="node7" class="node">
<title>Node7</title>
<g id="a_node7"><a xlink:href="classdenoptim_1_1fragspace_1_1_fragment_space.html#a6ea754cecdf39a852284d1dd2045099c" target="_top" xlink:title=" ">
<polygon fill="white" stroke="black" points="551,-431.5 551,-461.5 723,-461.5 723,-431.5 551,-431.5"/>
<text text-anchor="start" x="559" y="-449.5" font-family="Helvetica,sans-Serif" font-size="10.00">denoptim.fragspace.Fragment</text>
<text text-anchor="middle" x="637" y="-438.5" font-family="Helvetica,sans-Serif" font-size="10.00">Space.getAPClassOfCappingVertex</text>
</a>
</g>
</g>
<!-- Node5&#45;&gt;Node7 -->
<g id="edge6" class="edge">
<title>Node5&#45;&gt;Node7</title>
<path fill="none" stroke="midnightblue" d="M445.05,-338.66C466.39,-360.07 508.29,-399.02 551,-421.5 555.28,-423.75 559.8,-425.83 564.42,-427.74"/>
<polygon fill="midnightblue" stroke="midnightblue" points="563.44,-431.11 574.03,-431.43 565.95,-424.58 563.44,-431.11"/>
</g>
<!-- Node8 -->
<g id="node8" class="node">
<title>Node8</title>
<g id="a_node8"><a xlink:href="classdenoptim_1_1graph_1_1_vertex.html#a46dadb5fd30f1877db91e97ae55c2dd8" target="_top" xlink:title=" ">
<polygon fill="white" stroke="black" points="573,-382.5 573,-412.5 701,-412.5 701,-382.5 573,-382.5"/>
<text text-anchor="start" x="581" y="-400.5" font-family="Helvetica,sans-Serif" font-size="10.00">denoptim.graph.Vertex.get</text>
<text text-anchor="middle" x="637" y="-389.5" font-family="Helvetica,sans-Serif" font-size="10.00">BuildingBlockType</text>
</a>
</g>
</g>
<!-- Node5&#45;&gt;Node8 -->
<g id="edge7" class="edge">
<title>Node5&#45;&gt;Node8</title>
<path fill="none" stroke="midnightblue" d="M464.95,-338.58C488.86,-348.78 521.58,-362.22 551,-372.5 557.79,-374.87 564.93,-377.21 572.08,-379.45"/>
<polygon fill="midnightblue" stroke="midnightblue" points="571.19,-382.84 581.78,-382.44 573.25,-376.15 571.19,-382.84"/>
</g>
<!-- Node9 -->
<g id="node9" class="node">
<title>Node9</title>
<g id="a_node9"><a xlink:href="classdenoptim_1_1graph_1_1_attachment_point.html#adfc2840f3e5126d847c8d800082f8958" target="_top" xlink:title="Gets the attachment point (AP) that is connected to this AP via the edge user or in any edge user tha...">
<polygon fill="white" stroke="black" points="564,-333.5 564,-363.5 710,-363.5 710,-333.5 564,-333.5"/>
<text text-anchor="start" x="572" y="-351.5" font-family="Helvetica,sans-Serif" font-size="10.00">denoptim.graph.Attachment</text>
<text text-anchor="middle" x="637" y="-340.5" font-family="Helvetica,sans-Serif" font-size="10.00">Point.getLinkedAPThroughout</text>
</a>
</g>
</g>
<!-- Node5&#45;&gt;Node9 -->
<g id="edge8" class="edge">
<title>Node5&#45;&gt;Node9</title>
<path fill="none" stroke="midnightblue" d="M513.2,-333.56C526.53,-335.18 540.33,-336.86 553.65,-338.48"/>
<polygon fill="midnightblue" stroke="midnightblue" points="553.38,-341.97 563.73,-339.71 554.23,-335.03 553.38,-341.97"/>
</g>
<!-- Node19 -->
<g id="node19" class="node">
<title>Node19</title>
<g id="a_node19"><a xlink:href="classdenoptim_1_1graph_1_1_attachment_point.html#ac8551521d38644f5109800b665957ee9" target="_top" xlink:title=" ">
<polygon fill="white" stroke="black" points="569.5,-284.5 569.5,-314.5 704.5,-314.5 704.5,-284.5 569.5,-284.5"/>
<text text-anchor="start" x="577.5" y="-302.5" font-family="Helvetica,sans-Serif" font-size="10.00">denoptim.graph.Attachment</text>
<text text-anchor="middle" x="637" y="-291.5" font-family="Helvetica,sans-Serif" font-size="10.00">Point.getOwner</text>
</a>
</g>
</g>
<!-- Node5&#45;&gt;Node19 -->
<g id="edge22" class="edge">
<title>Node5&#45;&gt;Node19</title>
<path fill="none" stroke="midnightblue" d="M513.2,-313.84C528.33,-312.07 544.07,-310.24 559.02,-308.49"/>
<polygon fill="midnightblue" stroke="midnightblue" points="559.71,-311.93 569.24,-307.3 558.9,-304.98 559.71,-311.93"/>
</g>
<!-- Node20 -->
<g id="node20" class="node">
<title>Node20</title>
<g id="a_node20"><a xlink:href="classdenoptim_1_1graph_1_1_a_p_class.html#a12ddb416c705a90f1e9bccb1b0de2749" target="_top" xlink:title="Check compatibility as defined in the compatibility matrix considering this AP as source and the othe...">
<polygon fill="white" stroke="black" points="570.5,-235.5 570.5,-265.5 703.5,-265.5 703.5,-235.5 570.5,-235.5"/>
<text text-anchor="start" x="578.5" y="-253.5" font-family="Helvetica,sans-Serif" font-size="10.00">denoptim.graph.APClass.is</text>
<text text-anchor="middle" x="637" y="-242.5" font-family="Helvetica,sans-Serif" font-size="10.00">CPMapCompatibleWith</text>
</a>
</g>
</g>
<!-- Node5&#45;&gt;Node20 -->
<g id="edge23" class="edge">
<title>Node5&#45;&gt;Node20</title>
<path fill="none" stroke="midnightblue" d="M464.66,-308.43C488.57,-298.17 521.42,-284.66 551,-274.5 557,-272.44 563.27,-270.42 569.58,-268.48"/>
<polygon fill="midnightblue" stroke="midnightblue" points="570.92,-271.74 579.49,-265.51 568.91,-265.03 570.92,-271.74"/>
</g>
<!-- Node22 -->
<g id="node22" class="node">
<title>Node22</title>
<g id="a_node22"><a xlink:href="classdenoptim_1_1fragspace_1_1_fragment_space.html#a47b278f84db073b1f06809f9c42cfae5" target="_top" xlink:title="Check usage of APClass&#45;based approach, i.e., uses attachment points with annotated data (i....">
<polygon fill="white" stroke="black" points="553,-186.5 553,-216.5 721,-216.5 721,-186.5 553,-186.5"/>
<text text-anchor="start" x="561" y="-204.5" font-family="Helvetica,sans-Serif" font-size="10.00">denoptim.fragspace.Fragment</text>
<text text-anchor="middle" x="637" y="-193.5" font-family="Helvetica,sans-Serif" font-size="10.00">Space.useAPclassBasedApproach</text>
</a>
</g>
</g>
<!-- Node5&#45;&gt;Node22 -->
<g id="edge25" class="edge">
<title>Node5&#45;&gt;Node22</title>
<path fill="none" stroke="midnightblue" d="M445.02,-308.27C466.32,-286.8 508.16,-247.75 551,-225.5 554.57,-223.64 558.31,-221.92 562.13,-220.31"/>
<polygon fill="midnightblue" stroke="midnightblue" points="563.72,-223.45 571.78,-216.57 561.19,-216.92 563.72,-223.45"/>
</g>
<!-- Node10 -->
<g id="node10" class="node">
<title>Node10</title>
<g id="a_node10"><a xlink:href="classdenoptim_1_1graph_1_1_attachment_point.html#aa1ae3c328e8ea24ead206b822daca7f7" target="_top" xlink:title="Gets the edge that is using this AP, or null if no edge is using this AP.">
<polygon fill="white" stroke="black" points="769.5,-233.5 769.5,-263.5 915.5,-263.5 915.5,-233.5 769.5,-233.5"/>
<text text-anchor="start" x="777.5" y="-251.5" font-family="Helvetica,sans-Serif" font-size="10.00">denoptim.graph.Attachment</text>
<text text-anchor="middle" x="842.5" y="-240.5" font-family="Helvetica,sans-Serif" font-size="10.00">Point.getEdgeUserThroughout</text>
</a>
</g>
</g>
<!-- Node9&#45;&gt;Node10 -->
<g id="edge9" class="edge">
<title>Node9&#45;&gt;Node10</title>
<path fill="none" stroke="midnightblue" d="M701.03,-333.4C708.64,-330.59 716.14,-327.3 723,-323.5 741.72,-313.12 741.37,-303.65 759,-291.5 771.31,-283.02 785.5,-275.05 798.6,-268.33"/>
<polygon fill="midnightblue" stroke="midnightblue" points="800.53,-271.28 807.91,-263.67 797.4,-265.02 800.53,-271.28"/>
</g>
<!-- Node14 -->
<g id="node14" class="node">
<title>Node14</title>
<g id="a_node14"><a xlink:href="classdenoptim_1_1graph_1_1_attachment_point.html#a0e96f6c954de060a628eb3de1b2f4554" target="_top" xlink:title="For vertices that are templates this method returns the attachment point that is embedded in the temp...">
<polygon fill="white" stroke="black" points="989,-377.5 989,-407.5 1124,-407.5 1124,-377.5 989,-377.5"/>
<text text-anchor="start" x="997" y="-395.5" font-family="Helvetica,sans-Serif" font-size="10.00">denoptim.graph.Attachment</text>
<text text-anchor="middle" x="1056.5" y="-384.5" font-family="Helvetica,sans-Serif" font-size="10.00">Point.getEmbeddedAP</text>
</a>
</g>
</g>
<!-- Node9&#45;&gt;Node14 -->
<g id="edge14" class="edge">
<title>Node9&#45;&gt;Node14</title>
<path fill="none" stroke="midnightblue" d="M710.14,-350.76C768.54,-353.19 852.82,-358.06 926,-367.5 943.18,-369.72 961.52,-372.81 978.82,-376.06"/>
<polygon fill="midnightblue" stroke="midnightblue" points="978.4,-379.54 988.88,-377.99 979.72,-372.67 978.4,-379.54"/>
</g>
<!-- Node15 -->
<g id="node15" class="node">
<title>Node15</title>
<g id="a_node15"><a xlink:href="classdenoptim_1_1graph_1_1_edge.html#a658e275a18a50f12474777f5f28c35e9" target="_top" xlink:title=" ">
<polygon fill="white" stroke="black" points="767,-301 767,-320 918,-320 918,-301 767,-301"/>
<text text-anchor="middle" x="842.5" y="-308" font-family="Helvetica,sans-Serif" font-size="10.00">denoptim.graph.Edge.getSrcAP</text>
</a>
</g>
</g>
<!-- Node9&#45;&gt;Node15 -->
<g id="edge16" class="edge">
<title>Node9&#45;&gt;Node15</title>
<path fill="none" stroke="midnightblue" d="M710.03,-335.05C733.04,-330.75 758.26,-326.04 780.41,-321.91"/>
<polygon fill="midnightblue" stroke="midnightblue" points="781.16,-325.33 790.35,-320.05 779.88,-318.45 781.16,-325.33"/>
</g>
<!-- Node16 -->
<g id="node16" class="node">
<title>Node16</title>
<g id="a_node16"><a xlink:href="classdenoptim_1_1graph_1_1_edge.html#a20a0c78541321532267b2fda0a6b634b" target="_top" xlink:title=" ">
<polygon fill="white" stroke="black" points="774,-426.5 774,-456.5 911,-456.5 911,-426.5 774,-426.5"/>
<text text-anchor="start" x="782" y="-444.5" font-family="Helvetica,sans-Serif" font-size="10.00">denoptim.graph.Edge.getSrc</text>
<text text-anchor="middle" x="842.5" y="-433.5" font-family="Helvetica,sans-Serif" font-size="10.00">APThroughout</text>
</a>
</g>
</g>
<!-- Node9&#45;&gt;Node16 -->
<g id="edge17" class="edge">
<title>Node9&#45;&gt;Node16</title>
<path fill="none" stroke="midnightblue" d="M706.03,-363.56C711.99,-366.1 717.74,-369.05 723,-372.5 744.13,-386.35 738,-402.45 759,-416.5 761.95,-418.47 765.06,-420.3 768.28,-421.98"/>
<polygon fill="midnightblue" stroke="midnightblue" points="767.05,-425.27 777.58,-426.36 770.03,-418.93 767.05,-425.27"/>
</g>
<!-- Node17 -->
<g id="node17" class="node">
<title>Node17</title>
<g id="a_node17"><a xlink:href="classdenoptim_1_1graph_1_1_edge.html#a44521a3ad1a83e5d0a6be227e35ceffa" target="_top" xlink:title=" ">
<polygon fill="white" stroke="black" points="767.5,-195 767.5,-214 917.5,-214 917.5,-195 767.5,-195"/>
<text text-anchor="middle" x="842.5" y="-202" font-family="Helvetica,sans-Serif" font-size="10.00">denoptim.graph.Edge.getTrgAP</text>
</a>
</g>
</g>
<!-- Node9&#45;&gt;Node17 -->
<g id="edge19" class="edge">
<title>Node9&#45;&gt;Node17</title>
<path fill="none" stroke="midnightblue" d="M709.09,-333.48C714.14,-330.7 718.86,-327.4 723,-323.5 757.38,-291.11 723.67,-254.85 759,-223.5 760.74,-221.95 762.58,-220.53 764.51,-219.21"/>
<polygon fill="midnightblue" stroke="midnightblue" points="766.47,-222.12 773.4,-214.11 762.99,-216.05 766.47,-222.12"/>
</g>
<!-- Node18 -->
<g id="node18" class="node">
<title>Node18</title>
<g id="a_node18"><a xlink:href="classdenoptim_1_1graph_1_1_edge.html#ae5c20718860e84083e008b5bef44e1ae" target="_top" xlink:title=" ">
<polygon fill="white" stroke="black" points="774,-377.5 774,-407.5 911,-407.5 911,-377.5 774,-377.5"/>
<text text-anchor="start" x="782" y="-395.5" font-family="Helvetica,sans-Serif" font-size="10.00">denoptim.graph.Edge.getTrg</text>
<text text-anchor="middle" x="842.5" y="-384.5" font-family="Helvetica,sans-Serif" font-size="10.00">APThroughout</text>
</a>
</g>
</g>
<!-- Node9&#45;&gt;Node18 -->
<g id="edge20" class="edge">
<title>Node9&#45;&gt;Node18</title>
<path fill="none" stroke="midnightblue" d="M707.46,-363.52C725.62,-367.44 745.3,-371.7 763.85,-375.71"/>
<polygon fill="midnightblue" stroke="midnightblue" points="763.21,-379.15 773.73,-377.85 764.69,-372.31 763.21,-379.15"/>
</g>
<!-- Node10&#45;&gt;Node10 -->
<g id="edge10" class="edge">
<title>Node10&#45;&gt;Node10</title>
<path fill="none" stroke="midnightblue" d="M806.95,-263.66C798.38,-273.06 810.23,-282 842.5,-282 862.17,-282 874.25,-278.68 878.75,-273.96"/>
<polygon fill="midnightblue" stroke="midnightblue" points="882.22,-273.4 878.05,-263.66 875.23,-273.87 882.22,-273.4"/>
</g>
<!-- Node10&#45;&gt;Node11 -->
<g id="edge11" class="edge">
<title>Node10&#45;&gt;Node11</title>
<path fill="none" stroke="midnightblue" d="M898.61,-233.44C907.86,-230.44 917.29,-227.1 926,-223.5 959.55,-209.63 995.87,-189.83 1021.49,-174.99"/>
<polygon fill="midnightblue" stroke="midnightblue" points="1023.55,-177.83 1030.42,-169.76 1020.02,-171.79 1023.55,-177.83"/>
</g>
<!-- Node12 -->
<g id="node12" class="node">
<title>Node12</title>
<g id="a_node12"><a xlink:href="classdenoptim_1_1graph_1_1_template.html#aca9a03a1d6e2fd5de8f859f18996ec62" target="_top" xlink:title=" ">
<polygon fill="white" stroke="black" points="986,-233.5 986,-263.5 1127,-263.5 1127,-233.5 986,-233.5"/>
<text text-anchor="start" x="994" y="-251.5" font-family="Helvetica,sans-Serif" font-size="10.00">denoptim.graph.Template.get</text>
<text text-anchor="middle" x="1056.5" y="-240.5" font-family="Helvetica,sans-Serif" font-size="10.00">OuterAPFromInnerAP</text>
</a>
</g>
</g>
<!-- Node10&#45;&gt;Node12 -->
<g id="edge12" class="edge">
<title>Node10&#45;&gt;Node12</title>
<path fill="none" stroke="midnightblue" d="M915.57,-248.5C934.89,-248.5 955.89,-248.5 975.6,-248.5"/>
<polygon fill="midnightblue" stroke="midnightblue" points="975.78,-252 985.78,-248.5 975.78,-245 975.78,-252"/>
</g>
<!-- Node13 -->
<g id="node13" class="node">
<title>Node13</title>
<g id="a_node13"><a xlink:href="classdenoptim_1_1graph_1_1_a_p_tree_map.html#abb77efcfaa507592758e7fd4845bdd80" target="_top" xlink:title=" ">
<polygon fill="white" stroke="black" points="1206,-239 1206,-258 1358,-258 1358,-239 1206,-239"/>
<text text-anchor="middle" x="1282" y="-246" font-family="Helvetica,sans-Serif" font-size="10.00">denoptim.graph.APTreeMap.get</text>
</a>
</g>
</g>
<!-- Node12&#45;&gt;Node13 -->
<g id="edge13" class="edge">
<title>Node12&#45;&gt;Node13</title>
<path fill="none" stroke="midnightblue" d="M1127.3,-248.5C1148.96,-248.5 1173.07,-248.5 1195.66,-248.5"/>
<polygon fill="midnightblue" stroke="midnightblue" points="1195.92,-252 1205.92,-248.5 1195.92,-245 1195.92,-252"/>
</g>
<!-- Node14&#45;&gt;Node14 -->
<g id="edge15" class="edge">
<title>Node14&#45;&gt;Node14</title>
<path fill="none" stroke="midnightblue" d="M1019.21,-407.66C1010.21,-417.06 1022.64,-426 1056.5,-426 1077.13,-426 1089.81,-422.68 1094.53,-417.96"/>
<polygon fill="midnightblue" stroke="midnightblue" points="1097.99,-417.39 1093.79,-407.66 1091.01,-417.88 1097.99,-417.39"/>
</g>
<!-- Node16&#45;&gt;Node14 -->
<g id="edge18" class="edge">
<title>Node16&#45;&gt;Node14</title>
<path fill="none" stroke="midnightblue" d="M908.55,-426.47C931.34,-421.2 957.11,-415.24 980.64,-409.8"/>
<polygon fill="midnightblue" stroke="midnightblue" points="981.62,-413.17 990.58,-407.51 980.04,-406.35 981.62,-413.17"/>
</g>
<!-- Node18&#45;&gt;Node14 -->
<g id="edge21" class="edge">
<title>Node18&#45;&gt;Node14</title>
<path fill="none" stroke="midnightblue" d="M911.16,-392.5C932.7,-392.5 956.69,-392.5 978.82,-392.5"/>
<polygon fill="midnightblue" stroke="midnightblue" points="978.84,-396 988.84,-392.5 978.84,-389 978.84,-396"/>
</g>
<!-- Node21 -->
<g id="node21" class="node">
<title>Node21</title>
<g id="a_node21"><a xlink:href="classdenoptim_1_1fragspace_1_1_fragment_space.html#ada04f68d55f8ff85345e2a6c6d1ad840" target="_top" xlink:title="Returns a list of APClasses compatible with the given APClass.">
<polygon fill="white" stroke="black" points="763.5,-145.5 763.5,-175.5 921.5,-175.5 921.5,-145.5 763.5,-145.5"/>
<text text-anchor="start" x="771.5" y="-163.5" font-family="Helvetica,sans-Serif" font-size="10.00">denoptim.fragspace.Fragment</text>
<text text-anchor="middle" x="842.5" y="-152.5" font-family="Helvetica,sans-Serif" font-size="10.00">Space.getCompatibleAPClasses</text>
</a>
</g>
</g>
<!-- Node20&#45;&gt;Node21 -->
<g id="edge24" class="edge">
<title>Node20&#45;&gt;Node21</title>
<path fill="none" stroke="midnightblue" d="M703.22,-235.42C710.15,-232.63 716.88,-229.35 723,-225.5 743.24,-212.75 738.81,-198.33 759,-185.5 762.32,-183.39 765.82,-181.46 769.44,-179.67"/>
<polygon fill="midnightblue" stroke="midnightblue" points="770.92,-182.84 778.62,-175.56 768.06,-176.45 770.92,-182.84"/>
</g>
<!-- Node24 -->
<g id="node24" class="node">
<title>Node24</title>
<g id="a_node24"><a xlink:href="classdenoptim_1_1programs_1_1_run_time_parameters.html#ad9db6420b91ff13e0a8b2d02402c0242" target="_top" xlink:title="Returns the current program&#45;specific randomizer.">
<polygon fill="white" stroke="black" points="567,-568.5 567,-598.5 707,-598.5 707,-568.5 567,-568.5"/>
<text text-anchor="start" x="575" y="-586.5" font-family="Helvetica,sans-Serif" font-size="10.00">denoptim.programs.RunTime</text>
<text text-anchor="middle" x="637" y="-575.5" font-family="Helvetica,sans-Serif" font-size="10.00">Parameters.getRandomizer</text>
</a>
</g>
</g>
<!-- Node23&#45;&gt;Node24 -->
<g id="edge27" class="edge">
<title>Node23&#45;&gt;Node24</title>
<path fill="none" stroke="midnightblue" d="M502.09,-583.5C519.69,-583.5 538.65,-583.5 556.6,-583.5"/>
<polygon fill="midnightblue" stroke="midnightblue" points="556.75,-587 566.75,-583.5 556.75,-580 556.75,-587"/>
</g>
<!-- Node26 -->
<g id="node26" class="node">
<title>Node26</title>
<g id="a_node26"><a xlink:href="classdenoptim_1_1utils_1_1_randomizer.html#a6949bec32b63f1207da17e0c136a1d58" target="_top" xlink:title="Returns a pseudo&#45;random, uniformly distributed int value between 0 (inclusive) and the specified valu...">
<polygon fill="white" stroke="black" points="556.5,-525 556.5,-544 717.5,-544 717.5,-525 556.5,-525"/>
<text text-anchor="middle" x="637" y="-532" font-family="Helvetica,sans-Serif" font-size="10.00">denoptim.utils.Randomizer.nextInt</text>
</a>
</g>
</g>
<!-- Node25&#45;&gt;Node26 -->
<g id="edge29" class="edge">
<title>Node25&#45;&gt;Node26</title>
<path fill="none" stroke="midnightblue" d="M515.27,-534.5C525.47,-534.5 535.91,-534.5 546.18,-534.5"/>
<polygon fill="midnightblue" stroke="midnightblue" points="546.38,-538 556.38,-534.5 546.38,-531 546.38,-538"/>
</g>
<!-- Node27 -->
<g id="node27" class="node">
<title>Node27</title>
<g id="a_node27"><a xlink:href="classdenoptim_1_1utils_1_1_randomizer.html#a6873dd710cc271ed81bfa45411a62359" target="_top" xlink:title="Returns the random number generator.">
<polygon fill="white" stroke="black" points="759,-563 759,-582 926,-582 926,-563 759,-563"/>
<text text-anchor="middle" x="842.5" y="-570" font-family="Helvetica,sans-Serif" font-size="10.00">denoptim.utils.Randomizer.getRNG</text>
</a>
</g>
</g>
<!-- Node26&#45;&gt;Node27 -->
<g id="edge30" class="edge">
<title>Node26&#45;&gt;Node27</title>
<path fill="none" stroke="midnightblue" d="M689.09,-544.04C716.79,-549.21 751.21,-555.64 780.33,-561.08"/>
<polygon fill="midnightblue" stroke="midnightblue" points="779.92,-564.56 790.39,-562.96 781.2,-557.68 779.92,-564.56"/>
</g>
<!-- Node30 -->
<g id="node30" class="node">
<title>Node30</title>
<g id="a_node30"><a xlink:href="classdenoptim_1_1utils_1_1_randomizer.html#acaa5e386da195d9454fae611ed554c48" target="_top" xlink:title="Utility to debug: writes some log in file &#39;/tmp/rng_debug_log&#39;.">
<polygon fill="white" stroke="black" points="767,-525 767,-544 918,-544 918,-525 767,-525"/>
<text text-anchor="middle" x="842.5" y="-532" font-family="Helvetica,sans-Serif" font-size="10.00">denoptim.utils.Randomizer.print</text>
</a>
</g>
</g>
<!-- Node26&#45;&gt;Node30 -->
<g id="edge33" class="edge">
<title>Node26&#45;&gt;Node30</title>
<path fill="none" stroke="midnightblue" d="M717.55,-534.5C730.4,-534.5 743.73,-534.5 756.69,-534.5"/>
<polygon fill="midnightblue" stroke="midnightblue" points="756.99,-538 766.99,-534.5 756.99,-531 756.99,-538"/>
</g>
<!-- Node28 -->
<g id="node28" class="node">
<title>Node28</title>
<g id="a_node28"><a xlink:href="classdenoptim_1_1utils_1_1_randomizer.html#aaaeda6dedda5664a47a2a9a68194162a" target="_top" xlink:title="Initializes this random number generator (RNG) using a random seed that is generated on&#45;the&#45;fly rando...">
<polygon fill="white" stroke="black" points="962,-563 962,-582 1151,-582 1151,-563 962,-563"/>
<text text-anchor="middle" x="1056.5" y="-570" font-family="Helvetica,sans-Serif" font-size="10.00">denoptim.utils.Randomizer.initialiseRNG</text>
</a>
</g>
</g>
<!-- Node27&#45;&gt;Node28 -->
<g id="edge31" class="edge">
<title>Node27&#45;&gt;Node28</title>
<path fill="none" stroke="midnightblue" d="M926.07,-572.5C934.51,-572.5 943.16,-572.5 951.79,-572.5"/>
<polygon fill="midnightblue" stroke="midnightblue" points="951.89,-576 961.89,-572.5 951.89,-569 951.89,-576"/>
</g>
<!-- Node29 -->
<g id="node29" class="node">
<title>Node29</title>
<g id="a_node29"><a xlink:href="classdenoptim_1_1utils_1_1_randomizer.html#ad74f0608d3e2e10caa8873ae059367a7" target="_top" xlink:title=" ">
<polygon fill="white" stroke="black" points="1187,-563 1187,-582 1377,-582 1377,-563 1187,-563"/>
<text text-anchor="middle" x="1282" y="-570" font-family="Helvetica,sans-Serif" font-size="10.00">denoptim.utils.Randomizer.initialiseSeed</text>
</a>
</g>
</g>
<!-- Node28&#45;&gt;Node29 -->
<g id="edge32" class="edge">
<title>Node28&#45;&gt;Node29</title>
<path fill="none" stroke="midnightblue" d="M1151.31,-572.5C1159.64,-572.5 1168.09,-572.5 1176.5,-572.5"/>
<polygon fill="midnightblue" stroke="midnightblue" points="1176.71,-576 1186.71,-572.5 1176.71,-569 1176.71,-576"/>
</g>
<!-- Node31 -->
<g id="node31" class="node">
<title>Node31</title>
<g id="a_node31"><a xlink:href="classdenoptim_1_1io_1_1_denoptim_i_o.html#adc7de175de66792f4f37f1661c10e7f8" target="_top" xlink:title="Write text&#45;like data file.">
<polygon fill="white" stroke="black" points="974.5,-525 974.5,-544 1138.5,-544 1138.5,-525 974.5,-525"/>
<text text-anchor="middle" x="1056.5" y="-532" font-family="Helvetica,sans-Serif" font-size="10.00">denoptim.io.DenoptimIO.writeData</text>
</a>
</g>
</g>
<!-- Node30&#45;&gt;Node31 -->
<g id="edge34" class="edge">
<title>Node30&#45;&gt;Node31</title>
<path fill="none" stroke="midnightblue" d="M918.24,-534.5C933.11,-534.5 948.87,-534.5 964.22,-534.5"/>
<polygon fill="midnightblue" stroke="midnightblue" points="964.23,-538 974.23,-534.5 964.23,-531 964.23,-538"/>
</g>
<!-- Node32&#45;&gt;Node3 -->
<g id="edge36" class="edge">
<title>Node32&#45;&gt;Node3</title>
<path fill="none" stroke="midnightblue" d="M470.33,-443.56C493.65,-452.08 523.77,-462.58 551,-470.5 560.93,-473.39 571.6,-476.16 581.91,-478.67"/>
<polygon fill="midnightblue" stroke="midnightblue" points="581.12,-482.08 591.66,-480.99 582.74,-475.27 581.12,-482.08"/>
</g>
<!-- Node32&#45;&gt;Node32 -->
<g id="edge37" class="edge">
<title>Node32&#45;&gt;Node32</title>
<path fill="none" stroke="midnightblue" d="M396.74,-443.66C388.84,-453.06 399.76,-462 429.5,-462 447.62,-462 458.76,-458.68 462.91,-453.96"/>
<polygon fill="midnightblue" stroke="midnightblue" points="466.38,-453.42 462.26,-443.66 459.39,-453.86 466.38,-453.42"/>
</g>
</g>
</svg>
