<?xml version="1.0" encoding="UTF-8" standalone="no"?>
<!DOCTYPE svg PUBLIC "-//W3C//DTD SVG 1.1//EN"
 "http://www.w3.org/Graphics/SVG/1.1/DTD/svg11.dtd">
<!-- Generated by graphviz version 3.0.0 (20221109.1736)
 -->
<!-- Title: denoptim.graph.rings.CyclicGraphHandler.evaluateRCVPair Pages: 1 -->
<!--zoomable 340 -->
<svg id="main" version="1.1" xmlns="http://www.w3.org/2000/svg" xmlns:xlink="http://www.w3.org/1999/xlink" xml:space="preserve" onload="init(evt)">
<style type="text/css"><![CDATA[
.edge:hover path { stroke: red; }
.edge:hover polygon { stroke: red; fill: red; }
]]></style>
<script type="text/javascript"><![CDATA[
var edges = document.getElementsByTagName('g');
if (edges && edges.length) {
  for (var i=0;i<edges.length;i++) {
    if (edges[i].id.substr(0,4)=='edge') {
      edges[i].setAttribute('class','edge');
    }
  }
}
]]></script>
        <defs>
                <circle id="rim" cx="0" cy="0" r="7"/>
                <circle id="rim2" cx="0" cy="0" r="3.5"/>
                <g id="zoomPlus">
                        <use xlink:href="#rim" fill="#404040">
                                <set attributeName="fill" to="#808080" begin="zoomplus.mouseover" end="zoomplus.mouseout"/>
                        </use>
                        <path d="M-4,0h8M0,-4v8" fill="none" stroke="white" stroke-width="1.5" pointer-events="none"/>
                </g>
                <g id="zoomMin">
                        <use xlink:href="#rim" fill="#404040">
                                <set attributeName="fill" to="#808080" begin="zoomminus.mouseover" end="zoomminus.mouseout"/>
                        </use>
                        <path d="M-4,0h8" fill="none" stroke="white" stroke-width="1.5" pointer-events="none"/>
                </g>
                <g id="dirArrow">
                        <path fill="none" stroke="white" stroke-width="1.5" d="M0,-3.0v7 M-2.5,-0.5L0,-3.0L2.5,-0.5"/>
                </g>
               <g id="resetDef">
                       <use xlink:href="#rim2" fill="#404040">
                               <set attributeName="fill" to="#808080" begin="reset.mouseover" end="reset.mouseout"/>
                       </use>
               </g>
        </defs>

<script type="text/javascript">
var viewWidth = 709;
var viewHeight = 340;
var sectionId = 'dynsection-14';
</script>
<script xlink:href="svgpan.js"/>
<svg id="graph" class="graph">
<g id="viewport">
<title>denoptim.graph.rings.CyclicGraphHandler.evaluateRCVPair</title>
<polygon fill="white" stroke="transparent" points="-4,4 -4,-336 705,-336 705,4 -4,4"/>
<!-- Node1 -->
<g id="node1" class="node">
<title>Node1</title>
<g id="a_node1"><a xlink:title="Method to analyze a pair of vertices and evaluate whether they respect the criteria for being the two...">
<polygon fill="#bfbfbf" stroke="black" points="0,-191.5 0,-221.5 153,-221.5 153,-191.5 0,-191.5"/>
<text text-anchor="start" x="8" y="-209.5" font-family="Helvetica,sans-Serif" font-size="10.00">denoptim.graph.rings.Cyclic</text>
<text text-anchor="middle" x="76.5" y="-198.5" font-family="Helvetica,sans-Serif" font-size="10.00">GraphHandler.evaluateRCVPair</text>
</a>
</g>
</g>
<!-- Node2 -->
<g id="node2" class="node">
<title>Node2</title>
<g id="a_node2"><a xlink:href="classdenoptim_1_1graph_1_1_attachment_point.html#a7e45846280a63bd2bf36b85e502ffa49" target="_top" xlink:title="The index of the source atom in the atom list of the fragment.">
<polygon fill="white" stroke="black" points="195.5,-301.5 195.5,-331.5 343.5,-331.5 343.5,-301.5 195.5,-301.5"/>
<text text-anchor="start" x="203.5" y="-319.5" font-family="Helvetica,sans-Serif" font-size="10.00">denoptim.graph.Attachment</text>
<text text-anchor="middle" x="269.5" y="-308.5" font-family="Helvetica,sans-Serif" font-size="10.00">Point.getAtomPositionNumber</text>
</a>
</g>
</g>
<!-- Node1&#45;&gt;Node2 -->
<g id="edge1" class="edge">
<title>Node1&#45;&gt;Node2</title>
<path fill="none" stroke="midnightblue" d="M95.46,-221.66C116.72,-239.06 153.71,-267.61 189,-286.5 196.48,-290.5 204.61,-294.22 212.72,-297.58"/>
<polygon fill="midnightblue" stroke="midnightblue" points="211.61,-300.91 222.19,-301.36 214.2,-294.4 211.61,-300.91"/>
</g>
<!-- Node3 -->
<g id="node3" class="node">
<title>Node3</title>
<g id="a_node3"><a xlink:href="classdenoptim_1_1graph_1_1_vertex.html#a85aa901ec3fff8e566c0cc32d9c9f84e" target="_top" xlink:title=" ">
<polygon fill="white" stroke="black" points="573,-213.5 573,-243.5 701,-243.5 701,-213.5 573,-213.5"/>
<text text-anchor="start" x="581" y="-231.5" font-family="Helvetica,sans-Serif" font-size="10.00">denoptim.graph.Vertex.get</text>
<text text-anchor="middle" x="637" y="-220.5" font-family="Helvetica,sans-Serif" font-size="10.00">AttachmentPoints</text>
</a>
</g>
</g>
<!-- Node1&#45;&gt;Node3 -->
<g id="edge2" class="edge">
<title>Node1&#45;&gt;Node3</title>
<path fill="none" stroke="midnightblue" d="M109.88,-221.56C131.72,-230.93 161.46,-242.16 189,-247.5 340.86,-276.93 383.49,-272.58 537,-253.5 550.04,-251.88 563.82,-249.1 576.83,-245.97"/>
<polygon fill="midnightblue" stroke="midnightblue" points="577.75,-249.35 586.6,-243.53 576.05,-242.56 577.75,-249.35"/>
</g>
<!-- Node4 -->
<g id="node4" class="node">
<title>Node4</title>
<g id="a_node4"><a xlink:href="classdenoptim_1_1graph_1_1_vertex.html#a44e705b8949b0fd73763e2e92a118b78" target="_top" xlink:title="Looks into the edges that use any of the APs that belong to this vertex and returns the vertex which ...">
<polygon fill="white" stroke="black" points="205.5,-120.5 205.5,-150.5 333.5,-150.5 333.5,-120.5 205.5,-120.5"/>
<text text-anchor="start" x="213.5" y="-138.5" font-family="Helvetica,sans-Serif" font-size="10.00">denoptim.graph.Vertex.get</text>
<text text-anchor="middle" x="269.5" y="-127.5" font-family="Helvetica,sans-Serif" font-size="10.00">Parent</text>
</a>
</g>
</g>
<!-- Node1&#45;&gt;Node4 -->
<g id="edge3" class="edge">
<title>Node1&#45;&gt;Node4</title>
<path fill="none" stroke="midnightblue" d="M111.85,-191.42C133.75,-182.04 162.82,-170 189,-160.5 195.31,-158.21 201.93,-155.93 208.56,-153.74"/>
<polygon fill="midnightblue" stroke="midnightblue" points="209.81,-157.01 218.24,-150.58 207.64,-150.35 209.81,-157.01"/>
</g>
<!-- Node8 -->
<g id="node8" class="node">
<title>Node8</title>
<g id="a_node8"><a xlink:href="classdenoptim_1_1fragspace_1_1_fragment_space.html#a76a6438c28d260a0f676e22e08cf0dbe" target="_top" xlink:title="Returns the compatibility matrix for ring closing fragment&#45;fragment connections or null if not provid...">
<polygon fill="white" stroke="black" points="192,-169.5 192,-199.5 347,-199.5 347,-169.5 192,-169.5"/>
<text text-anchor="start" x="200" y="-187.5" font-family="Helvetica,sans-Serif" font-size="10.00">denoptim.fragspace.Fragment</text>
<text text-anchor="middle" x="269.5" y="-176.5" font-family="Helvetica,sans-Serif" font-size="10.00">Space.getRCCompatibilityMatrix</text>
</a>
</g>
</g>
<!-- Node1&#45;&gt;Node8 -->
<g id="edge8" class="edge">
<title>Node1&#45;&gt;Node8</title>
<path fill="none" stroke="midnightblue" d="M153.26,-197.77C162.59,-196.7 172.19,-195.59 181.67,-194.5"/>
<polygon fill="midnightblue" stroke="midnightblue" points="182.36,-197.95 191.89,-193.32 181.56,-190.99 182.36,-197.95"/>
</g>
<!-- Node9 -->
<g id="node9" class="node">
<title>Node9</title>
<g id="a_node9"><a xlink:href="classdenoptim_1_1graph_1_1_edge.html#a79f950d1cffe6e323eadc8cd36079841" target="_top" xlink:title=" ">
<polygon fill="white" stroke="black" points="201,-36.5 201,-66.5 338,-66.5 338,-36.5 201,-36.5"/>
<text text-anchor="start" x="209" y="-54.5" font-family="Helvetica,sans-Serif" font-size="10.00">denoptim.graph.Edge.getSrc</text>
<text text-anchor="middle" x="269.5" y="-43.5" font-family="Helvetica,sans-Serif" font-size="10.00">APClass</text>
</a>
</g>
</g>
<!-- Node1&#45;&gt;Node9 -->
<g id="edge9" class="edge">
<title>Node1&#45;&gt;Node9</title>
<path fill="none" stroke="midnightblue" d="M94.62,-191.37C116.28,-172.35 154.88,-138.87 189,-111.5 205.5,-98.26 224.39,-83.97 239.61,-72.66"/>
<polygon fill="midnightblue" stroke="midnightblue" points="241.7,-75.47 247.65,-66.71 237.53,-69.85 241.7,-75.47"/>
</g>
<!-- Node11 -->
<g id="node11" class="node">
<title>Node11</title>
<g id="a_node11"><a xlink:href="classdenoptim_1_1graph_1_1_edge.html#a9696d3ee0d321b73b06d33bcb8fa86fd" target="_top" xlink:title=" ">
<polygon fill="white" stroke="black" points="189,-219 189,-238 350,-238 350,-219 189,-219"/>
<text text-anchor="middle" x="269.5" y="-226" font-family="Helvetica,sans-Serif" font-size="10.00">denoptim.graph.Edge.getSrcAPID</text>
</a>
</g>
</g>
<!-- Node1&#45;&gt;Node11 -->
<g id="edge11" class="edge">
<title>Node1&#45;&gt;Node11</title>
<path fill="none" stroke="midnightblue" d="M153.26,-215.23C161.65,-216.19 170.24,-217.18 178.78,-218.17"/>
<polygon fill="midnightblue" stroke="midnightblue" points="178.42,-221.65 188.75,-219.31 179.22,-214.69 178.42,-221.65"/>
</g>
<!-- Node4&#45;&gt;Node3 -->
<g id="edge4" class="edge">
<title>Node4&#45;&gt;Node3</title>
<path fill="none" stroke="midnightblue" d="M294.1,-120.33C342.5,-91.31 455.34,-34.55 537,-78.5 586.51,-105.15 615.38,-168.61 628.13,-203.85"/>
<polygon fill="midnightblue" stroke="midnightblue" points="624.85,-205.1 631.44,-213.4 631.47,-202.8 624.85,-205.1"/>
</g>
<!-- Node5 -->
<g id="node5" class="node">
<title>Node5</title>
<g id="a_node5"><a xlink:href="classdenoptim_1_1graph_1_1_attachment_point.html#ac8551521d38644f5109800b665957ee9" target="_top" xlink:title=" ">
<polygon fill="white" stroke="black" points="394,-164.5 394,-194.5 529,-194.5 529,-164.5 394,-164.5"/>
<text text-anchor="start" x="402" y="-182.5" font-family="Helvetica,sans-Serif" font-size="10.00">denoptim.graph.Attachment</text>
<text text-anchor="middle" x="461.5" y="-171.5" font-family="Helvetica,sans-Serif" font-size="10.00">Point.getOwner</text>
</a>
</g>
</g>
<!-- Node4&#45;&gt;Node5 -->
<g id="edge5" class="edge">
<title>Node4&#45;&gt;Node5</title>
<path fill="none" stroke="midnightblue" d="M333.5,-150.09C350.21,-153.96 368.41,-158.17 385.68,-162.17"/>
<polygon fill="midnightblue" stroke="midnightblue" points="385.19,-165.65 395.72,-164.5 386.76,-158.83 385.19,-165.65"/>
</g>
<!-- Node6 -->
<g id="node6" class="node">
<title>Node6</title>
<g id="a_node6"><a xlink:href="classdenoptim_1_1graph_1_1_edge.html#a658e275a18a50f12474777f5f28c35e9" target="_top" xlink:title=" ">
<polygon fill="white" stroke="black" points="386,-88 386,-107 537,-107 537,-88 386,-88"/>
<text text-anchor="middle" x="461.5" y="-95" font-family="Helvetica,sans-Serif" font-size="10.00">denoptim.graph.Edge.getSrcAP</text>
</a>
</g>
</g>
<!-- Node4&#45;&gt;Node6 -->
<g id="edge6" class="edge">
<title>Node4&#45;&gt;Node6</title>
<path fill="none" stroke="midnightblue" d="M333.5,-122.9C355.89,-118.42 380.96,-113.41 402.88,-109.02"/>
<polygon fill="midnightblue" stroke="midnightblue" points="403.59,-112.45 412.71,-107.06 402.21,-105.59 403.59,-112.45"/>
</g>
<!-- Node7 -->
<g id="node7" class="node">
<title>Node7</title>
<g id="a_node7"><a xlink:href="classdenoptim_1_1graph_1_1_edge.html#a44521a3ad1a83e5d0a6be227e35ceffa" target="_top" xlink:title=" ">
<polygon fill="white" stroke="black" points="386.5,-126 386.5,-145 536.5,-145 536.5,-126 386.5,-126"/>
<text text-anchor="middle" x="461.5" y="-133" font-family="Helvetica,sans-Serif" font-size="10.00">denoptim.graph.Edge.getTrgAP</text>
</a>
</g>
</g>
<!-- Node4&#45;&gt;Node7 -->
<g id="edge7" class="edge">
<title>Node4&#45;&gt;Node7</title>
<path fill="none" stroke="midnightblue" d="M333.5,-135.5C347.15,-135.5 361.79,-135.5 376.11,-135.5"/>
<polygon fill="midnightblue" stroke="midnightblue" points="376.46,-139 386.46,-135.5 376.46,-132 376.46,-139"/>
</g>
<!-- Node10 -->
<g id="node10" class="node">
<title>Node10</title>
<g id="a_node10"><a xlink:href="classdenoptim_1_1graph_1_1_attachment_point.html#a31bed4cb29f6437bf8a888a1dda3fd95" target="_top" xlink:title="Returns the Attachment Point class.">
<polygon fill="white" stroke="black" points="394,-0.5 394,-30.5 529,-30.5 529,-0.5 394,-0.5"/>
<text text-anchor="start" x="402" y="-18.5" font-family="Helvetica,sans-Serif" font-size="10.00">denoptim.graph.Attachment</text>
<text text-anchor="middle" x="461.5" y="-7.5" font-family="Helvetica,sans-Serif" font-size="10.00">Point.getAPClass</text>
</a>
</g>
</g>
<!-- Node9&#45;&gt;Node10 -->
<g id="edge10" class="edge">
<title>Node9&#45;&gt;Node10</title>
<path fill="none" stroke="midnightblue" d="M338.02,-38.71C352.9,-35.89 368.75,-32.88 383.96,-30"/>
<polygon fill="midnightblue" stroke="midnightblue" points="384.66,-33.43 393.83,-28.13 383.36,-26.55 384.66,-33.43"/>
</g>
<!-- Node11&#45;&gt;Node5 -->
<g id="edge14" class="edge">
<title>Node11&#45;&gt;Node5</title>
<path fill="none" stroke="midnightblue" d="M311.41,-218.97C323.82,-216.02 337.49,-212.69 350,-209.5 365.09,-205.65 381.29,-201.35 396.51,-197.23"/>
<polygon fill="midnightblue" stroke="midnightblue" points="397.62,-200.55 406.35,-194.56 395.78,-193.8 397.62,-200.55"/>
</g>
<!-- Node12 -->
<g id="node12" class="node">
<title>Node12</title>
<g id="a_node12"><a xlink:href="classdenoptim_1_1graph_1_1_vertex.html#a367c9d31e4bb13c16e865389c154a767" target="_top" xlink:title="Returns the position of the given AP in the list of APs of this vertex.">
<polygon fill="white" stroke="black" points="397.5,-213.5 397.5,-243.5 525.5,-243.5 525.5,-213.5 397.5,-213.5"/>
<text text-anchor="start" x="405.5" y="-231.5" font-family="Helvetica,sans-Serif" font-size="10.00">denoptim.graph.Vertex.get</text>
<text text-anchor="middle" x="461.5" y="-220.5" font-family="Helvetica,sans-Serif" font-size="10.00">IndexOfAP</text>
</a>
</g>
</g>
<!-- Node11&#45;&gt;Node12 -->
<g id="edge12" class="edge">
<title>Node11&#45;&gt;Node12</title>
<path fill="none" stroke="midnightblue" d="M350.25,-228.5C362.55,-228.5 375.2,-228.5 387.34,-228.5"/>
<polygon fill="midnightblue" stroke="midnightblue" points="387.4,-232 397.4,-228.5 387.4,-225 387.4,-232"/>
</g>
<!-- Node12&#45;&gt;Node3 -->
<g id="edge13" class="edge">
<title>Node12&#45;&gt;Node3</title>
<path fill="none" stroke="midnightblue" d="M525.63,-228.5C537.66,-228.5 550.36,-228.5 562.68,-228.5"/>
<polygon fill="midnightblue" stroke="midnightblue" points="562.92,-232 572.92,-228.5 562.92,-225 562.92,-232"/>
</g>
</g>
</svg>
        <g id="navigator" transform="translate(0 0)" fill="#404254">
                <rect fill="#f2f5e9" fill-opacity="0.5" stroke="#606060" stroke-width=".5" x="0" y="0" width="60" height="60"/>
                <use id="zoomplus" xlink:href="#zoomPlus" x="17" y="9" onmousedown="handleZoom(evt,'in')"/>
                <use id="zoomminus" xlink:href="#zoomMin" x="42" y="9" onmousedown="handleZoom(evt,'out')"/>
                <use id="reset" xlink:href="#resetDef" x="30" y="36" onmousedown="handleReset()"/>
                <g id="arrowUp" xlink:href="#dirArrow" transform="translate(30 24)" onmousedown="handlePan(0,-1)">
                  <use xlink:href="#rim" fill="#404040">
                        <set attributeName="fill" to="#808080" begin="arrowUp.mouseover" end="arrowUp.mouseout"/>
                  </use>
                  <path fill="none" stroke="white" stroke-width="1.5" d="M0,-3.0v7 M-2.5,-0.5L0,-3.0L2.5,-0.5"/>
                </g>
                <g id="arrowRight" xlink:href="#dirArrow" transform="rotate(90) translate(36 -43)" onmousedown="handlePan(1,0)">
                  <use xlink:href="#rim" fill="#404040">
                        <set attributeName="fill" to="#808080" begin="arrowRight.mouseover" end="arrowRight.mouseout"/>
                  </use>
                  <path fill="none" stroke="white" stroke-width="1.5" d="M0,-3.0v7 M-2.5,-0.5L0,-3.0L2.5,-0.5"/>
                </g>
                <g id="arrowDown" xlink:href="#dirArrow" transform="rotate(180) translate(-30 -48)" onmousedown="handlePan(0,1)">
                  <use xlink:href="#rim" fill="#404040">
                        <set attributeName="fill" to="#808080" begin="arrowDown.mouseover" end="arrowDown.mouseout"/>
                  </use>
                  <path fill="none" stroke="white" stroke-width="1.5" d="M0,-3.0v7 M-2.5,-0.5L0,-3.0L2.5,-0.5"/>
                </g>
                <g id="arrowLeft" xlink:href="#dirArrow" transform="rotate(270) translate(-36 17)" onmousedown="handlePan(-1,0)">
                  <use xlink:href="#rim" fill="#404040">
                        <set attributeName="fill" to="#808080" begin="arrowLeft.mouseover" end="arrowLeft.mouseout"/>
                  </use>
                  <path fill="none" stroke="white" stroke-width="1.5" d="M0,-3.0v7 M-2.5,-0.5L0,-3.0L2.5,-0.5"/>
                </g>
        </g>
        <svg viewBox="0 0 15 15" width="100%" height="30px" preserveAspectRatio="xMaxYMin meet">
         <g id="arrow_out" transform="scale(0.3 0.3)">
          <a xlink:href="classdenoptim_1_1graph_1_1rings_1_1_cyclic_graph_handler_a8dcec9483dc562e8696ea90a65842327_cgraph_org.svg" target="_base">
           <rect id="button" ry="5" rx="5" y="6" x="6" height="38" width="38"
                fill="#f2f5e9" fill-opacity="0.5" stroke="#606060" stroke-width="1.0"/>
           <path id="arrow"
             d="M 11.500037,31.436501 C 11.940474,20.09759 22.043105,11.32322 32.158766,21.979434 L 37.068811,17.246167 C 37.068811,17.246167 37.088388,32 37.088388,32 L 22.160133,31.978069 C 22.160133,31.978069 26.997745,27.140456 26.997745,27.140456 C 18.528582,18.264221 13.291696,25.230495 11.500037,31.436501 z"
             style="fill:#404040;"/>
          </a>
         </g>
        </svg>
</svg>
