<?xml version="1.0" encoding="UTF-8" standalone="no"?>
<!DOCTYPE svg PUBLIC "-//W3C//DTD SVG 1.1//EN"
 "http://www.w3.org/Graphics/SVG/1.1/DTD/svg11.dtd">
<!-- Generated by graphviz version 3.0.0 (20221109.1736)
 -->
<!-- Title: denoptim.graph.DGraph.getSymmetricSetCount Pages: 1 -->
<svg width="985pt" height="785pt"
 viewBox="0.00 0.00 985.00 785.00" xmlns="http://www.w3.org/2000/svg" xmlns:xlink="http://www.w3.org/1999/xlink">
<g id="graph0" class="graph" transform="scale(1 1) rotate(0) translate(4 781)">
<title>denoptim.graph.DGraph.getSymmetricSetCount</title>
<polygon fill="white" stroke="transparent" points="-4,4 -4,-781 981,-781 981,4 -4,4"/>
<!-- Node1 -->
<g id="node1" class="node">
<title>Node1</title>
<g id="a_node1"><a xlink:title="Returns the number of symmetric sets of vertices.">
<polygon fill="#bfbfbf" stroke="black" points="843,-239.5 843,-269.5 977,-269.5 977,-239.5 843,-239.5"/>
<text text-anchor="start" x="851" y="-257.5" font-family="Helvetica,sans-Serif" font-size="10.00">denoptim.graph.DGraph.get</text>
<text text-anchor="middle" x="910" y="-246.5" font-family="Helvetica,sans-Serif" font-size="10.00">SymmetricSetCount</text>
</a>
</g>
</g>
<!-- Node2 -->
<g id="node2" class="node">
<title>Node2</title>
<g id="a_node2"><a xlink:href="classdenoptim_1_1graph_1_1_d_graph.html#a956d0e807af7dbbad5267138e35cdb3d" target="_top" xlink:title="Compare this and another graph ignoring the vertex IDs.">
<polygon fill="white" stroke="black" points="627,-463 627,-482 783,-482 783,-463 627,-463"/>
<text text-anchor="middle" x="705" y="-470" font-family="Helvetica,sans-Serif" font-size="10.00">denoptim.graph.DGraph.sameAs</text>
</a>
</g>
</g>
<!-- Node1&#45;&gt;Node2 -->
<g id="edge1" class="edge">
<title>Node1&#45;&gt;Node2</title>
<path fill="none" stroke="midnightblue" d="M903.62,-279.38C893.02,-322.01 865.24,-408.66 807,-452.5 799.86,-457.88 791.66,-461.91 783.08,-464.93"/>
<polygon fill="midnightblue" stroke="midnightblue" points="907.05,-280.08 905.95,-269.54 900.23,-278.46 907.05,-280.08"/>
</g>
<!-- Node18 -->
<g id="node18" class="node">
<title>Node18</title>
<g id="a_node18"><a xlink:href="classdenoptim_1_1graph_1_1_d_graph_test.html#ad372c95de212882f1c7b64adb4b760ea" target="_top" xlink:title=" ">
<polygon fill="white" stroke="black" points="627,-413.5 627,-443.5 783,-443.5 783,-413.5 627,-413.5"/>
<text text-anchor="start" x="635" y="-431.5" font-family="Helvetica,sans-Serif" font-size="10.00">denoptim.graph.DGraphTest.test</text>
<text text-anchor="middle" x="705" y="-420.5" font-family="Helvetica,sans-Serif" font-size="10.00">Clone</text>
</a>
</g>
</g>
<!-- Node1&#45;&gt;Node18 -->
<g id="edge17" class="edge">
<title>Node1&#45;&gt;Node18</title>
<path fill="none" stroke="midnightblue" d="M898.81,-279.43C883.8,-312.94 852.52,-371.92 807,-403.5 799.73,-408.55 791.54,-412.58 783.05,-415.79"/>
<polygon fill="midnightblue" stroke="midnightblue" points="902.17,-280.48 902.94,-269.91 895.75,-277.69 902.17,-280.48"/>
</g>
<!-- Node19 -->
<g id="node19" class="node">
<title>Node19</title>
<g id="a_node19"><a xlink:href="classdenoptim_1_1graph_1_1_d_graph_test.html#a88c2fd8a1b401d9aa25bf85869bc28c7" target="_top" xlink:title=" ">
<polygon fill="white" stroke="black" points="603,-364.5 603,-394.5 807,-394.5 807,-364.5 603,-364.5"/>
<text text-anchor="start" x="611" y="-382.5" font-family="Helvetica,sans-Serif" font-size="10.00">denoptim.graph.DGraphTest.test</text>
<text text-anchor="middle" x="705" y="-371.5" font-family="Helvetica,sans-Serif" font-size="10.00">ConvertSymmetricLabelsToSymmetricSets</text>
</a>
</g>
</g>
<!-- Node1&#45;&gt;Node19 -->
<g id="edge18" class="edge">
<title>Node1&#45;&gt;Node19</title>
<path fill="none" stroke="midnightblue" d="M891.76,-277.47C873.3,-300.42 841.91,-335.02 807,-354.5 800.06,-358.37 792.52,-361.65 784.8,-364.43"/>
<polygon fill="midnightblue" stroke="midnightblue" points="894.53,-279.61 897.96,-269.59 889.02,-275.28 894.53,-279.61"/>
</g>
<!-- Node20 -->
<g id="node20" class="node">
<title>Node20</title>
<g id="a_node20"><a xlink:href="classdenoptim_1_1graph_1_1_d_graph_test.html#a05b87ffb43b9710fcea83b0777654e27" target="_top" xlink:title=" ">
<polygon fill="white" stroke="black" points="627,-315.5 627,-345.5 783,-345.5 783,-315.5 627,-315.5"/>
<text text-anchor="start" x="635" y="-333.5" font-family="Helvetica,sans-Serif" font-size="10.00">denoptim.graph.DGraphTest.test</text>
<text text-anchor="middle" x="705" y="-322.5" font-family="Helvetica,sans-Serif" font-size="10.00">DetectSymVertexSets</text>
</a>
</g>
</g>
<!-- Node1&#45;&gt;Node20 -->
<g id="edge19" class="edge">
<title>Node1&#45;&gt;Node20</title>
<path fill="none" stroke="midnightblue" d="M873.87,-274.49C854.59,-284.83 829.99,-297.03 807,-305.5 796.92,-309.22 786.06,-312.56 775.34,-315.49"/>
<polygon fill="midnightblue" stroke="midnightblue" points="875.76,-277.44 882.87,-269.58 872.42,-271.29 875.76,-277.44"/>
</g>
<!-- Node21 -->
<g id="node21" class="node">
<title>Node21</title>
<g id="a_node21"><a xlink:href="classdenoptim_1_1graph_1_1_d_graph_test.html#a6b4a7a889a0e36c8b2dc97bcd8055c9e" target="_top" xlink:title=" ">
<polygon fill="white" stroke="black" points="627,-266.5 627,-296.5 783,-296.5 783,-266.5 627,-266.5"/>
<text text-anchor="start" x="635" y="-284.5" font-family="Helvetica,sans-Serif" font-size="10.00">denoptim.graph.DGraphTest.test</text>
<text text-anchor="middle" x="705" y="-273.5" font-family="Helvetica,sans-Serif" font-size="10.00">ExtractSubgraph</text>
</a>
</g>
</g>
<!-- Node1&#45;&gt;Node21 -->
<g id="edge20" class="edge">
<title>Node1&#45;&gt;Node21</title>
<path fill="none" stroke="midnightblue" d="M832.81,-264.63C816.54,-266.8 799.34,-269.09 783.04,-271.25"/>
<polygon fill="midnightblue" stroke="midnightblue" points="833.36,-268.09 842.81,-263.3 832.44,-261.15 833.36,-268.09"/>
</g>
<!-- Node22 -->
<g id="node22" class="node">
<title>Node22</title>
<g id="a_node22"><a xlink:href="classdenoptim_1_1ga_1_1_e_a_utils_test.html#a85f73c095ad2eb848d44d9cff6de5f5d" target="_top" xlink:title=" ">
<polygon fill="white" stroke="black" points="616,-207 616,-248 794,-248 794,-207 616,-207"/>
<text text-anchor="start" x="624" y="-236" font-family="Helvetica,sans-Serif" font-size="10.00">denoptim.ga.EAUtilsTest.test</text>
<text text-anchor="start" x="624" y="-225" font-family="Helvetica,sans-Serif" font-size="10.00">MakeGraphFromFragmentationOfMol</text>
<text text-anchor="middle" x="705" y="-214" font-family="Helvetica,sans-Serif" font-size="10.00">_Symmetry</text>
</a>
</g>
</g>
<!-- Node1&#45;&gt;Node22 -->
<g id="edge21" class="edge">
<title>Node1&#45;&gt;Node22</title>
<path fill="none" stroke="midnightblue" d="M832.85,-244.37C820.26,-242.7 807.11,-240.95 794.25,-239.24"/>
<polygon fill="midnightblue" stroke="midnightblue" points="832.44,-247.85 842.81,-245.7 833.36,-240.91 832.44,-247.85"/>
</g>
<!-- Node23 -->
<g id="node23" class="node">
<title>Node23</title>
<g id="a_node23"><a xlink:href="classdenoptim_1_1ga_1_1_e_a_utils_test.html#a69668d1501ae274745b223d93feae166" target="_top" xlink:title="Test the detection of &quot;some&quot; symmetry.">
<polygon fill="white" stroke="black" points="616,-147 616,-188 794,-188 794,-147 616,-147"/>
<text text-anchor="start" x="624" y="-176" font-family="Helvetica,sans-Serif" font-size="10.00">denoptim.ga.EAUtilsTest.test</text>
<text text-anchor="start" x="624" y="-165" font-family="Helvetica,sans-Serif" font-size="10.00">MakeGraphFromFragmentationOfMol</text>
<text text-anchor="middle" x="705" y="-154" font-family="Helvetica,sans-Serif" font-size="10.00">_symmetry</text>
</a>
</g>
</g>
<!-- Node1&#45;&gt;Node23 -->
<g id="edge22" class="edge">
<title>Node1&#45;&gt;Node23</title>
<path fill="none" stroke="midnightblue" d="M876.89,-234.14C857.25,-222.31 831.31,-207.76 807,-197.5 798.99,-194.12 790.48,-190.97 781.93,-188.06"/>
<polygon fill="midnightblue" stroke="midnightblue" points="875.08,-237.13 885.44,-239.36 878.73,-231.16 875.08,-237.13"/>
</g>
<!-- Node24 -->
<g id="node24" class="node">
<title>Node24</title>
<g id="a_node24"><a xlink:href="classdenoptim_1_1graph_1_1_d_graph_test.html#a337ce2733050aa5d37cec418eb7d9081" target="_top" xlink:title=" ">
<polygon fill="white" stroke="black" points="627,-98.5 627,-128.5 783,-128.5 783,-98.5 627,-98.5"/>
<text text-anchor="start" x="635" y="-116.5" font-family="Helvetica,sans-Serif" font-size="10.00">denoptim.graph.DGraphTest.test</text>
<text text-anchor="middle" x="705" y="-105.5" font-family="Helvetica,sans-Serif" font-size="10.00">RemoveVertex</text>
</a>
</g>
</g>
<!-- Node1&#45;&gt;Node24 -->
<g id="edge23" class="edge">
<title>Node1&#45;&gt;Node24</title>
<path fill="none" stroke="midnightblue" d="M894.64,-230.48C877.29,-203.61 845.58,-160.81 807,-137.5 799.6,-133.03 791.42,-129.39 783.02,-126.42"/>
<polygon fill="midnightblue" stroke="midnightblue" points="891.88,-232.66 900.16,-239.26 897.8,-228.93 891.88,-232.66"/>
</g>
<!-- Node25 -->
<g id="node25" class="node">
<title>Node25</title>
<g id="a_node25"><a xlink:href="classdenoptim_1_1graph_1_1_d_graph_test.html#a83a9624ea5dc6a2c515407b865b62611" target="_top" xlink:title=" ">
<polygon fill="white" stroke="black" points="627,-49.5 627,-79.5 783,-79.5 783,-49.5 627,-49.5"/>
<text text-anchor="start" x="635" y="-67.5" font-family="Helvetica,sans-Serif" font-size="10.00">denoptim.graph.DGraphTest.test</text>
<text text-anchor="middle" x="705" y="-56.5" font-family="Helvetica,sans-Serif" font-size="10.00">ReplaceSubGraph</text>
</a>
</g>
</g>
<!-- Node1&#45;&gt;Node25 -->
<g id="edge24" class="edge">
<title>Node1&#45;&gt;Node25</title>
<path fill="none" stroke="midnightblue" d="M900.84,-229.89C887.35,-193.19 856.84,-124.58 807,-88.5 799.77,-83.27 791.57,-79.16 783.03,-75.94"/>
<polygon fill="midnightblue" stroke="midnightblue" points="897.55,-231.09 904.19,-239.35 904.14,-228.75 897.55,-231.09"/>
</g>
<!-- Node26 -->
<g id="node26" class="node">
<title>Node26</title>
<g id="a_node26"><a xlink:href="classdenoptim_1_1graph_1_1_d_graph_test.html#a3b99d7012da487a88acf937e3c9f5ea4" target="_top" xlink:title=" ">
<polygon fill="white" stroke="black" points="627,-0.5 627,-30.5 783,-30.5 783,-0.5 627,-0.5"/>
<text text-anchor="start" x="635" y="-18.5" font-family="Helvetica,sans-Serif" font-size="10.00">denoptim.graph.DGraphTest.test</text>
<text text-anchor="middle" x="705" y="-7.5" font-family="Helvetica,sans-Serif" font-size="10.00">ReplaceVertex</text>
</a>
</g>
</g>
<!-- Node1&#45;&gt;Node26 -->
<g id="edge25" class="edge">
<title>Node1&#45;&gt;Node26</title>
<path fill="none" stroke="midnightblue" d="M904.43,-229.35C894.84,-184.11 868.24,-89.08 807,-39.5 799.93,-33.77 791.71,-29.37 783.08,-26"/>
<polygon fill="midnightblue" stroke="midnightblue" points="901.01,-230.11 906.42,-239.23 907.88,-228.73 901.01,-230.11"/>
</g>
<!-- Node3 -->
<g id="node3" class="node">
<title>Node3</title>
<g id="a_node3"><a xlink:href="classdenoptim_1_1ga_1_1_population.html#a31b74cc5407c42fa3a4214029fb08190" target="_top" xlink:title="Returns a list of population members that can do crossover with the specified member.">
<polygon fill="white" stroke="black" points="399.5,-702.5 399.5,-732.5 532.5,-732.5 532.5,-702.5 399.5,-702.5"/>
<text text-anchor="start" x="407.5" y="-720.5" font-family="Helvetica,sans-Serif" font-size="10.00">denoptim.ga.Population.get</text>
<text text-anchor="middle" x="466" y="-709.5" font-family="Helvetica,sans-Serif" font-size="10.00">XoverPartners</text>
</a>
</g>
</g>
<!-- Node2&#45;&gt;Node3 -->
<g id="edge2" class="edge">
<title>Node2&#45;&gt;Node3</title>
<path fill="none" stroke="midnightblue" d="M697.72,-491.98C682.65,-535.43 640.2,-640.61 567,-693.5 556.87,-700.82 544.8,-705.93 532.62,-709.49"/>
<polygon fill="midnightblue" stroke="midnightblue" points="701.09,-492.92 700.96,-482.33 694.46,-490.69 701.09,-492.92"/>
</g>
<!-- Node8 -->
<g id="node8" class="node">
<title>Node8</title>
<g id="a_node8"><a xlink:href="classdenoptim_1_1ga_1_1_e_a_utils_test.html#ad4662f1a3a989020f953f7034d7c1beb" target="_top" xlink:title="NB: the graphs from methods getPairOfTestGraphsB() and getPairOfTestGraphsBxo() and &#160;&#160;getPairOfTestGr...">
<polygon fill="white" stroke="black" points="389.5,-653.5 389.5,-683.5 542.5,-683.5 542.5,-653.5 389.5,-653.5"/>
<text text-anchor="start" x="397.5" y="-671.5" font-family="Helvetica,sans-Serif" font-size="10.00">denoptim.ga.EAUtilsTest.test</text>
<text text-anchor="middle" x="466" y="-660.5" font-family="Helvetica,sans-Serif" font-size="10.00">BuildByXOver_Embedded_Free</text>
</a>
</g>
</g>
<!-- Node2&#45;&gt;Node8 -->
<g id="edge7" class="edge">
<title>Node2&#45;&gt;Node8</title>
<path fill="none" stroke="midnightblue" d="M694.41,-491.3C675.26,-526.84 628.79,-603.88 567,-643.5 559.54,-648.28 551.23,-652.15 542.67,-655.28"/>
<polygon fill="midnightblue" stroke="midnightblue" points="697.71,-492.54 699.27,-482.06 691.51,-489.28 697.71,-492.54"/>
</g>
<!-- Node9 -->
<g id="node9" class="node">
<title>Node9</title>
<g id="a_node9"><a xlink:href="classdenoptim_1_1ga_1_1_e_a_utils_test.html#af8cfc323dd7d12090ddf4b836a3349cf" target="_top" xlink:title="NB: the graphs from methods getPairOfTestGraphsB() and getPairOfTestGraphsBxo() and &#160;&#160;getPairOfTestGr...">
<polygon fill="white" stroke="black" points="365,-604.5 365,-634.5 567,-634.5 567,-604.5 365,-604.5"/>
<text text-anchor="start" x="373" y="-622.5" font-family="Helvetica,sans-Serif" font-size="10.00">denoptim.ga.EAUtilsTest.test</text>
<text text-anchor="middle" x="466" y="-611.5" font-family="Helvetica,sans-Serif" font-size="10.00">BuildByXOver_Embedded_FreeBackwards</text>
</a>
</g>
</g>
<!-- Node2&#45;&gt;Node9 -->
<g id="edge8" class="edge">
<title>Node2&#45;&gt;Node9</title>
<path fill="none" stroke="midnightblue" d="M689.57,-489.88C666.49,-516.53 618.58,-567.24 567,-594.5 559.64,-598.39 551.66,-601.69 543.52,-604.49"/>
<polygon fill="midnightblue" stroke="midnightblue" points="692.35,-492.02 696.16,-482.14 687.02,-487.48 692.35,-492.02"/>
</g>
<!-- Node10 -->
<g id="node10" class="node">
<title>Node10</title>
<g id="a_node10"><a xlink:href="classdenoptim_1_1graph_1_1_d_graph_test.html#af7cca36ac677cae488ebd9a866061ba1" target="_top" xlink:title=" ">
<polygon fill="white" stroke="black" points="388,-555.5 388,-585.5 544,-585.5 544,-555.5 388,-555.5"/>
<text text-anchor="start" x="396" y="-573.5" font-family="Helvetica,sans-Serif" font-size="10.00">denoptim.graph.DGraphTest.test</text>
<text text-anchor="middle" x="466" y="-562.5" font-family="Helvetica,sans-Serif" font-size="10.00">SameAs_DiffRings</text>
</a>
</g>
</g>
<!-- Node2&#45;&gt;Node10 -->
<g id="edge9" class="edge">
<title>Node2&#45;&gt;Node10</title>
<path fill="none" stroke="midnightblue" d="M680.34,-487.42C653.68,-503.67 608.63,-529.49 567,-545.5 557.31,-549.23 546.88,-552.55 536.54,-555.46"/>
<polygon fill="midnightblue" stroke="midnightblue" points="682.29,-490.33 688.97,-482.1 678.62,-484.37 682.29,-490.33"/>
</g>
<!-- Node11 -->
<g id="node11" class="node">
<title>Node11</title>
<g id="a_node11"><a xlink:href="classdenoptim_1_1graph_1_1_d_graph_test.html#a64805f4f059b37a9be325ce5ac8374ce" target="_top" xlink:title=" ">
<polygon fill="white" stroke="black" points="388,-506.5 388,-536.5 544,-536.5 544,-506.5 388,-506.5"/>
<text text-anchor="start" x="396" y="-524.5" font-family="Helvetica,sans-Serif" font-size="10.00">denoptim.graph.DGraphTest.test</text>
<text text-anchor="middle" x="466" y="-513.5" font-family="Helvetica,sans-Serif" font-size="10.00">SameAs_DiffSymmSet</text>
</a>
</g>
</g>
<!-- Node2&#45;&gt;Node11 -->
<g id="edge10" class="edge">
<title>Node2&#45;&gt;Node11</title>
<path fill="none" stroke="midnightblue" d="M647.86,-484.11C615.57,-490.78 574.65,-499.24 539.9,-506.43"/>
<polygon fill="midnightblue" stroke="midnightblue" points="648.94,-487.46 658.02,-482.01 647.52,-480.6 648.94,-487.46"/>
</g>
<!-- Node12 -->
<g id="node12" class="node">
<title>Node12</title>
<g id="a_node12"><a xlink:href="classdenoptim_1_1graph_1_1_d_graph_test.html#a3a00bffb3f72683ef63569ed038fe8e1" target="_top" xlink:title=" ">
<polygon fill="white" stroke="black" points="388,-457.5 388,-487.5 544,-487.5 544,-457.5 388,-457.5"/>
<text text-anchor="start" x="396" y="-475.5" font-family="Helvetica,sans-Serif" font-size="10.00">denoptim.graph.DGraphTest.test</text>
<text text-anchor="middle" x="466" y="-464.5" font-family="Helvetica,sans-Serif" font-size="10.00">SameAs_DiffVertex</text>
</a>
</g>
</g>
<!-- Node2&#45;&gt;Node12 -->
<g id="edge11" class="edge">
<title>Node2&#45;&gt;Node12</title>
<path fill="none" stroke="midnightblue" d="M616.66,-472.5C592.9,-472.5 567.33,-472.5 544.17,-472.5"/>
<polygon fill="midnightblue" stroke="midnightblue" points="616.73,-476 626.73,-472.5 616.73,-469 616.73,-476"/>
</g>
<!-- Node13 -->
<g id="node13" class="node">
<title>Node13</title>
<g id="a_node13"><a xlink:href="classdenoptim_1_1graph_1_1_d_graph_test.html#a3c40acdcc664e0010478429cbb0bb7ac" target="_top" xlink:title=" ">
<polygon fill="white" stroke="black" points="388,-408.5 388,-438.5 544,-438.5 544,-408.5 388,-408.5"/>
<text text-anchor="start" x="396" y="-426.5" font-family="Helvetica,sans-Serif" font-size="10.00">denoptim.graph.DGraphTest.test</text>
<text text-anchor="middle" x="466" y="-415.5" font-family="Helvetica,sans-Serif" font-size="10.00">SameAs_DisorderRings</text>
</a>
</g>
</g>
<!-- Node2&#45;&gt;Node13 -->
<g id="edge12" class="edge">
<title>Node2&#45;&gt;Node13</title>
<path fill="none" stroke="midnightblue" d="M645.25,-461.02C631.39,-458.27 616.67,-455.31 603,-452.5 581.36,-448.05 557.82,-443.08 536.5,-438.52"/>
<polygon fill="midnightblue" stroke="midnightblue" points="644.68,-464.47 655.17,-462.98 646.04,-457.6 644.68,-464.47"/>
</g>
<!-- Node14 -->
<g id="node14" class="node">
<title>Node14</title>
<g id="a_node14"><a xlink:href="classdenoptim_1_1graph_1_1_d_graph_test.html#ae71f1b47a3b17f3589caf6534bff5982" target="_top" xlink:title=" ">
<polygon fill="white" stroke="black" points="388,-359.5 388,-389.5 544,-389.5 544,-359.5 388,-359.5"/>
<text text-anchor="start" x="396" y="-377.5" font-family="Helvetica,sans-Serif" font-size="10.00">denoptim.graph.DGraphTest.test</text>
<text text-anchor="middle" x="466" y="-366.5" font-family="Helvetica,sans-Serif" font-size="10.00">SameAs_Equal</text>
</a>
</g>
</g>
<!-- Node2&#45;&gt;Node14 -->
<g id="edge13" class="edge">
<title>Node2&#45;&gt;Node14</title>
<path fill="none" stroke="midnightblue" d="M617.57,-460.36C612.46,-458.14 607.55,-455.54 603,-452.5 579.02,-436.47 590.66,-415 567,-398.5 560.04,-393.65 552.23,-389.77 544.11,-386.67"/>
<polygon fill="midnightblue" stroke="midnightblue" points="616.38,-463.65 626.97,-463.96 618.88,-457.12 616.38,-463.65"/>
</g>
<!-- Node15 -->
<g id="node15" class="node">
<title>Node15</title>
<g id="a_node15"><a xlink:href="classdenoptim_1_1graph_1_1_d_graph_test.html#ac79cc6d29df4c3b5e6e96643912115f5" target="_top" xlink:title=" ">
<polygon fill="white" stroke="black" points="388,-310.5 388,-340.5 544,-340.5 544,-310.5 388,-310.5"/>
<text text-anchor="start" x="396" y="-328.5" font-family="Helvetica,sans-Serif" font-size="10.00">denoptim.graph.DGraphTest.test</text>
<text text-anchor="middle" x="466" y="-317.5" font-family="Helvetica,sans-Serif" font-size="10.00">SameAs_SameRings</text>
</a>
</g>
</g>
<!-- Node2&#45;&gt;Node15 -->
<g id="edge14" class="edge">
<title>Node2&#45;&gt;Node15</title>
<path fill="none" stroke="midnightblue" d="M617.35,-462.02C612.19,-459.41 607.34,-456.27 603,-452.5 566.38,-420.71 602.97,-382.02 567,-349.5 560.38,-343.51 552.53,-338.95 544.18,-335.48"/>
<polygon fill="midnightblue" stroke="midnightblue" points="616.36,-465.4 626.92,-466.16 619.13,-458.98 616.36,-465.4"/>
</g>
<!-- Node16 -->
<g id="node16" class="node">
<title>Node16</title>
<g id="a_node16"><a xlink:href="classdenoptim_1_1graph_1_1_d_graph_test.html#a2cb527dcac2a1f307d70dfda13965786" target="_top" xlink:title=" ">
<polygon fill="white" stroke="black" points="388,-261.5 388,-291.5 544,-291.5 544,-261.5 388,-261.5"/>
<text text-anchor="start" x="396" y="-279.5" font-family="Helvetica,sans-Serif" font-size="10.00">denoptim.graph.DGraphTest.test</text>
<text text-anchor="middle" x="466" y="-268.5" font-family="Helvetica,sans-Serif" font-size="10.00">SameAs_SameSymmSet</text>
</a>
</g>
</g>
<!-- Node2&#45;&gt;Node16 -->
<g id="edge15" class="edge">
<title>Node2&#45;&gt;Node16</title>
<path fill="none" stroke="midnightblue" d="M617.57,-462.89C612.26,-460.09 607.33,-456.67 603,-452.5 553.01,-404.33 616.02,-349.66 567,-300.5 560.57,-294.05 552.73,-289.22 544.31,-285.62"/>
<polygon fill="midnightblue" stroke="midnightblue" points="616.25,-466.13 626.81,-467.02 619.11,-459.74 616.25,-466.13"/>
</g>
<!-- Node17 -->
<g id="node17" class="node">
<title>Node17</title>
<g id="a_node17"><a xlink:href="classdenoptim_1_1io_1_1_denoptim_i_o_test.html#a716f5e1ae52b617c411ab57cb83ee78a" target="_top" xlink:title=" ">
<polygon fill="white" stroke="black" points="374,-212.5 374,-242.5 558,-242.5 558,-212.5 374,-212.5"/>
<text text-anchor="start" x="382" y="-230.5" font-family="Helvetica,sans-Serif" font-size="10.00">denoptim.io.DenoptimIOTest.test</text>
<text text-anchor="middle" x="466" y="-219.5" font-family="Helvetica,sans-Serif" font-size="10.00">SerializeDeserializeDENOPTIMGraphs</text>
</a>
</g>
</g>
<!-- Node2&#45;&gt;Node17 -->
<g id="edge16" class="edge">
<title>Node2&#45;&gt;Node17</title>
<path fill="none" stroke="midnightblue" d="M617.61,-463.32C612.25,-460.43 607.29,-456.87 603,-452.5 539.42,-387.74 629.28,-317.52 567,-251.5 563.81,-248.12 560.24,-245.18 556.4,-242.63"/>
<polygon fill="midnightblue" stroke="midnightblue" points="616.41,-466.62 626.97,-467.56 619.31,-460.25 616.41,-466.62"/>
</g>
<!-- Node4 -->
<g id="node4" class="node">
<title>Node4</title>
<g id="a_node4"><a xlink:href="classdenoptim_1_1ga_1_1_e_a_utils.html#a45d4e9ec6a308aa73891efa1d501dd5e" target="_top" xlink:title="Perform fitness&#45;based, class&#45;compatible selection of parents that can do crossover operations.">
<polygon fill="white" stroke="black" points="163,-752 163,-771 329,-771 329,-752 163,-752"/>
<text text-anchor="middle" x="246" y="-759" font-family="Helvetica,sans-Serif" font-size="10.00">denoptim.ga.EAUtils.performFBCC</text>
</a>
</g>
</g>
<!-- Node3&#45;&gt;Node4 -->
<g id="edge3" class="edge">
<title>Node3&#45;&gt;Node4</title>
<path fill="none" stroke="midnightblue" d="M389.21,-732.8C357.63,-739.17 321.95,-746.37 294.22,-751.97"/>
<polygon fill="midnightblue" stroke="midnightblue" points="390.19,-736.17 399.3,-730.76 388.8,-729.31 390.19,-736.17"/>
</g>
<!-- Node6 -->
<g id="node6" class="node">
<title>Node6</title>
<g id="a_node6"><a xlink:href="classdenoptim_1_1ga_1_1_population_test.html#a5db0672054a9fc1dbc923310732fdb3a" target="_top" xlink:title=" ">
<polygon fill="white" stroke="black" points="168.5,-702.5 168.5,-732.5 323.5,-732.5 323.5,-702.5 168.5,-702.5"/>
<text text-anchor="start" x="176.5" y="-720.5" font-family="Helvetica,sans-Serif" font-size="10.00">denoptim.ga.PopulationTest.test</text>
<text text-anchor="middle" x="246" y="-709.5" font-family="Helvetica,sans-Serif" font-size="10.00">Clone</text>
</a>
</g>
</g>
<!-- Node3&#45;&gt;Node6 -->
<g id="edge5" class="edge">
<title>Node3&#45;&gt;Node6</title>
<path fill="none" stroke="midnightblue" d="M389.07,-717.5C367.9,-717.5 344.89,-717.5 323.68,-717.5"/>
<polygon fill="midnightblue" stroke="midnightblue" points="389.3,-721 399.3,-717.5 389.3,-714 389.3,-721"/>
</g>
<!-- Node7 -->
<g id="node7" class="node">
<title>Node7</title>
<g id="a_node7"><a xlink:href="classdenoptim_1_1ga_1_1_population_test.html#a278212ebff2501b7071d342f9a027599" target="_top" xlink:title=" ">
<polygon fill="white" stroke="black" points="168.5,-653.5 168.5,-683.5 323.5,-683.5 323.5,-653.5 168.5,-653.5"/>
<text text-anchor="start" x="176.5" y="-671.5" font-family="Helvetica,sans-Serif" font-size="10.00">denoptim.ga.PopulationTest.test</text>
<text text-anchor="middle" x="246" y="-660.5" font-family="Helvetica,sans-Serif" font-size="10.00">XOverCompatibility</text>
</a>
</g>
</g>
<!-- Node3&#45;&gt;Node7 -->
<g id="edge6" class="edge">
<title>Node3&#45;&gt;Node7</title>
<path fill="none" stroke="midnightblue" d="M389.33,-700.49C364.85,-694.99 337.89,-688.93 314.08,-683.58"/>
<polygon fill="midnightblue" stroke="midnightblue" points="388.77,-703.95 399.3,-702.73 390.31,-697.12 388.77,-703.95"/>
</g>
<!-- Node5 -->
<g id="node5" class="node">
<title>Node5</title>
<g id="a_node5"><a xlink:href="classdenoptim_1_1ga_1_1_e_a_utils.html#a0b958439d79fae30f14530213ad22e3a" target="_top" xlink:title="Generates up to a pair of new offspring by performing a crossover operation.">
<polygon fill="white" stroke="black" points="0,-746.5 0,-776.5 127,-776.5 127,-746.5 0,-746.5"/>
<text text-anchor="start" x="8" y="-764.5" font-family="Helvetica,sans-Serif" font-size="10.00">denoptim.ga.EAUtils.build</text>
<text text-anchor="middle" x="63.5" y="-753.5" font-family="Helvetica,sans-Serif" font-size="10.00">CandidatesByXOver</text>
</a>
</g>
</g>
<!-- Node4&#45;&gt;Node5 -->
<g id="edge4" class="edge">
<title>Node4&#45;&gt;Node5</title>
<path fill="none" stroke="midnightblue" d="M152.77,-761.5C144.11,-761.5 135.47,-761.5 127.17,-761.5"/>
<polygon fill="midnightblue" stroke="midnightblue" points="152.94,-765 162.94,-761.5 152.94,-758 152.94,-765"/>
</g>
</g>
</svg>
