<?xml version="1.0" encoding="UTF-8" standalone="no"?>
<!DOCTYPE svg PUBLIC "-//W3C//DTD SVG 1.1//EN"
 "http://www.w3.org/Graphics/SVG/1.1/DTD/svg11.dtd">
<!-- Generated by graphviz version 3.0.0 (20221109.1736)
 -->
<!-- Title: denoptim.gui.GraphViewerPanel.JVertex Pages: 1 -->
<!--zoomable 961 -->
<svg id="main" version="1.1" xmlns="http://www.w3.org/2000/svg" xmlns:xlink="http://www.w3.org/1999/xlink" xml:space="preserve" onload="init(evt)">
<style type="text/css"><![CDATA[
.edge:hover path { stroke: red; }
.edge:hover polygon { stroke: red; fill: red; }
]]></style>
<script type="text/javascript"><![CDATA[
var edges = document.getElementsByTagName('g');
if (edges && edges.length) {
  for (var i=0;i<edges.length;i++) {
    if (edges[i].id.substr(0,4)=='edge') {
      edges[i].setAttribute('class','edge');
    }
  }
}
]]></script>
        <defs>
                <circle id="rim" cx="0" cy="0" r="7"/>
                <circle id="rim2" cx="0" cy="0" r="3.5"/>
                <g id="zoomPlus">
                        <use xlink:href="#rim" fill="#404040">
                                <set attributeName="fill" to="#808080" begin="zoomplus.mouseover" end="zoomplus.mouseout"/>
                        </use>
                        <path d="M-4,0h8M0,-4v8" fill="none" stroke="white" stroke-width="1.5" pointer-events="none"/>
                </g>
                <g id="zoomMin">
                        <use xlink:href="#rim" fill="#404040">
                                <set attributeName="fill" to="#808080" begin="zoomminus.mouseover" end="zoomminus.mouseout"/>
                        </use>
                        <path d="M-4,0h8" fill="none" stroke="white" stroke-width="1.5" pointer-events="none"/>
                </g>
                <g id="dirArrow">
                        <path fill="none" stroke="white" stroke-width="1.5" d="M0,-3.0v7 M-2.5,-0.5L0,-3.0L2.5,-0.5"/>
                </g>
               <g id="resetDef">
                       <use xlink:href="#rim2" fill="#404040">
                               <set attributeName="fill" to="#808080" begin="reset.mouseover" end="reset.mouseout"/>
                       </use>
               </g>
        </defs>

<script type="text/javascript">
var viewWidth = 1318;
var viewHeight = 961;
var sectionId = 'dynsection-0';
</script>
<script xlink:href="svgpan.js"/>
<svg id="graph" class="graph">
<g id="viewport">
<title>denoptim.gui.GraphViewerPanel.JVertex</title>
<polygon fill="white" stroke="transparent" points="-4,4 -4,-957.48 1314,-957.48 1314,4 -4,4"/>
<!-- Node1 -->
<g id="node1" class="node">
<title>Node1</title>
<g id="a_node1"><a xlink:title="a vertex in the JUNG Graph.">
<polygon fill="#bfbfbf" stroke="black" points="971,-702.98 971,-732.98 1101,-732.98 1101,-702.98 971,-702.98"/>
<text text-anchor="start" x="979" y="-720.98" font-family="Helvetica,sans-Serif" font-size="10.00">denoptim.gui.GraphViewer</text>
<text text-anchor="middle" x="1036" y="-709.98" font-family="Helvetica,sans-Serif" font-size="10.00">Panel.JVertex</text>
</a>
</g>
</g>
<!-- Node2 -->
<g id="node2" class="node">
<title>Node2</title>
<g id="a_node2"><a xlink:href="classdenoptim_1_1graph_1_1_vertex.html" target="_top" xlink:title="A vertex is a data structure that has an identity and holds a list of AttachmentPoints.">
<polygon fill="white" stroke="black" points="435.5,-463.48 435.5,-482.48 548.5,-482.48 548.5,-463.48 435.5,-463.48"/>
<text text-anchor="middle" x="492" y="-470.48" font-family="Helvetica,sans-Serif" font-size="10.00">denoptim.graph.Vertex</text>
</a>
</g>
</g>
<!-- Node2&#45;&gt;Node1 -->
<g id="edge1" class="edge">
<title>Node2&#45;&gt;Node1</title>
<path fill="none" stroke="#9a32cd" stroke-dasharray="5,2" d="M550.06,-484.7C658.5,-507.83 889.24,-561.4 953,-610.98 965.28,-620.53 962,-628.3 971,-640.98 986.99,-663.53 1007.81,-687.77 1021.28,-702.91"/>
<polygon fill="#9a32cd" stroke="#9a32cd" points="550.46,-481.21 539.96,-482.56 549.01,-488.06 550.46,-481.21"/>
<text text-anchor="middle" x="775.5" y="-569.98" font-family="Helvetica,sans-Serif" font-size="10.00"> dnpVertex</text>
</g>
<!-- Node13 -->
<g id="node13" class="node">
<title>Node13</title>
<g id="a_node13"><a xlink:href="classdenoptim_1_1graph_1_1_template.html" target="_top" xlink:title=" ">
<polygon fill="white" stroke="black" points="713,-127.48 713,-146.48 838,-146.48 838,-127.48 713,-127.48"/>
<text text-anchor="middle" x="775.5" y="-134.48" font-family="Helvetica,sans-Serif" font-size="10.00">denoptim.graph.Template</text>
</a>
</g>
</g>
<!-- Node2&#45;&gt;Node13 -->
<g id="edge16" class="edge">
<title>Node2&#45;&gt;Node13</title>
<path fill="none" stroke="midnightblue" d="M494.78,-453.36C500.15,-405.31 520.4,-280.56 590,-209.98 616.08,-183.54 638.37,-202.38 668,-179.98 678.64,-171.95 674.77,-163.17 686,-155.98 694.07,-150.82 703.32,-147.03 712.73,-144.27"/>
<polygon fill="midnightblue" stroke="midnightblue" points="491.29,-453.06 493.75,-463.37 498.25,-453.77 491.29,-453.06"/>
</g>
<!-- Node26 -->
<g id="node26" class="node">
<title>Node26</title>
<g id="a_node26"><a xlink:href="classdenoptim_1_1graph_1_1_attachment_point.html" target="_top" xlink:title="An attachment point (AP) is a possibility to attach a Vertex onto the vertex holding the AP (i....">
<polygon fill="white" stroke="black" points="708,-663.98 708,-693.98 843,-693.98 843,-663.98 708,-663.98"/>
<text text-anchor="start" x="716" y="-681.98" font-family="Helvetica,sans-Serif" font-size="10.00">denoptim.graph.Attachment</text>
<text text-anchor="middle" x="775.5" y="-670.98" font-family="Helvetica,sans-Serif" font-size="10.00">Point</text>
</a>
</g>
</g>
<!-- Node2&#45;&gt;Node26 -->
<g id="edge42" class="edge">
<title>Node2&#45;&gt;Node26</title>
<path fill="none" stroke="#9a32cd" stroke-dasharray="5,2" d="M508.1,-490.08C525.9,-509.23 557.22,-539.94 590,-557.98 621.66,-575.41 636.55,-563.17 668,-580.98 707.14,-603.15 743.61,-642.23 762.01,-663.74"/>
<polygon fill="#9a32cd" stroke="#9a32cd" points="510.66,-487.69 501.34,-482.65 505.48,-492.4 510.66,-487.69"/>
<text text-anchor="middle" x="629" y="-583.98" font-family="Helvetica,sans-Serif" font-size="10.00"> owner</text>
</g>
<!-- Node3 -->
<g id="node3" class="node">
<title>Node3</title>
<g id="a_node3"><a xlink:title=" ">
<polygon fill="white" stroke="black" points="143.5,-718.48 143.5,-737.48 202.5,-737.48 202.5,-718.48 143.5,-718.48"/>
<text text-anchor="middle" x="173" y="-725.48" font-family="Helvetica,sans-Serif" font-size="10.00">Cloneable</text>
</a>
</g>
</g>
<!-- Node3&#45;&gt;Node2 -->
<g id="edge2" class="edge">
<title>Node3&#45;&gt;Node2</title>
<path fill="none" stroke="midnightblue" d="M201.14,-713.24C218.14,-703.02 239.64,-688.2 255,-670.98 266.12,-658.52 262.1,-650.64 273,-637.98 305.84,-599.87 433.79,-511.73 476.8,-482.55"/>
<polygon fill="midnightblue" stroke="midnightblue" points="199.12,-710.37 192.24,-718.42 202.64,-716.42 199.12,-710.37"/>
</g>
<!-- Node4 -->
<g id="node4" class="node">
<title>Node4</title>
<g id="a_node4"><a xlink:href="classdenoptim_1_1graph_1_1_d_graph.html" target="_top" xlink:title="Container for the list of vertices and the edges that connect them.">
<polygon fill="white" stroke="black" points="977,-234.48 977,-253.48 1095,-253.48 1095,-234.48 977,-234.48"/>
<text text-anchor="middle" x="1036" y="-241.48" font-family="Helvetica,sans-Serif" font-size="10.00">denoptim.graph.DGraph</text>
</a>
</g>
</g>
<!-- Node3&#45;&gt;Node4 -->
<g id="edge4" class="edge">
<title>Node3&#45;&gt;Node4</title>
<path fill="none" stroke="midnightblue" d="M212.57,-717.98C259.51,-705.98 341.27,-685.66 412,-670.98 525.11,-647.52 584.71,-706.04 668,-625.98 695.21,-599.83 658.9,-569.26 686,-542.98 773.2,-458.47 875.74,-578.68 953,-484.98 982.94,-448.68 944.09,-312.59 971,-273.98 977.53,-264.62 987.76,-258.1 998.14,-253.6"/>
<polygon fill="midnightblue" stroke="midnightblue" points="211.63,-714.61 202.82,-720.48 213.37,-721.39 211.63,-714.61"/>
</g>
<!-- Node10 -->
<g id="node10" class="node">
<title>Node10</title>
<g id="a_node10"><a xlink:href="classdenoptim_1_1graph_1_1_candidate.html" target="_top" xlink:title="A candidate is the combination of a denoptim graph with molecular representation and may include also...">
<polygon fill="white" stroke="black" points="1182,-257.48 1182,-276.48 1310,-276.48 1310,-257.48 1182,-257.48"/>
<text text-anchor="middle" x="1246" y="-264.48" font-family="Helvetica,sans-Serif" font-size="10.00">denoptim.graph.Candidate</text>
</a>
</g>
</g>
<!-- Node3&#45;&gt;Node10 -->
<g id="edge12" class="edge">
<title>Node3&#45;&gt;Node10</title>
<path fill="none" stroke="midnightblue" d="M212.5,-732.31C266.83,-738.86 362.84,-752.22 394,-767.98 403.82,-772.95 402.04,-780.3 412,-784.98 484.12,-818.93 510.44,-802.09 590,-806.98 624.6,-809.12 633.34,-807.42 668,-806.98 755.58,-805.87 778.22,-813.79 865,-801.98 972.13,-787.41 1022.71,-817.55 1101,-742.98 1244.49,-606.33 1246.44,-332.14 1245.3,-276.84"/>
<polygon fill="midnightblue" stroke="midnightblue" points="212.89,-728.83 202.54,-731.13 212.06,-735.78 212.89,-728.83"/>
</g>
<!-- Node3&#45;&gt;Node26 -->
<g id="edge32" class="edge">
<title>Node3&#45;&gt;Node26</title>
<path fill="none" stroke="midnightblue" d="M212.62,-727.86C296.15,-727.1 499.64,-722.62 668,-697.98 680.92,-696.09 694.67,-693.83 707.85,-691.53"/>
<polygon fill="midnightblue" stroke="midnightblue" points="212.55,-724.36 202.57,-727.94 212.6,-731.36 212.55,-724.36"/>
</g>
<!-- Node28 -->
<g id="node28" class="node">
<title>Node28</title>
<g id="a_node28"><a xlink:href="classdenoptim_1_1graph_1_1_a_p_class.html" target="_top" xlink:title=" ">
<polygon fill="white" stroke="black" points="430.5,-843.48 430.5,-862.48 553.5,-862.48 553.5,-843.48 430.5,-843.48"/>
<text text-anchor="middle" x="492" y="-850.48" font-family="Helvetica,sans-Serif" font-size="10.00">denoptim.graph.APClass</text>
</a>
</g>
</g>
<!-- Node3&#45;&gt;Node28 -->
<g id="edge35" class="edge">
<title>Node3&#45;&gt;Node28</title>
<path fill="none" stroke="midnightblue" d="M189.33,-744.99C207.41,-763.93 239.31,-793.99 273,-809.98 322.83,-833.64 385.02,-844.29 430.2,-849.08"/>
<polygon fill="midnightblue" stroke="midnightblue" points="191.84,-742.55 182.46,-737.62 186.72,-747.32 191.84,-742.55"/>
</g>
<!-- Node4&#45;&gt;Node2 -->
<g id="edge3" class="edge">
<title>Node4&#45;&gt;Node2</title>
<path fill="none" stroke="#9a32cd" stroke-dasharray="5,2" d="M966.74,-233.75C879.44,-221.94 733.8,-206.91 686,-229.98 579.02,-281.63 513.15,-424.59 496.93,-463.24"/>
<polygon fill="#9a32cd" stroke="#9a32cd" points="966.45,-237.24 976.83,-235.14 967.4,-230.31 966.45,-237.24"/>
<text text-anchor="middle" x="775.5" y="-232.98" font-family="Helvetica,sans-Serif" font-size="10.00"> owner</text>
</g>
<!-- Node4&#45;&gt;Node10 -->
<g id="edge13" class="edge">
<title>Node4&#45;&gt;Node10</title>
<path fill="none" stroke="#9a32cd" stroke-dasharray="5,2" d="M1105.2,-251.53C1129.83,-254.25 1157.5,-257.31 1181.69,-259.98"/>
<polygon fill="#9a32cd" stroke="#9a32cd" points="1105.54,-248.04 1095.22,-250.42 1104.77,-255 1105.54,-248.04"/>
<text text-anchor="middle" x="1141.5" y="-260.98" font-family="Helvetica,sans-Serif" font-size="10.00"> graph</text>
</g>
<!-- Node4&#45;&gt;Node13 -->
<g id="edge17" class="edge">
<title>Node4&#45;&gt;Node13</title>
<path fill="none" stroke="#9a32cd" stroke-dasharray="5,2" d="M1020.06,-226.35C1004.91,-209.67 979.91,-185.26 953,-171.98 917.28,-154.37 873.36,-145.62 838.27,-141.27"/>
<polygon fill="#9a32cd" stroke="#9a32cd" points="1017.81,-229.09 1027.05,-234.27 1023.06,-224.46 1017.81,-229.09"/>
<text text-anchor="middle" x="918" y="-174.98" font-family="Helvetica,sans-Serif" font-size="10.00"> innerGraph</text>
</g>
<!-- Node5 -->
<g id="node5" class="node">
<title>Node5</title>
<g id="a_node5"><a xlink:title=" ">
<polygon fill="white" stroke="black" points="702.5,-165.48 702.5,-184.48 848.5,-184.48 848.5,-165.48 702.5,-165.48"/>
<text text-anchor="middle" x="775.5" y="-172.48" font-family="Helvetica,sans-Serif" font-size="10.00">List&lt; denoptim.graph.Vertex &gt;</text>
</a>
</g>
</g>
<!-- Node5&#45;&gt;Node4 -->
<g id="edge5" class="edge">
<title>Node5&#45;&gt;Node4</title>
<path fill="none" stroke="#9a32cd" stroke-dasharray="5,2" d="M858.63,-181.99C888.8,-186 922.92,-192.26 953,-201.98 977.66,-209.95 1003.94,-224.66 1019.92,-234.38"/>
<polygon fill="#9a32cd" stroke="#9a32cd" points="858.92,-178.5 848.56,-180.71 858.04,-185.44 858.92,-178.5"/>
<text text-anchor="middle" x="918" y="-204.98" font-family="Helvetica,sans-Serif" font-size="10.00"> gVertices</text>
</g>
<!-- Node6 -->
<g id="node6" class="node">
<title>Node6</title>
<g id="a_node6"><a xlink:title=" ">
<polygon fill="white" stroke="black" points="705.5,-431.48 705.5,-450.48 845.5,-450.48 845.5,-431.48 705.5,-431.48"/>
<text text-anchor="middle" x="775.5" y="-438.48" font-family="Helvetica,sans-Serif" font-size="10.00">List&lt; denoptim.graph.Edge &gt;</text>
</a>
</g>
</g>
<!-- Node6&#45;&gt;Node4 -->
<g id="edge6" class="edge">
<title>Node6&#45;&gt;Node4</title>
<path fill="none" stroke="#9a32cd" stroke-dasharray="5,2" d="M847.25,-428.66C853.36,-426.74 859.36,-424.53 865,-421.98 909.32,-401.99 926.59,-397.81 953,-356.98 973.5,-325.29 947.47,-303.5 971,-273.98 978.42,-264.68 989.41,-258.12 1000.19,-253.56"/>
<polygon fill="#9a32cd" stroke="#9a32cd" points="846.22,-425.31 837.58,-431.45 848.16,-432.04 846.22,-425.31"/>
<text text-anchor="middle" x="918" y="-415.98" font-family="Helvetica,sans-Serif" font-size="10.00"> gEdges</text>
</g>
<!-- Node7 -->
<g id="node7" class="node">
<title>Node7</title>
<g id="a_node7"><a xlink:title=" ">
<polygon fill="white" stroke="black" points="707,-89.48 707,-108.48 844,-108.48 844,-89.48 707,-89.48"/>
<text text-anchor="middle" x="775.5" y="-96.48" font-family="Helvetica,sans-Serif" font-size="10.00">List&lt; denoptim.graph.Ring &gt;</text>
</a>
</g>
</g>
<!-- Node7&#45;&gt;Node4 -->
<g id="edge7" class="edge">
<title>Node7&#45;&gt;Node4</title>
<path fill="none" stroke="#9a32cd" stroke-dasharray="5,2" d="M829.76,-88.05C866.87,-83.33 916.13,-83.09 953,-104.98 1003.11,-134.74 1025.92,-207.91 1032.72,-234.3"/>
<polygon fill="#9a32cd" stroke="#9a32cd" points="829.05,-84.62 819.64,-89.48 830.03,-91.55 829.05,-84.62"/>
<text text-anchor="middle" x="918" y="-107.98" font-family="Helvetica,sans-Serif" font-size="10.00"> gRings</text>
</g>
<!-- Node8 -->
<g id="node8" class="node">
<title>Node8</title>
<g id="a_node8"><a xlink:title=" ">
<polygon fill="white" stroke="black" points="709,-39.98 709,-69.98 842,-69.98 842,-39.98 709,-39.98"/>
<text text-anchor="start" x="717" y="-57.98" font-family="Helvetica,sans-Serif" font-size="10.00">List&lt; denoptim.graph.rings.</text>
<text text-anchor="middle" x="775.5" y="-46.98" font-family="Helvetica,sans-Serif" font-size="10.00">ClosableChain &gt;</text>
</a>
</g>
</g>
<!-- Node8&#45;&gt;Node4 -->
<g id="edge8" class="edge">
<title>Node8&#45;&gt;Node4</title>
<path fill="none" stroke="#9a32cd" stroke-dasharray="5,2" d="M852.47,-46.29C885.98,-46.26 924.21,-51.82 953,-71.98 1010.72,-112.41 1029.16,-204.64 1033.72,-234.48"/>
<polygon fill="#9a32cd" stroke="#9a32cd" points="852.18,-42.8 842.24,-46.47 852.3,-49.79 852.18,-42.8"/>
<text text-anchor="middle" x="918" y="-74.98" font-family="Helvetica,sans-Serif" font-size="10.00"> closableChains</text>
</g>
<!-- Node9 -->
<g id="node9" class="node">
<title>Node9</title>
<g id="a_node9"><a xlink:title=" ">
<polygon fill="white" stroke="black" points="697.5,-469.98 697.5,-499.98 853.5,-499.98 853.5,-469.98 697.5,-469.98"/>
<text text-anchor="start" x="705.5" y="-487.98" font-family="Helvetica,sans-Serif" font-size="10.00">List&lt; denoptim.graph.Symmetric</text>
<text text-anchor="middle" x="775.5" y="-476.98" font-family="Helvetica,sans-Serif" font-size="10.00">Vertexes &gt;</text>
</a>
</g>
</g>
<!-- Node9&#45;&gt;Node4 -->
<g id="edge9" class="edge">
<title>Node9&#45;&gt;Node4</title>
<path fill="none" stroke="#9a32cd" stroke-dasharray="5,2" d="M863.78,-477.18C896.74,-469.63 931.46,-455.22 953,-427.98 995.75,-373.94 930.71,-329.89 971,-273.98 977.74,-264.63 988.16,-258.1 998.65,-253.58"/>
<polygon fill="#9a32cd" stroke="#9a32cd" points="862.69,-473.83 853.62,-479.31 864.12,-480.68 862.69,-473.83"/>
<text text-anchor="middle" x="918" y="-472.98" font-family="Helvetica,sans-Serif" font-size="10.00"> symVertices</text>
</g>
<!-- Node10&#45;&gt;Node4 -->
<g id="edge10" class="edge">
<title>Node10&#45;&gt;Node4</title>
<path fill="none" stroke="#9a32cd" stroke-dasharray="5,2" d="M1217.9,-252.86C1202.54,-245.65 1182.7,-237.65 1164,-233.98 1137.3,-228.76 1106.94,-230.86 1082.6,-234.46"/>
<polygon fill="#9a32cd" stroke="#9a32cd" points="1216.76,-256.2 1227.29,-257.43 1219.82,-249.9 1216.76,-256.2"/>
<text text-anchor="middle" x="1141.5" y="-236.98" font-family="Helvetica,sans-Serif" font-size="10.00"> candidate</text>
</g>
<!-- Node11 -->
<g id="node11" class="node">
<title>Node11</title>
<g id="a_node11"><a xlink:title=" ">
<polygon fill="white" stroke="black" points="972,-283.48 972,-302.48 1100,-302.48 1100,-283.48 972,-283.48"/>
<text text-anchor="middle" x="1036" y="-290.48" font-family="Helvetica,sans-Serif" font-size="10.00">Comparable&lt; Candidate &gt;</text>
</a>
</g>
</g>
<!-- Node11&#45;&gt;Node10 -->
<g id="edge11" class="edge">
<title>Node11&#45;&gt;Node10</title>
<path fill="none" stroke="midnightblue" d="M1110.42,-283.81C1133.69,-280.9 1159.19,-277.71 1181.69,-274.9"/>
<polygon fill="midnightblue" stroke="midnightblue" points="1109.74,-280.36 1100.25,-285.08 1110.61,-287.31 1109.74,-280.36"/>
</g>
<!-- Node12 -->
<g id="node12" class="node">
<title>Node12</title>
<g id="a_node12"><a xlink:title=" ">
<polygon fill="white" stroke="black" points="450,-17.48 450,-36.48 534,-36.48 534,-17.48 450,-17.48"/>
<text text-anchor="middle" x="492" y="-24.48" font-family="Helvetica,sans-Serif" font-size="10.00">IAtomContainer</text>
</a>
</g>
</g>
<!-- Node12&#45;&gt;Node10 -->
<g id="edge14" class="edge">
<title>Node12&#45;&gt;Node10</title>
<path fill="none" stroke="#9a32cd" stroke-dasharray="5,2" d="M543.97,-16.92C631.07,-2.05 812.76,18.71 953,-33.98 1086.56,-84.18 1206.21,-220.18 1237.22,-257.44"/>
<polygon fill="#9a32cd" stroke="#9a32cd" points="543.32,-13.48 534.07,-18.66 544.53,-20.38 543.32,-13.48"/>
<text text-anchor="middle" x="918" y="-36.98" font-family="Helvetica,sans-Serif" font-size="10.00"> iac</text>
</g>
<!-- Node12&#45;&gt;Node13 -->
<g id="edge18" class="edge">
<title>Node12&#45;&gt;Node13</title>
<path fill="none" stroke="#9a32cd" stroke-dasharray="5,2" d="M544.4,-36.23C581.79,-45.03 631.98,-61.3 668,-89.98 679.57,-99.2 673.84,-109.56 686,-117.98 694.01,-123.53 703.33,-127.5 712.86,-130.34"/>
<polygon fill="#9a32cd" stroke="#9a32cd" points="544.73,-32.72 534.21,-33.95 543.2,-39.55 544.73,-32.72"/>
<text text-anchor="middle" x="629" y="-92.98" font-family="Helvetica,sans-Serif" font-size="10.00"> mol</text>
</g>
<!-- Node13&#45;&gt;Node4 -->
<g id="edge15" class="edge">
<title>Node13&#45;&gt;Node4</title>
<path fill="none" stroke="#9a32cd" stroke-dasharray="5,2" d="M820.82,-125.32C858.12,-117.96 911.81,-113.32 953,-133.98 996,-155.57 1022.2,-211.58 1031.33,-234.25"/>
<polygon fill="#9a32cd" stroke="#9a32cd" points="819.82,-121.95 810.76,-127.44 821.26,-128.8 819.82,-121.95"/>
<text text-anchor="middle" x="918" y="-136.98" font-family="Helvetica,sans-Serif" font-size="10.00"> templateJacket</text>
</g>
<!-- Node14 -->
<g id="node14" class="node">
<title>Node14</title>
<g id="a_node14"><a xlink:href="enumdenoptim_1_1graph_1_1_template_1_1_contract_level.html" target="_top" xlink:title="Enum specifying to what extent the template&#39;s inner graph can be changed.">
<polygon fill="white" stroke="black" points="428,-120.98 428,-150.98 556,-150.98 556,-120.98 428,-120.98"/>
<text text-anchor="start" x="436" y="-138.98" font-family="Helvetica,sans-Serif" font-size="10.00">denoptim.graph.Template.</text>
<text text-anchor="middle" x="492" y="-127.98" font-family="Helvetica,sans-Serif" font-size="10.00">ContractLevel</text>
</a>
</g>
</g>
<!-- Node14&#45;&gt;Node13 -->
<g id="edge19" class="edge">
<title>Node14&#45;&gt;Node13</title>
<path fill="none" stroke="#9a32cd" stroke-dasharray="5,2" d="M566.29,-136.25C611.87,-136.41 669.81,-136.61 712.99,-136.77"/>
<polygon fill="#9a32cd" stroke="#9a32cd" points="566.19,-132.75 556.17,-136.21 566.16,-139.74 566.19,-132.75"/>
<text text-anchor="middle" x="629" y="-139.98" font-family="Helvetica,sans-Serif" font-size="10.00"> contractLevel</text>
</g>
<!-- Node15 -->
<g id="node15" class="node">
<title>Node15</title>
<g id="a_node15"><a xlink:title=" ">
<polygon fill="white" stroke="black" points="412,-71.98 412,-101.98 572,-101.98 572,-71.98 412,-71.98"/>
<text text-anchor="start" x="420" y="-89.98" font-family="Helvetica,sans-Serif" font-size="10.00">List&lt; denoptim.graph.Attachment</text>
<text text-anchor="middle" x="492" y="-78.98" font-family="Helvetica,sans-Serif" font-size="10.00">Point &gt;</text>
</a>
</g>
</g>
<!-- Node15&#45;&gt;Node13 -->
<g id="edge20" class="edge">
<title>Node15&#45;&gt;Node13</title>
<path fill="none" stroke="#9a32cd" stroke-dasharray="5,2" d="M582.05,-102.8C627.65,-110.9 681.66,-120.49 720.83,-127.45"/>
<polygon fill="#9a32cd" stroke="#9a32cd" points="582.62,-99.35 572.16,-101.05 581.4,-106.24 582.62,-99.35"/>
<text text-anchor="middle" x="629" y="-120.98" font-family="Helvetica,sans-Serif" font-size="10.00"> requiredAPs</text>
</g>
<!-- Node16 -->
<g id="node16" class="node">
<title>Node16</title>
<g id="a_node16"><a xlink:href="classdenoptim_1_1graph_1_1_a_p_tree_map.html" target="_top" xlink:title="Attachment point mapping where keys are sorted by natural ordering, i.e., by AttachmentPoint#compareT...">
<polygon fill="white" stroke="black" points="423.5,-170.48 423.5,-189.48 560.5,-189.48 560.5,-170.48 423.5,-170.48"/>
<text text-anchor="middle" x="492" y="-177.48" font-family="Helvetica,sans-Serif" font-size="10.00">denoptim.graph.APTreeMap</text>
</a>
</g>
</g>
<!-- Node16&#45;&gt;Node13 -->
<g id="edge21" class="edge">
<title>Node16&#45;&gt;Node13</title>
<path fill="none" stroke="#9a32cd" stroke-dasharray="5,2" d="M565.59,-168.9C611.17,-161.93 669.31,-153.05 712.69,-146.43"/>
<polygon fill="#9a32cd" stroke="#9a32cd" points="564.83,-165.47 555.47,-170.44 565.89,-172.39 564.83,-165.47"/>
<text text-anchor="middle" x="629" y="-167.98" font-family="Helvetica,sans-Serif" font-size="10.00"> innerToOuterAPs</text>
</g>
<!-- Node17 -->
<g id="node17" class="node">
<title>Node17</title>
<g id="a_node17"><a xlink:title=" ">
<polygon fill="white" stroke="black" points="100,-164.98 100,-194.98 246,-194.98 246,-164.98 100,-164.98"/>
<text text-anchor="start" x="108" y="-182.98" font-family="Helvetica,sans-Serif" font-size="10.00">LinkedHashMap&lt; Attachment</text>
<text text-anchor="middle" x="173" y="-171.98" font-family="Helvetica,sans-Serif" font-size="10.00">Point, AttachmentPoint &gt;</text>
</a>
</g>
</g>
<!-- Node17&#45;&gt;Node16 -->
<g id="edge22" class="edge">
<title>Node17&#45;&gt;Node16</title>
<path fill="none" stroke="midnightblue" d="M256.51,-179.98C308.4,-179.98 374.52,-179.98 423.32,-179.98"/>
<polygon fill="midnightblue" stroke="midnightblue" points="256.33,-176.49 246.33,-179.98 256.33,-183.49 256.33,-176.49"/>
</g>
<!-- Node18 -->
<g id="node18" class="node">
<title>Node18</title>
<g id="a_node18"><a xlink:title=" ">
<polygon fill="white" stroke="black" points="687,-359.98 687,-411.98 864,-411.98 864,-359.98 687,-359.98"/>
<text text-anchor="start" x="695" y="-399.98" font-family="Helvetica,sans-Serif" font-size="10.00">DefaultUndirectedGraph</text>
<text text-anchor="start" x="695" y="-388.98" font-family="Helvetica,sans-Serif" font-size="10.00">&lt; denoptim.graph.Vertex,</text>
<text text-anchor="start" x="695" y="-377.98" font-family="Helvetica,sans-Serif" font-size="10.00"> denoptim.graph.simplified.Undirected</text>
<text text-anchor="middle" x="775.5" y="-366.98" font-family="Helvetica,sans-Serif" font-size="10.00">Edge &gt;</text>
</a>
</g>
</g>
<!-- Node18&#45;&gt;Node4 -->
<g id="edge23" class="edge">
<title>Node18&#45;&gt;Node4</title>
<path fill="none" stroke="#9a32cd" stroke-dasharray="5,2" d="M854.21,-355.93C857.88,-354.3 861.49,-352.65 865,-350.98 905.46,-331.82 920.36,-332.62 953,-301.98 963.79,-291.86 959.87,-283.73 971,-273.98 981.07,-265.18 994.16,-258.43 1005.88,-253.59"/>
<polygon fill="#9a32cd" stroke="#9a32cd" points="852.79,-352.73 845.01,-359.93 855.58,-359.15 852.79,-352.73"/>
<text text-anchor="middle" x="918" y="-344.98" font-family="Helvetica,sans-Serif" font-size="10.00"> jGraph</text>
</g>
<!-- Node19 -->
<g id="node19" class="node">
<title>Node19</title>
<g id="a_node19"><a xlink:title=" ">
<polygon fill="white" stroke="black" points="686,-288.98 686,-340.98 865,-340.98 865,-288.98 686,-288.98"/>
<text text-anchor="start" x="694" y="-328.98" font-family="Helvetica,sans-Serif" font-size="10.00">DefaultUndirectedGraph</text>
<text text-anchor="start" x="694" y="-317.98" font-family="Helvetica,sans-Serif" font-size="10.00">&lt; denoptim.graph.simplified.</text>
<text text-anchor="start" x="694" y="-306.98" font-family="Helvetica,sans-Serif" font-size="10.00">Node, denoptim.graph.simplified.Node</text>
<text text-anchor="middle" x="775.5" y="-295.98" font-family="Helvetica,sans-Serif" font-size="10.00">Connection &gt;</text>
</a>
</g>
</g>
<!-- Node19&#45;&gt;Node4 -->
<g id="edge24" class="edge">
<title>Node19&#45;&gt;Node4</title>
<path fill="none" stroke="#9a32cd" stroke-dasharray="5,2" d="M874.73,-289.28C900.25,-282.48 927.68,-275.06 953,-267.98 969.57,-263.35 987.96,-257.99 1003.12,-253.51"/>
<polygon fill="#9a32cd" stroke="#9a32cd" points="873.81,-285.91 865.05,-291.86 875.61,-292.67 873.81,-285.91"/>
<text text-anchor="middle" x="918" y="-289.98" font-family="Helvetica,sans-Serif" font-size="10.00"> jGraphKernel</text>
</g>
<!-- Node20 -->
<g id="node20" class="node">
<title>Node20</title>
<g id="a_node20"><a xlink:title=" ">
<polygon fill="white" stroke="black" points="737,-250.48 737,-269.48 814,-269.48 814,-250.48 737,-250.48"/>
<text text-anchor="middle" x="775.5" y="-257.48" font-family="Helvetica,sans-Serif" font-size="10.00">AtomicInteger</text>
</a>
</g>
</g>
<!-- Node20&#45;&gt;Node4 -->
<g id="edge25" class="edge">
<title>Node20&#45;&gt;Node4</title>
<path fill="none" stroke="#9a32cd" stroke-dasharray="5,2" d="M824.31,-257.03C867.38,-254.36 930.81,-250.43 976.81,-247.59"/>
<polygon fill="#9a32cd" stroke="#9a32cd" points="823.85,-253.55 814.09,-257.66 824.29,-260.53 823.85,-253.55"/>
<text text-anchor="middle" x="918" y="-255.98" font-family="Helvetica,sans-Serif" font-size="10.00"> apCounter</text>
</g>
<!-- Node21 -->
<g id="node21" class="node">
<title>Node21</title>
<g id="a_node21"><a xlink:href="enumdenoptim_1_1graph_1_1_vertex_1_1_b_b_type.html" target="_top" xlink:title="The type of building block.">
<polygon fill="white" stroke="black" points="98.5,-408.48 98.5,-427.48 247.5,-427.48 247.5,-408.48 98.5,-408.48"/>
<text text-anchor="middle" x="173" y="-415.48" font-family="Helvetica,sans-Serif" font-size="10.00">denoptim.graph.Vertex.BBType</text>
</a>
</g>
</g>
<!-- Node21&#45;&gt;Node2 -->
<g id="edge26" class="edge">
<title>Node21&#45;&gt;Node2</title>
<path fill="none" stroke="#9a32cd" stroke-dasharray="5,2" d="M257.6,-420.56C299.02,-423.1 349.55,-428.12 394,-437.98 420.74,-443.92 450.17,-455.26 469.51,-463.43"/>
<polygon fill="#9a32cd" stroke="#9a32cd" points="257.74,-417.06 247.55,-419.98 257.34,-424.05 257.74,-417.06"/>
<text text-anchor="middle" x="333.5" y="-440.98" font-family="Helvetica,sans-Serif" font-size="10.00"> buildingBlockType</text>
</g>
<!-- Node22 -->
<g id="node22" class="node">
<title>Node22</title>
<g id="a_node22"><a xlink:title=" ">
<polygon fill="white" stroke="black" points="116,-550.48 116,-569.48 230,-569.48 230,-550.48 116,-550.48"/>
<text text-anchor="middle" x="173" y="-557.48" font-family="Helvetica,sans-Serif" font-size="10.00">Map&lt; Object, Object &gt;</text>
</a>
</g>
</g>
<!-- Node22&#45;&gt;Node2 -->
<g id="edge27" class="edge">
<title>Node22&#45;&gt;Node2</title>
<path fill="none" stroke="#9a32cd" stroke-dasharray="5,2" d="M207.11,-546.86C226.15,-539.67 250.67,-531.02 273,-524.98 325.85,-510.71 340.82,-514.95 394,-501.98 417.05,-496.36 442.77,-488.61 461.93,-482.53"/>
<polygon fill="#9a32cd" stroke="#9a32cd" points="205.77,-543.62 197.68,-550.47 208.27,-550.16 205.77,-543.62"/>
<text text-anchor="middle" x="333.5" y="-527.98" font-family="Helvetica,sans-Serif" font-size="10.00"> properties</text>
</g>
<!-- Node22&#45;&gt;Node26 -->
<g id="edge46" class="edge">
<title>Node22&#45;&gt;Node26</title>
<path fill="none" stroke="#9a32cd" stroke-dasharray="5,2" d="M232.22,-571.52C344.28,-593.73 589.3,-642.28 707.75,-665.76"/>
<polygon fill="#9a32cd" stroke="#9a32cd" points="232.62,-568.03 222.13,-569.52 231.26,-574.9 232.62,-568.03"/>
<text text-anchor="middle" x="492" y="-639.98" font-family="Helvetica,sans-Serif" font-size="10.00"> properties</text>
</g>
<!-- Node23 -->
<g id="node23" class="node">
<title>Node23</title>
<g id="a_node23"><a xlink:title=" ">
<polygon fill="white" stroke="black" points="136,-370.48 136,-389.48 210,-389.48 210,-370.48 136,-370.48"/>
<text text-anchor="middle" x="173" y="-377.48" font-family="Helvetica,sans-Serif" font-size="10.00">Set&lt; String &gt;</text>
</a>
</g>
</g>
<!-- Node23&#45;&gt;Node2 -->
<g id="edge28" class="edge">
<title>Node23&#45;&gt;Node2</title>
<path fill="none" stroke="#9a32cd" stroke-dasharray="5,2" d="M220.49,-379.05C266.1,-379.61 336.92,-384.43 394,-405.98 429.42,-419.36 464.3,-448.39 480.93,-463.47"/>
<polygon fill="#9a32cd" stroke="#9a32cd" points="220.33,-375.55 210.31,-379 220.29,-382.55 220.33,-375.55"/>
<text text-anchor="middle" x="333.5" y="-408.98" font-family="Helvetica,sans-Serif" font-size="10.00"> uniquefyingPropertyKeys</text>
</g>
<!-- Node24 -->
<g id="node24" class="node">
<title>Node24</title>
<g id="a_node24"><a xlink:title=" ">
<polygon fill="white" stroke="black" points="102.5,-484.98 102.5,-514.98 243.5,-514.98 243.5,-484.98 102.5,-484.98"/>
<text text-anchor="start" x="110.5" y="-502.98" font-family="Helvetica,sans-Serif" font-size="10.00">List&lt; denoptim.utils.Mutation</text>
<text text-anchor="middle" x="173" y="-491.98" font-family="Helvetica,sans-Serif" font-size="10.00">Type &gt;</text>
</a>
</g>
</g>
<!-- Node24&#45;&gt;Node2 -->
<g id="edge29" class="edge">
<title>Node24&#45;&gt;Node2</title>
<path fill="none" stroke="#9a32cd" stroke-dasharray="5,2" d="M253.91,-492.66C260.37,-492.09 266.79,-491.52 273,-490.98 328.24,-486.19 391.38,-481.01 435.44,-477.45"/>
<polygon fill="#9a32cd" stroke="#9a32cd" points="253.41,-489.19 243.77,-493.57 254.04,-496.17 253.41,-489.19"/>
<text text-anchor="middle" x="333.5" y="-493.98" font-family="Helvetica,sans-Serif" font-size="10.00"> allowedMutationTypes</text>
</g>
<!-- Node25 -->
<g id="node25" class="node">
<title>Node25</title>
<g id="a_node25"><a xlink:href="enumdenoptim_1_1graph_1_1_vertex_1_1_vertex_type.html" target="_top" xlink:title="Flag declaring the type of Vertex implementation.">
<polygon fill="white" stroke="black" points="91,-446.48 91,-465.48 255,-465.48 255,-446.48 91,-446.48"/>
<text text-anchor="middle" x="173" y="-453.48" font-family="Helvetica,sans-Serif" font-size="10.00">denoptim.graph.Vertex.VertexType</text>
</a>
</g>
</g>
<!-- Node25&#45;&gt;Node2 -->
<g id="edge30" class="edge">
<title>Node25&#45;&gt;Node2</title>
<path fill="none" stroke="#9a32cd" stroke-dasharray="5,2" d="M265.29,-453.16C304.91,-452.77 351.81,-453.43 394,-456.98 409.82,-458.32 426.94,-460.79 442.34,-463.41"/>
<polygon fill="#9a32cd" stroke="#9a32cd" points="265.07,-449.66 255.11,-453.28 265.15,-456.66 265.07,-449.66"/>
<text text-anchor="middle" x="333.5" y="-459.98" font-family="Helvetica,sans-Serif" font-size="10.00"> vertexType</text>
</g>
<!-- Node26&#45;&gt;Node1 -->
<g id="edge31" class="edge">
<title>Node26&#45;&gt;Node1</title>
<path fill="none" stroke="#9a32cd" stroke-dasharray="5,2" d="M853.43,-690.59C890.85,-696.24 935.32,-702.95 970.89,-708.31"/>
<polygon fill="#9a32cd" stroke="#9a32cd" points="853.48,-687.06 843.07,-689.03 852.44,-693.98 853.48,-687.06"/>
<text text-anchor="middle" x="918" y="-707.98" font-family="Helvetica,sans-Serif" font-size="10.00"> ap</text>
</g>
<!-- Node35 -->
<g id="node35" class="node">
<title>Node35</title>
<g id="a_node35"><a xlink:href="classdenoptim_1_1graph_1_1_edge.html" target="_top" xlink:title="This class represents the edge between two vertices.">
<polygon fill="white" stroke="black" points="982.5,-612.48 982.5,-631.48 1089.5,-631.48 1089.5,-612.48 982.5,-612.48"/>
<text text-anchor="middle" x="1036" y="-619.48" font-family="Helvetica,sans-Serif" font-size="10.00">denoptim.graph.Edge</text>
</a>
</g>
</g>
<!-- Node26&#45;&gt;Node35 -->
<g id="edge44" class="edge">
<title>Node26&#45;&gt;Node35</title>
<path fill="none" stroke="#9a32cd" stroke-dasharray="5,2" d="M852.86,-662.15C898.18,-652.15 953.97,-639.85 991.78,-631.52"/>
<polygon fill="#9a32cd" stroke="#9a32cd" points="852.08,-658.73 843.07,-664.31 853.59,-665.57 852.08,-658.73"/>
<text text-anchor="middle" x="918" y="-666.98" font-family="Helvetica,sans-Serif" font-size="10.00"> srcAP</text>
<text text-anchor="middle" x="918" y="-655.98" font-family="Helvetica,sans-Serif" font-size="10.00">trgAP</text>
</g>
<!-- Node27 -->
<g id="node27" class="node">
<title>Node27</title>
<g id="a_node27"><a xlink:title=" ">
<polygon fill="white" stroke="black" points="413,-680.48 413,-699.48 571,-699.48 571,-680.48 413,-680.48"/>
<text text-anchor="middle" x="492" y="-687.48" font-family="Helvetica,sans-Serif" font-size="10.00">Comparable&lt; AttachmentPoint &gt;</text>
</a>
</g>
</g>
<!-- Node27&#45;&gt;Node26 -->
<g id="edge33" class="edge">
<title>Node27&#45;&gt;Node26</title>
<path fill="none" stroke="midnightblue" d="M581.28,-686.54C622.17,-684.94 669.95,-683.07 707.77,-681.59"/>
<polygon fill="midnightblue" stroke="midnightblue" points="580.9,-683.05 571.04,-686.94 581.17,-690.04 580.9,-683.05"/>
</g>
<!-- Node28&#45;&gt;Node26 -->
<g id="edge34" class="edge">
<title>Node28&#45;&gt;Node26</title>
<path fill="none" stroke="#9a32cd" stroke-dasharray="5,2" d="M549.71,-840.65C588.41,-829.36 637.92,-808.8 668,-772.98 688.38,-748.72 663.82,-726.62 686,-703.98 692.15,-697.71 699.74,-692.98 707.87,-689.42"/>
<polygon fill="#9a32cd" stroke="#9a32cd" points="548.31,-837.41 539.62,-843.46 550.19,-844.15 548.31,-837.41"/>
<text text-anchor="middle" x="629" y="-827.98" font-family="Helvetica,sans-Serif" font-size="10.00"> apClass</text>
</g>
<!-- Node29 -->
<g id="node29" class="node">
<title>Node29</title>
<g id="a_node29"><a xlink:title=" ">
<polygon fill="white" stroke="black" points="111.5,-884.48 111.5,-903.48 234.5,-903.48 234.5,-884.48 111.5,-884.48"/>
<text text-anchor="middle" x="173" y="-891.48" font-family="Helvetica,sans-Serif" font-size="10.00">Comparable&lt; APClass &gt;</text>
</a>
</g>
</g>
<!-- Node29&#45;&gt;Node28 -->
<g id="edge36" class="edge">
<title>Node29&#45;&gt;Node28</title>
<path fill="none" stroke="midnightblue" d="M244.78,-893.21C288.12,-891.81 344.57,-888.34 394,-879.98 417.44,-876.02 443.35,-868.65 462.49,-862.61"/>
<polygon fill="midnightblue" stroke="midnightblue" points="244.51,-889.72 234.62,-893.51 244.71,-896.71 244.51,-889.72"/>
</g>
<!-- Node30 -->
<g id="node30" class="node">
<title>Node30</title>
<g id="a_node30"><a xlink:title=" ">
<polygon fill="white" stroke="black" points="95.5,-846.48 95.5,-865.48 250.5,-865.48 250.5,-846.48 95.5,-846.48"/>
<text text-anchor="middle" x="173" y="-853.48" font-family="Helvetica,sans-Serif" font-size="10.00">Set&lt; denoptim.graph.APClass &gt;</text>
</a>
</g>
</g>
<!-- Node30&#45;&gt;Node28 -->
<g id="edge37" class="edge">
<title>Node30&#45;&gt;Node28</title>
<path fill="none" stroke="#9a32cd" stroke-dasharray="5,2" d="M260.95,-855.16C314.69,-854.65 382.33,-854.01 430.32,-853.56"/>
<polygon fill="#9a32cd" stroke="#9a32cd" points="260.7,-851.66 250.74,-855.26 260.77,-858.66 260.7,-851.66"/>
<text text-anchor="middle" x="333.5" y="-868.98" font-family="Helvetica,sans-Serif" font-size="10.00"> RCAAPCLASSSET</text>
<text text-anchor="middle" x="333.5" y="-857.98" font-family="Helvetica,sans-Serif" font-size="10.00">uniqueAPClasses</text>
</g>
<!-- Node31 -->
<g id="node31" class="node">
<title>Node31</title>
<g id="a_node31"><a xlink:title=" ">
<polygon fill="white" stroke="black" points="105.5,-922.98 105.5,-952.98 240.5,-952.98 240.5,-922.98 105.5,-922.98"/>
<text text-anchor="start" x="113.5" y="-940.98" font-family="Helvetica,sans-Serif" font-size="10.00">HashMap&lt; denoptim.graph.</text>
<text text-anchor="middle" x="173" y="-929.98" font-family="Helvetica,sans-Serif" font-size="10.00">APClass, String &gt;</text>
</a>
</g>
</g>
<!-- Node31&#45;&gt;Node28 -->
<g id="edge38" class="edge">
<title>Node31&#45;&gt;Node28</title>
<path fill="none" stroke="#9a32cd" stroke-dasharray="5,2" d="M250.65,-929.52C293.5,-923.52 347.48,-913.84 394,-898.98 423.47,-889.57 455.51,-873.02 474.39,-862.55"/>
<polygon fill="#9a32cd" stroke="#9a32cd" points="250.01,-926.07 240.57,-930.89 250.96,-933.01 250.01,-926.07"/>
<text text-anchor="middle" x="333.5" y="-927.98" font-family="Helvetica,sans-Serif" font-size="10.00"> RCALABELPERAPCLASS</text>
</g>
<!-- Node32 -->
<g id="node32" class="node">
<title>Node32</title>
<g id="a_node32"><a xlink:href="enumdenoptim_1_1graph_1_1_edge_1_1_bond_type.html" target="_top" xlink:title="Possible chemical bond types an edge can represent.">
<polygon fill="white" stroke="black" points="97,-642.48 97,-661.48 249,-661.48 249,-642.48 97,-642.48"/>
<text text-anchor="middle" x="173" y="-649.48" font-family="Helvetica,sans-Serif" font-size="10.00">denoptim.graph.Edge.BondType</text>
</a>
</g>
</g>
<!-- Node32&#45;&gt;Node28 -->
<g id="edge39" class="edge">
<title>Node32&#45;&gt;Node28</title>
<path fill="none" stroke="#9a32cd" stroke-dasharray="5,2" d="M199.72,-666.55C241.21,-690.23 325.19,-738.96 394,-783.98 424.78,-804.12 459.65,-829.62 478.05,-843.28"/>
<polygon fill="#9a32cd" stroke="#9a32cd" points="201.25,-663.39 190.83,-661.49 197.79,-669.47 201.25,-663.39"/>
<text text-anchor="middle" x="333.5" y="-797.98" font-family="Helvetica,sans-Serif" font-size="10.00"> DEFAULTBT</text>
<text text-anchor="middle" x="333.5" y="-786.98" font-family="Helvetica,sans-Serif" font-size="10.00">bndTyp</text>
</g>
<!-- Node32&#45;&gt;Node35 -->
<g id="edge45" class="edge">
<title>Node32&#45;&gt;Node35</title>
<path fill="none" stroke="#9a32cd" stroke-dasharray="5,2" d="M244.81,-641.13C254.27,-639.93 263.86,-638.83 273,-637.98 543.22,-612.96 611.69,-616.99 883,-610.98 914.1,-610.3 921.96,-608.91 953,-610.98 962.46,-611.62 972.49,-612.65 982.17,-613.85"/>
<polygon fill="#9a32cd" stroke="#9a32cd" points="244.08,-637.69 234.62,-642.47 245,-644.63 244.08,-637.69"/>
<text text-anchor="middle" x="629" y="-618.98" font-family="Helvetica,sans-Serif" font-size="10.00"> bondType</text>
</g>
<!-- Node33 -->
<g id="node33" class="node">
<title>Node33</title>
<g id="a_node33"><a xlink:title=" ">
<polygon fill="white" stroke="black" points="0,-642.48 0,-661.48 42,-661.48 42,-642.48 0,-642.48"/>
<text text-anchor="middle" x="21" y="-649.48" font-family="Helvetica,sans-Serif" font-size="10.00">IBond</text>
</a>
</g>
</g>
<!-- Node33&#45;&gt;Node32 -->
<g id="edge40" class="edge">
<title>Node33&#45;&gt;Node32</title>
<path fill="none" stroke="#9a32cd" stroke-dasharray="5,2" d="M52.4,-651.98C65.37,-651.98 81.12,-651.98 96.89,-651.98"/>
<polygon fill="#9a32cd" stroke="#9a32cd" points="52.23,-648.49 42.23,-651.98 52.23,-655.49 52.23,-648.49"/>
<text text-anchor="middle" x="66.5" y="-654.98" font-family="Helvetica,sans-Serif" font-size="10.00"> bo</text>
</g>
<!-- Node34 -->
<g id="node34" class="node">
<title>Node34</title>
<g id="a_node34"><a xlink:title=" ">
<polygon fill="white" stroke="black" points="467,-756.48 467,-775.48 517,-775.48 517,-756.48 467,-756.48"/>
<text text-anchor="middle" x="492" y="-763.48" font-family="Helvetica,sans-Serif" font-size="10.00">Point3d</text>
</a>
</g>
</g>
<!-- Node34&#45;&gt;Node26 -->
<g id="edge41" class="edge">
<title>Node34&#45;&gt;Node26</title>
<path fill="none" stroke="#9a32cd" stroke-dasharray="5,2" d="M527.24,-764.35C571.65,-761.62 646.07,-754.79 668,-738.98 682.19,-728.76 672.46,-715.06 686,-703.98 692.43,-698.73 699.89,-694.58 707.71,-691.3"/>
<polygon fill="#9a32cd" stroke="#9a32cd" points="526.96,-760.86 517.17,-764.93 527.36,-767.85 526.96,-760.86"/>
<text text-anchor="middle" x="629" y="-760.98" font-family="Helvetica,sans-Serif" font-size="10.00"> dirVec</text>
</g>
<!-- Node35&#45;&gt;Node26 -->
<g id="edge43" class="edge">
<title>Node35&#45;&gt;Node26</title>
<path fill="none" stroke="#9a32cd" stroke-dasharray="5,2" d="M971.84,-615.76C944.19,-614.72 911.6,-615.82 883,-622.98 851.18,-630.95 818.34,-650.21 797.69,-663.91"/>
<polygon fill="#9a32cd" stroke="#9a32cd" points="972.02,-619.27 982.17,-616.25 972.35,-612.28 972.02,-619.27"/>
<text text-anchor="middle" x="918" y="-625.98" font-family="Helvetica,sans-Serif" font-size="10.00"> user</text>
</g>
<!-- Node36 -->
<g id="node36" class="node">
<title>Node36</title>
<g id="a_node36"><a xlink:href="enumdenoptim_1_1gui_1_1_graph_viewer_panel_1_1_j_vertex_type.html" target="_top" xlink:title=" ">
<polygon fill="white" stroke="black" points="710.5,-761.98 710.5,-791.98 840.5,-791.98 840.5,-761.98 710.5,-761.98"/>
<text text-anchor="start" x="718.5" y="-779.98" font-family="Helvetica,sans-Serif" font-size="10.00">denoptim.gui.GraphViewer</text>
<text text-anchor="middle" x="775.5" y="-768.98" font-family="Helvetica,sans-Serif" font-size="10.00">Panel.JVertexType</text>
</a>
</g>
</g>
<!-- Node36&#45;&gt;Node1 -->
<g id="edge47" class="edge">
<title>Node36&#45;&gt;Node1</title>
<path fill="none" stroke="#9a32cd" stroke-dasharray="5,2" d="M850.75,-760.95C882.31,-754.04 919.49,-745.77 953,-737.98 959.85,-736.39 967.02,-734.69 974.14,-732.99"/>
<polygon fill="#9a32cd" stroke="#9a32cd" points="849.73,-757.59 840.71,-763.15 851.23,-764.43 849.73,-757.59"/>
<text text-anchor="middle" x="918" y="-755.98" font-family="Helvetica,sans-Serif" font-size="10.00"> vtype</text>
</g>
<!-- Node37 -->
<g id="node37" class="node">
<title>Node37</title>
<g id="a_node37"><a xlink:href="classdenoptim_1_1gui_1_1_graph_viewer_panel_1_1_j_edge.html" target="_top" xlink:title="An edge in the JUNG Graph.">
<polygon fill="white" stroke="black" points="710.5,-712.98 710.5,-742.98 840.5,-742.98 840.5,-712.98 710.5,-712.98"/>
<text text-anchor="start" x="718.5" y="-730.98" font-family="Helvetica,sans-Serif" font-size="10.00">denoptim.gui.GraphViewer</text>
<text text-anchor="middle" x="775.5" y="-719.98" font-family="Helvetica,sans-Serif" font-size="10.00">Panel.JEdge</text>
</a>
</g>
</g>
<!-- Node37&#45;&gt;Node1 -->
<g id="edge48" class="edge">
<title>Node37&#45;&gt;Node1</title>
<path fill="none" stroke="#9a32cd" stroke-dasharray="5,2" d="M851.18,-725.1C888.98,-723.63 934.41,-721.88 970.65,-720.47"/>
<polygon fill="#9a32cd" stroke="#9a32cd" points="850.59,-721.62 840.73,-725.5 850.86,-728.61 850.59,-721.62"/>
<text text-anchor="middle" x="918" y="-725.98" font-family="Helvetica,sans-Serif" font-size="10.00"> edgeToParent</text>
</g>
</g>
</svg>
        <g id="navigator" transform="translate(0 0)" fill="#404254">
                <rect fill="#f2f5e9" fill-opacity="0.5" stroke="#606060" stroke-width=".5" x="0" y="0" width="60" height="60"/>
                <use id="zoomplus" xlink:href="#zoomPlus" x="17" y="9" onmousedown="handleZoom(evt,'in')"/>
                <use id="zoomminus" xlink:href="#zoomMin" x="42" y="9" onmousedown="handleZoom(evt,'out')"/>
                <use id="reset" xlink:href="#resetDef" x="30" y="36" onmousedown="handleReset()"/>
                <g id="arrowUp" xlink:href="#dirArrow" transform="translate(30 24)" onmousedown="handlePan(0,-1)">
                  <use xlink:href="#rim" fill="#404040">
                        <set attributeName="fill" to="#808080" begin="arrowUp.mouseover" end="arrowUp.mouseout"/>
                  </use>
                  <path fill="none" stroke="white" stroke-width="1.5" d="M0,-3.0v7 M-2.5,-0.5L0,-3.0L2.5,-0.5"/>
                </g>
                <g id="arrowRight" xlink:href="#dirArrow" transform="rotate(90) translate(36 -43)" onmousedown="handlePan(1,0)">
                  <use xlink:href="#rim" fill="#404040">
                        <set attributeName="fill" to="#808080" begin="arrowRight.mouseover" end="arrowRight.mouseout"/>
                  </use>
                  <path fill="none" stroke="white" stroke-width="1.5" d="M0,-3.0v7 M-2.5,-0.5L0,-3.0L2.5,-0.5"/>
                </g>
                <g id="arrowDown" xlink:href="#dirArrow" transform="rotate(180) translate(-30 -48)" onmousedown="handlePan(0,1)">
                  <use xlink:href="#rim" fill="#404040">
                        <set attributeName="fill" to="#808080" begin="arrowDown.mouseover" end="arrowDown.mouseout"/>
                  </use>
                  <path fill="none" stroke="white" stroke-width="1.5" d="M0,-3.0v7 M-2.5,-0.5L0,-3.0L2.5,-0.5"/>
                </g>
                <g id="arrowLeft" xlink:href="#dirArrow" transform="rotate(270) translate(-36 17)" onmousedown="handlePan(-1,0)">
                  <use xlink:href="#rim" fill="#404040">
                        <set attributeName="fill" to="#808080" begin="arrowLeft.mouseover" end="arrowLeft.mouseout"/>
                  </use>
                  <path fill="none" stroke="white" stroke-width="1.5" d="M0,-3.0v7 M-2.5,-0.5L0,-3.0L2.5,-0.5"/>
                </g>
        </g>
        <svg viewBox="0 0 15 15" width="100%" height="30px" preserveAspectRatio="xMaxYMin meet">
         <g id="arrow_out" transform="scale(0.3 0.3)">
          <a xlink:href="classdenoptim_1_1gui_1_1_graph_viewer_panel_1_1_j_vertex__coll__graph_org.svg" target="_base">
           <rect id="button" ry="5" rx="5" y="6" x="6" height="38" width="38"
                fill="#f2f5e9" fill-opacity="0.5" stroke="#606060" stroke-width="1.0"/>
           <path id="arrow"
             d="M 11.500037,31.436501 C 11.940474,20.09759 22.043105,11.32322 32.158766,21.979434 L 37.068811,17.246167 C 37.068811,17.246167 37.088388,32 37.088388,32 L 22.160133,31.978069 C 22.160133,31.978069 26.997745,27.140456 26.997745,27.140456 C 18.528582,18.264221 13.291696,25.230495 11.500037,31.436501 z"
             style="fill:#404040;"/>
          </a>
         </g>
        </svg>
</svg>
