<?xml version="1.0" encoding="UTF-8" standalone="no"?>
<!DOCTYPE svg PUBLIC "-//W3C//DTD SVG 1.1//EN"
 "http://www.w3.org/Graphics/SVG/1.1/DTD/svg11.dtd">
<!-- Generated by graphviz version 3.0.0 (20221109.1736)
 -->
<!-- Title: denoptim.graph.rings.CyclicGraphHandler.RingSizeManager.addRingClosingBond Pages: 1 -->
<!--zoomable 386 -->
<svg id="main" version="1.1" xmlns="http://www.w3.org/2000/svg" xmlns:xlink="http://www.w3.org/1999/xlink" xml:space="preserve" onload="init(evt)">
<style type="text/css"><![CDATA[
.edge:hover path { stroke: red; }
.edge:hover polygon { stroke: red; fill: red; }
]]></style>
<script type="text/javascript"><![CDATA[
var edges = document.getElementsByTagName('g');
if (edges && edges.length) {
  for (var i=0;i<edges.length;i++) {
    if (edges[i].id.substr(0,4)=='edge') {
      edges[i].setAttribute('class','edge');
    }
  }
}
]]></script>
        <defs>
                <circle id="rim" cx="0" cy="0" r="7"/>
                <circle id="rim2" cx="0" cy="0" r="3.5"/>
                <g id="zoomPlus">
                        <use xlink:href="#rim" fill="#404040">
                                <set attributeName="fill" to="#808080" begin="zoomplus.mouseover" end="zoomplus.mouseout"/>
                        </use>
                        <path d="M-4,0h8M0,-4v8" fill="none" stroke="white" stroke-width="1.5" pointer-events="none"/>
                </g>
                <g id="zoomMin">
                        <use xlink:href="#rim" fill="#404040">
                                <set attributeName="fill" to="#808080" begin="zoomminus.mouseover" end="zoomminus.mouseout"/>
                        </use>
                        <path d="M-4,0h8" fill="none" stroke="white" stroke-width="1.5" pointer-events="none"/>
                </g>
                <g id="dirArrow">
                        <path fill="none" stroke="white" stroke-width="1.5" d="M0,-3.0v7 M-2.5,-0.5L0,-3.0L2.5,-0.5"/>
                </g>
               <g id="resetDef">
                       <use xlink:href="#rim2" fill="#404040">
                               <set attributeName="fill" to="#808080" begin="reset.mouseover" end="reset.mouseout"/>
                       </use>
               </g>
        </defs>

<script type="text/javascript">
var viewWidth = 1169;
var viewHeight = 386;
var sectionId = 'dynsection-1';
</script>
<script xlink:href="svgpan.js"/>
<svg id="graph" class="graph">
<g id="viewport">
<title>denoptim.graph.rings.CyclicGraphHandler.RingSizeManager.addRingClosingBond</title>
<polygon fill="white" stroke="transparent" points="-4,4 -4,-382 1165,-382 1165,4 -4,4"/>
<!-- Node1 -->
<g id="node1" class="node">
<title>Node1</title>
<g id="a_node1"><a xlink:title=" ">
<polygon fill="#bfbfbf" stroke="black" points="0,-71 0,-112 173,-112 173,-71 0,-71"/>
<text text-anchor="start" x="8" y="-100" font-family="Helvetica,sans-Serif" font-size="10.00">denoptim.graph.rings.Cyclic</text>
<text text-anchor="start" x="8" y="-89" font-family="Helvetica,sans-Serif" font-size="10.00">GraphHandler.RingSizeManager.add</text>
<text text-anchor="middle" x="86.5" y="-78" font-family="Helvetica,sans-Serif" font-size="10.00">RingClosingBond</text>
</a>
</g>
</g>
<!-- Node2 -->
<g id="node2" class="node">
<title>Node2</title>
<g id="a_node2"><a xlink:href="classdenoptim_1_1graph_1_1rings_1_1_cyclic_graph_handler_1_1_ring_size_manager.html#a68b1aa5cd1df8bb959064588e994b74e" target="_top" xlink:title=" ">
<polygon fill="white" stroke="black" points="209,-158 209,-199 405,-199 405,-158 209,-158"/>
<text text-anchor="start" x="217" y="-187" font-family="Helvetica,sans-Serif" font-size="10.00">denoptim.graph.rings.Cyclic</text>
<text text-anchor="start" x="217" y="-176" font-family="Helvetica,sans-Serif" font-size="10.00">GraphHandler.RingSizeManager.calculate</text>
<text text-anchor="middle" x="307" y="-165" font-family="Helvetica,sans-Serif" font-size="10.00">CompatibilityOfAllRCAPairs</text>
</a>
</g>
</g>
<!-- Node1&#45;&gt;Node2 -->
<g id="edge1" class="edge">
<title>Node1&#45;&gt;Node2</title>
<path fill="none" stroke="midnightblue" d="M127.67,-112.06C151.05,-123.6 181.3,-137.78 209,-148.5 214.42,-150.6 220.06,-152.66 225.77,-154.65"/>
<polygon fill="midnightblue" stroke="midnightblue" points="224.81,-158.02 235.4,-157.93 227.07,-151.39 224.81,-158.02"/>
</g>
<!-- Node18 -->
<g id="node18" class="node">
<title>Node18</title>
<g id="a_node18"><a xlink:href="classdenoptim_1_1graph_1_1rings_1_1_cyclic_graph_handler_1_1_ring_size_manager.html#a5930d214bae6e42b2423e21fcc902fb8" target="_top" xlink:title=" ">
<polygon fill="white" stroke="black" points="224,-98 224,-139 390,-139 390,-98 224,-98"/>
<text text-anchor="start" x="232" y="-127" font-family="Helvetica,sans-Serif" font-size="10.00">denoptim.graph.rings.Cyclic</text>
<text text-anchor="start" x="232" y="-116" font-family="Helvetica,sans-Serif" font-size="10.00">GraphHandler.RingSizeManager.fill</text>
<text text-anchor="middle" x="307" y="-105" font-family="Helvetica,sans-Serif" font-size="10.00">TopologicalMatrix</text>
</a>
</g>
</g>
<!-- Node1&#45;&gt;Node18 -->
<g id="edge20" class="edge">
<title>Node1&#45;&gt;Node18</title>
<path fill="none" stroke="midnightblue" d="M173.23,-102.09C186.47,-103.73 200.2,-105.43 213.58,-107.08"/>
<polygon fill="midnightblue" stroke="midnightblue" points="213.38,-110.58 223.73,-108.33 214.24,-103.63 213.38,-110.58"/>
</g>
<!-- Node19 -->
<g id="node19" class="node">
<title>Node19</title>
<g id="a_node19"><a xlink:href="enumdenoptim_1_1graph_1_1_edge_1_1_bond_type.html#a3b106d49993cb7dcc1544211e8a17dfd" target="_top" xlink:title=" ">
<polygon fill="white" stroke="black" points="241.5,-49.5 241.5,-79.5 372.5,-79.5 372.5,-49.5 241.5,-49.5"/>
<text text-anchor="start" x="249.5" y="-67.5" font-family="Helvetica,sans-Serif" font-size="10.00">denoptim.graph.Edge.Bond</text>
<text text-anchor="middle" x="307" y="-56.5" font-family="Helvetica,sans-Serif" font-size="10.00">Type.getCDKOrder</text>
</a>
</g>
</g>
<!-- Node1&#45;&gt;Node19 -->
<g id="edge21" class="edge">
<title>Node1&#45;&gt;Node19</title>
<path fill="none" stroke="midnightblue" d="M173.23,-80.91C192.49,-78.53 212.76,-76.02 231.52,-73.7"/>
<polygon fill="midnightblue" stroke="midnightblue" points="231.97,-77.17 241.47,-72.47 231.11,-70.23 231.97,-77.17"/>
</g>
<!-- Node20 -->
<g id="node20" class="node">
<title>Node20</title>
<g id="a_node20"><a xlink:href="enumdenoptim_1_1graph_1_1_edge_1_1_bond_type.html#a8be61f74c1beaa52e4a53ff70d32a614" target="_top" xlink:title="Checks if it is possible to convert this edge type into a CDK bond.">
<polygon fill="white" stroke="black" points="241.5,-0.5 241.5,-30.5 372.5,-30.5 372.5,-0.5 241.5,-0.5"/>
<text text-anchor="start" x="249.5" y="-18.5" font-family="Helvetica,sans-Serif" font-size="10.00">denoptim.graph.Edge.Bond</text>
<text text-anchor="middle" x="307" y="-7.5" font-family="Helvetica,sans-Serif" font-size="10.00">Type.hasCDKAnalogue</text>
</a>
</g>
</g>
<!-- Node1&#45;&gt;Node20 -->
<g id="edge22" class="edge">
<title>Node1&#45;&gt;Node20</title>
<path fill="none" stroke="midnightblue" d="M130.7,-70.99C153.62,-60.62 182.46,-48.4 209,-39.5 216.29,-37.06 223.95,-34.74 231.66,-32.58"/>
<polygon fill="midnightblue" stroke="midnightblue" points="232.67,-35.93 241.4,-29.93 230.83,-29.18 232.67,-35.93"/>
</g>
<!-- Node3 -->
<g id="node3" class="node">
<title>Node3</title>
<g id="a_node3"><a xlink:href="classdenoptim_1_1graph_1_1rings_1_1_cyclic_graph_handler.html#a8dcec9483dc562e8696ea90a65842327" target="_top" xlink:title="Method to analyze a pair of vertices and evaluate whether they respect the criteria for being the two...">
<polygon fill="white" stroke="black" points="450.5,-237.5 450.5,-267.5 603.5,-267.5 603.5,-237.5 450.5,-237.5"/>
<text text-anchor="start" x="458.5" y="-255.5" font-family="Helvetica,sans-Serif" font-size="10.00">denoptim.graph.rings.Cyclic</text>
<text text-anchor="middle" x="527" y="-244.5" font-family="Helvetica,sans-Serif" font-size="10.00">GraphHandler.evaluateRCVPair</text>
</a>
</g>
</g>
<!-- Node2&#45;&gt;Node3 -->
<g id="edge2" class="edge">
<title>Node2&#45;&gt;Node3</title>
<path fill="none" stroke="midnightblue" d="M359.75,-199.12C384.22,-208.56 413.93,-219.61 441,-228.5 447.26,-230.56 453.82,-232.6 460.4,-234.58"/>
<polygon fill="midnightblue" stroke="midnightblue" points="459.43,-237.94 470.01,-237.42 461.42,-231.23 459.43,-237.94"/>
</g>
<!-- Node15 -->
<g id="node15" class="node">
<title>Node15</title>
<g id="a_node15"><a xlink:href="classdenoptim_1_1graph_1_1rings_1_1_ring_closure_parameters.html#a870b2456fe1fefeae6b8411d2febadf6" target="_top" xlink:title=" ">
<polygon fill="white" stroke="black" points="441,-188.5 441,-218.5 613,-218.5 613,-188.5 441,-188.5"/>
<text text-anchor="start" x="449" y="-206.5" font-family="Helvetica,sans-Serif" font-size="10.00">denoptim.graph.rings.Ring</text>
<text text-anchor="middle" x="527" y="-195.5" font-family="Helvetica,sans-Serif" font-size="10.00">ClosureParameters.getMaxRingSize</text>
</a>
</g>
</g>
<!-- Node2&#45;&gt;Node15 -->
<g id="edge17" class="edge">
<title>Node2&#45;&gt;Node15</title>
<path fill="none" stroke="midnightblue" d="M405.21,-189.65C413.77,-190.63 422.44,-191.62 430.99,-192.6"/>
<polygon fill="midnightblue" stroke="midnightblue" points="430.63,-196.09 440.96,-193.75 431.43,-189.13 430.63,-196.09"/>
</g>
<!-- Node16 -->
<g id="node16" class="node">
<title>Node16</title>
<g id="a_node16"><a xlink:href="classdenoptim_1_1graph_1_1rings_1_1_ring_closing_attractor.html#a1181ea61bfd92dd5bfc3068772cce586" target="_top" xlink:title="Checks whether the constructed RingClosingAttractor does corresponds to a RingClosingAttractor in the...">
<polygon fill="white" stroke="black" points="460,-139.5 460,-169.5 594,-169.5 594,-139.5 460,-139.5"/>
<text text-anchor="start" x="468" y="-157.5" font-family="Helvetica,sans-Serif" font-size="10.00">denoptim.graph.rings.Ring</text>
<text text-anchor="middle" x="527" y="-146.5" font-family="Helvetica,sans-Serif" font-size="10.00">ClosingAttractor.isAttractor</text>
</a>
</g>
</g>
<!-- Node2&#45;&gt;Node16 -->
<g id="edge18" class="edge">
<title>Node2&#45;&gt;Node16</title>
<path fill="none" stroke="midnightblue" d="M405.21,-167.8C420.1,-166.16 435.29,-164.49 449.64,-162.91"/>
<polygon fill="midnightblue" stroke="midnightblue" points="450.38,-166.35 459.94,-161.77 449.61,-159.39 450.38,-166.35"/>
</g>
<!-- Node17 -->
<g id="node17" class="node">
<title>Node17</title>
<g id="a_node17"><a xlink:href="classdenoptim_1_1graph_1_1rings_1_1_ring_closing_attractor.html#a333e897a1d7e04069b2469e453f41920" target="_top" xlink:title="Evaluate compatibility between this RingClosingAttractor and another one.">
<polygon fill="white" stroke="black" points="454.5,-90.5 454.5,-120.5 599.5,-120.5 599.5,-90.5 454.5,-90.5"/>
<text text-anchor="start" x="462.5" y="-108.5" font-family="Helvetica,sans-Serif" font-size="10.00">denoptim.graph.rings.Ring</text>
<text text-anchor="middle" x="527" y="-97.5" font-family="Helvetica,sans-Serif" font-size="10.00">ClosingAttractor.isCompatible</text>
</a>
</g>
</g>
<!-- Node2&#45;&gt;Node17 -->
<g id="edge19" class="edge">
<title>Node2&#45;&gt;Node17</title>
<path fill="none" stroke="midnightblue" d="M379.2,-157.95C387.96,-154.99 396.74,-151.82 405,-148.5 421.6,-141.83 424.35,-137.05 441,-130.5 447.15,-128.08 453.64,-125.76 460.17,-123.59"/>
<polygon fill="midnightblue" stroke="midnightblue" points="461.29,-126.91 469.74,-120.51 459.15,-120.24 461.29,-126.91"/>
</g>
<!-- Node4 -->
<g id="node4" class="node">
<title>Node4</title>
<g id="a_node4"><a xlink:href="classdenoptim_1_1graph_1_1_attachment_point.html#a7e45846280a63bd2bf36b85e502ffa49" target="_top" xlink:title="The index of the source atom in the atom list of the fragment.">
<polygon fill="white" stroke="black" points="655.5,-347.5 655.5,-377.5 803.5,-377.5 803.5,-347.5 655.5,-347.5"/>
<text text-anchor="start" x="663.5" y="-365.5" font-family="Helvetica,sans-Serif" font-size="10.00">denoptim.graph.Attachment</text>
<text text-anchor="middle" x="729.5" y="-354.5" font-family="Helvetica,sans-Serif" font-size="10.00">Point.getAtomPositionNumber</text>
</a>
</g>
</g>
<!-- Node3&#45;&gt;Node4 -->
<g id="edge3" class="edge">
<title>Node3&#45;&gt;Node4</title>
<path fill="none" stroke="midnightblue" d="M547.71,-267.53C570.99,-284.81 611.33,-313.24 649,-332.5 656.83,-336.5 665.32,-340.26 673.74,-343.68"/>
<polygon fill="midnightblue" stroke="midnightblue" points="672.59,-346.99 683.17,-347.39 675.15,-340.48 672.59,-346.99"/>
</g>
<!-- Node5 -->
<g id="node5" class="node">
<title>Node5</title>
<g id="a_node5"><a xlink:href="classdenoptim_1_1graph_1_1_vertex.html#a85aa901ec3fff8e566c0cc32d9c9f84e" target="_top" xlink:title=" ">
<polygon fill="white" stroke="black" points="1033,-259.5 1033,-289.5 1161,-289.5 1161,-259.5 1033,-259.5"/>
<text text-anchor="start" x="1041" y="-277.5" font-family="Helvetica,sans-Serif" font-size="10.00">denoptim.graph.Vertex.get</text>
<text text-anchor="middle" x="1097" y="-266.5" font-family="Helvetica,sans-Serif" font-size="10.00">AttachmentPoints</text>
</a>
</g>
</g>
<!-- Node3&#45;&gt;Node5 -->
<g id="edge4" class="edge">
<title>Node3&#45;&gt;Node5</title>
<path fill="none" stroke="midnightblue" d="M563.27,-267.55C587.02,-276.91 619.31,-288.14 649,-293.5 801.23,-320.98 843.49,-318.58 997,-299.5 1010.04,-297.88 1023.82,-295.1 1036.83,-291.97"/>
<polygon fill="midnightblue" stroke="midnightblue" points="1037.75,-295.35 1046.6,-289.53 1036.05,-288.56 1037.75,-295.35"/>
</g>
<!-- Node6 -->
<g id="node6" class="node">
<title>Node6</title>
<g id="a_node6"><a xlink:href="classdenoptim_1_1graph_1_1_vertex.html#a44e705b8949b0fd73763e2e92a118b78" target="_top" xlink:title="Looks into the edges that use any of the APs that belong to this vertex and returns the vertex which ...">
<polygon fill="white" stroke="black" points="665.5,-166.5 665.5,-196.5 793.5,-196.5 793.5,-166.5 665.5,-166.5"/>
<text text-anchor="start" x="673.5" y="-184.5" font-family="Helvetica,sans-Serif" font-size="10.00">denoptim.graph.Vertex.get</text>
<text text-anchor="middle" x="729.5" y="-173.5" font-family="Helvetica,sans-Serif" font-size="10.00">Parent</text>
</a>
</g>
</g>
<!-- Node3&#45;&gt;Node6 -->
<g id="edge5" class="edge">
<title>Node3&#45;&gt;Node6</title>
<path fill="none" stroke="midnightblue" d="M589.08,-237.44C597.24,-234.8 605.41,-231.81 613,-228.5 630.18,-220.99 631.93,-214.26 649,-206.5 654.02,-204.22 659.31,-202.06 664.68,-200.04"/>
<polygon fill="midnightblue" stroke="midnightblue" points="666.15,-203.23 674.38,-196.56 663.78,-196.64 666.15,-203.23"/>
</g>
<!-- Node10 -->
<g id="node10" class="node">
<title>Node10</title>
<g id="a_node10"><a xlink:href="classdenoptim_1_1fragspace_1_1_fragment_space.html#a76a6438c28d260a0f676e22e08cf0dbe" target="_top" xlink:title="Returns the compatibility matrix for ring closing fragment&#45;fragment connections or null if not provid...">
<polygon fill="white" stroke="black" points="652,-215.5 652,-245.5 807,-245.5 807,-215.5 652,-215.5"/>
<text text-anchor="start" x="660" y="-233.5" font-family="Helvetica,sans-Serif" font-size="10.00">denoptim.fragspace.Fragment</text>
<text text-anchor="middle" x="729.5" y="-222.5" font-family="Helvetica,sans-Serif" font-size="10.00">Space.getRCCompatibilityMatrix</text>
</a>
</g>
</g>
<!-- Node3&#45;&gt;Node10 -->
<g id="edge10" class="edge">
<title>Node3&#45;&gt;Node10</title>
<path fill="none" stroke="midnightblue" d="M603.51,-244.21C615.95,-242.85 628.93,-241.43 641.62,-240.03"/>
<polygon fill="midnightblue" stroke="midnightblue" points="642.16,-243.49 651.72,-238.92 641.4,-236.54 642.16,-243.49"/>
</g>
<!-- Node11 -->
<g id="node11" class="node">
<title>Node11</title>
<g id="a_node11"><a xlink:href="classdenoptim_1_1graph_1_1_edge.html#a79f950d1cffe6e323eadc8cd36079841" target="_top" xlink:title=" ">
<polygon fill="white" stroke="black" points="661,-82.5 661,-112.5 798,-112.5 798,-82.5 661,-82.5"/>
<text text-anchor="start" x="669" y="-100.5" font-family="Helvetica,sans-Serif" font-size="10.00">denoptim.graph.Edge.getSrc</text>
<text text-anchor="middle" x="729.5" y="-89.5" font-family="Helvetica,sans-Serif" font-size="10.00">APClass</text>
</a>
</g>
</g>
<!-- Node3&#45;&gt;Node11 -->
<g id="edge11" class="edge">
<title>Node3&#45;&gt;Node11</title>
<path fill="none" stroke="midnightblue" d="M599.4,-237.35C604.25,-234.84 608.86,-231.91 613,-228.5 640.32,-206.02 626.29,-184.63 649,-157.5 661.71,-142.31 678.96,-128.71 694.14,-118.31"/>
<polygon fill="midnightblue" stroke="midnightblue" points="696.39,-121.01 702.79,-112.56 692.52,-115.18 696.39,-121.01"/>
</g>
<!-- Node13 -->
<g id="node13" class="node">
<title>Node13</title>
<g id="a_node13"><a xlink:href="classdenoptim_1_1graph_1_1_edge.html#a9696d3ee0d321b73b06d33bcb8fa86fd" target="_top" xlink:title=" ">
<polygon fill="white" stroke="black" points="649,-265 649,-284 810,-284 810,-265 649,-265"/>
<text text-anchor="middle" x="729.5" y="-272" font-family="Helvetica,sans-Serif" font-size="10.00">denoptim.graph.Edge.getSrcAPID</text>
</a>
</g>
</g>
<!-- Node3&#45;&gt;Node13 -->
<g id="edge13" class="edge">
<title>Node3&#45;&gt;Node13</title>
<path fill="none" stroke="midnightblue" d="M603.51,-260.79C614.93,-262.04 626.81,-263.34 638.5,-264.62"/>
<polygon fill="midnightblue" stroke="midnightblue" points="638.38,-268.13 648.7,-265.74 639.15,-261.17 638.38,-268.13"/>
</g>
<!-- Node6&#45;&gt;Node5 -->
<g id="edge6" class="edge">
<title>Node6&#45;&gt;Node5</title>
<path fill="none" stroke="midnightblue" d="M754.1,-166.33C802.5,-137.31 915.34,-80.55 997,-124.5 1046.51,-151.15 1075.38,-214.61 1088.13,-249.85"/>
<polygon fill="midnightblue" stroke="midnightblue" points="1084.85,-251.1 1091.44,-259.4 1091.47,-248.8 1084.85,-251.1"/>
</g>
<!-- Node7 -->
<g id="node7" class="node">
<title>Node7</title>
<g id="a_node7"><a xlink:href="classdenoptim_1_1graph_1_1_attachment_point.html#ac8551521d38644f5109800b665957ee9" target="_top" xlink:title=" ">
<polygon fill="white" stroke="black" points="854,-210.5 854,-240.5 989,-240.5 989,-210.5 854,-210.5"/>
<text text-anchor="start" x="862" y="-228.5" font-family="Helvetica,sans-Serif" font-size="10.00">denoptim.graph.Attachment</text>
<text text-anchor="middle" x="921.5" y="-217.5" font-family="Helvetica,sans-Serif" font-size="10.00">Point.getOwner</text>
</a>
</g>
</g>
<!-- Node6&#45;&gt;Node7 -->
<g id="edge7" class="edge">
<title>Node6&#45;&gt;Node7</title>
<path fill="none" stroke="midnightblue" d="M793.5,-196.09C810.21,-199.96 828.41,-204.17 845.68,-208.17"/>
<polygon fill="midnightblue" stroke="midnightblue" points="845.19,-211.65 855.72,-210.5 846.76,-204.83 845.19,-211.65"/>
</g>
<!-- Node8 -->
<g id="node8" class="node">
<title>Node8</title>
<g id="a_node8"><a xlink:href="classdenoptim_1_1graph_1_1_edge.html#a658e275a18a50f12474777f5f28c35e9" target="_top" xlink:title=" ">
<polygon fill="white" stroke="black" points="846,-134 846,-153 997,-153 997,-134 846,-134"/>
<text text-anchor="middle" x="921.5" y="-141" font-family="Helvetica,sans-Serif" font-size="10.00">denoptim.graph.Edge.getSrcAP</text>
</a>
</g>
</g>
<!-- Node6&#45;&gt;Node8 -->
<g id="edge8" class="edge">
<title>Node6&#45;&gt;Node8</title>
<path fill="none" stroke="midnightblue" d="M793.5,-168.9C815.89,-164.42 840.96,-159.41 862.88,-155.02"/>
<polygon fill="midnightblue" stroke="midnightblue" points="863.59,-158.45 872.71,-153.06 862.21,-151.59 863.59,-158.45"/>
</g>
<!-- Node9 -->
<g id="node9" class="node">
<title>Node9</title>
<g id="a_node9"><a xlink:href="classdenoptim_1_1graph_1_1_edge.html#a44521a3ad1a83e5d0a6be227e35ceffa" target="_top" xlink:title=" ">
<polygon fill="white" stroke="black" points="846.5,-172 846.5,-191 996.5,-191 996.5,-172 846.5,-172"/>
<text text-anchor="middle" x="921.5" y="-179" font-family="Helvetica,sans-Serif" font-size="10.00">denoptim.graph.Edge.getTrgAP</text>
</a>
</g>
</g>
<!-- Node6&#45;&gt;Node9 -->
<g id="edge9" class="edge">
<title>Node6&#45;&gt;Node9</title>
<path fill="none" stroke="midnightblue" d="M793.5,-181.5C807.15,-181.5 821.79,-181.5 836.11,-181.5"/>
<polygon fill="midnightblue" stroke="midnightblue" points="836.46,-185 846.46,-181.5 836.46,-178 836.46,-185"/>
</g>
<!-- Node12 -->
<g id="node12" class="node">
<title>Node12</title>
<g id="a_node12"><a xlink:href="classdenoptim_1_1graph_1_1_attachment_point.html#a31bed4cb29f6437bf8a888a1dda3fd95" target="_top" xlink:title="Returns the Attachment Point class.">
<polygon fill="white" stroke="black" points="854,-46.5 854,-76.5 989,-76.5 989,-46.5 854,-46.5"/>
<text text-anchor="start" x="862" y="-64.5" font-family="Helvetica,sans-Serif" font-size="10.00">denoptim.graph.Attachment</text>
<text text-anchor="middle" x="921.5" y="-53.5" font-family="Helvetica,sans-Serif" font-size="10.00">Point.getAPClass</text>
</a>
</g>
</g>
<!-- Node11&#45;&gt;Node12 -->
<g id="edge12" class="edge">
<title>Node11&#45;&gt;Node12</title>
<path fill="none" stroke="midnightblue" d="M798.02,-84.71C812.9,-81.89 828.75,-78.88 843.96,-76"/>
<polygon fill="midnightblue" stroke="midnightblue" points="844.66,-79.43 853.83,-74.13 843.36,-72.55 844.66,-79.43"/>
</g>
<!-- Node13&#45;&gt;Node7 -->
<g id="edge16" class="edge">
<title>Node13&#45;&gt;Node7</title>
<path fill="none" stroke="midnightblue" d="M771.41,-264.97C783.82,-262.02 797.49,-258.69 810,-255.5 825.09,-251.65 841.29,-247.35 856.51,-243.23"/>
<polygon fill="midnightblue" stroke="midnightblue" points="857.62,-246.55 866.35,-240.56 855.78,-239.8 857.62,-246.55"/>
</g>
<!-- Node14 -->
<g id="node14" class="node">
<title>Node14</title>
<g id="a_node14"><a xlink:href="classdenoptim_1_1graph_1_1_vertex.html#a367c9d31e4bb13c16e865389c154a767" target="_top" xlink:title="Returns the position of the given AP in the list of APs of this vertex.">
<polygon fill="white" stroke="black" points="857.5,-259.5 857.5,-289.5 985.5,-289.5 985.5,-259.5 857.5,-259.5"/>
<text text-anchor="start" x="865.5" y="-277.5" font-family="Helvetica,sans-Serif" font-size="10.00">denoptim.graph.Vertex.get</text>
<text text-anchor="middle" x="921.5" y="-266.5" font-family="Helvetica,sans-Serif" font-size="10.00">IndexOfAP</text>
</a>
</g>
</g>
<!-- Node13&#45;&gt;Node14 -->
<g id="edge14" class="edge">
<title>Node13&#45;&gt;Node14</title>
<path fill="none" stroke="midnightblue" d="M810.25,-274.5C822.55,-274.5 835.2,-274.5 847.34,-274.5"/>
<polygon fill="midnightblue" stroke="midnightblue" points="847.4,-278 857.4,-274.5 847.4,-271 847.4,-278"/>
</g>
<!-- Node14&#45;&gt;Node5 -->
<g id="edge15" class="edge">
<title>Node14&#45;&gt;Node5</title>
<path fill="none" stroke="midnightblue" d="M985.63,-274.5C997.66,-274.5 1010.36,-274.5 1022.68,-274.5"/>
<polygon fill="midnightblue" stroke="midnightblue" points="1022.92,-278 1032.92,-274.5 1022.92,-271 1022.92,-278"/>
</g>
</g>
</svg>
        <g id="navigator" transform="translate(0 0)" fill="#404254">
                <rect fill="#f2f5e9" fill-opacity="0.5" stroke="#606060" stroke-width=".5" x="0" y="0" width="60" height="60"/>
                <use id="zoomplus" xlink:href="#zoomPlus" x="17" y="9" onmousedown="handleZoom(evt,'in')"/>
                <use id="zoomminus" xlink:href="#zoomMin" x="42" y="9" onmousedown="handleZoom(evt,'out')"/>
                <use id="reset" xlink:href="#resetDef" x="30" y="36" onmousedown="handleReset()"/>
                <g id="arrowUp" xlink:href="#dirArrow" transform="translate(30 24)" onmousedown="handlePan(0,-1)">
                  <use xlink:href="#rim" fill="#404040">
                        <set attributeName="fill" to="#808080" begin="arrowUp.mouseover" end="arrowUp.mouseout"/>
                  </use>
                  <path fill="none" stroke="white" stroke-width="1.5" d="M0,-3.0v7 M-2.5,-0.5L0,-3.0L2.5,-0.5"/>
                </g>
                <g id="arrowRight" xlink:href="#dirArrow" transform="rotate(90) translate(36 -43)" onmousedown="handlePan(1,0)">
                  <use xlink:href="#rim" fill="#404040">
                        <set attributeName="fill" to="#808080" begin="arrowRight.mouseover" end="arrowRight.mouseout"/>
                  </use>
                  <path fill="none" stroke="white" stroke-width="1.5" d="M0,-3.0v7 M-2.5,-0.5L0,-3.0L2.5,-0.5"/>
                </g>
                <g id="arrowDown" xlink:href="#dirArrow" transform="rotate(180) translate(-30 -48)" onmousedown="handlePan(0,1)">
                  <use xlink:href="#rim" fill="#404040">
                        <set attributeName="fill" to="#808080" begin="arrowDown.mouseover" end="arrowDown.mouseout"/>
                  </use>
                  <path fill="none" stroke="white" stroke-width="1.5" d="M0,-3.0v7 M-2.5,-0.5L0,-3.0L2.5,-0.5"/>
                </g>
                <g id="arrowLeft" xlink:href="#dirArrow" transform="rotate(270) translate(-36 17)" onmousedown="handlePan(-1,0)">
                  <use xlink:href="#rim" fill="#404040">
                        <set attributeName="fill" to="#808080" begin="arrowLeft.mouseover" end="arrowLeft.mouseout"/>
                  </use>
                  <path fill="none" stroke="white" stroke-width="1.5" d="M0,-3.0v7 M-2.5,-0.5L0,-3.0L2.5,-0.5"/>
                </g>
        </g>
        <svg viewBox="0 0 15 15" width="100%" height="30px" preserveAspectRatio="xMaxYMin meet">
         <g id="arrow_out" transform="scale(0.3 0.3)">
          <a xlink:href="classdenoptim_1_1graph_1_1rings_1_1_cyclic_graph_handler_1_1_ring_size_manager_a0fc0f3889f18d330fc50f28a4264ca21_cgraph_org.svg" target="_base">
           <rect id="button" ry="5" rx="5" y="6" x="6" height="38" width="38"
                fill="#f2f5e9" fill-opacity="0.5" stroke="#606060" stroke-width="1.0"/>
           <path id="arrow"
             d="M 11.500037,31.436501 C 11.940474,20.09759 22.043105,11.32322 32.158766,21.979434 L 37.068811,17.246167 C 37.068811,17.246167 37.088388,32 37.088388,32 L 22.160133,31.978069 C 22.160133,31.978069 26.997745,27.140456 26.997745,27.140456 C 18.528582,18.264221 13.291696,25.230495 11.500037,31.436501 z"
             style="fill:#404040;"/>
          </a>
         </g>
        </svg>
</svg>
