<?xml version="1.0" encoding="UTF-8" standalone="no"?>
<!DOCTYPE svg PUBLIC "-//W3C//DTD SVG 1.1//EN"
 "http://www.w3.org/Graphics/SVG/1.1/DTD/svg11.dtd">
<!-- Generated by graphviz version 3.0.0 (20221109.1736)
 -->
<!-- Title: denoptim.graph.rings.CyclicGraphHandler.evaluate3DPathClosability Pages: 1 -->
<svg width="1269pt" height="888pt"
 viewBox="0.00 0.00 1269.00 887.50" xmlns="http://www.w3.org/2000/svg" xmlns:xlink="http://www.w3.org/1999/xlink">
<g id="graph0" class="graph" transform="scale(1 1) rotate(0) translate(4 883.5)">
<title>denoptim.graph.rings.CyclicGraphHandler.evaluate3DPathClosability</title>
<polygon fill="white" stroke="transparent" points="-4,4 -4,-883.5 1265,-883.5 1265,4 -4,4"/>
<!-- Node1 -->
<g id="node1" class="node">
<title>Node1</title>
<g id="a_node1"><a xlink:title="Method to evaluate the closability of a single path in a graph representing a molecule.">
<polygon fill="#bfbfbf" stroke="black" points="0,-229 0,-259 192,-259 192,-229 0,-229"/>
<text text-anchor="start" x="8" y="-247" font-family="Helvetica,sans-Serif" font-size="10.00">denoptim.graph.rings.Cyclic</text>
<text text-anchor="middle" x="96" y="-236" font-family="Helvetica,sans-Serif" font-size="10.00">GraphHandler.evaluate3DPathClosability</text>
</a>
</g>
</g>
<!-- Node2 -->
<g id="node2" class="node">
<title>Node2</title>
<g id="a_node2"><a xlink:href="classdenoptim_1_1graph_1_1rings_1_1_ring_closure_parameters.html#a52560f621975a4663bba65af7398ff39" target="_top" xlink:title=" ">
<polygon fill="white" stroke="black" points="228,-610.5 228,-651.5 421,-651.5 421,-610.5 228,-610.5"/>
<text text-anchor="start" x="236" y="-639.5" font-family="Helvetica,sans-Serif" font-size="10.00">denoptim.graph.rings.Ring</text>
<text text-anchor="start" x="236" y="-628.5" font-family="Helvetica,sans-Serif" font-size="10.00">ClosureParameters.checkInterdependent</text>
<text text-anchor="middle" x="324.5" y="-617.5" font-family="Helvetica,sans-Serif" font-size="10.00">Chains</text>
</a>
</g>
</g>
<!-- Node1&#45;&gt;Node2 -->
<g id="edge1" class="edge">
<title>Node1&#45;&gt;Node2</title>
<path fill="none" stroke="midnightblue" d="M97.9,-259.15C101.98,-313.84 123.4,-503.1 228,-602 228.82,-602.77 229.66,-603.53 230.51,-604.26"/>
<polygon fill="midnightblue" stroke="midnightblue" points="228.57,-607.18 238.68,-610.33 232.74,-601.56 228.57,-607.18"/>
</g>
<!-- Node3 -->
<g id="node3" class="node">
<title>Node3</title>
<g id="a_node3"><a xlink:href="classdenoptim_1_1graph_1_1rings_1_1_ring_closures_archive.html#a9c486346c2a2d99d88e275a08b822b41" target="_top" xlink:title=" ">
<polygon fill="white" stroke="black" points="248.5,-562 248.5,-592 400.5,-592 400.5,-562 248.5,-562"/>
<text text-anchor="start" x="256.5" y="-580" font-family="Helvetica,sans-Serif" font-size="10.00">denoptim.graph.rings.Ring</text>
<text text-anchor="middle" x="324.5" y="-569" font-family="Helvetica,sans-Serif" font-size="10.00">ClosuresArchive.containsChain</text>
</a>
</g>
</g>
<!-- Node1&#45;&gt;Node3 -->
<g id="edge2" class="edge">
<title>Node1&#45;&gt;Node3</title>
<path fill="none" stroke="midnightblue" d="M99.06,-259.16C106.57,-308.32 136.9,-464.89 228,-547 232.38,-550.95 237.28,-554.38 242.49,-557.36"/>
<polygon fill="midnightblue" stroke="midnightblue" points="240.99,-560.53 251.49,-561.96 244.18,-554.29 240.99,-560.53"/>
</g>
<!-- Node5 -->
<g id="node5" class="node">
<title>Node5</title>
<g id="a_node5"><a xlink:href="classdenoptim_1_1graph_1_1rings_1_1_ring_closure_parameters.html#a0993b2fb4b6b797ac869966df5b3f4eb" target="_top" xlink:title=" ">
<polygon fill="white" stroke="black" points="480.5,-789.5 480.5,-830.5 640.5,-830.5 640.5,-789.5 480.5,-789.5"/>
<text text-anchor="start" x="488.5" y="-818.5" font-family="Helvetica,sans-Serif" font-size="10.00">denoptim.graph.rings.Ring</text>
<text text-anchor="start" x="488.5" y="-807.5" font-family="Helvetica,sans-Serif" font-size="10.00">ClosureParameters.doExhaustive</text>
<text text-anchor="middle" x="560.5" y="-796.5" font-family="Helvetica,sans-Serif" font-size="10.00">ConfSrch</text>
</a>
</g>
</g>
<!-- Node1&#45;&gt;Node5 -->
<g id="edge4" class="edge">
<title>Node1&#45;&gt;Node5</title>
<path fill="none" stroke="midnightblue" d="M99.58,-259.12C108.28,-305.28 141.07,-445.4 228,-513 297.15,-566.78 360.53,-489.62 421,-553 491.51,-626.91 389.52,-703.32 457,-780 461.22,-784.8 466.16,-788.84 471.55,-792.26"/>
<polygon fill="midnightblue" stroke="midnightblue" points="469.91,-795.35 480.36,-797.12 473.29,-789.22 469.91,-795.35"/>
</g>
<!-- Node6 -->
<g id="node6" class="node">
<title>Node6</title>
<g id="a_node6"><a xlink:href="classdenoptim_1_1graph_1_1rings_1_1_ring_closure_finder.html#a51c84fa00fdd0c1c2642f21070f222fa" target="_top" xlink:title="Giving a list of points in 3D space (the path) this method evaluates whether it exists at least one c...">
<polygon fill="white" stroke="black" points="244.5,-474 244.5,-504 404.5,-504 404.5,-474 244.5,-474"/>
<text text-anchor="start" x="252.5" y="-492" font-family="Helvetica,sans-Serif" font-size="10.00">denoptim.graph.rings.Ring</text>
<text text-anchor="middle" x="324.5" y="-481" font-family="Helvetica,sans-Serif" font-size="10.00">ClosureFinder.evaluateClosability</text>
</a>
</g>
</g>
<!-- Node1&#45;&gt;Node6 -->
<g id="edge5" class="edge">
<title>Node1&#45;&gt;Node6</title>
<path fill="none" stroke="midnightblue" d="M111.17,-259.33C149.79,-301.1 257.07,-417.14 302.62,-466.41"/>
<polygon fill="midnightblue" stroke="midnightblue" points="300.27,-469.03 309.63,-473.99 305.41,-464.27 300.27,-469.03"/>
</g>
<!-- Node14 -->
<g id="node14" class="node">
<title>Node14</title>
<g id="a_node14"><a xlink:href="classdenoptim_1_1programs_1_1_run_time_parameters.html#a5d529ee791990d15bde012d8dcd6b5c1" target="_top" xlink:title="Get the name of the program specific logger.">
<polygon fill="white" stroke="black" points="728.5,-213 728.5,-243 868.5,-243 868.5,-213 728.5,-213"/>
<text text-anchor="start" x="736.5" y="-231" font-family="Helvetica,sans-Serif" font-size="10.00">denoptim.programs.RunTime</text>
<text text-anchor="middle" x="798.5" y="-220" font-family="Helvetica,sans-Serif" font-size="10.00">Parameters.getLogger</text>
</a>
</g>
</g>
<!-- Node1&#45;&gt;Node14 -->
<g id="edge27" class="edge">
<title>Node1&#45;&gt;Node14</title>
<path fill="none" stroke="midnightblue" d="M192.14,-245.87C304.86,-247.46 498.26,-248.21 664,-239 681.47,-238.03 700.2,-236.68 717.94,-235.26"/>
<polygon fill="midnightblue" stroke="midnightblue" points="718.58,-238.72 728.26,-234.41 718.01,-231.74 718.58,-238.72"/>
</g>
<!-- Node21 -->
<g id="node21" class="node">
<title>Node21</title>
<g id="a_node21"><a xlink:href="classdenoptim_1_1graph_1_1rings_1_1_ring_closures_archive.html#a6eba793361c67e5aa480c734f4479a3a" target="_top" xlink:title=" ">
<polygon fill="white" stroke="black" points="250.5,-108.5 250.5,-149.5 398.5,-149.5 398.5,-108.5 250.5,-108.5"/>
<text text-anchor="start" x="258.5" y="-137.5" font-family="Helvetica,sans-Serif" font-size="10.00">denoptim.graph.rings.Ring</text>
<text text-anchor="start" x="258.5" y="-126.5" font-family="Helvetica,sans-Serif" font-size="10.00">ClosuresArchive.getClosability</text>
<text text-anchor="middle" x="324.5" y="-115.5" font-family="Helvetica,sans-Serif" font-size="10.00">OfChain</text>
</a>
</g>
</g>
<!-- Node1&#45;&gt;Node21 -->
<g id="edge26" class="edge">
<title>Node1&#45;&gt;Node21</title>
<path fill="none" stroke="midnightblue" d="M118.96,-228.73C144.39,-211.5 187.92,-183.35 228,-164 235.8,-160.23 244.11,-156.63 252.46,-153.26"/>
<polygon fill="midnightblue" stroke="midnightblue" points="253.85,-156.47 261.88,-149.55 251.29,-149.96 253.85,-156.47"/>
</g>
<!-- Node22 -->
<g id="node22" class="node">
<title>Node22</title>
<g id="a_node22"><a xlink:href="classdenoptim_1_1programs_1_1_run_time_parameters.html#ad9db6420b91ff13e0a8b2d02402c0242" target="_top" xlink:title="Returns the current program&#45;specific randomizer.">
<polygon fill="white" stroke="black" points="254.5,-60 254.5,-90 394.5,-90 394.5,-60 254.5,-60"/>
<text text-anchor="start" x="262.5" y="-78" font-family="Helvetica,sans-Serif" font-size="10.00">denoptim.programs.RunTime</text>
<text text-anchor="middle" x="324.5" y="-67" font-family="Helvetica,sans-Serif" font-size="10.00">Parameters.getRandomizer</text>
</a>
</g>
</g>
<!-- Node1&#45;&gt;Node22 -->
<g id="edge28" class="edge">
<title>Node1&#45;&gt;Node22</title>
<path fill="none" stroke="midnightblue" d="M106.4,-228.57C125.44,-198.69 171.59,-132.9 228,-99 233.34,-95.79 239.09,-93.01 245.03,-90.6"/>
<polygon fill="midnightblue" stroke="midnightblue" points="246.32,-93.86 254.48,-87.11 243.89,-87.29 246.32,-93.86"/>
</g>
<!-- Node23 -->
<g id="node23" class="node">
<title>Node23</title>
<g id="a_node23"><a xlink:href="classdenoptim_1_1graph_1_1rings_1_1_ring_closures_archive.html#a34759e158b7f078edf22d41288c1c54e" target="_top" xlink:title=" ">
<polygon fill="white" stroke="black" points="242.5,-207 242.5,-237 406.5,-237 406.5,-207 242.5,-207"/>
<text text-anchor="start" x="250.5" y="-225" font-family="Helvetica,sans-Serif" font-size="10.00">denoptim.graph.rings.Ring</text>
<text text-anchor="middle" x="324.5" y="-214" font-family="Helvetica,sans-Serif" font-size="10.00">ClosuresArchive.getRCCsOfChain</text>
</a>
</g>
</g>
<!-- Node1&#45;&gt;Node23 -->
<g id="edge29" class="edge">
<title>Node1&#45;&gt;Node23</title>
<path fill="none" stroke="midnightblue" d="M192.07,-234.77C205.39,-233.47 219.04,-232.15 232.28,-230.86"/>
<polygon fill="midnightblue" stroke="midnightblue" points="232.7,-234.34 242.31,-229.89 232.02,-227.37 232.7,-234.34"/>
</g>
<!-- Node27 -->
<g id="node27" class="node">
<title>Node27</title>
<g id="a_node27"><a xlink:href="classdenoptim_1_1graph_1_1rings_1_1_ring_closure_parameters.html#a71e219d0ee276883c9c450980b8d1154" target="_top" xlink:title=" ">
<polygon fill="white" stroke="black" points="238,-0.5 238,-41.5 411,-41.5 411,-0.5 238,-0.5"/>
<text text-anchor="start" x="246" y="-29.5" font-family="Helvetica,sans-Serif" font-size="10.00">denoptim.graph.rings.Ring</text>
<text text-anchor="start" x="246" y="-18.5" font-family="Helvetica,sans-Serif" font-size="10.00">ClosureParameters.getRingClosures</text>
<text text-anchor="middle" x="324.5" y="-7.5" font-family="Helvetica,sans-Serif" font-size="10.00">Archive</text>
</a>
</g>
</g>
<!-- Node1&#45;&gt;Node27 -->
<g id="edge35" class="edge">
<title>Node1&#45;&gt;Node27</title>
<path fill="none" stroke="midnightblue" d="M102.98,-228.8C118.14,-192.27 161.62,-98.99 228,-50 229.44,-48.94 230.91,-47.92 232.42,-46.93"/>
<polygon fill="midnightblue" stroke="midnightblue" points="234.54,-49.75 241.41,-41.68 231.01,-43.71 234.54,-49.75"/>
</g>
<!-- Node28 -->
<g id="node28" class="node">
<title>Node28</title>
<g id="a_node28"><a xlink:href="classdenoptim_1_1graph_1_1rings_1_1_ring_closures_archive.html#a3efd4161cfdd5f89654601637c691e59" target="_top" xlink:title="Append a new closable chain entry to the archive.">
<polygon fill="white" stroke="black" points="493.5,-71 493.5,-101 627.5,-101 627.5,-71 493.5,-71"/>
<text text-anchor="start" x="501.5" y="-89" font-family="Helvetica,sans-Serif" font-size="10.00">denoptim.graph.rings.Ring</text>
<text text-anchor="middle" x="560.5" y="-78" font-family="Helvetica,sans-Serif" font-size="10.00">ClosuresArchive.storeEntry</text>
</a>
</g>
</g>
<!-- Node1&#45;&gt;Node28 -->
<g id="edge36" class="edge">
<title>Node1&#45;&gt;Node28</title>
<path fill="none" stroke="midnightblue" d="M134.35,-228.91C160.3,-218.84 195.86,-205.88 228,-197 312.27,-173.73 347.2,-205.87 421,-159 443.81,-144.51 434.45,-124.89 457,-110 465.04,-104.69 474.11,-100.55 483.45,-97.33"/>
<polygon fill="midnightblue" stroke="midnightblue" points="484.73,-100.59 493.24,-94.28 482.66,-93.91 484.73,-100.59"/>
</g>
<!-- Node4 -->
<g id="node4" class="node">
<title>Node4</title>
<g id="a_node4"><a xlink:href="classdenoptim_1_1graph_1_1rings_1_1_path_sub_graph.html#afd0f067c6267f647e9f5cc80c5882da7" target="_top" xlink:title="Returns all the possible IDs for this chain.">
<polygon fill="white" stroke="black" points="474,-849 474,-879 647,-879 647,-849 474,-849"/>
<text text-anchor="start" x="482" y="-867" font-family="Helvetica,sans-Serif" font-size="10.00">denoptim.graph.rings.Path</text>
<text text-anchor="middle" x="560.5" y="-856" font-family="Helvetica,sans-Serif" font-size="10.00">SubGraph.getAllAlternativeChainIDs</text>
</a>
</g>
</g>
<!-- Node3&#45;&gt;Node4 -->
<g id="edge3" class="edge">
<title>Node3&#45;&gt;Node4</title>
<path fill="none" stroke="midnightblue" d="M400.8,-586.53C408.4,-590.09 415.37,-594.8 421,-601 493.2,-680.54 384.16,-761.05 457,-840 459.49,-842.7 462.23,-845.13 465.15,-847.3"/>
<polygon fill="midnightblue" stroke="midnightblue" points="463.51,-850.41 473.83,-852.79 467.25,-844.49 463.51,-850.41"/>
</g>
<!-- Node6&#45;&gt;Node5 -->
<g id="edge10" class="edge">
<title>Node6&#45;&gt;Node5</title>
<path fill="none" stroke="midnightblue" d="M402.44,-504.12C409.45,-508.01 415.84,-512.89 421,-519 496.59,-608.43 380.53,-691.32 457,-780 461.21,-784.88 466.17,-788.99 471.6,-792.45"/>
<polygon fill="midnightblue" stroke="midnightblue" points="470.02,-795.58 480.47,-797.36 473.41,-789.46 470.02,-795.58"/>
</g>
<!-- Node7 -->
<g id="node7" class="node">
<title>Node7</title>
<g id="a_node7"><a xlink:href="classdenoptim_1_1utils_1_1_math_utils.html#a334843fcf3bc5056d3262754feac30cf" target="_top" xlink:title="Calculate the angle between the 3 points.">
<polygon fill="white" stroke="black" points="487.5,-575.5 487.5,-594.5 633.5,-594.5 633.5,-575.5 487.5,-575.5"/>
<text text-anchor="middle" x="560.5" y="-582.5" font-family="Helvetica,sans-Serif" font-size="10.00">denoptim.utils.MathUtils.angle</text>
</a>
</g>
</g>
<!-- Node6&#45;&gt;Node7 -->
<g id="edge6" class="edge">
<title>Node6&#45;&gt;Node7</title>
<path fill="none" stroke="midnightblue" d="M392.2,-504.12C402.35,-508.03 412.32,-512.92 421,-519 442.56,-534.09 434.57,-552.24 457,-566 463.31,-569.87 470.22,-572.99 477.38,-575.5"/>
<polygon fill="midnightblue" stroke="midnightblue" points="476.67,-578.94 487.26,-578.55 478.74,-572.26 476.67,-578.94"/>
</g>
<!-- Node8 -->
<g id="node8" class="node">
<title>Node8</title>
<g id="a_node8"><a xlink:href="classdenoptim_1_1utils_1_1_math_utils.html#ac6f7f135ee0acd6ee3f9a288a17510c6" target="_top" xlink:title="Compute the dihedral angle.">
<polygon fill="white" stroke="black" points="480,-508 480,-538 641,-538 641,-508 480,-508"/>
<text text-anchor="start" x="488" y="-526" font-family="Helvetica,sans-Serif" font-size="10.00">denoptim.utils.MathUtils.compute</text>
<text text-anchor="middle" x="560.5" y="-515" font-family="Helvetica,sans-Serif" font-size="10.00">DihedralAngle</text>
</a>
</g>
</g>
<!-- Node6&#45;&gt;Node8 -->
<g id="edge8" class="edge">
<title>Node6&#45;&gt;Node8</title>
<path fill="none" stroke="midnightblue" d="M404.72,-500.51C425.67,-503.55 448.42,-506.86 469.88,-509.98"/>
<polygon fill="midnightblue" stroke="midnightblue" points="469.56,-513.47 479.96,-511.44 470.57,-506.54 469.56,-513.47"/>
</g>
<!-- Node9 -->
<g id="node9" class="node">
<title>Node9</title>
<g id="a_node9"><a xlink:href="classdenoptim_1_1graph_1_1rings_1_1_ring_closure.html#a3f5608b6f2844cb59cd1c709c5912072" target="_top" xlink:title="Returns the list of min/max values defining the closability conditions.">
<polygon fill="white" stroke="black" points="483,-632 483,-662 638,-662 638,-632 483,-632"/>
<text text-anchor="start" x="491" y="-650" font-family="Helvetica,sans-Serif" font-size="10.00">denoptim.graph.rings.Ring</text>
<text text-anchor="middle" x="560.5" y="-639" font-family="Helvetica,sans-Serif" font-size="10.00">Closure.getClosabilityConditions</text>
</a>
</g>
</g>
<!-- Node6&#45;&gt;Node9 -->
<g id="edge11" class="edge">
<title>Node6&#45;&gt;Node9</title>
<path fill="none" stroke="midnightblue" d="M398.89,-504.04C407.01,-507.93 414.63,-512.83 421,-519 455.83,-552.74 421.09,-589.41 457,-622 462.01,-626.55 467.71,-630.3 473.8,-633.4"/>
<polygon fill="midnightblue" stroke="midnightblue" points="472.4,-636.61 482.96,-637.49 475.25,-630.22 472.4,-636.61"/>
</g>
<!-- Node12 -->
<g id="node12" class="node">
<title>Node12</title>
<g id="a_node12"><a xlink:href="classdenoptim_1_1graph_1_1rings_1_1_ring_closure_parameters.html#a66e4622d6a39b0dffbc63b82312e9846" target="_top" xlink:title=" ">
<polygon fill="white" stroke="black" points="471.5,-381.5 471.5,-422.5 649.5,-422.5 649.5,-381.5 471.5,-381.5"/>
<text text-anchor="start" x="479.5" y="-410.5" font-family="Helvetica,sans-Serif" font-size="10.00">denoptim.graph.rings.Ring</text>
<text text-anchor="start" x="479.5" y="-399.5" font-family="Helvetica,sans-Serif" font-size="10.00">ClosureParameters.getConfPathExtra</text>
<text text-anchor="middle" x="560.5" y="-388.5" font-family="Helvetica,sans-Serif" font-size="10.00">Tolerance</text>
</a>
</g>
</g>
<!-- Node6&#45;&gt;Node12 -->
<g id="edge14" class="edge">
<title>Node6&#45;&gt;Node12</title>
<path fill="none" stroke="midnightblue" d="M356.35,-473.92C382.69,-461.41 421.78,-443.68 457,-431 462.11,-429.16 467.4,-427.36 472.76,-425.62"/>
<polygon fill="midnightblue" stroke="midnightblue" points="473.98,-428.9 482.45,-422.54 471.86,-422.23 473.98,-428.9"/>
</g>
<!-- Node13 -->
<g id="node13" class="node">
<title>Node13</title>
<g id="a_node13"><a xlink:href="classdenoptim_1_1graph_1_1rings_1_1_ring_closure_parameters.html#a6dc80f26f3be515e7ea51b1314228a7f" target="_top" xlink:title=" ">
<polygon fill="white" stroke="black" points="473.5,-333 473.5,-363 647.5,-363 647.5,-333 473.5,-333"/>
<text text-anchor="start" x="481.5" y="-351" font-family="Helvetica,sans-Serif" font-size="10.00">denoptim.graph.rings.Ring</text>
<text text-anchor="middle" x="560.5" y="-340" font-family="Helvetica,sans-Serif" font-size="10.00">ClosureParameters.getLinearityLimit</text>
</a>
</g>
</g>
<!-- Node6&#45;&gt;Node13 -->
<g id="edge15" class="edge">
<title>Node6&#45;&gt;Node13</title>
<path fill="none" stroke="midnightblue" d="M337.95,-473.82C359.49,-448.61 406.28,-398.31 457,-372 460.74,-370.06 464.64,-368.27 468.64,-366.63"/>
<polygon fill="midnightblue" stroke="midnightblue" points="470,-369.86 478.12,-363.05 467.53,-363.31 470,-369.86"/>
</g>
<!-- Node6&#45;&gt;Node14 -->
<g id="edge16" class="edge">
<title>Node6&#45;&gt;Node14</title>
<path fill="none" stroke="midnightblue" d="M332.77,-473.94C349.59,-440.81 394.58,-361.52 457,-323 536.97,-273.66 573.91,-306.7 664,-280 694.66,-270.91 728.2,-257.84 753.99,-247.07"/>
<polygon fill="midnightblue" stroke="midnightblue" points="755.62,-250.18 763.47,-243.07 752.9,-243.73 755.62,-250.18"/>
</g>
<!-- Node15 -->
<g id="node15" class="node">
<title>Node15</title>
<g id="a_node15"><a xlink:href="classdenoptim_1_1graph_1_1rings_1_1_ring_closure_parameters.html#a67ea0a5dedcce3fe20ad197524f8138c" target="_top" xlink:title=" ">
<polygon fill="white" stroke="black" points="476.5,-729.5 476.5,-770.5 644.5,-770.5 644.5,-729.5 476.5,-729.5"/>
<text text-anchor="start" x="484.5" y="-758.5" font-family="Helvetica,sans-Serif" font-size="10.00">denoptim.graph.rings.Ring</text>
<text text-anchor="start" x="484.5" y="-747.5" font-family="Helvetica,sans-Serif" font-size="10.00">ClosureParameters.getMaxNumber</text>
<text text-anchor="middle" x="560.5" y="-736.5" font-family="Helvetica,sans-Serif" font-size="10.00">RotatableBonds</text>
</a>
</g>
</g>
<!-- Node6&#45;&gt;Node15 -->
<g id="edge17" class="edge">
<title>Node6&#45;&gt;Node15</title>
<path fill="none" stroke="midnightblue" d="M401.74,-504.07C408.97,-507.97 415.61,-512.87 421,-519 481.23,-587.48 395.8,-653.39 457,-721 460.16,-724.49 463.7,-727.57 467.52,-730.29"/>
<polygon fill="midnightblue" stroke="midnightblue" points="465.93,-733.42 476.28,-735.69 469.6,-727.46 465.93,-733.42"/>
</g>
<!-- Node16 -->
<g id="node16" class="node">
<title>Node16</title>
<g id="a_node16"><a xlink:href="classdenoptim_1_1graph_1_1rings_1_1_ring_closure_parameters.html#ae9e77465faa29a48ad51fe3608a6fd2c" target="_top" xlink:title=" ">
<polygon fill="white" stroke="black" points="457,-681 457,-711 664,-711 664,-681 457,-681"/>
<text text-anchor="start" x="465" y="-699" font-family="Helvetica,sans-Serif" font-size="10.00">denoptim.graph.rings.Ring</text>
<text text-anchor="middle" x="560.5" y="-688" font-family="Helvetica,sans-Serif" font-size="10.00">ClosureParameters.getPathConfSearchStep</text>
</a>
</g>
</g>
<!-- Node6&#45;&gt;Node16 -->
<g id="edge18" class="edge">
<title>Node6&#45;&gt;Node16</title>
<path fill="none" stroke="midnightblue" d="M400.94,-504.13C408.42,-508.02 415.32,-512.89 421,-519 468.55,-570.17 407.58,-622.63 457,-672 457.95,-672.94 458.92,-673.85 459.92,-674.73"/>
<polygon fill="midnightblue" stroke="midnightblue" points="457.99,-677.66 468.1,-680.82 462.17,-672.04 457.99,-677.66"/>
</g>
<!-- Node17 -->
<g id="node17" class="node">
<title>Node17</title>
<g id="a_node17"><a xlink:href="classdenoptim_1_1graph_1_1rings_1_1_ring_closure_finder.html#ac379c1c38a5f22cb0f5ed75927282a1a" target="_top" xlink:title="Scan rotatable space looking for conformations that satisfy closability condition.">
<polygon fill="white" stroke="black" points="476,-441 476,-471 645,-471 645,-441 476,-441"/>
<text text-anchor="start" x="484" y="-459" font-family="Helvetica,sans-Serif" font-size="10.00">denoptim.graph.rings.Ring</text>
<text text-anchor="middle" x="560.5" y="-448" font-family="Helvetica,sans-Serif" font-size="10.00">ClosureFinder.hasClosableRotamer</text>
</a>
</g>
</g>
<!-- Node6&#45;&gt;Node17 -->
<g id="edge19" class="edge">
<title>Node6&#45;&gt;Node17</title>
<path fill="none" stroke="midnightblue" d="M404.72,-477.83C424.34,-475.06 445.55,-472.07 465.8,-469.21"/>
<polygon fill="midnightblue" stroke="midnightblue" points="466.55,-472.64 475.96,-467.78 465.57,-465.71 466.55,-472.64"/>
</g>
<!-- Node7&#45;&gt;Node7 -->
<g id="edge7" class="edge">
<title>Node7&#45;&gt;Node7</title>
<path fill="none" stroke="midnightblue" d="M524.42,-594.61C506.3,-603.46 518.32,-613 560.5,-613 592.13,-613 606.8,-607.63 604.52,-601.22"/>
<polygon fill="midnightblue" stroke="midnightblue" points="606.51,-598.32 596.58,-594.61 602.03,-603.7 606.51,-598.32"/>
</g>
<!-- Node8&#45;&gt;Node8 -->
<g id="edge9" class="edge">
<title>Node8&#45;&gt;Node8</title>
<path fill="none" stroke="midnightblue" d="M519.37,-538.16C509.45,-547.56 523.16,-556.5 560.5,-556.5 583.83,-556.5 597.94,-553.01 602.82,-548.09"/>
<polygon fill="midnightblue" stroke="midnightblue" points="606.29,-547.67 601.63,-538.16 599.34,-548.5 606.29,-547.67"/>
</g>
<!-- Node10 -->
<g id="node10" class="node">
<title>Node10</title>
<g id="a_node10"><a xlink:href="classdenoptim_1_1graph_1_1rings_1_1_ring_closure_parameters.html#a2b37c2553ba1f6e445f3ad5f0e606e0e" target="_top" xlink:title=" ">
<polygon fill="white" stroke="black" points="704,-656 704,-686 893,-686 893,-656 704,-656"/>
<text text-anchor="start" x="712" y="-674" font-family="Helvetica,sans-Serif" font-size="10.00">denoptim.graph.rings.Ring</text>
<text text-anchor="middle" x="798.5" y="-663" font-family="Helvetica,sans-Serif" font-size="10.00">ClosureParameters.getRCDistTolerance</text>
</a>
</g>
</g>
<!-- Node9&#45;&gt;Node10 -->
<g id="edge12" class="edge">
<title>Node9&#45;&gt;Node10</title>
<path fill="none" stroke="midnightblue" d="M638.12,-654.79C655.92,-656.6 675.16,-658.56 693.9,-660.46"/>
<polygon fill="midnightblue" stroke="midnightblue" points="693.64,-663.96 703.95,-661.49 694.35,-656.99 693.64,-663.96"/>
</g>
<!-- Node11 -->
<g id="node11" class="node">
<title>Node11</title>
<g id="a_node11"><a xlink:href="classdenoptim_1_1graph_1_1rings_1_1_ring_closure_parameters.html#a3d9bbb2c0fb41a4e940af508adff49ac" target="_top" xlink:title=" ">
<polygon fill="white" stroke="black" points="700,-607 700,-637 897,-637 897,-607 700,-607"/>
<text text-anchor="start" x="708" y="-625" font-family="Helvetica,sans-Serif" font-size="10.00">denoptim.graph.rings.Ring</text>
<text text-anchor="middle" x="798.5" y="-614" font-family="Helvetica,sans-Serif" font-size="10.00">ClosureParameters.getRCDotPrTolerance</text>
</a>
</g>
</g>
<!-- Node9&#45;&gt;Node11 -->
<g id="edge13" class="edge">
<title>Node9&#45;&gt;Node11</title>
<path fill="none" stroke="midnightblue" d="M638.12,-638.88C654.55,-637.14 672.2,-635.27 689.56,-633.43"/>
<polygon fill="midnightblue" stroke="midnightblue" points="690.16,-636.89 699.73,-632.36 689.42,-629.93 690.16,-636.89"/>
</g>
<!-- Node17&#45;&gt;Node17 -->
<g id="edge20" class="edge">
<title>Node17&#45;&gt;Node17</title>
<path fill="none" stroke="midnightblue" d="M519.37,-471.16C509.45,-480.56 523.16,-489.5 560.5,-489.5 583.83,-489.5 597.94,-486.01 602.82,-481.09"/>
<polygon fill="midnightblue" stroke="midnightblue" points="606.29,-480.67 601.63,-471.16 599.34,-481.5 606.29,-480.67"/>
</g>
<!-- Node18 -->
<g id="node18" class="node">
<title>Node18</title>
<g id="a_node18"><a xlink:href="classdenoptim_1_1graph_1_1rings_1_1_ring_closure.html#a195a0d2736b579d139500a36eeee7480" target="_top" xlink:title="Evaluate closability by comparing the distances and the dot product with the given critera.">
<polygon fill="white" stroke="black" points="734.5,-465 734.5,-495 862.5,-495 862.5,-465 734.5,-465"/>
<text text-anchor="start" x="742.5" y="-483" font-family="Helvetica,sans-Serif" font-size="10.00">denoptim.graph.rings.Ring</text>
<text text-anchor="middle" x="798.5" y="-472" font-family="Helvetica,sans-Serif" font-size="10.00">Closure.isClosable</text>
</a>
</g>
</g>
<!-- Node17&#45;&gt;Node18 -->
<g id="edge21" class="edge">
<title>Node17&#45;&gt;Node18</title>
<path fill="none" stroke="midnightblue" d="M645.04,-464.5C670.79,-467.11 698.95,-469.98 723.98,-472.52"/>
<polygon fill="midnightblue" stroke="midnightblue" points="723.83,-476.03 734.13,-473.56 724.54,-469.06 723.83,-476.03"/>
</g>
<!-- Node19 -->
<g id="node19" class="node">
<title>Node19</title>
<g id="a_node19"><a xlink:href="classdenoptim_1_1graph_1_1rings_1_1_ring_closure_finder.html#a07eef6f45a5828caaa382d5036bfd110" target="_top" xlink:title="Method for reporting a path of atoms (list of points) as SDF file.">
<polygon fill="white" stroke="black" points="725.5,-416 725.5,-446 871.5,-446 871.5,-416 725.5,-416"/>
<text text-anchor="start" x="733.5" y="-434" font-family="Helvetica,sans-Serif" font-size="10.00">denoptim.graph.rings.Ring</text>
<text text-anchor="middle" x="798.5" y="-423" font-family="Helvetica,sans-Serif" font-size="10.00">ClosureFinder.reportForDebug</text>
</a>
</g>
</g>
<!-- Node17&#45;&gt;Node19 -->
<g id="edge23" class="edge">
<title>Node17&#45;&gt;Node19</title>
<path fill="none" stroke="midnightblue" d="M645.04,-447.15C667.91,-444.73 692.67,-442.1 715.46,-439.69"/>
<polygon fill="midnightblue" stroke="midnightblue" points="715.85,-443.17 725.43,-438.63 715.12,-436.21 715.85,-443.17"/>
</g>
<!-- Node18&#45;&gt;Node18 -->
<g id="edge22" class="edge">
<title>Node18&#45;&gt;Node18</title>
<path fill="none" stroke="midnightblue" d="M762.6,-495.16C753.94,-504.56 765.91,-513.5 798.5,-513.5 818.36,-513.5 830.56,-510.18 835.1,-505.46"/>
<polygon fill="midnightblue" stroke="midnightblue" points="838.57,-504.9 834.4,-495.16 831.59,-505.37 838.57,-504.9"/>
</g>
<!-- Node20 -->
<g id="node20" class="node">
<title>Node20</title>
<g id="a_node20"><a xlink:href="classdenoptim_1_1io_1_1_denoptim_i_o.html#a33af2ecd8e9f62a54855b2a7866262b3" target="_top" xlink:title="Writes IAtomContainer to SDF file.">
<polygon fill="white" stroke="black" points="934.5,-416 934.5,-446 1077.5,-446 1077.5,-416 934.5,-416"/>
<text text-anchor="start" x="942.5" y="-434" font-family="Helvetica,sans-Serif" font-size="10.00">denoptim.io.DenoptimIO.write</text>
<text text-anchor="middle" x="1006" y="-423" font-family="Helvetica,sans-Serif" font-size="10.00">SDFFile</text>
</a>
</g>
</g>
<!-- Node19&#45;&gt;Node20 -->
<g id="edge24" class="edge">
<title>Node19&#45;&gt;Node20</title>
<path fill="none" stroke="midnightblue" d="M871.66,-431C888.68,-431 906.92,-431 924.29,-431"/>
<polygon fill="midnightblue" stroke="midnightblue" points="924.4,-434.5 934.4,-431 924.4,-427.5 924.4,-434.5"/>
</g>
<!-- Node20&#45;&gt;Node20 -->
<g id="edge25" class="edge">
<title>Node20&#45;&gt;Node20</title>
<path fill="none" stroke="midnightblue" d="M974.28,-446.16C966.63,-455.56 977.21,-464.5 1006,-464.5 1023.55,-464.5 1034.33,-461.18 1038.34,-456.46"/>
<polygon fill="midnightblue" stroke="midnightblue" points="1041.81,-455.93 1037.72,-446.16 1034.83,-456.35 1041.81,-455.93"/>
</g>
<!-- Node23&#45;&gt;Node14 -->
<g id="edge30" class="edge">
<title>Node23&#45;&gt;Node14</title>
<path fill="none" stroke="midnightblue" d="M406.64,-223.03C493.86,-224.14 631.6,-225.89 718.13,-226.99"/>
<polygon fill="midnightblue" stroke="midnightblue" points="718.11,-230.49 728.16,-227.12 718.2,-223.49 718.11,-230.49"/>
</g>
<!-- Node24 -->
<g id="node24" class="node">
<title>Node24</title>
<g id="a_node24"><a xlink:href="classdenoptim_1_1graph_1_1rings_1_1_ring_closures_archive.html#a90d692f78a5016dc5e2e0f4eacb4d739" target="_top" xlink:title="Get serialized RingClosingConformations from archive.">
<polygon fill="white" stroke="black" points="468,-120 468,-150 653,-150 653,-120 468,-120"/>
<text text-anchor="start" x="476" y="-138" font-family="Helvetica,sans-Serif" font-size="10.00">denoptim.graph.rings.Ring</text>
<text text-anchor="middle" x="560.5" y="-127" font-family="Helvetica,sans-Serif" font-size="10.00">ClosuresArchive.getRCCsFromArchive</text>
</a>
</g>
</g>
<!-- Node23&#45;&gt;Node24 -->
<g id="edge31" class="edge">
<title>Node23&#45;&gt;Node24</title>
<path fill="none" stroke="midnightblue" d="M387.3,-206.95C398.89,-202.93 410.61,-197.99 421,-192 439.8,-181.16 437.81,-169.14 457,-159 460.68,-157.06 464.52,-155.27 468.46,-153.62"/>
<polygon fill="midnightblue" stroke="midnightblue" points="469.72,-156.89 477.8,-150.04 467.21,-150.35 469.72,-156.89"/>
</g>
<!-- Node26 -->
<g id="node26" class="node">
<title>Node26</title>
<g id="a_node26"><a xlink:href="classdenoptim_1_1graph_1_1rings_1_1_ring_closure_parameters.html#a1233e8cbc64fc9ed1f06852c733b15ef" target="_top" xlink:title="Returns the level of verbosity, i.e., the amount of log that we want to print.">
<polygon fill="white" stroke="black" points="482.5,-169 482.5,-199 638.5,-199 638.5,-169 482.5,-169"/>
<text text-anchor="start" x="490.5" y="-187" font-family="Helvetica,sans-Serif" font-size="10.00">denoptim.graph.rings.Ring</text>
<text text-anchor="middle" x="560.5" y="-176" font-family="Helvetica,sans-Serif" font-size="10.00">ClosureParameters.getVerbosity</text>
</a>
</g>
</g>
<!-- Node23&#45;&gt;Node26 -->
<g id="edge34" class="edge">
<title>Node23&#45;&gt;Node26</title>
<path fill="none" stroke="midnightblue" d="M406.69,-208.82C427.88,-205.37 450.81,-201.65 472.3,-198.16"/>
<polygon fill="midnightblue" stroke="midnightblue" points="473.09,-201.58 482.4,-196.52 471.96,-194.67 473.09,-201.58"/>
</g>
<!-- Node24&#45;&gt;Node14 -->
<g id="edge32" class="edge">
<title>Node24&#45;&gt;Node14</title>
<path fill="none" stroke="midnightblue" d="M635.5,-150.01C645.19,-152.65 654.91,-155.65 664,-159 699.47,-172.09 737.56,-192.47 763.94,-207.69"/>
<polygon fill="midnightblue" stroke="midnightblue" points="762.36,-210.82 772.76,-212.84 765.89,-204.78 762.36,-210.82"/>
</g>
<!-- Node25 -->
<g id="node25" class="node">
<title>Node25</title>
<g id="a_node25"><a xlink:href="classdenoptim_1_1graph_1_1rings_1_1_ring_closure_parameters.html#a8f39942e5774cec5686e959fa588e301" target="_top" xlink:title=" ">
<polygon fill="white" stroke="black" points="716,-117.5 716,-158.5 881,-158.5 881,-117.5 716,-117.5"/>
<text text-anchor="start" x="724" y="-146.5" font-family="Helvetica,sans-Serif" font-size="10.00">denoptim.graph.rings.Ring</text>
<text text-anchor="start" x="724" y="-135.5" font-family="Helvetica,sans-Serif" font-size="10.00">ClosureParameters.getRCCLibrary</text>
<text text-anchor="middle" x="798.5" y="-124.5" font-family="Helvetica,sans-Serif" font-size="10.00">Folder</text>
</a>
</g>
</g>
<!-- Node24&#45;&gt;Node25 -->
<g id="edge33" class="edge">
<title>Node24&#45;&gt;Node25</title>
<path fill="none" stroke="midnightblue" d="M653.08,-136.16C670.41,-136.38 688.54,-136.61 705.87,-136.84"/>
<polygon fill="midnightblue" stroke="midnightblue" points="705.93,-140.34 715.97,-136.96 706.02,-133.34 705.93,-140.34"/>
</g>
<!-- Node28&#45;&gt;Node14 -->
<g id="edge41" class="edge">
<title>Node28&#45;&gt;Node14</title>
<path fill="none" stroke="midnightblue" d="M627.67,-93.48C640.53,-97.07 653.31,-102.33 664,-110 688.65,-127.69 678.51,-146.59 700,-168 716.22,-184.15 737.57,-197.91 756.16,-208.17"/>
<polygon fill="midnightblue" stroke="midnightblue" points="754.56,-211.28 765.03,-212.91 757.87,-205.11 754.56,-211.28"/>
</g>
<!-- Node28&#45;&gt;Node25 -->
<g id="edge42" class="edge">
<title>Node28&#45;&gt;Node25</title>
<path fill="none" stroke="midnightblue" d="M627.55,-100.55C651.86,-105.91 679.83,-112.07 705.98,-117.83"/>
<polygon fill="midnightblue" stroke="midnightblue" points="705.38,-121.29 715.9,-120.02 706.89,-114.45 705.38,-121.29"/>
</g>
<!-- Node29 -->
<g id="node29" class="node">
<title>Node29</title>
<g id="a_node29"><a xlink:href="classdenoptim_1_1graph_1_1rings_1_1_ring_closures_archive.html#a16ab04b77232f70ee5fec35b80caa36f" target="_top" xlink:title=" ">
<polygon fill="white" stroke="black" points="730,-69 730,-99 867,-99 867,-69 730,-69"/>
<text text-anchor="start" x="738" y="-87" font-family="Helvetica,sans-Serif" font-size="10.00">denoptim.graph.rings.Ring</text>
<text text-anchor="middle" x="798.5" y="-76" font-family="Helvetica,sans-Serif" font-size="10.00">ClosuresArchive.addRecord</text>
</a>
</g>
</g>
<!-- Node28&#45;&gt;Node29 -->
<g id="edge37" class="edge">
<title>Node28&#45;&gt;Node29</title>
<path fill="none" stroke="midnightblue" d="M627.55,-85.44C656.1,-85.2 689.71,-84.91 719.47,-84.66"/>
<polygon fill="midnightblue" stroke="midnightblue" points="719.85,-88.16 729.82,-84.57 719.79,-81.16 719.85,-88.16"/>
</g>
<!-- Node33 -->
<g id="node33" class="node">
<title>Node33</title>
<g id="a_node33"><a xlink:href="classdenoptim_1_1graph_1_1rings_1_1_ring_closure_parameters.html#ace3ced16478d3b2d25d64038c3be7011" target="_top" xlink:title=" ">
<polygon fill="white" stroke="black" points="716,-9.5 716,-50.5 881,-50.5 881,-9.5 716,-9.5"/>
<text text-anchor="start" x="724" y="-38.5" font-family="Helvetica,sans-Serif" font-size="10.00">denoptim.graph.rings.Ring</text>
<text text-anchor="start" x="724" y="-27.5" font-family="Helvetica,sans-Serif" font-size="10.00">ClosureParameters.getRCCLibrary</text>
<text text-anchor="middle" x="798.5" y="-16.5" font-family="Helvetica,sans-Serif" font-size="10.00">IndexFile</text>
</a>
</g>
</g>
<!-- Node28&#45;&gt;Node33 -->
<g id="edge43" class="edge">
<title>Node28&#45;&gt;Node33</title>
<path fill="none" stroke="midnightblue" d="M624.74,-70.99C649.67,-65.08 678.79,-58.17 705.94,-51.73"/>
<polygon fill="midnightblue" stroke="midnightblue" points="706.92,-55.09 715.84,-49.38 705.3,-48.28 706.92,-55.09"/>
</g>
<!-- Node30 -->
<g id="node30" class="node">
<title>Node30</title>
<g id="a_node30"><a xlink:href="classdenoptim_1_1graph_1_1rings_1_1_closable_chain.html#ab17dd74bc55e826f3aa69ac69a674639" target="_top" xlink:title="Get the vertex ID of the turning point.Note that since the chain is a path in a graph the relative di...">
<polygon fill="white" stroke="black" points="933,-69 933,-99 1079,-99 1079,-69 933,-69"/>
<text text-anchor="start" x="941" y="-87" font-family="Helvetica,sans-Serif" font-size="10.00">denoptim.graph.rings.Closable</text>
<text text-anchor="middle" x="1006" y="-76" font-family="Helvetica,sans-Serif" font-size="10.00">Chain.getTurningPointIdx</text>
</a>
</g>
</g>
<!-- Node29&#45;&gt;Node30 -->
<g id="edge38" class="edge">
<title>Node29&#45;&gt;Node30</title>
<path fill="none" stroke="midnightblue" d="M867.07,-84C884.84,-84 904.2,-84 922.65,-84"/>
<polygon fill="midnightblue" stroke="midnightblue" points="922.79,-87.5 932.79,-84 922.79,-80.5 922.79,-87.5"/>
</g>
<!-- Node31 -->
<g id="node31" class="node">
<title>Node31</title>
<g id="a_node31"><a xlink:href="classdenoptim_1_1graph_1_1rings_1_1_chain_link.html#a22ada7777c4665cbe71df26caa560d54" target="_top" xlink:title=" ">
<polygon fill="white" stroke="black" points="1121.5,-94 1121.5,-124 1254.5,-124 1254.5,-94 1121.5,-94"/>
<text text-anchor="start" x="1129.5" y="-112" font-family="Helvetica,sans-Serif" font-size="10.00">denoptim.graph.rings.Chain</text>
<text text-anchor="middle" x="1188" y="-101" font-family="Helvetica,sans-Serif" font-size="10.00">Link.getIdx</text>
</a>
</g>
</g>
<!-- Node30&#45;&gt;Node31 -->
<g id="edge39" class="edge">
<title>Node30&#45;&gt;Node31</title>
<path fill="none" stroke="midnightblue" d="M1079.18,-94.02C1089.7,-95.49 1100.56,-97 1111.16,-98.47"/>
<polygon fill="midnightblue" stroke="midnightblue" points="1110.83,-101.95 1121.22,-99.86 1111.79,-95.02 1110.83,-101.95"/>
</g>
<!-- Node32 -->
<g id="node32" class="node">
<title>Node32</title>
<g id="a_node32"><a xlink:href="classdenoptim_1_1graph_1_1rings_1_1_closable_chain.html#a2c40d6aa717937f6f478f413cbcc1eb5" target="_top" xlink:title="Get a specific ChainLink">
<polygon fill="white" stroke="black" points="1115,-45 1115,-75 1261,-75 1261,-45 1115,-45"/>
<text text-anchor="start" x="1123" y="-63" font-family="Helvetica,sans-Serif" font-size="10.00">denoptim.graph.rings.Closable</text>
<text text-anchor="middle" x="1188" y="-52" font-family="Helvetica,sans-Serif" font-size="10.00">Chain.getLink</text>
</a>
</g>
</g>
<!-- Node30&#45;&gt;Node32 -->
<g id="edge40" class="edge">
<title>Node30&#45;&gt;Node32</title>
<path fill="none" stroke="midnightblue" d="M1079.18,-74.38C1087.61,-73.25 1096.27,-72.1 1104.82,-70.96"/>
<polygon fill="midnightblue" stroke="midnightblue" points="1105.36,-74.42 1114.81,-69.63 1104.43,-67.48 1105.36,-74.42"/>
</g>
</g>
</svg>
