<?xml version="1.0" encoding="UTF-8" standalone="no"?>
<!DOCTYPE svg PUBLIC "-//W3C//DTD SVG 1.1//EN"
 "http://www.w3.org/Graphics/SVG/1.1/DTD/svg11.dtd">
<!-- Generated by graphviz version 3.0.0 (20221109.1736)
 -->
<!-- Title: denoptim.graph.APClass.equals Pages: 1 -->
<svg width="604pt" height="192pt"
 viewBox="0.00 0.00 604.00 191.50" xmlns="http://www.w3.org/2000/svg" xmlns:xlink="http://www.w3.org/1999/xlink">
<g id="graph0" class="graph" transform="scale(1 1) rotate(0) translate(4 187.5)">
<title>denoptim.graph.APClass.equals</title>
<polygon fill="white" stroke="transparent" points="-4,4 -4,-187.5 600,-187.5 600,4 -4,4"/>
<!-- Node1 -->
<g id="node1" class="node">
<title>Node1</title>
<g id="a_node1"><a xlink:title=" ">
<polygon fill="#bfbfbf" stroke="black" points="442,-79 442,-98 596,-98 596,-79 442,-79"/>
<text text-anchor="middle" x="519" y="-86" font-family="Helvetica,sans-Serif" font-size="10.00">denoptim.graph.APClass.equals</text>
</a>
</g>
</g>
<!-- Node2 -->
<g id="node2" class="node">
<title>Node2</title>
<g id="a_node2"><a xlink:href="classdenoptim_1_1fragspace_1_1_fragment_space.html#a4e447e0c71f560b1406af9322ece94ee" target="_top" xlink:title=" ">
<polygon fill="white" stroke="black" points="219.5,-147.5 219.5,-177.5 404.5,-177.5 404.5,-147.5 219.5,-147.5"/>
<text text-anchor="start" x="227.5" y="-165.5" font-family="Helvetica,sans-Serif" font-size="10.00">denoptim.fragspace.Fragment</text>
<text text-anchor="middle" x="312" y="-154.5" font-family="Helvetica,sans-Serif" font-size="10.00">Space.getCappingGroupsWithAPClass</text>
</a>
</g>
</g>
<!-- Node1&#45;&gt;Node2 -->
<g id="edge1" class="edge">
<title>Node1&#45;&gt;Node2</title>
<path fill="none" stroke="midnightblue" d="M489.75,-102.7C467.42,-113.53 435.24,-128.28 406,-138.5 396.87,-141.69 387.1,-144.67 377.46,-147.36"/>
<polygon fill="midnightblue" stroke="midnightblue" points="491.54,-105.72 498.97,-98.17 488.45,-99.43 491.54,-105.72"/>
</g>
<!-- Node4 -->
<g id="node4" class="node">
<title>Node4</title>
<g id="a_node4"><a xlink:href="classdenoptim_1_1fragspace_1_1_fragment_space.html#aaebd9e32b3be01d8eb6ddb12fdd84dfb" target="_top" xlink:title=" ">
<polygon fill="white" stroke="black" points="221.5,-98.5 221.5,-128.5 402.5,-128.5 402.5,-98.5 221.5,-98.5"/>
<text text-anchor="start" x="229.5" y="-116.5" font-family="Helvetica,sans-Serif" font-size="10.00">denoptim.fragspace.Fragment</text>
<text text-anchor="middle" x="312" y="-105.5" font-family="Helvetica,sans-Serif" font-size="10.00">Space.getCappingVertexWithAPClass</text>
</a>
</g>
</g>
<!-- Node1&#45;&gt;Node4 -->
<g id="edge3" class="edge">
<title>Node1&#45;&gt;Node4</title>
<path fill="none" stroke="midnightblue" d="M431.98,-98.99C422.33,-100.17 412.48,-101.37 402.78,-102.55"/>
<polygon fill="midnightblue" stroke="midnightblue" points="432.45,-102.46 441.96,-97.77 431.61,-95.51 432.45,-102.46"/>
</g>
<!-- Node5 -->
<g id="node5" class="node">
<title>Node5</title>
<g id="a_node5"><a xlink:href="classdenoptim_1_1programs_1_1fragmenter_1_1_cutting_rule.html#a53c5eb326cafb295b67556494e23eb37" target="_top" xlink:title="Get complementary class.">
<polygon fill="white" stroke="black" points="218,-49.5 218,-79.5 406,-79.5 406,-49.5 218,-49.5"/>
<text text-anchor="start" x="226" y="-67.5" font-family="Helvetica,sans-Serif" font-size="10.00">denoptim.programs.fragmenter.</text>
<text text-anchor="middle" x="312" y="-56.5" font-family="Helvetica,sans-Serif" font-size="10.00">CuttingRule.getComplementaryAPClass</text>
</a>
</g>
</g>
<!-- Node1&#45;&gt;Node5 -->
<g id="edge4" class="edge">
<title>Node1&#45;&gt;Node5</title>
<path fill="none" stroke="midnightblue" d="M431.77,-78.4C423.35,-77.42 414.77,-76.41 406.28,-75.42"/>
<polygon fill="midnightblue" stroke="midnightblue" points="431.62,-81.91 441.96,-79.6 432.43,-74.96 431.62,-81.91"/>
</g>
<!-- Node6 -->
<g id="node6" class="node">
<title>Node6</title>
<g id="a_node6"><a xlink:href="classdenoptim_1_1graph_1_1_a_p_class_test.html#ad0ca85848c4e5c3507ab801549ae8d77" target="_top" xlink:title=" ">
<polygon fill="white" stroke="black" points="231.5,-0.5 231.5,-30.5 392.5,-30.5 392.5,-0.5 231.5,-0.5"/>
<text text-anchor="start" x="239.5" y="-18.5" font-family="Helvetica,sans-Serif" font-size="10.00">denoptim.graph.APClassTest.test</text>
<text text-anchor="middle" x="312" y="-7.5" font-family="Helvetica,sans-Serif" font-size="10.00">Equals</text>
</a>
</g>
</g>
<!-- Node1&#45;&gt;Node6 -->
<g id="edge5" class="edge">
<title>Node1&#45;&gt;Node6</title>
<path fill="none" stroke="midnightblue" d="M488.85,-74.65C466.5,-64.37 434.73,-50.46 406,-40.5 395.73,-36.94 384.68,-33.58 373.91,-30.54"/>
<polygon fill="midnightblue" stroke="midnightblue" points="487.56,-77.91 498.11,-78.95 490.51,-71.56 487.56,-77.91"/>
</g>
<!-- Node3 -->
<g id="node3" class="node">
<title>Node3</title>
<g id="a_node3"><a xlink:href="classdenoptim_1_1fragspace_1_1_frags_combination_iterator.html#afa4835767d37078abce9e3fbe5fa16e1" target="_top" xlink:title="Constructs a new factory for generating all the combination of fragments that can be attached on a gi...">
<polygon fill="white" stroke="black" points="0,-142 0,-183 182,-183 182,-142 0,-142"/>
<text text-anchor="start" x="8" y="-171" font-family="Helvetica,sans-Serif" font-size="10.00">denoptim.fragspace.Frags</text>
<text text-anchor="start" x="8" y="-160" font-family="Helvetica,sans-Serif" font-size="10.00">CombinationIterator.FragsCombination</text>
<text text-anchor="middle" x="91" y="-149" font-family="Helvetica,sans-Serif" font-size="10.00">Iterator</text>
</a>
</g>
</g>
<!-- Node2&#45;&gt;Node3 -->
<g id="edge2" class="edge">
<title>Node2&#45;&gt;Node3</title>
<path fill="none" stroke="midnightblue" d="M209.24,-162.5C200.21,-162.5 191.11,-162.5 182.19,-162.5"/>
<polygon fill="midnightblue" stroke="midnightblue" points="209.39,-166 219.39,-162.5 209.39,-159 209.39,-166"/>
</g>
</g>
</svg>
