<?xml version="1.0" encoding="UTF-8" standalone="no"?>
<!DOCTYPE svg PUBLIC "-//W3C//DTD SVG 1.1//EN"
 "http://www.w3.org/Graphics/SVG/1.1/DTD/svg11.dtd">
<!-- Generated by graphviz version 3.0.0 (20221109.1736)
 -->
<!-- Title: denoptim.graph.Fragment.isIsomorphicTo Pages: 1 -->
<svg width="362pt" height="137pt"
 viewBox="0.00 0.00 362.00 137.00" xmlns="http://www.w3.org/2000/svg" xmlns:xlink="http://www.w3.org/1999/xlink">
<g id="graph0" class="graph" transform="scale(1 1) rotate(0) translate(4 133)">
<title>denoptim.graph.Fragment.isIsomorphicTo</title>
<polygon fill="white" stroke="transparent" points="-4,4 -4,-133 358,-133 358,4 -4,4"/>
<!-- Node1 -->
<g id="node1" class="node">
<title>Node1</title>
<g id="a_node1"><a xlink:title="Checks for isomorphism of the graph representation of this and another fragment.">
<polygon fill="#bfbfbf" stroke="black" points="0,-49.5 0,-79.5 136,-79.5 136,-49.5 0,-49.5"/>
<text text-anchor="start" x="8" y="-67.5" font-family="Helvetica,sans-Serif" font-size="10.00">denoptim.graph.Fragment.is</text>
<text text-anchor="middle" x="68" y="-56.5" font-family="Helvetica,sans-Serif" font-size="10.00">IsomorphicTo</text>
</a>
</g>
</g>
<!-- Node2 -->
<g id="node2" class="node">
<title>Node2</title>
<g id="a_node2"><a xlink:href="classdenoptim_1_1graph_1_1_fragment.html#ad9843701125210a688964d85a77bfac4" target="_top" xlink:title="Constructor of an empty fragment.">
<polygon fill="white" stroke="black" points="199,-98.5 199,-128.5 327,-128.5 327,-98.5 199,-98.5"/>
<text text-anchor="start" x="207" y="-116.5" font-family="Helvetica,sans-Serif" font-size="10.00">denoptim.graph.Fragment.</text>
<text text-anchor="middle" x="263" y="-105.5" font-family="Helvetica,sans-Serif" font-size="10.00">Fragment</text>
</a>
</g>
</g>
<!-- Node1&#45;&gt;Node2 -->
<g id="edge1" class="edge">
<title>Node1&#45;&gt;Node2</title>
<path fill="none" stroke="midnightblue" d="M128.22,-79.53C148.69,-84.73 171.8,-90.6 192.99,-95.98"/>
<polygon fill="midnightblue" stroke="midnightblue" points="192.34,-99.43 202.89,-98.49 194.06,-92.64 192.34,-99.43"/>
</g>
<!-- Node3 -->
<g id="node3" class="node">
<title>Node3</title>
<g id="a_node3"><a xlink:href="classdenoptim_1_1graph_1_1_fragment.html#a366dfaf65191c724b8e393b9d9dc899f" target="_top" xlink:title=" ">
<polygon fill="white" stroke="black" points="192,-49.5 192,-79.5 334,-79.5 334,-49.5 192,-49.5"/>
<text text-anchor="start" x="200" y="-67.5" font-family="Helvetica,sans-Serif" font-size="10.00">denoptim.graph.Fragment.get</text>
<text text-anchor="middle" x="263" y="-56.5" font-family="Helvetica,sans-Serif" font-size="10.00">AttachmentPoints</text>
</a>
</g>
</g>
<!-- Node1&#45;&gt;Node3 -->
<g id="edge2" class="edge">
<title>Node1&#45;&gt;Node3</title>
<path fill="none" stroke="midnightblue" d="M136.23,-64.5C150.82,-64.5 166.39,-64.5 181.42,-64.5"/>
<polygon fill="midnightblue" stroke="midnightblue" points="181.73,-68 191.73,-64.5 181.73,-61 181.73,-68"/>
</g>
<!-- Node4 -->
<g id="node4" class="node">
<title>Node4</title>
<g id="a_node4"><a xlink:href="classdenoptim_1_1graph_1_1_fragment_isomorphism_inspector.html#a7170efe46e1730c48fe2dbf1d5a0aefc" target="_top" xlink:title=" ">
<polygon fill="white" stroke="black" points="172,-0.5 172,-30.5 354,-30.5 354,-0.5 172,-0.5"/>
<text text-anchor="start" x="180" y="-18.5" font-family="Helvetica,sans-Serif" font-size="10.00">denoptim.graph.FragmentIsomorphism</text>
<text text-anchor="middle" x="263" y="-7.5" font-family="Helvetica,sans-Serif" font-size="10.00">Inspector.isomorphismExists</text>
</a>
</g>
</g>
<!-- Node1&#45;&gt;Node4 -->
<g id="edge3" class="edge">
<title>Node1&#45;&gt;Node4</title>
<path fill="none" stroke="midnightblue" d="M128.22,-49.47C148.69,-44.27 171.8,-38.4 192.99,-33.02"/>
<polygon fill="midnightblue" stroke="midnightblue" points="194.06,-36.36 202.89,-30.51 192.34,-29.57 194.06,-36.36"/>
</g>
</g>
</svg>
