<?xml version="1.0" encoding="UTF-8" standalone="no"?>
<!DOCTYPE svg PUBLIC "-//W3C//DTD SVG 1.1//EN"
 "http://www.w3.org/Graphics/SVG/1.1/DTD/svg11.dtd">
<!-- Generated by graphviz version 3.0.0 (20221109.1736)
 -->
<!-- Title: denoptim.graph.EdgeQuery Pages: 1 -->
<svg width="739pt" height="204pt"
 viewBox="0.00 0.00 739.00 204.00" xmlns="http://www.w3.org/2000/svg" xmlns:xlink="http://www.w3.org/1999/xlink">
<g id="graph0" class="graph" transform="scale(1 1) rotate(0) translate(4 200)">
<title>denoptim.graph.EdgeQuery</title>
<polygon fill="white" stroke="transparent" points="-4,4 -4,-200 735,-200 735,4 -4,4"/>
<!-- Node1 -->
<g id="node1" class="node">
<title>Node1</title>
<g id="a_node1"><a xlink:title="A query for edges: a list of properties that target edges should possess in order to match this query...">
<polygon fill="#bfbfbf" stroke="black" points="599,-4.5 599,-23.5 731,-23.5 731,-4.5 599,-4.5"/>
<text text-anchor="middle" x="665" y="-11.5" font-family="Helvetica,sans-Serif" font-size="10.00">denoptim.graph.EdgeQuery</text>
</a>
</g>
</g>
<!-- Node2 -->
<g id="node2" class="node">
<title>Node2</title>
<g id="a_node2"><a xlink:href="enumdenoptim_1_1graph_1_1_edge_1_1_bond_type.html" target="_top" xlink:title="Possible chemical bond types an edge can represent.">
<polygon fill="white" stroke="black" points="92.5,-0.5 92.5,-19.5 244.5,-19.5 244.5,-0.5 92.5,-0.5"/>
<text text-anchor="middle" x="168.5" y="-7.5" font-family="Helvetica,sans-Serif" font-size="10.00">denoptim.graph.Edge.BondType</text>
</a>
</g>
</g>
<!-- Node2&#45;&gt;Node1 -->
<g id="edge1" class="edge">
<title>Node2&#45;&gt;Node1</title>
<path fill="none" stroke="#9a32cd" stroke-dasharray="5,2" d="M254.75,-10.69C352.47,-11.48 510.5,-12.76 598.87,-13.47"/>
<polygon fill="#9a32cd" stroke="#9a32cd" points="254.63,-7.19 244.6,-10.61 254.58,-14.19 254.63,-7.19"/>
<text text-anchor="middle" x="464.5" y="-16" font-family="Helvetica,sans-Serif" font-size="10.00"> bondType</text>
</g>
<!-- Node4 -->
<g id="node4" class="node">
<title>Node4</title>
<g id="a_node4"><a xlink:href="classdenoptim_1_1graph_1_1_a_p_class.html" target="_top" xlink:title=" ">
<polygon fill="white" stroke="black" points="403,-83.5 403,-102.5 526,-102.5 526,-83.5 403,-83.5"/>
<text text-anchor="middle" x="464.5" y="-90.5" font-family="Helvetica,sans-Serif" font-size="10.00">denoptim.graph.APClass</text>
</a>
</g>
</g>
<!-- Node2&#45;&gt;Node4 -->
<g id="edge8" class="edge">
<title>Node2&#45;&gt;Node4</title>
<path fill="none" stroke="#9a32cd" stroke-dasharray="5,2" d="M254.73,-16.17C295.15,-21.01 343.55,-29.64 385,-45 410.31,-54.38 436.42,-72.3 451.23,-83.39"/>
<polygon fill="#9a32cd" stroke="#9a32cd" points="254.96,-12.67 244.63,-15.02 254.17,-19.63 254.96,-12.67"/>
<text text-anchor="middle" x="324.5" y="-59" font-family="Helvetica,sans-Serif" font-size="10.00"> DEFAULTBT</text>
<text text-anchor="middle" x="324.5" y="-48" font-family="Helvetica,sans-Serif" font-size="10.00">bndTyp</text>
</g>
<!-- Node3 -->
<g id="node3" class="node">
<title>Node3</title>
<g id="a_node3"><a xlink:title=" ">
<polygon fill="white" stroke="black" points="0,-0.5 0,-19.5 42,-19.5 42,-0.5 0,-0.5"/>
<text text-anchor="middle" x="21" y="-7.5" font-family="Helvetica,sans-Serif" font-size="10.00">IBond</text>
</a>
</g>
</g>
<!-- Node3&#45;&gt;Node2 -->
<g id="edge2" class="edge">
<title>Node3&#45;&gt;Node2</title>
<path fill="none" stroke="#9a32cd" stroke-dasharray="5,2" d="M52.33,-10C64.08,-10 78.11,-10 92.26,-10"/>
<polygon fill="#9a32cd" stroke="#9a32cd" points="52.23,-6.5 42.23,-10 52.23,-13.5 52.23,-6.5"/>
<text text-anchor="middle" x="66.5" y="-13" font-family="Helvetica,sans-Serif" font-size="10.00"> bo</text>
</g>
<!-- Node4&#45;&gt;Node1 -->
<g id="edge3" class="edge">
<title>Node4&#45;&gt;Node1</title>
<path fill="none" stroke="#9a32cd" stroke-dasharray="5,2" d="M498.76,-79.76C538.69,-63.87 604.68,-37.61 639.97,-23.56"/>
<polygon fill="#9a32cd" stroke="#9a32cd" points="497.44,-76.52 489.44,-83.47 500.03,-83.02 497.44,-76.52"/>
<text text-anchor="middle" x="562.5" y="-74" font-family="Helvetica,sans-Serif" font-size="10.00"> srcAPC</text>
<text text-anchor="middle" x="562.5" y="-63" font-family="Helvetica,sans-Serif" font-size="10.00">trgAPC</text>
</g>
<!-- Node5 -->
<g id="node5" class="node">
<title>Node5</title>
<g id="a_node5"><a xlink:title=" ">
<polygon fill="white" stroke="black" points="139,-176.5 139,-195.5 198,-195.5 198,-176.5 139,-176.5"/>
<text text-anchor="middle" x="168.5" y="-183.5" font-family="Helvetica,sans-Serif" font-size="10.00">Cloneable</text>
</a>
</g>
</g>
<!-- Node5&#45;&gt;Node4 -->
<g id="edge4" class="edge">
<title>Node5&#45;&gt;Node4</title>
<path fill="none" stroke="midnightblue" d="M208.33,-185.47C252.7,-183.62 326.72,-176.68 385,-152 412.95,-140.17 439.98,-116.27 453.86,-102.8"/>
<polygon fill="midnightblue" stroke="midnightblue" points="208.12,-181.98 198.25,-185.83 208.36,-188.98 208.12,-181.98"/>
</g>
<!-- Node6 -->
<g id="node6" class="node">
<title>Node6</title>
<g id="a_node6"><a xlink:title=" ">
<polygon fill="white" stroke="black" points="107,-138.5 107,-157.5 230,-157.5 230,-138.5 107,-138.5"/>
<text text-anchor="middle" x="168.5" y="-145.5" font-family="Helvetica,sans-Serif" font-size="10.00">Comparable&lt; APClass &gt;</text>
</a>
</g>
</g>
<!-- Node6&#45;&gt;Node4 -->
<g id="edge5" class="edge">
<title>Node6&#45;&gt;Node4</title>
<path fill="none" stroke="midnightblue" d="M240.66,-148.39C283.19,-147.07 337.93,-142.62 385,-130 407.85,-123.88 432.2,-111.35 447.61,-102.57"/>
<polygon fill="midnightblue" stroke="midnightblue" points="240.31,-144.9 230.4,-148.65 240.49,-151.89 240.31,-144.9"/>
</g>
<!-- Node7 -->
<g id="node7" class="node">
<title>Node7</title>
<g id="a_node7"><a xlink:title=" ">
<polygon fill="white" stroke="black" points="91,-100.5 91,-119.5 246,-119.5 246,-100.5 91,-100.5"/>
<text text-anchor="middle" x="168.5" y="-107.5" font-family="Helvetica,sans-Serif" font-size="10.00">Set&lt; denoptim.graph.APClass &gt;</text>
</a>
</g>
</g>
<!-- Node7&#45;&gt;Node4 -->
<g id="edge6" class="edge">
<title>Node7&#45;&gt;Node4</title>
<path fill="none" stroke="#9a32cd" stroke-dasharray="5,2" d="M256.55,-104.97C303.63,-102.24 360.6,-98.95 402.84,-96.51"/>
<polygon fill="#9a32cd" stroke="#9a32cd" points="256.14,-101.48 246.36,-105.56 256.55,-108.47 256.14,-101.48"/>
<text text-anchor="middle" x="324.5" y="-118" font-family="Helvetica,sans-Serif" font-size="10.00"> RCAAPCLASSSET</text>
<text text-anchor="middle" x="324.5" y="-107" font-family="Helvetica,sans-Serif" font-size="10.00">uniqueAPClasses</text>
</g>
<!-- Node8 -->
<g id="node8" class="node">
<title>Node8</title>
<g id="a_node8"><a xlink:title=" ">
<polygon fill="white" stroke="black" points="101,-51 101,-81 236,-81 236,-51 101,-51"/>
<text text-anchor="start" x="109" y="-69" font-family="Helvetica,sans-Serif" font-size="10.00">HashMap&lt; denoptim.graph.</text>
<text text-anchor="middle" x="168.5" y="-58" font-family="Helvetica,sans-Serif" font-size="10.00">APClass, String &gt;</text>
</a>
</g>
</g>
<!-- Node8&#45;&gt;Node4 -->
<g id="edge7" class="edge">
<title>Node8&#45;&gt;Node4</title>
<path fill="none" stroke="#9a32cd" stroke-dasharray="5,2" d="M246.34,-70.49C287.52,-73.2 339.09,-77.08 385,-82 390.75,-82.62 396.72,-83.32 402.69,-84.08"/>
<polygon fill="#9a32cd" stroke="#9a32cd" points="246.31,-66.98 236.1,-69.82 245.85,-73.96 246.31,-66.98"/>
<text text-anchor="middle" x="324.5" y="-85" font-family="Helvetica,sans-Serif" font-size="10.00"> RCALABELPERAPCLASS</text>
</g>
</g>
</svg>
