<?xml version="1.0" encoding="UTF-8" standalone="no"?>
<!DOCTYPE svg PUBLIC "-//W3C//DTD SVG 1.1//EN"
 "http://www.w3.org/Graphics/SVG/1.1/DTD/svg11.dtd">
<!-- Generated by graphviz version 3.0.0 (20221109.1736)
 -->
<!-- Title: denoptim.graph.rings.RingClosureParameters.getMaxRingSize Pages: 1 -->
<svg width="1923pt" height="191pt"
 viewBox="0.00 0.00 1923.00 190.50" xmlns="http://www.w3.org/2000/svg" xmlns:xlink="http://www.w3.org/1999/xlink">
<g id="graph0" class="graph" transform="scale(1 1) rotate(0) translate(4 186.5)">
<title>denoptim.graph.rings.RingClosureParameters.getMaxRingSize</title>
<polygon fill="white" stroke="transparent" points="-4,4 -4,-186.5 1919,-186.5 1919,4 -4,4"/>
<!-- Node1 -->
<g id="node1" class="node">
<title>Node1</title>
<g id="a_node1"><a xlink:title=" ">
<polygon fill="#bfbfbf" stroke="black" points="1743,-36 1743,-66 1915,-66 1915,-36 1743,-36"/>
<text text-anchor="start" x="1751" y="-54" font-family="Helvetica,sans-Serif" font-size="10.00">denoptim.graph.rings.Ring</text>
<text text-anchor="middle" x="1829" y="-43" font-family="Helvetica,sans-Serif" font-size="10.00">ClosureParameters.getMaxRingSize</text>
</a>
</g>
</g>
<!-- Node2 -->
<g id="node2" class="node">
<title>Node2</title>
<g id="a_node2"><a xlink:href="classdenoptim_1_1graph_1_1rings_1_1_cyclic_graph_handler_1_1_ring_size_manager.html#a68b1aa5cd1df8bb959064588e994b74e" target="_top" xlink:title=" ">
<polygon fill="white" stroke="black" points="1511,-60.5 1511,-101.5 1707,-101.5 1707,-60.5 1511,-60.5"/>
<text text-anchor="start" x="1519" y="-89.5" font-family="Helvetica,sans-Serif" font-size="10.00">denoptim.graph.rings.Cyclic</text>
<text text-anchor="start" x="1519" y="-78.5" font-family="Helvetica,sans-Serif" font-size="10.00">GraphHandler.RingSizeManager.calculate</text>
<text text-anchor="middle" x="1609" y="-67.5" font-family="Helvetica,sans-Serif" font-size="10.00">CompatibilityOfAllRCAPairs</text>
</a>
</g>
</g>
<!-- Node1&#45;&gt;Node2 -->
<g id="edge1" class="edge">
<title>Node1&#45;&gt;Node2</title>
<path fill="none" stroke="midnightblue" d="M1732.83,-64.1C1724.29,-65.27 1715.64,-66.46 1707.09,-67.64"/>
<polygon fill="midnightblue" stroke="midnightblue" points="1733.35,-67.56 1742.78,-62.73 1732.4,-60.62 1733.35,-67.56"/>
</g>
<!-- Node20 -->
<g id="node20" class="node">
<title>Node20</title>
<g id="a_node20"><a xlink:href="classdenoptim_1_1graph_1_1rings_1_1_cyclic_graph_handler_1_1_ring_size_manager.html#a8f6c683207c735c5d97a31a4c3db5e84" target="_top" xlink:title=" ">
<polygon fill="white" stroke="black" points="1524,-0.5 1524,-41.5 1694,-41.5 1694,-0.5 1524,-0.5"/>
<text text-anchor="start" x="1532" y="-29.5" font-family="Helvetica,sans-Serif" font-size="10.00">denoptim.graph.rings.Cyclic</text>
<text text-anchor="start" x="1532" y="-18.5" font-family="Helvetica,sans-Serif" font-size="10.00">GraphHandler.RingSizeManager.get</text>
<text text-anchor="middle" x="1609" y="-7.5" font-family="Helvetica,sans-Serif" font-size="10.00">RSBiasedListOfCandidates</text>
</a>
</g>
</g>
<!-- Node1&#45;&gt;Node20 -->
<g id="edge25" class="edge">
<title>Node1&#45;&gt;Node20</title>
<path fill="none" stroke="midnightblue" d="M1732.57,-37.87C1719.76,-36.1 1706.69,-34.31 1694.09,-32.57"/>
<polygon fill="midnightblue" stroke="midnightblue" points="1732.4,-41.38 1742.78,-39.27 1733.35,-34.44 1732.4,-41.38"/>
</g>
<!-- Node3 -->
<g id="node3" class="node">
<title>Node3</title>
<g id="a_node3"><a xlink:href="classdenoptim_1_1graph_1_1rings_1_1_cyclic_graph_handler_1_1_ring_size_manager.html#a0fc0f3889f18d330fc50f28a4264ca21" target="_top" xlink:title=" ">
<polygon fill="white" stroke="black" points="1293,-87.5 1293,-128.5 1466,-128.5 1466,-87.5 1293,-87.5"/>
<text text-anchor="start" x="1301" y="-116.5" font-family="Helvetica,sans-Serif" font-size="10.00">denoptim.graph.rings.Cyclic</text>
<text text-anchor="start" x="1301" y="-105.5" font-family="Helvetica,sans-Serif" font-size="10.00">GraphHandler.RingSizeManager.add</text>
<text text-anchor="middle" x="1379.5" y="-94.5" font-family="Helvetica,sans-Serif" font-size="10.00">RingClosingBond</text>
</a>
</g>
</g>
<!-- Node2&#45;&gt;Node3 -->
<g id="edge2" class="edge">
<title>Node2&#45;&gt;Node3</title>
<path fill="none" stroke="midnightblue" d="M1500.72,-93.73C1489.13,-95.11 1477.46,-96.49 1466.18,-97.83"/>
<polygon fill="midnightblue" stroke="midnightblue" points="1501.34,-97.18 1510.86,-92.53 1500.52,-90.23 1501.34,-97.18"/>
</g>
<!-- Node16 -->
<g id="node16" class="node">
<title>Node16</title>
<g id="a_node16"><a xlink:href="classdenoptim_1_1graph_1_1rings_1_1_cyclic_graph_handler_1_1_ring_size_manager.html#a9b1b85afae57c94c9059527bd796259c" target="_top" xlink:title=" ">
<polygon fill="white" stroke="black" points="1284,-39 1284,-69 1475,-69 1475,-39 1284,-39"/>
<text text-anchor="start" x="1292" y="-57" font-family="Helvetica,sans-Serif" font-size="10.00">denoptim.graph.rings.Cyclic</text>
<text text-anchor="middle" x="1379.5" y="-46" font-family="Helvetica,sans-Serif" font-size="10.00">GraphHandler.RingSizeManager.initialize</text>
</a>
</g>
</g>
<!-- Node2&#45;&gt;Node16 -->
<g id="edge19" class="edge">
<title>Node2&#45;&gt;Node16</title>
<path fill="none" stroke="midnightblue" d="M1500.83,-68.28C1492.25,-67.26 1483.63,-66.24 1475.15,-65.23"/>
<polygon fill="midnightblue" stroke="midnightblue" points="1500.52,-71.77 1510.86,-69.47 1501.34,-64.82 1500.52,-71.77"/>
</g>
<!-- Node4 -->
<g id="node4" class="node">
<title>Node4</title>
<g id="a_node4"><a xlink:href="classdenoptim_1_1graph_1_1rings_1_1_cyclic_graph_handler.html#a08b02946eaac7c2cbbe6e71332d702e6" target="_top" xlink:title="Identifies a random combination of ring closing paths and returns it as list of DENOPTIMRings ready t...">
<polygon fill="white" stroke="black" points="1065,-87.5 1065,-128.5 1247,-128.5 1247,-87.5 1065,-87.5"/>
<text text-anchor="start" x="1073" y="-116.5" font-family="Helvetica,sans-Serif" font-size="10.00">denoptim.graph.rings.Cyclic</text>
<text text-anchor="start" x="1073" y="-105.5" font-family="Helvetica,sans-Serif" font-size="10.00">GraphHandler.getRandomCombination</text>
<text text-anchor="middle" x="1156" y="-94.5" font-family="Helvetica,sans-Serif" font-size="10.00">OfRings</text>
</a>
</g>
</g>
<!-- Node3&#45;&gt;Node4 -->
<g id="edge3" class="edge">
<title>Node3&#45;&gt;Node4</title>
<path fill="none" stroke="midnightblue" d="M1282.6,-108C1270.84,-108 1258.85,-108 1247.18,-108"/>
<polygon fill="midnightblue" stroke="midnightblue" points="1282.86,-111.5 1292.86,-108 1282.86,-104.5 1282.86,-111.5"/>
</g>
<!-- Node5 -->
<g id="node5" class="node">
<title>Node5</title>
<g id="a_node5"><a xlink:href="classdenoptim_1_1ga_1_1_e_a_utils.html#a1ddb932d4618434d435e4f85ce5e5eb5" target="_top" xlink:title="Evaluates the possibility of closing rings in a given graph and if any ring can be closed,...">
<polygon fill="white" stroke="black" points="885,-93 885,-123 1016,-123 1016,-93 885,-93"/>
<text text-anchor="start" x="893" y="-111" font-family="Helvetica,sans-Serif" font-size="10.00">denoptim.ga.EAUtils.setup</text>
<text text-anchor="middle" x="950.5" y="-100" font-family="Helvetica,sans-Serif" font-size="10.00">Rings</text>
</a>
</g>
</g>
<!-- Node4&#45;&gt;Node5 -->
<g id="edge4" class="edge">
<title>Node4&#45;&gt;Node5</title>
<path fill="none" stroke="midnightblue" d="M1054.84,-108C1041.72,-108 1028.56,-108 1016.24,-108"/>
<polygon fill="midnightblue" stroke="midnightblue" points="1054.85,-111.5 1064.85,-108 1054.85,-104.5 1054.85,-111.5"/>
</g>
<!-- Node6 -->
<g id="node6" class="node">
<title>Node6</title>
<g id="a_node6"><a xlink:href="classdenoptim_1_1ga_1_1_e_a_utils.html#a8122818f58919fce84dce75e7506025a" target="_top" xlink:title=" ">
<polygon fill="white" stroke="black" points="701,-152 701,-182 828,-182 828,-152 701,-152"/>
<text text-anchor="start" x="709" y="-170" font-family="Helvetica,sans-Serif" font-size="10.00">denoptim.ga.EAUtils.build</text>
<text text-anchor="middle" x="764.5" y="-159" font-family="Helvetica,sans-Serif" font-size="10.00">CandidateByMutation</text>
</a>
</g>
</g>
<!-- Node5&#45;&gt;Node6 -->
<g id="edge5" class="edge">
<title>Node5&#45;&gt;Node6</title>
<path fill="none" stroke="midnightblue" d="M892.93,-126.14C867.09,-134.42 836.86,-144.12 812.32,-151.99"/>
<polygon fill="midnightblue" stroke="midnightblue" points="894.14,-129.43 902.59,-123.04 892,-122.76 894.14,-129.43"/>
</g>
<!-- Node13 -->
<g id="node13" class="node">
<title>Node13</title>
<g id="a_node13"><a xlink:href="classdenoptim_1_1ga_1_1_e_a_utils.html#ad3d2daeb11e68a356e971ca1846596b5" target="_top" xlink:title=" ">
<polygon fill="white" stroke="black" points="701,-103 701,-133 828,-133 828,-103 701,-103"/>
<text text-anchor="start" x="709" y="-121" font-family="Helvetica,sans-Serif" font-size="10.00">denoptim.ga.EAUtils.build</text>
<text text-anchor="middle" x="764.5" y="-110" font-family="Helvetica,sans-Serif" font-size="10.00">CandidateFromScratch</text>
</a>
</g>
</g>
<!-- Node5&#45;&gt;Node13 -->
<g id="edge13" class="edge">
<title>Node5&#45;&gt;Node13</title>
<path fill="none" stroke="midnightblue" d="M874.81,-112.06C859.31,-112.9 843.12,-113.78 828.1,-114.6"/>
<polygon fill="midnightblue" stroke="midnightblue" points="875.09,-115.55 884.89,-111.51 874.71,-108.56 875.09,-115.55"/>
</g>
<!-- Node15 -->
<g id="node15" class="node">
<title>Node15</title>
<g id="a_node15"><a xlink:href="classdenoptim_1_1ga_1_1_e_a_utils.html#a0b958439d79fae30f14530213ad22e3a" target="_top" xlink:title="Generates up to a pair of new offspring by performing a crossover operation.">
<polygon fill="white" stroke="black" points="701,-54 701,-84 828,-84 828,-54 701,-54"/>
<text text-anchor="start" x="709" y="-72" font-family="Helvetica,sans-Serif" font-size="10.00">denoptim.ga.EAUtils.build</text>
<text text-anchor="middle" x="764.5" y="-61" font-family="Helvetica,sans-Serif" font-size="10.00">CandidatesByXOver</text>
</a>
</g>
</g>
<!-- Node5&#45;&gt;Node15 -->
<g id="edge18" class="edge">
<title>Node5&#45;&gt;Node15</title>
<path fill="none" stroke="midnightblue" d="M874.81,-92.17C859.31,-88.88 843.12,-85.45 828.1,-82.27"/>
<polygon fill="midnightblue" stroke="midnightblue" points="874.38,-95.66 884.89,-94.3 875.83,-88.81 874.38,-95.66"/>
</g>
<!-- Node7 -->
<g id="node7" class="node">
<title>Node7</title>
<g id="a_node7"><a xlink:href="classdenoptim_1_1ga_1_1_evolutionary_algorithm.html#a0c2e353b243250b4959a3f86608f1020" target="_top" xlink:title="Generates one offspring according to the method where crossover and mutation are decoupled,...">
<polygon fill="white" stroke="black" points="526,-103 526,-133 656,-133 656,-103 526,-103"/>
<text text-anchor="start" x="534" y="-121" font-family="Helvetica,sans-Serif" font-size="10.00">denoptim.ga.Evolutionary</text>
<text text-anchor="middle" x="591" y="-110" font-family="Helvetica,sans-Serif" font-size="10.00">Algorithm.makeOffspringA</text>
</a>
</g>
</g>
<!-- Node6&#45;&gt;Node7 -->
<g id="edge6" class="edge">
<title>Node6&#45;&gt;Node7</title>
<path fill="none" stroke="midnightblue" d="M700.87,-149.11C682.42,-143.84 662.44,-138.12 644.68,-133.05"/>
<polygon fill="midnightblue" stroke="midnightblue" points="700.07,-152.52 710.64,-151.9 701.99,-145.79 700.07,-152.52"/>
</g>
<!-- Node12 -->
<g id="node12" class="node">
<title>Node12</title>
<g id="a_node12"><a xlink:href="classdenoptim_1_1ga_1_1_evolutionary_algorithm.html#ae7a90a911b109ed47b3acf54193acc35" target="_top" xlink:title="Generates one offspring according to the method where crossover and mutation are coupled,...">
<polygon fill="white" stroke="black" points="526,-152 526,-182 656,-182 656,-152 526,-152"/>
<text text-anchor="start" x="534" y="-170" font-family="Helvetica,sans-Serif" font-size="10.00">denoptim.ga.Evolutionary</text>
<text text-anchor="middle" x="591" y="-159" font-family="Helvetica,sans-Serif" font-size="10.00">Algorithm.makeOffspringB</text>
</a>
</g>
</g>
<!-- Node6&#45;&gt;Node12 -->
<g id="edge11" class="edge">
<title>Node6&#45;&gt;Node12</title>
<path fill="none" stroke="midnightblue" d="M690.61,-167C679.12,-167 667.3,-167 656.03,-167"/>
<polygon fill="midnightblue" stroke="midnightblue" points="690.61,-170.5 700.61,-167 690.61,-163.5 690.61,-170.5"/>
</g>
<!-- Node8 -->
<g id="node8" class="node">
<title>Node8</title>
<g id="a_node8"><a xlink:href="classdenoptim_1_1ga_1_1_evolutionary_algorithm.html#a596b2f5f0b097c5b67a6e5163bd6fe66" target="_top" xlink:title="Generates a given number of new candidate items and adds them to the current population.">
<polygon fill="white" stroke="black" points="353,-108 353,-138 487,-138 487,-108 353,-108"/>
<text text-anchor="start" x="361" y="-126" font-family="Helvetica,sans-Serif" font-size="10.00">denoptim.ga.Evolutionary</text>
<text text-anchor="middle" x="420" y="-115" font-family="Helvetica,sans-Serif" font-size="10.00">Algorithm.evolvePopulation</text>
</a>
</g>
</g>
<!-- Node7&#45;&gt;Node8 -->
<g id="edge7" class="edge">
<title>Node7&#45;&gt;Node8</title>
<path fill="none" stroke="midnightblue" d="M515.48,-120.2C506.05,-120.48 496.45,-120.77 487.16,-121.04"/>
<polygon fill="midnightblue" stroke="midnightblue" points="515.73,-123.7 525.63,-119.9 515.53,-116.7 515.73,-123.7"/>
</g>
<!-- Node9 -->
<g id="node9" class="node">
<title>Node9</title>
<g id="a_node9"><a xlink:href="classdenoptim_1_1ga_1_1_evolutionary_algorithm.html#a6bfc2fa59b199da6259b5b6bad3d6de7" target="_top" xlink:title=" ">
<polygon fill="white" stroke="black" points="190,-83 190,-113 314,-113 314,-83 190,-83"/>
<text text-anchor="start" x="198" y="-101" font-family="Helvetica,sans-Serif" font-size="10.00">denoptim.ga.Evolutionary</text>
<text text-anchor="middle" x="252" y="-90" font-family="Helvetica,sans-Serif" font-size="10.00">Algorithm.run</text>
</a>
</g>
</g>
<!-- Node8&#45;&gt;Node9 -->
<g id="edge8" class="edge">
<title>Node8&#45;&gt;Node9</title>
<path fill="none" stroke="midnightblue" d="M342.9,-111.54C333.21,-110.08 323.41,-108.6 314.01,-107.19"/>
<polygon fill="midnightblue" stroke="midnightblue" points="342.51,-115.02 352.92,-113.05 343.55,-108.1 342.51,-115.02"/>
</g>
<!-- Node10 -->
<g id="node10" class="node">
<title>Node10</title>
<g id="a_node10"><a xlink:href="classdenoptim_1_1ga_1_1_evolutionary_algorithm.html#a0f2063b722b7291daf83d62acaa683d3" target="_top" xlink:title=" ">
<polygon fill="white" stroke="black" points="0,-108 0,-138 154,-138 154,-108 0,-108"/>
<text text-anchor="start" x="8" y="-126" font-family="Helvetica,sans-Serif" font-size="10.00">denoptim.ga.Evolutionary</text>
<text text-anchor="middle" x="77" y="-115" font-family="Helvetica,sans-Serif" font-size="10.00">Algorithm.EvolutionaryAlgorithm</text>
</a>
</g>
</g>
<!-- Node9&#45;&gt;Node10 -->
<g id="edge9" class="edge">
<title>Node9&#45;&gt;Node10</title>
<path fill="none" stroke="midnightblue" d="M179.44,-108.34C171.09,-109.55 162.54,-110.78 154.12,-112"/>
<polygon fill="midnightblue" stroke="midnightblue" points="180.12,-111.78 189.52,-106.88 179.12,-104.85 180.12,-111.78"/>
</g>
<!-- Node11 -->
<g id="node11" class="node">
<title>Node11</title>
<g id="a_node11"><a xlink:href="classdenoptim_1_1programs_1_1denovo_1_1_g_a_runner.html#a7cafd6d78727b89dce3e2c8d06f0dd7c" target="_top" xlink:title=" ">
<polygon fill="white" stroke="black" points="9.5,-59 9.5,-89 144.5,-89 144.5,-59 9.5,-59"/>
<text text-anchor="start" x="17.5" y="-77" font-family="Helvetica,sans-Serif" font-size="10.00">denoptim.programs.denovo.</text>
<text text-anchor="middle" x="77" y="-66" font-family="Helvetica,sans-Serif" font-size="10.00">GARunner.runProgram</text>
</a>
</g>
</g>
<!-- Node9&#45;&gt;Node11 -->
<g id="edge10" class="edge">
<title>Node9&#45;&gt;Node11</title>
<path fill="none" stroke="midnightblue" d="M179.48,-88.08C167.92,-86.47 156,-84.82 144.57,-83.23"/>
<polygon fill="midnightblue" stroke="midnightblue" points="179.13,-91.56 189.52,-89.47 180.1,-84.63 179.13,-91.56"/>
</g>
<!-- Node12&#45;&gt;Node8 -->
<g id="edge12" class="edge">
<title>Node12&#45;&gt;Node8</title>
<path fill="none" stroke="midnightblue" d="M522.42,-149.41C507.95,-145.64 492.78,-141.69 478.71,-138.03"/>
<polygon fill="midnightblue" stroke="midnightblue" points="521.75,-152.85 532.31,-151.98 523.52,-146.07 521.75,-152.85"/>
</g>
<!-- Node13&#45;&gt;Node7 -->
<g id="edge16" class="edge">
<title>Node13&#45;&gt;Node7</title>
<path fill="none" stroke="midnightblue" d="M690.61,-118C679.12,-118 667.3,-118 656.03,-118"/>
<polygon fill="midnightblue" stroke="midnightblue" points="690.61,-121.5 700.61,-118 690.61,-114.5 690.61,-121.5"/>
</g>
<!-- Node13&#45;&gt;Node12 -->
<g id="edge17" class="edge">
<title>Node13&#45;&gt;Node12</title>
<path fill="none" stroke="midnightblue" d="M700.87,-135.89C682.42,-141.16 662.44,-146.88 644.68,-151.95"/>
<polygon fill="midnightblue" stroke="midnightblue" points="701.99,-139.21 710.64,-133.1 700.07,-132.48 701.99,-139.21"/>
</g>
<!-- Node14 -->
<g id="node14" class="node">
<title>Node14</title>
<g id="a_node14"><a xlink:href="classdenoptim_1_1ga_1_1_evolutionary_algorithm.html#ad43588620dab3340e0d8b0042ec73618" target="_top" xlink:title="Fills up the population with candidates build from scratch.">
<polygon fill="white" stroke="black" points="350,-59 350,-89 490,-89 490,-59 350,-59"/>
<text text-anchor="start" x="358" y="-77" font-family="Helvetica,sans-Serif" font-size="10.00">denoptim.ga.Evolutionary</text>
<text text-anchor="middle" x="420" y="-66" font-family="Helvetica,sans-Serif" font-size="10.00">Algorithm.initializePopulation</text>
</a>
</g>
</g>
<!-- Node13&#45;&gt;Node14 -->
<g id="edge14" class="edge">
<title>Node13&#45;&gt;Node14</title>
<path fill="none" stroke="midnightblue" d="M696.09,-100.72C682.87,-97.78 669.05,-95.03 656,-93 600.59,-84.37 537.19,-79.53 490.21,-76.9"/>
<polygon fill="midnightblue" stroke="midnightblue" points="695.54,-104.18 706.06,-102.99 697.09,-97.36 695.54,-104.18"/>
</g>
<!-- Node14&#45;&gt;Node9 -->
<g id="edge15" class="edge">
<title>Node14&#45;&gt;Node9</title>
<path fill="none" stroke="midnightblue" d="M339.6,-85.48C331.08,-86.71 322.5,-87.95 314.24,-89.15"/>
<polygon fill="midnightblue" stroke="midnightblue" points="340.17,-88.93 349.56,-84.04 339.16,-82.01 340.17,-88.93"/>
</g>
<!-- Node16&#45;&gt;Node4 -->
<g id="edge24" class="edge">
<title>Node16&#45;&gt;Node4</title>
<path fill="none" stroke="midnightblue" d="M1307,-71.43C1286,-76.55 1262.84,-82.2 1241.13,-87.49"/>
<polygon fill="midnightblue" stroke="midnightblue" points="1307.91,-74.81 1316.8,-69.04 1306.26,-68.01 1307.91,-74.81"/>
</g>
<!-- Node17 -->
<g id="node17" class="node">
<title>Node17</title>
<g id="a_node17"><a xlink:href="classdenoptim_1_1graph_1_1rings_1_1_cyclic_graph_handler.html#a3ce96322723f45d9285a248ebcef94d3" target="_top" xlink:title="Identifies all possible ring closing paths and returns them as list of DENOPTIMRings ready to be appe...">
<polygon fill="white" stroke="black" points="1064,-27.5 1064,-68.5 1248,-68.5 1248,-27.5 1064,-27.5"/>
<text text-anchor="start" x="1072" y="-56.5" font-family="Helvetica,sans-Serif" font-size="10.00">denoptim.graph.rings.Cyclic</text>
<text text-anchor="start" x="1072" y="-45.5" font-family="Helvetica,sans-Serif" font-size="10.00">GraphHandler.getPossibleCombination</text>
<text text-anchor="middle" x="1156" y="-34.5" font-family="Helvetica,sans-Serif" font-size="10.00">OfRings</text>
</a>
</g>
</g>
<!-- Node16&#45;&gt;Node17 -->
<g id="edge20" class="edge">
<title>Node16&#45;&gt;Node17</title>
<path fill="none" stroke="midnightblue" d="M1273.85,-51.17C1265.25,-50.93 1256.59,-50.7 1248.1,-50.47"/>
<polygon fill="midnightblue" stroke="midnightblue" points="1273.83,-54.67 1283.92,-51.44 1274.02,-47.67 1273.83,-54.67"/>
</g>
<!-- Node17&#45;&gt;Node5 -->
<g id="edge23" class="edge">
<title>Node17&#45;&gt;Node5</title>
<path fill="none" stroke="midnightblue" d="M1075.58,-71.42C1051.02,-78.66 1024.63,-86.44 1002.53,-92.96"/>
<polygon fill="midnightblue" stroke="midnightblue" points="1076.65,-74.75 1085.25,-68.56 1074.67,-68.04 1076.65,-74.75"/>
</g>
<!-- Node18 -->
<g id="node18" class="node">
<title>Node18</title>
<g id="a_node18"><a xlink:href="classdenoptim_1_1graph_1_1_d_graph.html#a7a4743d014e860237f4b20703ef9779b" target="_top" xlink:title="Evaluates the possibility of closing rings in this graph and generates all alternative graphs resulti...">
<polygon fill="white" stroke="black" points="873,-14 873,-44 1028,-44 1028,-14 873,-14"/>
<text text-anchor="start" x="881" y="-32" font-family="Helvetica,sans-Serif" font-size="10.00">denoptim.graph.DGraph.make</text>
<text text-anchor="middle" x="950.5" y="-21" font-family="Helvetica,sans-Serif" font-size="10.00">AllGraphsWithDifferentRingSets</text>
</a>
</g>
</g>
<!-- Node17&#45;&gt;Node18 -->
<g id="edge21" class="edge">
<title>Node17&#45;&gt;Node18</title>
<path fill="none" stroke="midnightblue" d="M1053.84,-38.56C1045.2,-37.75 1036.56,-36.94 1028.16,-36.16"/>
<polygon fill="midnightblue" stroke="midnightblue" points="1053.68,-42.06 1063.96,-39.5 1054.33,-35.09 1053.68,-42.06"/>
</g>
<!-- Node19 -->
<g id="node19" class="node">
<title>Node19</title>
<g id="a_node19"><a xlink:href="classdenoptim_1_1combinatorial_1_1_graph_building_task.html#a3eaee724fc921194fa158714aafe182d" target="_top" xlink:title="Calls the task.">
<polygon fill="white" stroke="black" points="692,-5 692,-35 837,-35 837,-5 692,-5"/>
<text text-anchor="start" x="700" y="-23" font-family="Helvetica,sans-Serif" font-size="10.00">denoptim.combinatorial.Graph</text>
<text text-anchor="middle" x="764.5" y="-12" font-family="Helvetica,sans-Serif" font-size="10.00">BuildingTask.call</text>
</a>
</g>
</g>
<!-- Node18&#45;&gt;Node19 -->
<g id="edge22" class="edge">
<title>Node18&#45;&gt;Node19</title>
<path fill="none" stroke="midnightblue" d="M862.75,-24.76C854.15,-24.34 845.49,-23.91 837.07,-23.5"/>
<polygon fill="midnightblue" stroke="midnightblue" points="862.64,-28.26 872.8,-25.25 862.98,-21.26 862.64,-28.26"/>
</g>
</g>
</svg>
