<?xml version="1.0" encoding="UTF-8" standalone="no"?>
<!DOCTYPE svg PUBLIC "-//W3C//DTD SVG 1.1//EN"
 "http://www.w3.org/Graphics/SVG/1.1/DTD/svg11.dtd">
<!-- Generated by graphviz version 3.0.0 (20221109.1736)
 -->
<!-- Title: denoptim.utils.MathUtils.computeDihedralAngle Pages: 1 -->
<!--zoomable 231 -->
<svg id="main" version="1.1" xmlns="http://www.w3.org/2000/svg" xmlns:xlink="http://www.w3.org/1999/xlink" xml:space="preserve" onload="init(evt)">
<style type="text/css"><![CDATA[
.edge:hover path { stroke: red; }
.edge:hover polygon { stroke: red; fill: red; }
]]></style>
<script type="text/javascript"><![CDATA[
var edges = document.getElementsByTagName('g');
if (edges && edges.length) {
  for (var i=0;i<edges.length;i++) {
    if (edges[i].id.substr(0,4)=='edge') {
      edges[i].setAttribute('class','edge');
    }
  }
}
]]></script>
        <defs>
                <circle id="rim" cx="0" cy="0" r="7"/>
                <circle id="rim2" cx="0" cy="0" r="3.5"/>
                <g id="zoomPlus">
                        <use xlink:href="#rim" fill="#404040">
                                <set attributeName="fill" to="#808080" begin="zoomplus.mouseover" end="zoomplus.mouseout"/>
                        </use>
                        <path d="M-4,0h8M0,-4v8" fill="none" stroke="white" stroke-width="1.5" pointer-events="none"/>
                </g>
                <g id="zoomMin">
                        <use xlink:href="#rim" fill="#404040">
                                <set attributeName="fill" to="#808080" begin="zoomminus.mouseover" end="zoomminus.mouseout"/>
                        </use>
                        <path d="M-4,0h8" fill="none" stroke="white" stroke-width="1.5" pointer-events="none"/>
                </g>
                <g id="dirArrow">
                        <path fill="none" stroke="white" stroke-width="1.5" d="M0,-3.0v7 M-2.5,-0.5L0,-3.0L2.5,-0.5"/>
                </g>
               <g id="resetDef">
                       <use xlink:href="#rim2" fill="#404040">
                               <set attributeName="fill" to="#808080" begin="reset.mouseover" end="reset.mouseout"/>
                       </use>
               </g>
        </defs>

<script type="text/javascript">
var viewWidth = 2154;
var viewHeight = 231;
var sectionId = 'dynsection-9';
</script>
<script xlink:href="svgpan.js"/>
<svg id="graph" class="graph">
<g id="viewport">
<title>denoptim.utils.MathUtils.computeDihedralAngle</title>
<polygon fill="white" stroke="transparent" points="-4,4 -4,-226.5 2150,-226.5 2150,4 -4,4"/>
<!-- Node1 -->
<g id="node1" class="node">
<title>Node1</title>
<g id="a_node1"><a xlink:title="Compute the dihedral angle.">
<polygon fill="#bfbfbf" stroke="black" points="1985,-36 1985,-66 2146,-66 2146,-36 1985,-36"/>
<text text-anchor="start" x="1993" y="-54" font-family="Helvetica,sans-Serif" font-size="10.00">denoptim.utils.MathUtils.compute</text>
<text text-anchor="middle" x="2065.5" y="-43" font-family="Helvetica,sans-Serif" font-size="10.00">DihedralAngle</text>
</a>
</g>
</g>
<!-- Node1&#45;&gt;Node1 -->
<g id="edge1" class="edge">
<title>Node1&#45;&gt;Node1</title>
<path fill="none" stroke="midnightblue" d="M2100.33,-76.46C2096,-81.18 2084.4,-84.5 2065.5,-84.5 2034.49,-84.5 2023.11,-75.56 2031.34,-66.16"/>
<polygon fill="midnightblue" stroke="midnightblue" points="2103.8,-75.91 2099.66,-66.16 2096.81,-76.37 2103.8,-75.91"/>
</g>
<!-- Node2 -->
<g id="node2" class="node">
<title>Node2</title>
<g id="a_node2"><a xlink:href="classdenoptim_1_1graph_1_1rings_1_1_ring_closure_finder.html#a51c84fa00fdd0c1c2642f21070f222fa" target="_top" xlink:title="Giving a list of points in 3D space (the path) this method evaluates whether it exists at least one c...">
<polygon fill="white" stroke="black" points="1789,-59 1789,-89 1949,-89 1949,-59 1789,-59"/>
<text text-anchor="start" x="1797" y="-77" font-family="Helvetica,sans-Serif" font-size="10.00">denoptim.graph.rings.Ring</text>
<text text-anchor="middle" x="1869" y="-66" font-family="Helvetica,sans-Serif" font-size="10.00">ClosureFinder.evaluateClosability</text>
</a>
</g>
</g>
<!-- Node1&#45;&gt;Node2 -->
<g id="edge2" class="edge">
<title>Node1&#45;&gt;Node2</title>
<path fill="none" stroke="midnightblue" d="M1974.85,-61.6C1966.3,-62.61 1957.67,-63.63 1949.23,-64.63"/>
<polygon fill="midnightblue" stroke="midnightblue" points="1975.31,-65.07 1984.83,-60.42 1974.49,-58.12 1975.31,-65.07"/>
</g>
<!-- Node20 -->
<g id="node20" class="node">
<title>Node20</title>
<g id="a_node20"><a xlink:href="classdenoptim_1_1utils_1_1_math_utils.html#ad18764665d2f24f72e8b18ce015d84ce" target="_top" xlink:title="Calculate the torsion angle between the 4 points.">
<polygon fill="white" stroke="black" points="1793,-19.5 1793,-38.5 1945,-38.5 1945,-19.5 1793,-19.5"/>
<text text-anchor="middle" x="1869" y="-26.5" font-family="Helvetica,sans-Serif" font-size="10.00">denoptim.utils.MathUtils.torsion</text>
</a>
</g>
</g>
<!-- Node1&#45;&gt;Node20 -->
<g id="edge25" class="edge">
<title>Node1&#45;&gt;Node20</title>
<path fill="none" stroke="midnightblue" d="M1974.61,-40.83C1964.76,-39.72 1954.81,-38.59 1945.16,-37.5"/>
<polygon fill="midnightblue" stroke="midnightblue" points="1974.5,-44.34 1984.83,-41.99 1975.28,-37.39 1974.5,-44.34"/>
</g>
<!-- Node3 -->
<g id="node3" class="node">
<title>Node3</title>
<g id="a_node3"><a xlink:href="classdenoptim_1_1graph_1_1rings_1_1_cyclic_graph_handler.html#ab2b4cde037177c1fc44191de9b023dc3" target="_top" xlink:title="Method to evaluate the closability of a single path in a graph representing a molecule.">
<polygon fill="white" stroke="black" points="1561,-61 1561,-91 1753,-91 1753,-61 1561,-61"/>
<text text-anchor="start" x="1569" y="-79" font-family="Helvetica,sans-Serif" font-size="10.00">denoptim.graph.rings.Cyclic</text>
<text text-anchor="middle" x="1657" y="-68" font-family="Helvetica,sans-Serif" font-size="10.00">GraphHandler.evaluate3DPathClosability</text>
</a>
</g>
</g>
<!-- Node2&#45;&gt;Node3 -->
<g id="edge3" class="edge">
<title>Node2&#45;&gt;Node3</title>
<path fill="none" stroke="midnightblue" d="M1778.73,-74.85C1770.31,-74.93 1761.76,-75.01 1753.29,-75.09"/>
<polygon fill="midnightblue" stroke="midnightblue" points="1778.94,-78.35 1788.91,-74.75 1778.87,-71.35 1778.94,-78.35"/>
</g>
<!-- Node4 -->
<g id="node4" class="node">
<title>Node4</title>
<g id="a_node4"><a xlink:href="classdenoptim_1_1graph_1_1rings_1_1_cyclic_graph_handler.html#abd43d52fe626625dab3da6a32038e57b" target="_top" xlink:title="Method to evaluate the closability of a single path in a graph representing a molecule.">
<polygon fill="white" stroke="black" points="1340,-66 1340,-96 1520,-96 1520,-66 1340,-66"/>
<text text-anchor="start" x="1348" y="-84" font-family="Helvetica,sans-Serif" font-size="10.00">denoptim.graph.rings.Cyclic</text>
<text text-anchor="middle" x="1430" y="-73" font-family="Helvetica,sans-Serif" font-size="10.00">GraphHandler.evaluatePathClosability</text>
</a>
</g>
</g>
<!-- Node3&#45;&gt;Node4 -->
<g id="edge4" class="edge">
<title>Node3&#45;&gt;Node4</title>
<path fill="none" stroke="midnightblue" d="M1550.69,-78.34C1540.43,-78.57 1530.1,-78.8 1520.02,-79.02"/>
<polygon fill="midnightblue" stroke="midnightblue" points="1550.99,-81.83 1560.91,-78.11 1550.83,-74.84 1550.99,-81.83"/>
</g>
<!-- Node5 -->
<g id="node5" class="node">
<title>Node5</title>
<g id="a_node5"><a xlink:href="classdenoptim_1_1graph_1_1rings_1_1_cyclic_graph_handler.html#a3ce96322723f45d9285a248ebcef94d3" target="_top" xlink:title="Identifies all possible ring closing paths and returns them as list of DENOPTIMRings ready to be appe...">
<polygon fill="white" stroke="black" points="1115,-60.5 1115,-101.5 1299,-101.5 1299,-60.5 1115,-60.5"/>
<text text-anchor="start" x="1123" y="-89.5" font-family="Helvetica,sans-Serif" font-size="10.00">denoptim.graph.rings.Cyclic</text>
<text text-anchor="start" x="1123" y="-78.5" font-family="Helvetica,sans-Serif" font-size="10.00">GraphHandler.getPossibleCombination</text>
<text text-anchor="middle" x="1207" y="-67.5" font-family="Helvetica,sans-Serif" font-size="10.00">OfRings</text>
</a>
</g>
</g>
<!-- Node4&#45;&gt;Node5 -->
<g id="edge5" class="edge">
<title>Node4&#45;&gt;Node5</title>
<path fill="none" stroke="midnightblue" d="M1329.62,-81C1319.43,-81 1309.12,-81 1299.03,-81"/>
<polygon fill="midnightblue" stroke="midnightblue" points="1329.75,-84.5 1339.75,-81 1329.75,-77.5 1329.75,-84.5"/>
</g>
<!-- Node19 -->
<g id="node19" class="node">
<title>Node19</title>
<g id="a_node19"><a xlink:href="classdenoptim_1_1graph_1_1rings_1_1_cyclic_graph_handler.html#a08b02946eaac7c2cbbe6e71332d702e6" target="_top" xlink:title="Identifies a random combination of ring closing paths and returns it as list of DENOPTIMRings ready t...">
<polygon fill="white" stroke="black" points="1116,-120.5 1116,-161.5 1298,-161.5 1298,-120.5 1116,-120.5"/>
<text text-anchor="start" x="1124" y="-149.5" font-family="Helvetica,sans-Serif" font-size="10.00">denoptim.graph.rings.Cyclic</text>
<text text-anchor="start" x="1124" y="-138.5" font-family="Helvetica,sans-Serif" font-size="10.00">GraphHandler.getRandomCombination</text>
<text text-anchor="middle" x="1207" y="-127.5" font-family="Helvetica,sans-Serif" font-size="10.00">OfRings</text>
</a>
</g>
</g>
<!-- Node4&#45;&gt;Node19 -->
<g id="edge23" class="edge">
<title>Node4&#45;&gt;Node19</title>
<path fill="none" stroke="midnightblue" d="M1363.71,-98.73C1338.55,-105.56 1309.6,-113.42 1283.55,-120.49"/>
<polygon fill="midnightblue" stroke="midnightblue" points="1364.78,-102.06 1373.52,-96.06 1362.95,-95.31 1364.78,-102.06"/>
</g>
<!-- Node6 -->
<g id="node6" class="node">
<title>Node6</title>
<g id="a_node6"><a xlink:href="classdenoptim_1_1graph_1_1_d_graph.html#a7a4743d014e860237f4b20703ef9779b" target="_top" xlink:title="Evaluates the possibility of closing rings in this graph and generates all alternative graphs resulti...">
<polygon fill="white" stroke="black" points="898.5,-61 898.5,-91 1053.5,-91 1053.5,-61 898.5,-61"/>
<text text-anchor="start" x="906.5" y="-79" font-family="Helvetica,sans-Serif" font-size="10.00">denoptim.graph.DGraph.make</text>
<text text-anchor="middle" x="976" y="-68" font-family="Helvetica,sans-Serif" font-size="10.00">AllGraphsWithDifferentRingSets</text>
</a>
</g>
</g>
<!-- Node5&#45;&gt;Node6 -->
<g id="edge6" class="edge">
<title>Node5&#45;&gt;Node6</title>
<path fill="none" stroke="midnightblue" d="M1104.82,-78.79C1087.71,-78.42 1070.2,-78.03 1053.84,-77.68"/>
<polygon fill="midnightblue" stroke="midnightblue" points="1104.76,-82.29 1114.84,-79.01 1104.91,-75.29 1104.76,-82.29"/>
</g>
<!-- Node8 -->
<g id="node8" class="node">
<title>Node8</title>
<g id="a_node8"><a xlink:href="classdenoptim_1_1ga_1_1_e_a_utils.html#a1ddb932d4618434d435e4f85ce5e5eb5" target="_top" xlink:title="Evaluates the possibility of closing rings in a given graph and if any ring can be closed,...">
<polygon fill="white" stroke="black" points="910.5,-126 910.5,-156 1041.5,-156 1041.5,-126 910.5,-126"/>
<text text-anchor="start" x="918.5" y="-144" font-family="Helvetica,sans-Serif" font-size="10.00">denoptim.ga.EAUtils.setup</text>
<text text-anchor="middle" x="976" y="-133" font-family="Helvetica,sans-Serif" font-size="10.00">Rings</text>
</a>
</g>
</g>
<!-- Node5&#45;&gt;Node8 -->
<g id="edge8" class="edge">
<title>Node5&#45;&gt;Node8</title>
<path fill="none" stroke="midnightblue" d="M1117.73,-104.13C1089.78,-111.45 1059.62,-119.35 1034.42,-125.96"/>
<polygon fill="midnightblue" stroke="midnightblue" points="1118.73,-107.48 1127.51,-101.56 1116.95,-100.71 1118.73,-107.48"/>
</g>
<!-- Node7 -->
<g id="node7" class="node">
<title>Node7</title>
<g id="a_node7"><a xlink:href="classdenoptim_1_1combinatorial_1_1_graph_building_task.html#a3eaee724fc921194fa158714aafe182d" target="_top" xlink:title="Calls the task.">
<polygon fill="white" stroke="black" points="692,-45 692,-75 837,-75 837,-45 692,-45"/>
<text text-anchor="start" x="700" y="-63" font-family="Helvetica,sans-Serif" font-size="10.00">denoptim.combinatorial.Graph</text>
<text text-anchor="middle" x="764.5" y="-52" font-family="Helvetica,sans-Serif" font-size="10.00">BuildingTask.call</text>
</a>
</g>
</g>
<!-- Node6&#45;&gt;Node7 -->
<g id="edge7" class="edge">
<title>Node6&#45;&gt;Node7</title>
<path fill="none" stroke="midnightblue" d="M888.06,-69.36C871.16,-68.07 853.63,-66.73 837.29,-65.48"/>
<polygon fill="midnightblue" stroke="midnightblue" points="888.24,-72.88 898.48,-70.16 888.77,-65.9 888.24,-72.88"/>
</g>
<!-- Node9 -->
<g id="node9" class="node">
<title>Node9</title>
<g id="a_node9"><a xlink:href="classdenoptim_1_1ga_1_1_e_a_utils.html#a8122818f58919fce84dce75e7506025a" target="_top" xlink:title=" ">
<polygon fill="white" stroke="black" points="701,-94 701,-124 828,-124 828,-94 701,-94"/>
<text text-anchor="start" x="709" y="-112" font-family="Helvetica,sans-Serif" font-size="10.00">denoptim.ga.EAUtils.build</text>
<text text-anchor="middle" x="764.5" y="-101" font-family="Helvetica,sans-Serif" font-size="10.00">CandidateByMutation</text>
</a>
</g>
</g>
<!-- Node8&#45;&gt;Node9 -->
<g id="edge9" class="edge">
<title>Node8&#45;&gt;Node9</title>
<path fill="none" stroke="midnightblue" d="M900.44,-129.61C876.75,-125.99 850.81,-122.03 828.06,-118.56"/>
<polygon fill="midnightblue" stroke="midnightblue" points="900.02,-133.09 910.43,-131.14 901.08,-126.17 900.02,-133.09"/>
</g>
<!-- Node16 -->
<g id="node16" class="node">
<title>Node16</title>
<g id="a_node16"><a xlink:href="classdenoptim_1_1ga_1_1_e_a_utils.html#ad3d2daeb11e68a356e971ca1846596b5" target="_top" xlink:title=" ">
<polygon fill="white" stroke="black" points="701,-192 701,-222 828,-222 828,-192 701,-192"/>
<text text-anchor="start" x="709" y="-210" font-family="Helvetica,sans-Serif" font-size="10.00">denoptim.ga.EAUtils.build</text>
<text text-anchor="middle" x="764.5" y="-199" font-family="Helvetica,sans-Serif" font-size="10.00">CandidateFromScratch</text>
</a>
</g>
</g>
<!-- Node8&#45;&gt;Node16 -->
<g id="edge17" class="edge">
<title>Node8&#45;&gt;Node16</title>
<path fill="none" stroke="midnightblue" d="M917.34,-159.17C884.7,-169.45 844.35,-182.16 813.46,-191.89"/>
<polygon fill="midnightblue" stroke="midnightblue" points="918.71,-162.4 927.2,-156.06 916.61,-155.73 918.71,-162.4"/>
</g>
<!-- Node18 -->
<g id="node18" class="node">
<title>Node18</title>
<g id="a_node18"><a xlink:href="classdenoptim_1_1ga_1_1_e_a_utils.html#a0b958439d79fae30f14530213ad22e3a" target="_top" xlink:title="Generates up to a pair of new offspring by performing a crossover operation.">
<polygon fill="white" stroke="black" points="701,-143 701,-173 828,-173 828,-143 701,-143"/>
<text text-anchor="start" x="709" y="-161" font-family="Helvetica,sans-Serif" font-size="10.00">denoptim.ga.EAUtils.build</text>
<text text-anchor="middle" x="764.5" y="-150" font-family="Helvetica,sans-Serif" font-size="10.00">CandidatesByXOver</text>
</a>
</g>
</g>
<!-- Node8&#45;&gt;Node18 -->
<g id="edge22" class="edge">
<title>Node8&#45;&gt;Node18</title>
<path fill="none" stroke="midnightblue" d="M900.44,-147.05C876.75,-148.97 850.81,-151.08 828.06,-152.92"/>
<polygon fill="midnightblue" stroke="midnightblue" points="900.75,-150.54 910.43,-146.24 900.18,-143.56 900.75,-150.54"/>
</g>
<!-- Node10 -->
<g id="node10" class="node">
<title>Node10</title>
<g id="a_node10"><a xlink:href="classdenoptim_1_1ga_1_1_evolutionary_algorithm.html#a0c2e353b243250b4959a3f86608f1020" target="_top" xlink:title="Generates one offspring according to the method where crossover and mutation are decoupled,...">
<polygon fill="white" stroke="black" points="526,-97 526,-127 656,-127 656,-97 526,-97"/>
<text text-anchor="start" x="534" y="-115" font-family="Helvetica,sans-Serif" font-size="10.00">denoptim.ga.Evolutionary</text>
<text text-anchor="middle" x="591" y="-104" font-family="Helvetica,sans-Serif" font-size="10.00">Algorithm.makeOffspringA</text>
</a>
</g>
</g>
<!-- Node9&#45;&gt;Node10 -->
<g id="edge10" class="edge">
<title>Node9&#45;&gt;Node10</title>
<path fill="none" stroke="midnightblue" d="M690.61,-110.27C679.12,-110.48 667.3,-110.68 656.03,-110.88"/>
<polygon fill="midnightblue" stroke="midnightblue" points="690.68,-113.77 700.61,-110.1 690.55,-106.78 690.68,-113.77"/>
</g>
<!-- Node15 -->
<g id="node15" class="node">
<title>Node15</title>
<g id="a_node15"><a xlink:href="classdenoptim_1_1ga_1_1_evolutionary_algorithm.html#ae7a90a911b109ed47b3acf54193acc35" target="_top" xlink:title="Generates one offspring according to the method where crossover and mutation are coupled,...">
<polygon fill="white" stroke="black" points="526,-146 526,-176 656,-176 656,-146 526,-146"/>
<text text-anchor="start" x="534" y="-164" font-family="Helvetica,sans-Serif" font-size="10.00">denoptim.ga.Evolutionary</text>
<text text-anchor="middle" x="591" y="-153" font-family="Helvetica,sans-Serif" font-size="10.00">Algorithm.makeOffspringB</text>
</a>
</g>
</g>
<!-- Node9&#45;&gt;Node15 -->
<g id="edge15" class="edge">
<title>Node9&#45;&gt;Node15</title>
<path fill="none" stroke="midnightblue" d="M704.07,-127.02C683.66,-133.21 661.04,-140.07 641.49,-145.99"/>
<polygon fill="midnightblue" stroke="midnightblue" points="705.34,-130.29 713.9,-124.04 703.31,-123.59 705.34,-130.29"/>
</g>
<!-- Node11 -->
<g id="node11" class="node">
<title>Node11</title>
<g id="a_node11"><a xlink:href="classdenoptim_1_1ga_1_1_evolutionary_algorithm.html#a596b2f5f0b097c5b67a6e5163bd6fe66" target="_top" xlink:title="Generates a given number of new candidate items and adds them to the current population.">
<polygon fill="white" stroke="black" points="353,-143 353,-173 487,-173 487,-143 353,-143"/>
<text text-anchor="start" x="361" y="-161" font-family="Helvetica,sans-Serif" font-size="10.00">denoptim.ga.Evolutionary</text>
<text text-anchor="middle" x="420" y="-150" font-family="Helvetica,sans-Serif" font-size="10.00">Algorithm.evolvePopulation</text>
</a>
</g>
</g>
<!-- Node10&#45;&gt;Node11 -->
<g id="edge11" class="edge">
<title>Node10&#45;&gt;Node11</title>
<path fill="none" stroke="midnightblue" d="M524.81,-129.74C508.75,-134.11 491.71,-138.75 476.17,-142.98"/>
<polygon fill="midnightblue" stroke="midnightblue" points="525.93,-133.07 534.66,-127.06 524.09,-126.31 525.93,-133.07"/>
</g>
<!-- Node12 -->
<g id="node12" class="node">
<title>Node12</title>
<g id="a_node12"><a xlink:href="classdenoptim_1_1ga_1_1_evolutionary_algorithm.html#a6bfc2fa59b199da6259b5b6bad3d6de7" target="_top" xlink:title=" ">
<polygon fill="white" stroke="black" points="190,-167 190,-197 314,-197 314,-167 190,-167"/>
<text text-anchor="start" x="198" y="-185" font-family="Helvetica,sans-Serif" font-size="10.00">denoptim.ga.Evolutionary</text>
<text text-anchor="middle" x="252" y="-174" font-family="Helvetica,sans-Serif" font-size="10.00">Algorithm.run</text>
</a>
</g>
</g>
<!-- Node11&#45;&gt;Node12 -->
<g id="edge12" class="edge">
<title>Node11&#45;&gt;Node12</title>
<path fill="none" stroke="midnightblue" d="M342.9,-169C333.21,-170.4 323.41,-171.82 314.01,-173.18"/>
<polygon fill="midnightblue" stroke="midnightblue" points="343.52,-172.45 352.92,-167.55 342.52,-165.52 343.52,-172.45"/>
</g>
<!-- Node13 -->
<g id="node13" class="node">
<title>Node13</title>
<g id="a_node13"><a xlink:href="classdenoptim_1_1ga_1_1_evolutionary_algorithm.html#a0f2063b722b7291daf83d62acaa683d3" target="_top" xlink:title=" ">
<polygon fill="white" stroke="black" points="0,-192 0,-222 154,-222 154,-192 0,-192"/>
<text text-anchor="start" x="8" y="-210" font-family="Helvetica,sans-Serif" font-size="10.00">denoptim.ga.Evolutionary</text>
<text text-anchor="middle" x="77" y="-199" font-family="Helvetica,sans-Serif" font-size="10.00">Algorithm.EvolutionaryAlgorithm</text>
</a>
</g>
</g>
<!-- Node12&#45;&gt;Node13 -->
<g id="edge13" class="edge">
<title>Node12&#45;&gt;Node13</title>
<path fill="none" stroke="midnightblue" d="M179.44,-192.34C171.09,-193.55 162.54,-194.78 154.12,-196"/>
<polygon fill="midnightblue" stroke="midnightblue" points="180.12,-195.78 189.52,-190.88 179.12,-188.85 180.12,-195.78"/>
</g>
<!-- Node14 -->
<g id="node14" class="node">
<title>Node14</title>
<g id="a_node14"><a xlink:href="classdenoptim_1_1programs_1_1denovo_1_1_g_a_runner.html#a7cafd6d78727b89dce3e2c8d06f0dd7c" target="_top" xlink:title=" ">
<polygon fill="white" stroke="black" points="9.5,-143 9.5,-173 144.5,-173 144.5,-143 9.5,-143"/>
<text text-anchor="start" x="17.5" y="-161" font-family="Helvetica,sans-Serif" font-size="10.00">denoptim.programs.denovo.</text>
<text text-anchor="middle" x="77" y="-150" font-family="Helvetica,sans-Serif" font-size="10.00">GARunner.runProgram</text>
</a>
</g>
</g>
<!-- Node12&#45;&gt;Node14 -->
<g id="edge14" class="edge">
<title>Node12&#45;&gt;Node14</title>
<path fill="none" stroke="midnightblue" d="M179.48,-172.08C167.92,-170.47 156,-168.82 144.57,-167.23"/>
<polygon fill="midnightblue" stroke="midnightblue" points="179.13,-175.56 189.52,-173.47 180.1,-168.63 179.13,-175.56"/>
</g>
<!-- Node15&#45;&gt;Node11 -->
<g id="edge16" class="edge">
<title>Node15&#45;&gt;Node11</title>
<path fill="none" stroke="midnightblue" d="M515.48,-159.68C506.05,-159.51 496.45,-159.34 487.16,-159.17"/>
<polygon fill="midnightblue" stroke="midnightblue" points="515.57,-163.18 525.63,-159.86 515.69,-156.18 515.57,-163.18"/>
</g>
<!-- Node16&#45;&gt;Node10 -->
<g id="edge20" class="edge">
<title>Node16&#45;&gt;Node10</title>
<path fill="none" stroke="midnightblue" d="M698.58,-187.21C696.31,-185.89 694.11,-184.49 692,-183 670.8,-168.02 676.83,-152.49 656,-137 650.93,-133.23 645.21,-129.94 639.34,-127.11"/>
<polygon fill="midnightblue" stroke="midnightblue" points="697.17,-190.41 707.66,-191.9 700.38,-184.2 697.17,-190.41"/>
</g>
<!-- Node16&#45;&gt;Node15 -->
<g id="edge21" class="edge">
<title>Node16&#45;&gt;Node15</title>
<path fill="none" stroke="midnightblue" d="M697.35,-189.26C681.05,-184.89 663.75,-180.25 647.99,-176.02"/>
<polygon fill="midnightblue" stroke="midnightblue" points="696.78,-192.73 707.34,-191.94 698.59,-185.97 696.78,-192.73"/>
</g>
<!-- Node17 -->
<g id="node17" class="node">
<title>Node17</title>
<g id="a_node17"><a xlink:href="classdenoptim_1_1ga_1_1_evolutionary_algorithm.html#ad43588620dab3340e0d8b0042ec73618" target="_top" xlink:title="Fills up the population with candidates build from scratch.">
<polygon fill="white" stroke="black" points="350,-192 350,-222 490,-222 490,-192 350,-192"/>
<text text-anchor="start" x="358" y="-210" font-family="Helvetica,sans-Serif" font-size="10.00">denoptim.ga.Evolutionary</text>
<text text-anchor="middle" x="420" y="-199" font-family="Helvetica,sans-Serif" font-size="10.00">Algorithm.initializePopulation</text>
</a>
</g>
</g>
<!-- Node16&#45;&gt;Node17 -->
<g id="edge18" class="edge">
<title>Node16&#45;&gt;Node17</title>
<path fill="none" stroke="midnightblue" d="M690.65,-207C631.42,-207 548.41,-207 490.19,-207"/>
<polygon fill="midnightblue" stroke="midnightblue" points="690.68,-210.5 700.68,-207 690.68,-203.5 690.68,-210.5"/>
</g>
<!-- Node17&#45;&gt;Node12 -->
<g id="edge19" class="edge">
<title>Node17&#45;&gt;Node12</title>
<path fill="none" stroke="midnightblue" d="M339.6,-195.04C331.08,-193.76 322.5,-192.47 314.24,-191.22"/>
<polygon fill="midnightblue" stroke="midnightblue" points="339.15,-198.51 349.56,-196.54 340.2,-191.59 339.15,-198.51"/>
</g>
<!-- Node19&#45;&gt;Node8 -->
<g id="edge24" class="edge">
<title>Node19&#45;&gt;Node8</title>
<path fill="none" stroke="midnightblue" d="M1105.58,-141C1083.89,-141 1061.52,-141 1041.63,-141"/>
<polygon fill="midnightblue" stroke="midnightblue" points="1105.82,-144.5 1115.82,-141 1105.82,-137.5 1105.82,-144.5"/>
</g>
<!-- Node21 -->
<g id="node21" class="node">
<title>Node21</title>
<g id="a_node21"><a xlink:href="classdenoptim_1_1integration_1_1tinker_1_1_tinker_utils.html#aae018598945eacf2b1c984b2efc3c6a0" target="_top" xlink:title="Convert IAtomContainer to TinkerMolecule.">
<polygon fill="white" stroke="black" points="1591,-12 1591,-42 1723,-42 1723,-12 1591,-12"/>
<text text-anchor="start" x="1599" y="-30" font-family="Helvetica,sans-Serif" font-size="10.00">denoptim.integration.tinker.</text>
<text text-anchor="middle" x="1657" y="-19" font-family="Helvetica,sans-Serif" font-size="10.00">TinkerUtils.getICFromIAC</text>
</a>
</g>
</g>
<!-- Node20&#45;&gt;Node21 -->
<g id="edge26" class="edge">
<title>Node20&#45;&gt;Node21</title>
<path fill="none" stroke="midnightblue" d="M1782.55,-28.19C1762.78,-28 1742.06,-27.8 1723.31,-27.62"/>
<polygon fill="midnightblue" stroke="midnightblue" points="1782.75,-31.69 1792.78,-28.28 1782.81,-24.69 1782.75,-31.69"/>
</g>
<!-- Node22 -->
<g id="node22" class="node">
<title>Node22</title>
<g id="a_node22"><a xlink:href="classdenoptim_1_1molecularmodeling_1_1_multi_molecular_model_builder.html#a1cd879265bf12e9c2980efae1e8e74aa" target="_top" xlink:title="Generate 3D structure by assembling 3D fragments according to attachment point vector and following t...">
<polygon fill="white" stroke="black" points="1335,-12 1335,-42 1525,-42 1525,-12 1335,-12"/>
<text text-anchor="start" x="1343" y="-30" font-family="Helvetica,sans-Serif" font-size="10.00">denoptim.molecularmodeling.</text>
<text text-anchor="middle" x="1430" y="-19" font-family="Helvetica,sans-Serif" font-size="10.00">MultiMolecularModelBuilder.build3DTree</text>
</a>
</g>
</g>
<!-- Node21&#45;&gt;Node22 -->
<g id="edge27" class="edge">
<title>Node21&#45;&gt;Node22</title>
<path fill="none" stroke="midnightblue" d="M1580.64,-27C1562.87,-27 1543.71,-27 1525.22,-27"/>
<polygon fill="midnightblue" stroke="midnightblue" points="1580.92,-30.5 1590.92,-27 1580.92,-23.5 1580.92,-30.5"/>
</g>
<!-- Node23 -->
<g id="node23" class="node">
<title>Node23</title>
<g id="a_node23"><a xlink:href="classdenoptim_1_1molecularmodeling_1_1_multi_molecular_model_builder.html#a6a8e314f3fb37f66c32c8c4d5695b8a4" target="_top" xlink:title="Given the graph representation of the molecular constitution, along with the 3D coordinates of the fr...">
<polygon fill="white" stroke="black" points="1128,-0.5 1128,-41.5 1286,-41.5 1286,-0.5 1128,-0.5"/>
<text text-anchor="start" x="1136" y="-29.5" font-family="Helvetica,sans-Serif" font-size="10.00">denoptim.molecularmodeling.</text>
<text text-anchor="start" x="1136" y="-18.5" font-family="Helvetica,sans-Serif" font-size="10.00">MultiMolecularModelBuilder.build</text>
<text text-anchor="middle" x="1207" y="-7.5" font-family="Helvetica,sans-Serif" font-size="10.00">Multi3DStructure</text>
</a>
</g>
</g>
<!-- Node22&#45;&gt;Node23 -->
<g id="edge28" class="edge">
<title>Node22&#45;&gt;Node23</title>
<path fill="none" stroke="midnightblue" d="M1324.65,-24.17C1311.74,-23.82 1298.73,-23.46 1286.31,-23.13"/>
<polygon fill="midnightblue" stroke="midnightblue" points="1324.86,-27.67 1334.96,-24.45 1325.05,-20.68 1324.86,-27.67"/>
</g>
<!-- Node24 -->
<g id="node24" class="node">
<title>Node24</title>
<g id="a_node24"><a xlink:href="classdenoptim_1_1programs_1_1moldecularmodelbuilder_1_1_molecular_model_builder.html#ad2e44290de6a861274def677044e9754" target="_top" xlink:title=" ">
<polygon fill="white" stroke="black" points="873,-6 873,-36 1079,-36 1079,-6 873,-6"/>
<text text-anchor="start" x="881" y="-24" font-family="Helvetica,sans-Serif" font-size="10.00">denoptim.programs.moldecularmodelbuilder.</text>
<text text-anchor="middle" x="976" y="-13" font-family="Helvetica,sans-Serif" font-size="10.00">MolecularModelBuilder.runProgram</text>
</a>
</g>
</g>
<!-- Node23&#45;&gt;Node24 -->
<g id="edge29" class="edge">
<title>Node23&#45;&gt;Node24</title>
<path fill="none" stroke="midnightblue" d="M1117.79,-21C1105.13,-21 1092.01,-21 1079.11,-21"/>
<polygon fill="midnightblue" stroke="midnightblue" points="1117.83,-24.5 1127.83,-21 1117.83,-17.5 1117.83,-24.5"/>
</g>
</g>
</svg>
        <g id="navigator" transform="translate(0 0)" fill="#404254">
                <rect fill="#f2f5e9" fill-opacity="0.5" stroke="#606060" stroke-width=".5" x="0" y="0" width="60" height="60"/>
                <use id="zoomplus" xlink:href="#zoomPlus" x="17" y="9" onmousedown="handleZoom(evt,'in')"/>
                <use id="zoomminus" xlink:href="#zoomMin" x="42" y="9" onmousedown="handleZoom(evt,'out')"/>
                <use id="reset" xlink:href="#resetDef" x="30" y="36" onmousedown="handleReset()"/>
                <g id="arrowUp" xlink:href="#dirArrow" transform="translate(30 24)" onmousedown="handlePan(0,-1)">
                  <use xlink:href="#rim" fill="#404040">
                        <set attributeName="fill" to="#808080" begin="arrowUp.mouseover" end="arrowUp.mouseout"/>
                  </use>
                  <path fill="none" stroke="white" stroke-width="1.5" d="M0,-3.0v7 M-2.5,-0.5L0,-3.0L2.5,-0.5"/>
                </g>
                <g id="arrowRight" xlink:href="#dirArrow" transform="rotate(90) translate(36 -43)" onmousedown="handlePan(1,0)">
                  <use xlink:href="#rim" fill="#404040">
                        <set attributeName="fill" to="#808080" begin="arrowRight.mouseover" end="arrowRight.mouseout"/>
                  </use>
                  <path fill="none" stroke="white" stroke-width="1.5" d="M0,-3.0v7 M-2.5,-0.5L0,-3.0L2.5,-0.5"/>
                </g>
                <g id="arrowDown" xlink:href="#dirArrow" transform="rotate(180) translate(-30 -48)" onmousedown="handlePan(0,1)">
                  <use xlink:href="#rim" fill="#404040">
                        <set attributeName="fill" to="#808080" begin="arrowDown.mouseover" end="arrowDown.mouseout"/>
                  </use>
                  <path fill="none" stroke="white" stroke-width="1.5" d="M0,-3.0v7 M-2.5,-0.5L0,-3.0L2.5,-0.5"/>
                </g>
                <g id="arrowLeft" xlink:href="#dirArrow" transform="rotate(270) translate(-36 17)" onmousedown="handlePan(-1,0)">
                  <use xlink:href="#rim" fill="#404040">
                        <set attributeName="fill" to="#808080" begin="arrowLeft.mouseover" end="arrowLeft.mouseout"/>
                  </use>
                  <path fill="none" stroke="white" stroke-width="1.5" d="M0,-3.0v7 M-2.5,-0.5L0,-3.0L2.5,-0.5"/>
                </g>
        </g>
        <svg viewBox="0 0 15 15" width="100%" height="30px" preserveAspectRatio="xMaxYMin meet">
         <g id="arrow_out" transform="scale(0.3 0.3)">
          <a xlink:href="classdenoptim_1_1utils_1_1_math_utils_ac6f7f135ee0acd6ee3f9a288a17510c6_icgraph_org.svg" target="_base">
           <rect id="button" ry="5" rx="5" y="6" x="6" height="38" width="38"
                fill="#f2f5e9" fill-opacity="0.5" stroke="#606060" stroke-width="1.0"/>
           <path id="arrow"
             d="M 11.500037,31.436501 C 11.940474,20.09759 22.043105,11.32322 32.158766,21.979434 L 37.068811,17.246167 C 37.068811,17.246167 37.088388,32 37.088388,32 L 22.160133,31.978069 C 22.160133,31.978069 26.997745,27.140456 26.997745,27.140456 C 18.528582,18.264221 13.291696,25.230495 11.500037,31.436501 z"
             style="fill:#404040;"/>
          </a>
         </g>
        </svg>
</svg>
