<?xml version="1.0" encoding="UTF-8" standalone="no"?>
<!DOCTYPE svg PUBLIC "-//W3C//DTD SVG 1.1//EN"
 "http://www.w3.org/Graphics/SVG/1.1/DTD/svg11.dtd">
<!-- Generated by graphviz version 3.0.0 (20221109.1736)
 -->
<!-- Title: denoptim.graph.rings.RingClosingAttractor Pages: 1 -->
<svg width="752pt" height="276pt"
 viewBox="0.00 0.00 752.00 276.00" xmlns="http://www.w3.org/2000/svg" xmlns:xlink="http://www.w3.org/1999/xlink">
<g id="graph0" class="graph" transform="scale(1 1) rotate(0) translate(4 272)">
<title>denoptim.graph.rings.RingClosingAttractor</title>
<polygon fill="white" stroke="transparent" points="-4,4 -4,-272 748,-272 748,4 -4,4"/>
<!-- Node1 -->
<g id="node1" class="node">
<title>Node1</title>
<g id="a_node1"><a xlink:title="The RingClosingAttractor represent the available valence/connection that allows to close a ring.">
<polygon fill="#bfbfbf" stroke="black" points="616,-133 616,-163 744,-163 744,-133 616,-133"/>
<text text-anchor="start" x="624" y="-151" font-family="Helvetica,sans-Serif" font-size="10.00">denoptim.graph.rings.Ring</text>
<text text-anchor="middle" x="680" y="-140" font-family="Helvetica,sans-Serif" font-size="10.00">ClosingAttractor</text>
</a>
</g>
</g>
<!-- Node2 -->
<g id="node2" class="node">
<title>Node2</title>
<g id="a_node2"><a xlink:title=" ">
<polygon fill="white" stroke="black" points="408,-219.5 408,-238.5 521,-238.5 521,-219.5 408,-219.5"/>
<text text-anchor="middle" x="464.5" y="-226.5" font-family="Helvetica,sans-Serif" font-size="10.00">Map&lt; String, Double &gt;</text>
</a>
</g>
</g>
<!-- Node2&#45;&gt;Node1 -->
<g id="edge1" class="edge">
<title>Node2&#45;&gt;Node1</title>
<path fill="none" stroke="#9a32cd" stroke-dasharray="5,2" d="M530.99,-217.37C552.76,-212.41 576.84,-205.71 598,-197 619.58,-188.12 642.14,-174.01 657.96,-163.21"/>
<polygon fill="#9a32cd" stroke="#9a32cd" points="530.18,-213.96 521.17,-219.52 531.69,-220.8 530.18,-213.96"/>
<text text-anchor="middle" x="571" y="-250" font-family="Helvetica,sans-Serif" font-size="10.00"> paramAR11</text>
<text text-anchor="middle" x="571" y="-239" font-family="Helvetica,sans-Serif" font-size="10.00">paramAR12</text>
<text text-anchor="middle" x="571" y="-228" font-family="Helvetica,sans-Serif" font-size="10.00">paramBR11</text>
<text text-anchor="middle" x="571" y="-217" font-family="Helvetica,sans-Serif" font-size="10.00">paramBR12</text>
</g>
<!-- Node3 -->
<g id="node3" class="node">
<title>Node3</title>
<g id="a_node3"><a xlink:title=" ">
<polygon fill="white" stroke="black" points="443,-176.5 443,-195.5 486,-195.5 486,-176.5 443,-176.5"/>
<text text-anchor="middle" x="464.5" y="-183.5" font-family="Helvetica,sans-Serif" font-size="10.00">IAtom</text>
</a>
</g>
</g>
<!-- Node3&#45;&gt;Node1 -->
<g id="edge2" class="edge">
<title>Node3&#45;&gt;Node1</title>
<path fill="none" stroke="#9a32cd" stroke-dasharray="5,2" d="M496.58,-180.47C527.68,-174.93 576.41,-166.26 615.68,-159.27"/>
<polygon fill="#9a32cd" stroke="#9a32cd" points="495.59,-177.09 486.36,-182.29 496.82,-183.98 495.59,-177.09"/>
<text text-anchor="middle" x="571" y="-185" font-family="Helvetica,sans-Serif" font-size="10.00"> atm</text>
<text text-anchor="middle" x="571" y="-174" font-family="Helvetica,sans-Serif" font-size="10.00">src</text>
</g>
<!-- Node4 -->
<g id="node4" class="node">
<title>Node4</title>
<g id="a_node4"><a xlink:href="classdenoptim_1_1graph_1_1_a_p_class.html" target="_top" xlink:title=" ">
<polygon fill="white" stroke="black" points="403,-138.5 403,-157.5 526,-157.5 526,-138.5 403,-138.5"/>
<text text-anchor="middle" x="464.5" y="-145.5" font-family="Helvetica,sans-Serif" font-size="10.00">denoptim.graph.APClass</text>
</a>
</g>
</g>
<!-- Node4&#45;&gt;Node1 -->
<g id="edge3" class="edge">
<title>Node4&#45;&gt;Node1</title>
<path fill="none" stroke="#9a32cd" stroke-dasharray="5,2" d="M536.15,-148C561.81,-148 590.64,-148 615.63,-148"/>
<polygon fill="#9a32cd" stroke="#9a32cd" points="536.11,-144.5 526.11,-148 536.11,-151.5 536.11,-144.5"/>
<text text-anchor="middle" x="571" y="-151" font-family="Helvetica,sans-Serif" font-size="10.00"> apClass</text>
</g>
<!-- Node5 -->
<g id="node5" class="node">
<title>Node5</title>
<g id="a_node5"><a xlink:title=" ">
<polygon fill="white" stroke="black" points="139,-248.5 139,-267.5 198,-267.5 198,-248.5 139,-248.5"/>
<text text-anchor="middle" x="168.5" y="-255.5" font-family="Helvetica,sans-Serif" font-size="10.00">Cloneable</text>
</a>
</g>
</g>
<!-- Node5&#45;&gt;Node4 -->
<g id="edge4" class="edge">
<title>Node5&#45;&gt;Node4</title>
<path fill="none" stroke="midnightblue" d="M208.37,-264.17C255.86,-269.38 335.91,-270.29 385,-228 406.42,-209.55 383.19,-187.16 403,-167 406.78,-163.15 411.33,-160.08 416.22,-157.63"/>
<polygon fill="midnightblue" stroke="midnightblue" points="208.53,-260.66 198.18,-262.93 207.69,-267.61 208.53,-260.66"/>
</g>
<!-- Node6 -->
<g id="node6" class="node">
<title>Node6</title>
<g id="a_node6"><a xlink:title=" ">
<polygon fill="white" stroke="black" points="107,-210.5 107,-229.5 230,-229.5 230,-210.5 107,-210.5"/>
<text text-anchor="middle" x="168.5" y="-217.5" font-family="Helvetica,sans-Serif" font-size="10.00">Comparable&lt; APClass &gt;</text>
</a>
</g>
</g>
<!-- Node6&#45;&gt;Node4 -->
<g id="edge5" class="edge">
<title>Node6&#45;&gt;Node4</title>
<path fill="none" stroke="midnightblue" d="M240.41,-228.96C285.29,-231.01 342.64,-226.62 385,-199 398.67,-190.09 390.33,-177.28 403,-167 407.79,-163.12 413.38,-160.02 419.19,-157.56"/>
<polygon fill="midnightblue" stroke="midnightblue" points="240.34,-225.45 230.16,-228.37 239.94,-232.44 240.34,-225.45"/>
</g>
<!-- Node7 -->
<g id="node7" class="node">
<title>Node7</title>
<g id="a_node7"><a xlink:title=" ">
<polygon fill="white" stroke="black" points="91,-172.5 91,-191.5 246,-191.5 246,-172.5 91,-172.5"/>
<text text-anchor="middle" x="168.5" y="-179.5" font-family="Helvetica,sans-Serif" font-size="10.00">Set&lt; denoptim.graph.APClass &gt;</text>
</a>
</g>
</g>
<!-- Node7&#45;&gt;Node4 -->
<g id="edge6" class="edge">
<title>Node7&#45;&gt;Node4</title>
<path fill="none" stroke="#9a32cd" stroke-dasharray="5,2" d="M256.25,-174.14C295.6,-170.32 342.7,-165.39 385,-160 390.88,-159.25 397,-158.41 403.11,-157.54"/>
<polygon fill="#9a32cd" stroke="#9a32cd" points="255.77,-170.67 246.15,-175.11 256.44,-177.64 255.77,-170.67"/>
<text text-anchor="middle" x="324.5" y="-187" font-family="Helvetica,sans-Serif" font-size="10.00"> RCAAPCLASSSET</text>
<text text-anchor="middle" x="324.5" y="-176" font-family="Helvetica,sans-Serif" font-size="10.00">uniqueAPClasses</text>
</g>
<!-- Node8 -->
<g id="node8" class="node">
<title>Node8</title>
<g id="a_node8"><a xlink:title=" ">
<polygon fill="white" stroke="black" points="101,-123 101,-153 236,-153 236,-123 101,-123"/>
<text text-anchor="start" x="109" y="-141" font-family="Helvetica,sans-Serif" font-size="10.00">HashMap&lt; denoptim.graph.</text>
<text text-anchor="middle" x="168.5" y="-130" font-family="Helvetica,sans-Serif" font-size="10.00">APClass, String &gt;</text>
</a>
</g>
</g>
<!-- Node8&#45;&gt;Node4 -->
<g id="edge7" class="edge">
<title>Node8&#45;&gt;Node4</title>
<path fill="none" stroke="#9a32cd" stroke-dasharray="5,2" d="M246.4,-140.62C295.12,-142.27 357.25,-144.39 402.56,-145.93"/>
<polygon fill="#9a32cd" stroke="#9a32cd" points="246.33,-137.11 236.21,-140.27 246.09,-144.11 246.33,-137.11"/>
<text text-anchor="middle" x="324.5" y="-148" font-family="Helvetica,sans-Serif" font-size="10.00"> RCALABELPERAPCLASS</text>
</g>
<!-- Node9 -->
<g id="node9" class="node">
<title>Node9</title>
<g id="a_node9"><a xlink:href="enumdenoptim_1_1graph_1_1_edge_1_1_bond_type.html" target="_top" xlink:title="Possible chemical bond types an edge can represent.">
<polygon fill="white" stroke="black" points="92.5,-60.5 92.5,-79.5 244.5,-79.5 244.5,-60.5 92.5,-60.5"/>
<text text-anchor="middle" x="168.5" y="-67.5" font-family="Helvetica,sans-Serif" font-size="10.00">denoptim.graph.Edge.BondType</text>
</a>
</g>
</g>
<!-- Node9&#45;&gt;Node1 -->
<g id="edge10" class="edge">
<title>Node9&#45;&gt;Node1</title>
<path fill="none" stroke="#9a32cd" stroke-dasharray="5,2" d="M254.76,-72.6C294.49,-74.57 342.31,-78 385,-84 468.28,-95.7 563.1,-118 622,-132.94"/>
<polygon fill="#9a32cd" stroke="#9a32cd" points="254.73,-69.1 244.58,-72.12 254.4,-76.09 254.73,-69.1"/>
<text text-anchor="middle" x="464.5" y="-112" font-family="Helvetica,sans-Serif" font-size="10.00"> bndTyp</text>
</g>
<!-- Node9&#45;&gt;Node4 -->
<g id="edge8" class="edge">
<title>Node9&#45;&gt;Node4</title>
<path fill="none" stroke="#9a32cd" stroke-dasharray="5,2" d="M240.63,-81.3C283.06,-88.92 337.7,-100.27 385,-115 405.47,-121.37 427.93,-131.11 443.57,-138.36"/>
<polygon fill="#9a32cd" stroke="#9a32cd" points="241.13,-77.84 230.67,-79.55 239.91,-84.73 241.13,-77.84"/>
<text text-anchor="middle" x="324.5" y="-129" font-family="Helvetica,sans-Serif" font-size="10.00"> DEFAULTBT</text>
<text text-anchor="middle" x="324.5" y="-118" font-family="Helvetica,sans-Serif" font-size="10.00">bndTyp</text>
</g>
<!-- Node11 -->
<g id="node11" class="node">
<title>Node11</title>
<g id="a_node11"><a xlink:href="classdenoptim_1_1graph_1_1_ring.html" target="_top" xlink:title="This class represents the closure of a ring in a spanning tree.">
<polygon fill="white" stroke="black" points="412.5,-14.5 412.5,-33.5 516.5,-33.5 516.5,-14.5 412.5,-14.5"/>
<text text-anchor="middle" x="464.5" y="-21.5" font-family="Helvetica,sans-Serif" font-size="10.00">denoptim.graph.Ring</text>
</a>
</g>
</g>
<!-- Node9&#45;&gt;Node11 -->
<g id="edge13" class="edge">
<title>Node9&#45;&gt;Node11</title>
<path fill="none" stroke="#9a32cd" stroke-dasharray="5,2" d="M210.59,-57.66C227.06,-53.1 246.31,-48.25 264,-45 314.01,-35.81 371.87,-30.27 412.35,-27.21"/>
<polygon fill="#9a32cd" stroke="#9a32cd" points="209.4,-54.36 200.73,-60.44 211.3,-61.09 209.4,-54.36"/>
<text text-anchor="middle" x="324.5" y="-48" font-family="Helvetica,sans-Serif" font-size="10.00"> bndTyp</text>
</g>
<!-- Node10 -->
<g id="node10" class="node">
<title>Node10</title>
<g id="a_node10"><a xlink:title=" ">
<polygon fill="white" stroke="black" points="0,-60.5 0,-79.5 42,-79.5 42,-60.5 0,-60.5"/>
<text text-anchor="middle" x="21" y="-67.5" font-family="Helvetica,sans-Serif" font-size="10.00">IBond</text>
</a>
</g>
</g>
<!-- Node10&#45;&gt;Node9 -->
<g id="edge9" class="edge">
<title>Node10&#45;&gt;Node9</title>
<path fill="none" stroke="#9a32cd" stroke-dasharray="5,2" d="M52.33,-70C64.08,-70 78.11,-70 92.26,-70"/>
<polygon fill="#9a32cd" stroke="#9a32cd" points="52.23,-66.5 42.23,-70 52.23,-73.5 52.23,-66.5"/>
<text text-anchor="middle" x="66.5" y="-73" font-family="Helvetica,sans-Serif" font-size="10.00"> bo</text>
</g>
<!-- Node11&#45;&gt;Node1 -->
<g id="edge11" class="edge">
<title>Node11&#45;&gt;Node1</title>
<path fill="none" stroke="#9a32cd" stroke-dasharray="5,2" d="M526.84,-24.32C550.41,-26.77 576.74,-32.52 598,-45 633.9,-66.07 659.87,-109.65 671.76,-132.79"/>
<polygon fill="#9a32cd" stroke="#9a32cd" points="526.85,-20.81 516.58,-23.44 526.25,-27.78 526.85,-20.81"/>
<text text-anchor="middle" x="571" y="-48" font-family="Helvetica,sans-Serif" font-size="10.00"> ringUser</text>
</g>
<!-- Node12 -->
<g id="node12" class="node">
<title>Node12</title>
<g id="a_node12"><a xlink:title=" ">
<polygon fill="white" stroke="black" points="95.5,-0.5 95.5,-19.5 241.5,-19.5 241.5,-0.5 95.5,-0.5"/>
<text text-anchor="middle" x="168.5" y="-7.5" font-family="Helvetica,sans-Serif" font-size="10.00">List&lt; denoptim.graph.Vertex &gt;</text>
</a>
</g>
</g>
<!-- Node12&#45;&gt;Node11 -->
<g id="edge12" class="edge">
<title>Node12&#45;&gt;Node11</title>
<path fill="none" stroke="#9a32cd" stroke-dasharray="5,2" d="M251.97,-7.31C292.17,-6.78 341.18,-7.29 385,-11 394.22,-11.78 403.99,-13.04 413.4,-14.48"/>
<polygon fill="#9a32cd" stroke="#9a32cd" points="251.9,-3.81 241.95,-7.46 252.01,-10.81 251.9,-3.81"/>
<text text-anchor="middle" x="324.5" y="-14" font-family="Helvetica,sans-Serif" font-size="10.00"> vertices</text>
</g>
</g>
</svg>
