<?xml version="1.0" encoding="UTF-8" standalone="no"?>
<!DOCTYPE svg PUBLIC "-//W3C//DTD SVG 1.1//EN"
 "http://www.w3.org/Graphics/SVG/1.1/DTD/svg11.dtd">
<!-- Generated by graphviz version 3.0.0 (20221109.1736)
 -->
<!-- Title: denoptim.graph.DGraph.getFreeRCVertices Pages: 1 -->
<svg width="1053pt" height="186pt"
 viewBox="0.00 0.00 1053.00 186.00" xmlns="http://www.w3.org/2000/svg" xmlns:xlink="http://www.w3.org/1999/xlink">
<g id="graph0" class="graph" transform="scale(1 1) rotate(0) translate(4 182)">
<title>denoptim.graph.DGraph.getFreeRCVertices</title>
<polygon fill="white" stroke="transparent" points="-4,4 -4,-182 1049,-182 1049,4 -4,4"/>
<!-- Node1 -->
<g id="node1" class="node">
<title>Node1</title>
<g id="a_node1"><a xlink:title="Search for unused ring closing vertices: vertices that contain only a RingClosingAttractor and are no...">
<polygon fill="#bfbfbf" stroke="black" points="911,-73.5 911,-103.5 1045,-103.5 1045,-73.5 911,-73.5"/>
<text text-anchor="start" x="919" y="-91.5" font-family="Helvetica,sans-Serif" font-size="10.00">denoptim.graph.DGraph.get</text>
<text text-anchor="middle" x="978" y="-80.5" font-family="Helvetica,sans-Serif" font-size="10.00">FreeRCVertices</text>
</a>
</g>
</g>
<!-- Node2 -->
<g id="node2" class="node">
<title>Node2</title>
<g id="a_node2"><a xlink:href="classdenoptim_1_1ga_1_1_e_a_utils.html#a8122818f58919fce84dce75e7506025a" target="_top" xlink:title=" ">
<polygon fill="white" stroke="black" points="744.5,-147.5 744.5,-177.5 871.5,-177.5 871.5,-147.5 744.5,-147.5"/>
<text text-anchor="start" x="752.5" y="-165.5" font-family="Helvetica,sans-Serif" font-size="10.00">denoptim.ga.EAUtils.build</text>
<text text-anchor="middle" x="808" y="-154.5" font-family="Helvetica,sans-Serif" font-size="10.00">CandidateByMutation</text>
</a>
</g>
</g>
<!-- Node1&#45;&gt;Node2 -->
<g id="edge1" class="edge">
<title>Node1&#45;&gt;Node2</title>
<path fill="none" stroke="midnightblue" d="M939.4,-108.13C920.33,-117.77 896.68,-129.28 875,-138.5 867.82,-141.56 860.1,-144.58 852.57,-147.41"/>
<polygon fill="midnightblue" stroke="midnightblue" points="941.04,-111.22 948.36,-103.56 937.87,-104.98 941.04,-111.22"/>
</g>
<!-- Node9 -->
<g id="node9" class="node">
<title>Node9</title>
<g id="a_node9"><a xlink:href="classdenoptim_1_1ga_1_1_e_a_utils.html#ad3d2daeb11e68a356e971ca1846596b5" target="_top" xlink:title=" ">
<polygon fill="white" stroke="black" points="744.5,-98.5 744.5,-128.5 871.5,-128.5 871.5,-98.5 744.5,-98.5"/>
<text text-anchor="start" x="752.5" y="-116.5" font-family="Helvetica,sans-Serif" font-size="10.00">denoptim.ga.EAUtils.build</text>
<text text-anchor="middle" x="808" y="-105.5" font-family="Helvetica,sans-Serif" font-size="10.00">CandidateFromScratch</text>
</a>
</g>
</g>
<!-- Node1&#45;&gt;Node9 -->
<g id="edge9" class="edge">
<title>Node1&#45;&gt;Node9</title>
<path fill="none" stroke="midnightblue" d="M900.58,-99.87C890.89,-101.31 881.07,-102.78 871.63,-104.18"/>
<polygon fill="midnightblue" stroke="midnightblue" points="901.23,-103.31 910.6,-98.38 900.2,-96.39 901.23,-103.31"/>
</g>
<!-- Node11 -->
<g id="node11" class="node">
<title>Node11</title>
<g id="a_node11"><a xlink:href="classdenoptim_1_1ga_1_1_e_a_utils.html#a0b958439d79fae30f14530213ad22e3a" target="_top" xlink:title="Generates up to a pair of new offspring by performing a crossover operation.">
<polygon fill="white" stroke="black" points="744.5,-49.5 744.5,-79.5 871.5,-79.5 871.5,-49.5 744.5,-49.5"/>
<text text-anchor="start" x="752.5" y="-67.5" font-family="Helvetica,sans-Serif" font-size="10.00">denoptim.ga.EAUtils.build</text>
<text text-anchor="middle" x="808" y="-56.5" font-family="Helvetica,sans-Serif" font-size="10.00">CandidatesByXOver</text>
</a>
</g>
</g>
<!-- Node1&#45;&gt;Node11 -->
<g id="edge14" class="edge">
<title>Node1&#45;&gt;Node11</title>
<path fill="none" stroke="midnightblue" d="M900.58,-77.58C890.89,-76.2 881.07,-74.8 871.63,-73.45"/>
<polygon fill="midnightblue" stroke="midnightblue" points="900.21,-81.07 910.6,-79.01 901.2,-74.14 900.21,-81.07"/>
</g>
<!-- Node12 -->
<g id="node12" class="node">
<title>Node12</title>
<g id="a_node12"><a xlink:href="classdenoptim_1_1graph_1_1_d_graph.html#add148f4aeadcca422218448c4868e7ab" target="_top" xlink:title="Search for used ring closing vertices: vertices that contain only a RingClosingAttractor and are part...">
<polygon fill="white" stroke="black" points="741,-0.5 741,-30.5 875,-30.5 875,-0.5 741,-0.5"/>
<text text-anchor="start" x="749" y="-18.5" font-family="Helvetica,sans-Serif" font-size="10.00">denoptim.graph.DGraph.get</text>
<text text-anchor="middle" x="808" y="-7.5" font-family="Helvetica,sans-Serif" font-size="10.00">UsedRCVertices</text>
</a>
</g>
</g>
<!-- Node1&#45;&gt;Node12 -->
<g id="edge15" class="edge">
<title>Node1&#45;&gt;Node12</title>
<path fill="none" stroke="midnightblue" d="M938.28,-68.78C919.39,-59.45 896.22,-48.43 875,-39.5 867.7,-36.43 859.85,-33.37 852.2,-30.51"/>
<polygon fill="midnightblue" stroke="midnightblue" points="936.94,-72.03 947.45,-73.35 940.06,-65.76 936.94,-72.03"/>
</g>
<!-- Node3 -->
<g id="node3" class="node">
<title>Node3</title>
<g id="a_node3"><a xlink:href="classdenoptim_1_1ga_1_1_evolutionary_algorithm.html#a0c2e353b243250b4959a3f86608f1020" target="_top" xlink:title="Generates one offspring according to the method where crossover and mutation are decoupled,...">
<polygon fill="white" stroke="black" points="550.5,-147.5 550.5,-177.5 680.5,-177.5 680.5,-147.5 550.5,-147.5"/>
<text text-anchor="start" x="558.5" y="-165.5" font-family="Helvetica,sans-Serif" font-size="10.00">denoptim.ga.Evolutionary</text>
<text text-anchor="middle" x="615.5" y="-154.5" font-family="Helvetica,sans-Serif" font-size="10.00">Algorithm.makeOffspringA</text>
</a>
</g>
</g>
<!-- Node2&#45;&gt;Node3 -->
<g id="edge2" class="edge">
<title>Node2&#45;&gt;Node3</title>
<path fill="none" stroke="midnightblue" d="M734.16,-162.5C716.6,-162.5 697.95,-162.5 680.81,-162.5"/>
<polygon fill="midnightblue" stroke="midnightblue" points="734.36,-166 744.36,-162.5 734.36,-159 734.36,-166"/>
</g>
<!-- Node8 -->
<g id="node8" class="node">
<title>Node8</title>
<g id="a_node8"><a xlink:href="classdenoptim_1_1ga_1_1_evolutionary_algorithm.html#ae7a90a911b109ed47b3acf54193acc35" target="_top" xlink:title="Generates one offspring according to the method where crossover and mutation are coupled,...">
<polygon fill="white" stroke="black" points="550.5,-98.5 550.5,-128.5 680.5,-128.5 680.5,-98.5 550.5,-98.5"/>
<text text-anchor="start" x="558.5" y="-116.5" font-family="Helvetica,sans-Serif" font-size="10.00">denoptim.ga.Evolutionary</text>
<text text-anchor="middle" x="615.5" y="-105.5" font-family="Helvetica,sans-Serif" font-size="10.00">Algorithm.makeOffspringB</text>
</a>
</g>
</g>
<!-- Node2&#45;&gt;Node8 -->
<g id="edge7" class="edge">
<title>Node2&#45;&gt;Node8</title>
<path fill="none" stroke="midnightblue" d="M738.77,-144.95C717.85,-139.57 695.04,-133.7 674.84,-128.51"/>
<polygon fill="midnightblue" stroke="midnightblue" points="737.99,-148.36 748.55,-147.47 739.74,-141.58 737.99,-148.36"/>
</g>
<!-- Node4 -->
<g id="node4" class="node">
<title>Node4</title>
<g id="a_node4"><a xlink:href="classdenoptim_1_1ga_1_1_evolutionary_algorithm.html#a596b2f5f0b097c5b67a6e5163bd6fe66" target="_top" xlink:title="Generates a given number of new candidate items and adds them to the current population.">
<polygon fill="white" stroke="black" points="353,-103.5 353,-133.5 487,-133.5 487,-103.5 353,-103.5"/>
<text text-anchor="start" x="361" y="-121.5" font-family="Helvetica,sans-Serif" font-size="10.00">denoptim.ga.Evolutionary</text>
<text text-anchor="middle" x="420" y="-110.5" font-family="Helvetica,sans-Serif" font-size="10.00">Algorithm.evolvePopulation</text>
</a>
</g>
</g>
<!-- Node3&#45;&gt;Node4 -->
<g id="edge3" class="edge">
<title>Node3&#45;&gt;Node4</title>
<path fill="none" stroke="midnightblue" d="M540.16,-145.6C522.65,-141.61 504.09,-137.39 486.98,-133.5"/>
<polygon fill="midnightblue" stroke="midnightblue" points="539.81,-149.11 550.34,-147.91 541.36,-142.28 539.81,-149.11"/>
</g>
<!-- Node5 -->
<g id="node5" class="node">
<title>Node5</title>
<g id="a_node5"><a xlink:href="classdenoptim_1_1ga_1_1_evolutionary_algorithm.html#a6bfc2fa59b199da6259b5b6bad3d6de7" target="_top" xlink:title=" ">
<polygon fill="white" stroke="black" points="190,-78.5 190,-108.5 314,-108.5 314,-78.5 190,-78.5"/>
<text text-anchor="start" x="198" y="-96.5" font-family="Helvetica,sans-Serif" font-size="10.00">denoptim.ga.Evolutionary</text>
<text text-anchor="middle" x="252" y="-85.5" font-family="Helvetica,sans-Serif" font-size="10.00">Algorithm.run</text>
</a>
</g>
</g>
<!-- Node4&#45;&gt;Node5 -->
<g id="edge4" class="edge">
<title>Node4&#45;&gt;Node5</title>
<path fill="none" stroke="midnightblue" d="M342.9,-107.04C333.21,-105.58 323.41,-104.1 314.01,-102.69"/>
<polygon fill="midnightblue" stroke="midnightblue" points="342.51,-110.52 352.92,-108.55 343.55,-103.6 342.51,-110.52"/>
</g>
<!-- Node6 -->
<g id="node6" class="node">
<title>Node6</title>
<g id="a_node6"><a xlink:href="classdenoptim_1_1ga_1_1_evolutionary_algorithm.html#a0f2063b722b7291daf83d62acaa683d3" target="_top" xlink:title=" ">
<polygon fill="white" stroke="black" points="0,-103.5 0,-133.5 154,-133.5 154,-103.5 0,-103.5"/>
<text text-anchor="start" x="8" y="-121.5" font-family="Helvetica,sans-Serif" font-size="10.00">denoptim.ga.Evolutionary</text>
<text text-anchor="middle" x="77" y="-110.5" font-family="Helvetica,sans-Serif" font-size="10.00">Algorithm.EvolutionaryAlgorithm</text>
</a>
</g>
</g>
<!-- Node5&#45;&gt;Node6 -->
<g id="edge5" class="edge">
<title>Node5&#45;&gt;Node6</title>
<path fill="none" stroke="midnightblue" d="M179.44,-103.84C171.09,-105.05 162.54,-106.28 154.12,-107.5"/>
<polygon fill="midnightblue" stroke="midnightblue" points="180.12,-107.28 189.52,-102.38 179.12,-100.35 180.12,-107.28"/>
</g>
<!-- Node7 -->
<g id="node7" class="node">
<title>Node7</title>
<g id="a_node7"><a xlink:href="classdenoptim_1_1programs_1_1denovo_1_1_g_a_runner.html#a7cafd6d78727b89dce3e2c8d06f0dd7c" target="_top" xlink:title=" ">
<polygon fill="white" stroke="black" points="9.5,-54.5 9.5,-84.5 144.5,-84.5 144.5,-54.5 9.5,-54.5"/>
<text text-anchor="start" x="17.5" y="-72.5" font-family="Helvetica,sans-Serif" font-size="10.00">denoptim.programs.denovo.</text>
<text text-anchor="middle" x="77" y="-61.5" font-family="Helvetica,sans-Serif" font-size="10.00">GARunner.runProgram</text>
</a>
</g>
</g>
<!-- Node5&#45;&gt;Node7 -->
<g id="edge6" class="edge">
<title>Node5&#45;&gt;Node7</title>
<path fill="none" stroke="midnightblue" d="M179.48,-83.58C167.92,-81.97 156,-80.32 144.57,-78.73"/>
<polygon fill="midnightblue" stroke="midnightblue" points="179.13,-87.06 189.52,-84.97 180.1,-80.13 179.13,-87.06"/>
</g>
<!-- Node8&#45;&gt;Node4 -->
<g id="edge8" class="edge">
<title>Node8&#45;&gt;Node4</title>
<path fill="none" stroke="midnightblue" d="M540.22,-115.42C522.8,-115.87 504.35,-116.35 487.31,-116.79"/>
<polygon fill="midnightblue" stroke="midnightblue" points="540.43,-118.92 550.34,-115.16 540.25,-111.92 540.43,-118.92"/>
</g>
<!-- Node9&#45;&gt;Node3 -->
<g id="edge12" class="edge">
<title>Node9&#45;&gt;Node3</title>
<path fill="none" stroke="midnightblue" d="M738.77,-131.05C717.85,-136.43 695.04,-142.3 674.84,-147.49"/>
<polygon fill="midnightblue" stroke="midnightblue" points="739.74,-134.42 748.55,-128.53 737.99,-127.64 739.74,-134.42"/>
</g>
<!-- Node9&#45;&gt;Node8 -->
<g id="edge13" class="edge">
<title>Node9&#45;&gt;Node8</title>
<path fill="none" stroke="midnightblue" d="M734.16,-113.5C716.6,-113.5 697.95,-113.5 680.81,-113.5"/>
<polygon fill="midnightblue" stroke="midnightblue" points="734.36,-117 744.36,-113.5 734.36,-110 734.36,-117"/>
</g>
<!-- Node10 -->
<g id="node10" class="node">
<title>Node10</title>
<g id="a_node10"><a xlink:href="classdenoptim_1_1ga_1_1_evolutionary_algorithm.html#ad43588620dab3340e0d8b0042ec73618" target="_top" xlink:title="Fills up the population with candidates build from scratch.">
<polygon fill="white" stroke="black" points="350,-54.5 350,-84.5 490,-84.5 490,-54.5 350,-54.5"/>
<text text-anchor="start" x="358" y="-72.5" font-family="Helvetica,sans-Serif" font-size="10.00">denoptim.ga.Evolutionary</text>
<text text-anchor="middle" x="420" y="-61.5" font-family="Helvetica,sans-Serif" font-size="10.00">Algorithm.initializePopulation</text>
</a>
</g>
</g>
<!-- Node9&#45;&gt;Node10 -->
<g id="edge10" class="edge">
<title>Node9&#45;&gt;Node10</title>
<path fill="none" stroke="midnightblue" d="M740.61,-96.25C728.81,-93.66 716.59,-91.26 705,-89.5 632.19,-78.44 547.93,-73.48 490.21,-71.27"/>
<polygon fill="midnightblue" stroke="midnightblue" points="739.87,-99.68 750.4,-98.48 741.42,-92.85 739.87,-99.68"/>
</g>
<!-- Node10&#45;&gt;Node5 -->
<g id="edge11" class="edge">
<title>Node10&#45;&gt;Node5</title>
<path fill="none" stroke="midnightblue" d="M339.6,-80.98C331.08,-82.21 322.5,-83.45 314.24,-84.65"/>
<polygon fill="midnightblue" stroke="midnightblue" points="340.17,-84.43 349.56,-79.54 339.16,-77.51 340.17,-84.43"/>
</g>
<!-- Node13 -->
<g id="node13" class="node">
<title>Node13</title>
<g id="a_node13"><a xlink:href="classdenoptim_1_1ga_1_1_e_a_utils.html#ab70fae45026bfeaf568f42a6b1fc0bf5" target="_top" xlink:title="Calculate the current crowdedness of the given attachment point.">
<polygon fill="white" stroke="black" points="526,-6 526,-25 705,-25 705,-6 526,-6"/>
<text text-anchor="middle" x="615.5" y="-13" font-family="Helvetica,sans-Serif" font-size="10.00">denoptim.ga.EAUtils.getCrowdedness</text>
</a>
</g>
</g>
<!-- Node12&#45;&gt;Node13 -->
<g id="edge16" class="edge">
<title>Node12&#45;&gt;Node13</title>
<path fill="none" stroke="midnightblue" d="M730.8,-15.5C722.41,-15.5 713.82,-15.5 705.29,-15.5"/>
<polygon fill="midnightblue" stroke="midnightblue" points="730.91,-19 740.91,-15.5 730.91,-12 730.91,-19"/>
</g>
</g>
</svg>
