<?xml version="1.0" encoding="UTF-8" standalone="no"?>
<!DOCTYPE svg PUBLIC "-//W3C//DTD SVG 1.1//EN"
 "http://www.w3.org/Graphics/SVG/1.1/DTD/svg11.dtd">
<!-- Generated by graphviz version 3.0.0 (20221109.1736)
 -->
<!-- Title: denoptim.utils.ManySMARTSQuery.getNumMatchesOfQuery Pages: 1 -->
<!--zoomable 306 -->
<svg id="main" version="1.1" xmlns="http://www.w3.org/2000/svg" xmlns:xlink="http://www.w3.org/1999/xlink" xml:space="preserve" onload="init(evt)">
<style type="text/css"><![CDATA[
.edge:hover path { stroke: red; }
.edge:hover polygon { stroke: red; fill: red; }
]]></style>
<script type="text/javascript"><![CDATA[
var edges = document.getElementsByTagName('g');
if (edges && edges.length) {
  for (var i=0;i<edges.length;i++) {
    if (edges[i].id.substr(0,4)=='edge') {
      edges[i].setAttribute('class','edge');
    }
  }
}
]]></script>
        <defs>
                <circle id="rim" cx="0" cy="0" r="7"/>
                <circle id="rim2" cx="0" cy="0" r="3.5"/>
                <g id="zoomPlus">
                        <use xlink:href="#rim" fill="#404040">
                                <set attributeName="fill" to="#808080" begin="zoomplus.mouseover" end="zoomplus.mouseout"/>
                        </use>
                        <path d="M-4,0h8M0,-4v8" fill="none" stroke="white" stroke-width="1.5" pointer-events="none"/>
                </g>
                <g id="zoomMin">
                        <use xlink:href="#rim" fill="#404040">
                                <set attributeName="fill" to="#808080" begin="zoomminus.mouseover" end="zoomminus.mouseout"/>
                        </use>
                        <path d="M-4,0h8" fill="none" stroke="white" stroke-width="1.5" pointer-events="none"/>
                </g>
                <g id="dirArrow">
                        <path fill="none" stroke="white" stroke-width="1.5" d="M0,-3.0v7 M-2.5,-0.5L0,-3.0L2.5,-0.5"/>
                </g>
               <g id="resetDef">
                       <use xlink:href="#rim2" fill="#404040">
                               <set attributeName="fill" to="#808080" begin="reset.mouseover" end="reset.mouseout"/>
                       </use>
               </g>
        </defs>

<script type="text/javascript">
var viewWidth = 2028;
var viewHeight = 306;
var sectionId = 'dynsection-5';
</script>
<script xlink:href="svgpan.js"/>
<svg id="graph" class="graph">
<g id="viewport">
<title>denoptim.utils.ManySMARTSQuery.getNumMatchesOfQuery</title>
<polygon fill="white" stroke="transparent" points="-4,4 -4,-302 2024,-302 2024,4 -4,4"/>
<!-- Node1 -->
<g id="node1" class="node">
<title>Node1</title>
<g id="a_node1"><a xlink:title=" ">
<polygon fill="#bfbfbf" stroke="black" points="1835,-71.5 1835,-101.5 2020,-101.5 2020,-71.5 1835,-71.5"/>
<text text-anchor="start" x="1843" y="-89.5" font-family="Helvetica,sans-Serif" font-size="10.00">denoptim.utils.ManySMARTSQuery.get</text>
<text text-anchor="middle" x="1927.5" y="-78.5" font-family="Helvetica,sans-Serif" font-size="10.00">NumMatchesOfQuery</text>
</a>
</g>
</g>
<!-- Node2 -->
<g id="node2" class="node">
<title>Node2</title>
<g id="a_node2"><a xlink:href="classdenoptim_1_1utils_1_1_rotational_space_utils.html#af386024b4389e50ad3ff118168e5382d" target="_top" xlink:title="Define the rotational space (also torsional space) for a given molecule.">
<polygon fill="white" stroke="black" points="1199.5,-91.5 1199.5,-121.5 1360.5,-121.5 1360.5,-91.5 1199.5,-91.5"/>
<text text-anchor="start" x="1207.5" y="-109.5" font-family="Helvetica,sans-Serif" font-size="10.00">denoptim.utils.Rotational</text>
<text text-anchor="middle" x="1280" y="-98.5" font-family="Helvetica,sans-Serif" font-size="10.00">SpaceUtils.defineRotatableBonds</text>
</a>
</g>
</g>
<!-- Node1&#45;&gt;Node2 -->
<g id="edge1" class="edge">
<title>Node1&#45;&gt;Node2</title>
<path fill="none" stroke="midnightblue" d="M1824.46,-89.66C1695.94,-93.64 1477.81,-100.4 1360.8,-104.03"/>
<polygon fill="midnightblue" stroke="midnightblue" points="1824.81,-93.15 1834.7,-89.34 1824.6,-86.16 1824.81,-93.15"/>
</g>
<!-- Node19 -->
<g id="node19" class="node">
<title>Node19</title>
<g id="a_node19"><a xlink:href="classdenoptim_1_1graph_1_1rings_1_1_cyclic_graph_handler.html#ae14cac1f0746cf7b50db933cab59e4e4" target="_top" xlink:title="Method to evaluate the closability of a single path considering only its constitution.">
<polygon fill="white" stroke="black" points="1624,-139 1624,-180 1799,-180 1799,-139 1624,-139"/>
<text text-anchor="start" x="1632" y="-168" font-family="Helvetica,sans-Serif" font-size="10.00">denoptim.graph.rings.Cyclic</text>
<text text-anchor="start" x="1632" y="-157" font-family="Helvetica,sans-Serif" font-size="10.00">GraphHandler.evaluateConstitutional</text>
<text text-anchor="middle" x="1711.5" y="-146" font-family="Helvetica,sans-Serif" font-size="10.00">Closability</text>
</a>
</g>
</g>
<!-- Node1&#45;&gt;Node19 -->
<g id="edge22" class="edge">
<title>Node1&#45;&gt;Node19</title>
<path fill="none" stroke="midnightblue" d="M1872.83,-104.81C1842.39,-115.19 1804.21,-128.21 1772.75,-138.95"/>
<polygon fill="midnightblue" stroke="midnightblue" points="1874.08,-108.08 1882.42,-101.54 1871.82,-101.45 1874.08,-108.08"/>
</g>
<!-- Node23 -->
<g id="node23" class="node">
<title>Node23</title>
<g id="a_node23"><a xlink:href="classdenoptim_1_1fragmenter_1_1_fragmenter_tools.html#aacad4752a8f6324a9c8e5a96ff14efe5" target="_top" xlink:title="Filter fragments according to the criteria defined in the settings.">
<polygon fill="white" stroke="black" points="1633,-49.5 1633,-79.5 1790,-79.5 1790,-49.5 1633,-49.5"/>
<text text-anchor="start" x="1641" y="-67.5" font-family="Helvetica,sans-Serif" font-size="10.00">denoptim.fragmenter.Fragmenter</text>
<text text-anchor="middle" x="1711.5" y="-56.5" font-family="Helvetica,sans-Serif" font-size="10.00">Tools.filterFragment</text>
</a>
</g>
</g>
<!-- Node1&#45;&gt;Node23 -->
<g id="edge29" class="edge">
<title>Node1&#45;&gt;Node23</title>
<path fill="none" stroke="midnightblue" d="M1824.66,-76.03C1813.08,-74.84 1801.41,-73.64 1790.2,-72.49"/>
<polygon fill="midnightblue" stroke="midnightblue" points="1824.51,-79.53 1834.81,-77.07 1825.22,-72.57 1824.51,-79.53"/>
</g>
<!-- Node24 -->
<g id="node24" class="node">
<title>Node24</title>
<g id="a_node24"><a xlink:href="classdenoptim_1_1programs_1_1fragmenter_1_1_cutting_rule.html#a3047624614ab9e9f2ff28be11b29ff80" target="_top" xlink:title="Checks if a given bond satisfies the additional options of this rule beyond the matching of the SMART...">
<polygon fill="white" stroke="black" points="1636.5,-0.5 1636.5,-30.5 1786.5,-30.5 1786.5,-0.5 1636.5,-0.5"/>
<text text-anchor="start" x="1644.5" y="-18.5" font-family="Helvetica,sans-Serif" font-size="10.00">denoptim.programs.fragmenter.</text>
<text text-anchor="middle" x="1711.5" y="-7.5" font-family="Helvetica,sans-Serif" font-size="10.00">CuttingRule.satisfiesOptions</text>
</a>
</g>
</g>
<!-- Node1&#45;&gt;Node24 -->
<g id="edge30" class="edge">
<title>Node1&#45;&gt;Node24</title>
<path fill="none" stroke="midnightblue" d="M1878.78,-67.85C1854.98,-58.81 1825.64,-48.09 1799,-39.5 1789.51,-36.44 1779.35,-33.41 1769.47,-30.58"/>
<polygon fill="midnightblue" stroke="midnightblue" points="1877.7,-71.18 1888.29,-71.48 1880.2,-64.64 1877.7,-71.18"/>
</g>
<!-- Node3 -->
<g id="node3" class="node">
<title>Node3</title>
<g id="a_node3"><a xlink:href="classdenoptim_1_1molecularmodeling_1_1_multi_molecular_model_builder.html#a1cd879265bf12e9c2980efae1e8e74aa" target="_top" xlink:title="Generate 3D structure by assembling 3D fragments according to attachment point vector and following t...">
<polygon fill="white" stroke="black" points="962,-69.5 962,-99.5 1152,-99.5 1152,-69.5 962,-69.5"/>
<text text-anchor="start" x="970" y="-87.5" font-family="Helvetica,sans-Serif" font-size="10.00">denoptim.molecularmodeling.</text>
<text text-anchor="middle" x="1057" y="-76.5" font-family="Helvetica,sans-Serif" font-size="10.00">MultiMolecularModelBuilder.build3DTree</text>
</a>
</g>
</g>
<!-- Node2&#45;&gt;Node3 -->
<g id="edge2" class="edge">
<title>Node2&#45;&gt;Node3</title>
<path fill="none" stroke="midnightblue" d="M1189.13,-97.55C1177.01,-96.35 1164.54,-95.11 1152.34,-93.89"/>
<polygon fill="midnightblue" stroke="midnightblue" points="1188.92,-101.05 1199.21,-98.56 1189.61,-94.08 1188.92,-101.05"/>
</g>
<!-- Node6 -->
<g id="node6" class="node">
<title>Node6</title>
<g id="a_node6"><a xlink:href="classdenoptim_1_1graph_1_1_d_graph.html#a7a4743d014e860237f4b20703ef9779b" target="_top" xlink:title="Evaluates the possibility of closing rings in this graph and generates all alternative graphs resulti...">
<polygon fill="white" stroke="black" points="979.5,-120.5 979.5,-150.5 1134.5,-150.5 1134.5,-120.5 979.5,-120.5"/>
<text text-anchor="start" x="987.5" y="-138.5" font-family="Helvetica,sans-Serif" font-size="10.00">denoptim.graph.DGraph.make</text>
<text text-anchor="middle" x="1057" y="-127.5" font-family="Helvetica,sans-Serif" font-size="10.00">AllGraphsWithDifferentRingSets</text>
</a>
</g>
</g>
<!-- Node2&#45;&gt;Node6 -->
<g id="edge5" class="edge">
<title>Node2&#45;&gt;Node6</title>
<path fill="none" stroke="midnightblue" d="M1189.26,-118.28C1171.17,-120.65 1152.31,-123.12 1134.71,-125.43"/>
<polygon fill="midnightblue" stroke="midnightblue" points="1189.75,-121.74 1199.21,-116.97 1188.84,-114.8 1189.75,-121.74"/>
</g>
<!-- Node8 -->
<g id="node8" class="node">
<title>Node8</title>
<g id="a_node8"><a xlink:href="classdenoptim_1_1ga_1_1_e_a_utils.html#a1ddb932d4618434d435e4f85ce5e5eb5" target="_top" xlink:title="Evaluates the possibility of closing rings in a given graph and if any ring can be closed,...">
<polygon fill="white" stroke="black" points="991.5,-187.5 991.5,-217.5 1122.5,-217.5 1122.5,-187.5 991.5,-187.5"/>
<text text-anchor="start" x="999.5" y="-205.5" font-family="Helvetica,sans-Serif" font-size="10.00">denoptim.ga.EAUtils.setup</text>
<text text-anchor="middle" x="1057" y="-194.5" font-family="Helvetica,sans-Serif" font-size="10.00">Rings</text>
</a>
</g>
</g>
<!-- Node2&#45;&gt;Node8 -->
<g id="edge7" class="edge">
<title>Node2&#45;&gt;Node8</title>
<path fill="none" stroke="midnightblue" d="M1199.12,-125.36C1195.3,-126.95 1191.57,-128.66 1188,-130.5 1169.49,-140.05 1169.67,-149.48 1152,-160.5 1135.16,-171 1115.25,-180.29 1098.1,-187.44"/>
<polygon fill="midnightblue" stroke="midnightblue" points="1200.68,-128.51 1208.76,-121.67 1198.17,-121.97 1200.68,-128.51"/>
</g>
<!-- Node4 -->
<g id="node4" class="node">
<title>Node4</title>
<g id="a_node4"><a xlink:href="classdenoptim_1_1molecularmodeling_1_1_multi_molecular_model_builder.html#a6a8e314f3fb37f66c32c8c4d5695b8a4" target="_top" xlink:title="Given the graph representation of the molecular constitution, along with the 3D coordinates of the fr...">
<polygon fill="white" stroke="black" points="768,-61 768,-102 926,-102 926,-61 768,-61"/>
<text text-anchor="start" x="776" y="-90" font-family="Helvetica,sans-Serif" font-size="10.00">denoptim.molecularmodeling.</text>
<text text-anchor="start" x="776" y="-79" font-family="Helvetica,sans-Serif" font-size="10.00">MultiMolecularModelBuilder.build</text>
<text text-anchor="middle" x="847" y="-68" font-family="Helvetica,sans-Serif" font-size="10.00">Multi3DStructure</text>
</a>
</g>
</g>
<!-- Node3&#45;&gt;Node4 -->
<g id="edge3" class="edge">
<title>Node3&#45;&gt;Node4</title>
<path fill="none" stroke="midnightblue" d="M951.64,-82.99C943.03,-82.87 934.43,-82.75 926.06,-82.63"/>
<polygon fill="midnightblue" stroke="midnightblue" points="951.69,-86.5 961.74,-83.14 951.79,-79.5 951.69,-86.5"/>
</g>
<!-- Node5 -->
<g id="node5" class="node">
<title>Node5</title>
<g id="a_node5"><a xlink:href="classdenoptim_1_1programs_1_1moldecularmodelbuilder_1_1_molecular_model_builder.html#ad2e44290de6a861274def677044e9754" target="_top" xlink:title=" ">
<polygon fill="white" stroke="black" points="526,-66.5 526,-96.5 732,-96.5 732,-66.5 526,-66.5"/>
<text text-anchor="start" x="534" y="-84.5" font-family="Helvetica,sans-Serif" font-size="10.00">denoptim.programs.moldecularmodelbuilder.</text>
<text text-anchor="middle" x="629" y="-73.5" font-family="Helvetica,sans-Serif" font-size="10.00">MolecularModelBuilder.runProgram</text>
</a>
</g>
</g>
<!-- Node4&#45;&gt;Node5 -->
<g id="edge4" class="edge">
<title>Node4&#45;&gt;Node5</title>
<path fill="none" stroke="midnightblue" d="M757.55,-81.5C749.14,-81.5 740.57,-81.5 732.05,-81.5"/>
<polygon fill="midnightblue" stroke="midnightblue" points="757.71,-85 767.71,-81.5 757.71,-78 757.71,-85"/>
</g>
<!-- Node7 -->
<g id="node7" class="node">
<title>Node7</title>
<g id="a_node7"><a xlink:href="classdenoptim_1_1combinatorial_1_1_graph_building_task.html#a3eaee724fc921194fa158714aafe182d" target="_top" xlink:title="Calls the task.">
<polygon fill="white" stroke="black" points="774.5,-120.5 774.5,-150.5 919.5,-150.5 919.5,-120.5 774.5,-120.5"/>
<text text-anchor="start" x="782.5" y="-138.5" font-family="Helvetica,sans-Serif" font-size="10.00">denoptim.combinatorial.Graph</text>
<text text-anchor="middle" x="847" y="-127.5" font-family="Helvetica,sans-Serif" font-size="10.00">BuildingTask.call</text>
</a>
</g>
</g>
<!-- Node6&#45;&gt;Node7 -->
<g id="edge6" class="edge">
<title>Node6&#45;&gt;Node7</title>
<path fill="none" stroke="midnightblue" d="M969.23,-135.5C952.7,-135.5 935.57,-135.5 919.57,-135.5"/>
<polygon fill="midnightblue" stroke="midnightblue" points="969.43,-139 979.43,-135.5 969.43,-132 969.43,-139"/>
</g>
<!-- Node9 -->
<g id="node9" class="node">
<title>Node9</title>
<g id="a_node9"><a xlink:href="classdenoptim_1_1ga_1_1_e_a_utils.html#a8122818f58919fce84dce75e7506025a" target="_top" xlink:title=" ">
<polygon fill="white" stroke="black" points="783.5,-169.5 783.5,-199.5 910.5,-199.5 910.5,-169.5 783.5,-169.5"/>
<text text-anchor="start" x="791.5" y="-187.5" font-family="Helvetica,sans-Serif" font-size="10.00">denoptim.ga.EAUtils.build</text>
<text text-anchor="middle" x="847" y="-176.5" font-family="Helvetica,sans-Serif" font-size="10.00">CandidateByMutation</text>
</a>
</g>
</g>
<!-- Node8&#45;&gt;Node9 -->
<g id="edge8" class="edge">
<title>Node8&#45;&gt;Node9</title>
<path fill="none" stroke="midnightblue" d="M981.24,-196.03C958.18,-194.03 933.03,-191.86 910.85,-189.94"/>
<polygon fill="midnightblue" stroke="midnightblue" points="981.06,-199.53 991.33,-196.9 981.67,-192.55 981.06,-199.53"/>
</g>
<!-- Node16 -->
<g id="node16" class="node">
<title>Node16</title>
<g id="a_node16"><a xlink:href="classdenoptim_1_1ga_1_1_e_a_utils.html#ad3d2daeb11e68a356e971ca1846596b5" target="_top" xlink:title=" ">
<polygon fill="white" stroke="black" points="783.5,-267.5 783.5,-297.5 910.5,-297.5 910.5,-267.5 783.5,-267.5"/>
<text text-anchor="start" x="791.5" y="-285.5" font-family="Helvetica,sans-Serif" font-size="10.00">denoptim.ga.EAUtils.build</text>
<text text-anchor="middle" x="847" y="-274.5" font-family="Helvetica,sans-Serif" font-size="10.00">CandidateFromScratch</text>
</a>
</g>
</g>
<!-- Node8&#45;&gt;Node16 -->
<g id="edge16" class="edge">
<title>Node8&#45;&gt;Node16</title>
<path fill="none" stroke="midnightblue" d="M1014.51,-221.73C989.21,-233.12 956.06,-247.44 926,-258.5 917.62,-261.58 908.65,-264.6 899.87,-267.4"/>
<polygon fill="midnightblue" stroke="midnightblue" points="1016.14,-224.84 1023.8,-217.53 1013.25,-218.46 1016.14,-224.84"/>
</g>
<!-- Node18 -->
<g id="node18" class="node">
<title>Node18</title>
<g id="a_node18"><a xlink:href="classdenoptim_1_1ga_1_1_e_a_utils.html#a0b958439d79fae30f14530213ad22e3a" target="_top" xlink:title="Generates up to a pair of new offspring by performing a crossover operation.">
<polygon fill="white" stroke="black" points="783.5,-218.5 783.5,-248.5 910.5,-248.5 910.5,-218.5 783.5,-218.5"/>
<text text-anchor="start" x="791.5" y="-236.5" font-family="Helvetica,sans-Serif" font-size="10.00">denoptim.ga.EAUtils.build</text>
<text text-anchor="middle" x="847" y="-225.5" font-family="Helvetica,sans-Serif" font-size="10.00">CandidatesByXOver</text>
</a>
</g>
</g>
<!-- Node8&#45;&gt;Node18 -->
<g id="edge21" class="edge">
<title>Node8&#45;&gt;Node18</title>
<path fill="none" stroke="midnightblue" d="M981.24,-213.64C958.18,-217.08 933.03,-220.83 910.85,-224.13"/>
<polygon fill="midnightblue" stroke="midnightblue" points="981.95,-217.07 991.33,-212.14 980.92,-210.15 981.95,-217.07"/>
</g>
<!-- Node10 -->
<g id="node10" class="node">
<title>Node10</title>
<g id="a_node10"><a xlink:href="classdenoptim_1_1ga_1_1_evolutionary_algorithm.html#a0c2e353b243250b4959a3f86608f1020" target="_top" xlink:title="Generates one offspring according to the method where crossover and mutation are decoupled,...">
<polygon fill="white" stroke="black" points="564,-220.5 564,-250.5 694,-250.5 694,-220.5 564,-220.5"/>
<text text-anchor="start" x="572" y="-238.5" font-family="Helvetica,sans-Serif" font-size="10.00">denoptim.ga.Evolutionary</text>
<text text-anchor="middle" x="629" y="-227.5" font-family="Helvetica,sans-Serif" font-size="10.00">Algorithm.makeOffspringA</text>
</a>
</g>
</g>
<!-- Node9&#45;&gt;Node10 -->
<g id="edge9" class="edge">
<title>Node9&#45;&gt;Node10</title>
<path fill="none" stroke="midnightblue" d="M773.39,-201.71C759.64,-204.97 745.38,-208.34 732,-211.5 719.69,-214.4 706.55,-217.5 693.94,-220.47"/>
<polygon fill="midnightblue" stroke="midnightblue" points="774.36,-205.08 783.29,-199.37 772.75,-198.27 774.36,-205.08"/>
</g>
<!-- Node15 -->
<g id="node15" class="node">
<title>Node15</title>
<g id="a_node15"><a xlink:href="classdenoptim_1_1ga_1_1_evolutionary_algorithm.html#ae7a90a911b109ed47b3acf54193acc35" target="_top" xlink:title="Generates one offspring according to the method where crossover and mutation are coupled,...">
<polygon fill="white" stroke="black" points="564,-171.5 564,-201.5 694,-201.5 694,-171.5 564,-171.5"/>
<text text-anchor="start" x="572" y="-189.5" font-family="Helvetica,sans-Serif" font-size="10.00">denoptim.ga.Evolutionary</text>
<text text-anchor="middle" x="629" y="-178.5" font-family="Helvetica,sans-Serif" font-size="10.00">Algorithm.makeOffspringB</text>
</a>
</g>
</g>
<!-- Node9&#45;&gt;Node15 -->
<g id="edge14" class="edge">
<title>Node9&#45;&gt;Node15</title>
<path fill="none" stroke="midnightblue" d="M773.19,-185.17C747.54,-185.41 718.92,-185.68 694.05,-185.91"/>
<polygon fill="midnightblue" stroke="midnightblue" points="773.27,-188.67 783.23,-185.08 773.2,-181.67 773.27,-188.67"/>
</g>
<!-- Node11 -->
<g id="node11" class="node">
<title>Node11</title>
<g id="a_node11"><a xlink:href="classdenoptim_1_1ga_1_1_evolutionary_algorithm.html#a596b2f5f0b097c5b67a6e5163bd6fe66" target="_top" xlink:title="Generates a given number of new candidate items and adds them to the current population.">
<polygon fill="white" stroke="black" points="353,-218.5 353,-248.5 487,-248.5 487,-218.5 353,-218.5"/>
<text text-anchor="start" x="361" y="-236.5" font-family="Helvetica,sans-Serif" font-size="10.00">denoptim.ga.Evolutionary</text>
<text text-anchor="middle" x="420" y="-225.5" font-family="Helvetica,sans-Serif" font-size="10.00">Algorithm.evolvePopulation</text>
</a>
</g>
</g>
<!-- Node10&#45;&gt;Node11 -->
<g id="edge10" class="edge">
<title>Node10&#45;&gt;Node11</title>
<path fill="none" stroke="midnightblue" d="M553.76,-234.78C532.05,-234.57 508.46,-234.35 487.28,-234.14"/>
<polygon fill="midnightblue" stroke="midnightblue" points="553.89,-238.28 563.92,-234.88 553.96,-231.28 553.89,-238.28"/>
</g>
<!-- Node12 -->
<g id="node12" class="node">
<title>Node12</title>
<g id="a_node12"><a xlink:href="classdenoptim_1_1ga_1_1_evolutionary_algorithm.html#a6bfc2fa59b199da6259b5b6bad3d6de7" target="_top" xlink:title=" ">
<polygon fill="white" stroke="black" points="190,-242.5 190,-272.5 314,-272.5 314,-242.5 190,-242.5"/>
<text text-anchor="start" x="198" y="-260.5" font-family="Helvetica,sans-Serif" font-size="10.00">denoptim.ga.Evolutionary</text>
<text text-anchor="middle" x="252" y="-249.5" font-family="Helvetica,sans-Serif" font-size="10.00">Algorithm.run</text>
</a>
</g>
</g>
<!-- Node11&#45;&gt;Node12 -->
<g id="edge11" class="edge">
<title>Node11&#45;&gt;Node12</title>
<path fill="none" stroke="midnightblue" d="M342.9,-244.5C333.21,-245.9 323.41,-247.32 314.01,-248.68"/>
<polygon fill="midnightblue" stroke="midnightblue" points="343.52,-247.95 352.92,-243.05 342.52,-241.02 343.52,-247.95"/>
</g>
<!-- Node13 -->
<g id="node13" class="node">
<title>Node13</title>
<g id="a_node13"><a xlink:href="classdenoptim_1_1ga_1_1_evolutionary_algorithm.html#a0f2063b722b7291daf83d62acaa683d3" target="_top" xlink:title=" ">
<polygon fill="white" stroke="black" points="0,-267.5 0,-297.5 154,-297.5 154,-267.5 0,-267.5"/>
<text text-anchor="start" x="8" y="-285.5" font-family="Helvetica,sans-Serif" font-size="10.00">denoptim.ga.Evolutionary</text>
<text text-anchor="middle" x="77" y="-274.5" font-family="Helvetica,sans-Serif" font-size="10.00">Algorithm.EvolutionaryAlgorithm</text>
</a>
</g>
</g>
<!-- Node12&#45;&gt;Node13 -->
<g id="edge12" class="edge">
<title>Node12&#45;&gt;Node13</title>
<path fill="none" stroke="midnightblue" d="M179.44,-267.84C171.09,-269.05 162.54,-270.28 154.12,-271.5"/>
<polygon fill="midnightblue" stroke="midnightblue" points="180.12,-271.28 189.52,-266.38 179.12,-264.35 180.12,-271.28"/>
</g>
<!-- Node14 -->
<g id="node14" class="node">
<title>Node14</title>
<g id="a_node14"><a xlink:href="classdenoptim_1_1programs_1_1denovo_1_1_g_a_runner.html#a7cafd6d78727b89dce3e2c8d06f0dd7c" target="_top" xlink:title=" ">
<polygon fill="white" stroke="black" points="9.5,-218.5 9.5,-248.5 144.5,-248.5 144.5,-218.5 9.5,-218.5"/>
<text text-anchor="start" x="17.5" y="-236.5" font-family="Helvetica,sans-Serif" font-size="10.00">denoptim.programs.denovo.</text>
<text text-anchor="middle" x="77" y="-225.5" font-family="Helvetica,sans-Serif" font-size="10.00">GARunner.runProgram</text>
</a>
</g>
</g>
<!-- Node12&#45;&gt;Node14 -->
<g id="edge13" class="edge">
<title>Node12&#45;&gt;Node14</title>
<path fill="none" stroke="midnightblue" d="M179.48,-247.58C167.92,-245.97 156,-244.32 144.57,-242.73"/>
<polygon fill="midnightblue" stroke="midnightblue" points="179.13,-251.06 189.52,-248.97 180.1,-244.13 179.13,-251.06"/>
</g>
<!-- Node15&#45;&gt;Node11 -->
<g id="edge15" class="edge">
<title>Node15&#45;&gt;Node11</title>
<path fill="none" stroke="midnightblue" d="M554.06,-203.29C532.26,-208.24 508.56,-213.62 487.28,-218.45"/>
<polygon fill="midnightblue" stroke="midnightblue" points="554.94,-206.68 563.92,-201.05 553.39,-199.85 554.94,-206.68"/>
</g>
<!-- Node16&#45;&gt;Node10 -->
<g id="edge19" class="edge">
<title>Node16&#45;&gt;Node10</title>
<path fill="none" stroke="midnightblue" d="M773.19,-266.66C747.54,-261.08 718.92,-254.85 694.05,-249.44"/>
<polygon fill="midnightblue" stroke="midnightblue" points="772.72,-270.14 783.23,-268.84 774.21,-263.3 772.72,-270.14"/>
</g>
<!-- Node16&#45;&gt;Node15 -->
<g id="edge20" class="edge">
<title>Node16&#45;&gt;Node15</title>
<path fill="none" stroke="midnightblue" d="M774.67,-262.7C772.37,-261.38 770.14,-259.99 768,-258.5 746.4,-243.47 754.03,-225.89 732,-211.5 720.71,-204.12 707.42,-198.92 694.23,-195.25"/>
<polygon fill="midnightblue" stroke="midnightblue" points="773.35,-265.95 783.85,-267.35 776.51,-259.71 773.35,-265.95"/>
</g>
<!-- Node17 -->
<g id="node17" class="node">
<title>Node17</title>
<g id="a_node17"><a xlink:href="classdenoptim_1_1ga_1_1_evolutionary_algorithm.html#ad43588620dab3340e0d8b0042ec73618" target="_top" xlink:title="Fills up the population with candidates build from scratch.">
<polygon fill="white" stroke="black" points="350,-267.5 350,-297.5 490,-297.5 490,-267.5 350,-267.5"/>
<text text-anchor="start" x="358" y="-285.5" font-family="Helvetica,sans-Serif" font-size="10.00">denoptim.ga.Evolutionary</text>
<text text-anchor="middle" x="420" y="-274.5" font-family="Helvetica,sans-Serif" font-size="10.00">Algorithm.initializePopulation</text>
</a>
</g>
</g>
<!-- Node16&#45;&gt;Node17 -->
<g id="edge17" class="edge">
<title>Node16&#45;&gt;Node17</title>
<path fill="none" stroke="midnightblue" d="M772.9,-282.5C693.64,-282.5 568.08,-282.5 490.33,-282.5"/>
<polygon fill="midnightblue" stroke="midnightblue" points="773.29,-286 783.29,-282.5 773.29,-279 773.29,-286"/>
</g>
<!-- Node17&#45;&gt;Node12 -->
<g id="edge18" class="edge">
<title>Node17&#45;&gt;Node12</title>
<path fill="none" stroke="midnightblue" d="M339.6,-270.54C331.08,-269.26 322.5,-267.97 314.24,-266.72"/>
<polygon fill="midnightblue" stroke="midnightblue" points="339.15,-274.01 349.56,-272.04 340.2,-267.09 339.15,-274.01"/>
</g>
<!-- Node20 -->
<g id="node20" class="node">
<title>Node20</title>
<g id="a_node20"><a xlink:href="classdenoptim_1_1graph_1_1rings_1_1_cyclic_graph_handler.html#abd43d52fe626625dab3da6a32038e57b" target="_top" xlink:title="Method to evaluate the closability of a single path in a graph representing a molecule.">
<polygon fill="white" stroke="black" points="1408,-145.5 1408,-175.5 1588,-175.5 1588,-145.5 1408,-145.5"/>
<text text-anchor="start" x="1416" y="-163.5" font-family="Helvetica,sans-Serif" font-size="10.00">denoptim.graph.rings.Cyclic</text>
<text text-anchor="middle" x="1498" y="-152.5" font-family="Helvetica,sans-Serif" font-size="10.00">GraphHandler.evaluatePathClosability</text>
</a>
</g>
</g>
<!-- Node19&#45;&gt;Node20 -->
<g id="edge23" class="edge">
<title>Node19&#45;&gt;Node20</title>
<path fill="none" stroke="midnightblue" d="M1613.61,-159.96C1605.16,-160 1596.63,-160.04 1588.24,-160.08"/>
<polygon fill="midnightblue" stroke="midnightblue" points="1613.88,-163.46 1623.86,-159.91 1613.85,-156.46 1613.88,-163.46"/>
</g>
<!-- Node21 -->
<g id="node21" class="node">
<title>Node21</title>
<g id="a_node21"><a xlink:href="classdenoptim_1_1graph_1_1rings_1_1_cyclic_graph_handler.html#a3ce96322723f45d9285a248ebcef94d3" target="_top" xlink:title="Identifies all possible ring closing paths and returns them as list of DENOPTIMRings ready to be appe...">
<polygon fill="white" stroke="black" points="1188,-140 1188,-181 1372,-181 1372,-140 1188,-140"/>
<text text-anchor="start" x="1196" y="-169" font-family="Helvetica,sans-Serif" font-size="10.00">denoptim.graph.rings.Cyclic</text>
<text text-anchor="start" x="1196" y="-158" font-family="Helvetica,sans-Serif" font-size="10.00">GraphHandler.getPossibleCombination</text>
<text text-anchor="middle" x="1280" y="-147" font-family="Helvetica,sans-Serif" font-size="10.00">OfRings</text>
</a>
</g>
</g>
<!-- Node20&#45;&gt;Node21 -->
<g id="edge24" class="edge">
<title>Node20&#45;&gt;Node21</title>
<path fill="none" stroke="midnightblue" d="M1397.66,-160.5C1389.22,-160.5 1380.71,-160.5 1372.34,-160.5"/>
<polygon fill="midnightblue" stroke="midnightblue" points="1397.9,-164 1407.9,-160.5 1397.9,-157 1397.9,-164"/>
</g>
<!-- Node22 -->
<g id="node22" class="node">
<title>Node22</title>
<g id="a_node22"><a xlink:href="classdenoptim_1_1graph_1_1rings_1_1_cyclic_graph_handler.html#a08b02946eaac7c2cbbe6e71332d702e6" target="_top" xlink:title="Identifies a random combination of ring closing paths and returns it as list of DENOPTIMRings ready t...">
<polygon fill="white" stroke="black" points="1189,-200 1189,-241 1371,-241 1371,-200 1189,-200"/>
<text text-anchor="start" x="1197" y="-229" font-family="Helvetica,sans-Serif" font-size="10.00">denoptim.graph.rings.Cyclic</text>
<text text-anchor="start" x="1197" y="-218" font-family="Helvetica,sans-Serif" font-size="10.00">GraphHandler.getRandomCombination</text>
<text text-anchor="middle" x="1280" y="-207" font-family="Helvetica,sans-Serif" font-size="10.00">OfRings</text>
</a>
</g>
</g>
<!-- Node20&#45;&gt;Node22 -->
<g id="edge27" class="edge">
<title>Node20&#45;&gt;Node22</title>
<path fill="none" stroke="midnightblue" d="M1432.86,-178.32C1408.34,-185.13 1380.19,-192.95 1354.84,-199.99"/>
<polygon fill="midnightblue" stroke="midnightblue" points="1434.07,-181.61 1442.77,-175.56 1432.2,-174.87 1434.07,-181.61"/>
</g>
<!-- Node21&#45;&gt;Node6 -->
<g id="edge25" class="edge">
<title>Node21&#45;&gt;Node6</title>
<path fill="none" stroke="midnightblue" d="M1177.81,-149.05C1163.26,-147.41 1148.5,-145.74 1134.53,-144.16"/>
<polygon fill="midnightblue" stroke="midnightblue" points="1177.5,-152.54 1187.83,-150.19 1178.29,-145.59 1177.5,-152.54"/>
</g>
<!-- Node21&#45;&gt;Node8 -->
<g id="edge26" class="edge">
<title>Node21&#45;&gt;Node8</title>
<path fill="none" stroke="midnightblue" d="M1177.78,-179.74C1159.03,-183.3 1139.93,-186.93 1122.65,-190.21"/>
<polygon fill="midnightblue" stroke="midnightblue" points="1178.66,-183.13 1187.83,-177.83 1177.36,-176.25 1178.66,-183.13"/>
</g>
<!-- Node22&#45;&gt;Node8 -->
<g id="edge28" class="edge">
<title>Node22&#45;&gt;Node8</title>
<path fill="none" stroke="midnightblue" d="M1178.58,-212.32C1159.54,-210.77 1140.11,-209.19 1122.55,-207.76"/>
<polygon fill="midnightblue" stroke="midnightblue" points="1178.54,-215.83 1188.79,-213.15 1179.11,-208.85 1178.54,-215.83"/>
</g>
<!-- Node25 -->
<g id="node25" class="node">
<title>Node25</title>
<g id="a_node25"><a xlink:href="classdenoptim_1_1programs_1_1fragmenter_1_1_matched_bond.html#a2bf2fb6eb5b31a9fa4bf1086c420052e" target="_top" xlink:title="Checks if this bond satisfies all the option of the cutting rule.">
<polygon fill="white" stroke="black" points="1414,-0.5 1414,-30.5 1582,-30.5 1582,-0.5 1414,-0.5"/>
<text text-anchor="start" x="1422" y="-18.5" font-family="Helvetica,sans-Serif" font-size="10.00">denoptim.programs.fragmenter.</text>
<text text-anchor="middle" x="1498" y="-7.5" font-family="Helvetica,sans-Serif" font-size="10.00">MatchedBond.satisfiesRuleOptions</text>
</a>
</g>
</g>
<!-- Node24&#45;&gt;Node25 -->
<g id="edge31" class="edge">
<title>Node24&#45;&gt;Node25</title>
<path fill="none" stroke="midnightblue" d="M1625.85,-15.5C1611.44,-15.5 1596.48,-15.5 1582.11,-15.5"/>
<polygon fill="midnightblue" stroke="midnightblue" points="1626.23,-19 1636.23,-15.5 1626.23,-12 1626.23,-19"/>
</g>
</g>
</svg>
        <g id="navigator" transform="translate(0 0)" fill="#404254">
                <rect fill="#f2f5e9" fill-opacity="0.5" stroke="#606060" stroke-width=".5" x="0" y="0" width="60" height="60"/>
                <use id="zoomplus" xlink:href="#zoomPlus" x="17" y="9" onmousedown="handleZoom(evt,'in')"/>
                <use id="zoomminus" xlink:href="#zoomMin" x="42" y="9" onmousedown="handleZoom(evt,'out')"/>
                <use id="reset" xlink:href="#resetDef" x="30" y="36" onmousedown="handleReset()"/>
                <g id="arrowUp" xlink:href="#dirArrow" transform="translate(30 24)" onmousedown="handlePan(0,-1)">
                  <use xlink:href="#rim" fill="#404040">
                        <set attributeName="fill" to="#808080" begin="arrowUp.mouseover" end="arrowUp.mouseout"/>
                  </use>
                  <path fill="none" stroke="white" stroke-width="1.5" d="M0,-3.0v7 M-2.5,-0.5L0,-3.0L2.5,-0.5"/>
                </g>
                <g id="arrowRight" xlink:href="#dirArrow" transform="rotate(90) translate(36 -43)" onmousedown="handlePan(1,0)">
                  <use xlink:href="#rim" fill="#404040">
                        <set attributeName="fill" to="#808080" begin="arrowRight.mouseover" end="arrowRight.mouseout"/>
                  </use>
                  <path fill="none" stroke="white" stroke-width="1.5" d="M0,-3.0v7 M-2.5,-0.5L0,-3.0L2.5,-0.5"/>
                </g>
                <g id="arrowDown" xlink:href="#dirArrow" transform="rotate(180) translate(-30 -48)" onmousedown="handlePan(0,1)">
                  <use xlink:href="#rim" fill="#404040">
                        <set attributeName="fill" to="#808080" begin="arrowDown.mouseover" end="arrowDown.mouseout"/>
                  </use>
                  <path fill="none" stroke="white" stroke-width="1.5" d="M0,-3.0v7 M-2.5,-0.5L0,-3.0L2.5,-0.5"/>
                </g>
                <g id="arrowLeft" xlink:href="#dirArrow" transform="rotate(270) translate(-36 17)" onmousedown="handlePan(-1,0)">
                  <use xlink:href="#rim" fill="#404040">
                        <set attributeName="fill" to="#808080" begin="arrowLeft.mouseover" end="arrowLeft.mouseout"/>
                  </use>
                  <path fill="none" stroke="white" stroke-width="1.5" d="M0,-3.0v7 M-2.5,-0.5L0,-3.0L2.5,-0.5"/>
                </g>
        </g>
        <svg viewBox="0 0 15 15" width="100%" height="30px" preserveAspectRatio="xMaxYMin meet">
         <g id="arrow_out" transform="scale(0.3 0.3)">
          <a xlink:href="classdenoptim_1_1utils_1_1_many_s_m_a_r_t_s_query_aea287dfe72ffc150250c8180706289bd_icgraph_org.svg" target="_base">
           <rect id="button" ry="5" rx="5" y="6" x="6" height="38" width="38"
                fill="#f2f5e9" fill-opacity="0.5" stroke="#606060" stroke-width="1.0"/>
           <path id="arrow"
             d="M 11.500037,31.436501 C 11.940474,20.09759 22.043105,11.32322 32.158766,21.979434 L 37.068811,17.246167 C 37.068811,17.246167 37.088388,32 37.088388,32 L 22.160133,31.978069 C 22.160133,31.978069 26.997745,27.140456 26.997745,27.140456 C 18.528582,18.264221 13.291696,25.230495 11.500037,31.436501 z"
             style="fill:#404040;"/>
          </a>
         </g>
        </svg>
</svg>
