<?xml version="1.0" encoding="UTF-8" standalone="no"?>
<!DOCTYPE svg PUBLIC "-//W3C//DTD SVG 1.1//EN"
 "http://www.w3.org/Graphics/SVG/1.1/DTD/svg11.dtd">
<!-- Generated by graphviz version 3.0.0 (20221109.1736)
 -->
<!-- Title: denoptim.graph.rings.RingClosingAttractor.isAttractor Pages: 1 -->
<!--zoomable 270 -->
<svg id="main" version="1.1" xmlns="http://www.w3.org/2000/svg" xmlns:xlink="http://www.w3.org/1999/xlink" xml:space="preserve" onload="init(evt)">
<style type="text/css"><![CDATA[
.edge:hover path { stroke: red; }
.edge:hover polygon { stroke: red; fill: red; }
]]></style>
<script type="text/javascript"><![CDATA[
var edges = document.getElementsByTagName('g');
if (edges && edges.length) {
  for (var i=0;i<edges.length;i++) {
    if (edges[i].id.substr(0,4)=='edge') {
      edges[i].setAttribute('class','edge');
    }
  }
}
]]></script>
        <defs>
                <circle id="rim" cx="0" cy="0" r="7"/>
                <circle id="rim2" cx="0" cy="0" r="3.5"/>
                <g id="zoomPlus">
                        <use xlink:href="#rim" fill="#404040">
                                <set attributeName="fill" to="#808080" begin="zoomplus.mouseover" end="zoomplus.mouseout"/>
                        </use>
                        <path d="M-4,0h8M0,-4v8" fill="none" stroke="white" stroke-width="1.5" pointer-events="none"/>
                </g>
                <g id="zoomMin">
                        <use xlink:href="#rim" fill="#404040">
                                <set attributeName="fill" to="#808080" begin="zoomminus.mouseover" end="zoomminus.mouseout"/>
                        </use>
                        <path d="M-4,0h8" fill="none" stroke="white" stroke-width="1.5" pointer-events="none"/>
                </g>
                <g id="dirArrow">
                        <path fill="none" stroke="white" stroke-width="1.5" d="M0,-3.0v7 M-2.5,-0.5L0,-3.0L2.5,-0.5"/>
                </g>
               <g id="resetDef">
                       <use xlink:href="#rim2" fill="#404040">
                               <set attributeName="fill" to="#808080" begin="reset.mouseover" end="reset.mouseout"/>
                       </use>
               </g>
        </defs>

<script type="text/javascript">
var viewWidth = 1903;
var viewHeight = 270;
var sectionId = 'dynsection-8';
</script>
<script xlink:href="svgpan.js"/>
<svg id="graph" class="graph">
<g id="viewport">
<title>denoptim.graph.rings.RingClosingAttractor.isAttractor</title>
<polygon fill="white" stroke="transparent" points="-4,4 -4,-266 1899,-266 1899,4 -4,4"/>
<!-- Node1 -->
<g id="node1" class="node">
<title>Node1</title>
<g id="a_node1"><a xlink:title="Checks whether the constructed RingClosingAttractor does corresponds to a RingClosingAttractor in the...">
<polygon fill="#bfbfbf" stroke="black" points="1761,-73.5 1761,-103.5 1895,-103.5 1895,-73.5 1761,-73.5"/>
<text text-anchor="start" x="1769" y="-91.5" font-family="Helvetica,sans-Serif" font-size="10.00">denoptim.graph.rings.Ring</text>
<text text-anchor="middle" x="1828" y="-80.5" font-family="Helvetica,sans-Serif" font-size="10.00">ClosingAttractor.isAttractor</text>
</a>
</g>
</g>
<!-- Node2 -->
<g id="node2" class="node">
<title>Node2</title>
<g id="a_node2"><a xlink:href="classdenoptim_1_1graph_1_1rings_1_1_cyclic_graph_handler_1_1_ring_size_manager.html#a68b1aa5cd1df8bb959064588e994b74e" target="_top" xlink:title=" ">
<polygon fill="white" stroke="black" points="1529,-147 1529,-188 1725,-188 1725,-147 1529,-147"/>
<text text-anchor="start" x="1537" y="-176" font-family="Helvetica,sans-Serif" font-size="10.00">denoptim.graph.rings.Cyclic</text>
<text text-anchor="start" x="1537" y="-165" font-family="Helvetica,sans-Serif" font-size="10.00">GraphHandler.RingSizeManager.calculate</text>
<text text-anchor="middle" x="1627" y="-154" font-family="Helvetica,sans-Serif" font-size="10.00">CompatibilityOfAllRCAPairs</text>
</a>
</g>
</g>
<!-- Node1&#45;&gt;Node2 -->
<g id="edge1" class="edge">
<title>Node1&#45;&gt;Node2</title>
<path fill="none" stroke="midnightblue" d="M1789.55,-108.13C1770.51,-117.69 1746.85,-128.93 1725,-137.5 1716.63,-140.78 1707.75,-143.95 1698.89,-146.91"/>
<polygon fill="midnightblue" stroke="midnightblue" points="1791.15,-111.24 1798.49,-103.6 1787.99,-105 1791.15,-111.24"/>
</g>
<!-- Node20 -->
<g id="node20" class="node">
<title>Node20</title>
<g id="a_node20"><a xlink:href="classdenoptim_1_1molecularmodeling_1_1_chemical_object_model.html#a4a6af1c7cf4d276fbebacb62d5ab812b" target="_top" xlink:title=" ">
<polygon fill="white" stroke="black" points="1541,-98.5 1541,-128.5 1713,-128.5 1713,-98.5 1541,-98.5"/>
<text text-anchor="start" x="1549" y="-116.5" font-family="Helvetica,sans-Serif" font-size="10.00">denoptim.molecularmodeling.</text>
<text text-anchor="middle" x="1627" y="-105.5" font-family="Helvetica,sans-Serif" font-size="10.00">ChemicalObjectModel.findAttractors</text>
</a>
</g>
</g>
<!-- Node1&#45;&gt;Node20 -->
<g id="edge25" class="edge">
<title>Node1&#45;&gt;Node20</title>
<path fill="none" stroke="midnightblue" d="M1750.57,-98.1C1738.3,-99.64 1725.54,-101.25 1713.09,-102.81"/>
<polygon fill="midnightblue" stroke="midnightblue" points="1751.25,-101.54 1760.74,-96.82 1750.38,-94.6 1751.25,-101.54"/>
</g>
<!-- Node22 -->
<g id="node22" class="node">
<title>Node22</title>
<g id="a_node22"><a xlink:href="classdenoptim_1_1utils_1_1_ring_closing_utils.html#a98c7ed8aac41bd235c06b62902f698cc" target="_top" xlink:title="Looks for pseudoatoms representing the possibility of closing a ring: the so&#45;called RingClosingAttrac...">
<polygon fill="white" stroke="black" points="1561.5,-49.5 1561.5,-79.5 1692.5,-79.5 1692.5,-49.5 1561.5,-49.5"/>
<text text-anchor="start" x="1569.5" y="-67.5" font-family="Helvetica,sans-Serif" font-size="10.00">denoptim.utils.RingClosing</text>
<text text-anchor="middle" x="1627" y="-56.5" font-family="Helvetica,sans-Serif" font-size="10.00">Utils.findAttractors</text>
</a>
</g>
</g>
<!-- Node1&#45;&gt;Node22 -->
<g id="edge27" class="edge">
<title>Node1&#45;&gt;Node22</title>
<path fill="none" stroke="midnightblue" d="M1750.56,-79.28C1731.44,-76.97 1711.11,-74.52 1692.62,-72.29"/>
<polygon fill="midnightblue" stroke="midnightblue" points="1750.39,-82.79 1760.74,-80.51 1751.23,-75.84 1750.39,-82.79"/>
</g>
<!-- Node23 -->
<g id="node23" class="node">
<title>Node23</title>
<g id="a_node23"><a xlink:href="classdenoptim_1_1graph_1_1rings_1_1_ring_closing_attractor.html#aaf3f6966d930377d2577f7509fb9a68e" target="_top" xlink:title="Constructor for a RingClosingAttractor corresponding to an atom in an IAtomContainer.">
<polygon fill="white" stroke="black" points="1538,-0.5 1538,-30.5 1716,-30.5 1716,-0.5 1538,-0.5"/>
<text text-anchor="start" x="1546" y="-18.5" font-family="Helvetica,sans-Serif" font-size="10.00">denoptim.graph.rings.Ring</text>
<text text-anchor="middle" x="1627" y="-7.5" font-family="Helvetica,sans-Serif" font-size="10.00">ClosingAttractor.RingClosingAttractor</text>
</a>
</g>
</g>
<!-- Node1&#45;&gt;Node23 -->
<g id="edge28" class="edge">
<title>Node1&#45;&gt;Node23</title>
<path fill="none" stroke="midnightblue" d="M1790.56,-68.74C1771.45,-58.96 1747.4,-47.56 1725,-39.5 1715.86,-36.21 1706.07,-33.22 1696.37,-30.54"/>
<polygon fill="midnightblue" stroke="midnightblue" points="1789.04,-71.89 1799.52,-73.39 1792.26,-65.68 1789.04,-71.89"/>
</g>
<!-- Node3 -->
<g id="node3" class="node">
<title>Node3</title>
<g id="a_node3"><a xlink:href="classdenoptim_1_1graph_1_1rings_1_1_cyclic_graph_handler_1_1_ring_size_manager.html#a0fc0f3889f18d330fc50f28a4264ca21" target="_top" xlink:title=" ">
<polygon fill="white" stroke="black" points="1302,-147 1302,-188 1475,-188 1475,-147 1302,-147"/>
<text text-anchor="start" x="1310" y="-176" font-family="Helvetica,sans-Serif" font-size="10.00">denoptim.graph.rings.Cyclic</text>
<text text-anchor="start" x="1310" y="-165" font-family="Helvetica,sans-Serif" font-size="10.00">GraphHandler.RingSizeManager.add</text>
<text text-anchor="middle" x="1388.5" y="-154" font-family="Helvetica,sans-Serif" font-size="10.00">RingClosingBond</text>
</a>
</g>
</g>
<!-- Node2&#45;&gt;Node3 -->
<g id="edge2" class="edge">
<title>Node2&#45;&gt;Node3</title>
<path fill="none" stroke="midnightblue" d="M1518.76,-167.5C1504.22,-167.5 1489.46,-167.5 1475.36,-167.5"/>
<polygon fill="midnightblue" stroke="midnightblue" points="1518.78,-171 1528.78,-167.5 1518.78,-164 1518.78,-171"/>
</g>
<!-- Node16 -->
<g id="node16" class="node">
<title>Node16</title>
<g id="a_node16"><a xlink:href="classdenoptim_1_1graph_1_1rings_1_1_cyclic_graph_handler_1_1_ring_size_manager.html#a9b1b85afae57c94c9059527bd796259c" target="_top" xlink:title=" ">
<polygon fill="white" stroke="black" points="1293,-206.5 1293,-236.5 1484,-236.5 1484,-206.5 1293,-206.5"/>
<text text-anchor="start" x="1301" y="-224.5" font-family="Helvetica,sans-Serif" font-size="10.00">denoptim.graph.rings.Cyclic</text>
<text text-anchor="middle" x="1388.5" y="-213.5" font-family="Helvetica,sans-Serif" font-size="10.00">GraphHandler.RingSizeManager.initialize</text>
</a>
</g>
</g>
<!-- Node2&#45;&gt;Node16 -->
<g id="edge19" class="edge">
<title>Node2&#45;&gt;Node16</title>
<path fill="none" stroke="midnightblue" d="M1526.11,-190.31C1502.24,-195.76 1477.33,-201.44 1455.43,-206.45"/>
<polygon fill="midnightblue" stroke="midnightblue" points="1526.94,-193.71 1535.91,-188.07 1525.39,-186.88 1526.94,-193.71"/>
</g>
<!-- Node4 -->
<g id="node4" class="node">
<title>Node4</title>
<g id="a_node4"><a xlink:href="classdenoptim_1_1graph_1_1rings_1_1_cyclic_graph_handler.html#a08b02946eaac7c2cbbe6e71332d702e6" target="_top" xlink:title="Identifies a random combination of ring closing paths and returns it as list of DENOPTIMRings ready t...">
<polygon fill="white" stroke="black" points="1065,-147 1065,-188 1247,-188 1247,-147 1065,-147"/>
<text text-anchor="start" x="1073" y="-176" font-family="Helvetica,sans-Serif" font-size="10.00">denoptim.graph.rings.Cyclic</text>
<text text-anchor="start" x="1073" y="-165" font-family="Helvetica,sans-Serif" font-size="10.00">GraphHandler.getRandomCombination</text>
<text text-anchor="middle" x="1156" y="-154" font-family="Helvetica,sans-Serif" font-size="10.00">OfRings</text>
</a>
</g>
</g>
<!-- Node3&#45;&gt;Node4 -->
<g id="edge3" class="edge">
<title>Node3&#45;&gt;Node4</title>
<path fill="none" stroke="midnightblue" d="M1291.89,-167.5C1277.16,-167.5 1261.99,-167.5 1247.38,-167.5"/>
<polygon fill="midnightblue" stroke="midnightblue" points="1292,-171 1302,-167.5 1292,-164 1292,-171"/>
</g>
<!-- Node5 -->
<g id="node5" class="node">
<title>Node5</title>
<g id="a_node5"><a xlink:href="classdenoptim_1_1ga_1_1_e_a_utils.html#a1ddb932d4618434d435e4f85ce5e5eb5" target="_top" xlink:title="Evaluates the possibility of closing rings in a given graph and if any ring can be closed,...">
<polygon fill="white" stroke="black" points="885,-152.5 885,-182.5 1016,-182.5 1016,-152.5 885,-152.5"/>
<text text-anchor="start" x="893" y="-170.5" font-family="Helvetica,sans-Serif" font-size="10.00">denoptim.ga.EAUtils.setup</text>
<text text-anchor="middle" x="950.5" y="-159.5" font-family="Helvetica,sans-Serif" font-size="10.00">Rings</text>
</a>
</g>
</g>
<!-- Node4&#45;&gt;Node5 -->
<g id="edge4" class="edge">
<title>Node4&#45;&gt;Node5</title>
<path fill="none" stroke="midnightblue" d="M1054.84,-167.5C1041.72,-167.5 1028.56,-167.5 1016.24,-167.5"/>
<polygon fill="midnightblue" stroke="midnightblue" points="1054.85,-171 1064.85,-167.5 1054.85,-164 1054.85,-171"/>
</g>
<!-- Node6 -->
<g id="node6" class="node">
<title>Node6</title>
<g id="a_node6"><a xlink:href="classdenoptim_1_1ga_1_1_e_a_utils.html#a8122818f58919fce84dce75e7506025a" target="_top" xlink:title=" ">
<polygon fill="white" stroke="black" points="701,-133.5 701,-163.5 828,-163.5 828,-133.5 701,-133.5"/>
<text text-anchor="start" x="709" y="-151.5" font-family="Helvetica,sans-Serif" font-size="10.00">denoptim.ga.EAUtils.build</text>
<text text-anchor="middle" x="764.5" y="-140.5" font-family="Helvetica,sans-Serif" font-size="10.00">CandidateByMutation</text>
</a>
</g>
</g>
<!-- Node5&#45;&gt;Node6 -->
<g id="edge5" class="edge">
<title>Node5&#45;&gt;Node6</title>
<path fill="none" stroke="midnightblue" d="M874.81,-159.79C859.31,-158.19 843.12,-156.52 828.1,-154.96"/>
<polygon fill="midnightblue" stroke="midnightblue" points="874.58,-163.28 884.89,-160.83 875.3,-156.32 874.58,-163.28"/>
</g>
<!-- Node13 -->
<g id="node13" class="node">
<title>Node13</title>
<g id="a_node13"><a xlink:href="classdenoptim_1_1ga_1_1_e_a_utils.html#ad3d2daeb11e68a356e971ca1846596b5" target="_top" xlink:title=" ">
<polygon fill="white" stroke="black" points="701,-84.5 701,-114.5 828,-114.5 828,-84.5 701,-84.5"/>
<text text-anchor="start" x="709" y="-102.5" font-family="Helvetica,sans-Serif" font-size="10.00">denoptim.ga.EAUtils.build</text>
<text text-anchor="middle" x="764.5" y="-91.5" font-family="Helvetica,sans-Serif" font-size="10.00">CandidateFromScratch</text>
</a>
</g>
</g>
<!-- Node5&#45;&gt;Node13 -->
<g id="edge13" class="edge">
<title>Node5&#45;&gt;Node13</title>
<path fill="none" stroke="midnightblue" d="M903.13,-148.78C882.91,-140.76 858.87,-131.44 837,-123.5 828.75,-120.51 819.93,-117.43 811.39,-114.53"/>
<polygon fill="midnightblue" stroke="midnightblue" points="901.84,-152.03 912.43,-152.47 904.43,-145.53 901.84,-152.03"/>
</g>
<!-- Node15 -->
<g id="node15" class="node">
<title>Node15</title>
<g id="a_node15"><a xlink:href="classdenoptim_1_1ga_1_1_e_a_utils.html#a0b958439d79fae30f14530213ad22e3a" target="_top" xlink:title="Generates up to a pair of new offspring by performing a crossover operation.">
<polygon fill="white" stroke="black" points="701,-182.5 701,-212.5 828,-212.5 828,-182.5 701,-182.5"/>
<text text-anchor="start" x="709" y="-200.5" font-family="Helvetica,sans-Serif" font-size="10.00">denoptim.ga.EAUtils.build</text>
<text text-anchor="middle" x="764.5" y="-189.5" font-family="Helvetica,sans-Serif" font-size="10.00">CandidatesByXOver</text>
</a>
</g>
</g>
<!-- Node5&#45;&gt;Node15 -->
<g id="edge18" class="edge">
<title>Node5&#45;&gt;Node15</title>
<path fill="none" stroke="midnightblue" d="M874.81,-179.68C859.31,-182.21 843.12,-184.84 828.1,-187.29"/>
<polygon fill="midnightblue" stroke="midnightblue" points="875.58,-183.1 884.89,-178.03 874.45,-176.19 875.58,-183.1"/>
</g>
<!-- Node7 -->
<g id="node7" class="node">
<title>Node7</title>
<g id="a_node7"><a xlink:href="classdenoptim_1_1ga_1_1_evolutionary_algorithm.html#a0c2e353b243250b4959a3f86608f1020" target="_top" xlink:title="Generates one offspring according to the method where crossover and mutation are decoupled,...">
<polygon fill="white" stroke="black" points="526,-133.5 526,-163.5 656,-163.5 656,-133.5 526,-133.5"/>
<text text-anchor="start" x="534" y="-151.5" font-family="Helvetica,sans-Serif" font-size="10.00">denoptim.ga.Evolutionary</text>
<text text-anchor="middle" x="591" y="-140.5" font-family="Helvetica,sans-Serif" font-size="10.00">Algorithm.makeOffspringA</text>
</a>
</g>
</g>
<!-- Node6&#45;&gt;Node7 -->
<g id="edge6" class="edge">
<title>Node6&#45;&gt;Node7</title>
<path fill="none" stroke="midnightblue" d="M690.61,-148.5C679.12,-148.5 667.3,-148.5 656.03,-148.5"/>
<polygon fill="midnightblue" stroke="midnightblue" points="690.61,-152 700.61,-148.5 690.61,-145 690.61,-152"/>
</g>
<!-- Node12 -->
<g id="node12" class="node">
<title>Node12</title>
<g id="a_node12"><a xlink:href="classdenoptim_1_1ga_1_1_evolutionary_algorithm.html#ae7a90a911b109ed47b3acf54193acc35" target="_top" xlink:title="Generates one offspring according to the method where crossover and mutation are coupled,...">
<polygon fill="white" stroke="black" points="526,-84.5 526,-114.5 656,-114.5 656,-84.5 526,-84.5"/>
<text text-anchor="start" x="534" y="-102.5" font-family="Helvetica,sans-Serif" font-size="10.00">denoptim.ga.Evolutionary</text>
<text text-anchor="middle" x="591" y="-91.5" font-family="Helvetica,sans-Serif" font-size="10.00">Algorithm.makeOffspringB</text>
</a>
</g>
</g>
<!-- Node6&#45;&gt;Node12 -->
<g id="edge11" class="edge">
<title>Node6&#45;&gt;Node12</title>
<path fill="none" stroke="midnightblue" d="M700.87,-130.61C682.42,-125.34 662.44,-119.62 644.68,-114.55"/>
<polygon fill="midnightblue" stroke="midnightblue" points="700.07,-134.02 710.64,-133.4 701.99,-127.29 700.07,-134.02"/>
</g>
<!-- Node8 -->
<g id="node8" class="node">
<title>Node8</title>
<g id="a_node8"><a xlink:href="classdenoptim_1_1ga_1_1_evolutionary_algorithm.html#a596b2f5f0b097c5b67a6e5163bd6fe66" target="_top" xlink:title="Generates a given number of new candidate items and adds them to the current population.">
<polygon fill="white" stroke="black" points="353,-89.5 353,-119.5 487,-119.5 487,-89.5 353,-89.5"/>
<text text-anchor="start" x="361" y="-107.5" font-family="Helvetica,sans-Serif" font-size="10.00">denoptim.ga.Evolutionary</text>
<text text-anchor="middle" x="420" y="-96.5" font-family="Helvetica,sans-Serif" font-size="10.00">Algorithm.evolvePopulation</text>
</a>
</g>
</g>
<!-- Node7&#45;&gt;Node8 -->
<g id="edge7" class="edge">
<title>Node7&#45;&gt;Node8</title>
<path fill="none" stroke="midnightblue" d="M522.42,-130.91C507.95,-127.14 492.78,-123.19 478.71,-119.53"/>
<polygon fill="midnightblue" stroke="midnightblue" points="521.75,-134.35 532.31,-133.48 523.52,-127.57 521.75,-134.35"/>
</g>
<!-- Node9 -->
<g id="node9" class="node">
<title>Node9</title>
<g id="a_node9"><a xlink:href="classdenoptim_1_1ga_1_1_evolutionary_algorithm.html#a6bfc2fa59b199da6259b5b6bad3d6de7" target="_top" xlink:title=" ">
<polygon fill="white" stroke="black" points="190,-64.5 190,-94.5 314,-94.5 314,-64.5 190,-64.5"/>
<text text-anchor="start" x="198" y="-82.5" font-family="Helvetica,sans-Serif" font-size="10.00">denoptim.ga.Evolutionary</text>
<text text-anchor="middle" x="252" y="-71.5" font-family="Helvetica,sans-Serif" font-size="10.00">Algorithm.run</text>
</a>
</g>
</g>
<!-- Node8&#45;&gt;Node9 -->
<g id="edge8" class="edge">
<title>Node8&#45;&gt;Node9</title>
<path fill="none" stroke="midnightblue" d="M342.9,-93.04C333.21,-91.58 323.41,-90.1 314.01,-88.69"/>
<polygon fill="midnightblue" stroke="midnightblue" points="342.51,-96.52 352.92,-94.55 343.55,-89.6 342.51,-96.52"/>
</g>
<!-- Node10 -->
<g id="node10" class="node">
<title>Node10</title>
<g id="a_node10"><a xlink:href="classdenoptim_1_1ga_1_1_evolutionary_algorithm.html#a0f2063b722b7291daf83d62acaa683d3" target="_top" xlink:title=" ">
<polygon fill="white" stroke="black" points="0,-89.5 0,-119.5 154,-119.5 154,-89.5 0,-89.5"/>
<text text-anchor="start" x="8" y="-107.5" font-family="Helvetica,sans-Serif" font-size="10.00">denoptim.ga.Evolutionary</text>
<text text-anchor="middle" x="77" y="-96.5" font-family="Helvetica,sans-Serif" font-size="10.00">Algorithm.EvolutionaryAlgorithm</text>
</a>
</g>
</g>
<!-- Node9&#45;&gt;Node10 -->
<g id="edge9" class="edge">
<title>Node9&#45;&gt;Node10</title>
<path fill="none" stroke="midnightblue" d="M179.44,-89.84C171.09,-91.05 162.54,-92.28 154.12,-93.5"/>
<polygon fill="midnightblue" stroke="midnightblue" points="180.12,-93.28 189.52,-88.38 179.12,-86.35 180.12,-93.28"/>
</g>
<!-- Node11 -->
<g id="node11" class="node">
<title>Node11</title>
<g id="a_node11"><a xlink:href="classdenoptim_1_1programs_1_1denovo_1_1_g_a_runner.html#a7cafd6d78727b89dce3e2c8d06f0dd7c" target="_top" xlink:title=" ">
<polygon fill="white" stroke="black" points="9.5,-40.5 9.5,-70.5 144.5,-70.5 144.5,-40.5 9.5,-40.5"/>
<text text-anchor="start" x="17.5" y="-58.5" font-family="Helvetica,sans-Serif" font-size="10.00">denoptim.programs.denovo.</text>
<text text-anchor="middle" x="77" y="-47.5" font-family="Helvetica,sans-Serif" font-size="10.00">GARunner.runProgram</text>
</a>
</g>
</g>
<!-- Node9&#45;&gt;Node11 -->
<g id="edge10" class="edge">
<title>Node9&#45;&gt;Node11</title>
<path fill="none" stroke="midnightblue" d="M179.48,-69.58C167.92,-67.97 156,-66.32 144.57,-64.73"/>
<polygon fill="midnightblue" stroke="midnightblue" points="179.13,-73.06 189.52,-70.97 180.1,-66.13 179.13,-73.06"/>
</g>
<!-- Node12&#45;&gt;Node8 -->
<g id="edge12" class="edge">
<title>Node12&#45;&gt;Node8</title>
<path fill="none" stroke="midnightblue" d="M515.48,-101.7C506.05,-101.98 496.45,-102.27 487.16,-102.54"/>
<polygon fill="midnightblue" stroke="midnightblue" points="515.73,-105.2 525.63,-101.4 515.53,-98.2 515.73,-105.2"/>
</g>
<!-- Node13&#45;&gt;Node7 -->
<g id="edge16" class="edge">
<title>Node13&#45;&gt;Node7</title>
<path fill="none" stroke="midnightblue" d="M700.87,-117.39C682.42,-122.66 662.44,-128.38 644.68,-133.45"/>
<polygon fill="midnightblue" stroke="midnightblue" points="701.99,-120.71 710.64,-114.6 700.07,-113.98 701.99,-120.71"/>
</g>
<!-- Node13&#45;&gt;Node12 -->
<g id="edge17" class="edge">
<title>Node13&#45;&gt;Node12</title>
<path fill="none" stroke="midnightblue" d="M690.61,-99.5C679.12,-99.5 667.3,-99.5 656.03,-99.5"/>
<polygon fill="midnightblue" stroke="midnightblue" points="690.61,-103 700.61,-99.5 690.61,-96 690.61,-103"/>
</g>
<!-- Node14 -->
<g id="node14" class="node">
<title>Node14</title>
<g id="a_node14"><a xlink:href="classdenoptim_1_1ga_1_1_evolutionary_algorithm.html#ad43588620dab3340e0d8b0042ec73618" target="_top" xlink:title="Fills up the population with candidates build from scratch.">
<polygon fill="white" stroke="black" points="350,-40.5 350,-70.5 490,-70.5 490,-40.5 350,-40.5"/>
<text text-anchor="start" x="358" y="-58.5" font-family="Helvetica,sans-Serif" font-size="10.00">denoptim.ga.Evolutionary</text>
<text text-anchor="middle" x="420" y="-47.5" font-family="Helvetica,sans-Serif" font-size="10.00">Algorithm.initializePopulation</text>
</a>
</g>
</g>
<!-- Node13&#45;&gt;Node14 -->
<g id="edge14" class="edge">
<title>Node13&#45;&gt;Node14</title>
<path fill="none" stroke="midnightblue" d="M696.09,-82.22C682.87,-79.28 669.05,-76.53 656,-74.5 600.59,-65.87 537.19,-61.03 490.21,-58.4"/>
<polygon fill="midnightblue" stroke="midnightblue" points="695.54,-85.68 706.06,-84.49 697.09,-78.86 695.54,-85.68"/>
</g>
<!-- Node14&#45;&gt;Node9 -->
<g id="edge15" class="edge">
<title>Node14&#45;&gt;Node9</title>
<path fill="none" stroke="midnightblue" d="M339.6,-66.98C331.08,-68.21 322.5,-69.45 314.24,-70.65"/>
<polygon fill="midnightblue" stroke="midnightblue" points="340.17,-70.43 349.56,-65.54 339.16,-63.51 340.17,-70.43"/>
</g>
<!-- Node16&#45;&gt;Node4 -->
<g id="edge24" class="edge">
<title>Node16&#45;&gt;Node4</title>
<path fill="none" stroke="midnightblue" d="M1312.63,-204.18C1303,-201.94 1293.26,-199.67 1284,-197.5 1270.99,-194.45 1257.22,-191.22 1243.75,-188.04"/>
<polygon fill="midnightblue" stroke="midnightblue" points="1312.08,-207.64 1322.62,-206.5 1313.67,-200.83 1312.08,-207.64"/>
</g>
<!-- Node17 -->
<g id="node17" class="node">
<title>Node17</title>
<g id="a_node17"><a xlink:href="classdenoptim_1_1graph_1_1rings_1_1_cyclic_graph_handler.html#a3ce96322723f45d9285a248ebcef94d3" target="_top" xlink:title="Identifies all possible ring closing paths and returns them as list of DENOPTIMRings ready to be appe...">
<polygon fill="white" stroke="black" points="1064,-207 1064,-248 1248,-248 1248,-207 1064,-207"/>
<text text-anchor="start" x="1072" y="-236" font-family="Helvetica,sans-Serif" font-size="10.00">denoptim.graph.rings.Cyclic</text>
<text text-anchor="start" x="1072" y="-225" font-family="Helvetica,sans-Serif" font-size="10.00">GraphHandler.getPossibleCombination</text>
<text text-anchor="middle" x="1156" y="-214" font-family="Helvetica,sans-Serif" font-size="10.00">OfRings</text>
</a>
</g>
</g>
<!-- Node16&#45;&gt;Node17 -->
<g id="edge20" class="edge">
<title>Node16&#45;&gt;Node17</title>
<path fill="none" stroke="midnightblue" d="M1282.65,-224.23C1271.09,-224.53 1259.4,-224.83 1248.04,-225.13"/>
<polygon fill="midnightblue" stroke="midnightblue" points="1282.84,-227.73 1292.75,-223.97 1282.66,-220.73 1282.84,-227.73"/>
</g>
<!-- Node17&#45;&gt;Node5 -->
<g id="edge23" class="edge">
<title>Node17&#45;&gt;Node5</title>
<path fill="none" stroke="midnightblue" d="M1075.58,-204.08C1051.02,-196.84 1024.63,-189.06 1002.53,-182.54"/>
<polygon fill="midnightblue" stroke="midnightblue" points="1074.67,-207.46 1085.25,-206.94 1076.65,-200.75 1074.67,-207.46"/>
</g>
<!-- Node18 -->
<g id="node18" class="node">
<title>Node18</title>
<g id="a_node18"><a xlink:href="classdenoptim_1_1graph_1_1_d_graph.html#a7a4743d014e860237f4b20703ef9779b" target="_top" xlink:title="Evaluates the possibility of closing rings in this graph and generates all alternative graphs resulti...">
<polygon fill="white" stroke="black" points="873,-221.5 873,-251.5 1028,-251.5 1028,-221.5 873,-221.5"/>
<text text-anchor="start" x="881" y="-239.5" font-family="Helvetica,sans-Serif" font-size="10.00">denoptim.graph.DGraph.make</text>
<text text-anchor="middle" x="950.5" y="-228.5" font-family="Helvetica,sans-Serif" font-size="10.00">AllGraphsWithDifferentRingSets</text>
</a>
</g>
</g>
<!-- Node17&#45;&gt;Node18 -->
<g id="edge21" class="edge">
<title>Node17&#45;&gt;Node18</title>
<path fill="none" stroke="midnightblue" d="M1053.84,-231.97C1045.2,-232.36 1036.56,-232.74 1028.16,-233.11"/>
<polygon fill="midnightblue" stroke="midnightblue" points="1054.13,-235.46 1063.96,-231.53 1053.82,-228.47 1054.13,-235.46"/>
</g>
<!-- Node19 -->
<g id="node19" class="node">
<title>Node19</title>
<g id="a_node19"><a xlink:href="classdenoptim_1_1combinatorial_1_1_graph_building_task.html#a3eaee724fc921194fa158714aafe182d" target="_top" xlink:title="Calls the task.">
<polygon fill="white" stroke="black" points="692,-231.5 692,-261.5 837,-261.5 837,-231.5 692,-231.5"/>
<text text-anchor="start" x="700" y="-249.5" font-family="Helvetica,sans-Serif" font-size="10.00">denoptim.combinatorial.Graph</text>
<text text-anchor="middle" x="764.5" y="-238.5" font-family="Helvetica,sans-Serif" font-size="10.00">BuildingTask.call</text>
</a>
</g>
</g>
<!-- Node18&#45;&gt;Node19 -->
<g id="edge22" class="edge">
<title>Node18&#45;&gt;Node19</title>
<path fill="none" stroke="midnightblue" d="M862.75,-241.21C854.15,-241.68 845.49,-242.15 837.07,-242.61"/>
<polygon fill="midnightblue" stroke="midnightblue" points="863,-244.71 872.8,-240.67 862.62,-237.72 863,-244.71"/>
</g>
<!-- Node21 -->
<g id="node21" class="node">
<title>Node21</title>
<g id="a_node21"><a xlink:href="classdenoptim_1_1molecularmodeling_1_1_chemical_object_model.html#a078749e82762b41d68b51bbc5af46e0c" target="_top" xlink:title="Constructs a Molecule3DBuilder specifying all its features.">
<polygon fill="white" stroke="black" points="1284,-98.5 1284,-128.5 1493,-128.5 1493,-98.5 1284,-98.5"/>
<text text-anchor="start" x="1292" y="-116.5" font-family="Helvetica,sans-Serif" font-size="10.00">denoptim.molecularmodeling.</text>
<text text-anchor="middle" x="1388.5" y="-105.5" font-family="Helvetica,sans-Serif" font-size="10.00">ChemicalObjectModel.ChemicalObjectModel</text>
</a>
</g>
</g>
<!-- Node20&#45;&gt;Node21 -->
<g id="edge26" class="edge">
<title>Node20&#45;&gt;Node21</title>
<path fill="none" stroke="midnightblue" d="M1530.68,-113.5C1518.33,-113.5 1505.65,-113.5 1493.18,-113.5"/>
<polygon fill="midnightblue" stroke="midnightblue" points="1530.95,-117 1540.95,-113.5 1530.95,-110 1530.95,-117"/>
</g>
</g>
</svg>
        <g id="navigator" transform="translate(0 0)" fill="#404254">
                <rect fill="#f2f5e9" fill-opacity="0.5" stroke="#606060" stroke-width=".5" x="0" y="0" width="60" height="60"/>
                <use id="zoomplus" xlink:href="#zoomPlus" x="17" y="9" onmousedown="handleZoom(evt,'in')"/>
                <use id="zoomminus" xlink:href="#zoomMin" x="42" y="9" onmousedown="handleZoom(evt,'out')"/>
                <use id="reset" xlink:href="#resetDef" x="30" y="36" onmousedown="handleReset()"/>
                <g id="arrowUp" xlink:href="#dirArrow" transform="translate(30 24)" onmousedown="handlePan(0,-1)">
                  <use xlink:href="#rim" fill="#404040">
                        <set attributeName="fill" to="#808080" begin="arrowUp.mouseover" end="arrowUp.mouseout"/>
                  </use>
                  <path fill="none" stroke="white" stroke-width="1.5" d="M0,-3.0v7 M-2.5,-0.5L0,-3.0L2.5,-0.5"/>
                </g>
                <g id="arrowRight" xlink:href="#dirArrow" transform="rotate(90) translate(36 -43)" onmousedown="handlePan(1,0)">
                  <use xlink:href="#rim" fill="#404040">
                        <set attributeName="fill" to="#808080" begin="arrowRight.mouseover" end="arrowRight.mouseout"/>
                  </use>
                  <path fill="none" stroke="white" stroke-width="1.5" d="M0,-3.0v7 M-2.5,-0.5L0,-3.0L2.5,-0.5"/>
                </g>
                <g id="arrowDown" xlink:href="#dirArrow" transform="rotate(180) translate(-30 -48)" onmousedown="handlePan(0,1)">
                  <use xlink:href="#rim" fill="#404040">
                        <set attributeName="fill" to="#808080" begin="arrowDown.mouseover" end="arrowDown.mouseout"/>
                  </use>
                  <path fill="none" stroke="white" stroke-width="1.5" d="M0,-3.0v7 M-2.5,-0.5L0,-3.0L2.5,-0.5"/>
                </g>
                <g id="arrowLeft" xlink:href="#dirArrow" transform="rotate(270) translate(-36 17)" onmousedown="handlePan(-1,0)">
                  <use xlink:href="#rim" fill="#404040">
                        <set attributeName="fill" to="#808080" begin="arrowLeft.mouseover" end="arrowLeft.mouseout"/>
                  </use>
                  <path fill="none" stroke="white" stroke-width="1.5" d="M0,-3.0v7 M-2.5,-0.5L0,-3.0L2.5,-0.5"/>
                </g>
        </g>
        <svg viewBox="0 0 15 15" width="100%" height="30px" preserveAspectRatio="xMaxYMin meet">
         <g id="arrow_out" transform="scale(0.3 0.3)">
          <a xlink:href="classdenoptim_1_1graph_1_1rings_1_1_ring_closing_attractor_a1181ea61bfd92dd5bfc3068772cce586_icgraph_org.svg" target="_base">
           <rect id="button" ry="5" rx="5" y="6" x="6" height="38" width="38"
                fill="#f2f5e9" fill-opacity="0.5" stroke="#606060" stroke-width="1.0"/>
           <path id="arrow"
             d="M 11.500037,31.436501 C 11.940474,20.09759 22.043105,11.32322 32.158766,21.979434 L 37.068811,17.246167 C 37.068811,17.246167 37.088388,32 37.088388,32 L 22.160133,31.978069 C 22.160133,31.978069 26.997745,27.140456 26.997745,27.140456 C 18.528582,18.264221 13.291696,25.230495 11.500037,31.436501 z"
             style="fill:#404040;"/>
          </a>
         </g>
        </svg>
</svg>
