<?xml version="1.0" encoding="UTF-8" standalone="no"?>
<!DOCTYPE svg PUBLIC "-//W3C//DTD SVG 1.1//EN"
 "http://www.w3.org/Graphics/SVG/1.1/DTD/svg11.dtd">
<!-- Generated by graphviz version 3.0.0 (20221109.1736)
 -->
<!-- Title: denoptim.gui.CompatibilityMatrixForm.TargetAPClassToken Pages: 1 -->
<!--zoomable 245 -->
<svg id="main" version="1.1" xmlns="http://www.w3.org/2000/svg" xmlns:xlink="http://www.w3.org/1999/xlink" xml:space="preserve" onload="init(evt)">
<style type="text/css"><![CDATA[
.edge:hover path { stroke: red; }
.edge:hover polygon { stroke: red; fill: red; }
]]></style>
<script type="text/javascript"><![CDATA[
var edges = document.getElementsByTagName('g');
if (edges && edges.length) {
  for (var i=0;i<edges.length;i++) {
    if (edges[i].id.substr(0,4)=='edge') {
      edges[i].setAttribute('class','edge');
    }
  }
}
]]></script>
        <defs>
                <circle id="rim" cx="0" cy="0" r="7"/>
                <circle id="rim2" cx="0" cy="0" r="3.5"/>
                <g id="zoomPlus">
                        <use xlink:href="#rim" fill="#404040">
                                <set attributeName="fill" to="#808080" begin="zoomplus.mouseover" end="zoomplus.mouseout"/>
                        </use>
                        <path d="M-4,0h8M0,-4v8" fill="none" stroke="white" stroke-width="1.5" pointer-events="none"/>
                </g>
                <g id="zoomMin">
                        <use xlink:href="#rim" fill="#404040">
                                <set attributeName="fill" to="#808080" begin="zoomminus.mouseover" end="zoomminus.mouseout"/>
                        </use>
                        <path d="M-4,0h8" fill="none" stroke="white" stroke-width="1.5" pointer-events="none"/>
                </g>
                <g id="dirArrow">
                        <path fill="none" stroke="white" stroke-width="1.5" d="M0,-3.0v7 M-2.5,-0.5L0,-3.0L2.5,-0.5"/>
                </g>
               <g id="resetDef">
                       <use xlink:href="#rim2" fill="#404040">
                               <set attributeName="fill" to="#808080" begin="reset.mouseover" end="reset.mouseout"/>
                       </use>
               </g>
        </defs>

<script type="text/javascript">
var viewWidth = 852;
var viewHeight = 245;
var sectionId = 'dynsection-1';
</script>
<script xlink:href="svgpan.js"/>
<svg id="graph" class="graph">
<g id="viewport">
<title>denoptim.gui.CompatibilityMatrixForm.TargetAPClassToken</title>
<polygon fill="white" stroke="transparent" points="-4,4 -4,-241 848,-241 848,4 -4,4"/>
<!-- Node1 -->
<g id="node1" class="node">
<title>Node1</title>
<g id="a_node1"><a xlink:title=" ">
<polygon fill="#bfbfbf" stroke="black" points="683,-98 683,-128 844,-128 844,-98 683,-98"/>
<text text-anchor="start" x="691" y="-116" font-family="Helvetica,sans-Serif" font-size="10.00">denoptim.gui.Compatibility</text>
<text text-anchor="middle" x="763.5" y="-105" font-family="Helvetica,sans-Serif" font-size="10.00">MatrixForm.TargetAPClassToken</text>
</a>
</g>
</g>
<!-- Node2 -->
<g id="node2" class="node">
<title>Node2</title>
<g id="a_node2"><a xlink:title=" ">
<polygon fill="white" stroke="black" points="441,-179.5 441,-198.5 488,-198.5 488,-179.5 441,-179.5"/>
<text text-anchor="middle" x="464.5" y="-186.5" font-family="Helvetica,sans-Serif" font-size="10.00">JPanel</text>
</a>
</g>
</g>
<!-- Node2&#45;&gt;Node1 -->
<g id="edge1" class="edge">
<title>Node2&#45;&gt;Node1</title>
<path fill="none" stroke="midnightblue" d="M498.03,-186.15C537.99,-182.08 607.56,-173.12 665,-156 688.76,-148.92 714.36,-137.47 733.36,-128.17"/>
<polygon fill="midnightblue" stroke="midnightblue" points="497.67,-182.67 488.06,-187.13 498.35,-189.64 497.67,-182.67"/>
</g>
<!-- Node3 -->
<g id="node3" class="node">
<title>Node3</title>
<g id="a_node3"><a xlink:href="classdenoptim_1_1graph_1_1_a_p_class.html" target="_top" xlink:title=" ">
<polygon fill="white" stroke="black" points="403,-141.5 403,-160.5 526,-160.5 526,-141.5 403,-141.5"/>
<text text-anchor="middle" x="464.5" y="-148.5" font-family="Helvetica,sans-Serif" font-size="10.00">denoptim.graph.APClass</text>
</a>
</g>
</g>
<!-- Node3&#45;&gt;Node1 -->
<g id="edge2" class="edge">
<title>Node3&#45;&gt;Node1</title>
<path fill="none" stroke="#9a32cd" stroke-dasharray="5,2" d="M536.21,-142.89C574.38,-138.42 622.3,-132.63 665,-127 670.85,-126.23 676.89,-125.41 682.97,-124.57"/>
<polygon fill="#9a32cd" stroke="#9a32cd" points="535.75,-139.42 526.22,-144.06 536.56,-146.38 535.75,-139.42"/>
<text text-anchor="middle" x="604.5" y="-144" font-family="Helvetica,sans-Serif" font-size="10.00"> trgAPClass</text>
</g>
<!-- Node4 -->
<g id="node4" class="node">
<title>Node4</title>
<g id="a_node4"><a xlink:title=" ">
<polygon fill="white" stroke="black" points="139,-217.5 139,-236.5 198,-236.5 198,-217.5 139,-217.5"/>
<text text-anchor="middle" x="168.5" y="-224.5" font-family="Helvetica,sans-Serif" font-size="10.00">Cloneable</text>
</a>
</g>
</g>
<!-- Node4&#45;&gt;Node3 -->
<g id="edge3" class="edge">
<title>Node4&#45;&gt;Node3</title>
<path fill="none" stroke="midnightblue" d="M208.08,-229.94C253.7,-231.56 330.31,-228.31 385,-195 396.69,-187.88 391.9,-178.02 403,-170 408.35,-166.13 414.52,-163.03 420.83,-160.56"/>
<polygon fill="midnightblue" stroke="midnightblue" points="208.16,-226.44 198.01,-229.48 207.84,-233.43 208.16,-226.44"/>
</g>
<!-- Node5 -->
<g id="node5" class="node">
<title>Node5</title>
<g id="a_node5"><a xlink:title=" ">
<polygon fill="white" stroke="black" points="107,-179.5 107,-198.5 230,-198.5 230,-179.5 107,-179.5"/>
<text text-anchor="middle" x="168.5" y="-186.5" font-family="Helvetica,sans-Serif" font-size="10.00">Comparable&lt; APClass &gt;</text>
</a>
</g>
</g>
<!-- Node5&#45;&gt;Node3 -->
<g id="edge4" class="edge">
<title>Node5&#45;&gt;Node3</title>
<path fill="none" stroke="midnightblue" d="M240.53,-188.51C282.79,-187.2 337.3,-183.72 385,-175 389.94,-174.1 413.25,-166.91 433.2,-160.63"/>
<polygon fill="midnightblue" stroke="midnightblue" points="240.24,-185.02 230.34,-188.79 240.43,-192.02 240.24,-185.02"/>
</g>
<!-- Node6 -->
<g id="node6" class="node">
<title>Node6</title>
<g id="a_node6"><a xlink:title=" ">
<polygon fill="white" stroke="black" points="91,-141.5 91,-160.5 246,-160.5 246,-141.5 91,-141.5"/>
<text text-anchor="middle" x="168.5" y="-148.5" font-family="Helvetica,sans-Serif" font-size="10.00">Set&lt; denoptim.graph.APClass &gt;</text>
</a>
</g>
</g>
<!-- Node6&#45;&gt;Node3 -->
<g id="edge5" class="edge">
<title>Node6&#45;&gt;Node3</title>
<path fill="none" stroke="#9a32cd" stroke-dasharray="5,2" d="M256.55,-151C303.63,-151 360.6,-151 402.84,-151"/>
<polygon fill="#9a32cd" stroke="#9a32cd" points="256.36,-147.5 246.36,-151 256.36,-154.5 256.36,-147.5"/>
<text text-anchor="middle" x="324.5" y="-165" font-family="Helvetica,sans-Serif" font-size="10.00"> RCAAPCLASSSET</text>
<text text-anchor="middle" x="324.5" y="-154" font-family="Helvetica,sans-Serif" font-size="10.00">uniqueAPClasses</text>
</g>
<!-- Node7 -->
<g id="node7" class="node">
<title>Node7</title>
<g id="a_node7"><a xlink:title=" ">
<polygon fill="white" stroke="black" points="101,-92 101,-122 236,-122 236,-92 101,-92"/>
<text text-anchor="start" x="109" y="-110" font-family="Helvetica,sans-Serif" font-size="10.00">HashMap&lt; denoptim.graph.</text>
<text text-anchor="middle" x="168.5" y="-99" font-family="Helvetica,sans-Serif" font-size="10.00">APClass, String &gt;</text>
</a>
</g>
</g>
<!-- Node7&#45;&gt;Node3 -->
<g id="edge6" class="edge">
<title>Node7&#45;&gt;Node3</title>
<path fill="none" stroke="#9a32cd" stroke-dasharray="5,2" d="M246.12,-116.27C287.35,-121.52 339.05,-128.52 385,-136 395,-137.63 405.68,-139.55 415.84,-141.46"/>
<polygon fill="#9a32cd" stroke="#9a32cd" points="246.5,-112.79 236.14,-115.01 245.62,-119.73 246.5,-112.79"/>
<text text-anchor="middle" x="324.5" y="-139" font-family="Helvetica,sans-Serif" font-size="10.00"> RCALABELPERAPCLASS</text>
</g>
<!-- Node8 -->
<g id="node8" class="node">
<title>Node8</title>
<g id="a_node8"><a xlink:href="enumdenoptim_1_1graph_1_1_edge_1_1_bond_type.html" target="_top" xlink:title="Possible chemical bond types an edge can represent.">
<polygon fill="white" stroke="black" points="92.5,-53.5 92.5,-72.5 244.5,-72.5 244.5,-53.5 92.5,-53.5"/>
<text text-anchor="middle" x="168.5" y="-60.5" font-family="Helvetica,sans-Serif" font-size="10.00">denoptim.graph.Edge.BondType</text>
</a>
</g>
</g>
<!-- Node8&#45;&gt;Node3 -->
<g id="edge7" class="edge">
<title>Node8&#45;&gt;Node3</title>
<path fill="none" stroke="#9a32cd" stroke-dasharray="5,2" d="M254.67,-56.49C297.53,-57.47 348.07,-65.6 385,-93 400.33,-104.38 388.66,-119.39 403,-132 407.38,-135.85 412.54,-138.93 417.97,-141.37"/>
<polygon fill="#9a32cd" stroke="#9a32cd" points="254.56,-52.99 244.53,-56.38 254.49,-59.99 254.56,-52.99"/>
<text text-anchor="middle" x="324.5" y="-107" font-family="Helvetica,sans-Serif" font-size="10.00"> DEFAULTBT</text>
<text text-anchor="middle" x="324.5" y="-96" font-family="Helvetica,sans-Serif" font-size="10.00">bndTyp</text>
</g>
<!-- Node9 -->
<g id="node9" class="node">
<title>Node9</title>
<g id="a_node9"><a xlink:title=" ">
<polygon fill="white" stroke="black" points="0,-53.5 0,-72.5 42,-72.5 42,-53.5 0,-53.5"/>
<text text-anchor="middle" x="21" y="-60.5" font-family="Helvetica,sans-Serif" font-size="10.00">IBond</text>
</a>
</g>
</g>
<!-- Node9&#45;&gt;Node8 -->
<g id="edge8" class="edge">
<title>Node9&#45;&gt;Node8</title>
<path fill="none" stroke="#9a32cd" stroke-dasharray="5,2" d="M52.33,-63C64.08,-63 78.11,-63 92.26,-63"/>
<polygon fill="#9a32cd" stroke="#9a32cd" points="52.23,-59.5 42.23,-63 52.23,-66.5 52.23,-59.5"/>
<text text-anchor="middle" x="66.5" y="-66" font-family="Helvetica,sans-Serif" font-size="10.00"> bo</text>
</g>
<!-- Node10 -->
<g id="node10" class="node">
<title>Node10</title>
<g id="a_node10"><a xlink:title=" ">
<polygon fill="white" stroke="black" points="433.5,-103.5 433.5,-122.5 495.5,-122.5 495.5,-103.5 433.5,-103.5"/>
<text text-anchor="middle" x="464.5" y="-110.5" font-family="Helvetica,sans-Serif" font-size="10.00">JTextField</text>
</a>
</g>
</g>
<!-- Node10&#45;&gt;Node1 -->
<g id="edge9" class="edge">
<title>Node10&#45;&gt;Node1</title>
<path fill="none" stroke="#9a32cd" stroke-dasharray="5,2" d="M505.62,-113C550.86,-113 625.55,-113 682.76,-113"/>
<polygon fill="#9a32cd" stroke="#9a32cd" points="505.61,-109.5 495.61,-113 505.61,-116.5 505.61,-109.5"/>
<text text-anchor="middle" x="604.5" y="-116" font-family="Helvetica,sans-Serif" font-size="10.00"> trgAPClLabel</text>
</g>
<!-- Node11 -->
<g id="node11" class="node">
<title>Node11</title>
<g id="a_node11"><a xlink:title=" ">
<polygon fill="white" stroke="black" points="439.5,-65.5 439.5,-84.5 489.5,-84.5 489.5,-65.5 439.5,-65.5"/>
<text text-anchor="middle" x="464.5" y="-72.5" font-family="Helvetica,sans-Serif" font-size="10.00">JButton</text>
</a>
</g>
</g>
<!-- Node11&#45;&gt;Node1 -->
<g id="edge10" class="edge">
<title>Node11&#45;&gt;Node1</title>
<path fill="none" stroke="#9a32cd" stroke-dasharray="5,2" d="M499.77,-78.55C539.55,-82.77 607.11,-90.21 665,-98 670.86,-98.79 676.9,-99.64 682.99,-100.51"/>
<polygon fill="#9a32cd" stroke="#9a32cd" points="500.11,-75.07 489.8,-77.5 499.38,-82.03 500.11,-75.07"/>
<text text-anchor="middle" x="604.5" y="-101" font-family="Helvetica,sans-Serif" font-size="10.00"> btnDel</text>
</g>
<!-- Node12 -->
<g id="node12" class="node">
<title>Node12</title>
<g id="a_node12"><a xlink:title=" ">
<polygon fill="white" stroke="black" points="445,-0.5 445,-19.5 484,-19.5 484,-0.5 445,-0.5"/>
<text text-anchor="middle" x="464.5" y="-7.5" font-family="Helvetica,sans-Serif" font-size="10.00">Color</text>
</a>
</g>
</g>
<!-- Node12&#45;&gt;Node1 -->
<g id="edge11" class="edge">
<title>Node12&#45;&gt;Node1</title>
<path fill="none" stroke="#9a32cd" stroke-dasharray="5,2" d="M494.33,-9.04C534.26,-8.74 607.95,-11.95 665,-36 698.99,-50.33 731.07,-79.87 748.63,-97.91"/>
<polygon fill="#9a32cd" stroke="#9a32cd" points="494.18,-5.54 484.23,-9.2 494.28,-12.54 494.18,-5.54"/>
<text text-anchor="middle" x="604.5" y="-72" font-family="Helvetica,sans-Serif" font-size="10.00"> BTNDEF</text>
<text text-anchor="middle" x="604.5" y="-61" font-family="Helvetica,sans-Serif" font-size="10.00">BTNPRESS</text>
<text text-anchor="middle" x="604.5" y="-50" font-family="Helvetica,sans-Serif" font-size="10.00">DEFAULTBACKGROUND</text>
<text text-anchor="middle" x="604.5" y="-39" font-family="Helvetica,sans-Serif" font-size="10.00">SELECTEDBACKGROUND</text>
</g>
</g>
</svg>
        <g id="navigator" transform="translate(0 0)" fill="#404254">
                <rect fill="#f2f5e9" fill-opacity="0.5" stroke="#606060" stroke-width=".5" x="0" y="0" width="60" height="60"/>
                <use id="zoomplus" xlink:href="#zoomPlus" x="17" y="9" onmousedown="handleZoom(evt,'in')"/>
                <use id="zoomminus" xlink:href="#zoomMin" x="42" y="9" onmousedown="handleZoom(evt,'out')"/>
                <use id="reset" xlink:href="#resetDef" x="30" y="36" onmousedown="handleReset()"/>
                <g id="arrowUp" xlink:href="#dirArrow" transform="translate(30 24)" onmousedown="handlePan(0,-1)">
                  <use xlink:href="#rim" fill="#404040">
                        <set attributeName="fill" to="#808080" begin="arrowUp.mouseover" end="arrowUp.mouseout"/>
                  </use>
                  <path fill="none" stroke="white" stroke-width="1.5" d="M0,-3.0v7 M-2.5,-0.5L0,-3.0L2.5,-0.5"/>
                </g>
                <g id="arrowRight" xlink:href="#dirArrow" transform="rotate(90) translate(36 -43)" onmousedown="handlePan(1,0)">
                  <use xlink:href="#rim" fill="#404040">
                        <set attributeName="fill" to="#808080" begin="arrowRight.mouseover" end="arrowRight.mouseout"/>
                  </use>
                  <path fill="none" stroke="white" stroke-width="1.5" d="M0,-3.0v7 M-2.5,-0.5L0,-3.0L2.5,-0.5"/>
                </g>
                <g id="arrowDown" xlink:href="#dirArrow" transform="rotate(180) translate(-30 -48)" onmousedown="handlePan(0,1)">
                  <use xlink:href="#rim" fill="#404040">
                        <set attributeName="fill" to="#808080" begin="arrowDown.mouseover" end="arrowDown.mouseout"/>
                  </use>
                  <path fill="none" stroke="white" stroke-width="1.5" d="M0,-3.0v7 M-2.5,-0.5L0,-3.0L2.5,-0.5"/>
                </g>
                <g id="arrowLeft" xlink:href="#dirArrow" transform="rotate(270) translate(-36 17)" onmousedown="handlePan(-1,0)">
                  <use xlink:href="#rim" fill="#404040">
                        <set attributeName="fill" to="#808080" begin="arrowLeft.mouseover" end="arrowLeft.mouseout"/>
                  </use>
                  <path fill="none" stroke="white" stroke-width="1.5" d="M0,-3.0v7 M-2.5,-0.5L0,-3.0L2.5,-0.5"/>
                </g>
        </g>
        <svg viewBox="0 0 15 15" width="100%" height="30px" preserveAspectRatio="xMaxYMin meet">
         <g id="arrow_out" transform="scale(0.3 0.3)">
          <a xlink:href="classdenoptim_1_1gui_1_1_compatibility_matrix_form_1_1_target_a_p_class_token__coll__graph_org.svg" target="_base">
           <rect id="button" ry="5" rx="5" y="6" x="6" height="38" width="38"
                fill="#f2f5e9" fill-opacity="0.5" stroke="#606060" stroke-width="1.0"/>
           <path id="arrow"
             d="M 11.500037,31.436501 C 11.940474,20.09759 22.043105,11.32322 32.158766,21.979434 L 37.068811,17.246167 C 37.068811,17.246167 37.088388,32 37.088388,32 L 22.160133,31.978069 C 22.160133,31.978069 26.997745,27.140456 26.997745,27.140456 C 18.528582,18.264221 13.291696,25.230495 11.500037,31.436501 z"
             style="fill:#404040;"/>
          </a>
         </g>
        </svg>
</svg>
