<?xml version="1.0" encoding="UTF-8" standalone="no"?>
<!DOCTYPE svg PUBLIC "-//W3C//DTD SVG 1.1//EN"
 "http://www.w3.org/Graphics/SVG/1.1/DTD/svg11.dtd">
<!-- Generated by graphviz version 3.0.0 (20221109.1736)
 -->
<!-- Title: denoptim.fragspace.APMapFinder.APMapFinder Pages: 1 -->
<!--zoomable 485 -->
<svg id="main" version="1.1" xmlns="http://www.w3.org/2000/svg" xmlns:xlink="http://www.w3.org/1999/xlink" xml:space="preserve" onload="init(evt)">
<style type="text/css"><![CDATA[
.edge:hover path { stroke: red; }
.edge:hover polygon { stroke: red; fill: red; }
]]></style>
<script type="text/javascript"><![CDATA[
var edges = document.getElementsByTagName('g');
if (edges && edges.length) {
  for (var i=0;i<edges.length;i++) {
    if (edges[i].id.substr(0,4)=='edge') {
      edges[i].setAttribute('class','edge');
    }
  }
}
]]></script>
        <defs>
                <circle id="rim" cx="0" cy="0" r="7"/>
                <circle id="rim2" cx="0" cy="0" r="3.5"/>
                <g id="zoomPlus">
                        <use xlink:href="#rim" fill="#404040">
                                <set attributeName="fill" to="#808080" begin="zoomplus.mouseover" end="zoomplus.mouseout"/>
                        </use>
                        <path d="M-4,0h8M0,-4v8" fill="none" stroke="white" stroke-width="1.5" pointer-events="none"/>
                </g>
                <g id="zoomMin">
                        <use xlink:href="#rim" fill="#404040">
                                <set attributeName="fill" to="#808080" begin="zoomminus.mouseover" end="zoomminus.mouseout"/>
                        </use>
                        <path d="M-4,0h8" fill="none" stroke="white" stroke-width="1.5" pointer-events="none"/>
                </g>
                <g id="dirArrow">
                        <path fill="none" stroke="white" stroke-width="1.5" d="M0,-3.0v7 M-2.5,-0.5L0,-3.0L2.5,-0.5"/>
                </g>
               <g id="resetDef">
                       <use xlink:href="#rim2" fill="#404040">
                               <set attributeName="fill" to="#808080" begin="reset.mouseover" end="reset.mouseout"/>
                       </use>
               </g>
        </defs>

<script type="text/javascript">
var viewWidth = 1385;
var viewHeight = 485;
var sectionId = 'dynsection-2';
</script>
<script xlink:href="svgpan.js"/>
<svg id="graph" class="graph">
<g id="viewport">
<title>denoptim.fragspace.APMapFinder.APMapFinder</title>
<polygon fill="white" stroke="transparent" points="-4,4 -4,-480.5 1381,-480.5 1381,4 -4,4"/>
<!-- Node1 -->
<g id="node1" class="node">
<title>Node1</title>
<g id="a_node1"><a xlink:title="Constructor that launches the search for a mapping between the AttachmentPoints on two lists.">
<polygon fill="#bfbfbf" stroke="black" points="0,-254 0,-284 136,-284 136,-254 0,-254"/>
<text text-anchor="start" x="8" y="-272" font-family="Helvetica,sans-Serif" font-size="10.00">denoptim.fragspace.APMap</text>
<text text-anchor="middle" x="68" y="-261" font-family="Helvetica,sans-Serif" font-size="10.00">Finder.APMapFinder</text>
</a>
</g>
</g>
<!-- Node2 -->
<g id="node2" class="node">
<title>Node2</title>
<g id="a_node2"><a xlink:href="classdenoptim_1_1fragspace_1_1_a_p_map_finder.html#ae5c8afa4b7defd6ce35df0fa1c5facf2" target="_top" xlink:title="Searches for mappings between the AttachmentPoints on the two lists.">
<polygon fill="white" stroke="black" points="172,-254 172,-284 308,-284 308,-254 172,-254"/>
<text text-anchor="start" x="180" y="-272" font-family="Helvetica,sans-Serif" font-size="10.00">denoptim.fragspace.APMap</text>
<text text-anchor="middle" x="240" y="-261" font-family="Helvetica,sans-Serif" font-size="10.00">Finder.findAllMappings</text>
</a>
</g>
</g>
<!-- Node1&#45;&gt;Node2 -->
<g id="edge1" class="edge">
<title>Node1&#45;&gt;Node2</title>
<path fill="none" stroke="midnightblue" d="M136.19,-269C144.5,-269 153.05,-269 161.51,-269"/>
<polygon fill="midnightblue" stroke="midnightblue" points="161.74,-272.5 171.74,-269 161.74,-265.5 161.74,-272.5"/>
</g>
<!-- Node3 -->
<g id="node3" class="node">
<title>Node3</title>
<g id="a_node3"><a xlink:href="classdenoptim_1_1graph_1_1_a_p_mapping.html#a9b9fdac59130cd95e89edd7a74e2b7c5" target="_top" xlink:title="Shallow cloning.">
<polygon fill="white" stroke="black" points="556.5,-450.5 556.5,-469.5 717.5,-469.5 717.5,-450.5 556.5,-450.5"/>
<text text-anchor="middle" x="637" y="-457.5" font-family="Helvetica,sans-Serif" font-size="10.00">denoptim.graph.APMapping.clone</text>
</a>
</g>
</g>
<!-- Node2&#45;&gt;Node3 -->
<g id="edge2" class="edge">
<title>Node2&#45;&gt;Node3</title>
<path fill="none" stroke="midnightblue" d="M248.19,-284.12C262.33,-312.07 296.53,-371.65 344,-401 404.94,-438.68 485.44,-452.86 546.48,-457.93"/>
<polygon fill="midnightblue" stroke="midnightblue" points="546.25,-461.43 556.49,-458.7 546.78,-454.45 546.25,-461.43"/>
</g>
<!-- Node5 -->
<g id="node5" class="node">
<title>Node5</title>
<g id="a_node5"><a xlink:href="classdenoptim_1_1fragspace_1_1_a_p_map_finder.html#a5868844d747acb9bd5331c760a24ff09" target="_top" xlink:title="Compares the AttachmentPoint of two lists searching for all the APs of the second list that are &quot;comp...">
<polygon fill="white" stroke="black" points="346,-254 346,-284 513,-284 513,-254 346,-254"/>
<text text-anchor="start" x="354" y="-272" font-family="Helvetica,sans-Serif" font-size="10.00">denoptim.fragspace.APMap</text>
<text text-anchor="middle" x="429.5" y="-261" font-family="Helvetica,sans-Serif" font-size="10.00">Finder.findMappingCompatibileAPs</text>
</a>
</g>
</g>
<!-- Node2&#45;&gt;Node5 -->
<g id="edge4" class="edge">
<title>Node2&#45;&gt;Node5</title>
<path fill="none" stroke="midnightblue" d="M308.16,-269C317.11,-269 326.42,-269 335.71,-269"/>
<polygon fill="midnightblue" stroke="midnightblue" points="335.77,-272.5 345.77,-269 335.77,-265.5 335.77,-272.5"/>
</g>
<!-- Node23 -->
<g id="node23" class="node">
<title>Node23</title>
<g id="a_node23"><a xlink:href="classdenoptim_1_1fragspace_1_1_fragment_space.html#a3c2e32dc6957ef866770079087cc2513" target="_top" xlink:title="Returns the program&#45;specific randomizer that is associated with this program&#45;specific fragment space.">
<polygon fill="white" stroke="black" points="357,-170 357,-200 502,-200 502,-170 357,-170"/>
<text text-anchor="start" x="365" y="-188" font-family="Helvetica,sans-Serif" font-size="10.00">denoptim.fragspace.Fragment</text>
<text text-anchor="middle" x="429.5" y="-177" font-family="Helvetica,sans-Serif" font-size="10.00">Space.getRandomizer</text>
</a>
</g>
</g>
<!-- Node2&#45;&gt;Node23 -->
<g id="edge26" class="edge">
<title>Node2&#45;&gt;Node23</title>
<path fill="none" stroke="midnightblue" d="M274.52,-253.98C305.62,-240.05 352.05,-219.25 385.8,-204.13"/>
<polygon fill="midnightblue" stroke="midnightblue" points="387.26,-207.31 394.95,-200.03 384.4,-200.92 387.26,-207.31"/>
</g>
<!-- Node25 -->
<g id="node25" class="node">
<title>Node25</title>
<g id="a_node25"><a xlink:href="classdenoptim_1_1utils_1_1_randomizer.html#a1ac7cea6bdf732a6dd69f1a83e591ed5" target="_top" xlink:title="Chooses one member among the given collection.">
<polygon fill="white" stroke="black" points="344,-50 344,-80 515,-80 515,-50 344,-50"/>
<text text-anchor="start" x="352" y="-68" font-family="Helvetica,sans-Serif" font-size="10.00">denoptim.utils.Randomizer.randomly</text>
<text text-anchor="middle" x="429.5" y="-57" font-family="Helvetica,sans-Serif" font-size="10.00">ChooseOne</text>
</a>
</g>
</g>
<!-- Node2&#45;&gt;Node25 -->
<g id="edge28" class="edge">
<title>Node2&#45;&gt;Node25</title>
<path fill="none" stroke="midnightblue" d="M254.79,-254C287.36,-218.56 369.24,-129.48 407.8,-87.52"/>
<polygon fill="midnightblue" stroke="midnightblue" points="410.5,-89.75 414.69,-80.02 405.35,-85.02 410.5,-89.75"/>
</g>
<!-- Node32 -->
<g id="node32" class="node">
<title>Node32</title>
<g id="a_node32"><a xlink:href="classdenoptim_1_1fragspace_1_1_fragment_space_utils.html#ace7d0f68e2dd6f9bedc0d019790a9036" target="_top" xlink:title="Search for all possible combinations of compatible APs.">
<polygon fill="white" stroke="black" points="355.5,-343 355.5,-373 503.5,-373 503.5,-343 355.5,-343"/>
<text text-anchor="start" x="363.5" y="-361" font-family="Helvetica,sans-Serif" font-size="10.00">denoptim.fragspace.Fragment</text>
<text text-anchor="middle" x="429.5" y="-350" font-family="Helvetica,sans-Serif" font-size="10.00">SpaceUtils.recursiveCombiner</text>
</a>
</g>
</g>
<!-- Node2&#45;&gt;Node32 -->
<g id="edge35" class="edge">
<title>Node2&#45;&gt;Node32</title>
<path fill="none" stroke="midnightblue" d="M272.81,-284.1C304.42,-299.1 353.04,-322.18 387.52,-338.55"/>
<polygon fill="midnightblue" stroke="midnightblue" points="386.32,-341.85 396.85,-342.98 389.32,-335.53 386.32,-341.85"/>
</g>
<!-- Node4 -->
<g id="node4" class="node">
<title>Node4</title>
<g id="a_node4"><a xlink:href="classdenoptim_1_1graph_1_1_a_p_mapping.html#a32d3ef2e53f9b39cfeb5661d43b39592" target="_top" xlink:title="Creates a mapping that links no pair of APs.">
<polygon fill="white" stroke="black" points="774,-446 774,-476 911,-476 911,-446 774,-446"/>
<text text-anchor="start" x="782" y="-464" font-family="Helvetica,sans-Serif" font-size="10.00">denoptim.graph.APMapping.</text>
<text text-anchor="middle" x="842.5" y="-453" font-family="Helvetica,sans-Serif" font-size="10.00">APMapping</text>
</a>
</g>
</g>
<!-- Node3&#45;&gt;Node4 -->
<g id="edge3" class="edge">
<title>Node3&#45;&gt;Node4</title>
<path fill="none" stroke="midnightblue" d="M717.55,-460.39C732.68,-460.47 748.49,-460.54 763.57,-460.62"/>
<polygon fill="midnightblue" stroke="midnightblue" points="763.85,-464.12 773.87,-460.67 763.89,-457.12 763.85,-464.12"/>
</g>
<!-- Node6 -->
<g id="node6" class="node">
<title>Node6</title>
<g id="a_node6"><a xlink:href="classdenoptim_1_1graph_1_1_attachment_point.html#a31bed4cb29f6437bf8a888a1dda3fd95" target="_top" xlink:title="Returns the Attachment Point class.">
<polygon fill="white" stroke="black" points="569.5,-401 569.5,-431 704.5,-431 704.5,-401 569.5,-401"/>
<text text-anchor="start" x="577.5" y="-419" font-family="Helvetica,sans-Serif" font-size="10.00">denoptim.graph.Attachment</text>
<text text-anchor="middle" x="637" y="-408" font-family="Helvetica,sans-Serif" font-size="10.00">Point.getAPClass</text>
</a>
</g>
</g>
<!-- Node5&#45;&gt;Node6 -->
<g id="edge5" class="edge">
<title>Node5&#45;&gt;Node6</title>
<path fill="none" stroke="midnightblue" d="M454.6,-284.09C472.62,-296.14 497.12,-314.23 515,-334 535.35,-356.5 526.76,-373.75 551,-392 553.84,-394.14 556.87,-396.09 560.02,-397.86"/>
<polygon fill="midnightblue" stroke="midnightblue" points="558.68,-401.11 569.19,-402.42 561.79,-394.84 558.68,-401.11"/>
</g>
<!-- Node7 -->
<g id="node7" class="node">
<title>Node7</title>
<g id="a_node7"><a xlink:href="classdenoptim_1_1fragspace_1_1_fragment_space.html#a6ea754cecdf39a852284d1dd2045099c" target="_top" xlink:title=" ">
<polygon fill="white" stroke="black" points="551,-352 551,-382 723,-382 723,-352 551,-352"/>
<text text-anchor="start" x="559" y="-370" font-family="Helvetica,sans-Serif" font-size="10.00">denoptim.fragspace.Fragment</text>
<text text-anchor="middle" x="637" y="-359" font-family="Helvetica,sans-Serif" font-size="10.00">Space.getAPClassOfCappingVertex</text>
</a>
</g>
</g>
<!-- Node5&#45;&gt;Node7 -->
<g id="edge6" class="edge">
<title>Node5&#45;&gt;Node7</title>
<path fill="none" stroke="midnightblue" d="M451.29,-284.24C474.56,-300.7 513.9,-326.74 551,-343 555.62,-345.02 560.46,-346.93 565.38,-348.7"/>
<polygon fill="midnightblue" stroke="midnightblue" points="564.32,-352.04 574.92,-351.96 566.59,-345.41 564.32,-352.04"/>
</g>
<!-- Node8 -->
<g id="node8" class="node">
<title>Node8</title>
<g id="a_node8"><a xlink:href="classdenoptim_1_1graph_1_1_vertex.html#a46dadb5fd30f1877db91e97ae55c2dd8" target="_top" xlink:title=" ">
<polygon fill="white" stroke="black" points="573,-303 573,-333 701,-333 701,-303 573,-303"/>
<text text-anchor="start" x="581" y="-321" font-family="Helvetica,sans-Serif" font-size="10.00">denoptim.graph.Vertex.get</text>
<text text-anchor="middle" x="637" y="-310" font-family="Helvetica,sans-Serif" font-size="10.00">BuildingBlockType</text>
</a>
</g>
</g>
<!-- Node5&#45;&gt;Node8 -->
<g id="edge7" class="edge">
<title>Node5&#45;&gt;Node8</title>
<path fill="none" stroke="midnightblue" d="M493.55,-284.03C515.55,-289.28 540.41,-295.21 563.13,-300.63"/>
<polygon fill="midnightblue" stroke="midnightblue" points="562.53,-304.08 573.07,-302.99 564.15,-297.27 562.53,-304.08"/>
</g>
<!-- Node9 -->
<g id="node9" class="node">
<title>Node9</title>
<g id="a_node9"><a xlink:href="classdenoptim_1_1graph_1_1_attachment_point.html#adfc2840f3e5126d847c8d800082f8958" target="_top" xlink:title="Gets the attachment point (AP) that is connected to this AP via the edge user or in any edge user tha...">
<polygon fill="white" stroke="black" points="564,-254 564,-284 710,-284 710,-254 564,-254"/>
<text text-anchor="start" x="572" y="-272" font-family="Helvetica,sans-Serif" font-size="10.00">denoptim.graph.Attachment</text>
<text text-anchor="middle" x="637" y="-261" font-family="Helvetica,sans-Serif" font-size="10.00">Point.getLinkedAPThroughout</text>
</a>
</g>
</g>
<!-- Node5&#45;&gt;Node9 -->
<g id="edge8" class="edge">
<title>Node5&#45;&gt;Node9</title>
<path fill="none" stroke="midnightblue" d="M513.2,-269C526.53,-269 540.33,-269 553.65,-269"/>
<polygon fill="midnightblue" stroke="midnightblue" points="553.73,-272.5 563.73,-269 553.73,-265.5 553.73,-272.5"/>
</g>
<!-- Node19 -->
<g id="node19" class="node">
<title>Node19</title>
<g id="a_node19"><a xlink:href="classdenoptim_1_1graph_1_1_attachment_point.html#ac8551521d38644f5109800b665957ee9" target="_top" xlink:title=" ">
<polygon fill="white" stroke="black" points="569.5,-205 569.5,-235 704.5,-235 704.5,-205 569.5,-205"/>
<text text-anchor="start" x="577.5" y="-223" font-family="Helvetica,sans-Serif" font-size="10.00">denoptim.graph.Attachment</text>
<text text-anchor="middle" x="637" y="-212" font-family="Helvetica,sans-Serif" font-size="10.00">Point.getOwner</text>
</a>
</g>
</g>
<!-- Node5&#45;&gt;Node19 -->
<g id="edge22" class="edge">
<title>Node5&#45;&gt;Node19</title>
<path fill="none" stroke="midnightblue" d="M493.55,-253.97C515.55,-248.72 540.41,-242.79 563.13,-237.37"/>
<polygon fill="midnightblue" stroke="midnightblue" points="564.15,-240.73 573.07,-235.01 562.53,-233.92 564.15,-240.73"/>
</g>
<!-- Node20 -->
<g id="node20" class="node">
<title>Node20</title>
<g id="a_node20"><a xlink:href="classdenoptim_1_1graph_1_1_a_p_class.html#a12ddb416c705a90f1e9bccb1b0de2749" target="_top" xlink:title="Check compatibility as defined in the compatibility matrix considering this AP as source and the othe...">
<polygon fill="white" stroke="black" points="570.5,-156 570.5,-186 703.5,-186 703.5,-156 570.5,-156"/>
<text text-anchor="start" x="578.5" y="-174" font-family="Helvetica,sans-Serif" font-size="10.00">denoptim.graph.APClass.is</text>
<text text-anchor="middle" x="637" y="-163" font-family="Helvetica,sans-Serif" font-size="10.00">CPMapCompatibleWith</text>
</a>
</g>
</g>
<!-- Node5&#45;&gt;Node20 -->
<g id="edge23" class="edge">
<title>Node5&#45;&gt;Node20</title>
<path fill="none" stroke="midnightblue" d="M451.78,-253.76C475.17,-237.59 514.3,-212.19 551,-196 556.32,-193.65 561.92,-191.46 567.61,-189.41"/>
<polygon fill="midnightblue" stroke="midnightblue" points="568.89,-192.67 577.22,-186.12 566.62,-186.05 568.89,-192.67"/>
</g>
<!-- Node22 -->
<g id="node22" class="node">
<title>Node22</title>
<g id="a_node22"><a xlink:href="classdenoptim_1_1fragspace_1_1_fragment_space.html#a47b278f84db073b1f06809f9c42cfae5" target="_top" xlink:title="Check usage of APClass&#45;based approach, i.e., uses attachment points with annotated data (i....">
<polygon fill="white" stroke="black" points="553,-107 553,-137 721,-137 721,-107 553,-107"/>
<text text-anchor="start" x="561" y="-125" font-family="Helvetica,sans-Serif" font-size="10.00">denoptim.fragspace.Fragment</text>
<text text-anchor="middle" x="637" y="-114" font-family="Helvetica,sans-Serif" font-size="10.00">Space.useAPclassBasedApproach</text>
</a>
</g>
</g>
<!-- Node5&#45;&gt;Node22 -->
<g id="edge25" class="edge">
<title>Node5&#45;&gt;Node22</title>
<path fill="none" stroke="midnightblue" d="M458.37,-253.87C476.1,-243.27 498.71,-227.83 515,-210 536.75,-186.19 525.7,-167 551,-147 553.32,-145.17 555.77,-143.47 558.32,-141.89"/>
<polygon fill="midnightblue" stroke="midnightblue" points="560.2,-144.86 567.31,-137.01 556.85,-138.71 560.2,-144.86"/>
</g>
<!-- Node10 -->
<g id="node10" class="node">
<title>Node10</title>
<g id="a_node10"><a xlink:href="classdenoptim_1_1graph_1_1_attachment_point.html#aa1ae3c328e8ea24ead206b822daca7f7" target="_top" xlink:title="Gets the edge that is using this AP, or null if no edge is using this AP.">
<polygon fill="white" stroke="black" points="769.5,-379 769.5,-409 915.5,-409 915.5,-379 769.5,-379"/>
<text text-anchor="start" x="777.5" y="-397" font-family="Helvetica,sans-Serif" font-size="10.00">denoptim.graph.Attachment</text>
<text text-anchor="middle" x="842.5" y="-386" font-family="Helvetica,sans-Serif" font-size="10.00">Point.getEdgeUserThroughout</text>
</a>
</g>
</g>
<!-- Node9&#45;&gt;Node10 -->
<g id="edge9" class="edge">
<title>Node9&#45;&gt;Node10</title>
<path fill="none" stroke="midnightblue" d="M707.72,-284.2C713.19,-286.94 718.38,-290.18 723,-294 749.96,-316.29 732.75,-340.87 759,-364 763.47,-367.94 768.5,-371.37 773.81,-374.36"/>
<polygon fill="midnightblue" stroke="midnightblue" points="772.46,-377.61 782.96,-379 775.62,-371.36 772.46,-377.61"/>
</g>
<!-- Node14 -->
<g id="node14" class="node">
<title>Node14</title>
<g id="a_node14"><a xlink:href="classdenoptim_1_1graph_1_1_attachment_point.html#a0e96f6c954de060a628eb3de1b2f4554" target="_top" xlink:title="For vertices that are templates this method returns the attachment point that is embedded in the temp...">
<polygon fill="white" stroke="black" points="989,-253 989,-283 1124,-283 1124,-253 989,-253"/>
<text text-anchor="start" x="997" y="-271" font-family="Helvetica,sans-Serif" font-size="10.00">denoptim.graph.Attachment</text>
<text text-anchor="middle" x="1056.5" y="-260" font-family="Helvetica,sans-Serif" font-size="10.00">Point.getEmbeddedAP</text>
</a>
</g>
</g>
<!-- Node9&#45;&gt;Node14 -->
<g id="edge14" class="edge">
<title>Node9&#45;&gt;Node14</title>
<path fill="none" stroke="midnightblue" d="M702.63,-284.14C709.74,-286.93 716.68,-290.19 723,-294 742.65,-305.85 737.86,-322.07 759,-331 827.38,-359.87 853.67,-347.66 926,-331 961.37,-322.85 998.27,-303.69 1023.59,-288.62"/>
<polygon fill="midnightblue" stroke="midnightblue" points="1025.64,-291.47 1032.37,-283.28 1022.01,-285.48 1025.64,-291.47"/>
</g>
<!-- Node15 -->
<g id="node15" class="node">
<title>Node15</title>
<g id="a_node15"><a xlink:href="classdenoptim_1_1graph_1_1_edge.html#a658e275a18a50f12474777f5f28c35e9" target="_top" xlink:title=" ">
<polygon fill="white" stroke="black" points="767,-302.5 767,-321.5 918,-321.5 918,-302.5 767,-302.5"/>
<text text-anchor="middle" x="842.5" y="-309.5" font-family="Helvetica,sans-Serif" font-size="10.00">denoptim.graph.Edge.getSrcAP</text>
</a>
</g>
</g>
<!-- Node9&#45;&gt;Node15 -->
<g id="edge16" class="edge">
<title>Node9&#45;&gt;Node15</title>
<path fill="none" stroke="midnightblue" d="M709.17,-284.04C734.55,-289.4 762.72,-295.35 786.52,-300.38"/>
<polygon fill="midnightblue" stroke="midnightblue" points="785.93,-303.83 796.44,-302.48 787.38,-296.99 785.93,-303.83"/>
</g>
<!-- Node16 -->
<g id="node16" class="node">
<title>Node16</title>
<g id="a_node16"><a xlink:href="classdenoptim_1_1graph_1_1_edge.html#a20a0c78541321532267b2fda0a6b634b" target="_top" xlink:title=" ">
<polygon fill="white" stroke="black" points="774,-253 774,-283 911,-283 911,-253 774,-253"/>
<text text-anchor="start" x="782" y="-271" font-family="Helvetica,sans-Serif" font-size="10.00">denoptim.graph.Edge.getSrc</text>
<text text-anchor="middle" x="842.5" y="-260" font-family="Helvetica,sans-Serif" font-size="10.00">APThroughout</text>
</a>
</g>
</g>
<!-- Node9&#45;&gt;Node16 -->
<g id="edge17" class="edge">
<title>Node9&#45;&gt;Node16</title>
<path fill="none" stroke="midnightblue" d="M710.03,-268.65C727.43,-268.56 746.09,-268.47 763.74,-268.38"/>
<polygon fill="midnightblue" stroke="midnightblue" points="764.01,-271.88 773.99,-268.33 763.98,-264.88 764.01,-271.88"/>
</g>
<!-- Node17 -->
<g id="node17" class="node">
<title>Node17</title>
<g id="a_node17"><a xlink:href="classdenoptim_1_1graph_1_1_edge.html#a44521a3ad1a83e5d0a6be227e35ceffa" target="_top" xlink:title=" ">
<polygon fill="white" stroke="black" points="767.5,-214.5 767.5,-233.5 917.5,-233.5 917.5,-214.5 767.5,-214.5"/>
<text text-anchor="middle" x="842.5" y="-221.5" font-family="Helvetica,sans-Serif" font-size="10.00">denoptim.graph.Edge.getTrgAP</text>
</a>
</g>
</g>
<!-- Node9&#45;&gt;Node17 -->
<g id="edge19" class="edge">
<title>Node9&#45;&gt;Node17</title>
<path fill="none" stroke="midnightblue" d="M706.05,-253.95C732.86,-248.02 763.18,-241.32 788.34,-235.76"/>
<polygon fill="midnightblue" stroke="midnightblue" points="789.41,-239.1 798.42,-233.53 787.9,-232.27 789.41,-239.1"/>
</g>
<!-- Node18 -->
<g id="node18" class="node">
<title>Node18</title>
<g id="a_node18"><a xlink:href="classdenoptim_1_1graph_1_1_edge.html#ae5c20718860e84083e008b5bef44e1ae" target="_top" xlink:title=" ">
<polygon fill="white" stroke="black" points="774,-165 774,-195 911,-195 911,-165 774,-165"/>
<text text-anchor="start" x="782" y="-183" font-family="Helvetica,sans-Serif" font-size="10.00">denoptim.graph.Edge.getTrg</text>
<text text-anchor="middle" x="842.5" y="-172" font-family="Helvetica,sans-Serif" font-size="10.00">APThroughout</text>
</a>
</g>
</g>
<!-- Node9&#45;&gt;Node18 -->
<g id="edge20" class="edge">
<title>Node9&#45;&gt;Node18</title>
<path fill="none" stroke="midnightblue" d="M705.42,-253.86C711.57,-251.33 717.53,-248.4 723,-245 743.31,-232.36 738.81,-217.83 759,-205 762.32,-202.89 765.82,-200.96 769.44,-199.17"/>
<polygon fill="midnightblue" stroke="midnightblue" points="770.92,-202.34 778.62,-195.06 768.06,-195.95 770.92,-202.34"/>
</g>
<!-- Node10&#45;&gt;Node10 -->
<g id="edge10" class="edge">
<title>Node10&#45;&gt;Node10</title>
<path fill="none" stroke="midnightblue" d="M806.95,-409.16C798.38,-418.56 810.23,-427.5 842.5,-427.5 862.17,-427.5 874.25,-424.18 878.75,-419.46"/>
<polygon fill="midnightblue" stroke="midnightblue" points="882.22,-418.9 878.05,-409.16 875.23,-419.37 882.22,-418.9"/>
</g>
<!-- Node11 -->
<g id="node11" class="node">
<title>Node11</title>
<g id="a_node11"><a xlink:href="classdenoptim_1_1graph_1_1_vertex.html#a6615f1c869173b8bd6d730c6683b9de4" target="_top" xlink:title="Returns the graph this vertex belongs to or null.">
<polygon fill="white" stroke="black" points="992.5,-403 992.5,-433 1120.5,-433 1120.5,-403 992.5,-403"/>
<text text-anchor="start" x="1000.5" y="-421" font-family="Helvetica,sans-Serif" font-size="10.00">denoptim.graph.Vertex.get</text>
<text text-anchor="middle" x="1056.5" y="-410" font-family="Helvetica,sans-Serif" font-size="10.00">GraphOwner</text>
</a>
</g>
</g>
<!-- Node10&#45;&gt;Node11 -->
<g id="edge11" class="edge">
<title>Node10&#45;&gt;Node11</title>
<path fill="none" stroke="midnightblue" d="M915.57,-402.16C937.12,-404.6 960.77,-407.28 982.39,-409.72"/>
<polygon fill="midnightblue" stroke="midnightblue" points="982.16,-413.22 992.49,-410.87 982.95,-406.26 982.16,-413.22"/>
</g>
<!-- Node12 -->
<g id="node12" class="node">
<title>Node12</title>
<g id="a_node12"><a xlink:href="classdenoptim_1_1graph_1_1_template.html#aca9a03a1d6e2fd5de8f859f18996ec62" target="_top" xlink:title=" ">
<polygon fill="white" stroke="black" points="986,-354 986,-384 1127,-384 1127,-354 986,-354"/>
<text text-anchor="start" x="994" y="-372" font-family="Helvetica,sans-Serif" font-size="10.00">denoptim.graph.Template.get</text>
<text text-anchor="middle" x="1056.5" y="-361" font-family="Helvetica,sans-Serif" font-size="10.00">OuterAPFromInnerAP</text>
</a>
</g>
</g>
<!-- Node10&#45;&gt;Node12 -->
<g id="edge12" class="edge">
<title>Node10&#45;&gt;Node12</title>
<path fill="none" stroke="midnightblue" d="M915.57,-385.5C934.89,-383.22 955.89,-380.75 975.6,-378.42"/>
<polygon fill="midnightblue" stroke="midnightblue" points="976.26,-381.87 985.78,-377.22 975.44,-374.92 976.26,-381.87"/>
</g>
<!-- Node13 -->
<g id="node13" class="node">
<title>Node13</title>
<g id="a_node13"><a xlink:href="classdenoptim_1_1graph_1_1_a_p_tree_map.html#abb77efcfaa507592758e7fd4845bdd80" target="_top" xlink:title=" ">
<polygon fill="white" stroke="black" points="1206,-359.5 1206,-378.5 1358,-378.5 1358,-359.5 1206,-359.5"/>
<text text-anchor="middle" x="1282" y="-366.5" font-family="Helvetica,sans-Serif" font-size="10.00">denoptim.graph.APTreeMap.get</text>
</a>
</g>
</g>
<!-- Node12&#45;&gt;Node13 -->
<g id="edge13" class="edge">
<title>Node12&#45;&gt;Node13</title>
<path fill="none" stroke="midnightblue" d="M1127.3,-369C1148.96,-369 1173.07,-369 1195.66,-369"/>
<polygon fill="midnightblue" stroke="midnightblue" points="1195.92,-372.5 1205.92,-369 1195.92,-365.5 1195.92,-372.5"/>
</g>
<!-- Node14&#45;&gt;Node14 -->
<g id="edge15" class="edge">
<title>Node14&#45;&gt;Node14</title>
<path fill="none" stroke="midnightblue" d="M1019.21,-283.16C1010.21,-292.56 1022.64,-301.5 1056.5,-301.5 1077.13,-301.5 1089.81,-298.18 1094.53,-293.46"/>
<polygon fill="midnightblue" stroke="midnightblue" points="1097.99,-292.89 1093.79,-283.16 1091.01,-293.38 1097.99,-292.89"/>
</g>
<!-- Node16&#45;&gt;Node14 -->
<g id="edge18" class="edge">
<title>Node16&#45;&gt;Node14</title>
<path fill="none" stroke="midnightblue" d="M911.16,-268C932.7,-268 956.69,-268 978.82,-268"/>
<polygon fill="midnightblue" stroke="midnightblue" points="978.84,-271.5 988.84,-268 978.84,-264.5 978.84,-271.5"/>
</g>
<!-- Node18&#45;&gt;Node14 -->
<g id="edge21" class="edge">
<title>Node18&#45;&gt;Node14</title>
<path fill="none" stroke="midnightblue" d="M897.62,-195.06C907.17,-198.09 916.94,-201.45 926,-205 958.13,-217.59 993.27,-234.92 1018.82,-248.22"/>
<polygon fill="midnightblue" stroke="midnightblue" points="1017.3,-251.38 1027.78,-252.92 1020.55,-245.18 1017.3,-251.38"/>
</g>
<!-- Node21 -->
<g id="node21" class="node">
<title>Node21</title>
<g id="a_node21"><a xlink:href="classdenoptim_1_1fragspace_1_1_fragment_space.html#ada04f68d55f8ff85345e2a6c6d1ad840" target="_top" xlink:title="Returns a list of APClasses compatible with the given APClass.">
<polygon fill="white" stroke="black" points="763.5,-116 763.5,-146 921.5,-146 921.5,-116 763.5,-116"/>
<text text-anchor="start" x="771.5" y="-134" font-family="Helvetica,sans-Serif" font-size="10.00">denoptim.fragspace.Fragment</text>
<text text-anchor="middle" x="842.5" y="-123" font-family="Helvetica,sans-Serif" font-size="10.00">Space.getCompatibleAPClasses</text>
</a>
</g>
</g>
<!-- Node20&#45;&gt;Node21 -->
<g id="edge24" class="edge">
<title>Node20&#45;&gt;Node21</title>
<path fill="none" stroke="midnightblue" d="M703.51,-158.12C719.92,-154.9 737.79,-151.39 755.05,-147.99"/>
<polygon fill="midnightblue" stroke="midnightblue" points="755.99,-151.38 765.12,-146.01 754.64,-144.51 755.99,-151.38"/>
</g>
<!-- Node24 -->
<g id="node24" class="node">
<title>Node24</title>
<g id="a_node24"><a xlink:href="classdenoptim_1_1programs_1_1_run_time_parameters.html#ad9db6420b91ff13e0a8b2d02402c0242" target="_top" xlink:title="Returns the current program&#45;specific randomizer.">
<polygon fill="white" stroke="black" points="567,-58 567,-88 707,-88 707,-58 567,-58"/>
<text text-anchor="start" x="575" y="-76" font-family="Helvetica,sans-Serif" font-size="10.00">denoptim.programs.RunTime</text>
<text text-anchor="middle" x="637" y="-65" font-family="Helvetica,sans-Serif" font-size="10.00">Parameters.getRandomizer</text>
</a>
</g>
</g>
<!-- Node23&#45;&gt;Node24 -->
<g id="edge27" class="edge">
<title>Node23&#45;&gt;Node24</title>
<path fill="none" stroke="midnightblue" d="M447.65,-169.69C469.98,-150.47 510.92,-117.64 551,-98 555.63,-95.73 560.5,-93.63 565.48,-91.69"/>
<polygon fill="midnightblue" stroke="midnightblue" points="566.95,-94.87 575.13,-88.15 564.54,-88.3 566.95,-94.87"/>
</g>
<!-- Node26 -->
<g id="node26" class="node">
<title>Node26</title>
<g id="a_node26"><a xlink:href="classdenoptim_1_1utils_1_1_randomizer.html#a6949bec32b63f1207da17e0c136a1d58" target="_top" xlink:title="Returns a pseudo&#45;random, uniformly distributed int value between 0 (inclusive) and the specified valu...">
<polygon fill="white" stroke="black" points="556.5,-19.5 556.5,-38.5 717.5,-38.5 717.5,-19.5 556.5,-19.5"/>
<text text-anchor="middle" x="637" y="-26.5" font-family="Helvetica,sans-Serif" font-size="10.00">denoptim.utils.Randomizer.nextInt</text>
</a>
</g>
</g>
<!-- Node25&#45;&gt;Node26 -->
<g id="edge29" class="edge">
<title>Node25&#45;&gt;Node26</title>
<path fill="none" stroke="midnightblue" d="M515.27,-50.15C534.03,-46.86 553.62,-43.43 571.42,-40.31"/>
<polygon fill="midnightblue" stroke="midnightblue" points="572.44,-43.69 581.68,-38.52 571.23,-36.79 572.44,-43.69"/>
</g>
<!-- Node27 -->
<g id="node27" class="node">
<title>Node27</title>
<g id="a_node27"><a xlink:href="classdenoptim_1_1utils_1_1_randomizer.html#a6873dd710cc271ed81bfa45411a62359" target="_top" xlink:title="Returns the random number generator.">
<polygon fill="white" stroke="black" points="759,-38.5 759,-57.5 926,-57.5 926,-38.5 759,-38.5"/>
<text text-anchor="middle" x="842.5" y="-45.5" font-family="Helvetica,sans-Serif" font-size="10.00">denoptim.utils.Randomizer.getRNG</text>
</a>
</g>
</g>
<!-- Node26&#45;&gt;Node27 -->
<g id="edge30" class="edge">
<title>Node26&#45;&gt;Node27</title>
<path fill="none" stroke="midnightblue" d="M717.55,-36.43C727.86,-37.39 738.48,-38.38 748.98,-39.36"/>
<polygon fill="midnightblue" stroke="midnightblue" points="748.7,-42.85 758.98,-40.3 749.35,-35.88 748.7,-42.85"/>
</g>
<!-- Node30 -->
<g id="node30" class="node">
<title>Node30</title>
<g id="a_node30"><a xlink:href="classdenoptim_1_1utils_1_1_randomizer.html#acaa5e386da195d9454fae611ed554c48" target="_top" xlink:title="Utility to debug: writes some log in file &#39;/tmp/rng_debug_log&#39;.">
<polygon fill="white" stroke="black" points="767,-0.5 767,-19.5 918,-19.5 918,-0.5 767,-0.5"/>
<text text-anchor="middle" x="842.5" y="-7.5" font-family="Helvetica,sans-Serif" font-size="10.00">denoptim.utils.Randomizer.print</text>
</a>
</g>
</g>
<!-- Node26&#45;&gt;Node30 -->
<g id="edge33" class="edge">
<title>Node26&#45;&gt;Node30</title>
<path fill="none" stroke="midnightblue" d="M717.55,-21.57C730.4,-20.37 743.73,-19.13 756.69,-17.92"/>
<polygon fill="midnightblue" stroke="midnightblue" points="757.36,-21.37 766.99,-16.96 756.71,-14.4 757.36,-21.37"/>
</g>
<!-- Node28 -->
<g id="node28" class="node">
<title>Node28</title>
<g id="a_node28"><a xlink:href="classdenoptim_1_1utils_1_1_randomizer.html#aaaeda6dedda5664a47a2a9a68194162a" target="_top" xlink:title="Initializes this random number generator (RNG) using a random seed that is generated on&#45;the&#45;fly rando...">
<polygon fill="white" stroke="black" points="962,-38.5 962,-57.5 1151,-57.5 1151,-38.5 962,-38.5"/>
<text text-anchor="middle" x="1056.5" y="-45.5" font-family="Helvetica,sans-Serif" font-size="10.00">denoptim.utils.Randomizer.initialiseRNG</text>
</a>
</g>
</g>
<!-- Node27&#45;&gt;Node28 -->
<g id="edge31" class="edge">
<title>Node27&#45;&gt;Node28</title>
<path fill="none" stroke="midnightblue" d="M926.07,-48C934.51,-48 943.16,-48 951.79,-48"/>
<polygon fill="midnightblue" stroke="midnightblue" points="951.89,-51.5 961.89,-48 951.89,-44.5 951.89,-51.5"/>
</g>
<!-- Node29 -->
<g id="node29" class="node">
<title>Node29</title>
<g id="a_node29"><a xlink:href="classdenoptim_1_1utils_1_1_randomizer.html#ad74f0608d3e2e10caa8873ae059367a7" target="_top" xlink:title=" ">
<polygon fill="white" stroke="black" points="1187,-38.5 1187,-57.5 1377,-57.5 1377,-38.5 1187,-38.5"/>
<text text-anchor="middle" x="1282" y="-45.5" font-family="Helvetica,sans-Serif" font-size="10.00">denoptim.utils.Randomizer.initialiseSeed</text>
</a>
</g>
</g>
<!-- Node28&#45;&gt;Node29 -->
<g id="edge32" class="edge">
<title>Node28&#45;&gt;Node29</title>
<path fill="none" stroke="midnightblue" d="M1151.31,-48C1159.64,-48 1168.09,-48 1176.5,-48"/>
<polygon fill="midnightblue" stroke="midnightblue" points="1176.71,-51.5 1186.71,-48 1176.71,-44.5 1176.71,-51.5"/>
</g>
<!-- Node31 -->
<g id="node31" class="node">
<title>Node31</title>
<g id="a_node31"><a xlink:href="classdenoptim_1_1io_1_1_denoptim_i_o.html#adc7de175de66792f4f37f1661c10e7f8" target="_top" xlink:title="Write text&#45;like data file.">
<polygon fill="white" stroke="black" points="974.5,-0.5 974.5,-19.5 1138.5,-19.5 1138.5,-0.5 974.5,-0.5"/>
<text text-anchor="middle" x="1056.5" y="-7.5" font-family="Helvetica,sans-Serif" font-size="10.00">denoptim.io.DenoptimIO.writeData</text>
</a>
</g>
</g>
<!-- Node30&#45;&gt;Node31 -->
<g id="edge34" class="edge">
<title>Node30&#45;&gt;Node31</title>
<path fill="none" stroke="midnightblue" d="M918.24,-10C933.11,-10 948.87,-10 964.22,-10"/>
<polygon fill="midnightblue" stroke="midnightblue" points="964.23,-13.5 974.23,-10 964.23,-6.5 964.23,-13.5"/>
</g>
<!-- Node32&#45;&gt;Node3 -->
<g id="edge36" class="edge">
<title>Node32&#45;&gt;Node3</title>
<path fill="none" stroke="midnightblue" d="M447.97,-373.3C470.33,-392.06 510.96,-423.52 551,-441 556.73,-443.5 562.83,-445.69 569.02,-447.6"/>
<polygon fill="midnightblue" stroke="midnightblue" points="568.22,-451.01 578.8,-450.38 570.14,-444.28 568.22,-451.01"/>
</g>
<!-- Node32&#45;&gt;Node32 -->
<g id="edge37" class="edge">
<title>Node32&#45;&gt;Node32</title>
<path fill="none" stroke="midnightblue" d="M396.74,-373.16C388.84,-382.56 399.76,-391.5 429.5,-391.5 447.62,-391.5 458.76,-388.18 462.91,-383.46"/>
<polygon fill="midnightblue" stroke="midnightblue" points="466.38,-382.92 462.26,-373.16 459.39,-383.36 466.38,-382.92"/>
</g>
</g>
</svg>
        <g id="navigator" transform="translate(0 0)" fill="#404254">
                <rect fill="#f2f5e9" fill-opacity="0.5" stroke="#606060" stroke-width=".5" x="0" y="0" width="60" height="60"/>
                <use id="zoomplus" xlink:href="#zoomPlus" x="17" y="9" onmousedown="handleZoom(evt,'in')"/>
                <use id="zoomminus" xlink:href="#zoomMin" x="42" y="9" onmousedown="handleZoom(evt,'out')"/>
                <use id="reset" xlink:href="#resetDef" x="30" y="36" onmousedown="handleReset()"/>
                <g id="arrowUp" xlink:href="#dirArrow" transform="translate(30 24)" onmousedown="handlePan(0,-1)">
                  <use xlink:href="#rim" fill="#404040">
                        <set attributeName="fill" to="#808080" begin="arrowUp.mouseover" end="arrowUp.mouseout"/>
                  </use>
                  <path fill="none" stroke="white" stroke-width="1.5" d="M0,-3.0v7 M-2.5,-0.5L0,-3.0L2.5,-0.5"/>
                </g>
                <g id="arrowRight" xlink:href="#dirArrow" transform="rotate(90) translate(36 -43)" onmousedown="handlePan(1,0)">
                  <use xlink:href="#rim" fill="#404040">
                        <set attributeName="fill" to="#808080" begin="arrowRight.mouseover" end="arrowRight.mouseout"/>
                  </use>
                  <path fill="none" stroke="white" stroke-width="1.5" d="M0,-3.0v7 M-2.5,-0.5L0,-3.0L2.5,-0.5"/>
                </g>
                <g id="arrowDown" xlink:href="#dirArrow" transform="rotate(180) translate(-30 -48)" onmousedown="handlePan(0,1)">
                  <use xlink:href="#rim" fill="#404040">
                        <set attributeName="fill" to="#808080" begin="arrowDown.mouseover" end="arrowDown.mouseout"/>
                  </use>
                  <path fill="none" stroke="white" stroke-width="1.5" d="M0,-3.0v7 M-2.5,-0.5L0,-3.0L2.5,-0.5"/>
                </g>
                <g id="arrowLeft" xlink:href="#dirArrow" transform="rotate(270) translate(-36 17)" onmousedown="handlePan(-1,0)">
                  <use xlink:href="#rim" fill="#404040">
                        <set attributeName="fill" to="#808080" begin="arrowLeft.mouseover" end="arrowLeft.mouseout"/>
                  </use>
                  <path fill="none" stroke="white" stroke-width="1.5" d="M0,-3.0v7 M-2.5,-0.5L0,-3.0L2.5,-0.5"/>
                </g>
        </g>
        <svg viewBox="0 0 15 15" width="100%" height="30px" preserveAspectRatio="xMaxYMin meet">
         <g id="arrow_out" transform="scale(0.3 0.3)">
          <a xlink:href="classdenoptim_1_1fragspace_1_1_a_p_map_finder_a5522ad312362eade62aa23cdc407b400_cgraph_org.svg" target="_base">
           <rect id="button" ry="5" rx="5" y="6" x="6" height="38" width="38"
                fill="#f2f5e9" fill-opacity="0.5" stroke="#606060" stroke-width="1.0"/>
           <path id="arrow"
             d="M 11.500037,31.436501 C 11.940474,20.09759 22.043105,11.32322 32.158766,21.979434 L 37.068811,17.246167 C 37.068811,17.246167 37.088388,32 37.088388,32 L 22.160133,31.978069 C 22.160133,31.978069 26.997745,27.140456 26.997745,27.140456 C 18.528582,18.264221 13.291696,25.230495 11.500037,31.436501 z"
             style="fill:#404040;"/>
          </a>
         </g>
        </svg>
</svg>
