<?xml version="1.0" encoding="UTF-8" standalone="no"?>
<!DOCTYPE svg PUBLIC "-//W3C//DTD SVG 1.1//EN"
 "http://www.w3.org/Graphics/SVG/1.1/DTD/svg11.dtd">
<!-- Generated by graphviz version 3.0.0 (20221109.1736)
 -->
<!-- Title: denoptim.fragspace.FragmentSpace.getCompatibleAPClasses Pages: 1 -->
<!--zoomable 526 -->
<svg id="main" version="1.1" xmlns="http://www.w3.org/2000/svg" xmlns:xlink="http://www.w3.org/1999/xlink" xml:space="preserve" onload="init(evt)">
<style type="text/css"><![CDATA[
.edge:hover path { stroke: red; }
.edge:hover polygon { stroke: red; fill: red; }
]]></style>
<script type="text/javascript"><![CDATA[
var edges = document.getElementsByTagName('g');
if (edges && edges.length) {
  for (var i=0;i<edges.length;i++) {
    if (edges[i].id.substr(0,4)=='edge') {
      edges[i].setAttribute('class','edge');
    }
  }
}
]]></script>
        <defs>
                <circle id="rim" cx="0" cy="0" r="7"/>
                <circle id="rim2" cx="0" cy="0" r="3.5"/>
                <g id="zoomPlus">
                        <use xlink:href="#rim" fill="#404040">
                                <set attributeName="fill" to="#808080" begin="zoomplus.mouseover" end="zoomplus.mouseout"/>
                        </use>
                        <path d="M-4,0h8M0,-4v8" fill="none" stroke="white" stroke-width="1.5" pointer-events="none"/>
                </g>
                <g id="zoomMin">
                        <use xlink:href="#rim" fill="#404040">
                                <set attributeName="fill" to="#808080" begin="zoomminus.mouseover" end="zoomminus.mouseout"/>
                        </use>
                        <path d="M-4,0h8" fill="none" stroke="white" stroke-width="1.5" pointer-events="none"/>
                </g>
                <g id="dirArrow">
                        <path fill="none" stroke="white" stroke-width="1.5" d="M0,-3.0v7 M-2.5,-0.5L0,-3.0L2.5,-0.5"/>
                </g>
               <g id="resetDef">
                       <use xlink:href="#rim2" fill="#404040">
                               <set attributeName="fill" to="#808080" begin="reset.mouseover" end="reset.mouseout"/>
                       </use>
               </g>
        </defs>

<script type="text/javascript">
var viewWidth = 1518;
var viewHeight = 526;
var sectionId = 'dynsection-30';
</script>
<script xlink:href="svgpan.js"/>
<svg id="graph" class="graph">
<g id="viewport">
<title>denoptim.fragspace.FragmentSpace.getCompatibleAPClasses</title>
<polygon fill="white" stroke="transparent" points="-4,4 -4,-522 1514,-522 1514,4 -4,4"/>
<!-- Node1 -->
<g id="node1" class="node">
<title>Node1</title>
<g id="a_node1"><a xlink:title="Returns a list of APClasses compatible with the given APClass.">
<polygon fill="#bfbfbf" stroke="black" points="1352,-379.5 1352,-409.5 1510,-409.5 1510,-379.5 1352,-379.5"/>
<text text-anchor="start" x="1360" y="-397.5" font-family="Helvetica,sans-Serif" font-size="10.00">denoptim.fragspace.Fragment</text>
<text text-anchor="middle" x="1431" y="-386.5" font-family="Helvetica,sans-Serif" font-size="10.00">Space.getCompatibleAPClasses</text>
</a>
</g>
</g>
<!-- Node2 -->
<g id="node2" class="node">
<title>Node2</title>
<g id="a_node2"><a xlink:href="classdenoptim_1_1fragspace_1_1_fragment_space.html#a3f42642bd3f959930cc52829daf9601b" target="_top" xlink:title="Returns the list of attachment points found in the fragment space and that are compatible with a give...">
<polygon fill="white" stroke="black" points="1134.5,-457.5 1134.5,-487.5 1306.5,-487.5 1306.5,-457.5 1134.5,-457.5"/>
<text text-anchor="start" x="1142.5" y="-475.5" font-family="Helvetica,sans-Serif" font-size="10.00">denoptim.fragspace.Fragment</text>
<text text-anchor="middle" x="1220.5" y="-464.5" font-family="Helvetica,sans-Serif" font-size="10.00">Space.getAPsCompatibleWithClass</text>
</a>
</g>
</g>
<!-- Node1&#45;&gt;Node2 -->
<g id="edge1" class="edge">
<title>Node1&#45;&gt;Node2</title>
<path fill="none" stroke="midnightblue" d="M1380.41,-413.05C1344.22,-426.59 1295.78,-444.71 1261.93,-457.37"/>
<polygon fill="midnightblue" stroke="midnightblue" points="1381.66,-416.32 1389.8,-409.54 1379.21,-409.76 1381.66,-416.32"/>
</g>
<!-- Node8 -->
<g id="node8" class="node">
<title>Node8</title>
<g id="a_node8"><a xlink:href="classdenoptim_1_1fragspace_1_1_fragment_space.html#aaaa217589db4cadd603478f2026a0480" target="_top" xlink:title="Returns the list of attachment points found in the fragment space and that are compatible with a give...">
<polygon fill="white" stroke="black" points="1125,-379.5 1125,-409.5 1316,-409.5 1316,-379.5 1125,-379.5"/>
<text text-anchor="start" x="1133" y="-397.5" font-family="Helvetica,sans-Serif" font-size="10.00">denoptim.fragspace.Fragment</text>
<text text-anchor="middle" x="1220.5" y="-386.5" font-family="Helvetica,sans-Serif" font-size="10.00">Space.getFragAPsCompatibleWithClass</text>
</a>
</g>
</g>
<!-- Node1&#45;&gt;Node8 -->
<g id="edge7" class="edge">
<title>Node1&#45;&gt;Node8</title>
<path fill="none" stroke="midnightblue" d="M1341.65,-394.5C1333.28,-394.5 1324.78,-394.5 1316.36,-394.5"/>
<polygon fill="midnightblue" stroke="midnightblue" points="1341.77,-398 1351.77,-394.5 1341.77,-391 1341.77,-398"/>
</g>
<!-- Node15 -->
<g id="node15" class="node">
<title>Node15</title>
<g id="a_node15"><a xlink:href="classdenoptim_1_1graph_1_1_a_p_class.html#a12ddb416c705a90f1e9bccb1b0de2749" target="_top" xlink:title="Check compatibility as defined in the compatibility matrix considering this AP as source and the othe...">
<polygon fill="white" stroke="black" points="1154,-208.5 1154,-238.5 1287,-238.5 1287,-208.5 1154,-208.5"/>
<text text-anchor="start" x="1162" y="-226.5" font-family="Helvetica,sans-Serif" font-size="10.00">denoptim.graph.APClass.is</text>
<text text-anchor="middle" x="1220.5" y="-215.5" font-family="Helvetica,sans-Serif" font-size="10.00">CPMapCompatibleWith</text>
</a>
</g>
</g>
<!-- Node1&#45;&gt;Node15 -->
<g id="edge14" class="edge">
<title>Node1&#45;&gt;Node15</title>
<path fill="none" stroke="midnightblue" d="M1403.75,-372.97C1360.93,-337.85 1277.1,-269.1 1239.96,-238.64"/>
<polygon fill="midnightblue" stroke="midnightblue" points="1401.55,-375.69 1411.5,-379.32 1405.98,-370.28 1401.55,-375.69"/>
</g>
<!-- Node3 -->
<g id="node3" class="node">
<title>Node3</title>
<g id="a_node3"><a xlink:href="classdenoptim_1_1fragspace_1_1_fragment_space.html#a4e752fe6501b10df944b5e8757e40b76" target="_top" xlink:title="Searches for all attachment points that are compatible with the given list of attachment points.">
<polygon fill="white" stroke="black" points="896,-487.5 896,-517.5 1070,-517.5 1070,-487.5 896,-487.5"/>
<text text-anchor="start" x="904" y="-505.5" font-family="Helvetica,sans-Serif" font-size="10.00">denoptim.fragspace.Fragment</text>
<text text-anchor="middle" x="983" y="-494.5" font-family="Helvetica,sans-Serif" font-size="10.00">Space.getAPsCompatibleWithThese</text>
</a>
</g>
</g>
<!-- Node2&#45;&gt;Node3 -->
<g id="edge2" class="edge">
<title>Node2&#45;&gt;Node3</title>
<path fill="none" stroke="midnightblue" d="M1124.31,-484.63C1106.38,-486.91 1087.72,-489.29 1070.08,-491.53"/>
<polygon fill="midnightblue" stroke="midnightblue" points="1125,-488.07 1134.48,-483.33 1124.12,-481.12 1125,-488.07"/>
</g>
<!-- Node4 -->
<g id="node4" class="node">
<title>Node4</title>
<g id="a_node4"><a xlink:href="classdenoptim_1_1gui_1_1_g_u_i_graph_handler.html#aa7b55edfa43892851d9e21b870daa2bb" target="_top" xlink:title=" ">
<polygon fill="white" stroke="black" points="644,-487.5 644,-517.5 841,-517.5 841,-487.5 644,-487.5"/>
<text text-anchor="start" x="652" y="-505.5" font-family="Helvetica,sans-Serif" font-size="10.00">denoptim.gui.GUIGraphHandler.collect</text>
<text text-anchor="middle" x="742.5" y="-494.5" font-family="Helvetica,sans-Serif" font-size="10.00">FragAndAPsCompatibleWithSelectedAPs</text>
</a>
</g>
</g>
<!-- Node3&#45;&gt;Node4 -->
<g id="edge3" class="edge">
<title>Node3&#45;&gt;Node4</title>
<path fill="none" stroke="midnightblue" d="M885.81,-502.5C871.12,-502.5 855.94,-502.5 841.22,-502.5"/>
<polygon fill="midnightblue" stroke="midnightblue" points="885.9,-506 895.9,-502.5 885.9,-499 885.9,-506"/>
</g>
<!-- Node5 -->
<g id="node5" class="node">
<title>Node5</title>
<g id="a_node5"><a xlink:href="classdenoptim_1_1gui_1_1_g_u_i_graph_handler.html#a44e2ff798d22b73f966cb8393ceb4f18" target="_top" xlink:title="Extends the current graph by appending a node to a specific free AP on the growing graph.">
<polygon fill="white" stroke="black" points="420,-487.5 420,-517.5 602,-517.5 602,-487.5 420,-487.5"/>
<text text-anchor="start" x="428" y="-505.5" font-family="Helvetica,sans-Serif" font-size="10.00">denoptim.gui.GUIGraphHandler.extend</text>
<text text-anchor="middle" x="511" y="-494.5" font-family="Helvetica,sans-Serif" font-size="10.00">GraphFromFragSpace</text>
</a>
</g>
</g>
<!-- Node4&#45;&gt;Node5 -->
<g id="edge4" class="edge">
<title>Node4&#45;&gt;Node5</title>
<path fill="none" stroke="midnightblue" d="M633.77,-502.5C623.24,-502.5 612.63,-502.5 602.29,-502.5"/>
<polygon fill="midnightblue" stroke="midnightblue" points="633.84,-506 643.84,-502.5 633.84,-499 633.84,-506"/>
</g>
<!-- Node6 -->
<g id="node6" class="node">
<title>Node6</title>
<g id="a_node6"><a xlink:href="classdenoptim_1_1gui_1_1_g_u_i_graph_handler.html#af5b000c105018cbd7c262b34f9750044" target="_top" xlink:title="Initialize the panel and add buttons.">
<polygon fill="white" stroke="black" points="190,-493 190,-512 378,-512 378,-493 190,-493"/>
<text text-anchor="middle" x="284" y="-500" font-family="Helvetica,sans-Serif" font-size="10.00">denoptim.gui.GUIGraphHandler.initialize</text>
</a>
</g>
</g>
<!-- Node5&#45;&gt;Node6 -->
<g id="edge5" class="edge">
<title>Node5&#45;&gt;Node6</title>
<path fill="none" stroke="midnightblue" d="M409.76,-502.5C399.26,-502.5 388.6,-502.5 378.18,-502.5"/>
<polygon fill="midnightblue" stroke="midnightblue" points="409.78,-506 419.78,-502.5 409.78,-499 409.78,-506"/>
</g>
<!-- Node7 -->
<g id="node7" class="node">
<title>Node7</title>
<g id="a_node7"><a xlink:href="classdenoptim_1_1gui_1_1_g_u_i_graph_handler.html#ab7d010d9a384f6b85edce47c95d6723b" target="_top" xlink:title="Constructor.">
<polygon fill="white" stroke="black" points="0,-487.5 0,-517.5 154,-517.5 154,-487.5 0,-487.5"/>
<text text-anchor="start" x="8" y="-505.5" font-family="Helvetica,sans-Serif" font-size="10.00">denoptim.gui.GUIGraphHandler.</text>
<text text-anchor="middle" x="77" y="-494.5" font-family="Helvetica,sans-Serif" font-size="10.00">GUIGraphHandler</text>
</a>
</g>
</g>
<!-- Node6&#45;&gt;Node7 -->
<g id="edge6" class="edge">
<title>Node6&#45;&gt;Node7</title>
<path fill="none" stroke="midnightblue" d="M179.69,-502.5C171.07,-502.5 162.45,-502.5 154.09,-502.5"/>
<polygon fill="midnightblue" stroke="midnightblue" points="179.8,-506 189.8,-502.5 179.8,-499 179.8,-506"/>
</g>
<!-- Node9 -->
<g id="node9" class="node">
<title>Node9</title>
<g id="a_node9"><a xlink:href="classdenoptim_1_1fragspace_1_1_frags_combination_iterator.html#afa4835767d37078abce9e3fbe5fa16e1" target="_top" xlink:title="Constructs a new factory for generating all the combination of fragments that can be attached on a gi...">
<polygon fill="white" stroke="black" points="892,-428 892,-469 1074,-469 1074,-428 892,-428"/>
<text text-anchor="start" x="900" y="-457" font-family="Helvetica,sans-Serif" font-size="10.00">denoptim.fragspace.Frags</text>
<text text-anchor="start" x="900" y="-446" font-family="Helvetica,sans-Serif" font-size="10.00">CombinationIterator.FragsCombination</text>
<text text-anchor="middle" x="983" y="-435" font-family="Helvetica,sans-Serif" font-size="10.00">Iterator</text>
</a>
</g>
</g>
<!-- Node8&#45;&gt;Node9 -->
<g id="edge8" class="edge">
<title>Node8&#45;&gt;Node9</title>
<path fill="none" stroke="midnightblue" d="M1144.09,-411.79C1121.6,-416.95 1096.74,-422.65 1073.45,-427.99"/>
<polygon fill="midnightblue" stroke="midnightblue" points="1144.94,-415.19 1153.9,-409.54 1143.37,-408.37 1144.94,-415.19"/>
</g>
<!-- Node10 -->
<g id="node10" class="node">
<title>Node10</title>
<g id="a_node10"><a xlink:href="classdenoptim_1_1fragspace_1_1_fragment_space.html#a2dca1b8ac952e62a5b5aa1f961334a01" target="_top" xlink:title="Searches for all APs that are compatible with the given list of APs.">
<polygon fill="white" stroke="black" points="877,-379.5 877,-409.5 1089,-409.5 1089,-379.5 877,-379.5"/>
<text text-anchor="start" x="885" y="-397.5" font-family="Helvetica,sans-Serif" font-size="10.00">denoptim.fragspace.Fragment</text>
<text text-anchor="middle" x="983" y="-386.5" font-family="Helvetica,sans-Serif" font-size="10.00">Space.getFragAPsCompatibleWithTheseAPs</text>
</a>
</g>
</g>
<!-- Node8&#45;&gt;Node10 -->
<g id="edge9" class="edge">
<title>Node8&#45;&gt;Node10</title>
<path fill="none" stroke="midnightblue" d="M1114.58,-394.5C1106.21,-394.5 1097.75,-394.5 1089.38,-394.5"/>
<polygon fill="midnightblue" stroke="midnightblue" points="1114.73,-398 1124.73,-394.5 1114.73,-391 1114.73,-398"/>
</g>
<!-- Node14 -->
<g id="node14" class="node">
<title>Node14</title>
<g id="a_node14"><a xlink:href="classdenoptim_1_1fragspace_1_1_fragment_space_test.html#ae884d9d970bc9d561dad00bf0c20b4b5" target="_top" xlink:title=" ">
<polygon fill="white" stroke="black" points="890.5,-320 890.5,-361 1075.5,-361 1075.5,-320 890.5,-320"/>
<text text-anchor="start" x="898.5" y="-349" font-family="Helvetica,sans-Serif" font-size="10.00">denoptim.fragspace.Fragment</text>
<text text-anchor="start" x="898.5" y="-338" font-family="Helvetica,sans-Serif" font-size="10.00">SpaceTest.testGetFragAPsCompatible</text>
<text text-anchor="middle" x="983" y="-327" font-family="Helvetica,sans-Serif" font-size="10.00">WithClass</text>
</a>
</g>
</g>
<!-- Node8&#45;&gt;Node14 -->
<g id="edge13" class="edge">
<title>Node8&#45;&gt;Node14</title>
<path fill="none" stroke="midnightblue" d="M1144.09,-377.21C1121.6,-372.05 1096.74,-366.35 1073.45,-361.01"/>
<polygon fill="midnightblue" stroke="midnightblue" points="1143.37,-380.63 1153.9,-379.46 1144.94,-373.81 1143.37,-380.63"/>
</g>
<!-- Node11 -->
<g id="node11" class="node">
<title>Node11</title>
<g id="a_node11"><a xlink:href="classdenoptim_1_1fragspace_1_1_fragment_space.html#a0311d9fe4a945fc7e06ba466bb8ca121" target="_top" xlink:title="Searches for all building blocks that are compatible with the given list of APs.">
<polygon fill="white" stroke="black" points="655,-374 655,-415 830,-415 830,-374 655,-374"/>
<text text-anchor="start" x="663" y="-403" font-family="Helvetica,sans-Serif" font-size="10.00">denoptim.fragspace.Fragment</text>
<text text-anchor="start" x="663" y="-392" font-family="Helvetica,sans-Serif" font-size="10.00">Space.getFragmentsCompatibleWith</text>
<text text-anchor="middle" x="742.5" y="-381" font-family="Helvetica,sans-Serif" font-size="10.00">TheseAPs</text>
</a>
</g>
</g>
<!-- Node10&#45;&gt;Node11 -->
<g id="edge10" class="edge">
<title>Node10&#45;&gt;Node11</title>
<path fill="none" stroke="midnightblue" d="M866.42,-394.5C854.17,-394.5 841.86,-394.5 830.02,-394.5"/>
<polygon fill="midnightblue" stroke="midnightblue" points="866.7,-398 876.7,-394.5 866.7,-391 866.7,-398"/>
</g>
<!-- Node13 -->
<g id="node13" class="node">
<title>Node13</title>
<g id="a_node13"><a xlink:href="classdenoptim_1_1fragspace_1_1_fragment_space_test.html#a2ba7718688486212e987638aef444bad" target="_top" xlink:title=" ">
<polygon fill="white" stroke="black" points="650,-298 650,-339 835,-339 835,-298 650,-298"/>
<text text-anchor="start" x="658" y="-327" font-family="Helvetica,sans-Serif" font-size="10.00">denoptim.fragspace.Fragment</text>
<text text-anchor="start" x="658" y="-316" font-family="Helvetica,sans-Serif" font-size="10.00">SpaceTest.testGetFragAPsCompatible</text>
<text text-anchor="middle" x="742.5" y="-305" font-family="Helvetica,sans-Serif" font-size="10.00">WithTheseAPs</text>
</a>
</g>
</g>
<!-- Node10&#45;&gt;Node13 -->
<g id="edge12" class="edge">
<title>Node10&#45;&gt;Node13</title>
<path fill="none" stroke="midnightblue" d="M900,-376.99C892.18,-374.95 884.42,-372.78 877,-370.5 847.99,-361.59 816.31,-349.36 791.1,-339"/>
<polygon fill="midnightblue" stroke="midnightblue" points="899.34,-380.43 909.9,-379.49 901.06,-373.64 899.34,-380.43"/>
</g>
<!-- Node12 -->
<g id="node12" class="node">
<title>Node12</title>
<g id="a_node12"><a xlink:href="classdenoptim_1_1fragspace_1_1_fragment_space_test.html#ab95d03f36f68718eb1cc11fac188401f" target="_top" xlink:title=" ">
<polygon fill="white" stroke="black" points="414,-374 414,-415 608,-415 608,-374 414,-374"/>
<text text-anchor="start" x="422" y="-403" font-family="Helvetica,sans-Serif" font-size="10.00">denoptim.fragspace.Fragment</text>
<text text-anchor="start" x="422" y="-392" font-family="Helvetica,sans-Serif" font-size="10.00">SpaceTest.testGetFragmentsCompatible</text>
<text text-anchor="middle" x="511" y="-381" font-family="Helvetica,sans-Serif" font-size="10.00">WithTheseAPs</text>
</a>
</g>
</g>
<!-- Node11&#45;&gt;Node12 -->
<g id="edge11" class="edge">
<title>Node11&#45;&gt;Node12</title>
<path fill="none" stroke="midnightblue" d="M644.65,-394.5C632.56,-394.5 620.19,-394.5 608.1,-394.5"/>
<polygon fill="midnightblue" stroke="midnightblue" points="644.74,-398 654.74,-394.5 644.74,-391 644.74,-398"/>
</g>
<!-- Node15&#45;&gt;Node13 -->
<g id="edge36" class="edge">
<title>Node15&#45;&gt;Node13</title>
<path fill="none" stroke="midnightblue" d="M1176.6,-242.42C1151.51,-252.77 1118.97,-264.98 1089,-272.5 1004.33,-293.74 905.38,-305.65 835.13,-312"/>
<polygon fill="midnightblue" stroke="midnightblue" points="1177.96,-245.65 1185.83,-238.56 1175.25,-239.19 1177.96,-245.65"/>
</g>
<!-- Node15&#45;&gt;Node14 -->
<g id="edge35" class="edge">
<title>Node15&#45;&gt;Node14</title>
<path fill="none" stroke="midnightblue" d="M1190.51,-244.56C1164.8,-262.53 1125.73,-288.14 1089,-305.5 1077.79,-310.79 1065.57,-315.64 1053.55,-319.93"/>
<polygon fill="midnightblue" stroke="midnightblue" points="1192.54,-247.41 1198.69,-238.78 1188.51,-241.69 1192.54,-247.41"/>
</g>
<!-- Node16 -->
<g id="node16" class="node">
<title>Node16</title>
<g id="a_node16"><a xlink:href="classdenoptim_1_1fragspace_1_1_a_p_map_finder.html#a5868844d747acb9bd5331c760a24ff09" target="_top" xlink:title="Compares the AttachmentPoint of two lists searching for all the APs of the second list that are &quot;comp...">
<polygon fill="white" stroke="black" points="899.5,-232.5 899.5,-262.5 1066.5,-262.5 1066.5,-232.5 899.5,-232.5"/>
<text text-anchor="start" x="907.5" y="-250.5" font-family="Helvetica,sans-Serif" font-size="10.00">denoptim.fragspace.APMap</text>
<text text-anchor="middle" x="983" y="-239.5" font-family="Helvetica,sans-Serif" font-size="10.00">Finder.findMappingCompatibileAPs</text>
</a>
</g>
</g>
<!-- Node15&#45;&gt;Node16 -->
<g id="edge15" class="edge">
<title>Node15&#45;&gt;Node16</title>
<path fill="none" stroke="midnightblue" d="M1143.92,-231.2C1119.36,-233.7 1091.99,-236.5 1066.92,-239.05"/>
<polygon fill="midnightblue" stroke="midnightblue" points="1144.31,-234.68 1153.9,-230.19 1143.6,-227.72 1144.31,-234.68"/>
</g>
<!-- Node19 -->
<g id="node19" class="node">
<title>Node19</title>
<g id="a_node19"><a xlink:href="classdenoptim_1_1ga_1_1_graph_operations.html#a8c3e7dd2981cbda13c9e5847f4a4e826" target="_top" xlink:title="Select a compatible ring&#45;closing vertex for the given attachment point.">
<polygon fill="white" stroke="black" points="902.5,-183.5 902.5,-213.5 1063.5,-213.5 1063.5,-183.5 902.5,-183.5"/>
<text text-anchor="start" x="910.5" y="-201.5" font-family="Helvetica,sans-Serif" font-size="10.00">denoptim.ga.GraphOperations.get</text>
<text text-anchor="middle" x="983" y="-190.5" font-family="Helvetica,sans-Serif" font-size="10.00">RCVForSrcAp</text>
</a>
</g>
</g>
<!-- Node15&#45;&gt;Node19 -->
<g id="edge18" class="edge">
<title>Node15&#45;&gt;Node19</title>
<path fill="none" stroke="midnightblue" d="M1143.9,-215.47C1118.36,-212.76 1089.77,-209.73 1063.91,-206.98"/>
<polygon fill="midnightblue" stroke="midnightblue" points="1143.59,-218.96 1153.9,-216.54 1144.33,-212 1143.59,-218.96"/>
</g>
<!-- Node21 -->
<g id="node21" class="node">
<title>Node21</title>
<g id="a_node21"><a xlink:href="classdenoptim_1_1fragspace_1_1_graph_link_finder.html#a9a9f36816442f741ecae5391e186bc49" target="_top" xlink:title="Constructor that specifies which edge has to be replaced with a vertex and two edges.">
<polygon fill="white" stroke="black" points="914.5,-134.5 914.5,-164.5 1051.5,-164.5 1051.5,-134.5 914.5,-134.5"/>
<text text-anchor="start" x="922.5" y="-152.5" font-family="Helvetica,sans-Serif" font-size="10.00">denoptim.fragspace.Graph</text>
<text text-anchor="middle" x="983" y="-141.5" font-family="Helvetica,sans-Serif" font-size="10.00">LinkFinder.GraphLinkFinder</text>
</a>
</g>
</g>
<!-- Node15&#45;&gt;Node21 -->
<g id="edge20" class="edge">
<title>Node15&#45;&gt;Node21</title>
<path fill="none" stroke="midnightblue" d="M1173.57,-204.64C1148.78,-194.88 1117.5,-183.21 1089,-174.5 1076.99,-170.83 1064.08,-167.37 1051.55,-164.26"/>
<polygon fill="midnightblue" stroke="midnightblue" points="1172.49,-207.98 1183.08,-208.42 1175.08,-201.48 1172.49,-207.98"/>
</g>
<!-- Node22 -->
<g id="node22" class="node">
<title>Node22</title>
<g id="a_node22"><a xlink:href="classdenoptim_1_1ga_1_1_graph_operations.html#a4f66827484cc4de0ac568545fb2033c2" target="_top" xlink:title="Evaluate AP class&#45;compatibility of a pair of edges with respect to crossover.">
<polygon fill="white" stroke="black" points="905.5,-85.5 905.5,-115.5 1060.5,-115.5 1060.5,-85.5 905.5,-85.5"/>
<text text-anchor="start" x="913.5" y="-103.5" font-family="Helvetica,sans-Serif" font-size="10.00">denoptim.ga.GraphOperations.is</text>
<text text-anchor="middle" x="983" y="-92.5" font-family="Helvetica,sans-Serif" font-size="10.00">CrossoverPossible</text>
</a>
</g>
</g>
<!-- Node15&#45;&gt;Node22 -->
<g id="edge21" class="edge">
<title>Node15&#45;&gt;Node22</title>
<path fill="none" stroke="midnightblue" d="M1196.63,-201.63C1171.99,-179.25 1130.66,-145.06 1089,-125.5 1080.09,-121.32 1070.43,-117.8 1060.68,-114.85"/>
<polygon fill="midnightblue" stroke="midnightblue" points="1194.31,-204.24 1204.03,-208.45 1199.05,-199.1 1194.31,-204.24"/>
</g>
<!-- Node32 -->
<g id="node32" class="node">
<title>Node32</title>
<g id="a_node32"><a xlink:href="classdenoptim_1_1graph_1_1_d_graph.html#af404e25092eabcdfbe69b5d7204e9483" target="_top" xlink:title="Mutates the graph by removing the chain where a given vertex is located up to the first branching (i....">
<polygon fill="white" stroke="black" points="907,-36.5 907,-66.5 1059,-66.5 1059,-36.5 907,-36.5"/>
<text text-anchor="start" x="915" y="-54.5" font-family="Helvetica,sans-Serif" font-size="10.00">denoptim.graph.DGraph.remove</text>
<text text-anchor="middle" x="983" y="-43.5" font-family="Helvetica,sans-Serif" font-size="10.00">ChainUpToBranching</text>
</a>
</g>
</g>
<!-- Node15&#45;&gt;Node32 -->
<g id="edge32" class="edge">
<title>Node15&#45;&gt;Node32</title>
<path fill="none" stroke="midnightblue" d="M1205.14,-199.7C1183.97,-166.74 1141.2,-107.74 1089,-76.5 1079.83,-71.02 1069.55,-66.73 1059.09,-63.39"/>
<polygon fill="midnightblue" stroke="midnightblue" points="1202.24,-201.66 1210.53,-208.26 1208.16,-197.93 1202.24,-201.66"/>
</g>
<!-- Node17 -->
<g id="node17" class="node">
<title>Node17</title>
<g id="a_node17"><a xlink:href="classdenoptim_1_1fragspace_1_1_a_p_map_finder.html#ae5c8afa4b7defd6ce35df0fa1c5facf2" target="_top" xlink:title="Searches for mappings between the AttachmentPoints on the two lists.">
<polygon fill="white" stroke="black" points="674.5,-232.5 674.5,-262.5 810.5,-262.5 810.5,-232.5 674.5,-232.5"/>
<text text-anchor="start" x="682.5" y="-250.5" font-family="Helvetica,sans-Serif" font-size="10.00">denoptim.fragspace.APMap</text>
<text text-anchor="middle" x="742.5" y="-239.5" font-family="Helvetica,sans-Serif" font-size="10.00">Finder.findAllMappings</text>
</a>
</g>
</g>
<!-- Node16&#45;&gt;Node17 -->
<g id="edge16" class="edge">
<title>Node16&#45;&gt;Node17</title>
<path fill="none" stroke="midnightblue" d="M888.97,-247.5C862.87,-247.5 835.01,-247.5 810.73,-247.5"/>
<polygon fill="midnightblue" stroke="midnightblue" points="889.25,-251 899.25,-247.5 889.25,-244 889.25,-251"/>
</g>
<!-- Node18 -->
<g id="node18" class="node">
<title>Node18</title>
<g id="a_node18"><a xlink:href="classdenoptim_1_1fragspace_1_1_a_p_map_finder.html#ada1b2c2155faeefced1d9a64f82a6668" target="_top" xlink:title="Constructor that launches the search for a mapping between the AttachmentPoints on the first vertex t...">
<polygon fill="white" stroke="black" points="443,-232.5 443,-262.5 579,-262.5 579,-232.5 443,-232.5"/>
<text text-anchor="start" x="451" y="-250.5" font-family="Helvetica,sans-Serif" font-size="10.00">denoptim.fragspace.APMap</text>
<text text-anchor="middle" x="511" y="-239.5" font-family="Helvetica,sans-Serif" font-size="10.00">Finder.APMapFinder</text>
</a>
</g>
</g>
<!-- Node17&#45;&gt;Node18 -->
<g id="edge17" class="edge">
<title>Node17&#45;&gt;Node18</title>
<path fill="none" stroke="midnightblue" d="M663.85,-247.5C636.42,-247.5 605.81,-247.5 579.31,-247.5"/>
<polygon fill="midnightblue" stroke="midnightblue" points="664.19,-251 674.19,-247.5 664.19,-244 664.19,-251"/>
</g>
<!-- Node20 -->
<g id="node20" class="node">
<title>Node20</title>
<g id="a_node20"><a xlink:href="classdenoptim_1_1ga_1_1_graph_operations.html#a104e82aba7242a457da09540ff0400da" target="_top" xlink:title="function that will keep extending the graph.">
<polygon fill="white" stroke="black" points="654.5,-183.5 654.5,-213.5 830.5,-213.5 830.5,-183.5 654.5,-183.5"/>
<text text-anchor="start" x="662.5" y="-201.5" font-family="Helvetica,sans-Serif" font-size="10.00">denoptim.ga.GraphOperations.extend</text>
<text text-anchor="middle" x="742.5" y="-190.5" font-family="Helvetica,sans-Serif" font-size="10.00">Graph</text>
</a>
</g>
</g>
<!-- Node19&#45;&gt;Node20 -->
<g id="edge19" class="edge">
<title>Node19&#45;&gt;Node20</title>
<path fill="none" stroke="midnightblue" d="M892.14,-198.5C871.97,-198.5 850.61,-198.5 830.55,-198.5"/>
<polygon fill="midnightblue" stroke="midnightblue" points="892.25,-202 902.25,-198.5 892.25,-195 892.25,-202"/>
</g>
<!-- Node23 -->
<g id="node23" class="node">
<title>Node23</title>
<g id="a_node23"><a xlink:href="classdenoptim_1_1ga_1_1_graph_operations.html#a2396c23acf24d07f255b94eb3a2105b7" target="_top" xlink:title="Identify crossover sites, i.e., subgraphs that can be swapped between two graphs (i....">
<polygon fill="white" stroke="black" points="656,-85.5 656,-115.5 829,-115.5 829,-85.5 656,-85.5"/>
<text text-anchor="start" x="664" y="-103.5" font-family="Helvetica,sans-Serif" font-size="10.00">denoptim.ga.GraphOperations.locate</text>
<text text-anchor="middle" x="742.5" y="-92.5" font-family="Helvetica,sans-Serif" font-size="10.00">CompatibleXOverPoints</text>
</a>
</g>
</g>
<!-- Node22&#45;&gt;Node23 -->
<g id="edge22" class="edge">
<title>Node22&#45;&gt;Node23</title>
<path fill="none" stroke="midnightblue" d="M895.14,-100.5C873.66,-100.5 850.66,-100.5 829.23,-100.5"/>
<polygon fill="midnightblue" stroke="midnightblue" points="895.22,-104 905.22,-100.5 895.22,-97 895.22,-104"/>
</g>
<!-- Node23&#45;&gt;Node23 -->
<g id="edge28" class="edge">
<title>Node23&#45;&gt;Node23</title>
<path fill="none" stroke="midnightblue" d="M783.74,-125.59C778.99,-130.51 765.24,-134 742.5,-134 706.11,-134 692.75,-125.06 702.42,-115.66"/>
<polygon fill="midnightblue" stroke="midnightblue" points="787.22,-125.19 782.58,-115.66 780.27,-126 787.22,-125.19"/>
</g>
<!-- Node24 -->
<g id="node24" class="node">
<title>Node24</title>
<g id="a_node24"><a xlink:href="classdenoptim_1_1ga_1_1_population.html#a31b74cc5407c42fa3a4214029fb08190" target="_top" xlink:title="Returns a list of population members that can do crossover with the specified member.">
<polygon fill="white" stroke="black" points="444.5,-171.5 444.5,-201.5 577.5,-201.5 577.5,-171.5 444.5,-171.5"/>
<text text-anchor="start" x="452.5" y="-189.5" font-family="Helvetica,sans-Serif" font-size="10.00">denoptim.ga.Population.get</text>
<text text-anchor="middle" x="511" y="-178.5" font-family="Helvetica,sans-Serif" font-size="10.00">XoverPartners</text>
</a>
</g>
</g>
<!-- Node23&#45;&gt;Node24 -->
<g id="edge23" class="edge">
<title>Node23&#45;&gt;Node24</title>
<path fill="none" stroke="midnightblue" d="M691.83,-119.11C650.04,-134.77 591.06,-156.88 552.19,-171.44"/>
<polygon fill="midnightblue" stroke="midnightblue" points="693.13,-122.36 701.26,-115.58 690.67,-115.81 693.13,-122.36"/>
</g>
<!-- Node29 -->
<g id="node29" class="node">
<title>Node29</title>
<g id="a_node29"><a xlink:href="classdenoptim_1_1programs_1_1genetweeker_1_1_gene_ops_runner.html#ab0f92a94c4fb2334e7d3813e73fc4247" target="_top" xlink:title=" ">
<polygon fill="white" stroke="black" points="431.5,-98.5 431.5,-128.5 590.5,-128.5 590.5,-98.5 431.5,-98.5"/>
<text text-anchor="start" x="439.5" y="-116.5" font-family="Helvetica,sans-Serif" font-size="10.00">denoptim.programs.genetweeker.</text>
<text text-anchor="middle" x="511" y="-105.5" font-family="Helvetica,sans-Serif" font-size="10.00">GeneOpsRunner.runXOver</text>
</a>
</g>
</g>
<!-- Node23&#45;&gt;Node29 -->
<g id="edge29" class="edge">
<title>Node23&#45;&gt;Node29</title>
<path fill="none" stroke="midnightblue" d="M645.66,-105.93C627.41,-106.96 608.51,-108.03 590.86,-109.03"/>
<polygon fill="midnightblue" stroke="midnightblue" points="645.93,-109.42 655.72,-105.36 645.53,-102.43 645.93,-109.42"/>
</g>
<!-- Node31 -->
<g id="node31" class="node">
<title>Node31</title>
<g id="a_node31"><a xlink:href="classdenoptim_1_1ga_1_1_graph_operations_test.html#a9fcf8fffef10a59df722c92e94da2815" target="_top" xlink:title=" ">
<polygon fill="white" stroke="black" points="416.5,-49.5 416.5,-79.5 605.5,-79.5 605.5,-49.5 416.5,-49.5"/>
<text text-anchor="start" x="424.5" y="-67.5" font-family="Helvetica,sans-Serif" font-size="10.00">denoptim.ga.GraphOperations</text>
<text text-anchor="middle" x="511" y="-56.5" font-family="Helvetica,sans-Serif" font-size="10.00">Test.testLocateCompatibleXOverPoints</text>
</a>
</g>
</g>
<!-- Node23&#45;&gt;Node31 -->
<g id="edge31" class="edge">
<title>Node23&#45;&gt;Node31</title>
<path fill="none" stroke="midnightblue" d="M645.69,-85.47C632.49,-83.4 618.93,-81.27 605.76,-79.21"/>
<polygon fill="midnightblue" stroke="midnightblue" points="645.29,-88.95 655.72,-87.04 646.38,-82.04 645.29,-88.95"/>
</g>
<!-- Node25 -->
<g id="node25" class="node">
<title>Node25</title>
<g id="a_node25"><a xlink:href="classdenoptim_1_1ga_1_1_e_a_utils.html#a45d4e9ec6a308aa73891efa1d501dd5e" target="_top" xlink:title="Perform fitness&#45;based, class&#45;compatible selection of parents that can do crossover operations.">
<polygon fill="white" stroke="black" points="201,-233 201,-252 367,-252 367,-233 201,-233"/>
<text text-anchor="middle" x="284" y="-240" font-family="Helvetica,sans-Serif" font-size="10.00">denoptim.ga.EAUtils.performFBCC</text>
</a>
</g>
</g>
<!-- Node24&#45;&gt;Node25 -->
<g id="edge24" class="edge">
<title>Node24&#45;&gt;Node25</title>
<path fill="none" stroke="midnightblue" d="M449.73,-204.38C427.3,-210.77 401.58,-217.8 378,-223.5 364.23,-226.83 349.21,-230.07 335.34,-232.9"/>
<polygon fill="midnightblue" stroke="midnightblue" points="450.8,-207.71 459.45,-201.59 448.87,-200.98 450.8,-207.71"/>
</g>
<!-- Node27 -->
<g id="node27" class="node">
<title>Node27</title>
<g id="a_node27"><a xlink:href="classdenoptim_1_1ga_1_1_population_test.html#a5db0672054a9fc1dbc923310732fdb3a" target="_top" xlink:title=" ">
<polygon fill="white" stroke="black" points="206.5,-183.5 206.5,-213.5 361.5,-213.5 361.5,-183.5 206.5,-183.5"/>
<text text-anchor="start" x="214.5" y="-201.5" font-family="Helvetica,sans-Serif" font-size="10.00">denoptim.ga.PopulationTest.test</text>
<text text-anchor="middle" x="284" y="-190.5" font-family="Helvetica,sans-Serif" font-size="10.00">Clone</text>
</a>
</g>
</g>
<!-- Node24&#45;&gt;Node27 -->
<g id="edge26" class="edge">
<title>Node24&#45;&gt;Node27</title>
<path fill="none" stroke="midnightblue" d="M434.15,-190.55C410.87,-191.79 385.23,-193.15 361.88,-194.4"/>
<polygon fill="midnightblue" stroke="midnightblue" points="434.52,-194.03 444.32,-190 434.14,-187.04 434.52,-194.03"/>
</g>
<!-- Node28 -->
<g id="node28" class="node">
<title>Node28</title>
<g id="a_node28"><a xlink:href="classdenoptim_1_1ga_1_1_population_test.html#a278212ebff2501b7071d342f9a027599" target="_top" xlink:title=" ">
<polygon fill="white" stroke="black" points="206.5,-134.5 206.5,-164.5 361.5,-164.5 361.5,-134.5 206.5,-134.5"/>
<text text-anchor="start" x="214.5" y="-152.5" font-family="Helvetica,sans-Serif" font-size="10.00">denoptim.ga.PopulationTest.test</text>
<text text-anchor="middle" x="284" y="-141.5" font-family="Helvetica,sans-Serif" font-size="10.00">XOverCompatibility</text>
</a>
</g>
</g>
<!-- Node24&#45;&gt;Node28 -->
<g id="edge27" class="edge">
<title>Node24&#45;&gt;Node28</title>
<path fill="none" stroke="midnightblue" d="M434.15,-174.03C410.87,-170.2 385.23,-165.98 361.88,-162.14"/>
<polygon fill="midnightblue" stroke="midnightblue" points="433.88,-177.53 444.32,-175.7 435.02,-170.62 433.88,-177.53"/>
</g>
<!-- Node26 -->
<g id="node26" class="node">
<title>Node26</title>
<g id="a_node26"><a xlink:href="classdenoptim_1_1ga_1_1_e_a_utils.html#a0b958439d79fae30f14530213ad22e3a" target="_top" xlink:title="Generates up to a pair of new offspring by performing a crossover operation.">
<polygon fill="white" stroke="black" points="13.5,-227.5 13.5,-257.5 140.5,-257.5 140.5,-227.5 13.5,-227.5"/>
<text text-anchor="start" x="21.5" y="-245.5" font-family="Helvetica,sans-Serif" font-size="10.00">denoptim.ga.EAUtils.build</text>
<text text-anchor="middle" x="77" y="-234.5" font-family="Helvetica,sans-Serif" font-size="10.00">CandidatesByXOver</text>
</a>
</g>
</g>
<!-- Node25&#45;&gt;Node26 -->
<g id="edge25" class="edge">
<title>Node25&#45;&gt;Node26</title>
<path fill="none" stroke="midnightblue" d="M190.38,-242.5C173.55,-242.5 156.36,-242.5 140.65,-242.5"/>
<polygon fill="midnightblue" stroke="midnightblue" points="190.8,-246 200.8,-242.5 190.8,-239 190.8,-246"/>
</g>
<!-- Node30 -->
<g id="node30" class="node">
<title>Node30</title>
<g id="a_node30"><a xlink:href="classdenoptim_1_1programs_1_1genetweeker_1_1_gene_ops_runner.html#a3c2407eb1204a7b25600d3d347d98447" target="_top" xlink:title=" ">
<polygon fill="white" stroke="black" points="204.5,-85.5 204.5,-115.5 363.5,-115.5 363.5,-85.5 204.5,-85.5"/>
<text text-anchor="start" x="212.5" y="-103.5" font-family="Helvetica,sans-Serif" font-size="10.00">denoptim.programs.genetweeker.</text>
<text text-anchor="middle" x="284" y="-92.5" font-family="Helvetica,sans-Serif" font-size="10.00">GeneOpsRunner.runProgram</text>
</a>
</g>
</g>
<!-- Node29&#45;&gt;Node30 -->
<g id="edge30" class="edge">
<title>Node29&#45;&gt;Node30</title>
<path fill="none" stroke="midnightblue" d="M421.17,-108.37C402.17,-107.27 382.23,-106.12 363.65,-105.04"/>
<polygon fill="midnightblue" stroke="midnightblue" points="421.12,-111.87 431.31,-108.95 421.52,-104.88 421.12,-111.87"/>
</g>
<!-- Node33 -->
<g id="node33" class="node">
<title>Node33</title>
<g id="a_node33"><a xlink:href="classdenoptim_1_1ga_1_1_graph_operations.html#afd659e74a056d1a6ae6f52513fee0be3" target="_top" xlink:title="Deletes the given vertex and all other vertexes that are not connected to more than 2 non&#45;capping gro...">
<polygon fill="white" stroke="black" points="656,-36.5 656,-66.5 829,-66.5 829,-36.5 656,-36.5"/>
<text text-anchor="start" x="664" y="-54.5" font-family="Helvetica,sans-Serif" font-size="10.00">denoptim.ga.GraphOperations.delete</text>
<text text-anchor="middle" x="742.5" y="-43.5" font-family="Helvetica,sans-Serif" font-size="10.00">Chain</text>
</a>
</g>
</g>
<!-- Node32&#45;&gt;Node33 -->
<g id="edge33" class="edge">
<title>Node32&#45;&gt;Node33</title>
<path fill="none" stroke="midnightblue" d="M896.58,-51.5C874.63,-51.5 851.02,-51.5 829.06,-51.5"/>
<polygon fill="midnightblue" stroke="midnightblue" points="896.86,-55 906.86,-51.5 896.86,-48 896.86,-55"/>
</g>
<!-- Node34 -->
<g id="node34" class="node">
<title>Node34</title>
<g id="a_node34"><a xlink:href="classdenoptim_1_1ga_1_1_graph_operations.html#a0c851972015fbb4b2a317b053b8b81d9" target="_top" xlink:title="Mutates the given vertex according to the given mutation type, if possible.">
<polygon fill="white" stroke="black" points="421,-0.5 421,-30.5 601,-30.5 601,-0.5 421,-0.5"/>
<text text-anchor="start" x="429" y="-18.5" font-family="Helvetica,sans-Serif" font-size="10.00">denoptim.ga.GraphOperations.perform</text>
<text text-anchor="middle" x="511" y="-7.5" font-family="Helvetica,sans-Serif" font-size="10.00">Mutation</text>
</a>
</g>
</g>
<!-- Node33&#45;&gt;Node34 -->
<g id="edge34" class="edge">
<title>Node33&#45;&gt;Node34</title>
<path fill="none" stroke="midnightblue" d="M645.6,-36.46C630.86,-34.15 615.71,-31.77 601.13,-29.48"/>
<polygon fill="midnightblue" stroke="midnightblue" points="645.29,-39.95 655.72,-38.04 646.38,-33.04 645.29,-39.95"/>
</g>
</g>
</svg>
        <g id="navigator" transform="translate(0 0)" fill="#404254">
                <rect fill="#f2f5e9" fill-opacity="0.5" stroke="#606060" stroke-width=".5" x="0" y="0" width="60" height="60"/>
                <use id="zoomplus" xlink:href="#zoomPlus" x="17" y="9" onmousedown="handleZoom(evt,'in')"/>
                <use id="zoomminus" xlink:href="#zoomMin" x="42" y="9" onmousedown="handleZoom(evt,'out')"/>
                <use id="reset" xlink:href="#resetDef" x="30" y="36" onmousedown="handleReset()"/>
                <g id="arrowUp" xlink:href="#dirArrow" transform="translate(30 24)" onmousedown="handlePan(0,-1)">
                  <use xlink:href="#rim" fill="#404040">
                        <set attributeName="fill" to="#808080" begin="arrowUp.mouseover" end="arrowUp.mouseout"/>
                  </use>
                  <path fill="none" stroke="white" stroke-width="1.5" d="M0,-3.0v7 M-2.5,-0.5L0,-3.0L2.5,-0.5"/>
                </g>
                <g id="arrowRight" xlink:href="#dirArrow" transform="rotate(90) translate(36 -43)" onmousedown="handlePan(1,0)">
                  <use xlink:href="#rim" fill="#404040">
                        <set attributeName="fill" to="#808080" begin="arrowRight.mouseover" end="arrowRight.mouseout"/>
                  </use>
                  <path fill="none" stroke="white" stroke-width="1.5" d="M0,-3.0v7 M-2.5,-0.5L0,-3.0L2.5,-0.5"/>
                </g>
                <g id="arrowDown" xlink:href="#dirArrow" transform="rotate(180) translate(-30 -48)" onmousedown="handlePan(0,1)">
                  <use xlink:href="#rim" fill="#404040">
                        <set attributeName="fill" to="#808080" begin="arrowDown.mouseover" end="arrowDown.mouseout"/>
                  </use>
                  <path fill="none" stroke="white" stroke-width="1.5" d="M0,-3.0v7 M-2.5,-0.5L0,-3.0L2.5,-0.5"/>
                </g>
                <g id="arrowLeft" xlink:href="#dirArrow" transform="rotate(270) translate(-36 17)" onmousedown="handlePan(-1,0)">
                  <use xlink:href="#rim" fill="#404040">
                        <set attributeName="fill" to="#808080" begin="arrowLeft.mouseover" end="arrowLeft.mouseout"/>
                  </use>
                  <path fill="none" stroke="white" stroke-width="1.5" d="M0,-3.0v7 M-2.5,-0.5L0,-3.0L2.5,-0.5"/>
                </g>
        </g>
        <svg viewBox="0 0 15 15" width="100%" height="30px" preserveAspectRatio="xMaxYMin meet">
         <g id="arrow_out" transform="scale(0.3 0.3)">
          <a xlink:href="classdenoptim_1_1fragspace_1_1_fragment_space_ada04f68d55f8ff85345e2a6c6d1ad840_icgraph_org.svg" target="_base">
           <rect id="button" ry="5" rx="5" y="6" x="6" height="38" width="38"
                fill="#f2f5e9" fill-opacity="0.5" stroke="#606060" stroke-width="1.0"/>
           <path id="arrow"
             d="M 11.500037,31.436501 C 11.940474,20.09759 22.043105,11.32322 32.158766,21.979434 L 37.068811,17.246167 C 37.068811,17.246167 37.088388,32 37.088388,32 L 22.160133,31.978069 C 22.160133,31.978069 26.997745,27.140456 26.997745,27.140456 C 18.528582,18.264221 13.291696,25.230495 11.500037,31.436501 z"
             style="fill:#404040;"/>
          </a>
         </g>
        </svg>
</svg>
