<?xml version="1.0" encoding="UTF-8" standalone="no"?>
<!DOCTYPE svg PUBLIC "-//W3C//DTD SVG 1.1//EN"
 "http://www.w3.org/Graphics/SVG/1.1/DTD/svg11.dtd">
<!-- Generated by graphviz version 3.0.0 (20221109.1736)
 -->
<!-- Title: denoptim.utils.MoleculeUtils.makeSameAtomAs Pages: 1 -->
<svg width="1483pt" height="672pt"
 viewBox="0.00 0.00 1483.00 672.00" xmlns="http://www.w3.org/2000/svg" xmlns:xlink="http://www.w3.org/1999/xlink">
<g id="graph0" class="graph" transform="scale(1 1) rotate(0) translate(4 668)">
<title>denoptim.utils.MoleculeUtils.makeSameAtomAs</title>
<polygon fill="white" stroke="transparent" points="-4,4 -4,-668 1479,-668 1479,4 -4,4"/>
<!-- Node1 -->
<g id="node1" class="node">
<title>Node1</title>
<g id="a_node1"><a xlink:title="Method that constructs an atom that reflect the same atom given as parameter in terms of element symb...">
<polygon fill="#bfbfbf" stroke="black" points="1311,-403 1311,-433 1475,-433 1475,-403 1311,-403"/>
<text text-anchor="start" x="1319" y="-421" font-family="Helvetica,sans-Serif" font-size="10.00">denoptim.utils.MoleculeUtils.make</text>
<text text-anchor="middle" x="1393" y="-410" font-family="Helvetica,sans-Serif" font-size="10.00">SameAtomAs</text>
</a>
</g>
</g>
<!-- Node1&#45;&gt;Node1 -->
<g id="edge38" class="edge">
<title>Node1&#45;&gt;Node1</title>
<path fill="none" stroke="midnightblue" d="M1428.89,-443.46C1424.44,-448.18 1412.47,-451.5 1393,-451.5 1361.04,-451.5 1349.31,-442.56 1357.8,-433.16"/>
<polygon fill="midnightblue" stroke="midnightblue" points="1432.36,-442.9 1428.2,-433.16 1425.38,-443.37 1432.36,-442.9"/>
</g>
<!-- Node2 -->
<g id="node2" class="node">
<title>Node2</title>
<g id="a_node2"><a xlink:href="classdenoptim_1_1utils_1_1_atom_organizer.html#aaa2b8f9bfaed825389a6453e88403108" target="_top" xlink:title="Produces a new container that looks very similar to the original one, but has a different atom order.">
<polygon fill="white" stroke="black" points="1105,-604 1105,-634 1275,-634 1275,-604 1105,-604"/>
<text text-anchor="start" x="1113" y="-622" font-family="Helvetica,sans-Serif" font-size="10.00">denoptim.utils.AtomOrganizer.make</text>
<text text-anchor="middle" x="1190" y="-611" font-family="Helvetica,sans-Serif" font-size="10.00">ReorderedCopy</text>
</a>
</g>
</g>
<!-- Node1&#45;&gt;Node2 -->
<g id="edge1" class="edge">
<title>Node1&#45;&gt;Node2</title>
<path fill="none" stroke="midnightblue" d="M1369.74,-440.26C1328.47,-481.53 1241.06,-568.94 1206.01,-603.99"/>
<polygon fill="midnightblue" stroke="midnightblue" points="1372.3,-442.65 1376.89,-433.11 1367.35,-437.7 1372.3,-442.65"/>
</g>
<!-- Node7 -->
<g id="node7" class="node">
<title>Node7</title>
<g id="a_node7"><a xlink:href="classdenoptim_1_1utils_1_1_molecule_utils.html#a377eae6a6254a6d1bd0f218fc2552af3" target="_top" xlink:title="Constructs a copy of an atom container, i.e., a molecule that reflects the one given in the input arg...">
<polygon fill="white" stroke="black" points="1108,-202 1108,-232 1272,-232 1272,-202 1108,-202"/>
<text text-anchor="start" x="1116" y="-220" font-family="Helvetica,sans-Serif" font-size="10.00">denoptim.utils.MoleculeUtils.make</text>
<text text-anchor="middle" x="1190" y="-209" font-family="Helvetica,sans-Serif" font-size="10.00">SameAs</text>
</a>
</g>
</g>
<!-- Node1&#45;&gt;Node7 -->
<g id="edge7" class="edge">
<title>Node1&#45;&gt;Node7</title>
<path fill="none" stroke="midnightblue" d="M1369.74,-395.74C1328.47,-354.47 1241.06,-267.06 1206.01,-232.01"/>
<polygon fill="midnightblue" stroke="midnightblue" points="1367.35,-398.3 1376.89,-402.89 1372.3,-393.35 1367.35,-398.3"/>
</g>
<!-- Node3 -->
<g id="node3" class="node">
<title>Node3</title>
<g id="a_node3"><a xlink:href="classdenoptim_1_1molecularmodeling_1_1_multi_molecular_model_builder.html#a6a8e314f3fb37f66c32c8c4d5695b8a4" target="_top" xlink:title="Given the graph representation of the molecular constitution, along with the 3D coordinates of the fr...">
<polygon fill="white" stroke="black" points="443.5,-622.5 443.5,-663.5 601.5,-663.5 601.5,-622.5 443.5,-622.5"/>
<text text-anchor="start" x="451.5" y="-651.5" font-family="Helvetica,sans-Serif" font-size="10.00">denoptim.molecularmodeling.</text>
<text text-anchor="start" x="451.5" y="-640.5" font-family="Helvetica,sans-Serif" font-size="10.00">MultiMolecularModelBuilder.build</text>
<text text-anchor="middle" x="522.5" y="-629.5" font-family="Helvetica,sans-Serif" font-size="10.00">Multi3DStructure</text>
</a>
</g>
</g>
<!-- Node2&#45;&gt;Node3 -->
<g id="edge2" class="edge">
<title>Node2&#45;&gt;Node3</title>
<path fill="none" stroke="midnightblue" d="M1118.96,-636.11C1102.66,-639.39 1085.3,-642.32 1069,-644 903.43,-661.06 708.1,-654.23 601.9,-648.26"/>
<polygon fill="midnightblue" stroke="midnightblue" points="1119.87,-639.49 1128.95,-634.03 1118.44,-632.64 1119.87,-639.49"/>
</g>
<!-- Node5 -->
<g id="node5" class="node">
<title>Node5</title>
<g id="a_node5"><a xlink:href="classdenoptim_1_1utils_1_1_atom_organizer.html#ac679b2a45c111736e81e8dd2604b5a77" target="_top" xlink:title="Reorder the atoms in mol starting with atom seed">
<polygon fill="white" stroke="black" points="889,-604 889,-634 1065,-634 1065,-604 889,-604"/>
<text text-anchor="start" x="897" y="-622" font-family="Helvetica,sans-Serif" font-size="10.00">denoptim.utils.AtomOrganizer.reorder</text>
<text text-anchor="middle" x="977" y="-611" font-family="Helvetica,sans-Serif" font-size="10.00">StartingFrom</text>
</a>
</g>
</g>
<!-- Node2&#45;&gt;Node5 -->
<g id="edge4" class="edge">
<title>Node2&#45;&gt;Node5</title>
<path fill="none" stroke="midnightblue" d="M1094.59,-619C1084.83,-619 1074.95,-619 1065.28,-619"/>
<polygon fill="midnightblue" stroke="midnightblue" points="1094.7,-622.5 1104.7,-619 1094.7,-615.5 1094.7,-622.5"/>
</g>
<!-- Node4 -->
<g id="node4" class="node">
<title>Node4</title>
<g id="a_node4"><a xlink:href="classdenoptim_1_1programs_1_1moldecularmodelbuilder_1_1_molecular_model_builder.html#ad2e44290de6a861274def677044e9754" target="_top" xlink:title=" ">
<polygon fill="white" stroke="black" points="186,-628 186,-658 392,-658 392,-628 186,-628"/>
<text text-anchor="start" x="194" y="-646" font-family="Helvetica,sans-Serif" font-size="10.00">denoptim.programs.moldecularmodelbuilder.</text>
<text text-anchor="middle" x="289" y="-635" font-family="Helvetica,sans-Serif" font-size="10.00">MolecularModelBuilder.runProgram</text>
</a>
</g>
</g>
<!-- Node3&#45;&gt;Node4 -->
<g id="edge3" class="edge">
<title>Node3&#45;&gt;Node4</title>
<path fill="none" stroke="midnightblue" d="M433.32,-643C419.93,-643 406.01,-643 392.35,-643"/>
<polygon fill="midnightblue" stroke="midnightblue" points="433.45,-646.5 443.45,-643 433.45,-639.5 433.45,-646.5"/>
</g>
<!-- Node6 -->
<g id="node6" class="node">
<title>Node6</title>
<g id="a_node6"><a xlink:href="classdenoptim_1_1molecularmodeling_1_1_multi_molecular_model_builder.html#a1cd879265bf12e9c2980efae1e8e74aa" target="_top" xlink:title="Generate 3D structure by assembling 3D fragments according to attachment point vector and following t...">
<polygon fill="white" stroke="black" points="656,-604 656,-634 846,-634 846,-604 656,-604"/>
<text text-anchor="start" x="664" y="-622" font-family="Helvetica,sans-Serif" font-size="10.00">denoptim.molecularmodeling.</text>
<text text-anchor="middle" x="751" y="-611" font-family="Helvetica,sans-Serif" font-size="10.00">MultiMolecularModelBuilder.build3DTree</text>
</a>
</g>
</g>
<!-- Node5&#45;&gt;Node6 -->
<g id="edge5" class="edge">
<title>Node5&#45;&gt;Node6</title>
<path fill="none" stroke="midnightblue" d="M878.5,-619C867.73,-619 856.77,-619 846.05,-619"/>
<polygon fill="midnightblue" stroke="midnightblue" points="878.75,-622.5 888.75,-619 878.75,-615.5 878.75,-622.5"/>
</g>
<!-- Node6&#45;&gt;Node3 -->
<g id="edge6" class="edge">
<title>Node6&#45;&gt;Node3</title>
<path fill="none" stroke="midnightblue" d="M645.74,-630.05C630.97,-631.61 616,-633.2 601.84,-634.7"/>
<polygon fill="midnightblue" stroke="midnightblue" points="646.34,-633.5 655.91,-628.97 645.6,-626.54 646.34,-633.5"/>
</g>
<!-- Node8 -->
<g id="node8" class="node">
<title>Node8</title>
<g id="a_node8"><a xlink:href="classdenoptim_1_1graph_1_1_candidate.html#a4d09e13c71ce3242ae16c9b7a5eede7a" target="_top" xlink:title="Builds a candidate from the SDF representation of an atom container.">
<polygon fill="white" stroke="black" points="911.5,-400 911.5,-430 1042.5,-430 1042.5,-400 911.5,-400"/>
<text text-anchor="start" x="919.5" y="-418" font-family="Helvetica,sans-Serif" font-size="10.00">denoptim.graph.Candidate.</text>
<text text-anchor="middle" x="977" y="-407" font-family="Helvetica,sans-Serif" font-size="10.00">Candidate</text>
</a>
</g>
</g>
<!-- Node7&#45;&gt;Node8 -->
<g id="edge8" class="edge">
<title>Node7&#45;&gt;Node8</title>
<path fill="none" stroke="midnightblue" d="M1178.77,-241.38C1161.7,-279.08 1123.76,-351.21 1069,-390 1061.11,-395.59 1052.03,-399.93 1042.71,-403.3"/>
<polygon fill="midnightblue" stroke="midnightblue" points="1182.01,-242.71 1182.85,-232.15 1175.61,-239.88 1182.01,-242.71"/>
</g>
<!-- Node9 -->
<g id="node9" class="node">
<title>Node9</title>
<g id="a_node9"><a xlink:href="classdenoptim_1_1graph_1_1_candidate.html#a316c1167a95b3ab5159b9ba9e9cbb8b9" target="_top" xlink:title=" ">
<polygon fill="white" stroke="black" points="900,-361.5 900,-380.5 1054,-380.5 1054,-361.5 900,-361.5"/>
<text text-anchor="middle" x="977" y="-368.5" font-family="Helvetica,sans-Serif" font-size="10.00">denoptim.graph.Candidate.clone</text>
</a>
</g>
</g>
<!-- Node7&#45;&gt;Node9 -->
<g id="edge9" class="edge">
<title>Node7&#45;&gt;Node9</title>
<path fill="none" stroke="midnightblue" d="M1174.48,-241.26C1154.68,-272.11 1116.22,-324.65 1069,-352 1062.3,-355.88 1054.91,-358.98 1047.33,-361.44"/>
<polygon fill="midnightblue" stroke="midnightblue" points="1177.67,-242.77 1180.02,-232.44 1171.74,-239.05 1177.67,-242.77"/>
</g>
<!-- Node10 -->
<g id="node10" class="node">
<title>Node10</title>
<g id="a_node10"><a xlink:href="classdenoptim_1_1graph_1_1_fragment.html#a3b476687a392e637d2bf2f3b6ccb09a4" target="_top" xlink:title="Returns a deep copy of this fragments.">
<polygon fill="white" stroke="black" points="901,-305.5 901,-324.5 1053,-324.5 1053,-305.5 901,-305.5"/>
<text text-anchor="middle" x="977" y="-312.5" font-family="Helvetica,sans-Serif" font-size="10.00">denoptim.graph.Fragment.clone</text>
</a>
</g>
</g>
<!-- Node7&#45;&gt;Node10 -->
<g id="edge10" class="edge">
<title>Node7&#45;&gt;Node10</title>
<path fill="none" stroke="midnightblue" d="M1147.33,-236.36C1102.51,-257.17 1033.08,-289.42 998.72,-305.38"/>
<polygon fill="midnightblue" stroke="midnightblue" points="1148.9,-239.48 1156.49,-232.1 1145.95,-233.14 1148.9,-239.48"/>
</g>
<!-- Node25 -->
<g id="node25" class="node">
<title>Node25</title>
<g id="a_node25"><a xlink:href="classdenoptim_1_1graph_1_1_template.html#ac7d7400f47d4bad33f3755f1b3d19a3e" target="_top" xlink:title="Returns a deep copy of this template.">
<polygon fill="white" stroke="black" points="901.5,-207.5 901.5,-226.5 1052.5,-226.5 1052.5,-207.5 901.5,-207.5"/>
<text text-anchor="middle" x="977" y="-214.5" font-family="Helvetica,sans-Serif" font-size="10.00">denoptim.graph.Template.clone</text>
</a>
</g>
</g>
<!-- Node7&#45;&gt;Node25 -->
<g id="edge27" class="edge">
<title>Node7&#45;&gt;Node25</title>
<path fill="none" stroke="midnightblue" d="M1097.45,-217C1082.49,-217 1067.15,-217 1052.67,-217"/>
<polygon fill="midnightblue" stroke="midnightblue" points="1097.72,-220.5 1107.72,-217 1097.72,-213.5 1097.72,-220.5"/>
</g>
<!-- Node28 -->
<g id="node28" class="node">
<title>Node28</title>
<g id="a_node28"><a xlink:href="classdenoptim_1_1utils_1_1_molecule_utils.html#ae0fc307ce14bc73de8cb51459e122392" target="_top" xlink:title="Selects only the atoms that originate from a subgraph of a whole graph that originated the whole mole...">
<polygon fill="white" stroke="black" points="892,-158 892,-188 1062,-188 1062,-158 892,-158"/>
<text text-anchor="start" x="900" y="-176" font-family="Helvetica,sans-Serif" font-size="10.00">denoptim.utils.MoleculeUtils.extract</text>
<text text-anchor="middle" x="977" y="-165" font-family="Helvetica,sans-Serif" font-size="10.00">IACForSubgraph</text>
</a>
</g>
</g>
<!-- Node7&#45;&gt;Node28 -->
<g id="edge32" class="edge">
<title>Node7&#45;&gt;Node28</title>
<path fill="none" stroke="midnightblue" d="M1106.97,-199.89C1088.19,-195.98 1068.38,-191.85 1050.06,-188.03"/>
<polygon fill="midnightblue" stroke="midnightblue" points="1106.47,-203.37 1116.98,-201.98 1107.9,-196.51 1106.47,-203.37"/>
</g>
<!-- Node30 -->
<g id="node30" class="node">
<title>Node30</title>
<g id="a_node30"><a xlink:href="classdenoptim_1_1graph_1_1_fragment.html#aa1cdff6a2da8a5c234a58317c8ac33e6" target="_top" xlink:title="Constructor from an atom container, which has APs only as molecular properties.">
<polygon fill="white" stroke="black" points="913,-109 913,-139 1041,-139 1041,-109 913,-109"/>
<text text-anchor="start" x="921" y="-127" font-family="Helvetica,sans-Serif" font-size="10.00">denoptim.graph.Fragment.</text>
<text text-anchor="middle" x="977" y="-116" font-family="Helvetica,sans-Serif" font-size="10.00">Fragment</text>
</a>
</g>
</g>
<!-- Node7&#45;&gt;Node30 -->
<g id="edge34" class="edge">
<title>Node7&#45;&gt;Node30</title>
<path fill="none" stroke="midnightblue" d="M1157.88,-196.52C1134.27,-181.7 1100.59,-162.05 1069,-149 1060.07,-145.31 1050.42,-141.99 1040.86,-139.07"/>
<polygon fill="midnightblue" stroke="midnightblue" points="1156.09,-199.53 1166.41,-201.94 1159.85,-193.62 1156.09,-199.53"/>
</g>
<!-- Node31 -->
<g id="node31" class="node">
<title>Node31</title>
<g id="a_node31"><a xlink:href="classdenoptim_1_1graph_1_1_candidate.html#aa1033981d50358ae3d89dc5def72e1e7" target="_top" xlink:title="Wraps an atom container as a candidate even if a graph is not available.">
<polygon fill="white" stroke="black" points="902,-60 902,-90 1052,-90 1052,-60 902,-60"/>
<text text-anchor="start" x="910" y="-78" font-family="Helvetica,sans-Serif" font-size="10.00">denoptim.graph.Candidate.from</text>
<text text-anchor="middle" x="977" y="-67" font-family="Helvetica,sans-Serif" font-size="10.00">AtomContainerNoGraph</text>
</a>
</g>
</g>
<!-- Node7&#45;&gt;Node31 -->
<g id="edge35" class="edge">
<title>Node7&#45;&gt;Node31</title>
<path fill="none" stroke="midnightblue" d="M1171.53,-193.99C1150.17,-167.48 1111.6,-124.41 1069,-100 1062.32,-96.17 1055.02,-92.91 1047.57,-90.13"/>
<polygon fill="midnightblue" stroke="midnightblue" points="1168.89,-196.3 1177.83,-201.98 1174.38,-191.96 1168.89,-196.3"/>
</g>
<!-- Node33 -->
<g id="node33" class="node">
<title>Node33</title>
<g id="a_node33"><a xlink:href="classdenoptim_1_1gui_1_1_vertex_as_two_dim_structure_view_panel_1_1_two_dim_structure_panel.html#a92418511f562021844aad4a286d1720d" target="_top" xlink:title=" ">
<polygon fill="white" stroke="black" points="885,-0.5 885,-41.5 1069,-41.5 1069,-0.5 885,-0.5"/>
<text text-anchor="start" x="893" y="-29.5" font-family="Helvetica,sans-Serif" font-size="10.00">denoptim.gui.VertexAsTwo</text>
<text text-anchor="start" x="893" y="-18.5" font-family="Helvetica,sans-Serif" font-size="10.00">DimStructureViewPanel.TwoDim</text>
<text text-anchor="middle" x="977" y="-7.5" font-family="Helvetica,sans-Serif" font-size="10.00">StructurePanel.TwoDimStructurePanel</text>
</a>
</g>
</g>
<!-- Node7&#45;&gt;Node33 -->
<g id="edge37" class="edge">
<title>Node7&#45;&gt;Node33</title>
<path fill="none" stroke="midnightblue" d="M1177.59,-192.17C1159.62,-155.72 1121.28,-87.97 1069,-50 1064.71,-46.88 1060.06,-44.09 1055.23,-41.59"/>
<polygon fill="midnightblue" stroke="midnightblue" points="1174.63,-194.07 1182.12,-201.56 1180.94,-191.04 1174.63,-194.07"/>
</g>
<!-- Node10&#45;&gt;Node10 -->
<g id="edge11" class="edge">
<title>Node10&#45;&gt;Node10</title>
<path fill="none" stroke="midnightblue" d="M1016.65,-331.62C1018.04,-337.86 1004.82,-343 977,-343 939.11,-343 928.31,-333.46 944.59,-324.61"/>
<polygon fill="midnightblue" stroke="midnightblue" points="1019.03,-329.05 1009.41,-324.61 1014.16,-334.08 1019.03,-329.05"/>
</g>
<!-- Node11 -->
<g id="node11" class="node">
<title>Node11</title>
<g id="a_node11"><a xlink:href="classdenoptim_1_1fragmenter_1_1_fragmenter_tools.html#a37c0e44680ec1c54fcff98dae0832a50" target="_top" xlink:title="Chops one chemical structure by applying the given cutting rules.">
<polygon fill="white" stroke="black" points="672.5,-555 672.5,-585 829.5,-585 829.5,-555 672.5,-555"/>
<text text-anchor="start" x="680.5" y="-573" font-family="Helvetica,sans-Serif" font-size="10.00">denoptim.fragmenter.Fragmenter</text>
<text text-anchor="middle" x="751" y="-562" font-family="Helvetica,sans-Serif" font-size="10.00">Tools.fragmentation</text>
</a>
</g>
</g>
<!-- Node10&#45;&gt;Node11 -->
<g id="edge12" class="edge">
<title>Node10&#45;&gt;Node11</title>
<path fill="none" stroke="midnightblue" d="M918.93,-328.17C906.13,-333.61 893.76,-341.26 885,-352 829.58,-419.96 909.15,-482.19 849,-546 843.53,-551.81 836.89,-556.3 829.68,-559.77"/>
<polygon fill="midnightblue" stroke="midnightblue" points="920.2,-331.43 928.29,-324.58 917.7,-324.89 920.2,-331.43"/>
</g>
<!-- Node12 -->
<g id="node12" class="node">
<title>Node12</title>
<g id="a_node12"><a xlink:href="classdenoptim_1_1fragmenter_1_1_clusterable_fragment.html#a1e02c5f6054d5764ff597bd12337345a" target="_top" xlink:title=" ">
<polygon fill="white" stroke="black" points="673,-506 673,-536 829,-536 829,-506 673,-506"/>
<text text-anchor="start" x="681" y="-524" font-family="Helvetica,sans-Serif" font-size="10.00">denoptim.fragmenter.Clusterable</text>
<text text-anchor="middle" x="751" y="-513" font-family="Helvetica,sans-Serif" font-size="10.00">Fragment.getTransformedCopy</text>
</a>
</g>
</g>
<!-- Node10&#45;&gt;Node12 -->
<g id="edge13" class="edge">
<title>Node10&#45;&gt;Node12</title>
<path fill="none" stroke="midnightblue" d="M920.14,-328.22C907.06,-333.67 894.26,-341.32 885,-352 841.52,-402.18 895.97,-450.07 849,-497 843.35,-502.64 836.61,-507.03 829.33,-510.43"/>
<polygon fill="midnightblue" stroke="midnightblue" points="921.55,-331.43 929.67,-324.62 919.07,-324.88 921.55,-331.43"/>
</g>
<!-- Node19 -->
<g id="node19" class="node">
<title>Node19</title>
<g id="a_node19"><a xlink:href="classdenoptim_1_1graph_1_1_fragment_test.html#a0a98792d99861bb6673e66a76ff49d31" target="_top" xlink:title=" ">
<polygon fill="white" stroke="black" points="669,-457 669,-487 833,-487 833,-457 669,-457"/>
<text text-anchor="start" x="677" y="-475" font-family="Helvetica,sans-Serif" font-size="10.00">denoptim.graph.FragmentTest.test</text>
<text text-anchor="middle" x="751" y="-464" font-family="Helvetica,sans-Serif" font-size="10.00">Clone</text>
</a>
</g>
</g>
<!-- Node10&#45;&gt;Node19 -->
<g id="edge21" class="edge">
<title>Node10&#45;&gt;Node19</title>
<path fill="none" stroke="midnightblue" d="M923.27,-328.04C909.41,-333.55 895.44,-341.27 885,-352 853.22,-384.66 883.04,-417.7 849,-448 844.33,-452.15 839.06,-455.61 833.45,-458.49"/>
<polygon fill="midnightblue" stroke="midnightblue" points="924.61,-331.28 932.8,-324.56 922.21,-324.7 924.61,-331.28"/>
</g>
<!-- Node20 -->
<g id="node20" class="node">
<title>Node20</title>
<g id="a_node20"><a xlink:href="classdenoptim_1_1graph_1_1_vertex_test.html#ab36c441c57e9852e2be6d810d80fbc87" target="_top" xlink:title=" ">
<polygon fill="white" stroke="black" points="675.5,-408 675.5,-438 826.5,-438 826.5,-408 675.5,-408"/>
<text text-anchor="start" x="683.5" y="-426" font-family="Helvetica,sans-Serif" font-size="10.00">denoptim.graph.VertexTest.test</text>
<text text-anchor="middle" x="751" y="-415" font-family="Helvetica,sans-Serif" font-size="10.00">Clone</text>
</a>
</g>
</g>
<!-- Node10&#45;&gt;Node20 -->
<g id="edge22" class="edge">
<title>Node10&#45;&gt;Node20</title>
<path fill="none" stroke="midnightblue" d="M931.01,-327.91C915.48,-333.72 898.59,-341.64 885,-352 864.08,-367.96 871.01,-384.58 849,-399 842.11,-403.51 834.43,-407.18 826.5,-410.16"/>
<polygon fill="midnightblue" stroke="midnightblue" points="932.2,-331.21 940.46,-324.57 929.86,-324.61 932.2,-331.21"/>
</g>
<!-- Node21 -->
<g id="node21" class="node">
<title>Node21</title>
<g id="a_node21"><a xlink:href="classdenoptim_1_1fragmenter_1_1_conformer_extractor_task_test.html#a2dc64f375774087fc0b4511384f50bc9" target="_top" xlink:title=" ">
<polygon fill="white" stroke="black" points="654,-348.5 654,-389.5 848,-389.5 848,-348.5 654,-348.5"/>
<text text-anchor="start" x="662" y="-377.5" font-family="Helvetica,sans-Serif" font-size="10.00">denoptim.fragmenter.Conformer</text>
<text text-anchor="start" x="662" y="-366.5" font-family="Helvetica,sans-Serif" font-size="10.00">ExtractorTaskTest.testExtractClusterable</text>
<text text-anchor="middle" x="751" y="-355.5" font-family="Helvetica,sans-Serif" font-size="10.00">Fragments</text>
</a>
</g>
</g>
<!-- Node10&#45;&gt;Node21 -->
<g id="edge23" class="edge">
<title>Node10&#45;&gt;Node21</title>
<path fill="none" stroke="midnightblue" d="M926.4,-326.96C900.17,-333.28 867.23,-341.22 837.07,-348.49"/>
<polygon fill="midnightblue" stroke="midnightblue" points="927.57,-330.28 936.47,-324.53 925.93,-323.47 927.57,-330.28"/>
</g>
<!-- Node22 -->
<g id="node22" class="node">
<title>Node22</title>
<g id="a_node22"><a xlink:href="classdenoptim_1_1fragmenter_1_1_fragment_alignement_test.html#ad46b9a4324bb5b9bbfc08c73de0e1124" target="_top" xlink:title=" ">
<polygon fill="white" stroke="black" points="657,-300 657,-330 845,-330 845,-300 657,-300"/>
<text text-anchor="start" x="665" y="-318" font-family="Helvetica,sans-Serif" font-size="10.00">denoptim.fragmenter.Fragment</text>
<text text-anchor="middle" x="751" y="-307" font-family="Helvetica,sans-Serif" font-size="10.00">AlignementTest.testGetMinimumRMSD</text>
</a>
</g>
</g>
<!-- Node10&#45;&gt;Node22 -->
<g id="edge24" class="edge">
<title>Node10&#45;&gt;Node22</title>
<path fill="none" stroke="midnightblue" d="M890.65,-315C875.82,-315 860.34,-315 845.32,-315"/>
<polygon fill="midnightblue" stroke="midnightblue" points="890.79,-318.5 900.79,-315 890.79,-311.5 890.79,-318.5"/>
</g>
<!-- Node23 -->
<g id="node23" class="node">
<title>Node23</title>
<g id="a_node23"><a xlink:href="classdenoptim_1_1graph_1_1_attachment_point_test.html#af88d30ce68477984fe6179325d1540b2" target="_top" xlink:title=" ">
<polygon fill="white" stroke="black" points="661,-202 661,-232 841,-232 841,-202 661,-202"/>
<text text-anchor="start" x="669" y="-220" font-family="Helvetica,sans-Serif" font-size="10.00">denoptim.graph.Attachment</text>
<text text-anchor="middle" x="751" y="-209" font-family="Helvetica,sans-Serif" font-size="10.00">PointTest.testHasConnectedSrcAtom</text>
</a>
</g>
</g>
<!-- Node10&#45;&gt;Node23 -->
<g id="edge25" class="edge">
<title>Node10&#45;&gt;Node23</title>
<path fill="none" stroke="midnightblue" d="M953.57,-299.6C928.9,-283.29 887.63,-257.74 849,-242 839.82,-238.26 829.92,-234.94 820.07,-232.05"/>
<polygon fill="midnightblue" stroke="midnightblue" points="951.91,-302.71 962.17,-305.37 955.81,-296.89 951.91,-302.71"/>
</g>
<!-- Node24 -->
<g id="node24" class="node">
<title>Node24</title>
<g id="a_node24"><a xlink:href="classdenoptim_1_1graph_1_1_attachment_point_test.html#a4889032266eb87d0f91af8b4e9869360" target="_top" xlink:title=" ">
<polygon fill="white" stroke="black" points="671.5,-251 671.5,-281 830.5,-281 830.5,-251 671.5,-251"/>
<text text-anchor="start" x="679.5" y="-269" font-family="Helvetica,sans-Serif" font-size="10.00">denoptim.graph.Attachment</text>
<text text-anchor="middle" x="751" y="-258" font-family="Helvetica,sans-Serif" font-size="10.00">PointTest.testHasSameSrcAtom</text>
</a>
</g>
</g>
<!-- Node10&#45;&gt;Node24 -->
<g id="edge26" class="edge">
<title>Node10&#45;&gt;Node24</title>
<path fill="none" stroke="midnightblue" d="M922.54,-303.31C892.09,-296.64 853.6,-288.23 820.9,-281.07"/>
<polygon fill="midnightblue" stroke="midnightblue" points="922.03,-306.78 932.54,-305.49 923.52,-299.94 922.03,-306.78"/>
</g>
<!-- Node13 -->
<g id="node13" class="node">
<title>Node13</title>
<g id="a_node13"><a xlink:href="classdenoptim_1_1fragmenter_1_1_fragment_clusterer.html#a1845241fead0bee7fd92feaf6d71e331" target="_top" xlink:title="Once the clustering is done, this method return the list of cluster centroids.">
<polygon fill="white" stroke="black" points="448,-506 448,-536 597,-536 597,-506 448,-506"/>
<text text-anchor="start" x="456" y="-524" font-family="Helvetica,sans-Serif" font-size="10.00">denoptim.fragmenter.Fragment</text>
<text text-anchor="middle" x="522.5" y="-513" font-family="Helvetica,sans-Serif" font-size="10.00">Clusterer.getClusterCentroids</text>
</a>
</g>
</g>
<!-- Node12&#45;&gt;Node13 -->
<g id="edge14" class="edge">
<title>Node12&#45;&gt;Node13</title>
<path fill="none" stroke="midnightblue" d="M662.52,-521C640.88,-521 617.92,-521 597.03,-521"/>
<polygon fill="midnightblue" stroke="midnightblue" points="662.69,-524.5 672.69,-521 662.69,-517.5 662.69,-524.5"/>
</g>
<!-- Node17 -->
<g id="node17" class="node">
<title>Node17</title>
<g id="a_node17"><a xlink:href="classdenoptim_1_1fragmenter_1_1_fragment_clusterer.html#aae37739ae959ab8a85bf01286c5a518e" target="_top" xlink:title="Once the clustering is done, this method return the list of fragments that are nearest to the respect...">
<polygon fill="white" stroke="black" points="428,-555 428,-585 617,-585 617,-555 428,-555"/>
<text text-anchor="start" x="436" y="-573" font-family="Helvetica,sans-Serif" font-size="10.00">denoptim.fragmenter.Fragment</text>
<text text-anchor="middle" x="522.5" y="-562" font-family="Helvetica,sans-Serif" font-size="10.00">Clusterer.getNearestToClusterCentroids</text>
</a>
</g>
</g>
<!-- Node12&#45;&gt;Node17 -->
<g id="edge18" class="edge">
<title>Node12&#45;&gt;Node17</title>
<path fill="none" stroke="midnightblue" d="M670.56,-538.19C645.23,-543.66 617.42,-549.68 592.87,-554.99"/>
<polygon fill="midnightblue" stroke="midnightblue" points="671.47,-541.57 680.5,-536.03 669.99,-534.73 671.47,-541.57"/>
</g>
<!-- Node18 -->
<g id="node18" class="node">
<title>Node18</title>
<g id="a_node18"><a xlink:href="classdenoptim_1_1fragmenter_1_1_clusterable_fragment_test.html#a30be40702849bf4781129bf3dabf88e8" target="_top" xlink:title=" ">
<polygon fill="white" stroke="black" points="428.5,-457 428.5,-487 616.5,-487 616.5,-457 428.5,-457"/>
<text text-anchor="start" x="436.5" y="-475" font-family="Helvetica,sans-Serif" font-size="10.00">denoptim.fragmenter.Clusterable</text>
<text text-anchor="middle" x="522.5" y="-464" font-family="Helvetica,sans-Serif" font-size="10.00">FragmentTest.testGetTransformedCopy</text>
</a>
</g>
</g>
<!-- Node12&#45;&gt;Node18 -->
<g id="edge20" class="edge">
<title>Node12&#45;&gt;Node18</title>
<path fill="none" stroke="midnightblue" d="M670.56,-503.81C645.23,-498.34 617.42,-492.32 592.87,-487.01"/>
<polygon fill="midnightblue" stroke="midnightblue" points="669.99,-507.27 680.5,-505.97 671.47,-500.43 669.99,-507.27"/>
</g>
<!-- Node14 -->
<g id="node14" class="node">
<title>Node14</title>
<g id="a_node14"><a xlink:href="classdenoptim_1_1fragmenter_1_1_conformer_extractor_task.html#aa21ebdf147f5bdb2685f9e775efd0b10" target="_top" xlink:title=" ">
<polygon fill="white" stroke="black" points="213,-555 213,-585 365,-585 365,-555 213,-555"/>
<text text-anchor="start" x="221" y="-573" font-family="Helvetica,sans-Serif" font-size="10.00">denoptim.fragmenter.Conformer</text>
<text text-anchor="middle" x="289" y="-562" font-family="Helvetica,sans-Serif" font-size="10.00">ExtractorTask.call</text>
</a>
</g>
</g>
<!-- Node13&#45;&gt;Node14 -->
<g id="edge15" class="edge">
<title>Node13&#45;&gt;Node14</title>
<path fill="none" stroke="midnightblue" d="M440.65,-538.11C414.67,-543.61 386.11,-549.66 360.9,-554.99"/>
<polygon fill="midnightblue" stroke="midnightblue" points="441.41,-541.53 450.47,-536.03 439.96,-534.68 441.41,-541.53"/>
</g>
<!-- Node16 -->
<g id="node16" class="node">
<title>Node16</title>
<g id="a_node16"><a xlink:href="classdenoptim_1_1fragmenter_1_1_fragment_clusterer_test.html#aa17925160f3f03080e8680c7016fc1c4" target="_top" xlink:title=" ">
<polygon fill="white" stroke="black" points="214.5,-506 214.5,-536 363.5,-536 363.5,-506 214.5,-506"/>
<text text-anchor="start" x="222.5" y="-524" font-family="Helvetica,sans-Serif" font-size="10.00">denoptim.fragmenter.Fragment</text>
<text text-anchor="middle" x="289" y="-513" font-family="Helvetica,sans-Serif" font-size="10.00">ClustererTest.testCluster</text>
</a>
</g>
</g>
<!-- Node13&#45;&gt;Node16 -->
<g id="edge17" class="edge">
<title>Node13&#45;&gt;Node16</title>
<path fill="none" stroke="midnightblue" d="M437.7,-521C413.51,-521 387.3,-521 363.77,-521"/>
<polygon fill="midnightblue" stroke="midnightblue" points="437.93,-524.5 447.93,-521 437.93,-517.5 437.93,-524.5"/>
</g>
<!-- Node15 -->
<g id="node15" class="node">
<title>Node15</title>
<g id="a_node15"><a xlink:href="classdenoptim_1_1programs_1_1fragmenter_1_1_fragmenter.html#aa27df9705e3aed34cc8cb8bc05e6ce85" target="_top" xlink:title=" ">
<polygon fill="white" stroke="black" points="0,-555 0,-585 150,-585 150,-555 0,-555"/>
<text text-anchor="start" x="8" y="-573" font-family="Helvetica,sans-Serif" font-size="10.00">denoptim.programs.fragmenter.</text>
<text text-anchor="middle" x="75" y="-562" font-family="Helvetica,sans-Serif" font-size="10.00">Fragmenter.runProgram</text>
</a>
</g>
</g>
<!-- Node14&#45;&gt;Node15 -->
<g id="edge16" class="edge">
<title>Node14&#45;&gt;Node15</title>
<path fill="none" stroke="midnightblue" d="M202.81,-570C185.4,-570 167.22,-570 150.23,-570"/>
<polygon fill="midnightblue" stroke="midnightblue" points="202.96,-573.5 212.96,-570 202.96,-566.5 202.96,-573.5"/>
</g>
<!-- Node17&#45;&gt;Node14 -->
<g id="edge19" class="edge">
<title>Node17&#45;&gt;Node14</title>
<path fill="none" stroke="midnightblue" d="M417.37,-570C399.77,-570 381.81,-570 365.14,-570"/>
<polygon fill="midnightblue" stroke="midnightblue" points="417.67,-573.5 427.67,-570 417.67,-566.5 417.67,-573.5"/>
</g>
<!-- Node25&#45;&gt;Node23 -->
<g id="edge30" class="edge">
<title>Node25&#45;&gt;Node23</title>
<path fill="none" stroke="midnightblue" d="M891.3,-217C874.87,-217 857.6,-217 841.03,-217"/>
<polygon fill="midnightblue" stroke="midnightblue" points="891.41,-220.5 901.41,-217 891.41,-213.5 891.41,-220.5"/>
</g>
<!-- Node25&#45;&gt;Node25 -->
<g id="edge28" class="edge">
<title>Node25&#45;&gt;Node25</title>
<path fill="none" stroke="midnightblue" d="M1016.65,-233.62C1018.04,-239.86 1004.82,-245 977,-245 939.11,-245 928.31,-235.46 944.59,-226.61"/>
<polygon fill="midnightblue" stroke="midnightblue" points="1019.03,-231.05 1009.41,-226.61 1014.16,-236.08 1019.03,-231.05"/>
</g>
<!-- Node26 -->
<g id="node26" class="node">
<title>Node26</title>
<g id="a_node26"><a xlink:href="classdenoptim_1_1graph_1_1_template_test.html#a72d37b4c24ad896838401b319b1d667e" target="_top" xlink:title=" ">
<polygon fill="white" stroke="black" points="669,-153 669,-183 833,-183 833,-153 669,-153"/>
<text text-anchor="start" x="677" y="-171" font-family="Helvetica,sans-Serif" font-size="10.00">denoptim.graph.TemplateTest.test</text>
<text text-anchor="middle" x="751" y="-160" font-family="Helvetica,sans-Serif" font-size="10.00">Clone</text>
</a>
</g>
</g>
<!-- Node25&#45;&gt;Node26 -->
<g id="edge29" class="edge">
<title>Node25&#45;&gt;Node26</title>
<path fill="none" stroke="midnightblue" d="M919.74,-205.4C908.24,-202.99 896.22,-200.44 885,-198 863.03,-193.23 839.04,-187.87 817.57,-183.01"/>
<polygon fill="midnightblue" stroke="midnightblue" points="919.17,-208.86 929.68,-207.48 920.6,-202.01 919.17,-208.86"/>
</g>
<!-- Node27 -->
<g id="node27" class="node">
<title>Node27</title>
<g id="a_node27"><a xlink:href="classdenoptim_1_1graph_1_1_template_test.html#a50688358b5a557ee51683082427bdc14" target="_top" xlink:title=" ">
<polygon fill="white" stroke="black" points="669,-104 669,-134 833,-134 833,-104 669,-104"/>
<text text-anchor="start" x="677" y="-122" font-family="Helvetica,sans-Serif" font-size="10.00">denoptim.graph.TemplateTest.test</text>
<text text-anchor="middle" x="751" y="-111" font-family="Helvetica,sans-Serif" font-size="10.00">NestedTemplateCloning</text>
</a>
</g>
</g>
<!-- Node25&#45;&gt;Node27 -->
<g id="edge31" class="edge">
<title>Node25&#45;&gt;Node27</title>
<path fill="none" stroke="midnightblue" d="M894.35,-203.42C891.1,-201.8 887.96,-200 885,-198 861.1,-181.85 872.52,-160.7 849,-144 843.61,-140.17 837.69,-136.93 831.5,-134.19"/>
<polygon fill="midnightblue" stroke="midnightblue" points="893.21,-206.74 903.78,-207.5 895.99,-200.32 893.21,-206.74"/>
</g>
<!-- Node29 -->
<g id="node29" class="node">
<title>Node29</title>
<g id="a_node29"><a xlink:href="classdenoptim_1_1fragspace_1_1_fragment_space.html#a32b0be109306e9c81fc830867296bc66" target="_top" xlink:title="Extracts a system of one or more fused rings and adds them to the fragment space if not already prese...">
<polygon fill="white" stroke="black" points="653,-55 653,-85 849,-85 849,-55 653,-55"/>
<text text-anchor="start" x="661" y="-73" font-family="Helvetica,sans-Serif" font-size="10.00">denoptim.fragspace.Fragment</text>
<text text-anchor="middle" x="751" y="-62" font-family="Helvetica,sans-Serif" font-size="10.00">Space.addFusedRingsToFragmentLibrary</text>
</a>
</g>
</g>
<!-- Node28&#45;&gt;Node29 -->
<g id="edge33" class="edge">
<title>Node28&#45;&gt;Node29</title>
<path fill="none" stroke="midnightblue" d="M891.52,-153.21C889.27,-151.9 887.09,-150.5 885,-149 861.53,-132.23 872.52,-111.7 849,-95 843.61,-91.17 837.69,-87.93 831.5,-85.19"/>
<polygon fill="midnightblue" stroke="midnightblue" points="890.01,-156.37 900.5,-157.87 893.23,-150.16 890.01,-156.37"/>
</g>
<!-- Node32 -->
<g id="node32" class="node">
<title>Node32</title>
<g id="a_node32"><a xlink:href="classdenoptim_1_1gui_1_1_molecule_view_panel.html#a747fcea053ce9110f17b68d7674b0b2d" target="_top" xlink:title="Loads a structure in the Jmol viewer.">
<polygon fill="white" stroke="black" points="661,-6 661,-36 841,-36 841,-6 661,-6"/>
<text text-anchor="start" x="669" y="-24" font-family="Helvetica,sans-Serif" font-size="10.00">denoptim.gui.MoleculeView</text>
<text text-anchor="middle" x="751" y="-13" font-family="Helvetica,sans-Serif" font-size="10.00">Panel.loadChemicalStructureFromFile</text>
</a>
</g>
</g>
<!-- Node31&#45;&gt;Node32 -->
<g id="edge36" class="edge">
<title>Node31&#45;&gt;Node32</title>
<path fill="none" stroke="midnightblue" d="M903.62,-57.55C874.87,-50.62 842.13,-42.73 814.45,-36.05"/>
<polygon fill="midnightblue" stroke="midnightblue" points="903.06,-61.02 913.6,-59.96 904.7,-54.21 903.06,-61.02"/>
</g>
</g>
</svg>
