<?xml version="1.0" encoding="UTF-8" standalone="no"?>
<!DOCTYPE svg PUBLIC "-//W3C//DTD SVG 1.1//EN"
 "http://www.w3.org/Graphics/SVG/1.1/DTD/svg11.dtd">
<!-- Generated by graphviz version 3.0.0 (20221109.1736)
 -->
<!-- Title: denoptim.graph.rings.RingClosureParameters.getRCDistTolerance Pages: 1 -->
<svg width="2350pt" height="187pt"
 viewBox="0.00 0.00 2350.00 186.50" xmlns="http://www.w3.org/2000/svg" xmlns:xlink="http://www.w3.org/1999/xlink">
<g id="graph0" class="graph" transform="scale(1 1) rotate(0) translate(4 182.5)">
<title>denoptim.graph.rings.RingClosureParameters.getRCDistTolerance</title>
<polygon fill="white" stroke="transparent" points="-4,4 -4,-182.5 2346,-182.5 2346,4 -4,4"/>
<!-- Node1 -->
<g id="node1" class="node">
<title>Node1</title>
<g id="a_node1"><a xlink:title=" ">
<polygon fill="#bfbfbf" stroke="black" points="2153,-114.5 2153,-144.5 2342,-144.5 2342,-114.5 2153,-114.5"/>
<text text-anchor="start" x="2161" y="-132.5" font-family="Helvetica,sans-Serif" font-size="10.00">denoptim.graph.rings.Ring</text>
<text text-anchor="middle" x="2247.5" y="-121.5" font-family="Helvetica,sans-Serif" font-size="10.00">ClosureParameters.getRCDistTolerance</text>
</a>
</g>
</g>
<!-- Node2 -->
<g id="node2" class="node">
<title>Node2</title>
<g id="a_node2"><a xlink:href="classdenoptim_1_1molecularmodeling_1_1_ring_closure_tool.html#a065481cf3ca3229eee8b417fa3f7c0b5" target="_top" xlink:title="Makes new rings by connecting pairs of atoms that hold properly arranged RingClosingAttractors.">
<polygon fill="white" stroke="black" points="1968.5,-139.5 1968.5,-169.5 2110.5,-169.5 2110.5,-139.5 1968.5,-139.5"/>
<text text-anchor="start" x="1976.5" y="-157.5" font-family="Helvetica,sans-Serif" font-size="10.00">denoptim.molecularmodeling.</text>
<text text-anchor="middle" x="2039.5" y="-146.5" font-family="Helvetica,sans-Serif" font-size="10.00">RingClosureTool.closeRings</text>
</a>
</g>
</g>
<!-- Node1&#45;&gt;Node2 -->
<g id="edge1" class="edge">
<title>Node1&#45;&gt;Node2</title>
<path fill="none" stroke="midnightblue" d="M2142.88,-142.08C2132.02,-143.39 2121.16,-144.71 2110.8,-145.97"/>
<polygon fill="midnightblue" stroke="midnightblue" points="2143.34,-145.55 2152.84,-140.87 2142.49,-138.6 2143.34,-145.55"/>
</g>
<!-- Node7 -->
<g id="node7" class="node">
<title>Node7</title>
<g id="a_node7"><a xlink:href="classdenoptim_1_1graph_1_1rings_1_1_ring_closure.html#a3f5608b6f2844cb59cd1c709c5912072" target="_top" xlink:title="Returns the list of min/max values defining the closability conditions.">
<polygon fill="white" stroke="black" points="1962,-90.5 1962,-120.5 2117,-120.5 2117,-90.5 1962,-90.5"/>
<text text-anchor="start" x="1970" y="-108.5" font-family="Helvetica,sans-Serif" font-size="10.00">denoptim.graph.rings.Ring</text>
<text text-anchor="middle" x="2039.5" y="-97.5" font-family="Helvetica,sans-Serif" font-size="10.00">Closure.getClosabilityConditions</text>
</a>
</g>
</g>
<!-- Node1&#45;&gt;Node7 -->
<g id="edge6" class="edge">
<title>Node1&#45;&gt;Node7</title>
<path fill="none" stroke="midnightblue" d="M2142.77,-117.42C2134.19,-116.41 2125.61,-115.42 2117.27,-114.44"/>
<polygon fill="midnightblue" stroke="midnightblue" points="2142.51,-120.91 2152.84,-118.59 2143.32,-113.95 2142.51,-120.91"/>
</g>
<!-- Node3 -->
<g id="node3" class="node">
<title>Node3</title>
<g id="a_node3"><a xlink:href="classdenoptim_1_1molecularmodeling_1_1_ring_closure_tool.html#abd87e8b7391948be1c3156eb9d131be7" target="_top" xlink:title="Attempts to close rings by finding the conformation that allows to join heads and tails of atom speci...">
<polygon fill="white" stroke="black" points="1750,-139.5 1750,-169.5 1926,-169.5 1926,-139.5 1750,-139.5"/>
<text text-anchor="start" x="1758" y="-157.5" font-family="Helvetica,sans-Serif" font-size="10.00">denoptim.molecularmodeling.</text>
<text text-anchor="middle" x="1838" y="-146.5" font-family="Helvetica,sans-Serif" font-size="10.00">RingClosureTool.attemptRingClosure</text>
</a>
</g>
</g>
<!-- Node2&#45;&gt;Node3 -->
<g id="edge2" class="edge">
<title>Node2&#45;&gt;Node3</title>
<path fill="none" stroke="midnightblue" d="M1958.36,-154.5C1947.73,-154.5 1936.8,-154.5 1926.06,-154.5"/>
<polygon fill="midnightblue" stroke="midnightblue" points="1958.44,-158 1968.44,-154.5 1958.44,-151 1958.44,-158"/>
</g>
<!-- Node4 -->
<g id="node4" class="node">
<title>Node4</title>
<g id="a_node4"><a xlink:href="classdenoptim_1_1molecularmodeling_1_1_ring_closure_tool.html#a26896649739e0a5e63dd88079c6efe7a" target="_top" xlink:title="Performs one or more attempts to close rings by conformational adaptation.">
<polygon fill="white" stroke="black" points="1522,-140.5 1522,-170.5 1714,-170.5 1714,-140.5 1522,-140.5"/>
<text text-anchor="start" x="1530" y="-158.5" font-family="Helvetica,sans-Serif" font-size="10.00">denoptim.molecularmodeling.</text>
<text text-anchor="middle" x="1618" y="-147.5" font-family="Helvetica,sans-Serif" font-size="10.00">RingClosureTool.attemptAllRingClosures</text>
</a>
</g>
</g>
<!-- Node3&#45;&gt;Node4 -->
<g id="edge3" class="edge">
<title>Node3&#45;&gt;Node4</title>
<path fill="none" stroke="midnightblue" d="M1739.64,-154.95C1731.19,-154.99 1722.63,-155.02 1714.19,-155.06"/>
<polygon fill="midnightblue" stroke="midnightblue" points="1739.92,-158.45 1749.9,-154.9 1739.88,-151.45 1739.92,-158.45"/>
</g>
<!-- Node5 -->
<g id="node5" class="node">
<title>Node5</title>
<g id="a_node5"><a xlink:href="classdenoptim_1_1molecularmodeling_1_1_multi_molecular_model_builder.html#a6a8e314f3fb37f66c32c8c4d5695b8a4" target="_top" xlink:title="Given the graph representation of the molecular constitution, along with the 3D coordinates of the fr...">
<polygon fill="white" stroke="black" points="1317,-137 1317,-178 1475,-178 1475,-137 1317,-137"/>
<text text-anchor="start" x="1325" y="-166" font-family="Helvetica,sans-Serif" font-size="10.00">denoptim.molecularmodeling.</text>
<text text-anchor="start" x="1325" y="-155" font-family="Helvetica,sans-Serif" font-size="10.00">MultiMolecularModelBuilder.build</text>
<text text-anchor="middle" x="1396" y="-144" font-family="Helvetica,sans-Serif" font-size="10.00">Multi3DStructure</text>
</a>
</g>
</g>
<!-- Node4&#45;&gt;Node5 -->
<g id="edge4" class="edge">
<title>Node4&#45;&gt;Node5</title>
<path fill="none" stroke="midnightblue" d="M1511.53,-156.46C1499.28,-156.57 1486.96,-156.68 1475.17,-156.79"/>
<polygon fill="midnightblue" stroke="midnightblue" points="1511.82,-159.96 1521.78,-156.37 1511.75,-152.96 1511.82,-159.96"/>
</g>
<!-- Node6 -->
<g id="node6" class="node">
<title>Node6</title>
<g id="a_node6"><a xlink:href="classdenoptim_1_1programs_1_1moldecularmodelbuilder_1_1_molecular_model_builder.html#ad2e44290de6a861274def677044e9754" target="_top" xlink:title=" ">
<polygon fill="white" stroke="black" points="1064,-142.5 1064,-172.5 1270,-172.5 1270,-142.5 1064,-142.5"/>
<text text-anchor="start" x="1072" y="-160.5" font-family="Helvetica,sans-Serif" font-size="10.00">denoptim.programs.moldecularmodelbuilder.</text>
<text text-anchor="middle" x="1167" y="-149.5" font-family="Helvetica,sans-Serif" font-size="10.00">MolecularModelBuilder.runProgram</text>
</a>
</g>
</g>
<!-- Node5&#45;&gt;Node6 -->
<g id="edge5" class="edge">
<title>Node5&#45;&gt;Node6</title>
<path fill="none" stroke="midnightblue" d="M1306.55,-157.5C1294.67,-157.5 1282.41,-157.5 1270.32,-157.5"/>
<polygon fill="midnightblue" stroke="midnightblue" points="1306.88,-161 1316.88,-157.5 1306.88,-154 1306.88,-161"/>
</g>
<!-- Node8 -->
<g id="node8" class="node">
<title>Node8</title>
<g id="a_node8"><a xlink:href="classdenoptim_1_1graph_1_1rings_1_1_ring_closure_finder.html#a51c84fa00fdd0c1c2642f21070f222fa" target="_top" xlink:title="Giving a list of points in 3D space (the path) this method evaluates whether it exists at least one c...">
<polygon fill="white" stroke="black" points="1758,-90.5 1758,-120.5 1918,-120.5 1918,-90.5 1758,-90.5"/>
<text text-anchor="start" x="1766" y="-108.5" font-family="Helvetica,sans-Serif" font-size="10.00">denoptim.graph.rings.Ring</text>
<text text-anchor="middle" x="1838" y="-97.5" font-family="Helvetica,sans-Serif" font-size="10.00">ClosureFinder.evaluateClosability</text>
</a>
</g>
</g>
<!-- Node7&#45;&gt;Node8 -->
<g id="edge7" class="edge">
<title>Node7&#45;&gt;Node8</title>
<path fill="none" stroke="midnightblue" d="M1951.8,-105.5C1940.68,-105.5 1929.33,-105.5 1918.33,-105.5"/>
<polygon fill="midnightblue" stroke="midnightblue" points="1951.94,-109 1961.94,-105.5 1951.94,-102 1951.94,-109"/>
</g>
<!-- Node9 -->
<g id="node9" class="node">
<title>Node9</title>
<g id="a_node9"><a xlink:href="classdenoptim_1_1graph_1_1rings_1_1_cyclic_graph_handler.html#ab2b4cde037177c1fc44191de9b023dc3" target="_top" xlink:title="Method to evaluate the closability of a single path in a graph representing a molecule.">
<polygon fill="white" stroke="black" points="1522,-90.5 1522,-120.5 1714,-120.5 1714,-90.5 1522,-90.5"/>
<text text-anchor="start" x="1530" y="-108.5" font-family="Helvetica,sans-Serif" font-size="10.00">denoptim.graph.rings.Cyclic</text>
<text text-anchor="middle" x="1618" y="-97.5" font-family="Helvetica,sans-Serif" font-size="10.00">GraphHandler.evaluate3DPathClosability</text>
</a>
</g>
</g>
<!-- Node8&#45;&gt;Node9 -->
<g id="edge8" class="edge">
<title>Node8&#45;&gt;Node9</title>
<path fill="none" stroke="midnightblue" d="M1747.86,-105.5C1736.72,-105.5 1725.3,-105.5 1714.08,-105.5"/>
<polygon fill="midnightblue" stroke="midnightblue" points="1747.99,-109 1757.99,-105.5 1747.99,-102 1747.99,-109"/>
</g>
<!-- Node10 -->
<g id="node10" class="node">
<title>Node10</title>
<g id="a_node10"><a xlink:href="classdenoptim_1_1graph_1_1rings_1_1_cyclic_graph_handler.html#abd43d52fe626625dab3da6a32038e57b" target="_top" xlink:title="Method to evaluate the closability of a single path in a graph representing a molecule.">
<polygon fill="white" stroke="black" points="1306,-88.5 1306,-118.5 1486,-118.5 1486,-88.5 1306,-88.5"/>
<text text-anchor="start" x="1314" y="-106.5" font-family="Helvetica,sans-Serif" font-size="10.00">denoptim.graph.rings.Cyclic</text>
<text text-anchor="middle" x="1396" y="-95.5" font-family="Helvetica,sans-Serif" font-size="10.00">GraphHandler.evaluatePathClosability</text>
</a>
</g>
</g>
<!-- Node9&#45;&gt;Node10 -->
<g id="edge9" class="edge">
<title>Node9&#45;&gt;Node10</title>
<path fill="none" stroke="midnightblue" d="M1511.75,-104.54C1503.17,-104.47 1494.56,-104.39 1486.11,-104.31"/>
<polygon fill="midnightblue" stroke="midnightblue" points="1511.75,-108.04 1521.78,-104.63 1511.82,-101.04 1511.75,-108.04"/>
</g>
<!-- Node11 -->
<g id="node11" class="node">
<title>Node11</title>
<g id="a_node11"><a xlink:href="classdenoptim_1_1graph_1_1rings_1_1_cyclic_graph_handler.html#a3ce96322723f45d9285a248ebcef94d3" target="_top" xlink:title="Identifies all possible ring closing paths and returns them as list of DENOPTIMRings ready to be appe...">
<polygon fill="white" stroke="black" points="1075,-23 1075,-64 1259,-64 1259,-23 1075,-23"/>
<text text-anchor="start" x="1083" y="-52" font-family="Helvetica,sans-Serif" font-size="10.00">denoptim.graph.rings.Cyclic</text>
<text text-anchor="start" x="1083" y="-41" font-family="Helvetica,sans-Serif" font-size="10.00">GraphHandler.getPossibleCombination</text>
<text text-anchor="middle" x="1167" y="-30" font-family="Helvetica,sans-Serif" font-size="10.00">OfRings</text>
</a>
</g>
</g>
<!-- Node10&#45;&gt;Node11 -->
<g id="edge10" class="edge">
<title>Node10&#45;&gt;Node11</title>
<path fill="none" stroke="midnightblue" d="M1328.28,-85.87C1302.36,-79.01 1272.48,-71.12 1245.6,-64.01"/>
<polygon fill="midnightblue" stroke="midnightblue" points="1327.45,-89.27 1338.01,-88.44 1329.24,-82.5 1327.45,-89.27"/>
</g>
<!-- Node25 -->
<g id="node25" class="node">
<title>Node25</title>
<g id="a_node25"><a xlink:href="classdenoptim_1_1graph_1_1rings_1_1_cyclic_graph_handler.html#a08b02946eaac7c2cbbe6e71332d702e6" target="_top" xlink:title="Identifies a random combination of ring closing paths and returns it as list of DENOPTIMRings ready t...">
<polygon fill="white" stroke="black" points="1076,-83 1076,-124 1258,-124 1258,-83 1076,-83"/>
<text text-anchor="start" x="1084" y="-112" font-family="Helvetica,sans-Serif" font-size="10.00">denoptim.graph.rings.Cyclic</text>
<text text-anchor="start" x="1084" y="-101" font-family="Helvetica,sans-Serif" font-size="10.00">GraphHandler.getRandomCombination</text>
<text text-anchor="middle" x="1167" y="-90" font-family="Helvetica,sans-Serif" font-size="10.00">OfRings</text>
</a>
</g>
</g>
<!-- Node10&#45;&gt;Node25 -->
<g id="edge28" class="edge">
<title>Node10&#45;&gt;Node25</title>
<path fill="none" stroke="midnightblue" d="M1295.58,-103.5C1283.18,-103.5 1270.55,-103.5 1258.3,-103.5"/>
<polygon fill="midnightblue" stroke="midnightblue" points="1295.94,-107 1305.94,-103.5 1295.94,-100 1295.94,-107"/>
</g>
<!-- Node12 -->
<g id="node12" class="node">
<title>Node12</title>
<g id="a_node12"><a xlink:href="classdenoptim_1_1graph_1_1_d_graph.html#a7a4743d014e860237f4b20703ef9779b" target="_top" xlink:title="Evaluates the possibility of closing rings in this graph and generates all alternative graphs resulti...">
<polygon fill="white" stroke="black" points="873,-19.5 873,-49.5 1028,-49.5 1028,-19.5 873,-19.5"/>
<text text-anchor="start" x="881" y="-37.5" font-family="Helvetica,sans-Serif" font-size="10.00">denoptim.graph.DGraph.make</text>
<text text-anchor="middle" x="950.5" y="-26.5" font-family="Helvetica,sans-Serif" font-size="10.00">AllGraphsWithDifferentRingSets</text>
</a>
</g>
</g>
<!-- Node11&#45;&gt;Node12 -->
<g id="edge11" class="edge">
<title>Node11&#45;&gt;Node12</title>
<path fill="none" stroke="midnightblue" d="M1064.49,-39.24C1052.27,-38.73 1039.95,-38.21 1028.17,-37.72"/>
<polygon fill="midnightblue" stroke="midnightblue" points="1064.58,-42.75 1074.72,-39.67 1064.88,-35.75 1064.58,-42.75"/>
</g>
<!-- Node14 -->
<g id="node14" class="node">
<title>Node14</title>
<g id="a_node14"><a xlink:href="classdenoptim_1_1ga_1_1_e_a_utils.html#a1ddb932d4618434d435e4f85ce5e5eb5" target="_top" xlink:title="Evaluates the possibility of closing rings in a given graph and if any ring can be closed,...">
<polygon fill="white" stroke="black" points="885,-88.5 885,-118.5 1016,-118.5 1016,-88.5 885,-88.5"/>
<text text-anchor="start" x="893" y="-106.5" font-family="Helvetica,sans-Serif" font-size="10.00">denoptim.ga.EAUtils.setup</text>
<text text-anchor="middle" x="950.5" y="-95.5" font-family="Helvetica,sans-Serif" font-size="10.00">Rings</text>
</a>
</g>
</g>
<!-- Node11&#45;&gt;Node14 -->
<g id="edge13" class="edge">
<title>Node11&#45;&gt;Node14</title>
<path fill="none" stroke="midnightblue" d="M1082.63,-66.82C1056.64,-74.09 1028.68,-81.91 1005.28,-88.46"/>
<polygon fill="midnightblue" stroke="midnightblue" points="1083.79,-70.13 1092.48,-64.06 1081.91,-63.39 1083.79,-70.13"/>
</g>
<!-- Node13 -->
<g id="node13" class="node">
<title>Node13</title>
<g id="a_node13"><a xlink:href="classdenoptim_1_1combinatorial_1_1_graph_building_task.html#a3eaee724fc921194fa158714aafe182d" target="_top" xlink:title="Calls the task.">
<polygon fill="white" stroke="black" points="692,-0.5 692,-30.5 837,-30.5 837,-0.5 692,-0.5"/>
<text text-anchor="start" x="700" y="-18.5" font-family="Helvetica,sans-Serif" font-size="10.00">denoptim.combinatorial.Graph</text>
<text text-anchor="middle" x="764.5" y="-7.5" font-family="Helvetica,sans-Serif" font-size="10.00">BuildingTask.call</text>
</a>
</g>
</g>
<!-- Node12&#45;&gt;Node13 -->
<g id="edge12" class="edge">
<title>Node12&#45;&gt;Node13</title>
<path fill="none" stroke="midnightblue" d="M862.75,-25.54C854.15,-24.65 845.49,-23.76 837.07,-22.89"/>
<polygon fill="midnightblue" stroke="midnightblue" points="862.49,-29.03 872.8,-26.58 863.21,-22.07 862.49,-29.03"/>
</g>
<!-- Node15 -->
<g id="node15" class="node">
<title>Node15</title>
<g id="a_node15"><a xlink:href="classdenoptim_1_1ga_1_1_e_a_utils.html#a8122818f58919fce84dce75e7506025a" target="_top" xlink:title=" ">
<polygon fill="white" stroke="black" points="701,-49.5 701,-79.5 828,-79.5 828,-49.5 701,-49.5"/>
<text text-anchor="start" x="709" y="-67.5" font-family="Helvetica,sans-Serif" font-size="10.00">denoptim.ga.EAUtils.build</text>
<text text-anchor="middle" x="764.5" y="-56.5" font-family="Helvetica,sans-Serif" font-size="10.00">CandidateByMutation</text>
</a>
</g>
</g>
<!-- Node14&#45;&gt;Node15 -->
<g id="edge14" class="edge">
<title>Node14&#45;&gt;Node15</title>
<path fill="none" stroke="midnightblue" d="M874.81,-87.67C859.31,-84.38 843.12,-80.95 828.1,-77.77"/>
<polygon fill="midnightblue" stroke="midnightblue" points="874.38,-91.16 884.89,-89.8 875.83,-84.31 874.38,-91.16"/>
</g>
<!-- Node22 -->
<g id="node22" class="node">
<title>Node22</title>
<g id="a_node22"><a xlink:href="classdenoptim_1_1ga_1_1_e_a_utils.html#ad3d2daeb11e68a356e971ca1846596b5" target="_top" xlink:title=" ">
<polygon fill="white" stroke="black" points="701,-147.5 701,-177.5 828,-177.5 828,-147.5 701,-147.5"/>
<text text-anchor="start" x="709" y="-165.5" font-family="Helvetica,sans-Serif" font-size="10.00">denoptim.ga.EAUtils.build</text>
<text text-anchor="middle" x="764.5" y="-154.5" font-family="Helvetica,sans-Serif" font-size="10.00">CandidateFromScratch</text>
</a>
</g>
</g>
<!-- Node14&#45;&gt;Node22 -->
<g id="edge22" class="edge">
<title>Node14&#45;&gt;Node22</title>
<path fill="none" stroke="midnightblue" d="M892.93,-121.64C867.09,-129.92 836.86,-139.62 812.32,-147.49"/>
<polygon fill="midnightblue" stroke="midnightblue" points="894.14,-124.93 902.59,-118.54 892,-118.26 894.14,-124.93"/>
</g>
<!-- Node24 -->
<g id="node24" class="node">
<title>Node24</title>
<g id="a_node24"><a xlink:href="classdenoptim_1_1ga_1_1_e_a_utils.html#a0b958439d79fae30f14530213ad22e3a" target="_top" xlink:title="Generates up to a pair of new offspring by performing a crossover operation.">
<polygon fill="white" stroke="black" points="701,-98.5 701,-128.5 828,-128.5 828,-98.5 701,-98.5"/>
<text text-anchor="start" x="709" y="-116.5" font-family="Helvetica,sans-Serif" font-size="10.00">denoptim.ga.EAUtils.build</text>
<text text-anchor="middle" x="764.5" y="-105.5" font-family="Helvetica,sans-Serif" font-size="10.00">CandidatesByXOver</text>
</a>
</g>
</g>
<!-- Node14&#45;&gt;Node24 -->
<g id="edge27" class="edge">
<title>Node14&#45;&gt;Node24</title>
<path fill="none" stroke="midnightblue" d="M874.81,-107.56C859.31,-108.4 843.12,-109.28 828.1,-110.1"/>
<polygon fill="midnightblue" stroke="midnightblue" points="875.09,-111.05 884.89,-107.01 874.71,-104.06 875.09,-111.05"/>
</g>
<!-- Node16 -->
<g id="node16" class="node">
<title>Node16</title>
<g id="a_node16"><a xlink:href="classdenoptim_1_1ga_1_1_evolutionary_algorithm.html#a0c2e353b243250b4959a3f86608f1020" target="_top" xlink:title="Generates one offspring according to the method where crossover and mutation are decoupled,...">
<polygon fill="white" stroke="black" points="526,-52.5 526,-82.5 656,-82.5 656,-52.5 526,-52.5"/>
<text text-anchor="start" x="534" y="-70.5" font-family="Helvetica,sans-Serif" font-size="10.00">denoptim.ga.Evolutionary</text>
<text text-anchor="middle" x="591" y="-59.5" font-family="Helvetica,sans-Serif" font-size="10.00">Algorithm.makeOffspringA</text>
</a>
</g>
</g>
<!-- Node15&#45;&gt;Node16 -->
<g id="edge15" class="edge">
<title>Node15&#45;&gt;Node16</title>
<path fill="none" stroke="midnightblue" d="M690.61,-65.77C679.12,-65.98 667.3,-66.18 656.03,-66.38"/>
<polygon fill="midnightblue" stroke="midnightblue" points="690.68,-69.27 700.61,-65.6 690.55,-62.28 690.68,-69.27"/>
</g>
<!-- Node21 -->
<g id="node21" class="node">
<title>Node21</title>
<g id="a_node21"><a xlink:href="classdenoptim_1_1ga_1_1_evolutionary_algorithm.html#ae7a90a911b109ed47b3acf54193acc35" target="_top" xlink:title="Generates one offspring according to the method where crossover and mutation are coupled,...">
<polygon fill="white" stroke="black" points="526,-101.5 526,-131.5 656,-131.5 656,-101.5 526,-101.5"/>
<text text-anchor="start" x="534" y="-119.5" font-family="Helvetica,sans-Serif" font-size="10.00">denoptim.ga.Evolutionary</text>
<text text-anchor="middle" x="591" y="-108.5" font-family="Helvetica,sans-Serif" font-size="10.00">Algorithm.makeOffspringB</text>
</a>
</g>
</g>
<!-- Node15&#45;&gt;Node21 -->
<g id="edge20" class="edge">
<title>Node15&#45;&gt;Node21</title>
<path fill="none" stroke="midnightblue" d="M704.07,-82.52C683.66,-88.71 661.04,-95.57 641.49,-101.49"/>
<polygon fill="midnightblue" stroke="midnightblue" points="705.34,-85.79 713.9,-79.54 703.31,-79.09 705.34,-85.79"/>
</g>
<!-- Node17 -->
<g id="node17" class="node">
<title>Node17</title>
<g id="a_node17"><a xlink:href="classdenoptim_1_1ga_1_1_evolutionary_algorithm.html#a596b2f5f0b097c5b67a6e5163bd6fe66" target="_top" xlink:title="Generates a given number of new candidate items and adds them to the current population.">
<polygon fill="white" stroke="black" points="353,-98.5 353,-128.5 487,-128.5 487,-98.5 353,-98.5"/>
<text text-anchor="start" x="361" y="-116.5" font-family="Helvetica,sans-Serif" font-size="10.00">denoptim.ga.Evolutionary</text>
<text text-anchor="middle" x="420" y="-105.5" font-family="Helvetica,sans-Serif" font-size="10.00">Algorithm.evolvePopulation</text>
</a>
</g>
</g>
<!-- Node16&#45;&gt;Node17 -->
<g id="edge16" class="edge">
<title>Node16&#45;&gt;Node17</title>
<path fill="none" stroke="midnightblue" d="M524.81,-85.24C508.75,-89.61 491.71,-94.25 476.17,-98.48"/>
<polygon fill="midnightblue" stroke="midnightblue" points="525.93,-88.57 534.66,-82.56 524.09,-81.81 525.93,-88.57"/>
</g>
<!-- Node18 -->
<g id="node18" class="node">
<title>Node18</title>
<g id="a_node18"><a xlink:href="classdenoptim_1_1ga_1_1_evolutionary_algorithm.html#a6bfc2fa59b199da6259b5b6bad3d6de7" target="_top" xlink:title=" ">
<polygon fill="white" stroke="black" points="190,-122.5 190,-152.5 314,-152.5 314,-122.5 190,-122.5"/>
<text text-anchor="start" x="198" y="-140.5" font-family="Helvetica,sans-Serif" font-size="10.00">denoptim.ga.Evolutionary</text>
<text text-anchor="middle" x="252" y="-129.5" font-family="Helvetica,sans-Serif" font-size="10.00">Algorithm.run</text>
</a>
</g>
</g>
<!-- Node17&#45;&gt;Node18 -->
<g id="edge17" class="edge">
<title>Node17&#45;&gt;Node18</title>
<path fill="none" stroke="midnightblue" d="M342.9,-124.5C333.21,-125.9 323.41,-127.32 314.01,-128.68"/>
<polygon fill="midnightblue" stroke="midnightblue" points="343.52,-127.95 352.92,-123.05 342.52,-121.02 343.52,-127.95"/>
</g>
<!-- Node19 -->
<g id="node19" class="node">
<title>Node19</title>
<g id="a_node19"><a xlink:href="classdenoptim_1_1ga_1_1_evolutionary_algorithm.html#a0f2063b722b7291daf83d62acaa683d3" target="_top" xlink:title=" ">
<polygon fill="white" stroke="black" points="0,-147.5 0,-177.5 154,-177.5 154,-147.5 0,-147.5"/>
<text text-anchor="start" x="8" y="-165.5" font-family="Helvetica,sans-Serif" font-size="10.00">denoptim.ga.Evolutionary</text>
<text text-anchor="middle" x="77" y="-154.5" font-family="Helvetica,sans-Serif" font-size="10.00">Algorithm.EvolutionaryAlgorithm</text>
</a>
</g>
</g>
<!-- Node18&#45;&gt;Node19 -->
<g id="edge18" class="edge">
<title>Node18&#45;&gt;Node19</title>
<path fill="none" stroke="midnightblue" d="M179.44,-147.84C171.09,-149.05 162.54,-150.28 154.12,-151.5"/>
<polygon fill="midnightblue" stroke="midnightblue" points="180.12,-151.28 189.52,-146.38 179.12,-144.35 180.12,-151.28"/>
</g>
<!-- Node20 -->
<g id="node20" class="node">
<title>Node20</title>
<g id="a_node20"><a xlink:href="classdenoptim_1_1programs_1_1denovo_1_1_g_a_runner.html#a7cafd6d78727b89dce3e2c8d06f0dd7c" target="_top" xlink:title=" ">
<polygon fill="white" stroke="black" points="9.5,-98.5 9.5,-128.5 144.5,-128.5 144.5,-98.5 9.5,-98.5"/>
<text text-anchor="start" x="17.5" y="-116.5" font-family="Helvetica,sans-Serif" font-size="10.00">denoptim.programs.denovo.</text>
<text text-anchor="middle" x="77" y="-105.5" font-family="Helvetica,sans-Serif" font-size="10.00">GARunner.runProgram</text>
</a>
</g>
</g>
<!-- Node18&#45;&gt;Node20 -->
<g id="edge19" class="edge">
<title>Node18&#45;&gt;Node20</title>
<path fill="none" stroke="midnightblue" d="M179.48,-127.58C167.92,-125.97 156,-124.32 144.57,-122.73"/>
<polygon fill="midnightblue" stroke="midnightblue" points="179.13,-131.06 189.52,-128.97 180.1,-124.13 179.13,-131.06"/>
</g>
<!-- Node21&#45;&gt;Node17 -->
<g id="edge21" class="edge">
<title>Node21&#45;&gt;Node17</title>
<path fill="none" stroke="midnightblue" d="M515.48,-115.18C506.05,-115.01 496.45,-114.84 487.16,-114.67"/>
<polygon fill="midnightblue" stroke="midnightblue" points="515.57,-118.68 525.63,-115.36 515.69,-111.68 515.57,-118.68"/>
</g>
<!-- Node22&#45;&gt;Node16 -->
<g id="edge25" class="edge">
<title>Node22&#45;&gt;Node16</title>
<path fill="none" stroke="midnightblue" d="M698.58,-142.71C696.31,-141.39 694.11,-139.99 692,-138.5 670.8,-123.52 676.83,-107.99 656,-92.5 650.93,-88.73 645.21,-85.44 639.34,-82.61"/>
<polygon fill="midnightblue" stroke="midnightblue" points="697.17,-145.91 707.66,-147.4 700.38,-139.7 697.17,-145.91"/>
</g>
<!-- Node22&#45;&gt;Node21 -->
<g id="edge26" class="edge">
<title>Node22&#45;&gt;Node21</title>
<path fill="none" stroke="midnightblue" d="M697.35,-144.76C681.05,-140.39 663.75,-135.75 647.99,-131.52"/>
<polygon fill="midnightblue" stroke="midnightblue" points="696.78,-148.23 707.34,-147.44 698.59,-141.47 696.78,-148.23"/>
</g>
<!-- Node23 -->
<g id="node23" class="node">
<title>Node23</title>
<g id="a_node23"><a xlink:href="classdenoptim_1_1ga_1_1_evolutionary_algorithm.html#ad43588620dab3340e0d8b0042ec73618" target="_top" xlink:title="Fills up the population with candidates build from scratch.">
<polygon fill="white" stroke="black" points="350,-147.5 350,-177.5 490,-177.5 490,-147.5 350,-147.5"/>
<text text-anchor="start" x="358" y="-165.5" font-family="Helvetica,sans-Serif" font-size="10.00">denoptim.ga.Evolutionary</text>
<text text-anchor="middle" x="420" y="-154.5" font-family="Helvetica,sans-Serif" font-size="10.00">Algorithm.initializePopulation</text>
</a>
</g>
</g>
<!-- Node22&#45;&gt;Node23 -->
<g id="edge23" class="edge">
<title>Node22&#45;&gt;Node23</title>
<path fill="none" stroke="midnightblue" d="M690.65,-162.5C631.42,-162.5 548.41,-162.5 490.19,-162.5"/>
<polygon fill="midnightblue" stroke="midnightblue" points="690.68,-166 700.68,-162.5 690.68,-159 690.68,-166"/>
</g>
<!-- Node23&#45;&gt;Node18 -->
<g id="edge24" class="edge">
<title>Node23&#45;&gt;Node18</title>
<path fill="none" stroke="midnightblue" d="M339.6,-150.54C331.08,-149.26 322.5,-147.97 314.24,-146.72"/>
<polygon fill="midnightblue" stroke="midnightblue" points="339.15,-154.01 349.56,-152.04 340.2,-147.09 339.15,-154.01"/>
</g>
<!-- Node25&#45;&gt;Node14 -->
<g id="edge29" class="edge">
<title>Node25&#45;&gt;Node14</title>
<path fill="none" stroke="midnightblue" d="M1065.56,-103.5C1048.78,-103.5 1031.78,-103.5 1016.21,-103.5"/>
<polygon fill="midnightblue" stroke="midnightblue" points="1065.97,-107 1075.97,-103.5 1065.96,-100 1065.97,-107"/>
</g>
</g>
</svg>
