<?xml version="1.0" encoding="UTF-8" standalone="no"?>
<!DOCTYPE svg PUBLIC "-//W3C//DTD SVG 1.1//EN"
 "http://www.w3.org/Graphics/SVG/1.1/DTD/svg11.dtd">
<!-- Generated by graphviz version 3.0.0 (20221109.1736)
 -->
<!-- Title: denoptim.utils.MathUtils.angle Pages: 1 -->
<!--zoomable 364 -->
<svg id="main" version="1.1" xmlns="http://www.w3.org/2000/svg" xmlns:xlink="http://www.w3.org/1999/xlink" xml:space="preserve" onload="init(evt)">
<style type="text/css"><![CDATA[
.edge:hover path { stroke: red; }
.edge:hover polygon { stroke: red; fill: red; }
]]></style>
<script type="text/javascript"><![CDATA[
var edges = document.getElementsByTagName('g');
if (edges && edges.length) {
  for (var i=0;i<edges.length;i++) {
    if (edges[i].id.substr(0,4)=='edge') {
      edges[i].setAttribute('class','edge');
    }
  }
}
]]></script>
        <defs>
                <circle id="rim" cx="0" cy="0" r="7"/>
                <circle id="rim2" cx="0" cy="0" r="3.5"/>
                <g id="zoomPlus">
                        <use xlink:href="#rim" fill="#404040">
                                <set attributeName="fill" to="#808080" begin="zoomplus.mouseover" end="zoomplus.mouseout"/>
                        </use>
                        <path d="M-4,0h8M0,-4v8" fill="none" stroke="white" stroke-width="1.5" pointer-events="none"/>
                </g>
                <g id="zoomMin">
                        <use xlink:href="#rim" fill="#404040">
                                <set attributeName="fill" to="#808080" begin="zoomminus.mouseover" end="zoomminus.mouseout"/>
                        </use>
                        <path d="M-4,0h8" fill="none" stroke="white" stroke-width="1.5" pointer-events="none"/>
                </g>
                <g id="dirArrow">
                        <path fill="none" stroke="white" stroke-width="1.5" d="M0,-3.0v7 M-2.5,-0.5L0,-3.0L2.5,-0.5"/>
                </g>
               <g id="resetDef">
                       <use xlink:href="#rim2" fill="#404040">
                               <set attributeName="fill" to="#808080" begin="reset.mouseover" end="reset.mouseout"/>
                       </use>
               </g>
        </defs>

<script type="text/javascript">
var viewWidth = 2151;
var viewHeight = 364;
var sectionId = 'dynsection-2';
</script>
<script xlink:href="svgpan.js"/>
<svg id="graph" class="graph">
<g id="viewport">
<title>denoptim.utils.MathUtils.angle</title>
<polygon fill="white" stroke="transparent" points="-4,4 -4,-359.5 2147,-359.5 2147,4 -4,4"/>
<!-- Node1 -->
<g id="node1" class="node">
<title>Node1</title>
<g id="a_node1"><a xlink:title="Calculate the angle between the 3 points.">
<polygon fill="#bfbfbf" stroke="black" points="1997,-95.5 1997,-114.5 2143,-114.5 2143,-95.5 1997,-95.5"/>
<text text-anchor="middle" x="2070" y="-102.5" font-family="Helvetica,sans-Serif" font-size="10.00">denoptim.utils.MathUtils.angle</text>
</a>
</g>
</g>
<!-- Node1&#45;&gt;Node1 -->
<g id="edge7" class="edge">
<title>Node1&#45;&gt;Node1</title>
<path fill="none" stroke="midnightblue" d="M2106,-122.5C2105.99,-128.34 2093.99,-133 2070,-133 2035.88,-133 2026.01,-123.57 2040.41,-114.76"/>
<polygon fill="midnightblue" stroke="midnightblue" points="2108.66,-120.23 2099.59,-114.76 2103.27,-124.69 2108.66,-120.23"/>
</g>
<!-- Node2 -->
<g id="node2" class="node">
<title>Node2</title>
<g id="a_node2"><a xlink:href="classdenoptim_1_1utils_1_1_dummy_atom_handler.html#a100cd8246e61d933a6420fac5c22160a" target="_top" xlink:title="Append dummy atoms on otherwise linear arrangements of atoms.">
<polygon fill="white" stroke="black" points="1794,-237 1794,-267 1961,-267 1961,-237 1794,-237"/>
<text text-anchor="start" x="1802" y="-255" font-family="Helvetica,sans-Serif" font-size="10.00">denoptim.utils.DummyAtom</text>
<text text-anchor="middle" x="1877.5" y="-244" font-family="Helvetica,sans-Serif" font-size="10.00">Handler.addDummiesOnLinearities</text>
</a>
</g>
</g>
<!-- Node1&#45;&gt;Node2 -->
<g id="edge1" class="edge">
<title>Node1&#45;&gt;Node2</title>
<path fill="none" stroke="midnightblue" d="M2048.44,-120.87C2011.52,-149.35 1934.49,-208.8 1898.2,-236.8"/>
<polygon fill="midnightblue" stroke="midnightblue" points="2050.72,-123.53 2056.5,-114.65 2046.45,-117.98 2050.72,-123.53"/>
</g>
<!-- Node8 -->
<g id="node8" class="node">
<title>Node8</title>
<g id="a_node8"><a xlink:href="classdenoptim_1_1utils_1_1_math_utils.html#ac697c4b44f2cc17f369c23672ed6f68e" target="_top" xlink:title="compute the angle between two vectors a &amp; b of same length">
<polygon fill="white" stroke="black" points="1796.5,-139 1796.5,-169 1958.5,-169 1958.5,-139 1796.5,-139"/>
<text text-anchor="start" x="1804.5" y="-157" font-family="Helvetica,sans-Serif" font-size="10.00">denoptim.utils.MathUtils.calculate</text>
<text text-anchor="middle" x="1877.5" y="-146" font-family="Helvetica,sans-Serif" font-size="10.00">Angle</text>
</a>
</g>
</g>
<!-- Node1&#45;&gt;Node8 -->
<g id="edge8" class="edge">
<title>Node1&#45;&gt;Node8</title>
<path fill="none" stroke="midnightblue" d="M2021.95,-117.1C1996.27,-123.71 1964.24,-131.95 1936.96,-138.96"/>
<polygon fill="midnightblue" stroke="midnightblue" points="2023,-120.44 2031.82,-114.56 2021.26,-113.67 2023,-120.44"/>
</g>
<!-- Node10 -->
<g id="node10" class="node">
<title>Node10</title>
<g id="a_node10"><a xlink:href="classdenoptim_1_1graph_1_1rings_1_1_ring_closure_finder.html#a51c84fa00fdd0c1c2642f21070f222fa" target="_top" xlink:title="Giving a list of points in 3D space (the path) this method evaluates whether it exists at least one c...">
<polygon fill="white" stroke="black" points="1797.5,-90 1797.5,-120 1957.5,-120 1957.5,-90 1797.5,-90"/>
<text text-anchor="start" x="1805.5" y="-108" font-family="Helvetica,sans-Serif" font-size="10.00">denoptim.graph.rings.Ring</text>
<text text-anchor="middle" x="1877.5" y="-97" font-family="Helvetica,sans-Serif" font-size="10.00">ClosureFinder.evaluateClosability</text>
</a>
</g>
</g>
<!-- Node1&#45;&gt;Node10 -->
<g id="edge10" class="edge">
<title>Node1&#45;&gt;Node10</title>
<path fill="none" stroke="midnightblue" d="M1986.94,-105C1977.22,-105 1967.31,-105 1957.63,-105"/>
<polygon fill="midnightblue" stroke="midnightblue" points="1986.98,-108.5 1996.98,-105 1986.98,-101.5 1986.98,-108.5"/>
</g>
<!-- Node28 -->
<g id="node28" class="node">
<title>Node28</title>
<g id="a_node28"><a xlink:href="classdenoptim_1_1integration_1_1tinker_1_1_tinker_utils.html#aae018598945eacf2b1c984b2efc3c6a0" target="_top" xlink:title="Convert IAtomContainer to TinkerMolecule.">
<polygon fill="white" stroke="black" points="1593.5,-6 1593.5,-36 1725.5,-36 1725.5,-6 1593.5,-6"/>
<text text-anchor="start" x="1601.5" y="-24" font-family="Helvetica,sans-Serif" font-size="10.00">denoptim.integration.tinker.</text>
<text text-anchor="middle" x="1659.5" y="-13" font-family="Helvetica,sans-Serif" font-size="10.00">TinkerUtils.getICFromIAC</text>
</a>
</g>
</g>
<!-- Node1&#45;&gt;Node28 -->
<g id="edge33" class="edge">
<title>Node1&#45;&gt;Node28</title>
<path fill="none" stroke="midnightblue" d="M2051.99,-88.67C2032.03,-70.71 1997.06,-42.83 1961,-31 1883.13,-5.45 1787.75,-7.48 1725.63,-12.87"/>
<polygon fill="midnightblue" stroke="midnightblue" points="2049.63,-91.25 2059.35,-95.46 2054.37,-86.11 2049.63,-91.25"/>
</g>
<!-- Node32 -->
<g id="node32" class="node">
<title>Node32</title>
<g id="a_node32"><a xlink:href="classdenoptim_1_1integration_1_1tinker_1_1_tinker_utils.html#a21e253c52a22329d2cbfd27131a54afa" target="_top" xlink:title=" ">
<polygon fill="white" stroke="black" points="1803.5,-41 1803.5,-71 1951.5,-71 1951.5,-41 1803.5,-41"/>
<text text-anchor="start" x="1811.5" y="-59" font-family="Helvetica,sans-Serif" font-size="10.00">denoptim.integration.tinker.</text>
<text text-anchor="middle" x="1877.5" y="-48" font-family="Helvetica,sans-Serif" font-size="10.00">TinkerUtils.getThirdRefAtomId</text>
</a>
</g>
</g>
<!-- Node1&#45;&gt;Node32 -->
<g id="edge37" class="edge">
<title>Node1&#45;&gt;Node32</title>
<path fill="none" stroke="midnightblue" d="M2021.95,-92.9C1996.27,-86.29 1964.24,-78.05 1936.96,-71.04"/>
<polygon fill="midnightblue" stroke="midnightblue" points="2021.26,-96.33 2031.82,-95.44 2023,-89.56 2021.26,-96.33"/>
</g>
<!-- Node3 -->
<g id="node3" class="node">
<title>Node3</title>
<g id="a_node3"><a xlink:href="classdenoptim_1_1gui_1_1_g_u_i_vertex_inspector.html#acadecc92299a7ea46113c06382a1f333" target="_top" xlink:title="Initialize the panel and add buttons.">
<polygon fill="white" stroke="black" points="1561,-286.5 1561,-305.5 1758,-305.5 1758,-286.5 1561,-286.5"/>
<text text-anchor="middle" x="1659.5" y="-293.5" font-family="Helvetica,sans-Serif" font-size="10.00">denoptim.gui.GUIVertexInspector.initialize</text>
</a>
</g>
</g>
<!-- Node2&#45;&gt;Node3 -->
<g id="edge2" class="edge">
<title>Node2&#45;&gt;Node3</title>
<path fill="none" stroke="midnightblue" d="M1795.95,-269.17C1783.26,-271.82 1770.28,-274.51 1758,-277 1742.45,-280.16 1725.49,-283.5 1710.13,-286.48"/>
<polygon fill="midnightblue" stroke="midnightblue" points="1796.98,-272.53 1806.04,-267.05 1795.54,-265.68 1796.98,-272.53"/>
</g>
<!-- Node5 -->
<g id="node5" class="node">
<title>Node5</title>
<g id="a_node5"><a xlink:href="classdenoptim_1_1ga_1_1_e_a_utils.html#a18eb5d0ba6772e9116176ef6ca9f84fc" target="_top" xlink:title="Converts a molecule into a DGraph by fragmentation and re&#45;assembling of the fragments.">
<polygon fill="white" stroke="black" points="1582.5,-237 1582.5,-267 1736.5,-267 1736.5,-237 1582.5,-237"/>
<text text-anchor="start" x="1590.5" y="-255" font-family="Helvetica,sans-Serif" font-size="10.00">denoptim.ga.EAUtils.make</text>
<text text-anchor="middle" x="1659.5" y="-244" font-family="Helvetica,sans-Serif" font-size="10.00">GraphFromFragmentationOfMol</text>
</a>
</g>
</g>
<!-- Node2&#45;&gt;Node5 -->
<g id="edge4" class="edge">
<title>Node2&#45;&gt;Node5</title>
<path fill="none" stroke="midnightblue" d="M1783.68,-252C1767.99,-252 1751.86,-252 1736.65,-252"/>
<polygon fill="midnightblue" stroke="midnightblue" points="1783.92,-255.5 1793.92,-252 1783.92,-248.5 1783.92,-255.5"/>
</g>
<!-- Node6 -->
<g id="node6" class="node">
<title>Node6</title>
<g id="a_node6"><a xlink:href="classdenoptim_1_1fragmenter_1_1_fragmenter_tools.html#a82c4a82da2a3283a870a8c8af94f0a4e" target="_top" xlink:title="Management of fragments: includes application of fragment filters, rejection rules,...">
<polygon fill="white" stroke="black" points="1579,-188 1579,-218 1740,-218 1740,-188 1579,-188"/>
<text text-anchor="start" x="1587" y="-206" font-family="Helvetica,sans-Serif" font-size="10.00">denoptim.fragmenter.Fragmenter</text>
<text text-anchor="middle" x="1659.5" y="-195" font-family="Helvetica,sans-Serif" font-size="10.00">Tools.manageFragmentCollection</text>
</a>
</g>
</g>
<!-- Node2&#45;&gt;Node6 -->
<g id="edge5" class="edge">
<title>Node2&#45;&gt;Node6</title>
<path fill="none" stroke="midnightblue" d="M1800.42,-234.74C1776.36,-229.28 1749.96,-223.29 1726.65,-218.01"/>
<polygon fill="midnightblue" stroke="midnightblue" points="1799.7,-238.17 1810.22,-236.97 1801.25,-231.34 1799.7,-238.17"/>
</g>
<!-- Node7 -->
<g id="node7" class="node">
<title>Node7</title>
<g id="a_node7"><a xlink:href="classdenoptim_1_1graph_1_1_fragment_test.html#aa17f42b21847b022c3d7a87876e17717" target="_top" xlink:title=" ">
<polygon fill="white" stroke="black" points="1577.5,-325 1577.5,-355 1741.5,-355 1741.5,-325 1577.5,-325"/>
<text text-anchor="start" x="1585.5" y="-343" font-family="Helvetica,sans-Serif" font-size="10.00">denoptim.graph.FragmentTest.test</text>
<text text-anchor="middle" x="1659.5" y="-332" font-family="Helvetica,sans-Serif" font-size="10.00">IsomorphicInLinear</text>
</a>
</g>
</g>
<!-- Node2&#45;&gt;Node7 -->
<g id="edge6" class="edge">
<title>Node2&#45;&gt;Node7</title>
<path fill="none" stroke="midnightblue" d="M1843.59,-272.23C1820.35,-285.83 1788.11,-303.33 1758,-315 1748.39,-318.73 1738.03,-322.06 1727.77,-324.99"/>
<polygon fill="midnightblue" stroke="midnightblue" points="1845.52,-275.15 1852.34,-267.05 1841.96,-269.13 1845.52,-275.15"/>
</g>
<!-- Node4 -->
<g id="node4" class="node">
<title>Node4</title>
<g id="a_node4"><a xlink:href="classdenoptim_1_1gui_1_1_g_u_i_vertex_inspector.html#abc5d3c33ad9b2b114ce43e9b2cd577bb" target="_top" xlink:title="Constructor.">
<polygon fill="white" stroke="black" points="1349,-281 1349,-311 1511,-311 1511,-281 1349,-281"/>
<text text-anchor="start" x="1357" y="-299" font-family="Helvetica,sans-Serif" font-size="10.00">denoptim.gui.GUIVertexInspector.</text>
<text text-anchor="middle" x="1430" y="-288" font-family="Helvetica,sans-Serif" font-size="10.00">GUIVertexInspector</text>
</a>
</g>
</g>
<!-- Node3&#45;&gt;Node4 -->
<g id="edge3" class="edge">
<title>Node3&#45;&gt;Node4</title>
<path fill="none" stroke="midnightblue" d="M1550.6,-296C1537.35,-296 1524,-296 1511.26,-296"/>
<polygon fill="midnightblue" stroke="midnightblue" points="1550.7,-299.5 1560.7,-296 1550.7,-292.5 1550.7,-299.5"/>
</g>
<!-- Node9 -->
<g id="node9" class="node">
<title>Node9</title>
<g id="a_node9"><a xlink:href="classdenoptim_1_1utils_1_1_math_utils.html#aab91f5150ef82c7e3c04c350fa2bfe0f" target="_top" xlink:title="Calculates angle (in degrees) between vectors BA and BC.">
<polygon fill="white" stroke="black" points="1591,-139 1591,-169 1728,-169 1728,-139 1591,-139"/>
<text text-anchor="start" x="1599" y="-157" font-family="Helvetica,sans-Serif" font-size="10.00">denoptim.utils.MathUtils.get</text>
<text text-anchor="middle" x="1659.5" y="-146" font-family="Helvetica,sans-Serif" font-size="10.00">Angle</text>
</a>
</g>
</g>
<!-- Node8&#45;&gt;Node9 -->
<g id="edge9" class="edge">
<title>Node8&#45;&gt;Node9</title>
<path fill="none" stroke="midnightblue" d="M1786.28,-154C1766.8,-154 1746.54,-154 1728.1,-154"/>
<polygon fill="midnightblue" stroke="midnightblue" points="1786.38,-157.5 1796.38,-154 1786.38,-150.5 1786.38,-157.5"/>
</g>
<!-- Node11 -->
<g id="node11" class="node">
<title>Node11</title>
<g id="a_node11"><a xlink:href="classdenoptim_1_1graph_1_1rings_1_1_cyclic_graph_handler.html#ab2b4cde037177c1fc44191de9b023dc3" target="_top" xlink:title="Method to evaluate the closability of a single path in a graph representing a molecule.">
<polygon fill="white" stroke="black" points="1563.5,-90 1563.5,-120 1755.5,-120 1755.5,-90 1563.5,-90"/>
<text text-anchor="start" x="1571.5" y="-108" font-family="Helvetica,sans-Serif" font-size="10.00">denoptim.graph.rings.Cyclic</text>
<text text-anchor="middle" x="1659.5" y="-97" font-family="Helvetica,sans-Serif" font-size="10.00">GraphHandler.evaluate3DPathClosability</text>
</a>
</g>
</g>
<!-- Node10&#45;&gt;Node11 -->
<g id="edge11" class="edge">
<title>Node10&#45;&gt;Node11</title>
<path fill="none" stroke="midnightblue" d="M1787.08,-105C1776.76,-105 1766.22,-105 1755.83,-105"/>
<polygon fill="midnightblue" stroke="midnightblue" points="1787.3,-108.5 1797.3,-105 1787.3,-101.5 1787.3,-108.5"/>
</g>
<!-- Node12 -->
<g id="node12" class="node">
<title>Node12</title>
<g id="a_node12"><a xlink:href="classdenoptim_1_1graph_1_1rings_1_1_cyclic_graph_handler.html#abd43d52fe626625dab3da6a32038e57b" target="_top" xlink:title="Method to evaluate the closability of a single path in a graph representing a molecule.">
<polygon fill="white" stroke="black" points="1340,-90 1340,-120 1520,-120 1520,-90 1340,-90"/>
<text text-anchor="start" x="1348" y="-108" font-family="Helvetica,sans-Serif" font-size="10.00">denoptim.graph.rings.Cyclic</text>
<text text-anchor="middle" x="1430" y="-97" font-family="Helvetica,sans-Serif" font-size="10.00">GraphHandler.evaluatePathClosability</text>
</a>
</g>
</g>
<!-- Node11&#45;&gt;Node12 -->
<g id="edge12" class="edge">
<title>Node11&#45;&gt;Node12</title>
<path fill="none" stroke="midnightblue" d="M1553.27,-105C1542.26,-105 1531.14,-105 1520.33,-105"/>
<polygon fill="midnightblue" stroke="midnightblue" points="1553.34,-108.5 1563.34,-105 1553.34,-101.5 1553.34,-108.5"/>
</g>
<!-- Node13 -->
<g id="node13" class="node">
<title>Node13</title>
<g id="a_node13"><a xlink:href="classdenoptim_1_1graph_1_1rings_1_1_cyclic_graph_handler.html#a3ce96322723f45d9285a248ebcef94d3" target="_top" xlink:title="Identifies all possible ring closing paths and returns them as list of DENOPTIMRings ready to be appe...">
<polygon fill="white" stroke="black" points="1115,-76.5 1115,-117.5 1299,-117.5 1299,-76.5 1115,-76.5"/>
<text text-anchor="start" x="1123" y="-105.5" font-family="Helvetica,sans-Serif" font-size="10.00">denoptim.graph.rings.Cyclic</text>
<text text-anchor="start" x="1123" y="-94.5" font-family="Helvetica,sans-Serif" font-size="10.00">GraphHandler.getPossibleCombination</text>
<text text-anchor="middle" x="1207" y="-83.5" font-family="Helvetica,sans-Serif" font-size="10.00">OfRings</text>
</a>
</g>
</g>
<!-- Node12&#45;&gt;Node13 -->
<g id="edge13" class="edge">
<title>Node12&#45;&gt;Node13</title>
<path fill="none" stroke="midnightblue" d="M1329.62,-101.4C1319.43,-101.03 1309.12,-100.66 1299.03,-100.3"/>
<polygon fill="midnightblue" stroke="midnightblue" points="1329.63,-104.91 1339.75,-101.77 1329.88,-97.91 1329.63,-104.91"/>
</g>
<!-- Node27 -->
<g id="node27" class="node">
<title>Node27</title>
<g id="a_node27"><a xlink:href="classdenoptim_1_1graph_1_1rings_1_1_cyclic_graph_handler.html#a08b02946eaac7c2cbbe6e71332d702e6" target="_top" xlink:title="Identifies a random combination of ring closing paths and returns it as list of DENOPTIMRings ready t...">
<polygon fill="white" stroke="black" points="1116,-136.5 1116,-177.5 1298,-177.5 1298,-136.5 1116,-136.5"/>
<text text-anchor="start" x="1124" y="-165.5" font-family="Helvetica,sans-Serif" font-size="10.00">denoptim.graph.rings.Cyclic</text>
<text text-anchor="start" x="1124" y="-154.5" font-family="Helvetica,sans-Serif" font-size="10.00">GraphHandler.getRandomCombination</text>
<text text-anchor="middle" x="1207" y="-143.5" font-family="Helvetica,sans-Serif" font-size="10.00">OfRings</text>
</a>
</g>
</g>
<!-- Node12&#45;&gt;Node27 -->
<g id="edge31" class="edge">
<title>Node12&#45;&gt;Node27</title>
<path fill="none" stroke="midnightblue" d="M1355.19,-122.37C1335.96,-126.89 1315.06,-131.81 1295.21,-136.48"/>
<polygon fill="midnightblue" stroke="midnightblue" points="1356.15,-125.74 1365.08,-120.04 1354.54,-118.92 1356.15,-125.74"/>
</g>
<!-- Node14 -->
<g id="node14" class="node">
<title>Node14</title>
<g id="a_node14"><a xlink:href="classdenoptim_1_1graph_1_1_d_graph.html#a7a4743d014e860237f4b20703ef9779b" target="_top" xlink:title="Evaluates the possibility of closing rings in this graph and generates all alternative graphs resulti...">
<polygon fill="white" stroke="black" points="898.5,-77 898.5,-107 1053.5,-107 1053.5,-77 898.5,-77"/>
<text text-anchor="start" x="906.5" y="-95" font-family="Helvetica,sans-Serif" font-size="10.00">denoptim.graph.DGraph.make</text>
<text text-anchor="middle" x="976" y="-84" font-family="Helvetica,sans-Serif" font-size="10.00">AllGraphsWithDifferentRingSets</text>
</a>
</g>
</g>
<!-- Node13&#45;&gt;Node14 -->
<g id="edge14" class="edge">
<title>Node13&#45;&gt;Node14</title>
<path fill="none" stroke="midnightblue" d="M1104.82,-94.79C1087.71,-94.42 1070.2,-94.03 1053.84,-93.68"/>
<polygon fill="midnightblue" stroke="midnightblue" points="1104.76,-98.29 1114.84,-95.01 1104.91,-91.29 1104.76,-98.29"/>
</g>
<!-- Node16 -->
<g id="node16" class="node">
<title>Node16</title>
<g id="a_node16"><a xlink:href="classdenoptim_1_1ga_1_1_e_a_utils.html#a1ddb932d4618434d435e4f85ce5e5eb5" target="_top" xlink:title="Evaluates the possibility of closing rings in a given graph and if any ring can be closed,...">
<polygon fill="white" stroke="black" points="910.5,-142 910.5,-172 1041.5,-172 1041.5,-142 910.5,-142"/>
<text text-anchor="start" x="918.5" y="-160" font-family="Helvetica,sans-Serif" font-size="10.00">denoptim.ga.EAUtils.setup</text>
<text text-anchor="middle" x="976" y="-149" font-family="Helvetica,sans-Serif" font-size="10.00">Rings</text>
</a>
</g>
</g>
<!-- Node13&#45;&gt;Node16 -->
<g id="edge16" class="edge">
<title>Node13&#45;&gt;Node16</title>
<path fill="none" stroke="midnightblue" d="M1117.73,-120.13C1089.78,-127.45 1059.62,-135.35 1034.42,-141.96"/>
<polygon fill="midnightblue" stroke="midnightblue" points="1118.73,-123.48 1127.51,-117.56 1116.95,-116.71 1118.73,-123.48"/>
</g>
<!-- Node15 -->
<g id="node15" class="node">
<title>Node15</title>
<g id="a_node15"><a xlink:href="classdenoptim_1_1combinatorial_1_1_graph_building_task.html#a3eaee724fc921194fa158714aafe182d" target="_top" xlink:title="Calls the task.">
<polygon fill="white" stroke="black" points="692,-61 692,-91 837,-91 837,-61 692,-61"/>
<text text-anchor="start" x="700" y="-79" font-family="Helvetica,sans-Serif" font-size="10.00">denoptim.combinatorial.Graph</text>
<text text-anchor="middle" x="764.5" y="-68" font-family="Helvetica,sans-Serif" font-size="10.00">BuildingTask.call</text>
</a>
</g>
</g>
<!-- Node14&#45;&gt;Node15 -->
<g id="edge15" class="edge">
<title>Node14&#45;&gt;Node15</title>
<path fill="none" stroke="midnightblue" d="M888.06,-85.36C871.16,-84.07 853.63,-82.73 837.29,-81.48"/>
<polygon fill="midnightblue" stroke="midnightblue" points="888.24,-88.88 898.48,-86.16 888.77,-81.9 888.24,-88.88"/>
</g>
<!-- Node17 -->
<g id="node17" class="node">
<title>Node17</title>
<g id="a_node17"><a xlink:href="classdenoptim_1_1ga_1_1_e_a_utils.html#a8122818f58919fce84dce75e7506025a" target="_top" xlink:title=" ">
<polygon fill="white" stroke="black" points="701,-110 701,-140 828,-140 828,-110 701,-110"/>
<text text-anchor="start" x="709" y="-128" font-family="Helvetica,sans-Serif" font-size="10.00">denoptim.ga.EAUtils.build</text>
<text text-anchor="middle" x="764.5" y="-117" font-family="Helvetica,sans-Serif" font-size="10.00">CandidateByMutation</text>
</a>
</g>
</g>
<!-- Node16&#45;&gt;Node17 -->
<g id="edge17" class="edge">
<title>Node16&#45;&gt;Node17</title>
<path fill="none" stroke="midnightblue" d="M900.44,-145.61C876.75,-141.99 850.81,-138.03 828.06,-134.56"/>
<polygon fill="midnightblue" stroke="midnightblue" points="900.02,-149.09 910.43,-147.14 901.08,-142.17 900.02,-149.09"/>
</g>
<!-- Node24 -->
<g id="node24" class="node">
<title>Node24</title>
<g id="a_node24"><a xlink:href="classdenoptim_1_1ga_1_1_e_a_utils.html#ad3d2daeb11e68a356e971ca1846596b5" target="_top" xlink:title=" ">
<polygon fill="white" stroke="black" points="701,-208 701,-238 828,-238 828,-208 701,-208"/>
<text text-anchor="start" x="709" y="-226" font-family="Helvetica,sans-Serif" font-size="10.00">denoptim.ga.EAUtils.build</text>
<text text-anchor="middle" x="764.5" y="-215" font-family="Helvetica,sans-Serif" font-size="10.00">CandidateFromScratch</text>
</a>
</g>
</g>
<!-- Node16&#45;&gt;Node24 -->
<g id="edge25" class="edge">
<title>Node16&#45;&gt;Node24</title>
<path fill="none" stroke="midnightblue" d="M917.34,-175.17C884.7,-185.45 844.35,-198.16 813.46,-207.89"/>
<polygon fill="midnightblue" stroke="midnightblue" points="918.71,-178.4 927.2,-172.06 916.61,-171.73 918.71,-178.4"/>
</g>
<!-- Node26 -->
<g id="node26" class="node">
<title>Node26</title>
<g id="a_node26"><a xlink:href="classdenoptim_1_1ga_1_1_e_a_utils.html#a0b958439d79fae30f14530213ad22e3a" target="_top" xlink:title="Generates up to a pair of new offspring by performing a crossover operation.">
<polygon fill="white" stroke="black" points="701,-159 701,-189 828,-189 828,-159 701,-159"/>
<text text-anchor="start" x="709" y="-177" font-family="Helvetica,sans-Serif" font-size="10.00">denoptim.ga.EAUtils.build</text>
<text text-anchor="middle" x="764.5" y="-166" font-family="Helvetica,sans-Serif" font-size="10.00">CandidatesByXOver</text>
</a>
</g>
</g>
<!-- Node16&#45;&gt;Node26 -->
<g id="edge30" class="edge">
<title>Node16&#45;&gt;Node26</title>
<path fill="none" stroke="midnightblue" d="M900.44,-163.05C876.75,-164.97 850.81,-167.08 828.06,-168.92"/>
<polygon fill="midnightblue" stroke="midnightblue" points="900.75,-166.54 910.43,-162.24 900.18,-159.56 900.75,-166.54"/>
</g>
<!-- Node18 -->
<g id="node18" class="node">
<title>Node18</title>
<g id="a_node18"><a xlink:href="classdenoptim_1_1ga_1_1_evolutionary_algorithm.html#a0c2e353b243250b4959a3f86608f1020" target="_top" xlink:title="Generates one offspring according to the method where crossover and mutation are decoupled,...">
<polygon fill="white" stroke="black" points="526,-113 526,-143 656,-143 656,-113 526,-113"/>
<text text-anchor="start" x="534" y="-131" font-family="Helvetica,sans-Serif" font-size="10.00">denoptim.ga.Evolutionary</text>
<text text-anchor="middle" x="591" y="-120" font-family="Helvetica,sans-Serif" font-size="10.00">Algorithm.makeOffspringA</text>
</a>
</g>
</g>
<!-- Node17&#45;&gt;Node18 -->
<g id="edge18" class="edge">
<title>Node17&#45;&gt;Node18</title>
<path fill="none" stroke="midnightblue" d="M690.61,-126.27C679.12,-126.48 667.3,-126.68 656.03,-126.88"/>
<polygon fill="midnightblue" stroke="midnightblue" points="690.68,-129.77 700.61,-126.1 690.55,-122.78 690.68,-129.77"/>
</g>
<!-- Node23 -->
<g id="node23" class="node">
<title>Node23</title>
<g id="a_node23"><a xlink:href="classdenoptim_1_1ga_1_1_evolutionary_algorithm.html#ae7a90a911b109ed47b3acf54193acc35" target="_top" xlink:title="Generates one offspring according to the method where crossover and mutation are coupled,...">
<polygon fill="white" stroke="black" points="526,-162 526,-192 656,-192 656,-162 526,-162"/>
<text text-anchor="start" x="534" y="-180" font-family="Helvetica,sans-Serif" font-size="10.00">denoptim.ga.Evolutionary</text>
<text text-anchor="middle" x="591" y="-169" font-family="Helvetica,sans-Serif" font-size="10.00">Algorithm.makeOffspringB</text>
</a>
</g>
</g>
<!-- Node17&#45;&gt;Node23 -->
<g id="edge23" class="edge">
<title>Node17&#45;&gt;Node23</title>
<path fill="none" stroke="midnightblue" d="M704.07,-143.02C683.66,-149.21 661.04,-156.07 641.49,-161.99"/>
<polygon fill="midnightblue" stroke="midnightblue" points="705.34,-146.29 713.9,-140.04 703.31,-139.59 705.34,-146.29"/>
</g>
<!-- Node19 -->
<g id="node19" class="node">
<title>Node19</title>
<g id="a_node19"><a xlink:href="classdenoptim_1_1ga_1_1_evolutionary_algorithm.html#a596b2f5f0b097c5b67a6e5163bd6fe66" target="_top" xlink:title="Generates a given number of new candidate items and adds them to the current population.">
<polygon fill="white" stroke="black" points="353,-159 353,-189 487,-189 487,-159 353,-159"/>
<text text-anchor="start" x="361" y="-177" font-family="Helvetica,sans-Serif" font-size="10.00">denoptim.ga.Evolutionary</text>
<text text-anchor="middle" x="420" y="-166" font-family="Helvetica,sans-Serif" font-size="10.00">Algorithm.evolvePopulation</text>
</a>
</g>
</g>
<!-- Node18&#45;&gt;Node19 -->
<g id="edge19" class="edge">
<title>Node18&#45;&gt;Node19</title>
<path fill="none" stroke="midnightblue" d="M524.81,-145.74C508.75,-150.11 491.71,-154.75 476.17,-158.98"/>
<polygon fill="midnightblue" stroke="midnightblue" points="525.93,-149.07 534.66,-143.06 524.09,-142.31 525.93,-149.07"/>
</g>
<!-- Node20 -->
<g id="node20" class="node">
<title>Node20</title>
<g id="a_node20"><a xlink:href="classdenoptim_1_1ga_1_1_evolutionary_algorithm.html#a6bfc2fa59b199da6259b5b6bad3d6de7" target="_top" xlink:title=" ">
<polygon fill="white" stroke="black" points="190,-183 190,-213 314,-213 314,-183 190,-183"/>
<text text-anchor="start" x="198" y="-201" font-family="Helvetica,sans-Serif" font-size="10.00">denoptim.ga.Evolutionary</text>
<text text-anchor="middle" x="252" y="-190" font-family="Helvetica,sans-Serif" font-size="10.00">Algorithm.run</text>
</a>
</g>
</g>
<!-- Node19&#45;&gt;Node20 -->
<g id="edge20" class="edge">
<title>Node19&#45;&gt;Node20</title>
<path fill="none" stroke="midnightblue" d="M342.9,-185C333.21,-186.4 323.41,-187.82 314.01,-189.18"/>
<polygon fill="midnightblue" stroke="midnightblue" points="343.52,-188.45 352.92,-183.55 342.52,-181.52 343.52,-188.45"/>
</g>
<!-- Node21 -->
<g id="node21" class="node">
<title>Node21</title>
<g id="a_node21"><a xlink:href="classdenoptim_1_1ga_1_1_evolutionary_algorithm.html#a0f2063b722b7291daf83d62acaa683d3" target="_top" xlink:title=" ">
<polygon fill="white" stroke="black" points="0,-208 0,-238 154,-238 154,-208 0,-208"/>
<text text-anchor="start" x="8" y="-226" font-family="Helvetica,sans-Serif" font-size="10.00">denoptim.ga.Evolutionary</text>
<text text-anchor="middle" x="77" y="-215" font-family="Helvetica,sans-Serif" font-size="10.00">Algorithm.EvolutionaryAlgorithm</text>
</a>
</g>
</g>
<!-- Node20&#45;&gt;Node21 -->
<g id="edge21" class="edge">
<title>Node20&#45;&gt;Node21</title>
<path fill="none" stroke="midnightblue" d="M179.44,-208.34C171.09,-209.55 162.54,-210.78 154.12,-212"/>
<polygon fill="midnightblue" stroke="midnightblue" points="180.12,-211.78 189.52,-206.88 179.12,-204.85 180.12,-211.78"/>
</g>
<!-- Node22 -->
<g id="node22" class="node">
<title>Node22</title>
<g id="a_node22"><a xlink:href="classdenoptim_1_1programs_1_1denovo_1_1_g_a_runner.html#a7cafd6d78727b89dce3e2c8d06f0dd7c" target="_top" xlink:title=" ">
<polygon fill="white" stroke="black" points="9.5,-159 9.5,-189 144.5,-189 144.5,-159 9.5,-159"/>
<text text-anchor="start" x="17.5" y="-177" font-family="Helvetica,sans-Serif" font-size="10.00">denoptim.programs.denovo.</text>
<text text-anchor="middle" x="77" y="-166" font-family="Helvetica,sans-Serif" font-size="10.00">GARunner.runProgram</text>
</a>
</g>
</g>
<!-- Node20&#45;&gt;Node22 -->
<g id="edge22" class="edge">
<title>Node20&#45;&gt;Node22</title>
<path fill="none" stroke="midnightblue" d="M179.48,-188.08C167.92,-186.47 156,-184.82 144.57,-183.23"/>
<polygon fill="midnightblue" stroke="midnightblue" points="179.13,-191.56 189.52,-189.47 180.1,-184.63 179.13,-191.56"/>
</g>
<!-- Node23&#45;&gt;Node19 -->
<g id="edge24" class="edge">
<title>Node23&#45;&gt;Node19</title>
<path fill="none" stroke="midnightblue" d="M515.48,-175.68C506.05,-175.51 496.45,-175.34 487.16,-175.17"/>
<polygon fill="midnightblue" stroke="midnightblue" points="515.57,-179.18 525.63,-175.86 515.69,-172.18 515.57,-179.18"/>
</g>
<!-- Node24&#45;&gt;Node18 -->
<g id="edge28" class="edge">
<title>Node24&#45;&gt;Node18</title>
<path fill="none" stroke="midnightblue" d="M698.58,-203.21C696.31,-201.89 694.11,-200.49 692,-199 670.8,-184.02 676.83,-168.49 656,-153 650.93,-149.23 645.21,-145.94 639.34,-143.11"/>
<polygon fill="midnightblue" stroke="midnightblue" points="697.17,-206.41 707.66,-207.9 700.38,-200.2 697.17,-206.41"/>
</g>
<!-- Node24&#45;&gt;Node23 -->
<g id="edge29" class="edge">
<title>Node24&#45;&gt;Node23</title>
<path fill="none" stroke="midnightblue" d="M697.35,-205.26C681.05,-200.89 663.75,-196.25 647.99,-192.02"/>
<polygon fill="midnightblue" stroke="midnightblue" points="696.78,-208.73 707.34,-207.94 698.59,-201.97 696.78,-208.73"/>
</g>
<!-- Node25 -->
<g id="node25" class="node">
<title>Node25</title>
<g id="a_node25"><a xlink:href="classdenoptim_1_1ga_1_1_evolutionary_algorithm.html#ad43588620dab3340e0d8b0042ec73618" target="_top" xlink:title="Fills up the population with candidates build from scratch.">
<polygon fill="white" stroke="black" points="350,-208 350,-238 490,-238 490,-208 350,-208"/>
<text text-anchor="start" x="358" y="-226" font-family="Helvetica,sans-Serif" font-size="10.00">denoptim.ga.Evolutionary</text>
<text text-anchor="middle" x="420" y="-215" font-family="Helvetica,sans-Serif" font-size="10.00">Algorithm.initializePopulation</text>
</a>
</g>
</g>
<!-- Node24&#45;&gt;Node25 -->
<g id="edge26" class="edge">
<title>Node24&#45;&gt;Node25</title>
<path fill="none" stroke="midnightblue" d="M690.65,-223C631.42,-223 548.41,-223 490.19,-223"/>
<polygon fill="midnightblue" stroke="midnightblue" points="690.68,-226.5 700.68,-223 690.68,-219.5 690.68,-226.5"/>
</g>
<!-- Node25&#45;&gt;Node20 -->
<g id="edge27" class="edge">
<title>Node25&#45;&gt;Node20</title>
<path fill="none" stroke="midnightblue" d="M339.6,-211.04C331.08,-209.76 322.5,-208.47 314.24,-207.22"/>
<polygon fill="midnightblue" stroke="midnightblue" points="339.15,-214.51 349.56,-212.54 340.2,-207.59 339.15,-214.51"/>
</g>
<!-- Node27&#45;&gt;Node16 -->
<g id="edge32" class="edge">
<title>Node27&#45;&gt;Node16</title>
<path fill="none" stroke="midnightblue" d="M1105.58,-157C1083.89,-157 1061.52,-157 1041.63,-157"/>
<polygon fill="midnightblue" stroke="midnightblue" points="1105.82,-160.5 1115.82,-157 1105.82,-153.5 1105.82,-160.5"/>
</g>
<!-- Node29 -->
<g id="node29" class="node">
<title>Node29</title>
<g id="a_node29"><a xlink:href="classdenoptim_1_1molecularmodeling_1_1_multi_molecular_model_builder.html#a1cd879265bf12e9c2980efae1e8e74aa" target="_top" xlink:title="Generate 3D structure by assembling 3D fragments according to attachment point vector and following t...">
<polygon fill="white" stroke="black" points="1335,-6 1335,-36 1525,-36 1525,-6 1335,-6"/>
<text text-anchor="start" x="1343" y="-24" font-family="Helvetica,sans-Serif" font-size="10.00">denoptim.molecularmodeling.</text>
<text text-anchor="middle" x="1430" y="-13" font-family="Helvetica,sans-Serif" font-size="10.00">MultiMolecularModelBuilder.build3DTree</text>
</a>
</g>
</g>
<!-- Node28&#45;&gt;Node29 -->
<g id="edge34" class="edge">
<title>Node28&#45;&gt;Node29</title>
<path fill="none" stroke="midnightblue" d="M1583.15,-21C1564.55,-21 1544.39,-21 1525.02,-21"/>
<polygon fill="midnightblue" stroke="midnightblue" points="1583.31,-24.5 1593.31,-21 1583.31,-17.5 1583.31,-24.5"/>
</g>
<!-- Node30 -->
<g id="node30" class="node">
<title>Node30</title>
<g id="a_node30"><a xlink:href="classdenoptim_1_1molecularmodeling_1_1_multi_molecular_model_builder.html#a6a8e314f3fb37f66c32c8c4d5695b8a4" target="_top" xlink:title="Given the graph representation of the molecular constitution, along with the 3D coordinates of the fr...">
<polygon fill="white" stroke="black" points="1128,-0.5 1128,-41.5 1286,-41.5 1286,-0.5 1128,-0.5"/>
<text text-anchor="start" x="1136" y="-29.5" font-family="Helvetica,sans-Serif" font-size="10.00">denoptim.molecularmodeling.</text>
<text text-anchor="start" x="1136" y="-18.5" font-family="Helvetica,sans-Serif" font-size="10.00">MultiMolecularModelBuilder.build</text>
<text text-anchor="middle" x="1207" y="-7.5" font-family="Helvetica,sans-Serif" font-size="10.00">Multi3DStructure</text>
</a>
</g>
</g>
<!-- Node29&#45;&gt;Node30 -->
<g id="edge35" class="edge">
<title>Node29&#45;&gt;Node30</title>
<path fill="none" stroke="midnightblue" d="M1324.65,-21C1311.74,-21 1298.73,-21 1286.31,-21"/>
<polygon fill="midnightblue" stroke="midnightblue" points="1324.96,-24.5 1334.96,-21 1324.96,-17.5 1324.96,-24.5"/>
</g>
<!-- Node31 -->
<g id="node31" class="node">
<title>Node31</title>
<g id="a_node31"><a xlink:href="classdenoptim_1_1programs_1_1moldecularmodelbuilder_1_1_molecular_model_builder.html#ad2e44290de6a861274def677044e9754" target="_top" xlink:title=" ">
<polygon fill="white" stroke="black" points="873,-6 873,-36 1079,-36 1079,-6 873,-6"/>
<text text-anchor="start" x="881" y="-24" font-family="Helvetica,sans-Serif" font-size="10.00">denoptim.programs.moldecularmodelbuilder.</text>
<text text-anchor="middle" x="976" y="-13" font-family="Helvetica,sans-Serif" font-size="10.00">MolecularModelBuilder.runProgram</text>
</a>
</g>
</g>
<!-- Node30&#45;&gt;Node31 -->
<g id="edge36" class="edge">
<title>Node30&#45;&gt;Node31</title>
<path fill="none" stroke="midnightblue" d="M1117.79,-21C1105.13,-21 1092.01,-21 1079.11,-21"/>
<polygon fill="midnightblue" stroke="midnightblue" points="1117.83,-24.5 1127.83,-21 1117.83,-17.5 1117.83,-24.5"/>
</g>
<!-- Node32&#45;&gt;Node28 -->
<g id="edge38" class="edge">
<title>Node32&#45;&gt;Node28</title>
<path fill="none" stroke="midnightblue" d="M1793.49,-42.55C1770.99,-38.9 1746.95,-35.01 1725.58,-31.55"/>
<polygon fill="midnightblue" stroke="midnightblue" points="1792.94,-46.01 1803.37,-44.15 1794.06,-39.1 1792.94,-46.01"/>
</g>
</g>
</svg>
        <g id="navigator" transform="translate(0 0)" fill="#404254">
                <rect fill="#f2f5e9" fill-opacity="0.5" stroke="#606060" stroke-width=".5" x="0" y="0" width="60" height="60"/>
                <use id="zoomplus" xlink:href="#zoomPlus" x="17" y="9" onmousedown="handleZoom(evt,'in')"/>
                <use id="zoomminus" xlink:href="#zoomMin" x="42" y="9" onmousedown="handleZoom(evt,'out')"/>
                <use id="reset" xlink:href="#resetDef" x="30" y="36" onmousedown="handleReset()"/>
                <g id="arrowUp" xlink:href="#dirArrow" transform="translate(30 24)" onmousedown="handlePan(0,-1)">
                  <use xlink:href="#rim" fill="#404040">
                        <set attributeName="fill" to="#808080" begin="arrowUp.mouseover" end="arrowUp.mouseout"/>
                  </use>
                  <path fill="none" stroke="white" stroke-width="1.5" d="M0,-3.0v7 M-2.5,-0.5L0,-3.0L2.5,-0.5"/>
                </g>
                <g id="arrowRight" xlink:href="#dirArrow" transform="rotate(90) translate(36 -43)" onmousedown="handlePan(1,0)">
                  <use xlink:href="#rim" fill="#404040">
                        <set attributeName="fill" to="#808080" begin="arrowRight.mouseover" end="arrowRight.mouseout"/>
                  </use>
                  <path fill="none" stroke="white" stroke-width="1.5" d="M0,-3.0v7 M-2.5,-0.5L0,-3.0L2.5,-0.5"/>
                </g>
                <g id="arrowDown" xlink:href="#dirArrow" transform="rotate(180) translate(-30 -48)" onmousedown="handlePan(0,1)">
                  <use xlink:href="#rim" fill="#404040">
                        <set attributeName="fill" to="#808080" begin="arrowDown.mouseover" end="arrowDown.mouseout"/>
                  </use>
                  <path fill="none" stroke="white" stroke-width="1.5" d="M0,-3.0v7 M-2.5,-0.5L0,-3.0L2.5,-0.5"/>
                </g>
                <g id="arrowLeft" xlink:href="#dirArrow" transform="rotate(270) translate(-36 17)" onmousedown="handlePan(-1,0)">
                  <use xlink:href="#rim" fill="#404040">
                        <set attributeName="fill" to="#808080" begin="arrowLeft.mouseover" end="arrowLeft.mouseout"/>
                  </use>
                  <path fill="none" stroke="white" stroke-width="1.5" d="M0,-3.0v7 M-2.5,-0.5L0,-3.0L2.5,-0.5"/>
                </g>
        </g>
        <svg viewBox="0 0 15 15" width="100%" height="30px" preserveAspectRatio="xMaxYMin meet">
         <g id="arrow_out" transform="scale(0.3 0.3)">
          <a xlink:href="classdenoptim_1_1utils_1_1_math_utils_a334843fcf3bc5056d3262754feac30cf_icgraph_org.svg" target="_base">
           <rect id="button" ry="5" rx="5" y="6" x="6" height="38" width="38"
                fill="#f2f5e9" fill-opacity="0.5" stroke="#606060" stroke-width="1.0"/>
           <path id="arrow"
             d="M 11.500037,31.436501 C 11.940474,20.09759 22.043105,11.32322 32.158766,21.979434 L 37.068811,17.246167 C 37.068811,17.246167 37.088388,32 37.088388,32 L 22.160133,31.978069 C 22.160133,31.978069 26.997745,27.140456 26.997745,27.140456 C 18.528582,18.264221 13.291696,25.230495 11.500037,31.436501 z"
             style="fill:#404040;"/>
          </a>
         </g>
        </svg>
</svg>
