<?xml version="1.0" encoding="UTF-8" standalone="no"?>
<!DOCTYPE svg PUBLIC "-//W3C//DTD SVG 1.1//EN"
 "http://www.w3.org/Graphics/SVG/1.1/DTD/svg11.dtd">
<!-- Generated by graphviz version 3.0.0 (20221109.1736)
 -->
<!-- Title: denoptim.graph.Edge Pages: 1 -->
<!--zoomable 848 -->
<svg id="main" version="1.1" xmlns="http://www.w3.org/2000/svg" xmlns:xlink="http://www.w3.org/1999/xlink" xml:space="preserve" onload="init(evt)">
<style type="text/css"><![CDATA[
.edge:hover path { stroke: red; }
.edge:hover polygon { stroke: red; fill: red; }
]]></style>
<script type="text/javascript"><![CDATA[
var edges = document.getElementsByTagName('g');
if (edges && edges.length) {
  for (var i=0;i<edges.length;i++) {
    if (edges[i].id.substr(0,4)=='edge') {
      edges[i].setAttribute('class','edge');
    }
  }
}
]]></script>
        <defs>
                <circle id="rim" cx="0" cy="0" r="7"/>
                <circle id="rim2" cx="0" cy="0" r="3.5"/>
                <g id="zoomPlus">
                        <use xlink:href="#rim" fill="#404040">
                                <set attributeName="fill" to="#808080" begin="zoomplus.mouseover" end="zoomplus.mouseout"/>
                        </use>
                        <path d="M-4,0h8M0,-4v8" fill="none" stroke="white" stroke-width="1.5" pointer-events="none"/>
                </g>
                <g id="zoomMin">
                        <use xlink:href="#rim" fill="#404040">
                                <set attributeName="fill" to="#808080" begin="zoomminus.mouseover" end="zoomminus.mouseout"/>
                        </use>
                        <path d="M-4,0h8" fill="none" stroke="white" stroke-width="1.5" pointer-events="none"/>
                </g>
                <g id="dirArrow">
                        <path fill="none" stroke="white" stroke-width="1.5" d="M0,-3.0v7 M-2.5,-0.5L0,-3.0L2.5,-0.5"/>
                </g>
               <g id="resetDef">
                       <use xlink:href="#rim2" fill="#404040">
                               <set attributeName="fill" to="#808080" begin="reset.mouseover" end="reset.mouseout"/>
                       </use>
               </g>
        </defs>

<script type="text/javascript">
var viewWidth = 1316;
var viewHeight = 848;
var sectionId = 'dynsection-0';
</script>
<script xlink:href="svgpan.js"/>
<svg id="graph" class="graph">
<g id="viewport">
<title>denoptim.graph.Edge</title>
<polygon fill="white" stroke="transparent" points="-4,4 -4,-843.8 1312,-843.8 1312,4 -4,4"/>
<!-- Node1 -->
<g id="node1" class="node">
<title>Node1</title>
<g id="a_node1"><a xlink:title="This class represents the edge between two vertices.">
<polygon fill="#bfbfbf" stroke="black" points="981.5,-51.76 981.5,-70.76 1088.5,-70.76 1088.5,-51.76 981.5,-51.76"/>
<text text-anchor="middle" x="1035" y="-58.76" font-family="Helvetica,sans-Serif" font-size="10.00">denoptim.graph.Edge</text>
</a>
</g>
</g>
<!-- Node2 -->
<g id="node2" class="node">
<title>Node2</title>
<g id="a_node2"><a xlink:href="classdenoptim_1_1graph_1_1_attachment_point.html" target="_top" xlink:title="An attachment point (AP) is a possibility to attach a Vertex onto the vertex holding the AP (i....">
<polygon fill="white" stroke="black" points="708,-188.26 708,-218.26 843,-218.26 843,-188.26 708,-188.26"/>
<text text-anchor="start" x="716" y="-206.26" font-family="Helvetica,sans-Serif" font-size="10.00">denoptim.graph.Attachment</text>
<text text-anchor="middle" x="775.5" y="-195.26" font-family="Helvetica,sans-Serif" font-size="10.00">Point</text>
</a>
</g>
</g>
<!-- Node2&#45;&gt;Node1 -->
<g id="edge1" class="edge">
<title>Node2&#45;&gt;Node1</title>
<path fill="none" stroke="#9a32cd" stroke-dasharray="5,2" d="M811.9,-183.14C832.58,-171.43 859.22,-156.42 883,-143.26 931.03,-116.7 988.02,-85.96 1016.28,-70.77"/>
<polygon fill="#9a32cd" stroke="#9a32cd" points="810.11,-180.13 803.13,-188.11 813.56,-186.22 810.11,-180.13"/>
<text text-anchor="middle" x="918" y="-157.26" font-family="Helvetica,sans-Serif" font-size="10.00"> srcAP</text>
<text text-anchor="middle" x="918" y="-146.26" font-family="Helvetica,sans-Serif" font-size="10.00">trgAP</text>
</g>
<!-- Node35 -->
<g id="node35" class="node">
<title>Node35</title>
<g id="a_node35"><a xlink:href="classdenoptim_1_1graph_1_1_edge.html" target="_top" xlink:title="This class represents the edge between two vertices.">
<polygon fill="white" stroke="black" points="981.5,-196.76 981.5,-215.76 1088.5,-215.76 1088.5,-196.76 981.5,-196.76"/>
<text text-anchor="middle" x="1035" y="-203.76" font-family="Helvetica,sans-Serif" font-size="10.00">denoptim.graph.Edge</text>
</a>
</g>
</g>
<!-- Node2&#45;&gt;Node35 -->
<g id="edge43" class="edge">
<title>Node2&#45;&gt;Node35</title>
<path fill="none" stroke="#9a32cd" stroke-dasharray="5,2" d="M853.19,-204.16C894.54,-204.64 944.51,-205.22 981.43,-205.65"/>
<polygon fill="#9a32cd" stroke="#9a32cd" points="853.19,-200.66 843.15,-204.04 853.11,-207.66 853.19,-200.66"/>
<text text-anchor="middle" x="918" y="-219.26" font-family="Helvetica,sans-Serif" font-size="10.00"> srcAP</text>
<text text-anchor="middle" x="918" y="-208.26" font-family="Helvetica,sans-Serif" font-size="10.00">trgAP</text>
</g>
<!-- Node3 -->
<g id="node3" class="node">
<title>Node3</title>
<g id="a_node3"><a xlink:title=" ">
<polygon fill="white" stroke="black" points="143.5,-306.76 143.5,-325.76 202.5,-325.76 202.5,-306.76 143.5,-306.76"/>
<text text-anchor="middle" x="173" y="-313.76" font-family="Helvetica,sans-Serif" font-size="10.00">Cloneable</text>
</a>
</g>
</g>
<!-- Node3&#45;&gt;Node2 -->
<g id="edge2" class="edge">
<title>Node3&#45;&gt;Node2</title>
<path fill="none" stroke="midnightblue" d="M212.54,-309.01C312.64,-290.18 581.82,-239.52 707.79,-215.82"/>
<polygon fill="midnightblue" stroke="midnightblue" points="211.74,-305.6 202.56,-310.89 213.03,-312.48 211.74,-305.6"/>
</g>
<!-- Node5 -->
<g id="node5" class="node">
<title>Node5</title>
<g id="a_node5"><a xlink:href="classdenoptim_1_1graph_1_1_a_p_class.html" target="_top" xlink:title=" ">
<polygon fill="white" stroke="black" points="430.5,-123.76 430.5,-142.76 553.5,-142.76 553.5,-123.76 430.5,-123.76"/>
<text text-anchor="middle" x="492" y="-130.76" font-family="Helvetica,sans-Serif" font-size="10.00">denoptim.graph.APClass</text>
</a>
</g>
</g>
<!-- Node3&#45;&gt;Node5 -->
<g id="edge5" class="edge">
<title>Node3&#45;&gt;Node5</title>
<path fill="none" stroke="midnightblue" d="M190.38,-299.16C208.8,-280.91 240.42,-252.46 273,-236.26 322.61,-211.6 353.31,-243.87 394,-206.26 412.58,-189.09 393.36,-169.37 412,-152.26 417.3,-147.4 423.62,-143.72 430.35,-140.94"/>
<polygon fill="midnightblue" stroke="midnightblue" points="187.65,-296.94 183.11,-306.51 192.63,-301.86 187.65,-296.94"/>
</g>
<!-- Node12 -->
<g id="node12" class="node">
<title>Node12</title>
<g id="a_node12"><a xlink:href="classdenoptim_1_1graph_1_1_vertex.html" target="_top" xlink:title="A vertex is a data structure that has an identity and holds a list of AttachmentPoints.">
<polygon fill="white" stroke="black" points="435.5,-482.76 435.5,-501.76 548.5,-501.76 548.5,-482.76 435.5,-482.76"/>
<text text-anchor="middle" x="492" y="-489.76" font-family="Helvetica,sans-Serif" font-size="10.00">denoptim.graph.Vertex</text>
</a>
</g>
</g>
<!-- Node3&#45;&gt;Node12 -->
<g id="edge13" class="edge">
<title>Node3&#45;&gt;Node12</title>
<path fill="none" stroke="midnightblue" d="M200.42,-330.93C263.37,-365.88 420.91,-453.35 473.56,-482.58"/>
<polygon fill="midnightblue" stroke="midnightblue" points="201.94,-327.77 191.49,-325.98 198.54,-333.89 201.94,-327.77"/>
</g>
<!-- Node13 -->
<g id="node13" class="node">
<title>Node13</title>
<g id="a_node13"><a xlink:href="classdenoptim_1_1graph_1_1_d_graph.html" target="_top" xlink:title="Container for the list of vertices and the edges that connect them.">
<polygon fill="white" stroke="black" points="976,-491.76 976,-510.76 1094,-510.76 1094,-491.76 976,-491.76"/>
<text text-anchor="middle" x="1035" y="-498.76" font-family="Helvetica,sans-Serif" font-size="10.00">denoptim.graph.DGraph</text>
</a>
</g>
</g>
<!-- Node3&#45;&gt;Node13 -->
<g id="edge15" class="edge">
<title>Node3&#45;&gt;Node13</title>
<path fill="none" stroke="midnightblue" d="M212.54,-322.23C230.83,-324.93 253.01,-328.01 273,-330.26 535.38,-359.87 603.25,-345.5 865,-380.26 904.41,-385.5 919.04,-375.6 953,-396.26 992.14,-420.09 1019.37,-470.32 1029.56,-491.51"/>
<polygon fill="midnightblue" stroke="midnightblue" points="212.95,-318.75 202.54,-320.73 211.91,-325.67 212.95,-318.75"/>
</g>
<!-- Node19 -->
<g id="node19" class="node">
<title>Node19</title>
<g id="a_node19"><a xlink:href="classdenoptim_1_1graph_1_1_candidate.html" target="_top" xlink:title="A candidate is the combination of a denoptim graph with molecular representation and may include also...">
<polygon fill="white" stroke="black" points="1180,-457.76 1180,-476.76 1308,-476.76 1308,-457.76 1180,-457.76"/>
<text text-anchor="middle" x="1244" y="-464.76" font-family="Helvetica,sans-Serif" font-size="10.00">denoptim.graph.Candidate</text>
</a>
</g>
</g>
<!-- Node3&#45;&gt;Node19 -->
<g id="edge23" class="edge">
<title>Node3&#45;&gt;Node19</title>
<path fill="none" stroke="midnightblue" d="M212.81,-317.43C322.62,-320.4 630.07,-326.46 668,-302.26 683.08,-292.65 670.78,-275.67 686,-266.26 753.67,-224.44 785.46,-264.46 865,-266.26 904.14,-267.15 915.85,-257.91 953,-270.26 1077.75,-311.75 1198.44,-423.48 1233.11,-457.38"/>
<polygon fill="midnightblue" stroke="midnightblue" points="212.61,-313.92 202.51,-317.14 212.41,-320.92 212.61,-313.92"/>
</g>
<!-- Node4 -->
<g id="node4" class="node">
<title>Node4</title>
<g id="a_node4"><a xlink:title=" ">
<polygon fill="white" stroke="black" points="413,-161.76 413,-180.76 571,-180.76 571,-161.76 413,-161.76"/>
<text text-anchor="middle" x="492" y="-168.76" font-family="Helvetica,sans-Serif" font-size="10.00">Comparable&lt; AttachmentPoint &gt;</text>
</a>
</g>
</g>
<!-- Node4&#45;&gt;Node2 -->
<g id="edge3" class="edge">
<title>Node4&#45;&gt;Node2</title>
<path fill="none" stroke="midnightblue" d="M581.02,-181.27C621.96,-185.92 669.87,-191.37 707.77,-195.68"/>
<polygon fill="midnightblue" stroke="midnightblue" points="581.37,-177.79 571.04,-180.14 580.58,-184.74 581.37,-177.79"/>
</g>
<!-- Node5&#45;&gt;Node2 -->
<g id="edge4" class="edge">
<title>Node5&#45;&gt;Node2</title>
<path fill="none" stroke="#9a32cd" stroke-dasharray="5,2" d="M562.81,-144.61C595.06,-150.42 633.71,-158.18 668,-167.26 690.17,-173.14 714.42,-181.2 734.18,-188.21"/>
<polygon fill="#9a32cd" stroke="#9a32cd" points="563.04,-141.1 552.58,-142.8 561.82,-147.99 563.04,-141.1"/>
<text text-anchor="middle" x="629" y="-170.26" font-family="Helvetica,sans-Serif" font-size="10.00"> apClass</text>
</g>
<!-- Node6 -->
<g id="node6" class="node">
<title>Node6</title>
<g id="a_node6"><a xlink:title=" ">
<polygon fill="white" stroke="black" points="111.5,-188.76 111.5,-207.76 234.5,-207.76 234.5,-188.76 111.5,-188.76"/>
<text text-anchor="middle" x="173" y="-195.76" font-family="Helvetica,sans-Serif" font-size="10.00">Comparable&lt; APClass &gt;</text>
</a>
</g>
</g>
<!-- Node6&#45;&gt;Node5 -->
<g id="edge6" class="edge">
<title>Node6&#45;&gt;Node5</title>
<path fill="none" stroke="midnightblue" d="M244.74,-206.55C290.31,-208.5 349.19,-204.4 394,-178.26 406.14,-171.18 400.41,-160.21 412,-152.26 417.7,-148.36 424.12,-145.25 430.76,-142.78"/>
<polygon fill="midnightblue" stroke="midnightblue" points="244.81,-203.05 234.64,-206.02 244.44,-210.04 244.81,-203.05"/>
</g>
<!-- Node7 -->
<g id="node7" class="node">
<title>Node7</title>
<g id="a_node7"><a xlink:title=" ">
<polygon fill="white" stroke="black" points="95.5,-150.76 95.5,-169.76 250.5,-169.76 250.5,-150.76 95.5,-150.76"/>
<text text-anchor="middle" x="173" y="-157.76" font-family="Helvetica,sans-Serif" font-size="10.00">Set&lt; denoptim.graph.APClass &gt;</text>
</a>
</g>
</g>
<!-- Node7&#45;&gt;Node5 -->
<g id="edge7" class="edge">
<title>Node7&#45;&gt;Node5</title>
<path fill="none" stroke="#9a32cd" stroke-dasharray="5,2" d="M260.95,-152.86C314.69,-148.28 382.33,-142.52 430.32,-138.43"/>
<polygon fill="#9a32cd" stroke="#9a32cd" points="260.4,-149.39 250.74,-153.73 261,-156.37 260.4,-149.39"/>
<text text-anchor="middle" x="333.5" y="-166.26" font-family="Helvetica,sans-Serif" font-size="10.00"> RCAAPCLASSSET</text>
<text text-anchor="middle" x="333.5" y="-155.26" font-family="Helvetica,sans-Serif" font-size="10.00">uniqueAPClasses</text>
</g>
<!-- Node8 -->
<g id="node8" class="node">
<title>Node8</title>
<g id="a_node8"><a xlink:title=" ">
<polygon fill="white" stroke="black" points="105.5,-101.26 105.5,-131.26 240.5,-131.26 240.5,-101.26 105.5,-101.26"/>
<text text-anchor="start" x="113.5" y="-119.26" font-family="Helvetica,sans-Serif" font-size="10.00">HashMap&lt; denoptim.graph.</text>
<text text-anchor="middle" x="173" y="-108.26" font-family="Helvetica,sans-Serif" font-size="10.00">APClass, String &gt;</text>
</a>
</g>
</g>
<!-- Node8&#45;&gt;Node5 -->
<g id="edge8" class="edge">
<title>Node8&#45;&gt;Node5</title>
<path fill="none" stroke="#9a32cd" stroke-dasharray="5,2" d="M251.13,-119.9C293.34,-121.94 346.56,-124.61 394,-127.26 405.79,-127.92 418.39,-128.67 430.47,-129.41"/>
<polygon fill="#9a32cd" stroke="#9a32cd" points="251.08,-116.39 240.92,-119.41 250.74,-123.38 251.08,-116.39"/>
<text text-anchor="middle" x="333.5" y="-130.26" font-family="Helvetica,sans-Serif" font-size="10.00"> RCALABELPERAPCLASS</text>
</g>
<!-- Node9 -->
<g id="node9" class="node">
<title>Node9</title>
<g id="a_node9"><a xlink:href="enumdenoptim_1_1graph_1_1_edge_1_1_bond_type.html" target="_top" xlink:title="Possible chemical bond types an edge can represent.">
<polygon fill="white" stroke="black" points="97,-38.76 97,-57.76 249,-57.76 249,-38.76 97,-38.76"/>
<text text-anchor="middle" x="173" y="-45.76" font-family="Helvetica,sans-Serif" font-size="10.00">denoptim.graph.Edge.BondType</text>
</a>
</g>
</g>
<!-- Node9&#45;&gt;Node1 -->
<g id="edge46" class="edge">
<title>Node9&#45;&gt;Node1</title>
<path fill="none" stroke="#9a32cd" stroke-dasharray="5,2" d="M245.61,-37.44C254.82,-36.26 264.12,-35.16 273,-34.26 573.71,-4.04 656.46,24.05 953,-34.26 972.93,-38.18 994.72,-45.64 1010.68,-51.73"/>
<polygon fill="#9a32cd" stroke="#9a32cd" points="245.15,-33.97 235.7,-38.76 246.07,-40.91 245.15,-33.97"/>
<text text-anchor="middle" x="629" y="-5.26" font-family="Helvetica,sans-Serif" font-size="10.00"> bondType</text>
</g>
<!-- Node9&#45;&gt;Node5 -->
<g id="edge9" class="edge">
<title>Node9&#45;&gt;Node5</title>
<path fill="none" stroke="#9a32cd" stroke-dasharray="5,2" d="M241.16,-59.67C285.1,-67.85 343.51,-80.09 394,-95.26 420.5,-103.23 449.97,-115.25 469.4,-123.63"/>
<polygon fill="#9a32cd" stroke="#9a32cd" points="241.63,-56.2 231.16,-57.83 240.37,-63.08 241.63,-56.2"/>
<text text-anchor="middle" x="333.5" y="-109.26" font-family="Helvetica,sans-Serif" font-size="10.00"> DEFAULTBT</text>
<text text-anchor="middle" x="333.5" y="-98.26" font-family="Helvetica,sans-Serif" font-size="10.00">bndTyp</text>
</g>
<!-- Node9&#45;&gt;Node35 -->
<g id="edge44" class="edge">
<title>Node9&#45;&gt;Node35</title>
<path fill="none" stroke="#9a32cd" stroke-dasharray="5,2" d="M259.27,-54.01C300.05,-56.78 349.55,-60.16 394,-63.26 518.24,-71.94 859.01,-21.56 953,-103.26 981.82,-128.31 945.13,-159.19 971,-187.26 974.56,-191.13 978.88,-194.22 983.56,-196.69"/>
<polygon fill="#9a32cd" stroke="#9a32cd" points="259.31,-50.51 249.1,-53.32 258.84,-57.49 259.31,-50.51"/>
<text text-anchor="middle" x="629" y="-62.26" font-family="Helvetica,sans-Serif" font-size="10.00"> bondType</text>
</g>
<!-- Node10 -->
<g id="node10" class="node">
<title>Node10</title>
<g id="a_node10"><a xlink:title=" ">
<polygon fill="white" stroke="black" points="0,-38.76 0,-57.76 42,-57.76 42,-38.76 0,-38.76"/>
<text text-anchor="middle" x="21" y="-45.76" font-family="Helvetica,sans-Serif" font-size="10.00">IBond</text>
</a>
</g>
</g>
<!-- Node10&#45;&gt;Node9 -->
<g id="edge10" class="edge">
<title>Node10&#45;&gt;Node9</title>
<path fill="none" stroke="#9a32cd" stroke-dasharray="5,2" d="M52.4,-48.26C65.37,-48.26 81.12,-48.26 96.89,-48.26"/>
<polygon fill="#9a32cd" stroke="#9a32cd" points="52.23,-44.76 42.23,-48.26 52.23,-51.76 52.23,-44.76"/>
<text text-anchor="middle" x="66.5" y="-51.26" font-family="Helvetica,sans-Serif" font-size="10.00"> bo</text>
</g>
<!-- Node11 -->
<g id="node11" class="node">
<title>Node11</title>
<g id="a_node11"><a xlink:title=" ">
<polygon fill="white" stroke="black" points="467,-199.76 467,-218.76 517,-218.76 517,-199.76 467,-199.76"/>
<text text-anchor="middle" x="492" y="-206.76" font-family="Helvetica,sans-Serif" font-size="10.00">Point3d</text>
</a>
</g>
</g>
<!-- Node11&#45;&gt;Node2 -->
<g id="edge11" class="edge">
<title>Node11&#45;&gt;Node2</title>
<path fill="none" stroke="#9a32cd" stroke-dasharray="5,2" d="M527.04,-208.54C571.67,-207.59 650.97,-205.9 707.78,-204.69"/>
<polygon fill="#9a32cd" stroke="#9a32cd" points="526.92,-205.04 517,-208.75 527.07,-212.04 526.92,-205.04"/>
<text text-anchor="middle" x="629" y="-209.26" font-family="Helvetica,sans-Serif" font-size="10.00"> dirVec</text>
</g>
<!-- Node12&#45;&gt;Node2 -->
<g id="edge12" class="edge">
<title>Node12&#45;&gt;Node2</title>
<path fill="none" stroke="#9a32cd" stroke-dasharray="5,2" d="M511.54,-475.63C528.04,-460.49 552.52,-437.23 572,-415.26 627.33,-352.89 626.03,-324.2 686,-266.26 705.4,-247.53 730.74,-230.06 749.33,-218.3"/>
<polygon fill="#9a32cd" stroke="#9a32cd" points="508.75,-473.44 503.7,-482.75 513.46,-478.62 508.75,-473.44"/>
<text text-anchor="middle" x="629" y="-393.26" font-family="Helvetica,sans-Serif" font-size="10.00"> owner</text>
</g>
<!-- Node22 -->
<g id="node22" class="node">
<title>Node22</title>
<g id="a_node22"><a xlink:href="classdenoptim_1_1graph_1_1_template.html" target="_top" xlink:title=" ">
<polygon fill="white" stroke="black" points="713,-753.76 713,-772.76 838,-772.76 838,-753.76 713,-753.76"/>
<text text-anchor="middle" x="775.5" y="-760.76" font-family="Helvetica,sans-Serif" font-size="10.00">denoptim.graph.Template</text>
</a>
</g>
</g>
<!-- Node12&#45;&gt;Node22 -->
<g id="edge27" class="edge">
<title>Node12&#45;&gt;Node22</title>
<path fill="none" stroke="midnightblue" d="M512.39,-508.82C548.1,-540.28 624.57,-612.4 668,-688.26 680.99,-710.95 666.62,-726.72 686,-744.26 693.57,-751.12 703.01,-755.72 712.87,-758.76"/>
<polygon fill="midnightblue" stroke="midnightblue" points="514.46,-505.98 504.62,-502.05 509.86,-511.26 514.46,-505.98"/>
</g>
<!-- Node13&#45;&gt;Node12 -->
<g id="edge14" class="edge">
<title>Node13&#45;&gt;Node12</title>
<path fill="none" stroke="#9a32cd" stroke-dasharray="5,2" d="M997.63,-488.34C963.8,-477.05 911.71,-461.51 865,-455.26 786.15,-444.72 765.2,-447.74 686,-455.26 631.66,-460.43 569.85,-473.59 531.14,-482.74"/>
<polygon fill="#9a32cd" stroke="#9a32cd" points="996.93,-491.8 1007.52,-491.7 999.18,-485.17 996.93,-491.8"/>
<text text-anchor="middle" x="775.5" y="-458.26" font-family="Helvetica,sans-Serif" font-size="10.00"> owner</text>
</g>
<!-- Node13&#45;&gt;Node19 -->
<g id="edge24" class="edge">
<title>Node13&#45;&gt;Node19</title>
<path fill="none" stroke="#9a32cd" stroke-dasharray="5,2" d="M1061.67,-486.96C1077.17,-479.15 1097.62,-470.27 1117,-466.26 1137.14,-462.1 1159.47,-461.13 1179.68,-461.57"/>
<polygon fill="#9a32cd" stroke="#9a32cd" points="1059.96,-483.9 1052.71,-491.63 1063.2,-490.11 1059.96,-483.9"/>
<text text-anchor="middle" x="1139.5" y="-469.26" font-family="Helvetica,sans-Serif" font-size="10.00"> graph</text>
</g>
<!-- Node13&#45;&gt;Node22 -->
<g id="edge28" class="edge">
<title>Node13&#45;&gt;Node22</title>
<path fill="none" stroke="#9a32cd" stroke-dasharray="5,2" d="M1032.58,-521.04C1028.4,-563.9 1012.43,-665.85 953,-720.26 923.1,-747.64 904.39,-734.67 865,-744.26 851.56,-747.54 836.91,-750.8 823.46,-753.68"/>
<polygon fill="#9a32cd" stroke="#9a32cd" points="1036.08,-521.09 1033.45,-510.83 1029.11,-520.49 1036.08,-521.09"/>
<text text-anchor="middle" x="918" y="-743.26" font-family="Helvetica,sans-Serif" font-size="10.00"> innerGraph</text>
</g>
<!-- Node14 -->
<g id="node14" class="node">
<title>Node14</title>
<g id="a_node14"><a xlink:title=" ">
<polygon fill="white" stroke="black" points="702.5,-313.76 702.5,-332.76 848.5,-332.76 848.5,-313.76 702.5,-313.76"/>
<text text-anchor="middle" x="775.5" y="-320.76" font-family="Helvetica,sans-Serif" font-size="10.00">List&lt; denoptim.graph.Vertex &gt;</text>
</a>
</g>
</g>
<!-- Node14&#45;&gt;Node13 -->
<g id="edge16" class="edge">
<title>Node14&#45;&gt;Node13</title>
<path fill="none" stroke="#9a32cd" stroke-dasharray="5,2" d="M843.89,-313.05C879.18,-311.24 921.48,-314.98 953,-336.26 1009.06,-374.13 1027.82,-462.44 1032.61,-491.67"/>
<polygon fill="#9a32cd" stroke="#9a32cd" points="843.4,-309.58 833.66,-313.74 843.87,-316.56 843.4,-309.58"/>
<text text-anchor="middle" x="918" y="-339.26" font-family="Helvetica,sans-Serif" font-size="10.00"> gVertices</text>
</g>
<!-- Node15 -->
<g id="node15" class="node">
<title>Node15</title>
<g id="a_node15"><a xlink:title=" ">
<polygon fill="white" stroke="black" points="705.5,-275.76 705.5,-294.76 845.5,-294.76 845.5,-275.76 705.5,-275.76"/>
<text text-anchor="middle" x="775.5" y="-282.76" font-family="Helvetica,sans-Serif" font-size="10.00">List&lt; denoptim.graph.Edge &gt;</text>
</a>
</g>
</g>
<!-- Node15&#45;&gt;Node13 -->
<g id="edge17" class="edge">
<title>Node15&#45;&gt;Node13</title>
<path fill="none" stroke="#9a32cd" stroke-dasharray="5,2" d="M836,-274.72C873.05,-271.51 919.81,-273.95 953,-298.26 1019.11,-346.71 1031.33,-457.92 1033.53,-491.49"/>
<polygon fill="#9a32cd" stroke="#9a32cd" points="835.41,-271.26 825.82,-275.76 836.13,-278.23 835.41,-271.26"/>
<text text-anchor="middle" x="918" y="-301.26" font-family="Helvetica,sans-Serif" font-size="10.00"> gEdges</text>
</g>
<!-- Node16 -->
<g id="node16" class="node">
<title>Node16</title>
<g id="a_node16"><a xlink:title=" ">
<polygon fill="white" stroke="black" points="707,-715.76 707,-734.76 844,-734.76 844,-715.76 707,-715.76"/>
<text text-anchor="middle" x="775.5" y="-722.76" font-family="Helvetica,sans-Serif" font-size="10.00">List&lt; denoptim.graph.Ring &gt;</text>
</a>
</g>
</g>
<!-- Node16&#45;&gt;Node13 -->
<g id="edge18" class="edge">
<title>Node16&#45;&gt;Node13</title>
<path fill="none" stroke="#9a32cd" stroke-dasharray="5,2" d="M854.17,-714.77C888.23,-706.6 926.41,-692.07 953,-666.26 1001.08,-619.59 1024.79,-538.46 1031.75,-510.81"/>
<polygon fill="#9a32cd" stroke="#9a32cd" points="853.21,-711.4 844.22,-717.01 854.74,-718.23 853.21,-711.4"/>
<text text-anchor="middle" x="918" y="-708.26" font-family="Helvetica,sans-Serif" font-size="10.00"> gRings</text>
</g>
<!-- Node17 -->
<g id="node17" class="node">
<title>Node17</title>
<g id="a_node17"><a xlink:title=" ">
<polygon fill="white" stroke="black" points="709,-666.26 709,-696.26 842,-696.26 842,-666.26 709,-666.26"/>
<text text-anchor="start" x="717" y="-684.26" font-family="Helvetica,sans-Serif" font-size="10.00">List&lt; denoptim.graph.rings.</text>
<text text-anchor="middle" x="775.5" y="-673.26" font-family="Helvetica,sans-Serif" font-size="10.00">ClosableChain &gt;</text>
</a>
</g>
</g>
<!-- Node17&#45;&gt;Node13 -->
<g id="edge19" class="edge">
<title>Node17&#45;&gt;Node13</title>
<path fill="none" stroke="#9a32cd" stroke-dasharray="5,2" d="M852.24,-664.26C885.89,-653.83 924.3,-637.64 953,-613.26 989.4,-582.35 1018.15,-531.82 1029.15,-510.85"/>
<polygon fill="#9a32cd" stroke="#9a32cd" points="851.01,-660.98 842.42,-667.19 853.01,-667.69 851.01,-660.98"/>
<text text-anchor="middle" x="918" y="-654.26" font-family="Helvetica,sans-Serif" font-size="10.00"> closableChains</text>
</g>
<!-- Node18 -->
<g id="node18" class="node">
<title>Node18</title>
<g id="a_node18"><a xlink:title=" ">
<polygon fill="white" stroke="black" points="697.5,-617.26 697.5,-647.26 853.5,-647.26 853.5,-617.26 697.5,-617.26"/>
<text text-anchor="start" x="705.5" y="-635.26" font-family="Helvetica,sans-Serif" font-size="10.00">List&lt; denoptim.graph.Symmetric</text>
<text text-anchor="middle" x="775.5" y="-624.26" font-family="Helvetica,sans-Serif" font-size="10.00">Vertexes &gt;</text>
</a>
</g>
</g>
<!-- Node18&#45;&gt;Node13 -->
<g id="edge20" class="edge">
<title>Node18&#45;&gt;Node13</title>
<path fill="none" stroke="#9a32cd" stroke-dasharray="5,2" d="M850.3,-613.94C855.33,-612.17 860.27,-610.28 865,-608.26 928.56,-581.13 995.42,-531.53 1022.05,-510.78"/>
<polygon fill="#9a32cd" stroke="#9a32cd" points="848.94,-610.7 840.55,-617.17 851.15,-617.34 848.94,-610.7"/>
<text text-anchor="middle" x="918" y="-601.26" font-family="Helvetica,sans-Serif" font-size="10.00"> symVertices</text>
</g>
<!-- Node19&#45;&gt;Node13 -->
<g id="edge21" class="edge">
<title>Node19&#45;&gt;Node13</title>
<path fill="none" stroke="#9a32cd" stroke-dasharray="5,2" d="M1175.2,-478.4C1148.94,-482.71 1119.18,-487.6 1093.94,-491.75"/>
<polygon fill="#9a32cd" stroke="#9a32cd" points="1175.78,-481.85 1185.08,-476.78 1174.64,-474.95 1175.78,-481.85"/>
<text text-anchor="middle" x="1139.5" y="-490.26" font-family="Helvetica,sans-Serif" font-size="10.00"> candidate</text>
</g>
<!-- Node20 -->
<g id="node20" class="node">
<title>Node20</title>
<g id="a_node20"><a xlink:title=" ">
<polygon fill="white" stroke="black" points="971,-158.76 971,-177.76 1099,-177.76 1099,-158.76 971,-158.76"/>
<text text-anchor="middle" x="1035" y="-165.76" font-family="Helvetica,sans-Serif" font-size="10.00">Comparable&lt; Candidate &gt;</text>
</a>
</g>
</g>
<!-- Node20&#45;&gt;Node19 -->
<g id="edge22" class="edge">
<title>Node20&#45;&gt;Node19</title>
<path fill="none" stroke="midnightblue" d="M1084.64,-181.11C1089.58,-182.95 1094.45,-185 1099,-187.26 1130.04,-202.71 1141.39,-205.39 1162,-233.26 1217.21,-307.93 1236.92,-423.19 1241.73,-457.38"/>
<polygon fill="midnightblue" stroke="midnightblue" points="1085.7,-177.77 1075.11,-177.81 1083.42,-184.39 1085.7,-177.77"/>
</g>
<!-- Node21 -->
<g id="node21" class="node">
<title>Node21</title>
<g id="a_node21"><a xlink:title=" ">
<polygon fill="white" stroke="black" points="450,-807.76 450,-826.76 534,-826.76 534,-807.76 450,-807.76"/>
<text text-anchor="middle" x="492" y="-814.76" font-family="Helvetica,sans-Serif" font-size="10.00">IAtomContainer</text>
</a>
</g>
</g>
<!-- Node21&#45;&gt;Node19 -->
<g id="edge25" class="edge">
<title>Node21&#45;&gt;Node19</title>
<path fill="none" stroke="#9a32cd" stroke-dasharray="5,2" d="M544.06,-826.71C632.44,-840.5 817.46,-857.89 953,-792.26 1106.48,-717.95 1214.59,-522.39 1238.17,-476.84"/>
<polygon fill="#9a32cd" stroke="#9a32cd" points="544.46,-823.23 534.03,-825.1 543.35,-830.14 544.46,-823.23"/>
<text text-anchor="middle" x="918" y="-820.26" font-family="Helvetica,sans-Serif" font-size="10.00"> iac</text>
</g>
<!-- Node21&#45;&gt;Node22 -->
<g id="edge29" class="edge">
<title>Node21&#45;&gt;Node22</title>
<path fill="none" stroke="#9a32cd" stroke-dasharray="5,2" d="M544.05,-807.21C558.87,-804.3 575.08,-801.14 590,-798.26 635.3,-789.53 686.89,-779.76 723.98,-772.77"/>
<polygon fill="#9a32cd" stroke="#9a32cd" points="543.19,-803.81 534.05,-809.17 544.54,-810.68 543.19,-803.81"/>
<text text-anchor="middle" x="629" y="-801.26" font-family="Helvetica,sans-Serif" font-size="10.00"> mol</text>
</g>
<!-- Node22&#45;&gt;Node13 -->
<g id="edge26" class="edge">
<title>Node22&#45;&gt;Node13</title>
<path fill="none" stroke="#9a32cd" stroke-dasharray="5,2" d="M824.47,-774.51C863.13,-780.63 916.84,-782.09 953,-754.26 1033.59,-692.24 1035.44,-549.37 1034.41,-510.93"/>
<polygon fill="#9a32cd" stroke="#9a32cd" points="824.93,-771.04 814.48,-772.78 823.74,-777.94 824.93,-771.04"/>
<text text-anchor="middle" x="918" y="-780.26" font-family="Helvetica,sans-Serif" font-size="10.00"> templateJacket</text>
</g>
<!-- Node23 -->
<g id="node23" class="node">
<title>Node23</title>
<g id="a_node23"><a xlink:href="enumdenoptim_1_1graph_1_1_template_1_1_contract_level.html" target="_top" xlink:title="Enum specifying to what extent the template&#39;s inner graph can be changed.">
<polygon fill="white" stroke="black" points="428,-665.26 428,-695.26 556,-695.26 556,-665.26 428,-665.26"/>
<text text-anchor="start" x="436" y="-683.26" font-family="Helvetica,sans-Serif" font-size="10.00">denoptim.graph.Template.</text>
<text text-anchor="middle" x="492" y="-672.26" font-family="Helvetica,sans-Serif" font-size="10.00">ContractLevel</text>
</a>
</g>
</g>
<!-- Node23&#45;&gt;Node22 -->
<g id="edge30" class="edge">
<title>Node23&#45;&gt;Node22</title>
<path fill="none" stroke="#9a32cd" stroke-dasharray="5,2" d="M566.21,-687.93C599.17,-693.89 637.45,-704.47 668,-723.26 678.47,-729.71 675.44,-737.98 686,-744.26 694.1,-749.09 703.27,-752.69 712.55,-755.39"/>
<polygon fill="#9a32cd" stroke="#9a32cd" points="566.61,-684.44 556.16,-686.22 565.43,-691.35 566.61,-684.44"/>
<text text-anchor="middle" x="629" y="-726.26" font-family="Helvetica,sans-Serif" font-size="10.00"> contractLevel</text>
</g>
<!-- Node24 -->
<g id="node24" class="node">
<title>Node24</title>
<g id="a_node24"><a xlink:title=" ">
<polygon fill="white" stroke="black" points="412,-714.26 412,-744.26 572,-744.26 572,-714.26 412,-714.26"/>
<text text-anchor="start" x="420" y="-732.26" font-family="Helvetica,sans-Serif" font-size="10.00">List&lt; denoptim.graph.Attachment</text>
<text text-anchor="middle" x="492" y="-721.26" font-family="Helvetica,sans-Serif" font-size="10.00">Point &gt;</text>
</a>
</g>
</g>
<!-- Node24&#45;&gt;Node22 -->
<g id="edge31" class="edge">
<title>Node24&#45;&gt;Node22</title>
<path fill="none" stroke="#9a32cd" stroke-dasharray="5,2" d="M582.36,-737.64C609.86,-740.44 640.2,-743.75 668,-747.26 683.12,-749.18 699.4,-751.49 714.58,-753.76"/>
<polygon fill="#9a32cd" stroke="#9a32cd" points="582.67,-734.16 572.36,-736.64 581.96,-741.12 582.67,-734.16"/>
<text text-anchor="middle" x="629" y="-750.26" font-family="Helvetica,sans-Serif" font-size="10.00"> requiredAPs</text>
</g>
<!-- Node25 -->
<g id="node25" class="node">
<title>Node25</title>
<g id="a_node25"><a xlink:href="classdenoptim_1_1graph_1_1_a_p_tree_map.html" target="_top" xlink:title="Attachment point mapping where keys are sorted by natural ordering, i.e., by AttachmentPoint#compareT...">
<polygon fill="white" stroke="black" points="423.5,-763.76 423.5,-782.76 560.5,-782.76 560.5,-763.76 423.5,-763.76"/>
<text text-anchor="middle" x="492" y="-770.76" font-family="Helvetica,sans-Serif" font-size="10.00">denoptim.graph.APTreeMap</text>
</a>
</g>
</g>
<!-- Node25&#45;&gt;Node22 -->
<g id="edge32" class="edge">
<title>Node25&#45;&gt;Node22</title>
<path fill="none" stroke="#9a32cd" stroke-dasharray="5,2" d="M570.74,-765.45C577.25,-764.98 583.74,-764.57 590,-764.26 630.95,-762.26 677.08,-762.01 712.96,-762.26"/>
<polygon fill="#9a32cd" stroke="#9a32cd" points="570.22,-761.98 560.52,-766.24 570.76,-768.96 570.22,-761.98"/>
<text text-anchor="middle" x="629" y="-767.26" font-family="Helvetica,sans-Serif" font-size="10.00"> innerToOuterAPs</text>
</g>
<!-- Node26 -->
<g id="node26" class="node">
<title>Node26</title>
<g id="a_node26"><a xlink:title=" ">
<polygon fill="white" stroke="black" points="100,-758.26 100,-788.26 246,-788.26 246,-758.26 100,-758.26"/>
<text text-anchor="start" x="108" y="-776.26" font-family="Helvetica,sans-Serif" font-size="10.00">LinkedHashMap&lt; Attachment</text>
<text text-anchor="middle" x="173" y="-765.26" font-family="Helvetica,sans-Serif" font-size="10.00">Point, AttachmentPoint &gt;</text>
</a>
</g>
</g>
<!-- Node26&#45;&gt;Node25 -->
<g id="edge33" class="edge">
<title>Node26&#45;&gt;Node25</title>
<path fill="none" stroke="midnightblue" d="M256.51,-773.26C308.4,-773.26 374.52,-773.26 423.32,-773.26"/>
<polygon fill="midnightblue" stroke="midnightblue" points="256.33,-769.76 246.33,-773.26 256.33,-776.76 256.33,-769.76"/>
</g>
<!-- Node27 -->
<g id="node27" class="node">
<title>Node27</title>
<g id="a_node27"><a xlink:title=" ">
<polygon fill="white" stroke="black" points="687,-546.26 687,-598.26 864,-598.26 864,-546.26 687,-546.26"/>
<text text-anchor="start" x="695" y="-586.26" font-family="Helvetica,sans-Serif" font-size="10.00">DefaultUndirectedGraph</text>
<text text-anchor="start" x="695" y="-575.26" font-family="Helvetica,sans-Serif" font-size="10.00">&lt; denoptim.graph.Vertex,</text>
<text text-anchor="start" x="695" y="-564.26" font-family="Helvetica,sans-Serif" font-size="10.00"> denoptim.graph.simplified.Undirected</text>
<text text-anchor="middle" x="775.5" y="-553.26" font-family="Helvetica,sans-Serif" font-size="10.00">Edge &gt;</text>
</a>
</g>
</g>
<!-- Node27&#45;&gt;Node13 -->
<g id="edge34" class="edge">
<title>Node27&#45;&gt;Node13</title>
<path fill="none" stroke="#9a32cd" stroke-dasharray="5,2" d="M873.93,-545.4C917.94,-533.26 967.16,-519.69 999.26,-510.84"/>
<polygon fill="#9a32cd" stroke="#9a32cd" points="872.75,-542.1 864.04,-548.13 874.61,-548.84 872.75,-542.1"/>
<text text-anchor="middle" x="918" y="-543.26" font-family="Helvetica,sans-Serif" font-size="10.00"> jGraph</text>
</g>
<!-- Node28 -->
<g id="node28" class="node">
<title>Node28</title>
<g id="a_node28"><a xlink:title=" ">
<polygon fill="white" stroke="black" points="686,-475.26 686,-527.26 865,-527.26 865,-475.26 686,-475.26"/>
<text text-anchor="start" x="694" y="-515.26" font-family="Helvetica,sans-Serif" font-size="10.00">DefaultUndirectedGraph</text>
<text text-anchor="start" x="694" y="-504.26" font-family="Helvetica,sans-Serif" font-size="10.00">&lt; denoptim.graph.simplified.</text>
<text text-anchor="start" x="694" y="-493.26" font-family="Helvetica,sans-Serif" font-size="10.00">Node, denoptim.graph.simplified.Node</text>
<text text-anchor="middle" x="775.5" y="-482.26" font-family="Helvetica,sans-Serif" font-size="10.00">Connection &gt;</text>
</a>
</g>
</g>
<!-- Node28&#45;&gt;Node13 -->
<g id="edge35" class="edge">
<title>Node28&#45;&gt;Node13</title>
<path fill="none" stroke="#9a32cd" stroke-dasharray="5,2" d="M875.54,-501.26C909.48,-501.26 946.33,-501.26 975.94,-501.26"/>
<polygon fill="#9a32cd" stroke="#9a32cd" points="875.12,-497.76 865.12,-501.26 875.12,-504.76 875.12,-497.76"/>
<text text-anchor="middle" x="918" y="-504.26" font-family="Helvetica,sans-Serif" font-size="10.00"> jGraphKernel</text>
</g>
<!-- Node29 -->
<g id="node29" class="node">
<title>Node29</title>
<g id="a_node29"><a xlink:title=" ">
<polygon fill="white" stroke="black" points="737,-389.76 737,-408.76 814,-408.76 814,-389.76 737,-389.76"/>
<text text-anchor="middle" x="775.5" y="-396.76" font-family="Helvetica,sans-Serif" font-size="10.00">AtomicInteger</text>
</a>
</g>
</g>
<!-- Node29&#45;&gt;Node13 -->
<g id="edge36" class="edge">
<title>Node29&#45;&gt;Node13</title>
<path fill="none" stroke="#9a32cd" stroke-dasharray="5,2" d="M824.31,-396.67C861.23,-396.56 912.65,-400.68 953,-420.26 987.35,-436.94 1015.74,-474.16 1027.78,-491.73"/>
<polygon fill="#9a32cd" stroke="#9a32cd" points="824.26,-393.17 814.31,-396.8 824.35,-400.16 824.26,-393.17"/>
<text text-anchor="middle" x="918" y="-423.26" font-family="Helvetica,sans-Serif" font-size="10.00"> apCounter</text>
</g>
<!-- Node30 -->
<g id="node30" class="node">
<title>Node30</title>
<g id="a_node30"><a xlink:href="enumdenoptim_1_1graph_1_1_vertex_1_1_b_b_type.html" target="_top" xlink:title="The type of building block.">
<polygon fill="white" stroke="black" points="98.5,-516.76 98.5,-535.76 247.5,-535.76 247.5,-516.76 98.5,-516.76"/>
<text text-anchor="middle" x="173" y="-523.76" font-family="Helvetica,sans-Serif" font-size="10.00">denoptim.graph.Vertex.BBType</text>
</a>
</g>
</g>
<!-- Node30&#45;&gt;Node12 -->
<g id="edge37" class="edge">
<title>Node30&#45;&gt;Node12</title>
<path fill="none" stroke="#9a32cd" stroke-dasharray="5,2" d="M257.6,-518.37C298.71,-514.37 348.98,-509.3 394,-504.26 407.41,-502.77 421.84,-501.04 435.37,-499.37"/>
<polygon fill="#9a32cd" stroke="#9a32cd" points="257.25,-514.89 247.63,-519.34 257.92,-521.85 257.25,-514.89"/>
<text text-anchor="middle" x="333.5" y="-519.26" font-family="Helvetica,sans-Serif" font-size="10.00"> buildingBlockType</text>
</g>
<!-- Node31 -->
<g id="node31" class="node">
<title>Node31</title>
<g id="a_node31"><a xlink:title=" ">
<polygon fill="white" stroke="black" points="116,-415.76 116,-434.76 230,-434.76 230,-415.76 116,-415.76"/>
<text text-anchor="middle" x="173" y="-422.76" font-family="Helvetica,sans-Serif" font-size="10.00">Map&lt; Object, Object &gt;</text>
</a>
</g>
</g>
<!-- Node31&#45;&gt;Node2 -->
<g id="edge45" class="edge">
<title>Node31&#45;&gt;Node2</title>
<path fill="none" stroke="#9a32cd" stroke-dasharray="5,2" d="M209.75,-412.18C291.14,-382.37 496.51,-307.06 668,-243.26 690.03,-235.07 714.59,-225.85 734.57,-218.33"/>
<polygon fill="#9a32cd" stroke="#9a32cd" points="208.19,-409.03 200,-415.75 210.59,-415.6 208.19,-409.03"/>
<text text-anchor="middle" x="492" y="-340.26" font-family="Helvetica,sans-Serif" font-size="10.00"> properties</text>
</g>
<!-- Node31&#45;&gt;Node12 -->
<g id="edge38" class="edge">
<title>Node31&#45;&gt;Node12</title>
<path fill="none" stroke="#9a32cd" stroke-dasharray="5,2" d="M228.98,-436.89C290.41,-449.87 388.69,-470.64 445.82,-482.71"/>
<polygon fill="#9a32cd" stroke="#9a32cd" points="229.59,-433.44 219.08,-434.79 228.14,-440.29 229.59,-433.44"/>
<text text-anchor="middle" x="333.5" y="-473.26" font-family="Helvetica,sans-Serif" font-size="10.00"> properties</text>
</g>
<!-- Node32 -->
<g id="node32" class="node">
<title>Node32</title>
<g id="a_node32"><a xlink:title=" ">
<polygon fill="white" stroke="black" points="136,-478.76 136,-497.76 210,-497.76 210,-478.76 136,-478.76"/>
<text text-anchor="middle" x="173" y="-485.76" font-family="Helvetica,sans-Serif" font-size="10.00">Set&lt; String &gt;</text>
</a>
</g>
</g>
<!-- Node32&#45;&gt;Node12 -->
<g id="edge39" class="edge">
<title>Node32&#45;&gt;Node12</title>
<path fill="none" stroke="#9a32cd" stroke-dasharray="5,2" d="M220.23,-488.85C277.27,-489.57 374.2,-490.79 435.29,-491.56"/>
<polygon fill="#9a32cd" stroke="#9a32cd" points="220.1,-485.35 210.06,-488.72 220.01,-492.35 220.1,-485.35"/>
<text text-anchor="middle" x="333.5" y="-493.26" font-family="Helvetica,sans-Serif" font-size="10.00"> uniquefyingPropertyKeys</text>
</g>
<!-- Node33 -->
<g id="node33" class="node">
<title>Node33</title>
<g id="a_node33"><a xlink:title=" ">
<polygon fill="white" stroke="black" points="102.5,-593.26 102.5,-623.26 243.5,-623.26 243.5,-593.26 102.5,-593.26"/>
<text text-anchor="start" x="110.5" y="-611.26" font-family="Helvetica,sans-Serif" font-size="10.00">List&lt; denoptim.utils.Mutation</text>
<text text-anchor="middle" x="173" y="-600.26" font-family="Helvetica,sans-Serif" font-size="10.00">Type &gt;</text>
</a>
</g>
</g>
<!-- Node33&#45;&gt;Node12 -->
<g id="edge40" class="edge">
<title>Node33&#45;&gt;Node12</title>
<path fill="none" stroke="#9a32cd" stroke-dasharray="5,2" d="M254.07,-603.07C297.05,-598 350.07,-588 394,-568.26 430.69,-551.78 465.8,-518.52 481.87,-502.01"/>
<polygon fill="#9a32cd" stroke="#9a32cd" points="253.49,-599.61 243.94,-604.19 254.27,-606.57 253.49,-599.61"/>
<text text-anchor="middle" x="333.5" y="-602.26" font-family="Helvetica,sans-Serif" font-size="10.00"> allowedMutationTypes</text>
</g>
<!-- Node34 -->
<g id="node34" class="node">
<title>Node34</title>
<g id="a_node34"><a xlink:href="enumdenoptim_1_1graph_1_1_vertex_1_1_vertex_type.html" target="_top" xlink:title="Flag declaring the type of Vertex implementation.">
<polygon fill="white" stroke="black" points="91,-554.76 91,-573.76 255,-573.76 255,-554.76 91,-554.76"/>
<text text-anchor="middle" x="173" y="-561.76" font-family="Helvetica,sans-Serif" font-size="10.00">denoptim.graph.Vertex.VertexType</text>
</a>
</g>
</g>
<!-- Node34&#45;&gt;Node12 -->
<g id="edge41" class="edge">
<title>Node34&#45;&gt;Node12</title>
<path fill="none" stroke="#9a32cd" stroke-dasharray="5,2" d="M265.14,-555.43C305.12,-550.32 352.34,-542.6 394,-531.26 421.5,-523.79 451.75,-510.81 471.04,-501.9"/>
<polygon fill="#9a32cd" stroke="#9a32cd" points="264.63,-551.97 255.13,-556.68 265.49,-558.92 264.63,-551.97"/>
<text text-anchor="middle" x="333.5" y="-556.26" font-family="Helvetica,sans-Serif" font-size="10.00"> vertexType</text>
</g>
<!-- Node35&#45;&gt;Node2 -->
<g id="edge42" class="edge">
<title>Node35&#45;&gt;Node2</title>
<path fill="none" stroke="#9a32cd" stroke-dasharray="5,2" d="M985.87,-193.37C980.77,-191.53 975.72,-189.49 971,-187.26 962.3,-183.17 962.2,-178.05 953,-175.26 905.64,-160.92 848.78,-175.32 812.64,-188.22"/>
<polygon fill="#9a32cd" stroke="#9a32cd" points="985.08,-196.8 995.68,-196.68 987.32,-190.17 985.08,-196.8"/>
<text text-anchor="middle" x="918" y="-178.26" font-family="Helvetica,sans-Serif" font-size="10.00"> user</text>
</g>
</g>
</svg>
        <g id="navigator" transform="translate(0 0)" fill="#404254">
                <rect fill="#f2f5e9" fill-opacity="0.5" stroke="#606060" stroke-width=".5" x="0" y="0" width="60" height="60"/>
                <use id="zoomplus" xlink:href="#zoomPlus" x="17" y="9" onmousedown="handleZoom(evt,'in')"/>
                <use id="zoomminus" xlink:href="#zoomMin" x="42" y="9" onmousedown="handleZoom(evt,'out')"/>
                <use id="reset" xlink:href="#resetDef" x="30" y="36" onmousedown="handleReset()"/>
                <g id="arrowUp" xlink:href="#dirArrow" transform="translate(30 24)" onmousedown="handlePan(0,-1)">
                  <use xlink:href="#rim" fill="#404040">
                        <set attributeName="fill" to="#808080" begin="arrowUp.mouseover" end="arrowUp.mouseout"/>
                  </use>
                  <path fill="none" stroke="white" stroke-width="1.5" d="M0,-3.0v7 M-2.5,-0.5L0,-3.0L2.5,-0.5"/>
                </g>
                <g id="arrowRight" xlink:href="#dirArrow" transform="rotate(90) translate(36 -43)" onmousedown="handlePan(1,0)">
                  <use xlink:href="#rim" fill="#404040">
                        <set attributeName="fill" to="#808080" begin="arrowRight.mouseover" end="arrowRight.mouseout"/>
                  </use>
                  <path fill="none" stroke="white" stroke-width="1.5" d="M0,-3.0v7 M-2.5,-0.5L0,-3.0L2.5,-0.5"/>
                </g>
                <g id="arrowDown" xlink:href="#dirArrow" transform="rotate(180) translate(-30 -48)" onmousedown="handlePan(0,1)">
                  <use xlink:href="#rim" fill="#404040">
                        <set attributeName="fill" to="#808080" begin="arrowDown.mouseover" end="arrowDown.mouseout"/>
                  </use>
                  <path fill="none" stroke="white" stroke-width="1.5" d="M0,-3.0v7 M-2.5,-0.5L0,-3.0L2.5,-0.5"/>
                </g>
                <g id="arrowLeft" xlink:href="#dirArrow" transform="rotate(270) translate(-36 17)" onmousedown="handlePan(-1,0)">
                  <use xlink:href="#rim" fill="#404040">
                        <set attributeName="fill" to="#808080" begin="arrowLeft.mouseover" end="arrowLeft.mouseout"/>
                  </use>
                  <path fill="none" stroke="white" stroke-width="1.5" d="M0,-3.0v7 M-2.5,-0.5L0,-3.0L2.5,-0.5"/>
                </g>
        </g>
        <svg viewBox="0 0 15 15" width="100%" height="30px" preserveAspectRatio="xMaxYMin meet">
         <g id="arrow_out" transform="scale(0.3 0.3)">
          <a xlink:href="classdenoptim_1_1graph_1_1_edge__coll__graph_org.svg" target="_base">
           <rect id="button" ry="5" rx="5" y="6" x="6" height="38" width="38"
                fill="#f2f5e9" fill-opacity="0.5" stroke="#606060" stroke-width="1.0"/>
           <path id="arrow"
             d="M 11.500037,31.436501 C 11.940474,20.09759 22.043105,11.32322 32.158766,21.979434 L 37.068811,17.246167 C 37.068811,17.246167 37.088388,32 37.088388,32 L 22.160133,31.978069 C 22.160133,31.978069 26.997745,27.140456 26.997745,27.140456 C 18.528582,18.264221 13.291696,25.230495 11.500037,31.436501 z"
             style="fill:#404040;"/>
          </a>
         </g>
        </svg>
</svg>
