<?xml version="1.0" encoding="UTF-8" standalone="no"?>
<!DOCTYPE svg PUBLIC "-//W3C//DTD SVG 1.1//EN"
 "http://www.w3.org/Graphics/SVG/1.1/DTD/svg11.dtd">
<!-- Generated by graphviz version 3.0.0 (20221109.1736)
 -->
<!-- Title: denoptim.graph.Fragment.addAPOnAtom Pages: 1 -->
<!--zoomable 1264 -->
<svg id="main" version="1.1" xmlns="http://www.w3.org/2000/svg" xmlns:xlink="http://www.w3.org/1999/xlink" xml:space="preserve" onload="init(evt)">
<style type="text/css"><![CDATA[
.edge:hover path { stroke: red; }
.edge:hover polygon { stroke: red; fill: red; }
]]></style>
<script type="text/javascript"><![CDATA[
var edges = document.getElementsByTagName('g');
if (edges && edges.length) {
  for (var i=0;i<edges.length;i++) {
    if (edges[i].id.substr(0,4)=='edge') {
      edges[i].setAttribute('class','edge');
    }
  }
}
]]></script>
        <defs>
                <circle id="rim" cx="0" cy="0" r="7"/>
                <circle id="rim2" cx="0" cy="0" r="3.5"/>
                <g id="zoomPlus">
                        <use xlink:href="#rim" fill="#404040">
                                <set attributeName="fill" to="#808080" begin="zoomplus.mouseover" end="zoomplus.mouseout"/>
                        </use>
                        <path d="M-4,0h8M0,-4v8" fill="none" stroke="white" stroke-width="1.5" pointer-events="none"/>
                </g>
                <g id="zoomMin">
                        <use xlink:href="#rim" fill="#404040">
                                <set attributeName="fill" to="#808080" begin="zoomminus.mouseover" end="zoomminus.mouseout"/>
                        </use>
                        <path d="M-4,0h8" fill="none" stroke="white" stroke-width="1.5" pointer-events="none"/>
                </g>
                <g id="dirArrow">
                        <path fill="none" stroke="white" stroke-width="1.5" d="M0,-3.0v7 M-2.5,-0.5L0,-3.0L2.5,-0.5"/>
                </g>
               <g id="resetDef">
                       <use xlink:href="#rim2" fill="#404040">
                               <set attributeName="fill" to="#808080" begin="reset.mouseover" end="reset.mouseout"/>
                       </use>
               </g>
        </defs>

<script type="text/javascript">
var viewWidth = 825;
var viewHeight = 1264;
var sectionId = 'dynsection-11';
</script>
<script xlink:href="svgpan.js"/>
<svg id="graph" class="graph">
<g id="viewport">
<title>denoptim.graph.Fragment.addAPOnAtom</title>
<polygon fill="white" stroke="transparent" points="-4,4 -4,-1260 821,-1260 821,4 -4,4"/>
<!-- Node1 -->
<g id="node1" class="node">
<title>Node1</title>
<g id="a_node1"><a xlink:title="Add an attachment point to the specifies atom.">
<polygon fill="#bfbfbf" stroke="black" points="673,-436.5 673,-466.5 817,-466.5 817,-436.5 673,-436.5"/>
<text text-anchor="start" x="681" y="-454.5" font-family="Helvetica,sans-Serif" font-size="10.00">denoptim.graph.Fragment.add</text>
<text text-anchor="middle" x="745" y="-443.5" font-family="Helvetica,sans-Serif" font-size="10.00">APOnAtom</text>
</a>
</g>
</g>
<!-- Node2 -->
<g id="node2" class="node">
<title>Node2</title>
<g id="a_node2"><a xlink:href="classdenoptim_1_1graph_1_1_fragment.html#ad4e8fdd45d167a3802ea50582b478960" target="_top" xlink:title="Add an attachment point to the specifies atom.">
<polygon fill="white" stroke="black" points="461,-998 461,-1017 619,-1017 619,-998 461,-998"/>
<text text-anchor="middle" x="540" y="-1005" font-family="Helvetica,sans-Serif" font-size="10.00">denoptim.graph.Fragment.addAP</text>
</a>
</g>
</g>
<!-- Node1&#45;&gt;Node2 -->
<g id="edge1" class="edge">
<title>Node1&#45;&gt;Node2</title>
<path fill="none" stroke="midnightblue" d="M742.58,-476.88C736.67,-573.26 710.76,-914.84 637,-988.5 631.83,-993.66 625.69,-997.63 619.05,-1000.65"/>
<polygon fill="midnightblue" stroke="midnightblue" points="746.09,-476.81 743.19,-466.62 739.1,-476.39 746.09,-476.81"/>
</g>
<!-- Node3 -->
<g id="node3" class="node">
<title>Node3</title>
<g id="a_node3"><a xlink:href="classdenoptim_1_1fragspace_1_1_fragment_space_test.html#ae401cb5105c9afd41d058685eb051869" target="_top" xlink:title=" ">
<polygon fill="white" stroke="black" points="462.5,-948.5 462.5,-978.5 617.5,-978.5 617.5,-948.5 462.5,-948.5"/>
<text text-anchor="start" x="470.5" y="-966.5" font-family="Helvetica,sans-Serif" font-size="10.00">denoptim.fragspace.Fragment</text>
<text text-anchor="middle" x="540" y="-955.5" font-family="Helvetica,sans-Serif" font-size="10.00">SpaceTest.buildFragmentSpace</text>
</a>
</g>
</g>
<!-- Node1&#45;&gt;Node3 -->
<g id="edge2" class="edge">
<title>Node1&#45;&gt;Node3</title>
<path fill="none" stroke="midnightblue" d="M738.54,-476.44C725.3,-534.85 688.71,-684.4 637,-801.5 611.91,-858.32 571.18,-920.04 551.85,-948.08"/>
<polygon fill="midnightblue" stroke="midnightblue" points="741.97,-477.15 740.74,-466.63 735.14,-475.62 741.97,-477.15"/>
</g>
<!-- Node12 -->
<g id="node12" class="node">
<title>Node12</title>
<g id="a_node12"><a xlink:href="classdenoptim_1_1fragspace_1_1_fragment_space_test.html#a692723b803a64dd25e775b2f8726fe27" target="_top" xlink:title="Works with this graph:">
<polygon fill="white" stroke="black" points="210,-769 210,-810 395,-810 395,-769 210,-769"/>
<text text-anchor="start" x="218" y="-798" font-family="Helvetica,sans-Serif" font-size="10.00">denoptim.fragspace.Fragment</text>
<text text-anchor="start" x="218" y="-787" font-family="Helvetica,sans-Serif" font-size="10.00">SpaceTest.testUseWholeMolGeometry</text>
<text text-anchor="middle" x="302.5" y="-776" font-family="Helvetica,sans-Serif" font-size="10.00">ForExtractedTemplates</text>
</a>
</g>
</g>
<!-- Node1&#45;&gt;Node12 -->
<g id="edge40" class="edge">
<title>Node1&#45;&gt;Node12</title>
<path fill="none" stroke="midnightblue" d="M744,-477.14C742.45,-538.36 729.17,-693.24 637,-764.5 569.02,-817.06 468.17,-817.2 395.19,-807.97"/>
<polygon fill="midnightblue" stroke="midnightblue" points="747.5,-476.9 744.16,-466.84 740.5,-476.78 747.5,-476.9"/>
</g>
<!-- Node13 -->
<g id="node13" class="node">
<title>Node13</title>
<g id="a_node13"><a xlink:href="classdenoptim_1_1gui_1_1_g_u_i_vertex_inspector.html#a6b60be1b437b1d21334d39d003c14249" target="_top" xlink:title="Removes an atom and replaces it with an attachment point.">
<polygon fill="white" stroke="black" points="443,-724.5 443,-754.5 637,-754.5 637,-724.5 443,-724.5"/>
<text text-anchor="start" x="451" y="-742.5" font-family="Helvetica,sans-Serif" font-size="10.00">denoptim.gui.GUIVertexInspector.convert</text>
<text text-anchor="middle" x="540" y="-731.5" font-family="Helvetica,sans-Serif" font-size="10.00">AtomToAP</text>
</a>
</g>
</g>
<!-- Node1&#45;&gt;Node13 -->
<g id="edge12" class="edge">
<title>Node1&#45;&gt;Node13</title>
<path fill="none" stroke="midnightblue" d="M741.13,-476.63C733.79,-528.82 709.52,-649.41 637,-713.5 632.21,-717.73 626.8,-721.28 621.05,-724.26"/>
<polygon fill="midnightblue" stroke="midnightblue" points="744.61,-476.95 742.44,-466.58 737.67,-476.04 744.61,-476.95"/>
</g>
<!-- Node16 -->
<g id="node16" class="node">
<title>Node16</title>
<g id="a_node16"><a xlink:href="classdenoptim_1_1utils_1_1_molecule_utils.html#ae0fc307ce14bc73de8cb51459e122392" target="_top" xlink:title="Selects only the atoms that originate from a subgraph of a whole graph that originated the whole mole...">
<polygon fill="white" stroke="black" points="455,-673.5 455,-703.5 625,-703.5 625,-673.5 455,-673.5"/>
<text text-anchor="start" x="463" y="-691.5" font-family="Helvetica,sans-Serif" font-size="10.00">denoptim.utils.MoleculeUtils.extract</text>
<text text-anchor="middle" x="540" y="-680.5" font-family="Helvetica,sans-Serif" font-size="10.00">IACForSubgraph</text>
</a>
</g>
</g>
<!-- Node1&#45;&gt;Node16 -->
<g id="edge15" class="edge">
<title>Node1&#45;&gt;Node16</title>
<path fill="none" stroke="midnightblue" d="M737.78,-476.39C725.74,-519.54 695.13,-608.33 637,-657.5 629.24,-664.06 620.07,-669.24 610.53,-673.33"/>
<polygon fill="midnightblue" stroke="midnightblue" points="741.18,-477.26 740.39,-466.69 734.42,-475.44 741.18,-477.26"/>
</g>
<!-- Node18 -->
<g id="node18" class="node">
<title>Node18</title>
<g id="a_node18"><a xlink:href="classdenoptim_1_1fragmenter_1_1_fragmenter_tools.html#a37c0e44680ec1c54fcff98dae0832a50" target="_top" xlink:title="Chops one chemical structure by applying the given cutting rules.">
<polygon fill="white" stroke="black" points="461.5,-617.5 461.5,-647.5 618.5,-647.5 618.5,-617.5 461.5,-617.5"/>
<text text-anchor="start" x="469.5" y="-635.5" font-family="Helvetica,sans-Serif" font-size="10.00">denoptim.fragmenter.Fragmenter</text>
<text text-anchor="middle" x="540" y="-624.5" font-family="Helvetica,sans-Serif" font-size="10.00">Tools.fragmentation</text>
</a>
</g>
</g>
<!-- Node1&#45;&gt;Node18 -->
<g id="edge17" class="edge">
<title>Node1&#45;&gt;Node18</title>
<path fill="none" stroke="midnightblue" d="M734.01,-476.23C718.56,-511.22 685.52,-574.68 637,-608.5 631.36,-612.43 625.14,-615.72 618.66,-618.47"/>
<polygon fill="midnightblue" stroke="midnightblue" points="737.34,-477.32 738.06,-466.75 730.91,-474.57 737.34,-477.32"/>
</g>
<!-- Node19 -->
<g id="node19" class="node">
<title>Node19</title>
<g id="a_node19"><a xlink:href="classdenoptim_1_1graph_1_1_fragment_test.html#a198cffde4134eecf80f3eba650efc5ba" target="_top" xlink:title=" ">
<polygon fill="white" stroke="black" points="454,-568.5 454,-598.5 626,-598.5 626,-568.5 454,-568.5"/>
<text text-anchor="start" x="462" y="-586.5" font-family="Helvetica,sans-Serif" font-size="10.00">denoptim.graph.FragmentTest.make</text>
<text text-anchor="middle" x="540" y="-575.5" font-family="Helvetica,sans-Serif" font-size="10.00">Fragment</text>
</a>
</g>
</g>
<!-- Node1&#45;&gt;Node19 -->
<g id="edge18" class="edge">
<title>Node1&#45;&gt;Node19</title>
<path fill="none" stroke="midnightblue" d="M725.52,-474.47C705.83,-497.51 672.65,-532.51 637,-553.5 626.77,-559.52 615.2,-564.47 603.72,-568.47"/>
<polygon fill="midnightblue" stroke="midnightblue" points="728.4,-476.48 732.14,-466.57 723.03,-471.98 728.4,-476.48"/>
</g>
<!-- Node23 -->
<g id="node23" class="node">
<title>Node23</title>
<g id="a_node23"><a xlink:href="classdenoptim_1_1graph_1_1_fragment_test.html#a8bff8b7d1c409ddc9a55707f4e67f427" target="_top" xlink:title=" ">
<polygon fill="white" stroke="black" points="454,-480.5 454,-510.5 626,-510.5 626,-480.5 454,-480.5"/>
<text text-anchor="start" x="462" y="-498.5" font-family="Helvetica,sans-Serif" font-size="10.00">denoptim.graph.FragmentTest.make</text>
<text text-anchor="middle" x="540" y="-487.5" font-family="Helvetica,sans-Serif" font-size="10.00">FragmentA</text>
</a>
</g>
</g>
<!-- Node1&#45;&gt;Node23 -->
<g id="edge22" class="edge">
<title>Node1&#45;&gt;Node23</title>
<path fill="none" stroke="midnightblue" d="M664.83,-468.66C646.84,-472.56 627.87,-476.67 610.33,-480.47"/>
<polygon fill="midnightblue" stroke="midnightblue" points="665.68,-472.06 674.71,-466.52 664.19,-465.22 665.68,-472.06"/>
</g>
<!-- Node24 -->
<g id="node24" class="node">
<title>Node24</title>
<g id="a_node24"><a xlink:href="classdenoptim_1_1graph_1_1_symmetric_a_ps_test.html#a9425bd6d6e87f4d8ff966498564a3633" target="_top" xlink:title=" ">
<polygon fill="white" stroke="black" points="229.5,-485.5 229.5,-515.5 375.5,-515.5 375.5,-485.5 229.5,-485.5"/>
<text text-anchor="start" x="237.5" y="-503.5" font-family="Helvetica,sans-Serif" font-size="10.00">denoptim.graph.Symmetric</text>
<text text-anchor="middle" x="302.5" y="-492.5" font-family="Helvetica,sans-Serif" font-size="10.00">APsTest.testGetSameAsThis</text>
</a>
</g>
</g>
<!-- Node1&#45;&gt;Node24 -->
<g id="edge34" class="edge">
<title>Node1&#45;&gt;Node24</title>
<path fill="none" stroke="midnightblue" d="M719.55,-473.16C699.1,-489.74 668.31,-511.28 637,-520.5 543.11,-548.15 428.09,-530.66 360.59,-515.52"/>
<polygon fill="midnightblue" stroke="midnightblue" points="721.94,-475.72 727.39,-466.64 717.46,-470.34 721.94,-475.72"/>
</g>
<!-- Node27 -->
<g id="node27" class="node">
<title>Node27</title>
<g id="a_node27"><a xlink:href="classdenoptim_1_1graph_1_1_symmetric_a_ps_test.html#a90b0920db91160f9d8f797d5167e39de" target="_top" xlink:title=" ">
<polygon fill="white" stroke="black" points="237,-387.5 237,-417.5 368,-417.5 368,-387.5 237,-387.5"/>
<text text-anchor="start" x="245" y="-405.5" font-family="Helvetica,sans-Serif" font-size="10.00">denoptim.graph.Symmetric</text>
<text text-anchor="middle" x="302.5" y="-394.5" font-family="Helvetica,sans-Serif" font-size="10.00">APsTest.testSameAs</text>
</a>
</g>
</g>
<!-- Node1&#45;&gt;Node27 -->
<g id="edge39" class="edge">
<title>Node1&#45;&gt;Node27</title>
<path fill="none" stroke="midnightblue" d="M662.56,-449.64C601.81,-447.45 516.91,-442.72 443,-432.5 416.87,-428.89 388.33,-423.09 363.92,-417.55"/>
<polygon fill="midnightblue" stroke="midnightblue" points="662.74,-453.14 672.85,-449.99 662.98,-446.15 662.74,-453.14"/>
</g>
<!-- Node28 -->
<g id="node28" class="node">
<title>Node28</title>
<g id="a_node28"><a xlink:href="classdenoptim_1_1graph_1_1_fragment_test.html#ae2ae980f38f76b7681a4e967d4cbdb4f" target="_top" xlink:title="Differs from the fragment produced by makeFragmentA() only by the identity of one atom.">
<polygon fill="white" stroke="black" points="454,-343.5 454,-373.5 626,-373.5 626,-343.5 454,-343.5"/>
<text text-anchor="start" x="462" y="-361.5" font-family="Helvetica,sans-Serif" font-size="10.00">denoptim.graph.FragmentTest.make</text>
<text text-anchor="middle" x="540" y="-350.5" font-family="Helvetica,sans-Serif" font-size="10.00">FragmentB</text>
</a>
</g>
</g>
<!-- Node1&#45;&gt;Node28 -->
<g id="edge27" class="edge">
<title>Node1&#45;&gt;Node28</title>
<path fill="none" stroke="midnightblue" d="M716.18,-430.4C695.34,-415.46 665.61,-395.95 637,-383.5 628.31,-379.72 618.93,-376.41 609.55,-373.54"/>
<polygon fill="midnightblue" stroke="midnightblue" points="714.4,-433.43 724.54,-436.48 718.52,-427.77 714.4,-433.43"/>
</g>
<!-- Node29 -->
<g id="node29" class="node">
<title>Node29</title>
<g id="a_node29"><a xlink:href="classdenoptim_1_1graph_1_1_fragment_test.html#a63f6f06d84a8b731e131034a8e24c238" target="_top" xlink:title="Differs from the fragment produced by makeFragmentA() only by the one APCLass.">
<polygon fill="white" stroke="black" points="454,-392.5 454,-422.5 626,-422.5 626,-392.5 454,-392.5"/>
<text text-anchor="start" x="462" y="-410.5" font-family="Helvetica,sans-Serif" font-size="10.00">denoptim.graph.FragmentTest.make</text>
<text text-anchor="middle" x="540" y="-399.5" font-family="Helvetica,sans-Serif" font-size="10.00">FragmentC</text>
</a>
</g>
</g>
<!-- Node1&#45;&gt;Node29 -->
<g id="edge29" class="edge">
<title>Node1&#45;&gt;Node29</title>
<path fill="none" stroke="midnightblue" d="M664.83,-434.34C646.84,-430.44 627.87,-426.33 610.33,-422.53"/>
<polygon fill="midnightblue" stroke="midnightblue" points="664.19,-437.78 674.71,-436.48 665.68,-430.94 664.19,-437.78"/>
</g>
<!-- Node30 -->
<g id="node30" class="node">
<title>Node30</title>
<g id="a_node30"><a xlink:href="classdenoptim_1_1io_1_1_denoptim_i_o_test.html#a7710e822a7212af405b83c4693ace410" target="_top" xlink:title=" ">
<polygon fill="white" stroke="black" points="461,-294.5 461,-324.5 619,-324.5 619,-294.5 461,-294.5"/>
<text text-anchor="start" x="469" y="-312.5" font-family="Helvetica,sans-Serif" font-size="10.00">denoptim.io.DenoptimIOTest.test</text>
<text text-anchor="middle" x="540" y="-301.5" font-family="Helvetica,sans-Serif" font-size="10.00">AppendToJSON</text>
</a>
</g>
</g>
<!-- Node1&#45;&gt;Node30 -->
<g id="edge31" class="edge">
<title>Node1&#45;&gt;Node30</title>
<path fill="none" stroke="midnightblue" d="M728.89,-427.72C710.49,-400.73 676.86,-357.37 637,-333.5 631.25,-330.06 625.03,-327.11 618.6,-324.58"/>
<polygon fill="midnightblue" stroke="midnightblue" points="726.08,-429.81 734.54,-436.19 731.91,-425.93 726.08,-429.81"/>
</g>
<!-- Node31 -->
<g id="node31" class="node">
<title>Node31</title>
<g id="a_node31"><a xlink:href="classdenoptim_1_1graph_1_1_vertex_test.html#ab36c441c57e9852e2be6d810d80fbc87" target="_top" xlink:title=" ">
<polygon fill="white" stroke="black" points="464.5,-245.5 464.5,-275.5 615.5,-275.5 615.5,-245.5 464.5,-245.5"/>
<text text-anchor="start" x="472.5" y="-263.5" font-family="Helvetica,sans-Serif" font-size="10.00">denoptim.graph.VertexTest.test</text>
<text text-anchor="middle" x="540" y="-252.5" font-family="Helvetica,sans-Serif" font-size="10.00">Clone</text>
</a>
</g>
</g>
<!-- Node1&#45;&gt;Node31 -->
<g id="edge32" class="edge">
<title>Node1&#45;&gt;Node31</title>
<path fill="none" stroke="midnightblue" d="M735.08,-426.81C720.47,-389.97 687.87,-321.04 637,-284.5 630.58,-279.89 623.37,-276.16 615.86,-273.15"/>
<polygon fill="midnightblue" stroke="midnightblue" points="731.87,-428.22 738.73,-436.3 738.41,-425.71 731.87,-428.22"/>
</g>
<!-- Node32 -->
<g id="node32" class="node">
<title>Node32</title>
<g id="a_node32"><a xlink:href="classdenoptim_1_1graph_1_1_fragment_test.html#a12552fabbb6c8af399da78f10279fce2" target="_top" xlink:title=" ">
<polygon fill="white" stroke="black" points="458,-196.5 458,-226.5 622,-226.5 622,-196.5 458,-196.5"/>
<text text-anchor="start" x="466" y="-214.5" font-family="Helvetica,sans-Serif" font-size="10.00">denoptim.graph.FragmentTest.test</text>
<text text-anchor="middle" x="540" y="-203.5" font-family="Helvetica,sans-Serif" font-size="10.00">ConversionToIAC</text>
</a>
</g>
</g>
<!-- Node1&#45;&gt;Node32 -->
<g id="edge33" class="edge">
<title>Node1&#45;&gt;Node32</title>
<path fill="none" stroke="midnightblue" d="M738.88,-426.61C728.23,-381.37 699.31,-285.68 637,-235.5 632.45,-231.84 627.42,-228.72 622.11,-226.08"/>
<polygon fill="midnightblue" stroke="midnightblue" points="735.49,-427.49 741.1,-436.47 742.32,-425.95 735.49,-427.49"/>
</g>
<!-- Node33 -->
<g id="node33" class="node">
<title>Node33</title>
<g id="a_node33"><a xlink:href="classdenoptim_1_1graph_1_1_fragment_test.html#a6494b234f01c4cf298d123dc59e047d6" target="_top" xlink:title=" ">
<polygon fill="white" stroke="black" points="458,-147.5 458,-177.5 622,-177.5 622,-147.5 458,-147.5"/>
<text text-anchor="start" x="466" y="-165.5" font-family="Helvetica,sans-Serif" font-size="10.00">denoptim.graph.FragmentTest.test</text>
<text text-anchor="middle" x="540" y="-154.5" font-family="Helvetica,sans-Serif" font-size="10.00">HandlingAPsAsObjOrProperty</text>
</a>
</g>
</g>
<!-- Node1&#45;&gt;Node33 -->
<g id="edge35" class="edge">
<title>Node1&#45;&gt;Node33</title>
<path fill="none" stroke="midnightblue" d="M741.32,-425.97C734.35,-372.98 710.74,-250.65 637,-186.5 632.59,-182.67 627.66,-179.43 622.43,-176.69"/>
<polygon fill="midnightblue" stroke="midnightblue" points="737.88,-426.68 742.57,-436.18 744.83,-425.83 737.88,-426.68"/>
</g>
<!-- Node34 -->
<g id="node34" class="node">
<title>Node34</title>
<g id="a_node34"><a xlink:href="classdenoptim_1_1graph_1_1_attachment_point_test.html#af88d30ce68477984fe6179325d1540b2" target="_top" xlink:title=" ">
<polygon fill="white" stroke="black" points="450,-98.5 450,-128.5 630,-128.5 630,-98.5 450,-98.5"/>
<text text-anchor="start" x="458" y="-116.5" font-family="Helvetica,sans-Serif" font-size="10.00">denoptim.graph.Attachment</text>
<text text-anchor="middle" x="540" y="-105.5" font-family="Helvetica,sans-Serif" font-size="10.00">PointTest.testHasConnectedSrcAtom</text>
</a>
</g>
</g>
<!-- Node1&#45;&gt;Node34 -->
<g id="edge36" class="edge">
<title>Node1&#45;&gt;Node34</title>
<path fill="none" stroke="midnightblue" d="M743.18,-426.35C739.81,-366.83 722.79,-216.42 637,-137.5 633.33,-134.13 629.27,-131.21 624.93,-128.69"/>
<polygon fill="midnightblue" stroke="midnightblue" points="739.68,-426.55 743.66,-436.37 746.67,-426.21 739.68,-426.55"/>
</g>
<!-- Node35 -->
<g id="node35" class="node">
<title>Node35</title>
<g id="a_node35"><a xlink:href="classdenoptim_1_1graph_1_1_attachment_point_test.html#a4889032266eb87d0f91af8b4e9869360" target="_top" xlink:title=" ">
<polygon fill="white" stroke="black" points="460.5,-49.5 460.5,-79.5 619.5,-79.5 619.5,-49.5 460.5,-49.5"/>
<text text-anchor="start" x="468.5" y="-67.5" font-family="Helvetica,sans-Serif" font-size="10.00">denoptim.graph.Attachment</text>
<text text-anchor="middle" x="540" y="-56.5" font-family="Helvetica,sans-Serif" font-size="10.00">PointTest.testHasSameSrcAtom</text>
</a>
</g>
</g>
<!-- Node1&#45;&gt;Node35 -->
<g id="edge37" class="edge">
<title>Node1&#45;&gt;Node35</title>
<path fill="none" stroke="midnightblue" d="M744.53,-426.16C744.45,-360.28 734.71,-182.22 637,-88.5 631.92,-83.62 626,-79.69 619.65,-76.53"/>
<polygon fill="midnightblue" stroke="midnightblue" points="741.03,-426.41 744.46,-436.43 748.03,-426.46 741.03,-426.41"/>
</g>
<!-- Node36 -->
<g id="node36" class="node">
<title>Node36</title>
<g id="a_node36"><a xlink:href="classdenoptim_1_1io_1_1_denoptim_i_o_test.html#a92ea09ddfe9f40627e43ce087f160e12" target="_top" xlink:title=" ">
<polygon fill="white" stroke="black" points="461,-0.5 461,-30.5 619,-30.5 619,-0.5 461,-0.5"/>
<text text-anchor="start" x="469" y="-18.5" font-family="Helvetica,sans-Serif" font-size="10.00">denoptim.io.DenoptimIOTest.test</text>
<text text-anchor="middle" x="540" y="-7.5" font-family="Helvetica,sans-Serif" font-size="10.00">ReadAllAPClasses</text>
</a>
</g>
</g>
<!-- Node1&#45;&gt;Node36 -->
<g id="edge38" class="edge">
<title>Node1&#45;&gt;Node36</title>
<path fill="none" stroke="midnightblue" d="M740.76,-425.75C730.01,-344.4 693.03,-95.02 637,-39.5 631.87,-34.42 625.85,-30.36 619.35,-27.13"/>
<polygon fill="midnightblue" stroke="midnightblue" points="737.34,-426.61 742.1,-436.08 744.28,-425.71 737.34,-426.61"/>
</g>
<!-- Node4 -->
<g id="node4" class="node">
<title>Node4</title>
<g id="a_node4"><a xlink:href="classdenoptim_1_1fragspace_1_1_fragment_space_test.html#a6f2ce8f6a8319b39440b0dc43ede061f" target="_top" xlink:title="Check that the following graph&#39;s fused ring gets added to the fragment library.">
<polygon fill="white" stroke="black" points="198,-889 198,-930 407,-930 407,-889 198,-889"/>
<text text-anchor="start" x="206" y="-918" font-family="Helvetica,sans-Serif" font-size="10.00">denoptim.fragspace.Fragment</text>
<text text-anchor="start" x="206" y="-907" font-family="Helvetica,sans-Serif" font-size="10.00">SpaceTest.testFusedRingAddedToFragment</text>
<text text-anchor="middle" x="302.5" y="-896" font-family="Helvetica,sans-Serif" font-size="10.00">Library</text>
</a>
</g>
</g>
<!-- Node3&#45;&gt;Node4 -->
<g id="edge3" class="edge">
<title>Node3&#45;&gt;Node4</title>
<path fill="none" stroke="midnightblue" d="M463.59,-946.21C441.1,-941.05 416.24,-935.35 392.95,-930.01"/>
<polygon fill="midnightblue" stroke="midnightblue" points="462.87,-949.63 473.4,-948.46 464.44,-942.81 462.87,-949.63"/>
</g>
<!-- Node5 -->
<g id="node5" class="node">
<title>Node5</title>
<g id="a_node5"><a xlink:href="classdenoptim_1_1fragspace_1_1_fragment_space_test.html#a56ef448997df677c5ce4a73737f127e2" target="_top" xlink:title="Checks that a graph with a fused ring containing a scaffold vertex is added to the scaffold library.">
<polygon fill="white" stroke="black" points="201,-829 201,-870 404,-870 404,-829 201,-829"/>
<text text-anchor="start" x="209" y="-858" font-family="Helvetica,sans-Serif" font-size="10.00">denoptim.fragspace.Fragment</text>
<text text-anchor="start" x="209" y="-847" font-family="Helvetica,sans-Serif" font-size="10.00">SpaceTest.testFusedRingAddedToScaffold</text>
<text text-anchor="middle" x="302.5" y="-836" font-family="Helvetica,sans-Serif" font-size="10.00">Library</text>
</a>
</g>
</g>
<!-- Node3&#45;&gt;Node5 -->
<g id="edge4" class="edge">
<title>Node3&#45;&gt;Node5</title>
<path fill="none" stroke="midnightblue" d="M510.8,-942.19C484.95,-923.5 445.03,-896.69 407,-879.5 399.41,-876.07 391.34,-872.93 383.17,-870.08"/>
<polygon fill="midnightblue" stroke="midnightblue" points="508.87,-945.11 519.01,-948.19 513,-939.46 508.87,-945.11"/>
</g>
<!-- Node6 -->
<g id="node6" class="node">
<title>Node6</title>
<g id="a_node6"><a xlink:href="classdenoptim_1_1fragspace_1_1_fragment_space_test.html#a7555fcdf60b6fabae0c95844f351fc6f" target="_top" xlink:title=" ">
<polygon fill="white" stroke="black" points="202.5,-1225.5 202.5,-1255.5 402.5,-1255.5 402.5,-1225.5 202.5,-1225.5"/>
<text text-anchor="start" x="210.5" y="-1243.5" font-family="Helvetica,sans-Serif" font-size="10.00">denoptim.fragspace.Fragment</text>
<text text-anchor="middle" x="302.5" y="-1232.5" font-family="Helvetica,sans-Serif" font-size="10.00">SpaceTest.testFusedRingOnlyAddedOnce</text>
</a>
</g>
</g>
<!-- Node3&#45;&gt;Node6 -->
<g id="edge5" class="edge">
<title>Node3&#45;&gt;Node6</title>
<path fill="none" stroke="midnightblue" d="M453.55,-979.4C449.7,-982.02 446.14,-985.03 443,-988.5 374.1,-1064.51 476.91,-1141.42 407,-1216.5 403.86,-1219.87 400.34,-1222.82 396.56,-1225.39"/>
<polygon fill="midnightblue" stroke="midnightblue" points="455.49,-982.33 462.39,-974.29 451.98,-976.27 455.49,-982.33"/>
</g>
<!-- Node7 -->
<g id="node7" class="node">
<title>Node7</title>
<g id="a_node7"><a xlink:href="classdenoptim_1_1fragspace_1_1_fragment_space_test.html#ae884d9d970bc9d561dad00bf0c20b4b5" target="_top" xlink:title=" ">
<polygon fill="white" stroke="black" points="210,-1166 210,-1207 395,-1207 395,-1166 210,-1166"/>
<text text-anchor="start" x="218" y="-1195" font-family="Helvetica,sans-Serif" font-size="10.00">denoptim.fragspace.Fragment</text>
<text text-anchor="start" x="218" y="-1184" font-family="Helvetica,sans-Serif" font-size="10.00">SpaceTest.testGetFragAPsCompatible</text>
<text text-anchor="middle" x="302.5" y="-1173" font-family="Helvetica,sans-Serif" font-size="10.00">WithClass</text>
</a>
</g>
</g>
<!-- Node3&#45;&gt;Node7 -->
<g id="edge6" class="edge">
<title>Node3&#45;&gt;Node7</title>
<path fill="none" stroke="midnightblue" d="M453.52,-979.78C449.71,-982.3 446.17,-985.19 443,-988.5 390.2,-1043.66 459.04,-1100.62 407,-1156.5 403.43,-1160.33 399.4,-1163.69 395.06,-1166.62"/>
<polygon fill="midnightblue" stroke="midnightblue" points="455.28,-982.8 462.24,-974.82 451.82,-976.72 455.28,-982.8"/>
</g>
<!-- Node8 -->
<g id="node8" class="node">
<title>Node8</title>
<g id="a_node8"><a xlink:href="classdenoptim_1_1fragspace_1_1_fragment_space_test.html#a2ba7718688486212e987638aef444bad" target="_top" xlink:title=" ">
<polygon fill="white" stroke="black" points="210,-1106 210,-1147 395,-1147 395,-1106 210,-1106"/>
<text text-anchor="start" x="218" y="-1135" font-family="Helvetica,sans-Serif" font-size="10.00">denoptim.fragspace.Fragment</text>
<text text-anchor="start" x="218" y="-1124" font-family="Helvetica,sans-Serif" font-size="10.00">SpaceTest.testGetFragAPsCompatible</text>
<text text-anchor="middle" x="302.5" y="-1113" font-family="Helvetica,sans-Serif" font-size="10.00">WithTheseAPs</text>
</a>
</g>
</g>
<!-- Node3&#45;&gt;Node8 -->
<g id="edge7" class="edge">
<title>Node3&#45;&gt;Node8</title>
<path fill="none" stroke="midnightblue" d="M453.39,-980.56C449.68,-982.89 446.18,-985.52 443,-988.5 406.04,-1023.06 443.48,-1061.44 407,-1096.5 403.36,-1100 399.33,-1103.1 395.05,-1105.83"/>
<polygon fill="midnightblue" stroke="midnightblue" points="455.28,-983.52 462.39,-975.67 451.94,-977.37 455.28,-983.52"/>
</g>
<!-- Node9 -->
<g id="node9" class="node">
<title>Node9</title>
<g id="a_node9"><a xlink:href="classdenoptim_1_1fragspace_1_1_fragment_space_test.html#ab95d03f36f68718eb1cc11fac188401f" target="_top" xlink:title=" ">
<polygon fill="white" stroke="black" points="205.5,-1046 205.5,-1087 399.5,-1087 399.5,-1046 205.5,-1046"/>
<text text-anchor="start" x="213.5" y="-1075" font-family="Helvetica,sans-Serif" font-size="10.00">denoptim.fragspace.Fragment</text>
<text text-anchor="start" x="213.5" y="-1064" font-family="Helvetica,sans-Serif" font-size="10.00">SpaceTest.testGetFragmentsCompatible</text>
<text text-anchor="middle" x="302.5" y="-1053" font-family="Helvetica,sans-Serif" font-size="10.00">WithTheseAPs</text>
</a>
</g>
</g>
<!-- Node3&#45;&gt;Node9 -->
<g id="edge8" class="edge">
<title>Node3&#45;&gt;Node9</title>
<path fill="none" stroke="midnightblue" d="M453.32,-982.41C449.73,-984.26 446.27,-986.28 443,-988.5 420.64,-1003.67 429.22,-1022.13 407,-1037.5 402.47,-1040.63 397.61,-1043.43 392.56,-1045.92"/>
<polygon fill="midnightblue" stroke="midnightblue" points="454.84,-985.56 462.45,-978.19 451.91,-979.21 454.84,-985.56"/>
</g>
<!-- Node10 -->
<g id="node10" class="node">
<title>Node10</title>
<g id="a_node10"><a xlink:href="classdenoptim_1_1fragspace_1_1_fragment_space_test.html#a7179e27179c0bbe5a8ae101a9aa8e3d8" target="_top" xlink:title=" ">
<polygon fill="white" stroke="black" points="212,-997.5 212,-1027.5 393,-1027.5 393,-997.5 212,-997.5"/>
<text text-anchor="start" x="220" y="-1015.5" font-family="Helvetica,sans-Serif" font-size="10.00">denoptim.fragspace.Fragment</text>
<text text-anchor="middle" x="302.5" y="-1004.5" font-family="Helvetica,sans-Serif" font-size="10.00">SpaceTest.testGetFragsWithAPClass</text>
</a>
</g>
</g>
<!-- Node3&#45;&gt;Node10 -->
<g id="edge9" class="edge">
<title>Node3&#45;&gt;Node10</title>
<path fill="none" stroke="midnightblue" d="M456.75,-980.61C430.33,-986.11 401.27,-992.16 375.62,-997.49"/>
<polygon fill="midnightblue" stroke="midnightblue" points="457.66,-984 466.74,-978.53 456.24,-977.15 457.66,-984"/>
</g>
<!-- Node11 -->
<g id="node11" class="node">
<title>Node11</title>
<g id="a_node11"><a xlink:href="classdenoptim_1_1fragspace_1_1_fragment_space_test.html#ab364422886eee4ba289a703f83b0ef1b" target="_top" xlink:title=" ">
<polygon fill="white" stroke="black" points="230,-948.5 230,-978.5 375,-978.5 375,-948.5 230,-948.5"/>
<text text-anchor="start" x="238" y="-966.5" font-family="Helvetica,sans-Serif" font-size="10.00">denoptim.fragspace.Fragment</text>
<text text-anchor="middle" x="302.5" y="-955.5" font-family="Helvetica,sans-Serif" font-size="10.00">SpaceTest.testSymmetry</text>
</a>
</g>
</g>
<!-- Node3&#45;&gt;Node11 -->
<g id="edge10" class="edge">
<title>Node3&#45;&gt;Node11</title>
<path fill="none" stroke="midnightblue" d="M451.93,-963.5C426.74,-963.5 399.54,-963.5 375.39,-963.5"/>
<polygon fill="midnightblue" stroke="midnightblue" points="452.21,-967 462.21,-963.5 452.21,-960 452.21,-967"/>
</g>
<!-- Node3&#45;&gt;Node12 -->
<g id="edge11" class="edge">
<title>Node3&#45;&gt;Node12</title>
<path fill="none" stroke="midnightblue" d="M523.74,-940.05C501.74,-908.09 458.1,-851.21 407,-819.5 401.28,-815.95 395.12,-812.8 388.76,-810.02"/>
<polygon fill="midnightblue" stroke="midnightblue" points="520.86,-942.03 529.36,-948.36 526.66,-938.11 520.86,-942.03"/>
</g>
<!-- Node14 -->
<g id="node14" class="node">
<title>Node14</title>
<g id="a_node14"><a xlink:href="classdenoptim_1_1gui_1_1_g_u_i_vertex_inspector.html#acadecc92299a7ea46113c06382a1f333" target="_top" xlink:title="Initialize the panel and add buttons.">
<polygon fill="white" stroke="black" points="204,-731 204,-750 401,-750 401,-731 204,-731"/>
<text text-anchor="middle" x="302.5" y="-738" font-family="Helvetica,sans-Serif" font-size="10.00">denoptim.gui.GUIVertexInspector.initialize</text>
</a>
</g>
</g>
<!-- Node13&#45;&gt;Node14 -->
<g id="edge13" class="edge">
<title>Node13&#45;&gt;Node14</title>
<path fill="none" stroke="midnightblue" d="M432.83,-739.95C422.31,-740 411.66,-740.04 401.23,-740.09"/>
<polygon fill="midnightblue" stroke="midnightblue" points="432.89,-743.45 442.87,-739.91 432.86,-736.45 432.89,-743.45"/>
</g>
<!-- Node15 -->
<g id="node15" class="node">
<title>Node15</title>
<g id="a_node15"><a xlink:href="classdenoptim_1_1gui_1_1_g_u_i_vertex_inspector.html#abc5d3c33ad9b2b114ce43e9b2cd577bb" target="_top" xlink:title="Constructor.">
<polygon fill="white" stroke="black" points="0,-725.5 0,-755.5 162,-755.5 162,-725.5 0,-725.5"/>
<text text-anchor="start" x="8" y="-743.5" font-family="Helvetica,sans-Serif" font-size="10.00">denoptim.gui.GUIVertexInspector.</text>
<text text-anchor="middle" x="81" y="-732.5" font-family="Helvetica,sans-Serif" font-size="10.00">GUIVertexInspector</text>
</a>
</g>
</g>
<!-- Node14&#45;&gt;Node15 -->
<g id="edge14" class="edge">
<title>Node14&#45;&gt;Node15</title>
<path fill="none" stroke="midnightblue" d="M193.76,-740.5C183.12,-740.5 172.45,-740.5 162.16,-740.5"/>
<polygon fill="midnightblue" stroke="midnightblue" points="193.95,-744 203.95,-740.5 193.95,-737 193.95,-744"/>
</g>
<!-- Node17 -->
<g id="node17" class="node">
<title>Node17</title>
<g id="a_node17"><a xlink:href="classdenoptim_1_1fragspace_1_1_fragment_space.html#a32b0be109306e9c81fc830867296bc66" target="_top" xlink:title="Extracts a system of one or more fused rings and adds them to the fragment space if not already prese...">
<polygon fill="white" stroke="black" points="204.5,-681.5 204.5,-711.5 400.5,-711.5 400.5,-681.5 204.5,-681.5"/>
<text text-anchor="start" x="212.5" y="-699.5" font-family="Helvetica,sans-Serif" font-size="10.00">denoptim.fragspace.Fragment</text>
<text text-anchor="middle" x="302.5" y="-688.5" font-family="Helvetica,sans-Serif" font-size="10.00">Space.addFusedRingsToFragmentLibrary</text>
</a>
</g>
</g>
<!-- Node16&#45;&gt;Node17 -->
<g id="edge16" class="edge">
<title>Node16&#45;&gt;Node17</title>
<path fill="none" stroke="midnightblue" d="M444.57,-691.71C430.14,-692.2 415.23,-692.7 400.74,-693.2"/>
<polygon fill="midnightblue" stroke="midnightblue" points="445.1,-695.19 454.98,-691.35 444.86,-688.2 445.1,-695.19"/>
</g>
<!-- Node20 -->
<g id="node20" class="node">
<title>Node20</title>
<g id="a_node20"><a xlink:href="classdenoptim_1_1graph_1_1_fragment_test.html#a0a98792d99861bb6673e66a76ff49d31" target="_top" xlink:title=" ">
<polygon fill="white" stroke="black" points="220.5,-632.5 220.5,-662.5 384.5,-662.5 384.5,-632.5 220.5,-632.5"/>
<text text-anchor="start" x="228.5" y="-650.5" font-family="Helvetica,sans-Serif" font-size="10.00">denoptim.graph.FragmentTest.test</text>
<text text-anchor="middle" x="302.5" y="-639.5" font-family="Helvetica,sans-Serif" font-size="10.00">Clone</text>
</a>
</g>
</g>
<!-- Node19&#45;&gt;Node20 -->
<g id="edge19" class="edge">
<title>Node19&#45;&gt;Node20</title>
<path fill="none" stroke="midnightblue" d="M466.45,-601.23C458.49,-603.52 450.54,-605.96 443,-608.5 426.57,-614.03 423.5,-618.19 407,-623.5 396.9,-626.75 386.12,-629.75 375.47,-632.45"/>
<polygon fill="midnightblue" stroke="midnightblue" points="467.46,-604.59 476.14,-598.52 465.57,-597.85 467.46,-604.59"/>
</g>
<!-- Node21 -->
<g id="node21" class="node">
<title>Node21</title>
<g id="a_node21"><a xlink:href="classdenoptim_1_1io_1_1_denoptim_i_o_test.html#afa1376c9ab452a7e75cdf00489be1e07" target="_top" xlink:title=" ">
<polygon fill="white" stroke="black" points="223.5,-583.5 223.5,-613.5 381.5,-613.5 381.5,-583.5 223.5,-583.5"/>
<text text-anchor="start" x="231.5" y="-601.5" font-family="Helvetica,sans-Serif" font-size="10.00">denoptim.io.DenoptimIOTest.test</text>
<text text-anchor="middle" x="302.5" y="-590.5" font-family="Helvetica,sans-Serif" font-size="10.00">IOMolFragment</text>
</a>
</g>
</g>
<!-- Node19&#45;&gt;Node21 -->
<g id="edge20" class="edge">
<title>Node19&#45;&gt;Node21</title>
<path fill="none" stroke="midnightblue" d="M443.93,-589.56C423.27,-590.87 401.65,-592.25 381.73,-593.52"/>
<polygon fill="midnightblue" stroke="midnightblue" points="444.22,-593.04 453.98,-588.92 443.78,-586.06 444.22,-593.04"/>
</g>
<!-- Node22 -->
<g id="node22" class="node">
<title>Node22</title>
<g id="a_node22"><a xlink:href="classdenoptim_1_1json_1_1_d_e_n_o_p_t_i_mgson_test.html#ac2186d67581bef7c19379247af6672d6" target="_top" xlink:title=" ">
<polygon fill="white" stroke="black" points="207,-534.5 207,-564.5 398,-564.5 398,-534.5 207,-534.5"/>
<text text-anchor="start" x="215" y="-552.5" font-family="Helvetica,sans-Serif" font-size="10.00">denoptim.json.DENOPTIMgson</text>
<text text-anchor="middle" x="302.5" y="-541.5" font-family="Helvetica,sans-Serif" font-size="10.00">Test.testMolecularFragmentSerialization</text>
</a>
</g>
</g>
<!-- Node19&#45;&gt;Node22 -->
<g id="edge21" class="edge">
<title>Node19&#45;&gt;Node22</title>
<path fill="none" stroke="midnightblue" d="M443.72,-569.74C428.77,-567.59 413.32,-565.35 398.37,-563.2"/>
<polygon fill="midnightblue" stroke="midnightblue" points="443.58,-573.26 453.98,-571.23 444.58,-566.33 443.58,-573.26"/>
</g>
<!-- Node23&#45;&gt;Node24 -->
<g id="edge23" class="edge">
<title>Node23&#45;&gt;Node24</title>
<path fill="none" stroke="midnightblue" d="M443.94,-497.52C421.14,-498 397.15,-498.51 375.58,-498.97"/>
<polygon fill="midnightblue" stroke="midnightblue" points="444.06,-501.02 453.98,-497.31 443.91,-494.02 444.06,-501.02"/>
</g>
<!-- Node25 -->
<g id="node25" class="node">
<title>Node25</title>
<g id="a_node25"><a xlink:href="classdenoptim_1_1graph_1_1_fragment_test.html#aa17f42b21847b022c3d7a87876e17717" target="_top" xlink:title=" ">
<polygon fill="white" stroke="black" points="220.5,-436.5 220.5,-466.5 384.5,-466.5 384.5,-436.5 220.5,-436.5"/>
<text text-anchor="start" x="228.5" y="-454.5" font-family="Helvetica,sans-Serif" font-size="10.00">denoptim.graph.FragmentTest.test</text>
<text text-anchor="middle" x="302.5" y="-443.5" font-family="Helvetica,sans-Serif" font-size="10.00">IsomorphicInLinear</text>
</a>
</g>
</g>
<!-- Node23&#45;&gt;Node25 -->
<g id="edge24" class="edge">
<title>Node23&#45;&gt;Node25</title>
<path fill="none" stroke="midnightblue" d="M448.6,-478.61C427.31,-474.63 404.75,-470.42 383.92,-466.53"/>
<polygon fill="midnightblue" stroke="midnightblue" points="448.14,-482.08 458.61,-480.48 449.43,-475.2 448.14,-482.08"/>
</g>
<!-- Node26 -->
<g id="node26" class="node">
<title>Node26</title>
<g id="a_node26"><a xlink:href="classdenoptim_1_1graph_1_1_fragment_test.html#af49cc0e35c38f683bfc3d332210d1124" target="_top" xlink:title=" ">
<polygon fill="white" stroke="black" points="220.5,-338.5 220.5,-368.5 384.5,-368.5 384.5,-338.5 220.5,-338.5"/>
<text text-anchor="start" x="228.5" y="-356.5" font-family="Helvetica,sans-Serif" font-size="10.00">denoptim.graph.FragmentTest.test</text>
<text text-anchor="middle" x="302.5" y="-345.5" font-family="Helvetica,sans-Serif" font-size="10.00">IsomorphicTo</text>
</a>
</g>
</g>
<!-- Node23&#45;&gt;Node26 -->
<g id="edge25" class="edge">
<title>Node23&#45;&gt;Node26</title>
<path fill="none" stroke="midnightblue" d="M500.62,-475.17C481.93,-464.11 459.9,-449.28 443,-432.5 422.53,-412.18 430.64,-395.02 407,-378.5 400.18,-373.74 392.56,-369.87 384.63,-366.74"/>
<polygon fill="midnightblue" stroke="midnightblue" points="499.08,-478.32 509.49,-480.28 502.58,-472.26 499.08,-478.32"/>
</g>
<!-- Node23&#45;&gt;Node27 -->
<g id="edge26" class="edge">
<title>Node23&#45;&gt;Node27</title>
<path fill="none" stroke="midnightblue" d="M465.23,-476.76C457.47,-473.53 449.9,-469.8 443,-465.5 423.26,-453.19 427.13,-439.15 407,-427.5 395.16,-420.65 381.52,-415.67 368.1,-412.05"/>
<polygon fill="midnightblue" stroke="midnightblue" points="464.17,-480.1 474.76,-480.44 466.69,-473.57 464.17,-480.1"/>
</g>
<!-- Node28&#45;&gt;Node26 -->
<g id="edge28" class="edge">
<title>Node28&#45;&gt;Node26</title>
<path fill="none" stroke="midnightblue" d="M443.84,-356.48C424.29,-356.06 403.87,-355.63 384.85,-355.23"/>
<polygon fill="midnightblue" stroke="midnightblue" points="443.91,-359.98 453.98,-356.69 444.06,-352.98 443.91,-359.98"/>
</g>
<!-- Node29&#45;&gt;Node26 -->
<g id="edge30" class="edge">
<title>Node29&#45;&gt;Node26</title>
<path fill="none" stroke="midnightblue" d="M463.3,-390.14C432.98,-383.19 398.39,-375.26 369.16,-368.55"/>
<polygon fill="midnightblue" stroke="midnightblue" points="462.87,-393.63 473.4,-392.46 464.44,-386.81 462.87,-393.63"/>
</g>
</g>
</svg>
        <g id="navigator" transform="translate(0 0)" fill="#404254">
                <rect fill="#f2f5e9" fill-opacity="0.5" stroke="#606060" stroke-width=".5" x="0" y="0" width="60" height="60"/>
                <use id="zoomplus" xlink:href="#zoomPlus" x="17" y="9" onmousedown="handleZoom(evt,'in')"/>
                <use id="zoomminus" xlink:href="#zoomMin" x="42" y="9" onmousedown="handleZoom(evt,'out')"/>
                <use id="reset" xlink:href="#resetDef" x="30" y="36" onmousedown="handleReset()"/>
                <g id="arrowUp" xlink:href="#dirArrow" transform="translate(30 24)" onmousedown="handlePan(0,-1)">
                  <use xlink:href="#rim" fill="#404040">
                        <set attributeName="fill" to="#808080" begin="arrowUp.mouseover" end="arrowUp.mouseout"/>
                  </use>
                  <path fill="none" stroke="white" stroke-width="1.5" d="M0,-3.0v7 M-2.5,-0.5L0,-3.0L2.5,-0.5"/>
                </g>
                <g id="arrowRight" xlink:href="#dirArrow" transform="rotate(90) translate(36 -43)" onmousedown="handlePan(1,0)">
                  <use xlink:href="#rim" fill="#404040">
                        <set attributeName="fill" to="#808080" begin="arrowRight.mouseover" end="arrowRight.mouseout"/>
                  </use>
                  <path fill="none" stroke="white" stroke-width="1.5" d="M0,-3.0v7 M-2.5,-0.5L0,-3.0L2.5,-0.5"/>
                </g>
                <g id="arrowDown" xlink:href="#dirArrow" transform="rotate(180) translate(-30 -48)" onmousedown="handlePan(0,1)">
                  <use xlink:href="#rim" fill="#404040">
                        <set attributeName="fill" to="#808080" begin="arrowDown.mouseover" end="arrowDown.mouseout"/>
                  </use>
                  <path fill="none" stroke="white" stroke-width="1.5" d="M0,-3.0v7 M-2.5,-0.5L0,-3.0L2.5,-0.5"/>
                </g>
                <g id="arrowLeft" xlink:href="#dirArrow" transform="rotate(270) translate(-36 17)" onmousedown="handlePan(-1,0)">
                  <use xlink:href="#rim" fill="#404040">
                        <set attributeName="fill" to="#808080" begin="arrowLeft.mouseover" end="arrowLeft.mouseout"/>
                  </use>
                  <path fill="none" stroke="white" stroke-width="1.5" d="M0,-3.0v7 M-2.5,-0.5L0,-3.0L2.5,-0.5"/>
                </g>
        </g>
        <svg viewBox="0 0 15 15" width="100%" height="30px" preserveAspectRatio="xMaxYMin meet">
         <g id="arrow_out" transform="scale(0.3 0.3)">
          <a xlink:href="classdenoptim_1_1graph_1_1_fragment_a25e45b22a20adcc72ee6f599a7694b0f_icgraph_org.svg" target="_base">
           <rect id="button" ry="5" rx="5" y="6" x="6" height="38" width="38"
                fill="#f2f5e9" fill-opacity="0.5" stroke="#606060" stroke-width="1.0"/>
           <path id="arrow"
             d="M 11.500037,31.436501 C 11.940474,20.09759 22.043105,11.32322 32.158766,21.979434 L 37.068811,17.246167 C 37.068811,17.246167 37.088388,32 37.088388,32 L 22.160133,31.978069 C 22.160133,31.978069 26.997745,27.140456 26.997745,27.140456 C 18.528582,18.264221 13.291696,25.230495 11.500037,31.436501 z"
             style="fill:#404040;"/>
          </a>
         </g>
        </svg>
</svg>
