<?xml version="1.0" encoding="UTF-8" standalone="no"?>
<!DOCTYPE svg PUBLIC "-//W3C//DTD SVG 1.1//EN"
 "http://www.w3.org/Graphics/SVG/1.1/DTD/svg11.dtd">
<!-- Generated by graphviz version 3.0.0 (20221109.1736)
 -->
<!-- Title: denoptim.utils.GraphEdit Pages: 1 -->
<!--zoomable 883 -->
<svg id="main" version="1.1" xmlns="http://www.w3.org/2000/svg" xmlns:xlink="http://www.w3.org/1999/xlink" xml:space="preserve" onload="init(evt)">
<style type="text/css"><![CDATA[
.edge:hover path { stroke: red; }
.edge:hover polygon { stroke: red; fill: red; }
]]></style>
<script type="text/javascript"><![CDATA[
var edges = document.getElementsByTagName('g');
if (edges && edges.length) {
  for (var i=0;i<edges.length;i++) {
    if (edges[i].id.substr(0,4)=='edge') {
      edges[i].setAttribute('class','edge');
    }
  }
}
]]></script>
        <defs>
                <circle id="rim" cx="0" cy="0" r="7"/>
                <circle id="rim2" cx="0" cy="0" r="3.5"/>
                <g id="zoomPlus">
                        <use xlink:href="#rim" fill="#404040">
                                <set attributeName="fill" to="#808080" begin="zoomplus.mouseover" end="zoomplus.mouseout"/>
                        </use>
                        <path d="M-4,0h8M0,-4v8" fill="none" stroke="white" stroke-width="1.5" pointer-events="none"/>
                </g>
                <g id="zoomMin">
                        <use xlink:href="#rim" fill="#404040">
                                <set attributeName="fill" to="#808080" begin="zoomminus.mouseover" end="zoomminus.mouseout"/>
                        </use>
                        <path d="M-4,0h8" fill="none" stroke="white" stroke-width="1.5" pointer-events="none"/>
                </g>
                <g id="dirArrow">
                        <path fill="none" stroke="white" stroke-width="1.5" d="M0,-3.0v7 M-2.5,-0.5L0,-3.0L2.5,-0.5"/>
                </g>
               <g id="resetDef">
                       <use xlink:href="#rim2" fill="#404040">
                               <set attributeName="fill" to="#808080" begin="reset.mouseover" end="reset.mouseout"/>
                       </use>
               </g>
        </defs>

<script type="text/javascript">
var viewWidth = 1378;
var viewHeight = 883;
var sectionId = 'dynsection-0';
</script>
<script xlink:href="svgpan.js"/>
<svg id="graph" class="graph">
<g id="viewport">
<title>denoptim.utils.GraphEdit</title>
<polygon fill="white" stroke="transparent" points="-4,4 -4,-879 1374,-879 1374,4 -4,4"/>
<!-- Node1 -->
<g id="node1" class="node">
<title>Node1</title>
<g id="a_node1"><a xlink:title="Definition of a graph editing task.">
<polygon fill="#bfbfbf" stroke="black" points="1245,-743 1245,-762 1367,-762 1367,-743 1245,-743"/>
<text text-anchor="middle" x="1306" y="-750" font-family="Helvetica,sans-Serif" font-size="10.00">denoptim.utils.GraphEdit</text>
</a>
</g>
</g>
<!-- Node2 -->
<g id="node2" class="node">
<title>Node2</title>
<g id="a_node2"><a xlink:href="enumdenoptim_1_1utils_1_1_graph_edit_1_1_edit_task.html" target="_top" xlink:title="Defined the kind of graph editing task.">
<polygon fill="white" stroke="black" points="1001,-795.5 1001,-825.5 1125,-825.5 1125,-795.5 1001,-795.5"/>
<text text-anchor="start" x="1009" y="-813.5" font-family="Helvetica,sans-Serif" font-size="10.00">denoptim.utils.GraphEdit.</text>
<text text-anchor="middle" x="1063" y="-802.5" font-family="Helvetica,sans-Serif" font-size="10.00">EditTask</text>
</a>
</g>
</g>
<!-- Node2&#45;&gt;Node1 -->
<g id="edge1" class="edge">
<title>Node2&#45;&gt;Node1</title>
<path fill="none" stroke="#9a32cd" stroke-dasharray="5,2" d="M1135.26,-798.75C1163.13,-793.62 1195.24,-787.05 1224,-779.5 1242.78,-774.57 1263.55,-767.62 1279.36,-762"/>
<polygon fill="#9a32cd" stroke="#9a32cd" points="1134.42,-795.35 1125.2,-800.57 1135.67,-802.23 1134.42,-795.35"/>
<text text-anchor="middle" x="1187" y="-797.5" font-family="Helvetica,sans-Serif" font-size="10.00"> task</text>
</g>
<!-- Node3 -->
<g id="node3" class="node">
<title>Node3</title>
<g id="a_node3"><a xlink:href="classdenoptim_1_1graph_1_1_vertex_query.html" target="_top" xlink:title="Query for searching vertices.">
<polygon fill="white" stroke="black" points="994,-697 994,-716 1132,-716 1132,-697 994,-697"/>
<text text-anchor="middle" x="1063" y="-704" font-family="Helvetica,sans-Serif" font-size="10.00">denoptim.graph.VertexQuery</text>
</a>
</g>
</g>
<!-- Node3&#45;&gt;Node1 -->
<g id="edge2" class="edge">
<title>Node3&#45;&gt;Node1</title>
<path fill="none" stroke="#9a32cd" stroke-dasharray="5,2" d="M1123.93,-717.94C1164.33,-725.65 1217.01,-735.71 1255.13,-742.98"/>
<polygon fill="#9a32cd" stroke="#9a32cd" points="1124.41,-714.47 1113.94,-716.03 1123.1,-721.34 1124.41,-714.47"/>
<text text-anchor="middle" x="1187" y="-738.5" font-family="Helvetica,sans-Serif" font-size="10.00"> vertexQuery</text>
</g>
<!-- Node4 -->
<g id="node4" class="node">
<title>Node4</title>
<g id="a_node4"><a xlink:href="enumdenoptim_1_1graph_1_1_vertex_1_1_b_b_type.html" target="_top" xlink:title="The type of building block.">
<polygon fill="white" stroke="black" points="98.5,-654 98.5,-673 247.5,-673 247.5,-654 98.5,-654"/>
<text text-anchor="middle" x="173" y="-661" font-family="Helvetica,sans-Serif" font-size="10.00">denoptim.graph.Vertex.BBType</text>
</a>
</g>
</g>
<!-- Node4&#45;&gt;Node1 -->
<g id="edge45" class="edge">
<title>Node4&#45;&gt;Node1</title>
<path fill="none" stroke="#9a32cd" stroke-dasharray="5,2" d="M257.8,-656.99C425.44,-645.85 813.39,-629.56 1132,-687.5 1190.71,-698.18 1255.44,-727.65 1286.44,-742.97"/>
<polygon fill="#9a32cd" stroke="#9a32cd" points="257.54,-653.5 247.8,-657.67 258.01,-660.48 257.54,-653.5"/>
<text text-anchor="middle" x="779.5" y="-657.5" font-family="Helvetica,sans-Serif" font-size="10.00"> incomingBBTyp</text>
</g>
<!-- Node4&#45;&gt;Node3 -->
<g id="edge3" class="edge">
<title>Node4&#45;&gt;Node3</title>
<path fill="none" stroke="#9a32cd" stroke-dasharray="5,2" d="M244.11,-674.33C253.8,-675.56 263.63,-676.67 273,-677.5 538.9,-701.12 856.85,-705.59 993.78,-706.37"/>
<polygon fill="#9a32cd" stroke="#9a32cd" points="244.46,-670.85 234.09,-673.01 243.55,-677.79 244.46,-670.85"/>
<text text-anchor="middle" x="631" y="-702.5" font-family="Helvetica,sans-Serif" font-size="10.00"> buildingBlockType</text>
</g>
<!-- Node24 -->
<g id="node24" class="node">
<title>Node24</title>
<g id="a_node24"><a xlink:href="classdenoptim_1_1graph_1_1_vertex.html" target="_top" xlink:title="A vertex is a data structure that has an identity and holds a list of AttachmentPoints.">
<polygon fill="white" stroke="black" points="435.5,-403 435.5,-422 548.5,-422 548.5,-403 435.5,-403"/>
<text text-anchor="middle" x="492" y="-410" font-family="Helvetica,sans-Serif" font-size="10.00">denoptim.graph.Vertex</text>
</a>
</g>
</g>
<!-- Node4&#45;&gt;Node24 -->
<g id="edge31" class="edge">
<title>Node4&#45;&gt;Node24</title>
<path fill="none" stroke="#9a32cd" stroke-dasharray="5,2" d="M221.9,-651.04C271.42,-635.82 347.83,-605.47 394,-553.5 409.69,-535.84 400.06,-523.88 412,-503.5 431.47,-470.29 463.76,-437.81 480.39,-422.16"/>
<polygon fill="#9a32cd" stroke="#9a32cd" points="220.65,-647.76 212.07,-653.97 222.65,-654.47 220.65,-647.76"/>
<text text-anchor="middle" x="333.5" y="-634.5" font-family="Helvetica,sans-Serif" font-size="10.00"> buildingBlockType</text>
</g>
<!-- Node5 -->
<g id="node5" class="node">
<title>Node5</title>
<g id="a_node5"><a xlink:href="enumdenoptim_1_1graph_1_1_vertex_1_1_vertex_type.html" target="_top" xlink:title="Flag declaring the type of Vertex implementation.">
<polygon fill="white" stroke="black" points="91,-582 91,-601 255,-601 255,-582 91,-582"/>
<text text-anchor="middle" x="173" y="-589" font-family="Helvetica,sans-Serif" font-size="10.00">denoptim.graph.Vertex.VertexType</text>
</a>
</g>
</g>
<!-- Node5&#45;&gt;Node3 -->
<g id="edge4" class="edge">
<title>Node5&#45;&gt;Node3</title>
<path fill="none" stroke="#9a32cd" stroke-dasharray="5,2" d="M265.25,-588.66C399.2,-586.38 656.23,-589.28 869,-634.5 934.76,-648.48 1008.02,-680.76 1042.3,-696.92"/>
<polygon fill="#9a32cd" stroke="#9a32cd" points="264.97,-585.16 255.04,-588.84 265.1,-592.16 264.97,-585.16"/>
<text text-anchor="middle" x="631" y="-606.5" font-family="Helvetica,sans-Serif" font-size="10.00"> vertexType</text>
</g>
<!-- Node5&#45;&gt;Node24 -->
<g id="edge35" class="edge">
<title>Node5&#45;&gt;Node24</title>
<path fill="none" stroke="#9a32cd" stroke-dasharray="5,2" d="M201.12,-577.24C242.87,-555.16 325.29,-511.11 394,-471.5 423.2,-454.67 456.67,-434 475.68,-422.13"/>
<polygon fill="#9a32cd" stroke="#9a32cd" points="199.33,-574.22 192.13,-581.99 202.6,-580.41 199.33,-574.22"/>
<text text-anchor="middle" x="333.5" y="-541.5" font-family="Helvetica,sans-Serif" font-size="10.00"> vertexType</text>
</g>
<!-- Node6 -->
<g id="node6" class="node">
<title>Node6</title>
<g id="a_node6"><a xlink:href="classdenoptim_1_1graph_1_1_edge_query.html" target="_top" xlink:title="A query for edges: a list of properties that target edges should possess in order to match this query...">
<polygon fill="white" stroke="black" points="713.5,-756 713.5,-775 845.5,-775 845.5,-756 713.5,-756"/>
<text text-anchor="middle" x="779.5" y="-763" font-family="Helvetica,sans-Serif" font-size="10.00">denoptim.graph.EdgeQuery</text>
</a>
</g>
</g>
<!-- Node6&#45;&gt;Node1 -->
<g id="edge14" class="edge">
<title>Node6&#45;&gt;Node1</title>
<path fill="none" stroke="#9a32cd" stroke-dasharray="5,2" d="M855.8,-763.63C960.7,-761.03 1148.71,-756.37 1244.83,-753.99"/>
<polygon fill="#9a32cd" stroke="#9a32cd" points="855.51,-760.14 845.6,-763.89 855.69,-767.14 855.51,-760.14"/>
<text text-anchor="middle" x="1063" y="-762.5" font-family="Helvetica,sans-Serif" font-size="10.00"> edgeQuery</text>
</g>
<!-- Node6&#45;&gt;Node3 -->
<g id="edge5" class="edge">
<title>Node6&#45;&gt;Node3</title>
<path fill="none" stroke="#9a32cd" stroke-dasharray="5,2" d="M813.84,-752.36C834.59,-744.65 862,-735.31 887,-729.5 921.77,-721.42 961.14,-715.93 993.72,-712.35"/>
<polygon fill="#9a32cd" stroke="#9a32cd" points="812.34,-749.18 804.22,-755.99 814.81,-755.73 812.34,-749.18"/>
<text text-anchor="middle" x="931.5" y="-743.5" font-family="Helvetica,sans-Serif" font-size="10.00"> incomingEdgeQuery</text>
<text text-anchor="middle" x="931.5" y="-732.5" font-family="Helvetica,sans-Serif" font-size="10.00">outgoingEdgeQuery</text>
</g>
<!-- Node7 -->
<g id="node7" class="node">
<title>Node7</title>
<g id="a_node7"><a xlink:href="enumdenoptim_1_1graph_1_1_edge_1_1_bond_type.html" target="_top" xlink:title="Possible chemical bond types an edge can represent.">
<polygon fill="white" stroke="black" points="97,-852 97,-871 249,-871 249,-852 97,-852"/>
<text text-anchor="middle" x="173" y="-859" font-family="Helvetica,sans-Serif" font-size="10.00">denoptim.graph.Edge.BondType</text>
</a>
</g>
</g>
<!-- Node7&#45;&gt;Node6 -->
<g id="edge6" class="edge">
<title>Node7&#45;&gt;Node6</title>
<path fill="none" stroke="#9a32cd" stroke-dasharray="5,2" d="M259.33,-863.11C300.22,-862.88 349.8,-861.13 394,-855.5 519.77,-839.47 548.63,-820.76 672,-791.5 694.59,-786.14 719.84,-779.99 740.08,-775.01"/>
<polygon fill="#9a32cd" stroke="#9a32cd" points="259.12,-859.61 249.13,-863.14 259.14,-866.61 259.12,-859.61"/>
<text text-anchor="middle" x="492" y="-855.5" font-family="Helvetica,sans-Serif" font-size="10.00"> bondType</text>
</g>
<!-- Node9 -->
<g id="node9" class="node">
<title>Node9</title>
<g id="a_node9"><a xlink:href="classdenoptim_1_1graph_1_1_a_p_class.html" target="_top" xlink:title=" ">
<polygon fill="white" stroke="black" points="430.5,-756 430.5,-775 553.5,-775 553.5,-756 430.5,-756"/>
<text text-anchor="middle" x="492" y="-763" font-family="Helvetica,sans-Serif" font-size="10.00">denoptim.graph.APClass</text>
</a>
</g>
</g>
<!-- Node7&#45;&gt;Node9 -->
<g id="edge13" class="edge">
<title>Node7&#45;&gt;Node9</title>
<path fill="none" stroke="#9a32cd" stroke-dasharray="5,2" d="M215.47,-848.97C233.12,-843.85 253.98,-838.07 273,-833.5 326.31,-820.7 341.8,-826.27 394,-809.5 422.7,-800.28 454.18,-784.96 473.26,-775.05"/>
<polygon fill="#9a32cd" stroke="#9a32cd" points="214.1,-845.73 205.49,-851.9 216.07,-852.45 214.1,-845.73"/>
<text text-anchor="middle" x="333.5" y="-847.5" font-family="Helvetica,sans-Serif" font-size="10.00"> DEFAULTBT</text>
<text text-anchor="middle" x="333.5" y="-836.5" font-family="Helvetica,sans-Serif" font-size="10.00">bndTyp</text>
</g>
<!-- Node8 -->
<g id="node8" class="node">
<title>Node8</title>
<g id="a_node8"><a xlink:title=" ">
<polygon fill="white" stroke="black" points="0,-852 0,-871 42,-871 42,-852 0,-852"/>
<text text-anchor="middle" x="21" y="-859" font-family="Helvetica,sans-Serif" font-size="10.00">IBond</text>
</a>
</g>
</g>
<!-- Node8&#45;&gt;Node7 -->
<g id="edge7" class="edge">
<title>Node8&#45;&gt;Node7</title>
<path fill="none" stroke="#9a32cd" stroke-dasharray="5,2" d="M52.4,-861.5C65.37,-861.5 81.12,-861.5 96.89,-861.5"/>
<polygon fill="#9a32cd" stroke="#9a32cd" points="52.23,-858 42.23,-861.5 52.23,-865 52.23,-858"/>
<text text-anchor="middle" x="66.5" y="-864.5" font-family="Helvetica,sans-Serif" font-size="10.00"> bo</text>
</g>
<!-- Node9&#45;&gt;Node6 -->
<g id="edge8" class="edge">
<title>Node9&#45;&gt;Node6</title>
<path fill="none" stroke="#9a32cd" stroke-dasharray="5,2" d="M563.69,-765.5C609.48,-765.5 668.67,-765.5 713.32,-765.5"/>
<polygon fill="#9a32cd" stroke="#9a32cd" points="563.55,-762 553.55,-765.5 563.55,-769 563.55,-762"/>
<text text-anchor="middle" x="631" y="-779.5" font-family="Helvetica,sans-Serif" font-size="10.00"> srcAPC</text>
<text text-anchor="middle" x="631" y="-768.5" font-family="Helvetica,sans-Serif" font-size="10.00">trgAPC</text>
</g>
<!-- Node10 -->
<g id="node10" class="node">
<title>Node10</title>
<g id="a_node10"><a xlink:title=" ">
<polygon fill="white" stroke="black" points="143.5,-494 143.5,-513 202.5,-513 202.5,-494 143.5,-494"/>
<text text-anchor="middle" x="173" y="-501" font-family="Helvetica,sans-Serif" font-size="10.00">Cloneable</text>
</a>
</g>
</g>
<!-- Node10&#45;&gt;Node9 -->
<g id="edge9" class="edge">
<title>Node10&#45;&gt;Node9</title>
<path fill="none" stroke="midnightblue" d="M212.63,-514.89C230.88,-520.15 253,-526.36 273,-531.5 326.46,-545.24 351.05,-524.83 394,-559.5 427.76,-586.75 474.94,-718.72 487.71,-755.79"/>
<polygon fill="midnightblue" stroke="midnightblue" points="213.5,-511.5 202.92,-512.08 211.55,-518.22 213.5,-511.5"/>
</g>
<!-- Node14 -->
<g id="node14" class="node">
<title>Node14</title>
<g id="a_node14"><a xlink:href="classdenoptim_1_1graph_1_1_d_graph.html" target="_top" xlink:title="Container for the list of vertices and the edges that connect them.">
<polygon fill="white" stroke="black" points="1004,-262 1004,-281 1122,-281 1122,-262 1004,-262"/>
<text text-anchor="middle" x="1063" y="-269" font-family="Helvetica,sans-Serif" font-size="10.00">denoptim.graph.DGraph</text>
</a>
</g>
</g>
<!-- Node10&#45;&gt;Node14 -->
<g id="edge16" class="edge">
<title>Node10&#45;&gt;Node14</title>
<path fill="none" stroke="midnightblue" d="M212.89,-502.62C349.94,-499.38 805.66,-487.43 869,-470.5 920.66,-456.7 937.01,-452.09 976,-415.5 1019.74,-374.45 1048.77,-306.22 1058.45,-281.14"/>
<polygon fill="midnightblue" stroke="midnightblue" points="212.75,-499.12 202.84,-502.85 212.92,-506.12 212.75,-499.12"/>
</g>
<!-- Node20 -->
<g id="node20" class="node">
<title>Node20</title>
<g id="a_node20"><a xlink:href="classdenoptim_1_1graph_1_1_candidate.html" target="_top" xlink:title="A candidate is the combination of a denoptim graph with molecular representation and may include also...">
<polygon fill="white" stroke="black" points="1242,-473 1242,-492 1370,-492 1370,-473 1242,-473"/>
<text text-anchor="middle" x="1306" y="-480" font-family="Helvetica,sans-Serif" font-size="10.00">denoptim.graph.Candidate</text>
</a>
</g>
</g>
<!-- Node10&#45;&gt;Node20 -->
<g id="edge24" class="edge">
<title>Node10&#45;&gt;Node20</title>
<path fill="none" stroke="midnightblue" d="M212.6,-506.23C256.95,-509.98 331.64,-518.21 394,-534.5 402.31,-536.67 403.56,-539.92 412,-541.5 726.67,-600.53 812.28,-535.39 1132,-518.5 1172.89,-516.34 1183.95,-522.03 1224,-513.5 1245.65,-508.89 1269.14,-499.35 1285.23,-492.07"/>
<polygon fill="midnightblue" stroke="midnightblue" points="212.79,-502.73 202.54,-505.41 212.22,-509.71 212.79,-502.73"/>
</g>
<!-- Node10&#45;&gt;Node24 -->
<g id="edge29" class="edge">
<title>Node10&#45;&gt;Node24</title>
<path fill="none" stroke="midnightblue" d="M211.07,-490.69C229.56,-484.51 252.34,-477.22 273,-471.5 326.2,-456.78 340.78,-458.14 394,-443.5 417.52,-437.03 443.87,-428.53 463.17,-422.06"/>
<polygon fill="midnightblue" stroke="midnightblue" points="209.91,-487.39 201.55,-493.9 212.14,-494.02 209.91,-487.39"/>
</g>
<!-- Node11 -->
<g id="node11" class="node">
<title>Node11</title>
<g id="a_node11"><a xlink:title=" ">
<polygon fill="white" stroke="black" points="111.5,-756 111.5,-775 234.5,-775 234.5,-756 111.5,-756"/>
<text text-anchor="middle" x="173" y="-763" font-family="Helvetica,sans-Serif" font-size="10.00">Comparable&lt; APClass &gt;</text>
</a>
</g>
</g>
<!-- Node11&#45;&gt;Node9 -->
<g id="edge10" class="edge">
<title>Node11&#45;&gt;Node9</title>
<path fill="none" stroke="midnightblue" d="M244.9,-765.5C300.68,-765.5 377.55,-765.5 430.46,-765.5"/>
<polygon fill="midnightblue" stroke="midnightblue" points="244.75,-762 234.75,-765.5 244.75,-769 244.75,-762"/>
</g>
<!-- Node12 -->
<g id="node12" class="node">
<title>Node12</title>
<g id="a_node12"><a xlink:title=" ">
<polygon fill="white" stroke="black" points="95.5,-718 95.5,-737 250.5,-737 250.5,-718 95.5,-718"/>
<text text-anchor="middle" x="173" y="-725" font-family="Helvetica,sans-Serif" font-size="10.00">Set&lt; denoptim.graph.APClass &gt;</text>
</a>
</g>
</g>
<!-- Node12&#45;&gt;Node9 -->
<g id="edge11" class="edge">
<title>Node12&#45;&gt;Node9</title>
<path fill="none" stroke="#9a32cd" stroke-dasharray="5,2" d="M260.67,-728.09C301.36,-729.42 350.38,-732.54 394,-739.5 417.07,-743.18 442.57,-750.13 461.63,-755.92"/>
<polygon fill="#9a32cd" stroke="#9a32cd" points="260.62,-724.59 250.52,-727.79 260.41,-731.58 260.62,-724.59"/>
<text text-anchor="middle" x="333.5" y="-753.5" font-family="Helvetica,sans-Serif" font-size="10.00"> RCAAPCLASSSET</text>
<text text-anchor="middle" x="333.5" y="-742.5" font-family="Helvetica,sans-Serif" font-size="10.00">uniqueAPClasses</text>
</g>
<!-- Node13 -->
<g id="node13" class="node">
<title>Node13</title>
<g id="a_node13"><a xlink:title=" ">
<polygon fill="white" stroke="black" points="105.5,-794.5 105.5,-824.5 240.5,-824.5 240.5,-794.5 105.5,-794.5"/>
<text text-anchor="start" x="113.5" y="-812.5" font-family="Helvetica,sans-Serif" font-size="10.00">HashMap&lt; denoptim.graph.</text>
<text text-anchor="middle" x="173" y="-801.5" font-family="Helvetica,sans-Serif" font-size="10.00">APClass, String &gt;</text>
</a>
</g>
</g>
<!-- Node13&#45;&gt;Node9 -->
<g id="edge12" class="edge">
<title>Node13&#45;&gt;Node9</title>
<path fill="none" stroke="#9a32cd" stroke-dasharray="5,2" d="M250.92,-798.82C306.09,-791.17 379.38,-780.99 430.42,-773.91"/>
<polygon fill="#9a32cd" stroke="#9a32cd" points="250.26,-795.38 240.84,-800.22 251.23,-802.31 250.26,-795.38"/>
<text text-anchor="middle" x="333.5" y="-797.5" font-family="Helvetica,sans-Serif" font-size="10.00"> RCALABELPERAPCLASS</text>
</g>
<!-- Node14&#45;&gt;Node1 -->
<g id="edge15" class="edge">
<title>Node14&#45;&gt;Node1</title>
<path fill="none" stroke="#9a32cd" stroke-dasharray="5,2" d="M1073.54,-290.54C1113.98,-371.26 1270.62,-683.88 1300.17,-742.87"/>
<polygon fill="#9a32cd" stroke="#9a32cd" points="1076.42,-288.48 1068.81,-281.11 1070.16,-291.62 1076.42,-288.48"/>
<text text-anchor="middle" x="1187" y="-586.5" font-family="Helvetica,sans-Serif" font-size="10.00"> incomingGraph</text>
</g>
<!-- Node14&#45;&gt;Node20 -->
<g id="edge25" class="edge">
<title>Node14&#45;&gt;Node20</title>
<path fill="none" stroke="#9a32cd" stroke-dasharray="5,2" d="M1080.57,-288.57C1097.46,-305.65 1124.69,-332.36 1150,-353.5 1181.24,-379.6 1192.56,-381.63 1224,-407.5 1250.93,-429.67 1280.51,-458.22 1295.36,-472.88"/>
<polygon fill="#9a32cd" stroke="#9a32cd" points="1082.67,-285.71 1073.17,-281.02 1077.68,-290.61 1082.67,-285.71"/>
<text text-anchor="middle" x="1187" y="-410.5" font-family="Helvetica,sans-Serif" font-size="10.00"> graph</text>
</g>
<!-- Node23 -->
<g id="node23" class="node">
<title>Node23</title>
<g id="a_node23"><a xlink:href="classdenoptim_1_1graph_1_1_template.html" target="_top" xlink:title=" ">
<polygon fill="white" stroke="black" points="717,-99 717,-118 842,-118 842,-99 717,-99"/>
<text text-anchor="middle" x="779.5" y="-106" font-family="Helvetica,sans-Serif" font-size="10.00">denoptim.graph.Template</text>
</a>
</g>
</g>
<!-- Node14&#45;&gt;Node23 -->
<g id="edge36" class="edge">
<title>Node14&#45;&gt;Node23</title>
<path fill="none" stroke="#9a32cd" stroke-dasharray="5,2" d="M1058.9,-251.55C1051.86,-213.96 1030.82,-133.38 976,-99.5 953.6,-85.66 886.66,-91.88 837.32,-98.94"/>
<polygon fill="#9a32cd" stroke="#9a32cd" points="1055.51,-252.48 1060.66,-261.74 1062.41,-251.29 1055.51,-252.48"/>
<text text-anchor="middle" x="931.5" y="-102.5" font-family="Helvetica,sans-Serif" font-size="10.00"> innerGraph</text>
</g>
<!-- Node14&#45;&gt;Node24 -->
<g id="edge30" class="edge">
<title>Node14&#45;&gt;Node24</title>
<path fill="none" stroke="#9a32cd" stroke-dasharray="5,2" d="M1043.41,-254.99C1026.67,-240.74 1000.95,-220.34 976,-206.5 863.72,-144.2 805.7,-109.79 690,-165.5 580.78,-218.09 513.32,-363.96 496.92,-402.86"/>
<polygon fill="#9a32cd" stroke="#9a32cd" points="1041.44,-257.91 1051.29,-261.81 1046.02,-252.62 1041.44,-257.91"/>
<text text-anchor="middle" x="779.5" y="-168.5" font-family="Helvetica,sans-Serif" font-size="10.00"> owner</text>
</g>
<!-- Node15 -->
<g id="node15" class="node">
<title>Node15</title>
<g id="a_node15"><a xlink:title=" ">
<polygon fill="white" stroke="black" points="706.5,-262 706.5,-281 852.5,-281 852.5,-262 706.5,-262"/>
<text text-anchor="middle" x="779.5" y="-269" font-family="Helvetica,sans-Serif" font-size="10.00">List&lt; denoptim.graph.Vertex &gt;</text>
</a>
</g>
</g>
<!-- Node15&#45;&gt;Node14 -->
<g id="edge17" class="edge">
<title>Node15&#45;&gt;Node14</title>
<path fill="none" stroke="#9a32cd" stroke-dasharray="5,2" d="M862.71,-271.5C907.95,-271.5 963.01,-271.5 1003.78,-271.5"/>
<polygon fill="#9a32cd" stroke="#9a32cd" points="862.63,-268 852.63,-271.5 862.63,-275 862.63,-268"/>
<text text-anchor="middle" x="931.5" y="-274.5" font-family="Helvetica,sans-Serif" font-size="10.00"> gVertices</text>
</g>
<!-- Node16 -->
<g id="node16" class="node">
<title>Node16</title>
<g id="a_node16"><a xlink:title=" ">
<polygon fill="white" stroke="black" points="709.5,-224 709.5,-243 849.5,-243 849.5,-224 709.5,-224"/>
<text text-anchor="middle" x="779.5" y="-231" font-family="Helvetica,sans-Serif" font-size="10.00">List&lt; denoptim.graph.Edge &gt;</text>
</a>
</g>
</g>
<!-- Node16&#45;&gt;Node14 -->
<g id="edge18" class="edge">
<title>Node16&#45;&gt;Node14</title>
<path fill="none" stroke="#9a32cd" stroke-dasharray="5,2" d="M860.15,-241.86C895.67,-245.84 937.99,-250.95 976,-256.5 987.1,-258.12 998.97,-260.06 1010.23,-261.99"/>
<polygon fill="#9a32cd" stroke="#9a32cd" points="860.16,-238.34 849.84,-240.71 859.39,-245.29 860.16,-238.34"/>
<text text-anchor="middle" x="931.5" y="-259.5" font-family="Helvetica,sans-Serif" font-size="10.00"> gEdges</text>
</g>
<!-- Node17 -->
<g id="node17" class="node">
<title>Node17</title>
<g id="a_node17"><a xlink:title=" ">
<polygon fill="white" stroke="black" points="711,-186 711,-205 848,-205 848,-186 711,-186"/>
<text text-anchor="middle" x="779.5" y="-193" font-family="Helvetica,sans-Serif" font-size="10.00">List&lt; denoptim.graph.Ring &gt;</text>
</a>
</g>
</g>
<!-- Node17&#45;&gt;Node14 -->
<g id="edge19" class="edge">
<title>Node17&#45;&gt;Node14</title>
<path fill="none" stroke="#9a32cd" stroke-dasharray="5,2" d="M858.14,-204.52C894.49,-209.98 938.04,-218.3 976,-230.5 1001.2,-238.6 1028.49,-252.59 1045.42,-261.94"/>
<polygon fill="#9a32cd" stroke="#9a32cd" points="858.49,-201.04 848.09,-203.06 857.48,-207.97 858.49,-201.04"/>
<text text-anchor="middle" x="931.5" y="-233.5" font-family="Helvetica,sans-Serif" font-size="10.00"> gRings</text>
</g>
<!-- Node18 -->
<g id="node18" class="node">
<title>Node18</title>
<g id="a_node18"><a xlink:title=" ">
<polygon fill="white" stroke="black" points="713,-49.5 713,-79.5 846,-79.5 846,-49.5 713,-49.5"/>
<text text-anchor="start" x="721" y="-67.5" font-family="Helvetica,sans-Serif" font-size="10.00">List&lt; denoptim.graph.rings.</text>
<text text-anchor="middle" x="779.5" y="-56.5" font-family="Helvetica,sans-Serif" font-size="10.00">ClosableChain &gt;</text>
</a>
</g>
</g>
<!-- Node18&#45;&gt;Node14 -->
<g id="edge20" class="edge">
<title>Node18&#45;&gt;Node14</title>
<path fill="none" stroke="#9a32cd" stroke-dasharray="5,2" d="M856.61,-51.47C895.55,-48.92 941.8,-52.68 976,-76.5 1041.28,-121.97 1057.57,-228.6 1061.11,-261.6"/>
<polygon fill="#9a32cd" stroke="#9a32cd" points="856.05,-48 846.36,-52.29 856.61,-54.98 856.05,-48"/>
<text text-anchor="middle" x="931.5" y="-79.5" font-family="Helvetica,sans-Serif" font-size="10.00"> closableChains</text>
</g>
<!-- Node19 -->
<g id="node19" class="node">
<title>Node19</title>
<g id="a_node19"><a xlink:title=" ">
<polygon fill="white" stroke="black" points="701.5,-0.5 701.5,-30.5 857.5,-30.5 857.5,-0.5 701.5,-0.5"/>
<text text-anchor="start" x="709.5" y="-18.5" font-family="Helvetica,sans-Serif" font-size="10.00">List&lt; denoptim.graph.Symmetric</text>
<text text-anchor="middle" x="779.5" y="-7.5" font-family="Helvetica,sans-Serif" font-size="10.00">Vertexes &gt;</text>
</a>
</g>
</g>
<!-- Node19&#45;&gt;Node14 -->
<g id="edge21" class="edge">
<title>Node19&#45;&gt;Node14</title>
<path fill="none" stroke="#9a32cd" stroke-dasharray="5,2" d="M867.92,-5.61C904.71,-5.99 945.89,-12.96 976,-36.5 1050.96,-95.1 1060.6,-225.42 1061.83,-261.86"/>
<polygon fill="#9a32cd" stroke="#9a32cd" points="867.65,-2.11 857.67,-5.67 867.69,-9.11 867.65,-2.11"/>
<text text-anchor="middle" x="931.5" y="-39.5" font-family="Helvetica,sans-Serif" font-size="10.00"> symVertices</text>
</g>
<!-- Node20&#45;&gt;Node14 -->
<g id="edge22" class="edge">
<title>Node20&#45;&gt;Node14</title>
<path fill="none" stroke="#9a32cd" stroke-dasharray="5,2" d="M1298.41,-463.45C1287.32,-433.92 1262.32,-376.93 1224,-342.5 1188.73,-310.82 1137.03,-291.38 1102.03,-281.03"/>
<polygon fill="#9a32cd" stroke="#9a32cd" points="1295.17,-464.78 1301.86,-472.99 1301.75,-462.39 1295.17,-464.78"/>
<text text-anchor="middle" x="1187" y="-345.5" font-family="Helvetica,sans-Serif" font-size="10.00"> candidate</text>
</g>
<!-- Node21 -->
<g id="node21" class="node">
<title>Node21</title>
<g id="a_node21"><a xlink:title=" ">
<polygon fill="white" stroke="black" points="999,-473 999,-492 1127,-492 1127,-473 999,-473"/>
<text text-anchor="middle" x="1063" y="-480" font-family="Helvetica,sans-Serif" font-size="10.00">Comparable&lt; Candidate &gt;</text>
</a>
</g>
</g>
<!-- Node21&#45;&gt;Node20 -->
<g id="edge23" class="edge">
<title>Node21&#45;&gt;Node20</title>
<path fill="none" stroke="midnightblue" d="M1137.18,-482.5C1170.62,-482.5 1209.83,-482.5 1241.94,-482.5"/>
<polygon fill="midnightblue" stroke="midnightblue" points="1137.01,-479 1127.01,-482.5 1137.01,-486 1137.01,-479"/>
</g>
<!-- Node22 -->
<g id="node22" class="node">
<title>Node22</title>
<g id="a_node22"><a xlink:title=" ">
<polygon fill="white" stroke="black" points="450,-513 450,-532 534,-532 534,-513 450,-513"/>
<text text-anchor="middle" x="492" y="-520" font-family="Helvetica,sans-Serif" font-size="10.00">IAtomContainer</text>
</a>
</g>
</g>
<!-- Node22&#45;&gt;Node20 -->
<g id="edge26" class="edge">
<title>Node22&#45;&gt;Node20</title>
<path fill="none" stroke="#9a32cd" stroke-dasharray="5,2" d="M544.14,-521.19C652.53,-518.34 913.39,-511.03 1132,-501.5 1172.91,-499.72 1183.31,-501.11 1224,-496.5 1234.21,-495.34 1245.08,-493.73 1255.44,-492.01"/>
<polygon fill="#9a32cd" stroke="#9a32cd" points="544.03,-517.69 534.13,-521.45 544.22,-524.69 544.03,-517.69"/>
<text text-anchor="middle" x="931.5" y="-514.5" font-family="Helvetica,sans-Serif" font-size="10.00"> iac</text>
</g>
<!-- Node22&#45;&gt;Node23 -->
<g id="edge37" class="edge">
<title>Node22&#45;&gt;Node23</title>
<path fill="none" stroke="#9a32cd" stroke-dasharray="5,2" d="M510.8,-505.63C528.24,-488.34 554.65,-460.02 572,-431.5 645.82,-310.16 585.03,-230.19 690,-134.5 698.05,-127.16 708.06,-121.89 718.44,-118.1"/>
<polygon fill="#9a32cd" stroke="#9a32cd" points="508.2,-503.27 503.48,-512.76 513.09,-508.29 508.2,-503.27"/>
<text text-anchor="middle" x="631" y="-399.5" font-family="Helvetica,sans-Serif" font-size="10.00"> mol</text>
</g>
<!-- Node23&#45;&gt;Node14 -->
<g id="edge27" class="edge">
<title>Node23&#45;&gt;Node14</title>
<path fill="none" stroke="#9a32cd" stroke-dasharray="5,2" d="M852.38,-111.3C899.47,-114.33 955.88,-120.59 976,-133.5 1025.19,-165.05 1051.06,-235.81 1059.16,-261.74"/>
<polygon fill="#9a32cd" stroke="#9a32cd" points="852.38,-107.79 842.19,-110.68 851.96,-114.78 852.38,-107.79"/>
<text text-anchor="middle" x="931.5" y="-136.5" font-family="Helvetica,sans-Serif" font-size="10.00"> templateJacket</text>
</g>
<!-- Node24&#45;&gt;Node23 -->
<g id="edge28" class="edge">
<title>Node24&#45;&gt;Node23</title>
<path fill="none" stroke="midnightblue" d="M493.92,-392.88C497.35,-343.28 513.57,-212.2 590,-146.5 608.8,-130.34 669.22,-120.14 716.64,-114.43"/>
<polygon fill="midnightblue" stroke="midnightblue" points="490.42,-392.73 493.32,-402.91 497.41,-393.14 490.42,-392.73"/>
</g>
<!-- Node25 -->
<g id="node25" class="node">
<title>Node25</title>
<g id="a_node25"><a xlink:title=" ">
<polygon fill="white" stroke="black" points="116,-383 116,-402 230,-402 230,-383 116,-383"/>
<text text-anchor="middle" x="173" y="-390" font-family="Helvetica,sans-Serif" font-size="10.00">Map&lt; Object, Object &gt;</text>
</a>
</g>
</g>
<!-- Node25&#45;&gt;Node24 -->
<g id="edge32" class="edge">
<title>Node25&#45;&gt;Node24</title>
<path fill="none" stroke="#9a32cd" stroke-dasharray="5,2" d="M240.38,-392.31C284.09,-392.67 342.54,-394.1 394,-398.5 407.48,-399.65 421.94,-401.44 435.47,-403.36"/>
<polygon fill="#9a32cd" stroke="#9a32cd" points="240.19,-388.81 230.16,-392.24 240.14,-395.81 240.19,-388.81"/>
<text text-anchor="middle" x="333.5" y="-401.5" font-family="Helvetica,sans-Serif" font-size="10.00"> properties</text>
</g>
<!-- Node26 -->
<g id="node26" class="node">
<title>Node26</title>
<g id="a_node26"><a xlink:title=" ">
<polygon fill="white" stroke="black" points="136,-345 136,-364 210,-364 210,-345 136,-345"/>
<text text-anchor="middle" x="173" y="-352" font-family="Helvetica,sans-Serif" font-size="10.00">Set&lt; String &gt;</text>
</a>
</g>
</g>
<!-- Node26&#45;&gt;Node24 -->
<g id="edge33" class="edge">
<title>Node26&#45;&gt;Node24</title>
<path fill="none" stroke="#9a32cd" stroke-dasharray="5,2" d="M220.25,-356.47C265.12,-359.11 334.9,-365.1 394,-378.5 420.11,-384.42 448.92,-395.07 468.31,-402.88"/>
<polygon fill="#9a32cd" stroke="#9a32cd" points="220.41,-352.98 210.24,-355.92 220.03,-359.97 220.41,-352.98"/>
<text text-anchor="middle" x="333.5" y="-381.5" font-family="Helvetica,sans-Serif" font-size="10.00"> uniquefyingPropertyKeys</text>
</g>
<!-- Node27 -->
<g id="node27" class="node">
<title>Node27</title>
<g id="a_node27"><a xlink:title=" ">
<polygon fill="white" stroke="black" points="102.5,-421.5 102.5,-451.5 243.5,-451.5 243.5,-421.5 102.5,-421.5"/>
<text text-anchor="start" x="110.5" y="-439.5" font-family="Helvetica,sans-Serif" font-size="10.00">List&lt; denoptim.utils.Mutation</text>
<text text-anchor="middle" x="173" y="-428.5" font-family="Helvetica,sans-Serif" font-size="10.00">Type &gt;</text>
</a>
</g>
</g>
<!-- Node27&#45;&gt;Node24 -->
<g id="edge34" class="edge">
<title>Node27&#45;&gt;Node24</title>
<path fill="none" stroke="#9a32cd" stroke-dasharray="5,2" d="M253.57,-430.48C310.22,-426.19 384.94,-420.53 435.3,-416.72"/>
<polygon fill="#9a32cd" stroke="#9a32cd" points="253.27,-426.99 243.57,-431.23 253.8,-433.97 253.27,-426.99"/>
<text text-anchor="middle" x="333.5" y="-432.5" font-family="Helvetica,sans-Serif" font-size="10.00"> allowedMutationTypes</text>
</g>
<!-- Node28 -->
<g id="node28" class="node">
<title>Node28</title>
<g id="a_node28"><a xlink:href="enumdenoptim_1_1graph_1_1_template_1_1_contract_level.html" target="_top" xlink:title="Enum specifying to what extent the template&#39;s inner graph can be changed.">
<polygon fill="white" stroke="black" points="428,-94.5 428,-124.5 556,-124.5 556,-94.5 428,-94.5"/>
<text text-anchor="start" x="436" y="-112.5" font-family="Helvetica,sans-Serif" font-size="10.00">denoptim.graph.Template.</text>
<text text-anchor="middle" x="492" y="-101.5" font-family="Helvetica,sans-Serif" font-size="10.00">ContractLevel</text>
</a>
</g>
</g>
<!-- Node28&#45;&gt;Node23 -->
<g id="edge38" class="edge">
<title>Node28&#45;&gt;Node23</title>
<path fill="none" stroke="#9a32cd" stroke-dasharray="5,2" d="M566.25,-107.83C574.26,-107.69 582.3,-107.58 590,-107.5 632.38,-107.06 680.12,-107.32 716.95,-107.69"/>
<polygon fill="#9a32cd" stroke="#9a32cd" points="566.07,-104.33 556.13,-108.01 566.19,-111.33 566.07,-104.33"/>
<text text-anchor="middle" x="631" y="-110.5" font-family="Helvetica,sans-Serif" font-size="10.00"> contractLevel</text>
</g>
<!-- Node29 -->
<g id="node29" class="node">
<title>Node29</title>
<g id="a_node29"><a xlink:title=" ">
<polygon fill="white" stroke="black" points="412,-6.5 412,-36.5 572,-36.5 572,-6.5 412,-6.5"/>
<text text-anchor="start" x="420" y="-24.5" font-family="Helvetica,sans-Serif" font-size="10.00">List&lt; denoptim.graph.Attachment</text>
<text text-anchor="middle" x="492" y="-13.5" font-family="Helvetica,sans-Serif" font-size="10.00">Point &gt;</text>
</a>
</g>
</g>
<!-- Node29&#45;&gt;Node23 -->
<g id="edge39" class="edge">
<title>Node29&#45;&gt;Node23</title>
<path fill="none" stroke="#9a32cd" stroke-dasharray="5,2" d="M582.33,-32.36C612.5,-38.95 645.27,-49.53 672,-66.5 682.67,-73.27 679.25,-81.86 690,-88.5 698.17,-93.55 707.48,-97.33 716.91,-100.16"/>
<polygon fill="#9a32cd" stroke="#9a32cd" points="582.72,-28.87 572.22,-30.28 581.31,-35.73 582.72,-28.87"/>
<text text-anchor="middle" x="631" y="-69.5" font-family="Helvetica,sans-Serif" font-size="10.00"> requiredAPs</text>
</g>
<!-- Node30 -->
<g id="node30" class="node">
<title>Node30</title>
<g id="a_node30"><a xlink:href="classdenoptim_1_1graph_1_1_a_p_tree_map.html" target="_top" xlink:title="Attachment point mapping where keys are sorted by natural ordering, i.e., by AttachmentPoint#compareT...">
<polygon fill="white" stroke="black" points="423.5,-56 423.5,-75 560.5,-75 560.5,-56 423.5,-56"/>
<text text-anchor="middle" x="492" y="-63" font-family="Helvetica,sans-Serif" font-size="10.00">denoptim.graph.APTreeMap</text>
</a>
</g>
</g>
<!-- Node30&#45;&gt;Node23 -->
<g id="edge40" class="edge">
<title>Node30&#45;&gt;Node23</title>
<path fill="none" stroke="#9a32cd" stroke-dasharray="5,2" d="M566.4,-76.55C613,-83.57 672.63,-92.55 716.79,-99.21"/>
<polygon fill="#9a32cd" stroke="#9a32cd" points="566.77,-73.07 556.36,-75.04 565.73,-79.99 566.77,-73.07"/>
<text text-anchor="middle" x="631" y="-95.5" font-family="Helvetica,sans-Serif" font-size="10.00"> innerToOuterAPs</text>
</g>
<!-- Node31 -->
<g id="node31" class="node">
<title>Node31</title>
<g id="a_node31"><a xlink:title=" ">
<polygon fill="white" stroke="black" points="100,-50.5 100,-80.5 246,-80.5 246,-50.5 100,-50.5"/>
<text text-anchor="start" x="108" y="-68.5" font-family="Helvetica,sans-Serif" font-size="10.00">LinkedHashMap&lt; Attachment</text>
<text text-anchor="middle" x="173" y="-57.5" font-family="Helvetica,sans-Serif" font-size="10.00">Point, AttachmentPoint &gt;</text>
</a>
</g>
</g>
<!-- Node31&#45;&gt;Node30 -->
<g id="edge41" class="edge">
<title>Node31&#45;&gt;Node30</title>
<path fill="none" stroke="midnightblue" d="M256.51,-65.5C308.4,-65.5 374.52,-65.5 423.32,-65.5"/>
<polygon fill="midnightblue" stroke="midnightblue" points="256.33,-62 246.33,-65.5 256.33,-69 256.33,-62"/>
</g>
<!-- Node32 -->
<g id="node32" class="node">
<title>Node32</title>
<g id="a_node32"><a xlink:title=" ">
<polygon fill="white" stroke="black" points="691,-409.5 691,-461.5 868,-461.5 868,-409.5 691,-409.5"/>
<text text-anchor="start" x="699" y="-449.5" font-family="Helvetica,sans-Serif" font-size="10.00">DefaultUndirectedGraph</text>
<text text-anchor="start" x="699" y="-438.5" font-family="Helvetica,sans-Serif" font-size="10.00">&lt; denoptim.graph.Vertex,</text>
<text text-anchor="start" x="699" y="-427.5" font-family="Helvetica,sans-Serif" font-size="10.00"> denoptim.graph.simplified.Undirected</text>
<text text-anchor="middle" x="779.5" y="-416.5" font-family="Helvetica,sans-Serif" font-size="10.00">Edge &gt;</text>
</a>
</g>
</g>
<!-- Node32&#45;&gt;Node14 -->
<g id="edge42" class="edge">
<title>Node32&#45;&gt;Node14</title>
<path fill="none" stroke="#9a32cd" stroke-dasharray="5,2" d="M873.33,-405.94C907.09,-393.06 944.63,-376.13 976,-355.5 1009.13,-333.71 1040.45,-297.99 1054.4,-281.03"/>
<polygon fill="#9a32cd" stroke="#9a32cd" points="872.05,-402.68 863.91,-409.47 874.5,-409.24 872.05,-402.68"/>
<text text-anchor="middle" x="931.5" y="-403.5" font-family="Helvetica,sans-Serif" font-size="10.00"> jGraph</text>
</g>
<!-- Node33 -->
<g id="node33" class="node">
<title>Node33</title>
<g id="a_node33"><a xlink:title=" ">
<polygon fill="white" stroke="black" points="690,-338.5 690,-390.5 869,-390.5 869,-338.5 690,-338.5"/>
<text text-anchor="start" x="698" y="-378.5" font-family="Helvetica,sans-Serif" font-size="10.00">DefaultUndirectedGraph</text>
<text text-anchor="start" x="698" y="-367.5" font-family="Helvetica,sans-Serif" font-size="10.00">&lt; denoptim.graph.simplified.</text>
<text text-anchor="start" x="698" y="-356.5" font-family="Helvetica,sans-Serif" font-size="10.00">Node, denoptim.graph.simplified.Node</text>
<text text-anchor="middle" x="779.5" y="-345.5" font-family="Helvetica,sans-Serif" font-size="10.00">Connection &gt;</text>
</a>
</g>
</g>
<!-- Node33&#45;&gt;Node14 -->
<g id="edge43" class="edge">
<title>Node33&#45;&gt;Node14</title>
<path fill="none" stroke="#9a32cd" stroke-dasharray="5,2" d="M879.29,-342.8C910.62,-334.84 945.13,-324.93 976,-313.5 1000.77,-304.32 1027.95,-290.34 1044.99,-281.07"/>
<polygon fill="#9a32cd" stroke="#9a32cd" points="878.09,-339.49 869.24,-345.31 879.79,-346.28 878.09,-339.49"/>
<text text-anchor="middle" x="931.5" y="-343.5" font-family="Helvetica,sans-Serif" font-size="10.00"> jGraphKernel</text>
</g>
<!-- Node34 -->
<g id="node34" class="node">
<title>Node34</title>
<g id="a_node34"><a xlink:title=" ">
<polygon fill="white" stroke="black" points="741,-300 741,-319 818,-319 818,-300 741,-300"/>
<text text-anchor="middle" x="779.5" y="-307" font-family="Helvetica,sans-Serif" font-size="10.00">AtomicInteger</text>
</a>
</g>
</g>
<!-- Node34&#45;&gt;Node14 -->
<g id="edge44" class="edge">
<title>Node34&#45;&gt;Node14</title>
<path fill="none" stroke="#9a32cd" stroke-dasharray="5,2" d="M828.23,-304.63C867.88,-300.41 925.71,-293.84 976,-286.5 987.1,-284.88 998.97,-282.94 1010.23,-281.01"/>
<polygon fill="#9a32cd" stroke="#9a32cd" points="827.64,-301.18 818.06,-305.71 828.37,-308.14 827.64,-301.18"/>
<text text-anchor="middle" x="931.5" y="-301.5" font-family="Helvetica,sans-Serif" font-size="10.00"> apCounter</text>
</g>
<!-- Node35 -->
<g id="node35" class="node">
<title>Node35</title>
<g id="a_node35"><a xlink:title=" ">
<polygon fill="white" stroke="black" points="998.5,-844.5 998.5,-874.5 1127.5,-874.5 1127.5,-844.5 998.5,-844.5"/>
<text text-anchor="start" x="1006.5" y="-862.5" font-family="Helvetica,sans-Serif" font-size="10.00">LinkedHashMap&lt; Integer,</text>
<text text-anchor="middle" x="1063" y="-851.5" font-family="Helvetica,sans-Serif" font-size="10.00"> Integer &gt;</text>
</a>
</g>
</g>
<!-- Node35&#45;&gt;Node1 -->
<g id="edge46" class="edge">
<title>Node35&#45;&gt;Node1</title>
<path fill="none" stroke="#9a32cd" stroke-dasharray="5,2" d="M1137.35,-841.76C1165.23,-833.69 1196.8,-822.91 1224,-809.5 1250.99,-796.19 1278.93,-774.44 1293.91,-762.01"/>
<polygon fill="#9a32cd" stroke="#9a32cd" points="1136.33,-838.41 1127.66,-844.5 1138.24,-845.14 1136.33,-838.41"/>
<text text-anchor="middle" x="1187" y="-840.5" font-family="Helvetica,sans-Serif" font-size="10.00"> incomingAPMap</text>
</g>
</g>
</svg>
        <g id="navigator" transform="translate(0 0)" fill="#404254">
                <rect fill="#f2f5e9" fill-opacity="0.5" stroke="#606060" stroke-width=".5" x="0" y="0" width="60" height="60"/>
                <use id="zoomplus" xlink:href="#zoomPlus" x="17" y="9" onmousedown="handleZoom(evt,'in')"/>
                <use id="zoomminus" xlink:href="#zoomMin" x="42" y="9" onmousedown="handleZoom(evt,'out')"/>
                <use id="reset" xlink:href="#resetDef" x="30" y="36" onmousedown="handleReset()"/>
                <g id="arrowUp" xlink:href="#dirArrow" transform="translate(30 24)" onmousedown="handlePan(0,-1)">
                  <use xlink:href="#rim" fill="#404040">
                        <set attributeName="fill" to="#808080" begin="arrowUp.mouseover" end="arrowUp.mouseout"/>
                  </use>
                  <path fill="none" stroke="white" stroke-width="1.5" d="M0,-3.0v7 M-2.5,-0.5L0,-3.0L2.5,-0.5"/>
                </g>
                <g id="arrowRight" xlink:href="#dirArrow" transform="rotate(90) translate(36 -43)" onmousedown="handlePan(1,0)">
                  <use xlink:href="#rim" fill="#404040">
                        <set attributeName="fill" to="#808080" begin="arrowRight.mouseover" end="arrowRight.mouseout"/>
                  </use>
                  <path fill="none" stroke="white" stroke-width="1.5" d="M0,-3.0v7 M-2.5,-0.5L0,-3.0L2.5,-0.5"/>
                </g>
                <g id="arrowDown" xlink:href="#dirArrow" transform="rotate(180) translate(-30 -48)" onmousedown="handlePan(0,1)">
                  <use xlink:href="#rim" fill="#404040">
                        <set attributeName="fill" to="#808080" begin="arrowDown.mouseover" end="arrowDown.mouseout"/>
                  </use>
                  <path fill="none" stroke="white" stroke-width="1.5" d="M0,-3.0v7 M-2.5,-0.5L0,-3.0L2.5,-0.5"/>
                </g>
                <g id="arrowLeft" xlink:href="#dirArrow" transform="rotate(270) translate(-36 17)" onmousedown="handlePan(-1,0)">
                  <use xlink:href="#rim" fill="#404040">
                        <set attributeName="fill" to="#808080" begin="arrowLeft.mouseover" end="arrowLeft.mouseout"/>
                  </use>
                  <path fill="none" stroke="white" stroke-width="1.5" d="M0,-3.0v7 M-2.5,-0.5L0,-3.0L2.5,-0.5"/>
                </g>
        </g>
        <svg viewBox="0 0 15 15" width="100%" height="30px" preserveAspectRatio="xMaxYMin meet">
         <g id="arrow_out" transform="scale(0.3 0.3)">
          <a xlink:href="classdenoptim_1_1utils_1_1_graph_edit__coll__graph_org.svg" target="_base">
           <rect id="button" ry="5" rx="5" y="6" x="6" height="38" width="38"
                fill="#f2f5e9" fill-opacity="0.5" stroke="#606060" stroke-width="1.0"/>
           <path id="arrow"
             d="M 11.500037,31.436501 C 11.940474,20.09759 22.043105,11.32322 32.158766,21.979434 L 37.068811,17.246167 C 37.068811,17.246167 37.088388,32 37.088388,32 L 22.160133,31.978069 C 22.160133,31.978069 26.997745,27.140456 26.997745,27.140456 C 18.528582,18.264221 13.291696,25.230495 11.500037,31.436501 z"
             style="fill:#404040;"/>
          </a>
         </g>
        </svg>
</svg>
