<?xml version="1.0" encoding="UTF-8" standalone="no"?>
<!DOCTYPE svg PUBLIC "-//W3C//DTD SVG 1.1//EN"
 "http://www.w3.org/Graphics/SVG/1.1/DTD/svg11.dtd">
<!-- Generated by graphviz version 3.0.0 (20221109.1736)
 -->
<!-- Title: denoptim.programs.fragmenter.CuttingRule Pages: 1 -->
<svg width="744pt" height="192pt"
 viewBox="0.00 0.00 744.00 192.00" xmlns="http://www.w3.org/2000/svg" xmlns:xlink="http://www.w3.org/1999/xlink">
<g id="graph0" class="graph" transform="scale(1 1) rotate(0) translate(4 188)">
<title>denoptim.programs.fragmenter.CuttingRule</title>
<polygon fill="white" stroke="transparent" points="-4,4 -4,-188 740,-188 740,4 -4,4"/>
<!-- Node1 -->
<g id="node1" class="node">
<title>Node1</title>
<g id="a_node1"><a xlink:title="A cutting rule with three SMARTS queries (atom 1, bond, atom2) and options.">
<polygon fill="#bfbfbf" stroke="black" points="586,-62 586,-92 736,-92 736,-62 586,-62"/>
<text text-anchor="start" x="594" y="-80" font-family="Helvetica,sans-Serif" font-size="10.00">denoptim.programs.fragmenter.</text>
<text text-anchor="middle" x="661" y="-69" font-family="Helvetica,sans-Serif" font-size="10.00">CuttingRule</text>
</a>
</g>
</g>
<!-- Node2 -->
<g id="node2" class="node">
<title>Node2</title>
<g id="a_node2"><a xlink:href="classdenoptim_1_1graph_1_1_a_p_class.html" target="_top" xlink:title=" ">
<polygon fill="white" stroke="black" points="403,-88.5 403,-107.5 526,-107.5 526,-88.5 403,-88.5"/>
<text text-anchor="middle" x="464.5" y="-95.5" font-family="Helvetica,sans-Serif" font-size="10.00">denoptim.graph.APClass</text>
</a>
</g>
</g>
<!-- Node2&#45;&gt;Node1 -->
<g id="edge1" class="edge">
<title>Node2&#45;&gt;Node1</title>
<path fill="none" stroke="#9a32cd" stroke-dasharray="5,2" d="M536.58,-90.33C552.57,-88.6 569.58,-86.76 585.7,-85.02"/>
<polygon fill="#9a32cd" stroke="#9a32cd" points="535.81,-86.89 526.24,-91.44 536.56,-93.85 535.81,-86.89"/>
<text text-anchor="middle" x="556" y="-103" font-family="Helvetica,sans-Serif" font-size="10.00"> apc0</text>
<text text-anchor="middle" x="556" y="-92" font-family="Helvetica,sans-Serif" font-size="10.00">apc1</text>
</g>
<!-- Node3 -->
<g id="node3" class="node">
<title>Node3</title>
<g id="a_node3"><a xlink:title=" ">
<polygon fill="white" stroke="black" points="139,-164.5 139,-183.5 198,-183.5 198,-164.5 139,-164.5"/>
<text text-anchor="middle" x="168.5" y="-171.5" font-family="Helvetica,sans-Serif" font-size="10.00">Cloneable</text>
</a>
</g>
</g>
<!-- Node3&#45;&gt;Node2 -->
<g id="edge2" class="edge">
<title>Node3&#45;&gt;Node2</title>
<path fill="none" stroke="midnightblue" d="M208.42,-172.45C252.36,-169.75 325.48,-162.33 385,-142 409.39,-133.67 434.95,-117.8 450.04,-107.57"/>
<polygon fill="midnightblue" stroke="midnightblue" points="207.95,-168.98 198.17,-173.03 208.35,-175.96 207.95,-168.98"/>
</g>
<!-- Node4 -->
<g id="node4" class="node">
<title>Node4</title>
<g id="a_node4"><a xlink:title=" ">
<polygon fill="white" stroke="black" points="107,-126.5 107,-145.5 230,-145.5 230,-126.5 107,-126.5"/>
<text text-anchor="middle" x="168.5" y="-133.5" font-family="Helvetica,sans-Serif" font-size="10.00">Comparable&lt; APClass &gt;</text>
</a>
</g>
</g>
<!-- Node4&#45;&gt;Node2 -->
<g id="edge3" class="edge">
<title>Node4&#45;&gt;Node2</title>
<path fill="none" stroke="midnightblue" d="M240.53,-135.51C282.79,-134.2 337.3,-130.72 385,-122 402.94,-118.72 422.57,-112.72 437.71,-107.54"/>
<polygon fill="midnightblue" stroke="midnightblue" points="240.24,-132.02 230.34,-135.79 240.43,-139.02 240.24,-132.02"/>
</g>
<!-- Node5 -->
<g id="node5" class="node">
<title>Node5</title>
<g id="a_node5"><a xlink:title=" ">
<polygon fill="white" stroke="black" points="91,-88.5 91,-107.5 246,-107.5 246,-88.5 91,-88.5"/>
<text text-anchor="middle" x="168.5" y="-95.5" font-family="Helvetica,sans-Serif" font-size="10.00">Set&lt; denoptim.graph.APClass &gt;</text>
</a>
</g>
</g>
<!-- Node5&#45;&gt;Node2 -->
<g id="edge4" class="edge">
<title>Node5&#45;&gt;Node2</title>
<path fill="none" stroke="#9a32cd" stroke-dasharray="5,2" d="M256.55,-98C303.63,-98 360.6,-98 402.84,-98"/>
<polygon fill="#9a32cd" stroke="#9a32cd" points="256.36,-94.5 246.36,-98 256.36,-101.5 256.36,-94.5"/>
<text text-anchor="middle" x="324.5" y="-112" font-family="Helvetica,sans-Serif" font-size="10.00"> RCAAPCLASSSET</text>
<text text-anchor="middle" x="324.5" y="-101" font-family="Helvetica,sans-Serif" font-size="10.00">uniqueAPClasses</text>
</g>
<!-- Node6 -->
<g id="node6" class="node">
<title>Node6</title>
<g id="a_node6"><a xlink:title=" ">
<polygon fill="white" stroke="black" points="101,-39 101,-69 236,-69 236,-39 101,-39"/>
<text text-anchor="start" x="109" y="-57" font-family="Helvetica,sans-Serif" font-size="10.00">HashMap&lt; denoptim.graph.</text>
<text text-anchor="middle" x="168.5" y="-46" font-family="Helvetica,sans-Serif" font-size="10.00">APClass, String &gt;</text>
</a>
</g>
</g>
<!-- Node6&#45;&gt;Node2 -->
<g id="edge5" class="edge">
<title>Node6&#45;&gt;Node2</title>
<path fill="none" stroke="#9a32cd" stroke-dasharray="5,2" d="M246.12,-63.27C287.35,-68.52 339.05,-75.52 385,-83 395,-84.63 405.68,-86.55 415.84,-88.46"/>
<polygon fill="#9a32cd" stroke="#9a32cd" points="246.5,-59.79 236.14,-62.01 245.62,-66.73 246.5,-59.79"/>
<text text-anchor="middle" x="324.5" y="-86" font-family="Helvetica,sans-Serif" font-size="10.00"> RCALABELPERAPCLASS</text>
</g>
<!-- Node7 -->
<g id="node7" class="node">
<title>Node7</title>
<g id="a_node7"><a xlink:href="enumdenoptim_1_1graph_1_1_edge_1_1_bond_type.html" target="_top" xlink:title="Possible chemical bond types an edge can represent.">
<polygon fill="white" stroke="black" points="92.5,-0.5 92.5,-19.5 244.5,-19.5 244.5,-0.5 92.5,-0.5"/>
<text text-anchor="middle" x="168.5" y="-7.5" font-family="Helvetica,sans-Serif" font-size="10.00">denoptim.graph.Edge.BondType</text>
</a>
</g>
</g>
<!-- Node7&#45;&gt;Node2 -->
<g id="edge6" class="edge">
<title>Node7&#45;&gt;Node2</title>
<path fill="none" stroke="#9a32cd" stroke-dasharray="5,2" d="M254.67,-3.49C297.53,-4.47 348.07,-12.6 385,-40 400.33,-51.38 388.66,-66.39 403,-79 407.38,-82.85 412.54,-85.93 417.97,-88.37"/>
<polygon fill="#9a32cd" stroke="#9a32cd" points="254.56,0.01 244.53,-3.38 254.49,-6.99 254.56,0.01"/>
<text text-anchor="middle" x="324.5" y="-54" font-family="Helvetica,sans-Serif" font-size="10.00"> DEFAULTBT</text>
<text text-anchor="middle" x="324.5" y="-43" font-family="Helvetica,sans-Serif" font-size="10.00">bndTyp</text>
</g>
<!-- Node8 -->
<g id="node8" class="node">
<title>Node8</title>
<g id="a_node8"><a xlink:title=" ">
<polygon fill="white" stroke="black" points="0,-0.5 0,-19.5 42,-19.5 42,-0.5 0,-0.5"/>
<text text-anchor="middle" x="21" y="-7.5" font-family="Helvetica,sans-Serif" font-size="10.00">IBond</text>
</a>
</g>
</g>
<!-- Node8&#45;&gt;Node7 -->
<g id="edge7" class="edge">
<title>Node8&#45;&gt;Node7</title>
<path fill="none" stroke="#9a32cd" stroke-dasharray="5,2" d="M52.33,-10C64.08,-10 78.11,-10 92.26,-10"/>
<polygon fill="#9a32cd" stroke="#9a32cd" points="52.23,-6.5 42.23,-10 52.23,-13.5 52.23,-6.5"/>
<text text-anchor="middle" x="66.5" y="-13" font-family="Helvetica,sans-Serif" font-size="10.00"> bo</text>
</g>
<!-- Node9 -->
<g id="node9" class="node">
<title>Node9</title>
<g id="a_node9"><a xlink:title=" ">
<polygon fill="white" stroke="black" points="427,-50.5 427,-69.5 502,-69.5 502,-50.5 427,-50.5"/>
<text text-anchor="middle" x="464.5" y="-57.5" font-family="Helvetica,sans-Serif" font-size="10.00">List&lt; String &gt;</text>
</a>
</g>
</g>
<!-- Node9&#45;&gt;Node1 -->
<g id="edge8" class="edge">
<title>Node9&#45;&gt;Node1</title>
<path fill="none" stroke="#9a32cd" stroke-dasharray="5,2" d="M512.1,-60.17C529.65,-60.54 549.77,-61.35 568,-63 573.79,-63.52 579.78,-64.18 585.78,-64.91"/>
<polygon fill="#9a32cd" stroke="#9a32cd" points="512.15,-56.67 502.09,-59.99 512.03,-63.67 512.15,-56.67"/>
<text text-anchor="middle" x="556" y="-66" font-family="Helvetica,sans-Serif" font-size="10.00"> opts</text>
</g>
</g>
</svg>
