<?xml version="1.0" encoding="UTF-8" standalone="no"?>
<!DOCTYPE svg PUBLIC "-//W3C//DTD SVG 1.1//EN"
 "http://www.w3.org/Graphics/SVG/1.1/DTD/svg11.dtd">
<!-- Generated by graphviz version 3.0.0 (20221109.1736)
 -->
<!-- Title: denoptim.utils.Randomizer.randomlyChooseOne Pages: 1 -->
<!--zoomable 323 -->
<svg id="main" version="1.1" xmlns="http://www.w3.org/2000/svg" xmlns:xlink="http://www.w3.org/1999/xlink" xml:space="preserve" onload="init(evt)">
<style type="text/css"><![CDATA[
.edge:hover path { stroke: red; }
.edge:hover polygon { stroke: red; fill: red; }
]]></style>
<script type="text/javascript"><![CDATA[
var edges = document.getElementsByTagName('g');
if (edges && edges.length) {
  for (var i=0;i<edges.length;i++) {
    if (edges[i].id.substr(0,4)=='edge') {
      edges[i].setAttribute('class','edge');
    }
  }
}
]]></script>
        <defs>
                <circle id="rim" cx="0" cy="0" r="7"/>
                <circle id="rim2" cx="0" cy="0" r="3.5"/>
                <g id="zoomPlus">
                        <use xlink:href="#rim" fill="#404040">
                                <set attributeName="fill" to="#808080" begin="zoomplus.mouseover" end="zoomplus.mouseout"/>
                        </use>
                        <path d="M-4,0h8M0,-4v8" fill="none" stroke="white" stroke-width="1.5" pointer-events="none"/>
                </g>
                <g id="zoomMin">
                        <use xlink:href="#rim" fill="#404040">
                                <set attributeName="fill" to="#808080" begin="zoomminus.mouseover" end="zoomminus.mouseout"/>
                        </use>
                        <path d="M-4,0h8" fill="none" stroke="white" stroke-width="1.5" pointer-events="none"/>
                </g>
                <g id="dirArrow">
                        <path fill="none" stroke="white" stroke-width="1.5" d="M0,-3.0v7 M-2.5,-0.5L0,-3.0L2.5,-0.5"/>
                </g>
               <g id="resetDef">
                       <use xlink:href="#rim2" fill="#404040">
                               <set attributeName="fill" to="#808080" begin="reset.mouseover" end="reset.mouseout"/>
                       </use>
               </g>
        </defs>

<script type="text/javascript">
var viewWidth = 1476;
var viewHeight = 323;
var sectionId = 'dynsection-25';
</script>
<script xlink:href="svgpan.js"/>
<svg id="graph" class="graph">
<g id="viewport">
<title>denoptim.utils.Randomizer.randomlyChooseOne</title>
<polygon fill="white" stroke="transparent" points="-4,4 -4,-319 1472,-319 1472,4 -4,4"/>
<!-- Node1 -->
<g id="node1" class="node">
<title>Node1</title>
<g id="a_node1"><a xlink:title="Chooses one member among the given collection.">
<polygon fill="#bfbfbf" stroke="black" points="1297,-142.5 1297,-172.5 1468,-172.5 1468,-142.5 1297,-142.5"/>
<text text-anchor="start" x="1305" y="-160.5" font-family="Helvetica,sans-Serif" font-size="10.00">denoptim.utils.Randomizer.randomly</text>
<text text-anchor="middle" x="1382.5" y="-149.5" font-family="Helvetica,sans-Serif" font-size="10.00">ChooseOne</text>
</a>
</g>
</g>
<!-- Node2 -->
<g id="node2" class="node">
<title>Node2</title>
<g id="a_node2"><a xlink:href="classdenoptim_1_1fragspace_1_1_a_p_map_finder.html#ae5c8afa4b7defd6ce35df0fa1c5facf2" target="_top" xlink:title="Searches for mappings between the AttachmentPoints on the two lists.">
<polygon fill="white" stroke="black" points="1105,-284.5 1105,-314.5 1241,-314.5 1241,-284.5 1105,-284.5"/>
<text text-anchor="start" x="1113" y="-302.5" font-family="Helvetica,sans-Serif" font-size="10.00">denoptim.fragspace.APMap</text>
<text text-anchor="middle" x="1173" y="-291.5" font-family="Helvetica,sans-Serif" font-size="10.00">Finder.findAllMappings</text>
</a>
</g>
</g>
<!-- Node1&#45;&gt;Node2 -->
<g id="edge1" class="edge">
<title>Node1&#45;&gt;Node2</title>
<path fill="none" stroke="midnightblue" d="M1363.97,-180.7C1342.55,-207.44 1303.83,-250.86 1261,-275.5 1254.89,-279.02 1248.24,-282.04 1241.42,-284.63"/>
<polygon fill="midnightblue" stroke="midnightblue" points="1366.87,-182.67 1370.3,-172.65 1361.37,-178.34 1366.87,-182.67"/>
</g>
<!-- Node4 -->
<g id="node4" class="node">
<title>Node4</title>
<g id="a_node4"><a xlink:href="classdenoptim_1_1fragspace_1_1_fragment_space.html#af556efa5109b1a7edfe10bdfcfdfdd00" target="_top" xlink:title="Select a compatible capping group for the given APClass.">
<polygon fill="white" stroke="black" points="1100.5,-235.5 1100.5,-265.5 1245.5,-265.5 1245.5,-235.5 1100.5,-235.5"/>
<text text-anchor="start" x="1108.5" y="-253.5" font-family="Helvetica,sans-Serif" font-size="10.00">denoptim.fragspace.Fragment</text>
<text text-anchor="middle" x="1173" y="-242.5" font-family="Helvetica,sans-Serif" font-size="10.00">Space.getCappingFragment</text>
</a>
</g>
</g>
<!-- Node1&#45;&gt;Node4 -->
<g id="edge3" class="edge">
<title>Node1&#45;&gt;Node4</title>
<path fill="none" stroke="midnightblue" d="M1350.72,-178.01C1327,-193.09 1292.97,-213.19 1261,-226.5 1253.04,-229.81 1244.49,-232.81 1235.97,-235.47"/>
<polygon fill="midnightblue" stroke="midnightblue" points="1352.76,-180.86 1359.27,-172.5 1348.97,-174.97 1352.76,-180.86"/>
</g>
<!-- Node5 -->
<g id="node5" class="node">
<title>Node5</title>
<g id="a_node5"><a xlink:href="classdenoptim_1_1ga_1_1_e_a_utils.html#a45d4e9ec6a308aa73891efa1d501dd5e" target="_top" xlink:title="Perform fitness&#45;based, class&#45;compatible selection of parents that can do crossover operations.">
<polygon fill="white" stroke="black" points="686,-143 686,-162 852,-162 852,-143 686,-143"/>
<text text-anchor="middle" x="769" y="-150" font-family="Helvetica,sans-Serif" font-size="10.00">denoptim.ga.EAUtils.performFBCC</text>
</a>
</g>
</g>
<!-- Node1&#45;&gt;Node5 -->
<g id="edge4" class="edge">
<title>Node1&#45;&gt;Node5</title>
<path fill="none" stroke="midnightblue" d="M1286.6,-156.72C1167.54,-155.75 965.33,-154.1 852.45,-153.17"/>
<polygon fill="midnightblue" stroke="midnightblue" points="1286.77,-160.23 1296.79,-156.81 1286.82,-153.23 1286.77,-160.23"/>
</g>
<!-- Node7 -->
<g id="node7" class="node">
<title>Node7</title>
<g id="a_node7"><a xlink:href="classdenoptim_1_1ga_1_1_selection_helper.html#a276133ac3cc94b28a8dc93ef1cf41f1c" target="_top" xlink:title="Randomly select k individuals from the population.">
<polygon fill="white" stroke="black" points="1085,-0.5 1085,-30.5 1261,-30.5 1261,-0.5 1085,-0.5"/>
<text text-anchor="start" x="1093" y="-18.5" font-family="Helvetica,sans-Serif" font-size="10.00">denoptim.ga.SelectionHelper.perform</text>
<text text-anchor="middle" x="1173" y="-7.5" font-family="Helvetica,sans-Serif" font-size="10.00">RandomSelection</text>
</a>
</g>
</g>
<!-- Node1&#45;&gt;Node7 -->
<g id="edge6" class="edge">
<title>Node1&#45;&gt;Node7</title>
<path fill="none" stroke="midnightblue" d="M1363.97,-134.3C1342.55,-107.56 1303.83,-64.14 1261,-39.5 1255.02,-36.06 1248.53,-33.1 1241.88,-30.54"/>
<polygon fill="midnightblue" stroke="midnightblue" points="1361.37,-136.66 1370.3,-142.35 1366.87,-132.33 1361.37,-136.66"/>
</g>
<!-- Node16 -->
<g id="node16" class="node">
<title>Node16</title>
<g id="a_node16"><a xlink:href="classdenoptim_1_1ga_1_1_selection_helper.html#a555966cc6da7a4ef6fdd70293e9fd9e2" target="_top" xlink:title="Select p individuals at random.">
<polygon fill="white" stroke="black" points="1085,-49.5 1085,-79.5 1261,-79.5 1261,-49.5 1085,-49.5"/>
<text text-anchor="start" x="1093" y="-67.5" font-family="Helvetica,sans-Serif" font-size="10.00">denoptim.ga.SelectionHelper.perform</text>
<text text-anchor="middle" x="1173" y="-56.5" font-family="Helvetica,sans-Serif" font-size="10.00">TournamentSelection</text>
</a>
</g>
</g>
<!-- Node1&#45;&gt;Node16 -->
<g id="edge18" class="edge">
<title>Node1&#45;&gt;Node16</title>
<path fill="none" stroke="midnightblue" d="M1350.72,-136.99C1327,-121.91 1292.97,-101.81 1261,-88.5 1253.04,-85.19 1244.49,-82.19 1235.97,-79.53"/>
<polygon fill="midnightblue" stroke="midnightblue" points="1348.97,-140.03 1359.27,-142.5 1352.76,-134.14 1348.97,-140.03"/>
</g>
<!-- Node17 -->
<g id="node17" class="node">
<title>Node17</title>
<g id="a_node17"><a xlink:href="classdenoptim_1_1programs_1_1genetweeker_1_1_gene_ops_runner.html#ab0f92a94c4fb2334e7d3813e73fc4247" target="_top" xlink:title=" ">
<polygon fill="white" stroke="black" points="1093.5,-98.5 1093.5,-128.5 1252.5,-128.5 1252.5,-98.5 1093.5,-98.5"/>
<text text-anchor="start" x="1101.5" y="-116.5" font-family="Helvetica,sans-Serif" font-size="10.00">denoptim.programs.genetweeker.</text>
<text text-anchor="middle" x="1173" y="-105.5" font-family="Helvetica,sans-Serif" font-size="10.00">GeneOpsRunner.runXOver</text>
</a>
</g>
</g>
<!-- Node1&#45;&gt;Node17 -->
<g id="edge20" class="edge">
<title>Node1&#45;&gt;Node17</title>
<path fill="none" stroke="midnightblue" d="M1300.83,-140.39C1282.37,-136.48 1262.88,-132.35 1244.86,-128.53"/>
<polygon fill="midnightblue" stroke="midnightblue" points="1300.16,-143.83 1310.67,-142.48 1301.61,-136.98 1300.16,-143.83"/>
</g>
<!-- Node19 -->
<g id="node19" class="node">
<title>Node19</title>
<g id="a_node19"><a xlink:href="classdenoptim_1_1ga_1_1_e_a_utils.html#ac8c9339d352074aafb4a8e3cc206b0d6" target="_top" xlink:title="Chose randomly a vertex that is neither scaffold or capping group.">
<polygon fill="white" stroke="black" points="1106.5,-186.5 1106.5,-216.5 1239.5,-216.5 1239.5,-186.5 1106.5,-186.5"/>
<text text-anchor="start" x="1114.5" y="-204.5" font-family="Helvetica,sans-Serif" font-size="10.00">denoptim.ga.EAUtils.select</text>
<text text-anchor="middle" x="1173" y="-193.5" font-family="Helvetica,sans-Serif" font-size="10.00">NonScaffoldNonCapVertex</text>
</a>
</g>
</g>
<!-- Node1&#45;&gt;Node19 -->
<g id="edge22" class="edge">
<title>Node1&#45;&gt;Node19</title>
<path fill="none" stroke="midnightblue" d="M1300.83,-174.61C1280.56,-178.9 1259.06,-183.46 1239.62,-187.58"/>
<polygon fill="midnightblue" stroke="midnightblue" points="1301.61,-178.02 1310.67,-172.52 1300.16,-171.17 1301.61,-178.02"/>
</g>
<!-- Node3 -->
<g id="node3" class="node">
<title>Node3</title>
<g id="a_node3"><a xlink:href="classdenoptim_1_1fragspace_1_1_a_p_map_finder.html#ada1b2c2155faeefced1d9a64f82a6668" target="_top" xlink:title="Constructor that launches the search for a mapping between the AttachmentPoints on the first vertex t...">
<polygon fill="white" stroke="black" points="900.5,-284.5 900.5,-314.5 1036.5,-314.5 1036.5,-284.5 900.5,-284.5"/>
<text text-anchor="start" x="908.5" y="-302.5" font-family="Helvetica,sans-Serif" font-size="10.00">denoptim.fragspace.APMap</text>
<text text-anchor="middle" x="968.5" y="-291.5" font-family="Helvetica,sans-Serif" font-size="10.00">Finder.APMapFinder</text>
</a>
</g>
</g>
<!-- Node2&#45;&gt;Node3 -->
<g id="edge2" class="edge">
<title>Node2&#45;&gt;Node3</title>
<path fill="none" stroke="midnightblue" d="M1094.7,-299.5C1075.64,-299.5 1055.36,-299.5 1036.81,-299.5"/>
<polygon fill="midnightblue" stroke="midnightblue" points="1094.85,-303 1104.85,-299.5 1094.85,-296 1094.85,-303"/>
</g>
<!-- Node6 -->
<g id="node6" class="node">
<title>Node6</title>
<g id="a_node6"><a xlink:href="classdenoptim_1_1ga_1_1_e_a_utils.html#a0b958439d79fae30f14530213ad22e3a" target="_top" xlink:title="Generates up to a pair of new offspring by performing a crossover operation.">
<polygon fill="white" stroke="black" points="521.5,-137.5 521.5,-167.5 648.5,-167.5 648.5,-137.5 521.5,-137.5"/>
<text text-anchor="start" x="529.5" y="-155.5" font-family="Helvetica,sans-Serif" font-size="10.00">denoptim.ga.EAUtils.build</text>
<text text-anchor="middle" x="585" y="-144.5" font-family="Helvetica,sans-Serif" font-size="10.00">CandidatesByXOver</text>
</a>
</g>
</g>
<!-- Node5&#45;&gt;Node6 -->
<g id="edge5" class="edge">
<title>Node5&#45;&gt;Node6</title>
<path fill="none" stroke="midnightblue" d="M675.56,-152.5C666.48,-152.5 657.43,-152.5 648.76,-152.5"/>
<polygon fill="midnightblue" stroke="midnightblue" points="675.79,-156 685.79,-152.5 675.79,-149 675.79,-156"/>
</g>
<!-- Node8 -->
<g id="node8" class="node">
<title>Node8</title>
<g id="a_node8"><a xlink:href="classdenoptim_1_1ga_1_1_e_a_utils.html#a17505cbf52d9203a1af793f07bcf27f9" target="_top" xlink:title="Selects a number of members from the given population.">
<polygon fill="white" stroke="black" points="902,-49.5 902,-79.5 1035,-79.5 1035,-49.5 902,-49.5"/>
<text text-anchor="start" x="910" y="-67.5" font-family="Helvetica,sans-Serif" font-size="10.00">denoptim.ga.EAUtils.select</text>
<text text-anchor="middle" x="968.5" y="-56.5" font-family="Helvetica,sans-Serif" font-size="10.00">BasedOnFitness</text>
</a>
</g>
</g>
<!-- Node7&#45;&gt;Node8 -->
<g id="edge7" class="edge">
<title>Node7&#45;&gt;Node8</title>
<path fill="none" stroke="midnightblue" d="M1100.08,-32.9C1077.67,-38.32 1053.18,-44.25 1031.52,-49.49"/>
<polygon fill="midnightblue" stroke="midnightblue" points="1100.97,-36.29 1109.87,-30.53 1099.32,-29.48 1100.97,-36.29"/>
</g>
<!-- Node8&#45;&gt;Node5 -->
<g id="edge17" class="edge">
<title>Node8&#45;&gt;Node5</title>
<path fill="none" stroke="midnightblue" d="M896.85,-83.67C893.8,-85.17 890.83,-86.78 888,-88.5 868.39,-100.42 871.46,-113.34 852,-125.5 839.8,-133.13 825.22,-138.83 811.76,-142.98"/>
<polygon fill="midnightblue" stroke="midnightblue" points="898.51,-86.77 906.22,-79.5 895.66,-80.37 898.51,-86.77"/>
</g>
<!-- Node8&#45;&gt;Node6 -->
<g id="edge16" class="edge">
<title>Node8&#45;&gt;Node6</title>
<path fill="none" stroke="midnightblue" d="M892.54,-81.79C821.34,-98.22 715.5,-122.63 648.66,-138.05"/>
<polygon fill="midnightblue" stroke="midnightblue" points="893.39,-85.19 902.35,-79.53 891.82,-78.37 893.39,-85.19"/>
</g>
<!-- Node9 -->
<g id="node9" class="node">
<title>Node9</title>
<g id="a_node9"><a xlink:href="classdenoptim_1_1ga_1_1_e_a_utils.html#a8122818f58919fce84dce75e7506025a" target="_top" xlink:title=" ">
<polygon fill="white" stroke="black" points="705.5,-49.5 705.5,-79.5 832.5,-79.5 832.5,-49.5 705.5,-49.5"/>
<text text-anchor="start" x="713.5" y="-67.5" font-family="Helvetica,sans-Serif" font-size="10.00">denoptim.ga.EAUtils.build</text>
<text text-anchor="middle" x="769" y="-56.5" font-family="Helvetica,sans-Serif" font-size="10.00">CandidateByMutation</text>
</a>
</g>
</g>
<!-- Node8&#45;&gt;Node9 -->
<g id="edge8" class="edge">
<title>Node8&#45;&gt;Node9</title>
<path fill="none" stroke="midnightblue" d="M891.69,-64.5C872.23,-64.5 851.52,-64.5 832.8,-64.5"/>
<polygon fill="midnightblue" stroke="midnightblue" points="891.74,-68 901.74,-64.5 891.74,-61 891.74,-68"/>
</g>
<!-- Node10 -->
<g id="node10" class="node">
<title>Node10</title>
<g id="a_node10"><a xlink:href="classdenoptim_1_1ga_1_1_evolutionary_algorithm.html#a0c2e353b243250b4959a3f86608f1020" target="_top" xlink:title="Generates one offspring according to the method where crossover and mutation are decoupled,...">
<polygon fill="white" stroke="black" points="520,-66.5 520,-96.5 650,-96.5 650,-66.5 520,-66.5"/>
<text text-anchor="start" x="528" y="-84.5" font-family="Helvetica,sans-Serif" font-size="10.00">denoptim.ga.Evolutionary</text>
<text text-anchor="middle" x="585" y="-73.5" font-family="Helvetica,sans-Serif" font-size="10.00">Algorithm.makeOffspringA</text>
</a>
</g>
</g>
<!-- Node9&#45;&gt;Node10 -->
<g id="edge9" class="edge">
<title>Node9&#45;&gt;Node10</title>
<path fill="none" stroke="midnightblue" d="M695.21,-71.3C680.36,-72.69 664.83,-74.14 650.3,-75.49"/>
<polygon fill="midnightblue" stroke="midnightblue" points="695.73,-74.77 705.37,-70.35 695.08,-67.8 695.73,-74.77"/>
</g>
<!-- Node15 -->
<g id="node15" class="node">
<title>Node15</title>
<g id="a_node15"><a xlink:href="classdenoptim_1_1ga_1_1_evolutionary_algorithm.html#ae7a90a911b109ed47b3acf54193acc35" target="_top" xlink:title="Generates one offspring according to the method where crossover and mutation are coupled,...">
<polygon fill="white" stroke="black" points="520,-17.5 520,-47.5 650,-47.5 650,-17.5 520,-17.5"/>
<text text-anchor="start" x="528" y="-35.5" font-family="Helvetica,sans-Serif" font-size="10.00">denoptim.ga.Evolutionary</text>
<text text-anchor="middle" x="585" y="-24.5" font-family="Helvetica,sans-Serif" font-size="10.00">Algorithm.makeOffspringB</text>
</a>
</g>
</g>
<!-- Node9&#45;&gt;Node15 -->
<g id="edge14" class="edge">
<title>Node9&#45;&gt;Node15</title>
<path fill="none" stroke="midnightblue" d="M695.21,-51.7C680.36,-49.09 664.83,-46.36 650.3,-43.8"/>
<polygon fill="midnightblue" stroke="midnightblue" points="694.91,-55.2 705.37,-53.49 696.12,-48.31 694.91,-55.2"/>
</g>
<!-- Node11 -->
<g id="node11" class="node">
<title>Node11</title>
<g id="a_node11"><a xlink:href="classdenoptim_1_1ga_1_1_evolutionary_algorithm.html#a596b2f5f0b097c5b67a6e5163bd6fe66" target="_top" xlink:title="Generates a given number of new candidate items and adds them to the current population.">
<polygon fill="white" stroke="black" points="350,-41.5 350,-71.5 484,-71.5 484,-41.5 350,-41.5"/>
<text text-anchor="start" x="358" y="-59.5" font-family="Helvetica,sans-Serif" font-size="10.00">denoptim.ga.Evolutionary</text>
<text text-anchor="middle" x="417" y="-48.5" font-family="Helvetica,sans-Serif" font-size="10.00">Algorithm.evolvePopulation</text>
</a>
</g>
</g>
<!-- Node10&#45;&gt;Node11 -->
<g id="edge10" class="edge">
<title>Node10&#45;&gt;Node11</title>
<path fill="none" stroke="midnightblue" d="M509.86,-70.33C501.31,-69.05 492.64,-67.74 484.2,-66.47"/>
<polygon fill="midnightblue" stroke="midnightblue" points="509.41,-73.81 519.82,-71.83 510.45,-66.88 509.41,-73.81"/>
</g>
<!-- Node12 -->
<g id="node12" class="node">
<title>Node12</title>
<g id="a_node12"><a xlink:href="classdenoptim_1_1ga_1_1_evolutionary_algorithm.html#a6bfc2fa59b199da6259b5b6bad3d6de7" target="_top" xlink:title=" ">
<polygon fill="white" stroke="black" points="190,-41.5 190,-71.5 314,-71.5 314,-41.5 190,-41.5"/>
<text text-anchor="start" x="198" y="-59.5" font-family="Helvetica,sans-Serif" font-size="10.00">denoptim.ga.Evolutionary</text>
<text text-anchor="middle" x="252" y="-48.5" font-family="Helvetica,sans-Serif" font-size="10.00">Algorithm.run</text>
</a>
</g>
</g>
<!-- Node11&#45;&gt;Node12 -->
<g id="edge11" class="edge">
<title>Node11&#45;&gt;Node12</title>
<path fill="none" stroke="midnightblue" d="M339.45,-56.5C331,-56.5 322.48,-56.5 314.25,-56.5"/>
<polygon fill="midnightblue" stroke="midnightblue" points="339.7,-60 349.7,-56.5 339.7,-53 339.7,-60"/>
</g>
<!-- Node13 -->
<g id="node13" class="node">
<title>Node13</title>
<g id="a_node13"><a xlink:href="classdenoptim_1_1ga_1_1_evolutionary_algorithm.html#a0f2063b722b7291daf83d62acaa683d3" target="_top" xlink:title=" ">
<polygon fill="white" stroke="black" points="0,-66.5 0,-96.5 154,-96.5 154,-66.5 0,-66.5"/>
<text text-anchor="start" x="8" y="-84.5" font-family="Helvetica,sans-Serif" font-size="10.00">denoptim.ga.Evolutionary</text>
<text text-anchor="middle" x="77" y="-73.5" font-family="Helvetica,sans-Serif" font-size="10.00">Algorithm.EvolutionaryAlgorithm</text>
</a>
</g>
</g>
<!-- Node12&#45;&gt;Node13 -->
<g id="edge12" class="edge">
<title>Node12&#45;&gt;Node13</title>
<path fill="none" stroke="midnightblue" d="M179.44,-66.84C171.09,-68.05 162.54,-69.28 154.12,-70.5"/>
<polygon fill="midnightblue" stroke="midnightblue" points="180.12,-70.28 189.52,-65.38 179.12,-63.35 180.12,-70.28"/>
</g>
<!-- Node14 -->
<g id="node14" class="node">
<title>Node14</title>
<g id="a_node14"><a xlink:href="classdenoptim_1_1programs_1_1denovo_1_1_g_a_runner.html#a7cafd6d78727b89dce3e2c8d06f0dd7c" target="_top" xlink:title=" ">
<polygon fill="white" stroke="black" points="9.5,-17.5 9.5,-47.5 144.5,-47.5 144.5,-17.5 9.5,-17.5"/>
<text text-anchor="start" x="17.5" y="-35.5" font-family="Helvetica,sans-Serif" font-size="10.00">denoptim.programs.denovo.</text>
<text text-anchor="middle" x="77" y="-24.5" font-family="Helvetica,sans-Serif" font-size="10.00">GARunner.runProgram</text>
</a>
</g>
</g>
<!-- Node12&#45;&gt;Node14 -->
<g id="edge13" class="edge">
<title>Node12&#45;&gt;Node14</title>
<path fill="none" stroke="midnightblue" d="M179.48,-46.58C167.92,-44.97 156,-43.32 144.57,-41.73"/>
<polygon fill="midnightblue" stroke="midnightblue" points="179.13,-50.06 189.52,-47.97 180.1,-43.13 179.13,-50.06"/>
</g>
<!-- Node15&#45;&gt;Node11 -->
<g id="edge15" class="edge">
<title>Node15&#45;&gt;Node11</title>
<path fill="none" stroke="midnightblue" d="M509.86,-43.22C501.31,-44.45 492.64,-45.71 484.2,-46.93"/>
<polygon fill="midnightblue" stroke="midnightblue" points="510.42,-46.67 519.82,-41.78 509.42,-39.75 510.42,-46.67"/>
</g>
<!-- Node16&#45;&gt;Node8 -->
<g id="edge19" class="edge">
<title>Node16&#45;&gt;Node8</title>
<path fill="none" stroke="midnightblue" d="M1074.71,-64.5C1061.27,-64.5 1047.74,-64.5 1035.07,-64.5"/>
<polygon fill="midnightblue" stroke="midnightblue" points="1074.95,-68 1084.95,-64.5 1074.95,-61 1074.95,-68"/>
</g>
<!-- Node18 -->
<g id="node18" class="node">
<title>Node18</title>
<g id="a_node18"><a xlink:href="classdenoptim_1_1programs_1_1genetweeker_1_1_gene_ops_runner.html#a3c2407eb1204a7b25600d3d347d98447" target="_top" xlink:title=" ">
<polygon fill="white" stroke="black" points="889,-98.5 889,-128.5 1048,-128.5 1048,-98.5 889,-98.5"/>
<text text-anchor="start" x="897" y="-116.5" font-family="Helvetica,sans-Serif" font-size="10.00">denoptim.programs.genetweeker.</text>
<text text-anchor="middle" x="968.5" y="-105.5" font-family="Helvetica,sans-Serif" font-size="10.00">GeneOpsRunner.runProgram</text>
</a>
</g>
</g>
<!-- Node17&#45;&gt;Node18 -->
<g id="edge21" class="edge">
<title>Node17&#45;&gt;Node18</title>
<path fill="none" stroke="midnightblue" d="M1083.2,-113.5C1071.49,-113.5 1059.56,-113.5 1048.04,-113.5"/>
<polygon fill="midnightblue" stroke="midnightblue" points="1083.42,-117 1093.42,-113.5 1083.42,-110 1083.42,-117"/>
</g>
<!-- Node19&#45;&gt;Node6 -->
<g id="edge23" class="edge">
<title>Node19&#45;&gt;Node6</title>
<path fill="none" stroke="midnightblue" d="M1100.19,-218.61C1083.48,-221.89 1065.7,-224.82 1049,-226.5 977.8,-233.66 959.04,-235.08 888,-226.5 795.82,-215.37 691.18,-185.79 632.43,-167.58"/>
<polygon fill="midnightblue" stroke="midnightblue" points="1101.32,-221.95 1110.43,-216.53 1099.93,-215.09 1101.32,-221.95"/>
</g>
<!-- Node20 -->
<g id="node20" class="node">
<title>Node20</title>
<g id="a_node20"><a xlink:href="classdenoptim_1_1ga_1_1_e_a_utils_test.html#a60b1ca7ac8b9d3775e72bd7cea418f1a" target="_top" xlink:title=" ">
<polygon fill="white" stroke="black" points="888,-186.5 888,-216.5 1049,-216.5 1049,-186.5 888,-186.5"/>
<text text-anchor="start" x="896" y="-204.5" font-family="Helvetica,sans-Serif" font-size="10.00">denoptim.ga.EAUtilsTest.test</text>
<text text-anchor="middle" x="968.5" y="-193.5" font-family="Helvetica,sans-Serif" font-size="10.00">SelectNonScaffoldNonCapVertex</text>
</a>
</g>
</g>
<!-- Node19&#45;&gt;Node20 -->
<g id="edge24" class="edge">
<title>Node19&#45;&gt;Node20</title>
<path fill="none" stroke="midnightblue" d="M1095.82,-201.5C1080.54,-201.5 1064.45,-201.5 1049.05,-201.5"/>
<polygon fill="midnightblue" stroke="midnightblue" points="1096.25,-205 1106.25,-201.5 1096.25,-198 1096.25,-205"/>
</g>
</g>
</svg>
        <g id="navigator" transform="translate(0 0)" fill="#404254">
                <rect fill="#f2f5e9" fill-opacity="0.5" stroke="#606060" stroke-width=".5" x="0" y="0" width="60" height="60"/>
                <use id="zoomplus" xlink:href="#zoomPlus" x="17" y="9" onmousedown="handleZoom(evt,'in')"/>
                <use id="zoomminus" xlink:href="#zoomMin" x="42" y="9" onmousedown="handleZoom(evt,'out')"/>
                <use id="reset" xlink:href="#resetDef" x="30" y="36" onmousedown="handleReset()"/>
                <g id="arrowUp" xlink:href="#dirArrow" transform="translate(30 24)" onmousedown="handlePan(0,-1)">
                  <use xlink:href="#rim" fill="#404040">
                        <set attributeName="fill" to="#808080" begin="arrowUp.mouseover" end="arrowUp.mouseout"/>
                  </use>
                  <path fill="none" stroke="white" stroke-width="1.5" d="M0,-3.0v7 M-2.5,-0.5L0,-3.0L2.5,-0.5"/>
                </g>
                <g id="arrowRight" xlink:href="#dirArrow" transform="rotate(90) translate(36 -43)" onmousedown="handlePan(1,0)">
                  <use xlink:href="#rim" fill="#404040">
                        <set attributeName="fill" to="#808080" begin="arrowRight.mouseover" end="arrowRight.mouseout"/>
                  </use>
                  <path fill="none" stroke="white" stroke-width="1.5" d="M0,-3.0v7 M-2.5,-0.5L0,-3.0L2.5,-0.5"/>
                </g>
                <g id="arrowDown" xlink:href="#dirArrow" transform="rotate(180) translate(-30 -48)" onmousedown="handlePan(0,1)">
                  <use xlink:href="#rim" fill="#404040">
                        <set attributeName="fill" to="#808080" begin="arrowDown.mouseover" end="arrowDown.mouseout"/>
                  </use>
                  <path fill="none" stroke="white" stroke-width="1.5" d="M0,-3.0v7 M-2.5,-0.5L0,-3.0L2.5,-0.5"/>
                </g>
                <g id="arrowLeft" xlink:href="#dirArrow" transform="rotate(270) translate(-36 17)" onmousedown="handlePan(-1,0)">
                  <use xlink:href="#rim" fill="#404040">
                        <set attributeName="fill" to="#808080" begin="arrowLeft.mouseover" end="arrowLeft.mouseout"/>
                  </use>
                  <path fill="none" stroke="white" stroke-width="1.5" d="M0,-3.0v7 M-2.5,-0.5L0,-3.0L2.5,-0.5"/>
                </g>
        </g>
        <svg viewBox="0 0 15 15" width="100%" height="30px" preserveAspectRatio="xMaxYMin meet">
         <g id="arrow_out" transform="scale(0.3 0.3)">
          <a xlink:href="classdenoptim_1_1utils_1_1_randomizer_a1ac7cea6bdf732a6dd69f1a83e591ed5_icgraph_org.svg" target="_base">
           <rect id="button" ry="5" rx="5" y="6" x="6" height="38" width="38"
                fill="#f2f5e9" fill-opacity="0.5" stroke="#606060" stroke-width="1.0"/>
           <path id="arrow"
             d="M 11.500037,31.436501 C 11.940474,20.09759 22.043105,11.32322 32.158766,21.979434 L 37.068811,17.246167 C 37.068811,17.246167 37.088388,32 37.088388,32 L 22.160133,31.978069 C 22.160133,31.978069 26.997745,27.140456 26.997745,27.140456 C 18.528582,18.264221 13.291696,25.230495 11.500037,31.436501 z"
             style="fill:#404040;"/>
          </a>
         </g>
        </svg>
</svg>
