<?xml version="1.0" encoding="UTF-8" standalone="no"?>
<!DOCTYPE svg PUBLIC "-//W3C//DTD SVG 1.1//EN"
 "http://www.w3.org/Graphics/SVG/1.1/DTD/svg11.dtd">
<!-- Generated by graphviz version 3.0.0 (20221109.1736)
 -->
<!-- Title: denoptim.graph.AttachmentPoint Pages: 1 -->
<svg width="1323pt" height="1066pt"
 viewBox="0.00 0.00 1323.00 1065.51" xmlns="http://www.w3.org/2000/svg" xmlns:xlink="http://www.w3.org/1999/xlink">
<g id="graph0" class="graph" transform="scale(1 1) rotate(0) translate(4 1061.51)">
<title>denoptim.graph.AttachmentPoint</title>
<polygon fill="white" stroke="transparent" points="-4,4 -4,-1061.51 1319,-1061.51 1319,4 -4,4"/>
<!-- Node1 -->
<g id="node1" class="node">
<title>Node1</title>
<g id="a_node1"><a xlink:title="An attachment point (AP) is a possibility to attach a Vertex onto the vertex holding the AP (i....">
<polygon fill="#bfbfbf" stroke="black" points="1180,-806 1180,-836 1315,-836 1315,-806 1180,-806"/>
<text text-anchor="start" x="1188" y="-824" font-family="Helvetica,sans-Serif" font-size="10.00">denoptim.graph.Attachment</text>
<text text-anchor="middle" x="1247.5" y="-813" font-family="Helvetica,sans-Serif" font-size="10.00">Point</text>
</a>
</g>
</g>
<!-- Node2 -->
<g id="node2" class="node">
<title>Node2</title>
<g id="a_node2"><a xlink:title=" ">
<polygon fill="white" stroke="black" points="143.5,-670.5 143.5,-689.5 202.5,-689.5 202.5,-670.5 143.5,-670.5"/>
<text text-anchor="middle" x="173" y="-677.5" font-family="Helvetica,sans-Serif" font-size="10.00">Cloneable</text>
</a>
</g>
</g>
<!-- Node2&#45;&gt;Node1 -->
<g id="edge1" class="edge">
<title>Node2&#45;&gt;Node1</title>
<path fill="none" stroke="midnightblue" d="M212.88,-687.15C231.08,-690.28 253.1,-693.74 273,-696 639.19,-737.56 741.16,-680.82 1099,-769 1137.75,-778.55 1180.64,-794.28 1210.13,-805.94"/>
<polygon fill="midnightblue" stroke="midnightblue" points="213.38,-683.69 202.92,-685.41 212.17,-690.58 213.38,-683.69"/>
</g>
<!-- Node4 -->
<g id="node4" class="node">
<title>Node4</title>
<g id="a_node4"><a xlink:href="classdenoptim_1_1graph_1_1_a_p_class.html" target="_top" xlink:title=" ">
<polygon fill="white" stroke="black" points="430.5,-822.5 430.5,-841.5 553.5,-841.5 553.5,-822.5 430.5,-822.5"/>
<text text-anchor="middle" x="492" y="-829.5" font-family="Helvetica,sans-Serif" font-size="10.00">denoptim.graph.APClass</text>
</a>
</g>
</g>
<!-- Node2&#45;&gt;Node4 -->
<g id="edge4" class="edge">
<title>Node2&#45;&gt;Node4</title>
<path fill="none" stroke="midnightblue" d="M193.6,-696.05C212.92,-711.33 243.73,-734.28 273,-750 323.82,-777.3 341.25,-773.63 394,-797 402.18,-800.62 403.73,-802.59 412,-806 426.95,-812.16 443.94,-817.91 458.33,-822.42"/>
<polygon fill="midnightblue" stroke="midnightblue" points="195.57,-693.14 185.57,-689.62 191.19,-698.61 195.57,-693.14"/>
</g>
<!-- Node11 -->
<g id="node11" class="node">
<title>Node11</title>
<g id="a_node11"><a xlink:href="classdenoptim_1_1graph_1_1_vertex.html" target="_top" xlink:title="A vertex is a data structure that has an identity and holds a list of AttachmentPoints.">
<polygon fill="white" stroke="black" points="435.5,-544.5 435.5,-563.5 548.5,-563.5 548.5,-544.5 435.5,-544.5"/>
<text text-anchor="middle" x="492" y="-551.5" font-family="Helvetica,sans-Serif" font-size="10.00">denoptim.graph.Vertex</text>
</a>
</g>
</g>
<!-- Node2&#45;&gt;Node11 -->
<g id="edge12" class="edge">
<title>Node2&#45;&gt;Node11</title>
<path fill="none" stroke="midnightblue" d="M192.56,-663.78C211.52,-648.03 242.45,-624.57 273,-611 323.45,-588.59 340.64,-597.13 394,-583 416.6,-577.01 441.9,-569.42 460.99,-563.51"/>
<polygon fill="midnightblue" stroke="midnightblue" points="190.1,-661.28 184.73,-670.41 194.62,-666.62 190.1,-661.28"/>
</g>
<!-- Node12 -->
<g id="node12" class="node">
<title>Node12</title>
<g id="a_node12"><a xlink:href="classdenoptim_1_1graph_1_1_d_graph.html" target="_top" xlink:title="Container for the list of vertices and the edges that connect them.">
<polygon fill="white" stroke="black" points="976,-309.5 976,-328.5 1094,-328.5 1094,-309.5 976,-309.5"/>
<text text-anchor="middle" x="1035" y="-316.5" font-family="Helvetica,sans-Serif" font-size="10.00">denoptim.graph.DGraph</text>
</a>
</g>
</g>
<!-- Node2&#45;&gt;Node12 -->
<g id="edge14" class="edge">
<title>Node2&#45;&gt;Node12</title>
<path fill="none" stroke="midnightblue" d="M200.82,-665.75C220.31,-656.05 247.6,-643.79 273,-637 419.92,-597.72 846.96,-669.01 953,-560 985.81,-526.27 944.21,-387.69 971,-349 977.48,-339.64 987.7,-333.11 998.03,-328.59"/>
<polygon fill="midnightblue" stroke="midnightblue" points="198.99,-662.75 191.66,-670.41 202.17,-668.99 198.99,-662.75"/>
</g>
<!-- Node18 -->
<g id="node18" class="node">
<title>Node18</title>
<g id="a_node18"><a xlink:href="classdenoptim_1_1graph_1_1_candidate.html" target="_top" xlink:title="A candidate is the combination of a denoptim graph with molecular representation and may include also...">
<polygon fill="white" stroke="black" points="1183.5,-332.5 1183.5,-351.5 1311.5,-351.5 1311.5,-332.5 1183.5,-332.5"/>
<text text-anchor="middle" x="1247.5" y="-339.5" font-family="Helvetica,sans-Serif" font-size="10.00">denoptim.graph.Candidate</text>
</a>
</g>
</g>
<!-- Node2&#45;&gt;Node18 -->
<g id="edge22" class="edge">
<title>Node2&#45;&gt;Node18</title>
<path fill="none" stroke="midnightblue" d="M212.86,-672.86C231.05,-669.84 253.07,-666.64 273,-665 430.26,-652.04 470.21,-660 628,-660 628,-660 628,-660 1036,-660 1187.95,-660 1236.63,-404.43 1245.08,-351.52"/>
<polygon fill="midnightblue" stroke="midnightblue" points="212.17,-669.43 202.9,-674.56 213.35,-676.33 212.17,-669.43"/>
</g>
<!-- Node35 -->
<g id="node35" class="node">
<title>Node35</title>
<g id="a_node35"><a xlink:href="classdenoptim_1_1graph_1_1_attachment_point.html" target="_top" xlink:title="An attachment point (AP) is a possibility to attach a Vertex onto the vertex holding the AP (i....">
<polygon fill="white" stroke="black" points="708,-850 708,-880 843,-880 843,-850 708,-850"/>
<text text-anchor="start" x="716" y="-868" font-family="Helvetica,sans-Serif" font-size="10.00">denoptim.graph.Attachment</text>
<text text-anchor="middle" x="775.5" y="-857" font-family="Helvetica,sans-Serif" font-size="10.00">Point</text>
</a>
</g>
</g>
<!-- Node2&#45;&gt;Node35 -->
<g id="edge43" class="edge">
<title>Node2&#45;&gt;Node35</title>
<path fill="none" stroke="midnightblue" d="M202.16,-694.17C221.67,-703.58 248.47,-715.69 273,-724 325.38,-741.75 344.97,-727.42 394,-753 403.49,-757.95 402.57,-763.94 412,-769 418.82,-772.66 615.71,-823.9 716.4,-849.98"/>
<polygon fill="midnightblue" stroke="midnightblue" points="203.45,-690.91 192.93,-689.67 200.38,-697.2 203.45,-690.91"/>
</g>
<!-- Node3 -->
<g id="node3" class="node">
<title>Node3</title>
<g id="a_node3"><a xlink:title=" ">
<polygon fill="white" stroke="black" points="413,-740.5 413,-759.5 571,-759.5 571,-740.5 413,-740.5"/>
<text text-anchor="middle" x="492" y="-747.5" font-family="Helvetica,sans-Serif" font-size="10.00">Comparable&lt; AttachmentPoint &gt;</text>
</a>
</g>
</g>
<!-- Node3&#45;&gt;Node1 -->
<g id="edge2" class="edge">
<title>Node3&#45;&gt;Node1</title>
<path fill="none" stroke="midnightblue" d="M564.66,-739.31C573.18,-738.36 581.78,-737.55 590,-737 624.59,-734.69 633.42,-734.5 668,-737 854.5,-750.47 1072.21,-788.06 1179.6,-808.08"/>
<polygon fill="midnightblue" stroke="midnightblue" points="564.23,-735.83 554.71,-740.48 565.05,-742.78 564.23,-735.83"/>
</g>
<!-- Node3&#45;&gt;Node35 -->
<g id="edge44" class="edge">
<title>Node3&#45;&gt;Node35</title>
<path fill="none" stroke="midnightblue" d="M556.74,-761.65C590.65,-769.1 632.56,-780.35 668,-796 700.65,-810.42 734.62,-834.22 755.17,-849.76"/>
<polygon fill="midnightblue" stroke="midnightblue" points="557.45,-758.22 546.94,-759.55 555.98,-765.06 557.45,-758.22"/>
</g>
<!-- Node4&#45;&gt;Node1 -->
<g id="edge3" class="edge">
<title>Node4&#45;&gt;Node1</title>
<path fill="none" stroke="#9a32cd" stroke-dasharray="5,2" d="M563.83,-830.97C708.92,-828.85 1038.16,-824.04 1179.74,-821.97"/>
<polygon fill="#9a32cd" stroke="#9a32cd" points="563.65,-827.47 553.71,-831.11 563.76,-834.47 563.65,-827.47"/>
<text text-anchor="middle" x="918" y="-830" font-family="Helvetica,sans-Serif" font-size="10.00"> apClass</text>
</g>
<!-- Node4&#45;&gt;Node35 -->
<g id="edge45" class="edge">
<title>Node4&#45;&gt;Node35</title>
<path fill="none" stroke="#9a32cd" stroke-dasharray="5,2" d="M563.83,-840.3C608.04,-845.49 664.59,-852.12 707.97,-857.2"/>
<polygon fill="#9a32cd" stroke="#9a32cd" points="564.07,-836.81 553.73,-839.12 563.26,-843.76 564.07,-836.81"/>
<text text-anchor="middle" x="629" y="-856" font-family="Helvetica,sans-Serif" font-size="10.00"> apClass</text>
</g>
<!-- Node5 -->
<g id="node5" class="node">
<title>Node5</title>
<g id="a_node5"><a xlink:title=" ">
<polygon fill="white" stroke="black" points="111.5,-859.5 111.5,-878.5 234.5,-878.5 234.5,-859.5 111.5,-859.5"/>
<text text-anchor="middle" x="173" y="-866.5" font-family="Helvetica,sans-Serif" font-size="10.00">Comparable&lt; APClass &gt;</text>
</a>
</g>
</g>
<!-- Node5&#45;&gt;Node4 -->
<g id="edge5" class="edge">
<title>Node5&#45;&gt;Node4</title>
<path fill="none" stroke="midnightblue" d="M245.1,-866.95C288.33,-865 344.56,-861.25 394,-854 414.33,-851.02 436.72,-846.06 454.86,-841.6"/>
<polygon fill="midnightblue" stroke="midnightblue" points="244.81,-863.45 234.97,-867.38 245.11,-870.45 244.81,-863.45"/>
</g>
<!-- Node6 -->
<g id="node6" class="node">
<title>Node6</title>
<g id="a_node6"><a xlink:title=" ">
<polygon fill="white" stroke="black" points="95.5,-821.5 95.5,-840.5 250.5,-840.5 250.5,-821.5 95.5,-821.5"/>
<text text-anchor="middle" x="173" y="-828.5" font-family="Helvetica,sans-Serif" font-size="10.00">Set&lt; denoptim.graph.APClass &gt;</text>
</a>
</g>
</g>
<!-- Node6&#45;&gt;Node4 -->
<g id="edge6" class="edge">
<title>Node6&#45;&gt;Node4</title>
<path fill="none" stroke="#9a32cd" stroke-dasharray="5,2" d="M260.95,-831.27C314.69,-831.44 382.33,-831.66 430.32,-831.81"/>
<polygon fill="#9a32cd" stroke="#9a32cd" points="260.75,-827.77 250.74,-831.24 260.73,-834.77 260.75,-827.77"/>
<text text-anchor="middle" x="333.5" y="-846" font-family="Helvetica,sans-Serif" font-size="10.00"> RCAAPCLASSSET</text>
<text text-anchor="middle" x="333.5" y="-835" font-family="Helvetica,sans-Serif" font-size="10.00">uniqueAPClasses</text>
</g>
<!-- Node7 -->
<g id="node7" class="node">
<title>Node7</title>
<g id="a_node7"><a xlink:title=" ">
<polygon fill="white" stroke="black" points="105.5,-772 105.5,-802 240.5,-802 240.5,-772 105.5,-772"/>
<text text-anchor="start" x="113.5" y="-790" font-family="Helvetica,sans-Serif" font-size="10.00">HashMap&lt; denoptim.graph.</text>
<text text-anchor="middle" x="173" y="-779" font-family="Helvetica,sans-Serif" font-size="10.00">APClass, String &gt;</text>
</a>
</g>
</g>
<!-- Node7&#45;&gt;Node4 -->
<g id="edge7" class="edge">
<title>Node7&#45;&gt;Node4</title>
<path fill="none" stroke="#9a32cd" stroke-dasharray="5,2" d="M250.9,-797.14C293.16,-802.8 346.5,-810.09 394,-817 405.8,-818.72 418.41,-820.62 430.49,-822.47"/>
<polygon fill="#9a32cd" stroke="#9a32cd" points="251.33,-793.67 240.96,-795.81 250.41,-800.61 251.33,-793.67"/>
<text text-anchor="middle" x="333.5" y="-820" font-family="Helvetica,sans-Serif" font-size="10.00"> RCALABELPERAPCLASS</text>
</g>
<!-- Node8 -->
<g id="node8" class="node">
<title>Node8</title>
<g id="a_node8"><a xlink:href="enumdenoptim_1_1graph_1_1_edge_1_1_bond_type.html" target="_top" xlink:title="Possible chemical bond types an edge can represent.">
<polygon fill="white" stroke="black" points="97,-959.5 97,-978.5 249,-978.5 249,-959.5 97,-959.5"/>
<text text-anchor="middle" x="173" y="-966.5" font-family="Helvetica,sans-Serif" font-size="10.00">denoptim.graph.Edge.BondType</text>
</a>
</g>
</g>
<!-- Node8&#45;&gt;Node4 -->
<g id="edge8" class="edge">
<title>Node8&#45;&gt;Node4</title>
<path fill="none" stroke="#9a32cd" stroke-dasharray="5,2" d="M205.48,-955.42C248.18,-936.99 326.87,-903.03 394,-874 419.77,-862.86 449.39,-850.03 469.04,-841.51"/>
<polygon fill="#9a32cd" stroke="#9a32cd" points="203.97,-952.26 196.17,-959.43 206.74,-958.68 203.97,-952.26"/>
<text text-anchor="middle" x="333.5" y="-939" font-family="Helvetica,sans-Serif" font-size="10.00"> DEFAULTBT</text>
<text text-anchor="middle" x="333.5" y="-928" font-family="Helvetica,sans-Serif" font-size="10.00">bndTyp</text>
</g>
<!-- Node34 -->
<g id="node34" class="node">
<title>Node34</title>
<g id="a_node34"><a xlink:href="classdenoptim_1_1graph_1_1_edge.html" target="_top" xlink:title="This class represents the edge between two vertices.">
<polygon fill="white" stroke="black" points="981.5,-879.5 981.5,-898.5 1088.5,-898.5 1088.5,-879.5 981.5,-879.5"/>
<text text-anchor="middle" x="1035" y="-886.5" font-family="Helvetica,sans-Serif" font-size="10.00">denoptim.graph.Edge</text>
</a>
</g>
</g>
<!-- Node8&#45;&gt;Node34 -->
<g id="edge50" class="edge">
<title>Node8&#45;&gt;Node34</title>
<path fill="none" stroke="#9a32cd" stroke-dasharray="5,2" d="M259.36,-963.02C300.16,-959.9 349.65,-955.75 394,-951 481.37,-941.64 502.58,-933.92 590,-925 750.91,-908.58 792.02,-914.69 953,-899 962.17,-898.11 971.9,-897.02 981.32,-895.9"/>
<polygon fill="#9a32cd" stroke="#9a32cd" points="258.89,-959.54 249.18,-963.79 259.42,-966.52 258.89,-959.54"/>
<text text-anchor="middle" x="629" y="-928" font-family="Helvetica,sans-Serif" font-size="10.00"> bondType</text>
</g>
<!-- Node9 -->
<g id="node9" class="node">
<title>Node9</title>
<g id="a_node9"><a xlink:title=" ">
<polygon fill="white" stroke="black" points="0,-959.5 0,-978.5 42,-978.5 42,-959.5 0,-959.5"/>
<text text-anchor="middle" x="21" y="-966.5" font-family="Helvetica,sans-Serif" font-size="10.00">IBond</text>
</a>
</g>
</g>
<!-- Node9&#45;&gt;Node8 -->
<g id="edge9" class="edge">
<title>Node9&#45;&gt;Node8</title>
<path fill="none" stroke="#9a32cd" stroke-dasharray="5,2" d="M52.4,-969C65.37,-969 81.12,-969 96.89,-969"/>
<polygon fill="#9a32cd" stroke="#9a32cd" points="52.23,-965.5 42.23,-969 52.23,-972.5 52.23,-965.5"/>
<text text-anchor="middle" x="66.5" y="-972" font-family="Helvetica,sans-Serif" font-size="10.00"> bo</text>
</g>
<!-- Node10 -->
<g id="node10" class="node">
<title>Node10</title>
<g id="a_node10"><a xlink:title=" ">
<polygon fill="white" stroke="black" points="467,-962.5 467,-981.5 517,-981.5 517,-962.5 467,-962.5"/>
<text text-anchor="middle" x="492" y="-969.5" font-family="Helvetica,sans-Serif" font-size="10.00">Point3d</text>
</a>
</g>
</g>
<!-- Node10&#45;&gt;Node1 -->
<g id="edge10" class="edge">
<title>Node10&#45;&gt;Node1</title>
<path fill="none" stroke="#9a32cd" stroke-dasharray="5,2" d="M527.35,-973.49C562.68,-974.68 619.26,-975.6 668,-972 861.13,-957.74 914.13,-965.66 1099,-908 1149.24,-892.33 1200.52,-856.74 1227.38,-836.27"/>
<polygon fill="#9a32cd" stroke="#9a32cd" points="527.22,-969.98 517.1,-973.12 526.97,-976.98 527.22,-969.98"/>
<text text-anchor="middle" x="918" y="-959" font-family="Helvetica,sans-Serif" font-size="10.00"> dirVec</text>
</g>
<!-- Node10&#45;&gt;Node35 -->
<g id="edge46" class="edge">
<title>Node10&#45;&gt;Node35</title>
<path fill="none" stroke="#9a32cd" stroke-dasharray="5,2" d="M527.14,-969.51C563.3,-965.93 621.49,-957.47 668,-938 702.53,-923.55 737.33,-896.89 757.36,-880.09"/>
<polygon fill="#9a32cd" stroke="#9a32cd" points="526.74,-966.03 517.1,-970.43 527.38,-973 526.74,-966.03"/>
<text text-anchor="middle" x="629" y="-962" font-family="Helvetica,sans-Serif" font-size="10.00"> dirVec</text>
</g>
<!-- Node11&#45;&gt;Node1 -->
<g id="edge11" class="edge">
<title>Node11&#45;&gt;Node1</title>
<path fill="none" stroke="#9a32cd" stroke-dasharray="5,2" d="M558.9,-559.79C707.95,-573.98 1065.49,-614.49 1162,-684 1205.76,-715.52 1231.57,-777.38 1241.62,-805.92"/>
<polygon fill="#9a32cd" stroke="#9a32cd" points="558.82,-556.27 548.53,-558.81 558.16,-563.24 558.82,-556.27"/>
<text text-anchor="middle" x="918" y="-618" font-family="Helvetica,sans-Serif" font-size="10.00"> owner</text>
</g>
<!-- Node21 -->
<g id="node21" class="node">
<title>Node21</title>
<g id="a_node21"><a xlink:href="classdenoptim_1_1graph_1_1_template.html" target="_top" xlink:title=" ">
<polygon fill="white" stroke="black" points="713,-95.5 713,-114.5 838,-114.5 838,-95.5 713,-95.5"/>
<text text-anchor="middle" x="775.5" y="-102.5" font-family="Helvetica,sans-Serif" font-size="10.00">denoptim.graph.Template</text>
</a>
</g>
</g>
<!-- Node11&#45;&gt;Node21 -->
<g id="edge26" class="edge">
<title>Node11&#45;&gt;Node21</title>
<path fill="none" stroke="midnightblue" d="M492.21,-534.28C490.84,-473.3 494.96,-285.55 590,-179 614.72,-151.28 638.37,-171.4 668,-149 678.64,-140.96 674.81,-132.25 686,-125 694.06,-119.78 703.31,-115.91 712.72,-113.04"/>
<polygon fill="midnightblue" stroke="midnightblue" points="488.71,-534.54 492.52,-544.43 495.71,-534.33 488.71,-534.54"/>
</g>
<!-- Node11&#45;&gt;Node35 -->
<g id="edge47" class="edge">
<title>Node11&#45;&gt;Node35</title>
<path fill="none" stroke="#9a32cd" stroke-dasharray="5,2" d="M508.54,-571.16C558.29,-626.13 713.2,-797.28 760.59,-849.63"/>
<polygon fill="#9a32cd" stroke="#9a32cd" points="511.04,-568.71 501.73,-563.65 505.85,-573.41 511.04,-568.71"/>
<text text-anchor="middle" x="629" y="-750" font-family="Helvetica,sans-Serif" font-size="10.00"> owner</text>
</g>
<!-- Node12&#45;&gt;Node11 -->
<g id="edge13" class="edge">
<title>Node12&#45;&gt;Node11</title>
<path fill="none" stroke="#9a32cd" stroke-dasharray="5,2" d="M1016.17,-302.56C1000.2,-288.19 975.84,-267.17 953,-251 854.33,-181.15 789.92,-137.21 686,-199 549.12,-280.38 503.24,-496.56 494.6,-544.5"/>
<polygon fill="#9a32cd" stroke="#9a32cd" points="1013.95,-305.27 1023.7,-309.4 1018.66,-300.08 1013.95,-305.27"/>
<text text-anchor="middle" x="775.5" y="-202" font-family="Helvetica,sans-Serif" font-size="10.00"> owner</text>
</g>
<!-- Node12&#45;&gt;Node18 -->
<g id="edge23" class="edge">
<title>Node12&#45;&gt;Node18</title>
<path fill="none" stroke="#9a32cd" stroke-dasharray="5,2" d="M1104.54,-311.34C1123.26,-310.58 1143.49,-311.01 1162,-314 1183.67,-317.5 1207.29,-325.73 1224.04,-332.37"/>
<polygon fill="#9a32cd" stroke="#9a32cd" points="1104.12,-307.85 1094.31,-311.87 1104.48,-314.84 1104.12,-307.85"/>
<text text-anchor="middle" x="1139.5" y="-317" font-family="Helvetica,sans-Serif" font-size="10.00"> graph</text>
</g>
<!-- Node12&#45;&gt;Node21 -->
<g id="edge27" class="edge">
<title>Node12&#45;&gt;Node21</title>
<path fill="none" stroke="#9a32cd" stroke-dasharray="5,2" d="M1031.57,-299.5C1025.68,-261.13 1006.93,-175.9 953,-134 935.34,-120.28 881.7,-112.82 838.15,-108.92"/>
<polygon fill="#9a32cd" stroke="#9a32cd" points="1028.11,-299.99 1032.96,-309.41 1035.04,-299.02 1028.11,-299.99"/>
<text text-anchor="middle" x="918" y="-137" font-family="Helvetica,sans-Serif" font-size="10.00"> innerGraph</text>
</g>
<!-- Node13 -->
<g id="node13" class="node">
<title>Node13</title>
<g id="a_node13"><a xlink:title=" ">
<polygon fill="white" stroke="black" points="702.5,-134.5 702.5,-153.5 848.5,-153.5 848.5,-134.5 702.5,-134.5"/>
<text text-anchor="middle" x="775.5" y="-141.5" font-family="Helvetica,sans-Serif" font-size="10.00">List&lt; denoptim.graph.Vertex &gt;</text>
</a>
</g>
</g>
<!-- Node13&#45;&gt;Node12 -->
<g id="edge15" class="edge">
<title>Node13&#45;&gt;Node12</title>
<path fill="none" stroke="#9a32cd" stroke-dasharray="5,2" d="M858.99,-146.52C897.23,-149.13 937.6,-154.4 953,-165 1005.27,-200.95 1026.29,-281.55 1032.16,-309.35"/>
<polygon fill="#9a32cd" stroke="#9a32cd" points="859,-143.02 848.8,-145.88 858.56,-150 859,-143.02"/>
<text text-anchor="middle" x="918" y="-168" font-family="Helvetica,sans-Serif" font-size="10.00"> gVertices</text>
</g>
<!-- Node14 -->
<g id="node14" class="node">
<title>Node14</title>
<g id="a_node14"><a xlink:title=" ">
<polygon fill="white" stroke="black" points="705.5,-536.5 705.5,-555.5 845.5,-555.5 845.5,-536.5 705.5,-536.5"/>
<text text-anchor="middle" x="775.5" y="-543.5" font-family="Helvetica,sans-Serif" font-size="10.00">List&lt; denoptim.graph.Edge &gt;</text>
</a>
</g>
</g>
<!-- Node14&#45;&gt;Node12 -->
<g id="edge16" class="edge">
<title>Node14&#45;&gt;Node12</title>
<path fill="none" stroke="#9a32cd" stroke-dasharray="5,2" d="M855.98,-548.94C890.61,-545.83 928.74,-535.67 953,-509 1001.15,-456.06 929.47,-407.27 971,-349 977.68,-339.63 988.08,-333.08 998.51,-328.55"/>
<polygon fill="#9a32cd" stroke="#9a32cd" points="855.57,-545.46 845.84,-549.67 856.07,-552.44 855.57,-545.46"/>
<text text-anchor="middle" x="918" y="-548" font-family="Helvetica,sans-Serif" font-size="10.00"> gEdges</text>
</g>
<!-- Node15 -->
<g id="node15" class="node">
<title>Node15</title>
<g id="a_node15"><a xlink:title=" ">
<polygon fill="white" stroke="black" points="707,-498.5 707,-517.5 844,-517.5 844,-498.5 707,-498.5"/>
<text text-anchor="middle" x="775.5" y="-505.5" font-family="Helvetica,sans-Serif" font-size="10.00">List&lt; denoptim.graph.Ring &gt;</text>
</a>
</g>
</g>
<!-- Node15&#45;&gt;Node12 -->
<g id="edge17" class="edge">
<title>Node15&#45;&gt;Node12</title>
<path fill="none" stroke="#9a32cd" stroke-dasharray="5,2" d="M854.27,-500.82C889.94,-493.32 929.45,-478.22 953,-448 980.49,-412.73 943.82,-384.52 971,-349 978.14,-339.67 988.91,-333.1 999.54,-328.54"/>
<polygon fill="#9a32cd" stroke="#9a32cd" points="853.48,-497.41 844.33,-502.74 854.81,-504.28 853.48,-497.41"/>
<text text-anchor="middle" x="918" y="-497" font-family="Helvetica,sans-Serif" font-size="10.00"> gRings</text>
</g>
<!-- Node16 -->
<g id="node16" class="node">
<title>Node16</title>
<g id="a_node16"><a xlink:title=" ">
<polygon fill="white" stroke="black" points="709,-449 709,-479 842,-479 842,-449 709,-449"/>
<text text-anchor="start" x="717" y="-467" font-family="Helvetica,sans-Serif" font-size="10.00">List&lt; denoptim.graph.rings.</text>
<text text-anchor="middle" x="775.5" y="-456" font-family="Helvetica,sans-Serif" font-size="10.00">ClosableChain &gt;</text>
</a>
</g>
</g>
<!-- Node16&#45;&gt;Node12 -->
<g id="edge18" class="edge">
<title>Node16&#45;&gt;Node12</title>
<path fill="none" stroke="#9a32cd" stroke-dasharray="5,2" d="M844.16,-446.03C851.24,-443.81 858.3,-441.45 865,-439 905.34,-424.23 923.88,-430.58 953,-399 969.01,-381.64 955.14,-366.51 971,-349 979.3,-339.84 990.98,-333.22 1002.04,-328.56"/>
<polygon fill="#9a32cd" stroke="#9a32cd" points="843.05,-442.71 834.51,-448.98 845.09,-449.41 843.05,-442.71"/>
<text text-anchor="middle" x="918" y="-436" font-family="Helvetica,sans-Serif" font-size="10.00"> closableChains</text>
</g>
<!-- Node17 -->
<g id="node17" class="node">
<title>Node17</title>
<g id="a_node17"><a xlink:title=" ">
<polygon fill="white" stroke="black" points="697.5,-400 697.5,-430 853.5,-430 853.5,-400 697.5,-400"/>
<text text-anchor="start" x="705.5" y="-418" font-family="Helvetica,sans-Serif" font-size="10.00">List&lt; denoptim.graph.Symmetric</text>
<text text-anchor="middle" x="775.5" y="-407" font-family="Helvetica,sans-Serif" font-size="10.00">Vertexes &gt;</text>
</a>
</g>
</g>
<!-- Node17&#45;&gt;Node12 -->
<g id="edge19" class="edge">
<title>Node17&#45;&gt;Node12</title>
<path fill="none" stroke="#9a32cd" stroke-dasharray="5,2" d="M842.55,-397.15C850.15,-394.86 857.77,-392.45 865,-390 904.86,-376.48 914.21,-371.33 953,-355 973.57,-346.34 996.82,-335.94 1013.12,-328.55"/>
<polygon fill="#9a32cd" stroke="#9a32cd" points="841.54,-393.8 832.95,-400 843.53,-400.51 841.54,-393.8"/>
<text text-anchor="middle" x="918" y="-387" font-family="Helvetica,sans-Serif" font-size="10.00"> symVertices</text>
</g>
<!-- Node18&#45;&gt;Node12 -->
<g id="edge20" class="edge">
<title>Node18&#45;&gt;Node12</title>
<path fill="none" stroke="#9a32cd" stroke-dasharray="5,2" d="M1173.29,-334C1147.36,-331.17 1118.57,-328.02 1094.08,-325.35"/>
<polygon fill="#9a32cd" stroke="#9a32cd" points="1173.12,-337.5 1183.45,-335.11 1173.88,-330.54 1173.12,-337.5"/>
<text text-anchor="middle" x="1139.5" y="-336" font-family="Helvetica,sans-Serif" font-size="10.00"> candidate</text>
</g>
<!-- Node19 -->
<g id="node19" class="node">
<title>Node19</title>
<g id="a_node19"><a xlink:title=" ">
<polygon fill="white" stroke="black" points="971,-358.5 971,-377.5 1099,-377.5 1099,-358.5 971,-358.5"/>
<text text-anchor="middle" x="1035" y="-365.5" font-family="Helvetica,sans-Serif" font-size="10.00">Comparable&lt; Candidate &gt;</text>
</a>
</g>
</g>
<!-- Node19&#45;&gt;Node18 -->
<g id="edge21" class="edge">
<title>Node19&#45;&gt;Node18</title>
<path fill="none" stroke="midnightblue" d="M1109.33,-358.94C1133.47,-355.96 1160.08,-352.67 1183.39,-349.8"/>
<polygon fill="midnightblue" stroke="midnightblue" points="1108.65,-355.5 1099.16,-360.2 1109.51,-362.45 1108.65,-355.5"/>
</g>
<!-- Node20 -->
<g id="node20" class="node">
<title>Node20</title>
<g id="a_node20"><a xlink:title=" ">
<polygon fill="white" stroke="black" points="450,-0.5 450,-19.5 534,-19.5 534,-0.5 450,-0.5"/>
<text text-anchor="middle" x="492" y="-7.5" font-family="Helvetica,sans-Serif" font-size="10.00">IAtomContainer</text>
</a>
</g>
</g>
<!-- Node20&#45;&gt;Node18 -->
<g id="edge24" class="edge">
<title>Node20&#45;&gt;Node18</title>
<path fill="none" stroke="#9a32cd" stroke-dasharray="5,2" d="M544.07,-5.85C632.07,-0.85 816.03,0.08 953,-64 1094.45,-130.17 1211.73,-291.32 1240,-332.36"/>
<polygon fill="#9a32cd" stroke="#9a32cd" points="543.84,-2.36 534.07,-6.46 544.27,-9.35 543.84,-2.36"/>
<text text-anchor="middle" x="918" y="-67" font-family="Helvetica,sans-Serif" font-size="10.00"> iac</text>
</g>
<!-- Node20&#45;&gt;Node21 -->
<g id="edge28" class="edge">
<title>Node20&#45;&gt;Node21</title>
<path fill="none" stroke="#9a32cd" stroke-dasharray="5,2" d="M538.91,-22.36C574.43,-32.22 624.7,-46.86 668,-62 697.74,-72.4 731.34,-86.34 752.7,-95.49"/>
<polygon fill="#9a32cd" stroke="#9a32cd" points="539.42,-18.86 528.84,-19.58 537.55,-25.61 539.42,-18.86"/>
<text text-anchor="middle" x="629" y="-65" font-family="Helvetica,sans-Serif" font-size="10.00"> mol</text>
</g>
<!-- Node21&#45;&gt;Node12 -->
<g id="edge25" class="edge">
<title>Node21&#45;&gt;Node12</title>
<path fill="none" stroke="#9a32cd" stroke-dasharray="5,2" d="M810.08,-92.24C848.31,-80.07 910.89,-67.54 953,-97 1026.28,-148.27 1033.49,-273.21 1034.02,-309.17"/>
<polygon fill="#9a32cd" stroke="#9a32cd" points="808.82,-88.97 800.45,-95.46 811.04,-95.61 808.82,-88.97"/>
<text text-anchor="middle" x="918" y="-100" font-family="Helvetica,sans-Serif" font-size="10.00"> templateJacket</text>
</g>
<!-- Node22 -->
<g id="node22" class="node">
<title>Node22</title>
<g id="a_node22"><a xlink:href="enumdenoptim_1_1graph_1_1_template_1_1_contract_level.html" target="_top" xlink:title="Enum specifying to what extent the template&#39;s inner graph can be changed.">
<polygon fill="white" stroke="black" points="428,-134 428,-164 556,-164 556,-134 428,-134"/>
<text text-anchor="start" x="436" y="-152" font-family="Helvetica,sans-Serif" font-size="10.00">denoptim.graph.Template.</text>
<text text-anchor="middle" x="492" y="-141" font-family="Helvetica,sans-Serif" font-size="10.00">ContractLevel</text>
</a>
</g>
</g>
<!-- Node22&#45;&gt;Node21 -->
<g id="edge29" class="edge">
<title>Node22&#45;&gt;Node21</title>
<path fill="none" stroke="#9a32cd" stroke-dasharray="5,2" d="M566.33,-137.54C612.07,-130.39 670.25,-121.29 713.47,-114.54"/>
<polygon fill="#9a32cd" stroke="#9a32cd" points="565.51,-134.12 556.17,-139.13 566.59,-141.04 565.51,-134.12"/>
<text text-anchor="middle" x="629" y="-137" font-family="Helvetica,sans-Serif" font-size="10.00"> contractLevel</text>
</g>
<!-- Node23 -->
<g id="node23" class="node">
<title>Node23</title>
<g id="a_node23"><a xlink:title=" ">
<polygon fill="white" stroke="black" points="412,-46 412,-76 572,-76 572,-46 412,-46"/>
<text text-anchor="start" x="420" y="-64" font-family="Helvetica,sans-Serif" font-size="10.00">List&lt; denoptim.graph.Attachment</text>
<text text-anchor="middle" x="492" y="-53" font-family="Helvetica,sans-Serif" font-size="10.00">Point &gt;</text>
</a>
</g>
</g>
<!-- Node23&#45;&gt;Node21 -->
<g id="edge30" class="edge">
<title>Node23&#45;&gt;Node21</title>
<path fill="none" stroke="#9a32cd" stroke-dasharray="5,2" d="M582.28,-74.96C624.98,-81.63 675.01,-89.45 713.32,-95.44"/>
<polygon fill="#9a32cd" stroke="#9a32cd" points="582.58,-71.46 572.16,-73.37 581.5,-78.38 582.58,-71.46"/>
<text text-anchor="middle" x="629" y="-92" font-family="Helvetica,sans-Serif" font-size="10.00"> requiredAPs</text>
</g>
<!-- Node24 -->
<g id="node24" class="node">
<title>Node24</title>
<g id="a_node24"><a xlink:href="classdenoptim_1_1graph_1_1_a_p_tree_map.html" target="_top" xlink:title="Attachment point mapping where keys are sorted by natural ordering, i.e., by AttachmentPoint#compareT...">
<polygon fill="white" stroke="black" points="423.5,-95.5 423.5,-114.5 560.5,-114.5 560.5,-95.5 423.5,-95.5"/>
<text text-anchor="middle" x="492" y="-102.5" font-family="Helvetica,sans-Serif" font-size="10.00">denoptim.graph.APTreeMap</text>
</a>
</g>
</g>
<!-- Node24&#45;&gt;Node21 -->
<g id="edge31" class="edge">
<title>Node24&#45;&gt;Node21</title>
<path fill="none" stroke="#9a32cd" stroke-dasharray="5,2" d="M571.02,-105C615.68,-105 670.93,-105 712.59,-105"/>
<polygon fill="#9a32cd" stroke="#9a32cd" points="570.78,-101.5 560.78,-105 570.78,-108.5 570.78,-101.5"/>
<text text-anchor="middle" x="629" y="-108" font-family="Helvetica,sans-Serif" font-size="10.00"> innerToOuterAPs</text>
</g>
<!-- Node25 -->
<g id="node25" class="node">
<title>Node25</title>
<g id="a_node25"><a xlink:title=" ">
<polygon fill="white" stroke="black" points="100,-90 100,-120 246,-120 246,-90 100,-90"/>
<text text-anchor="start" x="108" y="-108" font-family="Helvetica,sans-Serif" font-size="10.00">LinkedHashMap&lt; Attachment</text>
<text text-anchor="middle" x="173" y="-97" font-family="Helvetica,sans-Serif" font-size="10.00">Point, AttachmentPoint &gt;</text>
</a>
</g>
</g>
<!-- Node25&#45;&gt;Node24 -->
<g id="edge32" class="edge">
<title>Node25&#45;&gt;Node24</title>
<path fill="none" stroke="midnightblue" d="M256.51,-105C308.4,-105 374.52,-105 423.32,-105"/>
<polygon fill="midnightblue" stroke="midnightblue" points="256.33,-101.5 246.33,-105 256.33,-108.5 256.33,-101.5"/>
</g>
<!-- Node26 -->
<g id="node26" class="node">
<title>Node26</title>
<g id="a_node26"><a xlink:title=" ">
<polygon fill="white" stroke="black" points="687,-329 687,-381 864,-381 864,-329 687,-329"/>
<text text-anchor="start" x="695" y="-369" font-family="Helvetica,sans-Serif" font-size="10.00">DefaultUndirectedGraph</text>
<text text-anchor="start" x="695" y="-358" font-family="Helvetica,sans-Serif" font-size="10.00">&lt; denoptim.graph.Vertex,</text>
<text text-anchor="start" x="695" y="-347" font-family="Helvetica,sans-Serif" font-size="10.00"> denoptim.graph.simplified.Undirected</text>
<text text-anchor="middle" x="775.5" y="-336" font-family="Helvetica,sans-Serif" font-size="10.00">Edge &gt;</text>
</a>
</g>
</g>
<!-- Node26&#45;&gt;Node12 -->
<g id="edge33" class="edge">
<title>Node26&#45;&gt;Node12</title>
<path fill="none" stroke="#9a32cd" stroke-dasharray="5,2" d="M874.09,-341.36C908.39,-336.56 945.82,-331.33 975.84,-327.13"/>
<polygon fill="#9a32cd" stroke="#9a32cd" points="873.46,-337.91 864.04,-342.76 874.43,-344.84 873.46,-337.91"/>
<text text-anchor="middle" x="918" y="-343" font-family="Helvetica,sans-Serif" font-size="10.00"> jGraph</text>
</g>
<!-- Node27 -->
<g id="node27" class="node">
<title>Node27</title>
<g id="a_node27"><a xlink:title=" ">
<polygon fill="white" stroke="black" points="686,-258 686,-310 865,-310 865,-258 686,-258"/>
<text text-anchor="start" x="694" y="-298" font-family="Helvetica,sans-Serif" font-size="10.00">DefaultUndirectedGraph</text>
<text text-anchor="start" x="694" y="-287" font-family="Helvetica,sans-Serif" font-size="10.00">&lt; denoptim.graph.simplified.</text>
<text text-anchor="start" x="694" y="-276" font-family="Helvetica,sans-Serif" font-size="10.00">Node, denoptim.graph.simplified.Node</text>
<text text-anchor="middle" x="775.5" y="-265" font-family="Helvetica,sans-Serif" font-size="10.00">Connection &gt;</text>
</a>
</g>
</g>
<!-- Node27&#45;&gt;Node12 -->
<g id="edge34" class="edge">
<title>Node27&#45;&gt;Node12</title>
<path fill="none" stroke="#9a32cd" stroke-dasharray="5,2" d="M875.11,-297.4C909.16,-302.03 946.2,-307.07 975.94,-311.11"/>
<polygon fill="#9a32cd" stroke="#9a32cd" points="875.5,-293.92 865.12,-296.05 874.55,-300.86 875.5,-293.92"/>
<text text-anchor="middle" x="918" y="-311" font-family="Helvetica,sans-Serif" font-size="10.00"> jGraphKernel</text>
</g>
<!-- Node28 -->
<g id="node28" class="node">
<title>Node28</title>
<g id="a_node28"><a xlink:title=" ">
<polygon fill="white" stroke="black" points="737,-219.5 737,-238.5 814,-238.5 814,-219.5 737,-219.5"/>
<text text-anchor="middle" x="775.5" y="-226.5" font-family="Helvetica,sans-Serif" font-size="10.00">AtomicInteger</text>
</a>
</g>
</g>
<!-- Node28&#45;&gt;Node12 -->
<g id="edge35" class="edge">
<title>Node28&#45;&gt;Node12</title>
<path fill="none" stroke="#9a32cd" stroke-dasharray="5,2" d="M824.3,-237.56C837.61,-240.4 851.98,-243.91 865,-248 920.86,-265.56 983.73,-294.56 1014.67,-309.48"/>
<polygon fill="#9a32cd" stroke="#9a32cd" points="824.87,-234.11 814.37,-235.52 823.46,-240.96 824.87,-234.11"/>
<text text-anchor="middle" x="918" y="-283" font-family="Helvetica,sans-Serif" font-size="10.00"> apCounter</text>
</g>
<!-- Node29 -->
<g id="node29" class="node">
<title>Node29</title>
<g id="a_node29"><a xlink:href="enumdenoptim_1_1graph_1_1_vertex_1_1_b_b_type.html" target="_top" xlink:title="The type of building block.">
<polygon fill="white" stroke="black" points="98.5,-527.5 98.5,-546.5 247.5,-546.5 247.5,-527.5 98.5,-527.5"/>
<text text-anchor="middle" x="173" y="-534.5" font-family="Helvetica,sans-Serif" font-size="10.00">denoptim.graph.Vertex.BBType</text>
</a>
</g>
</g>
<!-- Node29&#45;&gt;Node11 -->
<g id="edge36" class="edge">
<title>Node29&#45;&gt;Node11</title>
<path fill="none" stroke="#9a32cd" stroke-dasharray="5,2" d="M257.95,-534.26C299.03,-533.71 349.18,-534.23 394,-538 409.82,-539.33 426.94,-541.81 442.34,-544.42"/>
<polygon fill="#9a32cd" stroke="#9a32cd" points="257.66,-530.76 247.71,-534.42 257.77,-537.76 257.66,-530.76"/>
<text text-anchor="middle" x="333.5" y="-541" font-family="Helvetica,sans-Serif" font-size="10.00"> buildingBlockType</text>
</g>
<!-- Node30 -->
<g id="node30" class="node">
<title>Node30</title>
<g id="a_node30"><a xlink:title=" ">
<polygon fill="white" stroke="black" points="116,-897.5 116,-916.5 230,-916.5 230,-897.5 116,-897.5"/>
<text text-anchor="middle" x="173" y="-904.5" font-family="Helvetica,sans-Serif" font-size="10.00">Map&lt; Object, Object &gt;</text>
</a>
</g>
</g>
<!-- Node30&#45;&gt;Node1 -->
<g id="edge51" class="edge">
<title>Node30&#45;&gt;Node1</title>
<path fill="none" stroke="#9a32cd" stroke-dasharray="5,2" d="M240.45,-906.74C296.56,-907.89 371.29,-913.11 394,-932 415.08,-949.53 389.97,-974.69 412,-991 605.37,-1134.18 715.01,-1006.38 953,-971 1049.48,-956.66 1083.86,-962.39 1162,-904 1189.84,-883.2 1217.75,-853.69 1233.5,-836.03"/>
<polygon fill="#9a32cd" stroke="#9a32cd" points="240.27,-903.23 230.21,-906.56 240.15,-910.23 240.27,-903.23"/>
<text text-anchor="middle" x="775.5" y="-1045" font-family="Helvetica,sans-Serif" font-size="10.00"> properties</text>
</g>
<!-- Node30&#45;&gt;Node11 -->
<g id="edge37" class="edge">
<title>Node30&#45;&gt;Node11</title>
<path fill="none" stroke="#9a32cd" stroke-dasharray="5,2" d="M239.67,-898.98C245.38,-896.2 250.64,-892.61 255,-888 286.63,-854.55 252.38,-827.16 273,-786 325.12,-681.98 438.92,-592.17 477.73,-563.52"/>
<polygon fill="#9a32cd" stroke="#9a32cd" points="238.36,-895.74 230.39,-902.72 240.97,-902.24 238.36,-895.74"/>
<text text-anchor="middle" x="333.5" y="-789" font-family="Helvetica,sans-Serif" font-size="10.00"> properties</text>
</g>
<!-- Node30&#45;&gt;Node35 -->
<g id="edge49" class="edge">
<title>Node30&#45;&gt;Node35</title>
<path fill="none" stroke="#9a32cd" stroke-dasharray="5,2" d="M240.33,-902.36C355.68,-894.29 591.95,-877.77 707.66,-869.68"/>
<polygon fill="#9a32cd" stroke="#9a32cd" points="239.96,-898.88 230.22,-903.07 240.44,-905.86 239.96,-898.88"/>
<text text-anchor="middle" x="492" y="-893" font-family="Helvetica,sans-Serif" font-size="10.00"> properties</text>
</g>
<!-- Node31 -->
<g id="node31" class="node">
<title>Node31</title>
<g id="a_node31"><a xlink:title=" ">
<polygon fill="white" stroke="black" points="136,-489.5 136,-508.5 210,-508.5 210,-489.5 136,-489.5"/>
<text text-anchor="middle" x="173" y="-496.5" font-family="Helvetica,sans-Serif" font-size="10.00">Set&lt; String &gt;</text>
</a>
</g>
</g>
<!-- Node31&#45;&gt;Node11 -->
<g id="edge38" class="edge">
<title>Node31&#45;&gt;Node11</title>
<path fill="none" stroke="#9a32cd" stroke-dasharray="5,2" d="M220.25,-500.17C265.12,-502.06 334.9,-507.02 394,-520 420.32,-525.78 449.34,-536.57 468.71,-544.45"/>
<polygon fill="#9a32cd" stroke="#9a32cd" points="220.36,-496.67 210.23,-499.78 220.09,-503.67 220.36,-496.67"/>
<text text-anchor="middle" x="333.5" y="-523" font-family="Helvetica,sans-Serif" font-size="10.00"> uniquefyingPropertyKeys</text>
</g>
<!-- Node32 -->
<g id="node32" class="node">
<title>Node32</title>
<g id="a_node32"><a xlink:title=" ">
<polygon fill="white" stroke="black" points="102.5,-440 102.5,-470 243.5,-470 243.5,-440 102.5,-440"/>
<text text-anchor="start" x="110.5" y="-458" font-family="Helvetica,sans-Serif" font-size="10.00">List&lt; denoptim.utils.Mutation</text>
<text text-anchor="middle" x="173" y="-447" font-family="Helvetica,sans-Serif" font-size="10.00">Type &gt;</text>
</a>
</g>
</g>
<!-- Node32&#45;&gt;Node11 -->
<g id="edge39" class="edge">
<title>Node32&#45;&gt;Node11</title>
<path fill="none" stroke="#9a32cd" stroke-dasharray="5,2" d="M253.97,-458.95C296.69,-463.12 349.5,-471.64 394,-489 428.56,-502.48 463.28,-529.9 480.27,-544.45"/>
<polygon fill="#9a32cd" stroke="#9a32cd" points="254.17,-455.45 243.89,-458.03 253.53,-462.42 254.17,-455.45"/>
<text text-anchor="middle" x="333.5" y="-492" font-family="Helvetica,sans-Serif" font-size="10.00"> allowedMutationTypes</text>
</g>
<!-- Node33 -->
<g id="node33" class="node">
<title>Node33</title>
<g id="a_node33"><a xlink:href="enumdenoptim_1_1graph_1_1_vertex_1_1_vertex_type.html" target="_top" xlink:title="Flag declaring the type of Vertex implementation.">
<polygon fill="white" stroke="black" points="91,-565.5 91,-584.5 255,-584.5 255,-565.5 91,-565.5"/>
<text text-anchor="middle" x="173" y="-572.5" font-family="Helvetica,sans-Serif" font-size="10.00">denoptim.graph.Vertex.VertexType</text>
</a>
</g>
</g>
<!-- Node33&#45;&gt;Node11 -->
<g id="edge40" class="edge">
<title>Node33&#45;&gt;Node11</title>
<path fill="none" stroke="#9a32cd" stroke-dasharray="5,2" d="M265.33,-568.95C320.3,-565.31 388.49,-560.79 435.45,-557.68"/>
<polygon fill="#9a32cd" stroke="#9a32cd" points="264.97,-565.47 255.22,-569.62 265.43,-572.45 264.97,-565.47"/>
<text text-anchor="middle" x="333.5" y="-572" font-family="Helvetica,sans-Serif" font-size="10.00"> vertexType</text>
</g>
<!-- Node34&#45;&gt;Node1 -->
<g id="edge41" class="edge">
<title>Node34&#45;&gt;Node1</title>
<path fill="none" stroke="#9a32cd" stroke-dasharray="5,2" d="M1075.66,-876.19C1110.96,-864.79 1162.63,-848.09 1199.89,-836.06"/>
<polygon fill="#9a32cd" stroke="#9a32cd" points="1074.15,-873 1065.71,-879.4 1076.3,-879.66 1074.15,-873"/>
<text text-anchor="middle" x="1139.5" y="-865" font-family="Helvetica,sans-Serif" font-size="10.00"> user</text>
</g>
<!-- Node34&#45;&gt;Node35 -->
<g id="edge48" class="edge">
<title>Node34&#45;&gt;Node35</title>
<path fill="none" stroke="#9a32cd" stroke-dasharray="5,2" d="M971.05,-885.1C943.93,-883.25 911.88,-880.81 883,-878 870.12,-876.75 856.38,-875.21 843.2,-873.65"/>
<polygon fill="#9a32cd" stroke="#9a32cd" points="970.97,-888.61 981.19,-885.79 971.44,-881.62 970.97,-888.61"/>
<text text-anchor="middle" x="918" y="-887" font-family="Helvetica,sans-Serif" font-size="10.00"> user</text>
</g>
<!-- Node35&#45;&gt;Node34 -->
<g id="edge42" class="edge">
<title>Node35&#45;&gt;Node34</title>
<path fill="none" stroke="#9a32cd" stroke-dasharray="5,2" d="M853.61,-852.98C884.72,-850.23 920.81,-849.69 953,-856 975.8,-860.47 1000.28,-871.38 1016.29,-879.44"/>
<polygon fill="#9a32cd" stroke="#9a32cd" points="852.87,-849.54 843.26,-854 853.55,-856.5 852.87,-849.54"/>
<text text-anchor="middle" x="918" y="-870" font-family="Helvetica,sans-Serif" font-size="10.00"> srcAP</text>
<text text-anchor="middle" x="918" y="-859" font-family="Helvetica,sans-Serif" font-size="10.00">trgAP</text>
</g>
</g>
</svg>
