<?xml version="1.0" encoding="UTF-8" standalone="no"?>
<!DOCTYPE svg PUBLIC "-//W3C//DTD SVG 1.1//EN"
 "http://www.w3.org/Graphics/SVG/1.1/DTD/svg11.dtd">
<!-- Generated by graphviz version 3.0.0 (20221109.1736)
 -->
<!-- Title: denoptim.graph.DGraph.removeEdge Pages: 1 -->
<svg width="1513pt" height="940pt"
 viewBox="0.00 0.00 1513.00 940.00" xmlns="http://www.w3.org/2000/svg" xmlns:xlink="http://www.w3.org/1999/xlink">
<g id="graph0" class="graph" transform="scale(1 1) rotate(0) translate(4 936)">
<title>denoptim.graph.DGraph.removeEdge</title>
<polygon fill="white" stroke="transparent" points="-4,4 -4,-936 1509,-936 1509,4 -4,4"/>
<!-- Node1 -->
<g id="node1" class="node">
<title>Node1</title>
<g id="a_node1"><a xlink:title="Removes an edge and update the free valences of the attachment points that were originally involved i...">
<polygon fill="#bfbfbf" stroke="black" points="1331,-726 1331,-745 1505,-745 1505,-726 1331,-726"/>
<text text-anchor="middle" x="1418" y="-733" font-family="Helvetica,sans-Serif" font-size="10.00">denoptim.graph.DGraph.removeEdge</text>
</a>
</g>
</g>
<!-- Node2 -->
<g id="node2" class="node">
<title>Node2</title>
<g id="a_node2"><a xlink:href="classdenoptim_1_1graph_1_1_d_graph.html#a8acb795911057397c96d3e7972ba986e" target="_top" xlink:title="Inserts a given vertex in between two vertices connected by the given edge.">
<polygon fill="white" stroke="black" points="1147,-901.5 1147,-931.5 1291,-931.5 1291,-901.5 1147,-901.5"/>
<text text-anchor="start" x="1155" y="-919.5" font-family="Helvetica,sans-Serif" font-size="10.00">denoptim.graph.DGraph.insert</text>
<text text-anchor="middle" x="1219" y="-908.5" font-family="Helvetica,sans-Serif" font-size="10.00">SingleVertex</text>
</a>
</g>
</g>
<!-- Node1&#45;&gt;Node2 -->
<g id="edge1" class="edge">
<title>Node1&#45;&gt;Node2</title>
<path fill="none" stroke="midnightblue" d="M1406.45,-753.99C1387.74,-785.29 1345.89,-848.93 1295,-886.5 1286.99,-892.41 1277.65,-897.35 1268.34,-901.41"/>
<polygon fill="midnightblue" stroke="midnightblue" points="1409.65,-755.44 1411.69,-745.04 1403.61,-751.9 1409.65,-755.44"/>
</g>
<!-- Node5 -->
<g id="node5" class="node">
<title>Node5</title>
<g id="a_node5"><a xlink:href="classdenoptim_1_1graph_1_1_d_graph.html#a65f0577c098508ced9925878e94ead82" target="_top" xlink:title="Deletes the branch, i.e., the specified vertex and its children.">
<polygon fill="white" stroke="black" points="710,-857.5 710,-887.5 862,-887.5 862,-857.5 710,-857.5"/>
<text text-anchor="start" x="718" y="-875.5" font-family="Helvetica,sans-Serif" font-size="10.00">denoptim.graph.DGraph.remove</text>
<text text-anchor="middle" x="786" y="-864.5" font-family="Helvetica,sans-Serif" font-size="10.00">BranchStartingAt</text>
</a>
</g>
</g>
<!-- Node1&#45;&gt;Node5 -->
<g id="edge4" class="edge">
<title>Node1&#45;&gt;Node5</title>
<path fill="none" stroke="midnightblue" d="M1391.13,-750.09C1366.84,-763.39 1329.22,-782.97 1295,-796.5 1213.93,-828.56 1192.84,-837.24 1107,-852.5 1024.11,-867.24 927.46,-871.54 862.25,-872.6"/>
<polygon fill="midnightblue" stroke="midnightblue" points="1393,-753.06 1400.06,-745.16 1389.61,-746.93 1393,-753.06"/>
</g>
<!-- Node6 -->
<g id="node6" class="node">
<title>Node6</title>
<g id="a_node6"><a xlink:href="classdenoptim_1_1graph_1_1_d_graph.html#af404e25092eabcdfbe69b5d7204e9483" target="_top" xlink:title="Mutates the graph by removing the chain where a given vertex is located up to the first branching (i....">
<polygon fill="white" stroke="black" points="937,-813.5 937,-843.5 1089,-843.5 1089,-813.5 937,-813.5"/>
<text text-anchor="start" x="945" y="-831.5" font-family="Helvetica,sans-Serif" font-size="10.00">denoptim.graph.DGraph.remove</text>
<text text-anchor="middle" x="1013" y="-820.5" font-family="Helvetica,sans-Serif" font-size="10.00">ChainUpToBranching</text>
</a>
</g>
</g>
<!-- Node1&#45;&gt;Node6 -->
<g id="edge5" class="edge">
<title>Node1&#45;&gt;Node6</title>
<path fill="none" stroke="midnightblue" d="M1365.89,-747.3C1292.93,-764.13 1158.93,-795.05 1079,-813.5"/>
<polygon fill="midnightblue" stroke="midnightblue" points="1366.81,-750.67 1375.77,-745.02 1365.23,-743.85 1366.81,-750.67"/>
</g>
<!-- Node9 -->
<g id="node9" class="node">
<title>Node9</title>
<g id="a_node9"><a xlink:href="classdenoptim_1_1graph_1_1_d_graph.html#a357b4099599e47ae47102123550771f8" target="_top" xlink:title="Remove a given vertex belonging to this graph and re&#45;connects the resulting graph branches as much as...">
<polygon fill="white" stroke="black" points="710,-751.5 710,-781.5 862,-781.5 862,-751.5 710,-751.5"/>
<text text-anchor="start" x="718" y="-769.5" font-family="Helvetica,sans-Serif" font-size="10.00">denoptim.graph.DGraph.remove</text>
<text text-anchor="middle" x="786" y="-758.5" font-family="Helvetica,sans-Serif" font-size="10.00">SingleVertexAndWeld</text>
</a>
</g>
</g>
<!-- Node1&#45;&gt;Node9 -->
<g id="edge8" class="edge">
<title>Node1&#45;&gt;Node9</title>
<path fill="none" stroke="midnightblue" d="M1320.44,-737.68C1220.05,-740.3 1058.4,-745.51 919,-754.5 900.63,-755.68 880.85,-757.3 862.34,-758.96"/>
<polygon fill="midnightblue" stroke="midnightblue" points="1320.66,-741.18 1330.56,-737.42 1320.48,-734.18 1320.66,-741.18"/>
</g>
<!-- Node12 -->
<g id="node12" class="node">
<title>Node12</title>
<g id="a_node12"><a xlink:href="classdenoptim_1_1graph_1_1_d_graph.html#a40786de6efd159a5c54c122d0d3d2c1c" target="_top" xlink:title="Remove a vertex from this graph.">
<polygon fill="white" stroke="black" points="1143,-556.5 1143,-586.5 1295,-586.5 1295,-556.5 1143,-556.5"/>
<text text-anchor="start" x="1151" y="-574.5" font-family="Helvetica,sans-Serif" font-size="10.00">denoptim.graph.DGraph.remove</text>
<text text-anchor="middle" x="1219" y="-563.5" font-family="Helvetica,sans-Serif" font-size="10.00">Vertex</text>
</a>
</g>
</g>
<!-- Node1&#45;&gt;Node12 -->
<g id="edge13" class="edge">
<title>Node1&#45;&gt;Node12</title>
<path fill="none" stroke="midnightblue" d="M1397.75,-719.47C1359.65,-687.76 1275.13,-617.39 1238.04,-586.52"/>
<polygon fill="midnightblue" stroke="midnightblue" points="1395.63,-722.27 1405.56,-725.97 1400.11,-716.89 1395.63,-722.27"/>
</g>
<!-- Node28 -->
<g id="node28" class="node">
<title>Node28</title>
<g id="a_node28"><a xlink:href="classdenoptim_1_1graph_1_1_d_graph.html#aefca90eb3594e935ee283f1e56fec5b4" target="_top" xlink:title="Replaced the subgraph represented by a given collection of vertices that belong to this graph.">
<polygon fill="white" stroke="black" points="937,-172.5 937,-202.5 1089,-202.5 1089,-172.5 937,-172.5"/>
<text text-anchor="start" x="945" y="-190.5" font-family="Helvetica,sans-Serif" font-size="10.00">denoptim.graph.DGraph.replace</text>
<text text-anchor="middle" x="1013" y="-179.5" font-family="Helvetica,sans-Serif" font-size="10.00">SingleSubGraph</text>
</a>
</g>
</g>
<!-- Node1&#45;&gt;Node28 -->
<g id="edge53" class="edge">
<title>Node1&#45;&gt;Node28</title>
<path fill="none" stroke="midnightblue" d="M1410.18,-716.36C1395.47,-677.92 1356.98,-591.16 1295,-546.5 1238.41,-505.73 1190.21,-558.84 1143,-507.5 1078.01,-436.83 1148.02,-381.3 1107,-294.5 1089.12,-256.67 1053.98,-221.9 1032.38,-202.81"/>
<polygon fill="midnightblue" stroke="midnightblue" points="1406.94,-717.69 1413.7,-725.85 1413.51,-715.26 1406.94,-717.69"/>
</g>
<!-- Node47 -->
<g id="node47" class="node">
<title>Node47</title>
<g id="a_node47"><a xlink:href="classdenoptim_1_1graph_1_1_edge_test.html#a5140f5d0a755cbe0fe79620176fba355" target="_top" xlink:title=" ">
<polygon fill="white" stroke="black" points="1146,-468.5 1146,-498.5 1292,-498.5 1292,-468.5 1146,-468.5"/>
<text text-anchor="start" x="1154" y="-486.5" font-family="Helvetica,sans-Serif" font-size="10.00">denoptim.graph.EdgeTest.test</text>
<text text-anchor="middle" x="1219" y="-475.5" font-family="Helvetica,sans-Serif" font-size="10.00">ConnectionDeconnectionLoop</text>
</a>
</g>
</g>
<!-- Node1&#45;&gt;Node47 -->
<g id="edge54" class="edge">
<title>Node1&#45;&gt;Node47</title>
<path fill="none" stroke="midnightblue" d="M1411.24,-715.82C1397.79,-673.17 1360.44,-571.41 1295,-513.5 1288.17,-507.46 1279.98,-502.55 1271.55,-498.59"/>
<polygon fill="midnightblue" stroke="midnightblue" points="1407.94,-717 1414.21,-725.54 1414.63,-714.96 1407.94,-717"/>
</g>
<!-- Node3 -->
<g id="node3" class="node">
<title>Node3</title>
<g id="a_node3"><a xlink:href="classdenoptim_1_1graph_1_1_d_graph.html#ade5b573cc8eac0a26ec18969238fd84a" target="_top" xlink:title="Inserts a given vertex in between two vertices connected by the given edge.">
<polygon fill="white" stroke="black" points="941,-901.5 941,-931.5 1085,-931.5 1085,-901.5 941,-901.5"/>
<text text-anchor="start" x="949" y="-919.5" font-family="Helvetica,sans-Serif" font-size="10.00">denoptim.graph.DGraph.insert</text>
<text text-anchor="middle" x="1013" y="-908.5" font-family="Helvetica,sans-Serif" font-size="10.00">Vertex</text>
</a>
</g>
</g>
<!-- Node2&#45;&gt;Node3 -->
<g id="edge2" class="edge">
<title>Node2&#45;&gt;Node3</title>
<path fill="none" stroke="midnightblue" d="M1136.48,-916.5C1119.5,-916.5 1101.73,-916.5 1085.15,-916.5"/>
<polygon fill="midnightblue" stroke="midnightblue" points="1136.94,-920 1146.94,-916.5 1136.94,-913 1136.94,-920"/>
</g>
<!-- Node4 -->
<g id="node4" class="node">
<title>Node4</title>
<g id="a_node4"><a xlink:href="classdenoptim_1_1ga_1_1_graph_operations.html#af53d9f29a7d8f8e7bc5540ab3cb0c9c7" target="_top" xlink:title="Replace an edge with two edges with a new vertex in between, thus inserting a vertex in between two d...">
<polygon fill="white" stroke="black" points="689,-907 689,-926 883,-926 883,-907 689,-907"/>
<text text-anchor="middle" x="786" y="-914" font-family="Helvetica,sans-Serif" font-size="10.00">denoptim.ga.GraphOperations.extendLink</text>
</a>
</g>
</g>
<!-- Node3&#45;&gt;Node4 -->
<g id="edge3" class="edge">
<title>Node3&#45;&gt;Node4</title>
<path fill="none" stroke="midnightblue" d="M930.8,-916.5C915.37,-916.5 899.08,-916.5 883.24,-916.5"/>
<polygon fill="midnightblue" stroke="midnightblue" points="930.81,-920 940.81,-916.5 930.81,-913 930.81,-920"/>
</g>
<!-- Node7 -->
<g id="node7" class="node">
<title>Node7</title>
<g id="a_node7"><a xlink:href="classdenoptim_1_1ga_1_1_graph_operations.html#afd659e74a056d1a6ae6f52513fee0be3" target="_top" xlink:title="Deletes the given vertex and all other vertexes that are not connected to more than 2 non&#45;capping gro...">
<polygon fill="white" stroke="black" points="225.5,-810.5 225.5,-840.5 398.5,-840.5 398.5,-810.5 225.5,-810.5"/>
<text text-anchor="start" x="233.5" y="-828.5" font-family="Helvetica,sans-Serif" font-size="10.00">denoptim.ga.GraphOperations.delete</text>
<text text-anchor="middle" x="312" y="-817.5" font-family="Helvetica,sans-Serif" font-size="10.00">Chain</text>
</a>
</g>
</g>
<!-- Node6&#45;&gt;Node7 -->
<g id="edge6" class="edge">
<title>Node6&#45;&gt;Node7</title>
<path fill="none" stroke="midnightblue" d="M926.62,-828.13C792.28,-827.56 533.02,-826.44 398.56,-825.87"/>
<polygon fill="midnightblue" stroke="midnightblue" points="926.85,-831.63 936.86,-828.18 926.88,-824.63 926.85,-831.63"/>
</g>
<!-- Node8 -->
<g id="node8" class="node">
<title>Node8</title>
<g id="a_node8"><a xlink:href="classdenoptim_1_1ga_1_1_graph_operations.html#a0c851972015fbb4b2a317b053b8b81d9" target="_top" xlink:title="Mutates the given vertex according to the given mutation type, if possible.">
<polygon fill="white" stroke="black" points="0,-783.5 0,-813.5 180,-813.5 180,-783.5 0,-783.5"/>
<text text-anchor="start" x="8" y="-801.5" font-family="Helvetica,sans-Serif" font-size="10.00">denoptim.ga.GraphOperations.perform</text>
<text text-anchor="middle" x="90" y="-790.5" font-family="Helvetica,sans-Serif" font-size="10.00">Mutation</text>
</a>
</g>
</g>
<!-- Node7&#45;&gt;Node8 -->
<g id="edge7" class="edge">
<title>Node7&#45;&gt;Node8</title>
<path fill="none" stroke="midnightblue" d="M215.14,-813.74C203.49,-812.31 191.63,-810.85 180.08,-809.43"/>
<polygon fill="midnightblue" stroke="midnightblue" points="214.96,-817.24 225.31,-814.98 215.81,-810.29 214.96,-817.24"/>
</g>
<!-- Node9&#45;&gt;Node9 -->
<g id="edge9" class="edge">
<title>Node9&#45;&gt;Node9</title>
<path fill="none" stroke="midnightblue" d="M826.16,-791.96C821.17,-796.68 807.79,-800 786,-800 750.25,-800 737.12,-791.06 746.61,-781.66"/>
<polygon fill="midnightblue" stroke="midnightblue" points="829.62,-791.37 825.39,-781.66 822.64,-791.89 829.62,-791.37"/>
</g>
<!-- Node10 -->
<g id="node10" class="node">
<title>Node10</title>
<g id="a_node10"><a xlink:href="classdenoptim_1_1graph_1_1_d_graph.html#a00209ca8b4a9623b41e7d9e1e62f69ec" target="_top" xlink:title="Remove a given vertex belonging to this graph and re&#45;connects the resulting graph branches as much as...">
<polygon fill="white" stroke="black" points="472.5,-755.5 472.5,-785.5 624.5,-785.5 624.5,-755.5 472.5,-755.5"/>
<text text-anchor="start" x="480.5" y="-773.5" font-family="Helvetica,sans-Serif" font-size="10.00">denoptim.graph.DGraph.remove</text>
<text text-anchor="middle" x="548.5" y="-762.5" font-family="Helvetica,sans-Serif" font-size="10.00">VertexAndWeld</text>
</a>
</g>
</g>
<!-- Node9&#45;&gt;Node10 -->
<g id="edge10" class="edge">
<title>Node9&#45;&gt;Node10</title>
<path fill="none" stroke="midnightblue" d="M699.82,-767.95C675.27,-768.36 648.66,-768.82 624.75,-769.22"/>
<polygon fill="midnightblue" stroke="midnightblue" points="699.9,-771.45 709.84,-767.78 699.78,-764.45 699.9,-771.45"/>
</g>
<!-- Node11 -->
<g id="node11" class="node">
<title>Node11</title>
<g id="a_node11"><a xlink:href="classdenoptim_1_1ga_1_1_graph_operations.html#ab3adb5141a8941bf23916bb516faee63" target="_top" xlink:title="Removes a vertex while merging as many of the child branches into the parent vertex.">
<polygon fill="white" stroke="black" points="216,-763 216,-782 408,-782 408,-763 216,-763"/>
<text text-anchor="middle" x="312" y="-770" font-family="Helvetica,sans-Serif" font-size="10.00">denoptim.ga.GraphOperations.deleteLink</text>
</a>
</g>
</g>
<!-- Node10&#45;&gt;Node11 -->
<g id="edge11" class="edge">
<title>Node10&#45;&gt;Node11</title>
<path fill="none" stroke="midnightblue" d="M462.17,-771.23C444.68,-771.38 426.16,-771.53 408.34,-771.69"/>
<polygon fill="midnightblue" stroke="midnightblue" points="462.37,-774.73 472.34,-771.14 462.31,-767.73 462.37,-774.73"/>
</g>
<!-- Node11&#45;&gt;Node8 -->
<g id="edge12" class="edge">
<title>Node11&#45;&gt;Node8</title>
<path fill="none" stroke="midnightblue" d="M220.29,-783.22C207.04,-784.79 193.41,-786.4 180.2,-787.96"/>
<polygon fill="midnightblue" stroke="midnightblue" points="220.81,-786.68 230.33,-782.03 219.99,-779.73 220.81,-786.68"/>
</g>
<!-- Node12&#45;&gt;Node6 -->
<g id="edge29" class="edge">
<title>Node12&#45;&gt;Node6</title>
<path fill="none" stroke="midnightblue" d="M1213.24,-596.45C1202.82,-644.12 1173.39,-748.3 1107,-803.5 1101.73,-807.88 1095.76,-811.5 1089.45,-814.49"/>
<polygon fill="midnightblue" stroke="midnightblue" points="1216.67,-597.15 1215.29,-586.65 1209.82,-595.72 1216.67,-597.15"/>
</g>
<!-- Node13 -->
<g id="node13" class="node">
<title>Node13</title>
<g id="a_node13"><a xlink:href="classdenoptim_1_1graph_1_1_d_graph.html#a4c897937d4e30c60a8a0c02a0c971262" target="_top" xlink:title="Creates a new graph that corresponds to the subgraph of this graph when exploring the spanning tree f...">
<polygon fill="white" stroke="black" points="938.5,-627.5 938.5,-657.5 1087.5,-657.5 1087.5,-627.5 938.5,-627.5"/>
<text text-anchor="start" x="946.5" y="-645.5" font-family="Helvetica,sans-Serif" font-size="10.00">denoptim.graph.DGraph.extract</text>
<text text-anchor="middle" x="1013" y="-634.5" font-family="Helvetica,sans-Serif" font-size="10.00">Subgraph</text>
</a>
</g>
</g>
<!-- Node12&#45;&gt;Node13 -->
<g id="edge14" class="edge">
<title>Node12&#45;&gt;Node13</title>
<path fill="none" stroke="midnightblue" d="M1175.56,-590.61C1155.08,-599.44 1130.02,-609.67 1107,-617.5 1096.55,-621.05 1085.31,-624.43 1074.38,-627.5"/>
<polygon fill="midnightblue" stroke="midnightblue" points="1177.15,-593.74 1184.92,-586.54 1174.35,-587.32 1177.15,-593.74"/>
</g>
<!-- Node14 -->
<g id="node14" class="node">
<title>Node14</title>
<g id="a_node14"><a xlink:href="classdenoptim_1_1ga_1_1_graph_operations_test.html#a2eeb942b25efcbe3b7d829b41ffc3139" target="_top" xlink:title=" ">
<polygon fill="white" stroke="black" points="940.5,-676.5 940.5,-706.5 1085.5,-706.5 1085.5,-676.5 940.5,-676.5"/>
<text text-anchor="start" x="948.5" y="-694.5" font-family="Helvetica,sans-Serif" font-size="10.00">denoptim.ga.GraphOperations</text>
<text text-anchor="middle" x="1013" y="-683.5" font-family="Helvetica,sans-Serif" font-size="10.00">Test.getExpectedSubgraphs</text>
</a>
</g>
</g>
<!-- Node12&#45;&gt;Node14 -->
<g id="edge15" class="edge">
<title>Node12&#45;&gt;Node14</title>
<path fill="none" stroke="midnightblue" d="M1197.45,-594.17C1176.65,-615.79 1142.57,-647.74 1107,-666.5 1099.75,-670.32 1091.87,-673.6 1083.87,-676.39"/>
<polygon fill="midnightblue" stroke="midnightblue" points="1200.17,-596.39 1204.49,-586.72 1195.08,-591.58 1200.17,-596.39"/>
</g>
<!-- Node17 -->
<g id="node17" class="node">
<title>Node17</title>
<g id="a_node17"><a xlink:href="classdenoptim_1_1fragspace_1_1_fragment_space_test.html#af3d68c634b78e89ff2937bdf8ac1387f" target="_top" xlink:title=" ">
<polygon fill="white" stroke="black" points="933,-578.5 933,-608.5 1093,-608.5 1093,-578.5 933,-578.5"/>
<text text-anchor="start" x="941" y="-596.5" font-family="Helvetica,sans-Serif" font-size="10.00">denoptim.fragspace.Fragment</text>
<text text-anchor="middle" x="1013" y="-585.5" font-family="Helvetica,sans-Serif" font-size="10.00">SpaceTest.getExpectedTemplate</text>
</a>
</g>
</g>
<!-- Node12&#45;&gt;Node17 -->
<g id="edge18" class="edge">
<title>Node12&#45;&gt;Node17</title>
<path fill="none" stroke="midnightblue" d="M1132.9,-580.68C1119.7,-582.1 1106.1,-583.57 1093.04,-584.98"/>
<polygon fill="midnightblue" stroke="midnightblue" points="1133.34,-584.15 1142.91,-579.6 1132.59,-577.19 1133.34,-584.15"/>
</g>
<!-- Node22 -->
<g id="node22" class="node">
<title>Node22</title>
<g id="a_node22"><a xlink:href="classdenoptim_1_1gui_1_1_g_u_i_graph_handler.html#af5b000c105018cbd7c262b34f9750044" target="_top" xlink:title="Initialize the panel and add buttons.">
<polygon fill="white" stroke="black" points="919,-540 919,-559 1107,-559 1107,-540 919,-540"/>
<text text-anchor="middle" x="1013" y="-547" font-family="Helvetica,sans-Serif" font-size="10.00">denoptim.gui.GUIGraphHandler.initialize</text>
</a>
</g>
</g>
<!-- Node12&#45;&gt;Node22 -->
<g id="edge23" class="edge">
<title>Node12&#45;&gt;Node22</title>
<path fill="none" stroke="midnightblue" d="M1132.92,-562.32C1122.84,-561.24 1112.53,-560.13 1102.4,-559.03"/>
<polygon fill="midnightblue" stroke="midnightblue" points="1132.59,-565.81 1142.91,-563.4 1133.34,-558.85 1132.59,-565.81"/>
</g>
<!-- Node24 -->
<g id="node24" class="node">
<title>Node24</title>
<g id="a_node24"><a xlink:href="classdenoptim_1_1graph_1_1_d_graph.html#a70a5450315c7af3d64c44179ec2cede8" target="_top" xlink:title="Remove capping groups that belong to this graph and are in the given list.">
<polygon fill="white" stroke="black" points="937,-490.5 937,-520.5 1089,-520.5 1089,-490.5 937,-490.5"/>
<text text-anchor="start" x="945" y="-508.5" font-family="Helvetica,sans-Serif" font-size="10.00">denoptim.graph.DGraph.remove</text>
<text text-anchor="middle" x="1013" y="-497.5" font-family="Helvetica,sans-Serif" font-size="10.00">CappingGroups</text>
</a>
</g>
</g>
<!-- Node12&#45;&gt;Node24 -->
<g id="edge25" class="edge">
<title>Node12&#45;&gt;Node24</title>
<path fill="none" stroke="midnightblue" d="M1170.45,-552.85C1150.93,-545.48 1128.02,-537.19 1107,-530.5 1096.17,-527.05 1084.53,-523.67 1073.27,-520.57"/>
<polygon fill="midnightblue" stroke="midnightblue" points="1169.44,-556.21 1180.03,-556.5 1171.93,-549.67 1169.44,-556.21"/>
</g>
<!-- Node26 -->
<g id="node26" class="node">
<title>Node26</title>
<g id="a_node26"><a xlink:href="classdenoptim_1_1graph_1_1_d_graph.html#aa0420500bab73722508ecc3c6e5fa90d" target="_top" xlink:title="Remove capping groups on the given vertex of this graph.">
<polygon fill="white" stroke="black" points="937,-441.5 937,-471.5 1089,-471.5 1089,-441.5 937,-441.5"/>
<text text-anchor="start" x="945" y="-459.5" font-family="Helvetica,sans-Serif" font-size="10.00">denoptim.graph.DGraph.remove</text>
<text text-anchor="middle" x="1013" y="-448.5" font-family="Helvetica,sans-Serif" font-size="10.00">CappingGroupsOn</text>
</a>
</g>
</g>
<!-- Node12&#45;&gt;Node26 -->
<g id="edge27" class="edge">
<title>Node12&#45;&gt;Node26</title>
<path fill="none" stroke="midnightblue" d="M1157.87,-551.76C1152.56,-548.76 1147.5,-545.36 1143,-541.5 1119.11,-521 1132.15,-499.43 1107,-480.5 1101.54,-476.39 1095.44,-472.98 1089.05,-470.15"/>
<polygon fill="midnightblue" stroke="midnightblue" points="1156.5,-554.98 1166.99,-556.41 1159.68,-548.75 1156.5,-554.98"/>
</g>
<!-- Node27 -->
<g id="node27" class="node">
<title>Node27</title>
<g id="a_node27"><a xlink:href="classdenoptim_1_1graph_1_1_d_graph.html#aea560f1323c57e1264ac3192b4d294d1" target="_top" xlink:title="Deletes the branch, i.e., the specified vertex and its children.">
<polygon fill="white" stroke="black" points="937,-764.5 937,-794.5 1089,-794.5 1089,-764.5 937,-764.5"/>
<text text-anchor="start" x="945" y="-782.5" font-family="Helvetica,sans-Serif" font-size="10.00">denoptim.graph.DGraph.remove</text>
<text text-anchor="middle" x="1013" y="-771.5" font-family="Helvetica,sans-Serif" font-size="10.00">OrphanBranchStartingAt</text>
</a>
</g>
</g>
<!-- Node12&#45;&gt;Node27 -->
<g id="edge30" class="edge">
<title>Node12&#45;&gt;Node27</title>
<path fill="none" stroke="midnightblue" d="M1203.09,-595.2C1183.44,-625.33 1146.66,-677.92 1107,-715.5 1086.65,-734.78 1060.02,-752.49 1040.47,-764.37"/>
<polygon fill="midnightblue" stroke="midnightblue" points="1206.15,-596.92 1208.63,-586.62 1200.27,-593.12 1206.15,-596.92"/>
</g>
<!-- Node12&#45;&gt;Node28 -->
<g id="edge33" class="edge">
<title>Node12&#45;&gt;Node28</title>
<path fill="none" stroke="midnightblue" d="M1152.73,-550.98C1149.11,-548.21 1145.81,-545.07 1143,-541.5 1074.33,-454.37 1153.26,-395.33 1107,-294.5 1089.55,-256.47 1054.27,-221.76 1032.53,-202.74"/>
<polygon fill="midnightblue" stroke="midnightblue" points="1150.82,-553.91 1161.1,-556.47 1154.66,-548.06 1150.82,-553.91"/>
</g>
<!-- Node31 -->
<g id="node31" class="node">
<title>Node31</title>
<g id="a_node31"><a xlink:href="classdenoptim_1_1graph_1_1_d_graph.html#a86e888ef245d2bd40b49d145c7ef3af0" target="_top" xlink:title="Replaced the subgraph represented by a given collection of vertices that belong to this graph.">
<polygon fill="white" stroke="black" points="710,-245.5 710,-275.5 862,-275.5 862,-245.5 710,-245.5"/>
<text text-anchor="start" x="718" y="-263.5" font-family="Helvetica,sans-Serif" font-size="10.00">denoptim.graph.DGraph.replace</text>
<text text-anchor="middle" x="786" y="-252.5" font-family="Helvetica,sans-Serif" font-size="10.00">SubGraph</text>
</a>
</g>
</g>
<!-- Node12&#45;&gt;Node31 -->
<g id="edge46" class="edge">
<title>Node12&#45;&gt;Node31</title>
<path fill="none" stroke="midnightblue" d="M1153.24,-550.87C1149.47,-548.12 1146,-545.02 1143,-541.5 1095.97,-486.39 1158.7,-433.27 1107,-382.5 1046.12,-322.71 988.76,-392.65 919,-343.5 893.89,-325.81 907.75,-302.7 883,-284.5 876.77,-279.92 869.77,-276.21 862.45,-273.2"/>
<polygon fill="midnightblue" stroke="midnightblue" points="1151.58,-553.96 1161.91,-556.32 1155.31,-548.03 1151.58,-553.96"/>
</g>
<!-- Node41 -->
<g id="node41" class="node">
<title>Node41</title>
<g id="a_node41"><a xlink:href="classdenoptim_1_1graph_1_1_d_graph.html#a8fb951a35b028bcf098b8a83d94d7e75" target="_top" xlink:title="Removes unused ring&#45;closing vertices.">
<polygon fill="white" stroke="black" points="937,-392.5 937,-422.5 1089,-422.5 1089,-392.5 937,-392.5"/>
<text text-anchor="start" x="945" y="-410.5" font-family="Helvetica,sans-Serif" font-size="10.00">denoptim.graph.DGraph.replace</text>
<text text-anchor="middle" x="1013" y="-399.5" font-family="Helvetica,sans-Serif" font-size="10.00">UnusedRCVsWithCapps</text>
</a>
</g>
</g>
<!-- Node12&#45;&gt;Node41 -->
<g id="edge47" class="edge">
<title>Node12&#45;&gt;Node41</title>
<path fill="none" stroke="midnightblue" d="M1154.88,-551.41C1150.54,-548.52 1146.51,-545.24 1143,-541.5 1107.81,-503.98 1144.51,-466.7 1107,-431.5 1101.77,-426.59 1095.67,-422.66 1089.15,-419.51"/>
<polygon fill="midnightblue" stroke="midnightblue" points="1153.15,-554.45 1163.55,-556.46 1156.68,-548.4 1153.15,-554.45"/>
</g>
<!-- Node46 -->
<g id="node46" class="node">
<title>Node46</title>
<g id="a_node46"><a xlink:href="classdenoptim_1_1graph_1_1_d_graph_test.html#a337ce2733050aa5d37cec418eb7d9081" target="_top" xlink:title=" ">
<polygon fill="white" stroke="black" points="935,-304.5 935,-334.5 1091,-334.5 1091,-304.5 935,-304.5"/>
<text text-anchor="start" x="943" y="-322.5" font-family="Helvetica,sans-Serif" font-size="10.00">denoptim.graph.DGraphTest.test</text>
<text text-anchor="middle" x="1013" y="-311.5" font-family="Helvetica,sans-Serif" font-size="10.00">RemoveVertex</text>
</a>
</g>
</g>
<!-- Node12&#45;&gt;Node46 -->
<g id="edge52" class="edge">
<title>Node12&#45;&gt;Node46</title>
<path fill="none" stroke="midnightblue" d="M1153.09,-550.99C1149.36,-548.22 1145.93,-545.07 1143,-541.5 1087.88,-474.42 1164.38,-414.65 1107,-349.5 1101.62,-343.39 1094.98,-338.51 1087.76,-334.63"/>
<polygon fill="midnightblue" stroke="midnightblue" points="1151.39,-554.06 1161.7,-556.5 1155.16,-548.16 1151.39,-554.06"/>
</g>
<!-- Node15 -->
<g id="node15" class="node">
<title>Node15</title>
<g id="a_node15"><a xlink:href="classdenoptim_1_1ga_1_1_graph_operations_test.html#af7dad44701e1c81c71d47052733822fd" target="_top" xlink:title="Returns a molecule consisting of two pairs of fused rings connected by an oxygen atom.">
<polygon fill="white" stroke="black" points="713.5,-686.5 713.5,-716.5 858.5,-716.5 858.5,-686.5 713.5,-686.5"/>
<text text-anchor="start" x="721.5" y="-704.5" font-family="Helvetica,sans-Serif" font-size="10.00">denoptim.ga.GraphOperations</text>
<text text-anchor="middle" x="786" y="-693.5" font-family="Helvetica,sans-Serif" font-size="10.00">Test.getFusedRings</text>
</a>
</g>
</g>
<!-- Node14&#45;&gt;Node15 -->
<g id="edge16" class="edge">
<title>Node14&#45;&gt;Node15</title>
<path fill="none" stroke="midnightblue" d="M930.24,-695.13C906.82,-696.17 881.47,-697.3 858.7,-698.31"/>
<polygon fill="midnightblue" stroke="midnightblue" points="930.66,-698.62 940.5,-694.68 930.35,-691.63 930.66,-698.62"/>
</g>
<!-- Node16 -->
<g id="node16" class="node">
<title>Node16</title>
<g id="a_node16"><a xlink:href="classdenoptim_1_1ga_1_1_graph_operations_test.html#a81e15cea05ce67c5b0c2af89d301d072" target="_top" xlink:title=" ">
<polygon fill="white" stroke="black" points="476,-688 476,-729 621,-729 621,-688 476,-688"/>
<text text-anchor="start" x="484" y="-717" font-family="Helvetica,sans-Serif" font-size="10.00">denoptim.ga.GraphOperations</text>
<text text-anchor="start" x="484" y="-706" font-family="Helvetica,sans-Serif" font-size="10.00">Test.testExtractPattern</text>
<text text-anchor="middle" x="548.5" y="-695" font-family="Helvetica,sans-Serif" font-size="10.00">_fusedRings</text>
</a>
</g>
</g>
<!-- Node15&#45;&gt;Node16 -->
<g id="edge17" class="edge">
<title>Node15&#45;&gt;Node16</title>
<path fill="none" stroke="midnightblue" d="M703.29,-703.93C676.57,-704.72 647.11,-705.6 621.18,-706.37"/>
<polygon fill="midnightblue" stroke="midnightblue" points="703.49,-707.42 713.38,-703.63 703.28,-700.43 703.49,-707.42"/>
</g>
<!-- Node18 -->
<g id="node18" class="node">
<title>Node18</title>
<g id="a_node18"><a xlink:href="classdenoptim_1_1fragspace_1_1_fragment_space_test.html#a86c3b01084322d2c465809840d7a3122" target="_top" xlink:title=" ">
<polygon fill="white" stroke="black" points="713.5,-588.5 713.5,-618.5 858.5,-618.5 858.5,-588.5 713.5,-588.5"/>
<text text-anchor="start" x="721.5" y="-606.5" font-family="Helvetica,sans-Serif" font-size="10.00">denoptim.fragspace.Fragment</text>
<text text-anchor="middle" x="786" y="-595.5" font-family="Helvetica,sans-Serif" font-size="10.00">SpaceTest.getTestCase</text>
</a>
</g>
</g>
<!-- Node17&#45;&gt;Node18 -->
<g id="edge19" class="edge">
<title>Node17&#45;&gt;Node18</title>
<path fill="none" stroke="midnightblue" d="M922.96,-597.46C901.62,-598.41 879.11,-599.41 858.68,-600.31"/>
<polygon fill="midnightblue" stroke="midnightblue" points="923.16,-600.95 932.99,-597.01 922.84,-593.96 923.16,-600.95"/>
</g>
<!-- Node19 -->
<g id="node19" class="node">
<title>Node19</title>
<g id="a_node19"><a xlink:href="classdenoptim_1_1fragspace_1_1_fragment_space_test.html#a6f2ce8f6a8319b39440b0dc43ede061f" target="_top" xlink:title="Check that the following graph&#39;s fused ring gets added to the fragment library.">
<polygon fill="white" stroke="black" points="444,-520 444,-561 653,-561 653,-520 444,-520"/>
<text text-anchor="start" x="452" y="-549" font-family="Helvetica,sans-Serif" font-size="10.00">denoptim.fragspace.Fragment</text>
<text text-anchor="start" x="452" y="-538" font-family="Helvetica,sans-Serif" font-size="10.00">SpaceTest.testFusedRingAddedToFragment</text>
<text text-anchor="middle" x="548.5" y="-527" font-family="Helvetica,sans-Serif" font-size="10.00">Library</text>
</a>
</g>
</g>
<!-- Node18&#45;&gt;Node19 -->
<g id="edge20" class="edge">
<title>Node18&#45;&gt;Node19</title>
<path fill="none" stroke="midnightblue" d="M717.08,-585.91C707.65,-583.44 698.08,-580.92 689,-578.5 668.02,-572.91 645.29,-566.76 624.39,-561.07"/>
<polygon fill="midnightblue" stroke="midnightblue" points="716.29,-589.32 726.85,-588.47 718.06,-582.55 716.29,-589.32"/>
</g>
<!-- Node20 -->
<g id="node20" class="node">
<title>Node20</title>
<g id="a_node20"><a xlink:href="classdenoptim_1_1fragspace_1_1_fragment_space_test.html#a56ef448997df677c5ce4a73737f127e2" target="_top" xlink:title="Checks that a graph with a fused ring containing a scaffold vertex is added to the scaffold library.">
<polygon fill="white" stroke="black" points="447,-628 447,-669 650,-669 650,-628 447,-628"/>
<text text-anchor="start" x="455" y="-657" font-family="Helvetica,sans-Serif" font-size="10.00">denoptim.fragspace.Fragment</text>
<text text-anchor="start" x="455" y="-646" font-family="Helvetica,sans-Serif" font-size="10.00">SpaceTest.testFusedRingAddedToScaffold</text>
<text text-anchor="middle" x="548.5" y="-635" font-family="Helvetica,sans-Serif" font-size="10.00">Library</text>
</a>
</g>
</g>
<!-- Node18&#45;&gt;Node20 -->
<g id="edge21" class="edge">
<title>Node18&#45;&gt;Node20</title>
<path fill="none" stroke="midnightblue" d="M703.44,-619.09C686.3,-622.36 668.03,-625.85 650.28,-629.24"/>
<polygon fill="midnightblue" stroke="midnightblue" points="704.22,-622.5 713.38,-617.18 702.9,-615.62 704.22,-622.5"/>
</g>
<!-- Node21 -->
<g id="node21" class="node">
<title>Node21</title>
<g id="a_node21"><a xlink:href="classdenoptim_1_1fragspace_1_1_fragment_space_test.html#a7555fcdf60b6fabae0c95844f351fc6f" target="_top" xlink:title=" ">
<polygon fill="white" stroke="black" points="448.5,-579.5 448.5,-609.5 648.5,-609.5 648.5,-579.5 448.5,-579.5"/>
<text text-anchor="start" x="456.5" y="-597.5" font-family="Helvetica,sans-Serif" font-size="10.00">denoptim.fragspace.Fragment</text>
<text text-anchor="middle" x="548.5" y="-586.5" font-family="Helvetica,sans-Serif" font-size="10.00">SpaceTest.testFusedRingOnlyAddedOnce</text>
</a>
</g>
</g>
<!-- Node18&#45;&gt;Node21 -->
<g id="edge22" class="edge">
<title>Node18&#45;&gt;Node21</title>
<path fill="none" stroke="midnightblue" d="M703.16,-600.37C685.55,-599.7 666.74,-598.98 648.55,-598.29"/>
<polygon fill="midnightblue" stroke="midnightblue" points="703.26,-603.88 713.38,-600.76 703.52,-596.88 703.26,-603.88"/>
</g>
<!-- Node23 -->
<g id="node23" class="node">
<title>Node23</title>
<g id="a_node23"><a xlink:href="classdenoptim_1_1gui_1_1_g_u_i_graph_handler.html#ab7d010d9a384f6b85edce47c95d6723b" target="_top" xlink:title="Constructor.">
<polygon fill="white" stroke="black" points="709,-539.5 709,-569.5 863,-569.5 863,-539.5 709,-539.5"/>
<text text-anchor="start" x="717" y="-557.5" font-family="Helvetica,sans-Serif" font-size="10.00">denoptim.gui.GUIGraphHandler.</text>
<text text-anchor="middle" x="786" y="-546.5" font-family="Helvetica,sans-Serif" font-size="10.00">GUIGraphHandler</text>
</a>
</g>
</g>
<!-- Node22&#45;&gt;Node23 -->
<g id="edge24" class="edge">
<title>Node22&#45;&gt;Node23</title>
<path fill="none" stroke="midnightblue" d="M908.83,-551.79C893.5,-552.13 877.94,-552.48 863.29,-552.8"/>
<polygon fill="midnightblue" stroke="midnightblue" points="908.94,-555.29 918.86,-551.57 908.78,-548.29 908.94,-555.29"/>
</g>
<!-- Node25 -->
<g id="node25" class="node">
<title>Node25</title>
<g id="a_node25"><a xlink:href="classdenoptim_1_1graph_1_1_d_graph_test.html#adc3ee631a1671aa9ffd5ea3cef73b279" target="_top" xlink:title=" ">
<polygon fill="white" stroke="black" points="708,-490.5 708,-520.5 864,-520.5 864,-490.5 708,-490.5"/>
<text text-anchor="start" x="716" y="-508.5" font-family="Helvetica,sans-Serif" font-size="10.00">denoptim.graph.DGraphTest.test</text>
<text text-anchor="middle" x="786" y="-497.5" font-family="Helvetica,sans-Serif" font-size="10.00">RemoveCapping</text>
</a>
</g>
</g>
<!-- Node24&#45;&gt;Node25 -->
<g id="edge26" class="edge">
<title>Node24&#45;&gt;Node25</title>
<path fill="none" stroke="midnightblue" d="M926.49,-505.5C905.98,-505.5 884.19,-505.5 864.08,-505.5"/>
<polygon fill="midnightblue" stroke="midnightblue" points="926.77,-509 936.77,-505.5 926.77,-502 926.77,-509"/>
</g>
<!-- Node26&#45;&gt;Node25 -->
<g id="edge28" class="edge">
<title>Node26&#45;&gt;Node25</title>
<path fill="none" stroke="midnightblue" d="M933.09,-473.69C907.93,-479.16 880.3,-485.18 855.91,-490.49"/>
<polygon fill="midnightblue" stroke="midnightblue" points="933.94,-477.08 942.96,-471.53 932.45,-470.24 933.94,-477.08"/>
</g>
<!-- Node27&#45;&gt;Node5 -->
<g id="edge31" class="edge">
<title>Node27&#45;&gt;Node5</title>
<path fill="none" stroke="midnightblue" d="M936.03,-797.56C930.22,-799.41 924.48,-801.39 919,-803.5 880.14,-818.44 837.95,-841.88 811.99,-857.22"/>
<polygon fill="midnightblue" stroke="midnightblue" points="937.32,-800.82 945.86,-794.56 935.28,-794.13 937.32,-800.82"/>
</g>
<!-- Node27&#45;&gt;Node9 -->
<g id="edge32" class="edge">
<title>Node27&#45;&gt;Node9</title>
<path fill="none" stroke="midnightblue" d="M926.5,-774.56C905.33,-773.34 882.8,-772.04 862.16,-770.84"/>
<polygon fill="midnightblue" stroke="midnightblue" points="926.58,-778.07 936.77,-775.15 926.98,-771.08 926.58,-778.07"/>
</g>
<!-- Node29 -->
<g id="node29" class="node">
<title>Node29</title>
<g id="a_node29"><a xlink:href="classdenoptim_1_1graph_1_1_d_graph.html#a4df69c91a742d22f8d14d44489aeac15" target="_top" xlink:title="Edit this graph according to a given list of edit tasks.">
<polygon fill="white" stroke="black" points="718,-98.5 718,-128.5 854,-128.5 854,-98.5 718,-98.5"/>
<text text-anchor="start" x="726" y="-116.5" font-family="Helvetica,sans-Serif" font-size="10.00">denoptim.graph.DGraph.edit</text>
<text text-anchor="middle" x="786" y="-105.5" font-family="Helvetica,sans-Serif" font-size="10.00">Graph</text>
</a>
</g>
</g>
<!-- Node28&#45;&gt;Node29 -->
<g id="edge34" class="edge">
<title>Node28&#45;&gt;Node29</title>
<path fill="none" stroke="midnightblue" d="M967.4,-168.63C942.78,-158.62 911.5,-146.55 883,-137.5 873.01,-134.33 862.33,-131.31 851.86,-128.54"/>
<polygon fill="midnightblue" stroke="midnightblue" points="966.25,-171.94 976.83,-172.5 968.91,-165.47 966.25,-171.94"/>
</g>
<!-- Node28&#45;&gt;Node31 -->
<g id="edge36" class="edge">
<title>Node28&#45;&gt;Node31</title>
<path fill="none" stroke="midnightblue" d="M965.19,-206.22C940.88,-215.61 910.56,-226.81 883,-235.5 871.91,-239 860,-242.39 848.46,-245.48"/>
<polygon fill="midnightblue" stroke="midnightblue" points="966.48,-209.48 974.53,-202.59 963.94,-202.95 966.48,-209.48"/>
</g>
<!-- Node37 -->
<g id="node37" class="node">
<title>Node37</title>
<g id="a_node37"><a xlink:href="classdenoptim_1_1graph_1_1_d_graph.html#adc362402e41af41656e820def73de5ad" target="_top" xlink:title="Replaced a given vertex belonging to this graph with a new vertex generated specifically for this pur...">
<polygon fill="white" stroke="black" points="710,-0.5 710,-30.5 862,-30.5 862,-0.5 710,-0.5"/>
<text text-anchor="start" x="718" y="-18.5" font-family="Helvetica,sans-Serif" font-size="10.00">denoptim.graph.DGraph.replace</text>
<text text-anchor="middle" x="786" y="-7.5" font-family="Helvetica,sans-Serif" font-size="10.00">Vertex</text>
</a>
</g>
</g>
<!-- Node28&#45;&gt;Node37 -->
<g id="edge42" class="edge">
<title>Node28&#45;&gt;Node37</title>
<path fill="none" stroke="midnightblue" d="M997.87,-163.61C977.01,-130.52 934.81,-71.23 883,-39.5 876.55,-35.55 869.49,-32.25 862.2,-29.5"/>
<polygon fill="midnightblue" stroke="midnightblue" points="994.94,-165.54 1003.17,-172.21 1000.9,-161.86 994.94,-165.54"/>
</g>
<!-- Node38 -->
<g id="node38" class="node">
<title>Node38</title>
<g id="a_node38"><a xlink:href="classdenoptim_1_1graph_1_1_d_graph_test.html#aea227d615f6c2f3bac5839a8099a900d" target="_top" xlink:title=" ">
<polygon fill="white" stroke="black" points="708,-196.5 708,-226.5 864,-226.5 864,-196.5 708,-196.5"/>
<text text-anchor="start" x="716" y="-214.5" font-family="Helvetica,sans-Serif" font-size="10.00">denoptim.graph.DGraphTest.test</text>
<text text-anchor="middle" x="786" y="-203.5" font-family="Helvetica,sans-Serif" font-size="10.00">IsIsostructuralTo</text>
</a>
</g>
</g>
<!-- Node28&#45;&gt;Node38 -->
<g id="edge43" class="edge">
<title>Node28&#45;&gt;Node38</title>
<path fill="none" stroke="midnightblue" d="M926.77,-196.59C906.18,-198.79 884.28,-201.12 864.08,-203.28"/>
<polygon fill="midnightblue" stroke="midnightblue" points="927.19,-200.07 936.77,-195.53 926.45,-193.11 927.19,-200.07"/>
</g>
<!-- Node39 -->
<g id="node39" class="node">
<title>Node39</title>
<g id="a_node39"><a xlink:href="classdenoptim_1_1graph_1_1_d_graph_test.html#a83a9624ea5dc6a2c515407b865b62611" target="_top" xlink:title=" ">
<polygon fill="white" stroke="black" points="708,-147.5 708,-177.5 864,-177.5 864,-147.5 708,-147.5"/>
<text text-anchor="start" x="716" y="-165.5" font-family="Helvetica,sans-Serif" font-size="10.00">denoptim.graph.DGraphTest.test</text>
<text text-anchor="middle" x="786" y="-154.5" font-family="Helvetica,sans-Serif" font-size="10.00">ReplaceSubGraph</text>
</a>
</g>
</g>
<!-- Node28&#45;&gt;Node39 -->
<g id="edge44" class="edge">
<title>Node28&#45;&gt;Node39</title>
<path fill="none" stroke="midnightblue" d="M926.77,-178.03C906.18,-175.74 884.28,-173.31 864.08,-171.06"/>
<polygon fill="midnightblue" stroke="midnightblue" points="926.44,-181.51 936.77,-179.14 927.21,-174.56 926.44,-181.51"/>
</g>
<!-- Node40 -->
<g id="node40" class="node">
<title>Node40</title>
<g id="a_node40"><a xlink:href="classdenoptim_1_1graph_1_1_d_graph_test.html#a0c949ec1131a872dea53524614b3b42a" target="_top" xlink:title=" ">
<polygon fill="white" stroke="black" points="708,-49.5 708,-79.5 864,-79.5 864,-49.5 708,-49.5"/>
<text text-anchor="start" x="716" y="-67.5" font-family="Helvetica,sans-Serif" font-size="10.00">denoptim.graph.DGraphTest.test</text>
<text text-anchor="middle" x="786" y="-56.5" font-family="Helvetica,sans-Serif" font-size="10.00">ReplaceSubGraph_inTemplate</text>
</a>
</g>
</g>
<!-- Node28&#45;&gt;Node40 -->
<g id="edge45" class="edge">
<title>Node28&#45;&gt;Node40</title>
<path fill="none" stroke="midnightblue" d="M989.44,-165.48C965.12,-142.93 924.29,-108.44 883,-88.5 875.88,-85.06 868.22,-82.09 860.45,-79.52"/>
<polygon fill="midnightblue" stroke="midnightblue" points="987.06,-168.04 996.74,-172.35 991.86,-162.94 987.06,-168.04"/>
</g>
<!-- Node30 -->
<g id="node30" class="node">
<title>Node30</title>
<g id="a_node30"><a xlink:href="classdenoptim_1_1programs_1_1grapheditor_1_1_graph_editor.html#a649a62e3d4635ef4c19424fa49e6dcd4" target="_top" xlink:title=" ">
<polygon fill="white" stroke="black" points="472.5,-98.5 472.5,-128.5 624.5,-128.5 624.5,-98.5 472.5,-98.5"/>
<text text-anchor="start" x="480.5" y="-116.5" font-family="Helvetica,sans-Serif" font-size="10.00">denoptim.programs.grapheditor.</text>
<text text-anchor="middle" x="548.5" y="-105.5" font-family="Helvetica,sans-Serif" font-size="10.00">GraphEditor.runProgram</text>
</a>
</g>
</g>
<!-- Node29&#45;&gt;Node30 -->
<g id="edge35" class="edge">
<title>Node29&#45;&gt;Node30</title>
<path fill="none" stroke="midnightblue" d="M707.76,-113.5C681.05,-113.5 651.17,-113.5 624.62,-113.5"/>
<polygon fill="midnightblue" stroke="midnightblue" points="707.83,-117 717.83,-113.5 707.83,-110 707.83,-117"/>
</g>
<!-- Node32 -->
<g id="node32" class="node">
<title>Node32</title>
<g id="a_node32"><a xlink:href="classdenoptim_1_1graph_1_1_d_graph.html#a1cb3c55237933f7a4d32e002175b84bc" target="_top" xlink:title="Searches for the given pattern type and generated a new graph where each set of (clones of) vertexes ...">
<polygon fill="white" stroke="black" points="474,-270.5 474,-300.5 623,-300.5 623,-270.5 474,-270.5"/>
<text text-anchor="start" x="482" y="-288.5" font-family="Helvetica,sans-Serif" font-size="10.00">denoptim.graph.DGraph.embed</text>
<text text-anchor="middle" x="548.5" y="-277.5" font-family="Helvetica,sans-Serif" font-size="10.00">PatternsInTemplates</text>
</a>
</g>
</g>
<!-- Node31&#45;&gt;Node32 -->
<g id="edge37" class="edge">
<title>Node31&#45;&gt;Node32</title>
<path fill="none" stroke="midnightblue" d="M699.62,-269.56C674.57,-272.22 647.4,-275.11 623.14,-277.68"/>
<polygon fill="midnightblue" stroke="midnightblue" points="700.26,-273.02 709.84,-268.48 699.53,-266.05 700.26,-273.02"/>
</g>
<!-- Node33 -->
<g id="node33" class="node">
<title>Node33</title>
<g id="a_node33"><a xlink:href="classdenoptim_1_1ga_1_1_graph_operations.html#affb1be89a32e4a429bd7dbdfe0708419" target="_top" xlink:title="Performs the crossover that swaps the two subgraphs defining the given XoverSite.">
<polygon fill="white" stroke="black" points="458.5,-221.5 458.5,-251.5 638.5,-251.5 638.5,-221.5 458.5,-221.5"/>
<text text-anchor="start" x="466.5" y="-239.5" font-family="Helvetica,sans-Serif" font-size="10.00">denoptim.ga.GraphOperations.perform</text>
<text text-anchor="middle" x="548.5" y="-228.5" font-family="Helvetica,sans-Serif" font-size="10.00">Crossover</text>
</a>
</g>
</g>
<!-- Node31&#45;&gt;Node33 -->
<g id="edge38" class="edge">
<title>Node31&#45;&gt;Node33</title>
<path fill="none" stroke="midnightblue" d="M699.62,-251.8C679.83,-249.78 658.71,-247.63 638.75,-245.6"/>
<polygon fill="midnightblue" stroke="midnightblue" points="699.54,-255.31 709.84,-252.84 700.25,-248.34 699.54,-255.31"/>
</g>
<!-- Node34 -->
<g id="node34" class="node">
<title>Node34</title>
<g id="a_node34"><a xlink:href="classdenoptim_1_1ga_1_1_e_a_utils.html#a0b958439d79fae30f14530213ad22e3a" target="_top" xlink:title="Generates up to a pair of new offspring by performing a crossover operation.">
<polygon fill="white" stroke="black" points="248.5,-246.5 248.5,-276.5 375.5,-276.5 375.5,-246.5 248.5,-246.5"/>
<text text-anchor="start" x="256.5" y="-264.5" font-family="Helvetica,sans-Serif" font-size="10.00">denoptim.ga.EAUtils.build</text>
<text text-anchor="middle" x="312" y="-253.5" font-family="Helvetica,sans-Serif" font-size="10.00">CandidatesByXOver</text>
</a>
</g>
</g>
<!-- Node33&#45;&gt;Node34 -->
<g id="edge39" class="edge">
<title>Node33&#45;&gt;Node34</title>
<path fill="none" stroke="midnightblue" d="M448.12,-247.09C423.63,-249.71 398.07,-252.43 375.86,-254.8"/>
<polygon fill="midnightblue" stroke="midnightblue" points="448.6,-250.56 458.18,-246.02 447.86,-243.6 448.6,-250.56"/>
</g>
<!-- Node35 -->
<g id="node35" class="node">
<title>Node35</title>
<g id="a_node35"><a xlink:href="classdenoptim_1_1programs_1_1genetweeker_1_1_gene_ops_runner.html#ab0f92a94c4fb2334e7d3813e73fc4247" target="_top" xlink:title=" ">
<polygon fill="white" stroke="black" points="232.5,-197.5 232.5,-227.5 391.5,-227.5 391.5,-197.5 232.5,-197.5"/>
<text text-anchor="start" x="240.5" y="-215.5" font-family="Helvetica,sans-Serif" font-size="10.00">denoptim.programs.genetweeker.</text>
<text text-anchor="middle" x="312" y="-204.5" font-family="Helvetica,sans-Serif" font-size="10.00">GeneOpsRunner.runXOver</text>
</a>
</g>
</g>
<!-- Node33&#45;&gt;Node35 -->
<g id="edge40" class="edge">
<title>Node33&#45;&gt;Node35</title>
<path fill="none" stroke="midnightblue" d="M448.1,-226.33C429.26,-224.4 409.8,-222.41 391.72,-220.56"/>
<polygon fill="midnightblue" stroke="midnightblue" points="447.87,-229.82 458.18,-227.36 448.58,-222.86 447.87,-229.82"/>
</g>
<!-- Node36 -->
<g id="node36" class="node">
<title>Node36</title>
<g id="a_node36"><a xlink:href="classdenoptim_1_1programs_1_1genetweeker_1_1_gene_ops_runner.html#a3c2407eb1204a7b25600d3d347d98447" target="_top" xlink:title=" ">
<polygon fill="white" stroke="black" points="10.5,-197.5 10.5,-227.5 169.5,-227.5 169.5,-197.5 10.5,-197.5"/>
<text text-anchor="start" x="18.5" y="-215.5" font-family="Helvetica,sans-Serif" font-size="10.00">denoptim.programs.genetweeker.</text>
<text text-anchor="middle" x="90" y="-204.5" font-family="Helvetica,sans-Serif" font-size="10.00">GeneOpsRunner.runProgram</text>
</a>
</g>
</g>
<!-- Node35&#45;&gt;Node36 -->
<g id="edge41" class="edge">
<title>Node35&#45;&gt;Node36</title>
<path fill="none" stroke="midnightblue" d="M222.07,-212.5C204.71,-212.5 186.62,-212.5 169.62,-212.5"/>
<polygon fill="midnightblue" stroke="midnightblue" points="222.2,-216 232.2,-212.5 222.2,-209 222.2,-216"/>
</g>
<!-- Node42 -->
<g id="node42" class="node">
<title>Node42</title>
<g id="a_node42"><a xlink:href="classdenoptim_1_1combinatorial_1_1_graph_building_task.html#a3eaee724fc921194fa158714aafe182d" target="_top" xlink:title="Calls the task.">
<polygon fill="white" stroke="black" points="713.5,-441.5 713.5,-471.5 858.5,-471.5 858.5,-441.5 713.5,-441.5"/>
<text text-anchor="start" x="721.5" y="-459.5" font-family="Helvetica,sans-Serif" font-size="10.00">denoptim.combinatorial.Graph</text>
<text text-anchor="middle" x="786" y="-448.5" font-family="Helvetica,sans-Serif" font-size="10.00">BuildingTask.call</text>
</a>
</g>
</g>
<!-- Node41&#45;&gt;Node42 -->
<g id="edge48" class="edge">
<title>Node41&#45;&gt;Node42</title>
<path fill="none" stroke="midnightblue" d="M933.09,-424.69C907.93,-430.16 880.3,-436.18 855.91,-441.49"/>
<polygon fill="midnightblue" stroke="midnightblue" points="933.94,-428.08 942.96,-422.53 932.45,-421.24 933.94,-428.08"/>
</g>
<!-- Node43 -->
<g id="node43" class="node">
<title>Node43</title>
<g id="a_node43"><a xlink:href="classdenoptim_1_1ga_1_1_offspring_evaluation_task.html#aab5b9c0b8a88922460f5c28ae161d1fa" target="_top" xlink:title=" ">
<polygon fill="white" stroke="black" points="708.5,-392.5 708.5,-422.5 863.5,-422.5 863.5,-392.5 708.5,-392.5"/>
<text text-anchor="start" x="716.5" y="-410.5" font-family="Helvetica,sans-Serif" font-size="10.00">denoptim.ga.OffspringEvaluation</text>
<text text-anchor="middle" x="786" y="-399.5" font-family="Helvetica,sans-Serif" font-size="10.00">Task.call</text>
</a>
</g>
</g>
<!-- Node41&#45;&gt;Node43 -->
<g id="edge49" class="edge">
<title>Node41&#45;&gt;Node43</title>
<path fill="none" stroke="midnightblue" d="M926.72,-407.5C906.01,-407.5 883.99,-407.5 863.7,-407.5"/>
<polygon fill="midnightblue" stroke="midnightblue" points="926.77,-411 936.77,-407.5 926.77,-404 926.77,-411"/>
</g>
<!-- Node44 -->
<g id="node44" class="node">
<title>Node44</title>
<g id="a_node44"><a xlink:href="classdenoptim_1_1programs_1_1fitnessevaluator_1_1_fitness_evaluation_task.html#a498b4214d06fc161d92cf1a38635ece3" target="_top" xlink:title=" ">
<polygon fill="white" stroke="black" points="700,-343.5 700,-373.5 872,-373.5 872,-343.5 700,-343.5"/>
<text text-anchor="start" x="708" y="-361.5" font-family="Helvetica,sans-Serif" font-size="10.00">denoptim.programs.fitnessevaluator.</text>
<text text-anchor="middle" x="786" y="-350.5" font-family="Helvetica,sans-Serif" font-size="10.00">FitnessEvaluationTask.call</text>
</a>
</g>
</g>
<!-- Node41&#45;&gt;Node44 -->
<g id="edge50" class="edge">
<title>Node41&#45;&gt;Node44</title>
<path fill="none" stroke="midnightblue" d="M933.09,-390.31C907.93,-384.84 880.3,-378.82 855.91,-373.51"/>
<polygon fill="midnightblue" stroke="midnightblue" points="932.45,-393.76 942.96,-392.47 933.94,-386.92 932.45,-393.76"/>
</g>
<!-- Node45 -->
<g id="node45" class="node">
<title>Node45</title>
<g id="a_node45"><a xlink:href="classdenoptim_1_1graph_1_1_d_graph_test.html#a42ea1a0adbc30b78070c3096171094a9" target="_top" xlink:title=" ">
<polygon fill="white" stroke="black" points="708,-294.5 708,-324.5 864,-324.5 864,-294.5 708,-294.5"/>
<text text-anchor="start" x="716" y="-312.5" font-family="Helvetica,sans-Serif" font-size="10.00">denoptim.graph.DGraphTest.test</text>
<text text-anchor="middle" x="786" y="-301.5" font-family="Helvetica,sans-Serif" font-size="10.00">RemoveUnusedRCVs</text>
</a>
</g>
</g>
<!-- Node41&#45;&gt;Node45 -->
<g id="edge51" class="edge">
<title>Node41&#45;&gt;Node45</title>
<path fill="none" stroke="midnightblue" d="M938.66,-388.36C931.75,-385.24 925.07,-381.64 919,-377.5 898.13,-363.26 904.34,-347.03 883,-333.5 877.2,-329.82 870.86,-326.71 864.31,-324.07"/>
<polygon fill="midnightblue" stroke="midnightblue" points="937.6,-391.71 948.18,-392.32 940.29,-385.25 937.6,-391.71"/>
</g>
</g>
</svg>
