<?xml version="1.0" encoding="UTF-8" standalone="no"?>
<!DOCTYPE svg PUBLIC "-//W3C//DTD SVG 1.1//EN"
 "http://www.w3.org/Graphics/SVG/1.1/DTD/svg11.dtd">
<!-- Generated by graphviz version 3.0.0 (20221109.1736)
 -->
<!-- Title: denoptim.graph.Edge.BondType.hasCDKAnalogue Pages: 1 -->
<!--zoomable 335 -->
<svg id="main" version="1.1" xmlns="http://www.w3.org/2000/svg" xmlns:xlink="http://www.w3.org/1999/xlink" xml:space="preserve" onload="init(evt)">
<style type="text/css"><![CDATA[
.edge:hover path { stroke: red; }
.edge:hover polygon { stroke: red; fill: red; }
]]></style>
<script type="text/javascript"><![CDATA[
var edges = document.getElementsByTagName('g');
if (edges && edges.length) {
  for (var i=0;i<edges.length;i++) {
    if (edges[i].id.substr(0,4)=='edge') {
      edges[i].setAttribute('class','edge');
    }
  }
}
]]></script>
        <defs>
                <circle id="rim" cx="0" cy="0" r="7"/>
                <circle id="rim2" cx="0" cy="0" r="3.5"/>
                <g id="zoomPlus">
                        <use xlink:href="#rim" fill="#404040">
                                <set attributeName="fill" to="#808080" begin="zoomplus.mouseover" end="zoomplus.mouseout"/>
                        </use>
                        <path d="M-4,0h8M0,-4v8" fill="none" stroke="white" stroke-width="1.5" pointer-events="none"/>
                </g>
                <g id="zoomMin">
                        <use xlink:href="#rim" fill="#404040">
                                <set attributeName="fill" to="#808080" begin="zoomminus.mouseover" end="zoomminus.mouseout"/>
                        </use>
                        <path d="M-4,0h8" fill="none" stroke="white" stroke-width="1.5" pointer-events="none"/>
                </g>
                <g id="dirArrow">
                        <path fill="none" stroke="white" stroke-width="1.5" d="M0,-3.0v7 M-2.5,-0.5L0,-3.0L2.5,-0.5"/>
                </g>
               <g id="resetDef">
                       <use xlink:href="#rim2" fill="#404040">
                               <set attributeName="fill" to="#808080" begin="reset.mouseover" end="reset.mouseout"/>
                       </use>
               </g>
        </defs>

<script type="text/javascript">
var viewWidth = 2001;
var viewHeight = 335;
var sectionId = 'dynsection-2';
</script>
<script xlink:href="svgpan.js"/>
<svg id="graph" class="graph">
<g id="viewport">
<title>denoptim.graph.Edge.BondType.hasCDKAnalogue</title>
<polygon fill="white" stroke="transparent" points="-4,4 -4,-331 1997,-331 1997,4 -4,4"/>
<!-- Node1 -->
<g id="node1" class="node">
<title>Node1</title>
<g id="a_node1"><a xlink:title="Checks if it is possible to convert this edge type into a CDK bond.">
<polygon fill="#bfbfbf" stroke="black" points="1862,-168 1862,-198 1993,-198 1993,-168 1862,-168"/>
<text text-anchor="start" x="1870" y="-186" font-family="Helvetica,sans-Serif" font-size="10.00">denoptim.graph.Edge.Bond</text>
<text text-anchor="middle" x="1927.5" y="-175" font-family="Helvetica,sans-Serif" font-size="10.00">Type.hasCDKAnalogue</text>
</a>
</g>
</g>
<!-- Node2 -->
<g id="node2" class="node">
<title>Node2</title>
<g id="a_node2"><a xlink:href="classdenoptim_1_1molecularmodeling_1_1_chemical_object_model.html#a85aaa2ca417ef0cf65457ad46f288344" target="_top" xlink:title="Modify the molecule adding a cyclic bond between two atoms.">
<polygon fill="white" stroke="black" points="1650,-237 1650,-267 1802,-267 1802,-237 1650,-237"/>
<text text-anchor="start" x="1658" y="-255" font-family="Helvetica,sans-Serif" font-size="10.00">denoptim.molecularmodeling.</text>
<text text-anchor="middle" x="1726" y="-244" font-family="Helvetica,sans-Serif" font-size="10.00">ChemicalObjectModel.addBond</text>
</a>
</g>
</g>
<!-- Node1&#45;&gt;Node2 -->
<g id="edge1" class="edge">
<title>Node1&#45;&gt;Node2</title>
<path fill="none" stroke="midnightblue" d="M1879.89,-201.93C1863.02,-208.56 1843.75,-215.88 1826,-222 1810.97,-227.18 1794.51,-232.37 1779.39,-236.93"/>
<polygon fill="midnightblue" stroke="midnightblue" points="1881.51,-205.06 1889.52,-198.12 1878.93,-198.55 1881.51,-205.06"/>
</g>
<!-- Node3 -->
<g id="node3" class="node">
<title>Node3</title>
<g id="a_node3"><a xlink:href="classdenoptim_1_1molecularmodeling_1_1_ring_closure_tool.html#a065481cf3ca3229eee8b417fa3f7c0b5" target="_top" xlink:title="Makes new rings by connecting pairs of atoms that hold properly arranged RingClosingAttractors.">
<polygon fill="white" stroke="black" points="1429,-281 1429,-311 1571,-311 1571,-281 1429,-281"/>
<text text-anchor="start" x="1437" y="-299" font-family="Helvetica,sans-Serif" font-size="10.00">denoptim.molecularmodeling.</text>
<text text-anchor="middle" x="1500" y="-288" font-family="Helvetica,sans-Serif" font-size="10.00">RingClosureTool.closeRings</text>
</a>
</g>
</g>
<!-- Node1&#45;&gt;Node3 -->
<g id="edge27" class="edge">
<title>Node1&#45;&gt;Node3</title>
<path fill="none" stroke="midnightblue" d="M1909.69,-206.18C1891.79,-228.78 1861.24,-261.89 1826,-277 1743.8,-312.26 1639.03,-311.19 1571.01,-305.23"/>
<polygon fill="midnightblue" stroke="midnightblue" points="1912.59,-208.15 1915.91,-198.09 1907.04,-203.88 1912.59,-208.15"/>
</g>
<!-- Node8 -->
<g id="node8" class="node">
<title>Node8</title>
<g id="a_node8"><a xlink:href="classdenoptim_1_1graph_1_1rings_1_1_cyclic_graph_handler_1_1_ring_size_manager.html#a0fc0f3889f18d330fc50f28a4264ca21" target="_top" xlink:title=" ">
<polygon fill="white" stroke="black" points="1413.5,-187.5 1413.5,-228.5 1586.5,-228.5 1586.5,-187.5 1413.5,-187.5"/>
<text text-anchor="start" x="1421.5" y="-216.5" font-family="Helvetica,sans-Serif" font-size="10.00">denoptim.graph.rings.Cyclic</text>
<text text-anchor="start" x="1421.5" y="-205.5" font-family="Helvetica,sans-Serif" font-size="10.00">GraphHandler.RingSizeManager.add</text>
<text text-anchor="middle" x="1500" y="-194.5" font-family="Helvetica,sans-Serif" font-size="10.00">RingClosingBond</text>
</a>
</g>
</g>
<!-- Node1&#45;&gt;Node8 -->
<g id="edge7" class="edge">
<title>Node1&#45;&gt;Node8</title>
<path fill="none" stroke="midnightblue" d="M1851.75,-187.47C1843.07,-187.99 1834.34,-188.51 1826,-189 1744.75,-193.8 1652.08,-199.21 1586.54,-203.03"/>
<polygon fill="midnightblue" stroke="midnightblue" points="1852.12,-190.96 1861.9,-186.87 1851.71,-183.97 1852.12,-190.96"/>
</g>
<!-- Node21 -->
<g id="node21" class="node">
<title>Node21</title>
<g id="a_node21"><a xlink:href="classdenoptim_1_1molecularmodeling_1_1_three_dim_tree_builder.html#a91fba166ba9fe73858ed16209d575cc5" target="_top" xlink:title="Recursive method that appends branches of building blocks following the edges of the graph.">
<polygon fill="white" stroke="black" points="1626,-60.5 1626,-101.5 1826,-101.5 1826,-60.5 1626,-60.5"/>
<text text-anchor="start" x="1634" y="-89.5" font-family="Helvetica,sans-Serif" font-size="10.00">denoptim.molecularmodeling.</text>
<text text-anchor="start" x="1634" y="-78.5" font-family="Helvetica,sans-Serif" font-size="10.00">ThreeDimTreeBuilder.append3DFragments</text>
<text text-anchor="middle" x="1726" y="-67.5" font-family="Helvetica,sans-Serif" font-size="10.00">ViaEdges</text>
</a>
</g>
</g>
<!-- Node1&#45;&gt;Node21 -->
<g id="edge24" class="edge">
<title>Node1&#45;&gt;Node21</title>
<path fill="none" stroke="midnightblue" d="M1890.02,-162.93C1871.03,-152.6 1847.37,-139.92 1826,-129 1807.97,-119.79 1787.9,-109.98 1770.56,-101.64"/>
<polygon fill="midnightblue" stroke="midnightblue" points="1888.48,-166.07 1898.94,-167.79 1891.83,-159.93 1888.48,-166.07"/>
</g>
<!-- Node23 -->
<g id="node23" class="node">
<title>Node23</title>
<g id="a_node23"><a xlink:href="classdenoptim_1_1graph_1_1rings_1_1_cyclic_graph_handler.html#ae14cac1f0746cf7b50db933cab59e4e4" target="_top" xlink:title="Method to evaluate the closability of a single path considering only its constitution.">
<polygon fill="white" stroke="black" points="1638.5,-138.5 1638.5,-179.5 1813.5,-179.5 1813.5,-138.5 1638.5,-138.5"/>
<text text-anchor="start" x="1646.5" y="-167.5" font-family="Helvetica,sans-Serif" font-size="10.00">denoptim.graph.rings.Cyclic</text>
<text text-anchor="start" x="1646.5" y="-156.5" font-family="Helvetica,sans-Serif" font-size="10.00">GraphHandler.evaluateConstitutional</text>
<text text-anchor="middle" x="1726" y="-145.5" font-family="Helvetica,sans-Serif" font-size="10.00">Closability</text>
</a>
</g>
</g>
<!-- Node1&#45;&gt;Node23 -->
<g id="edge28" class="edge">
<title>Node1&#45;&gt;Node23</title>
<path fill="none" stroke="midnightblue" d="M1851.48,-173.98C1839.12,-172.49 1826.21,-170.93 1813.58,-169.42"/>
<polygon fill="midnightblue" stroke="midnightblue" points="1851.38,-177.49 1861.73,-175.21 1852.22,-170.54 1851.38,-177.49"/>
</g>
<!-- Node28 -->
<g id="node28" class="node">
<title>Node28</title>
<g id="a_node28"><a xlink:href="classdenoptim_1_1utils_1_1_molecule_utils.html#a1d0f69b9fe60e2df6c934b129eb2b044" target="_top" xlink:title="Replace used RCAs (i.e., those involved in Rings) while adding the ring closing bonds.">
<polygon fill="white" stroke="black" points="1639.5,-12 1639.5,-42 1812.5,-42 1812.5,-12 1639.5,-12"/>
<text text-anchor="start" x="1647.5" y="-30" font-family="Helvetica,sans-Serif" font-size="10.00">denoptim.utils.MoleculeUtils.remove</text>
<text text-anchor="middle" x="1726" y="-19" font-family="Helvetica,sans-Serif" font-size="10.00">UsedRCA</text>
</a>
</g>
</g>
<!-- Node1&#45;&gt;Node28 -->
<g id="edge35" class="edge">
<title>Node1&#45;&gt;Node28</title>
<path fill="none" stroke="midnightblue" d="M1914.63,-158.63C1898.71,-128.58 1867.55,-78.16 1826,-51 1820.82,-47.61 1815.2,-44.7 1809.37,-42.2"/>
<polygon fill="midnightblue" stroke="midnightblue" points="1911.57,-160.33 1919.26,-167.61 1917.79,-157.12 1911.57,-160.33"/>
</g>
<!-- Node2&#45;&gt;Node3 -->
<g id="edge2" class="edge">
<title>Node2&#45;&gt;Node3</title>
<path fill="none" stroke="midnightblue" d="M1639.83,-268.73C1617.14,-273.19 1592.88,-277.95 1571.1,-282.23"/>
<polygon fill="midnightblue" stroke="midnightblue" points="1640.65,-272.14 1649.79,-266.77 1639.3,-265.27 1640.65,-272.14"/>
</g>
<!-- Node4 -->
<g id="node4" class="node">
<title>Node4</title>
<g id="a_node4"><a xlink:href="classdenoptim_1_1molecularmodeling_1_1_ring_closure_tool.html#abd87e8b7391948be1c3156eb9d131be7" target="_top" xlink:title="Attempts to close rings by finding the conformation that allows to join heads and tails of atom speci...">
<polygon fill="white" stroke="black" points="1194,-283 1194,-313 1370,-313 1370,-283 1194,-283"/>
<text text-anchor="start" x="1202" y="-301" font-family="Helvetica,sans-Serif" font-size="10.00">denoptim.molecularmodeling.</text>
<text text-anchor="middle" x="1282" y="-290" font-family="Helvetica,sans-Serif" font-size="10.00">RingClosureTool.attemptRingClosure</text>
</a>
</g>
</g>
<!-- Node3&#45;&gt;Node4 -->
<g id="edge3" class="edge">
<title>Node3&#45;&gt;Node4</title>
<path fill="none" stroke="midnightblue" d="M1418.62,-296.74C1402.82,-296.89 1386.18,-297.04 1370.16,-297.19"/>
<polygon fill="midnightblue" stroke="midnightblue" points="1418.9,-300.24 1428.87,-296.65 1418.84,-293.24 1418.9,-300.24"/>
</g>
<!-- Node5 -->
<g id="node5" class="node">
<title>Node5</title>
<g id="a_node5"><a xlink:href="classdenoptim_1_1molecularmodeling_1_1_ring_closure_tool.html#a26896649739e0a5e63dd88079c6efe7a" target="_top" xlink:title="Performs one or more attempts to close rings by conformational adaptation.">
<polygon fill="white" stroke="black" points="962,-284 962,-314 1154,-314 1154,-284 962,-284"/>
<text text-anchor="start" x="970" y="-302" font-family="Helvetica,sans-Serif" font-size="10.00">denoptim.molecularmodeling.</text>
<text text-anchor="middle" x="1058" y="-291" font-family="Helvetica,sans-Serif" font-size="10.00">RingClosureTool.attemptAllRingClosures</text>
</a>
</g>
</g>
<!-- Node4&#45;&gt;Node5 -->
<g id="edge4" class="edge">
<title>Node4&#45;&gt;Node5</title>
<path fill="none" stroke="midnightblue" d="M1183.77,-298.44C1173.98,-298.48 1164.05,-298.53 1154.29,-298.57"/>
<polygon fill="midnightblue" stroke="midnightblue" points="1183.91,-301.94 1193.9,-298.39 1183.88,-294.94 1183.91,-301.94"/>
</g>
<!-- Node6 -->
<g id="node6" class="node">
<title>Node6</title>
<g id="a_node6"><a xlink:href="classdenoptim_1_1molecularmodeling_1_1_multi_molecular_model_builder.html#a6a8e314f3fb37f66c32c8c4d5695b8a4" target="_top" xlink:title="Given the graph representation of the molecular constitution, along with the 3D coordinates of the fr...">
<polygon fill="white" stroke="black" points="768,-285.5 768,-326.5 926,-326.5 926,-285.5 768,-285.5"/>
<text text-anchor="start" x="776" y="-314.5" font-family="Helvetica,sans-Serif" font-size="10.00">denoptim.molecularmodeling.</text>
<text text-anchor="start" x="776" y="-303.5" font-family="Helvetica,sans-Serif" font-size="10.00">MultiMolecularModelBuilder.build</text>
<text text-anchor="middle" x="847" y="-292.5" font-family="Helvetica,sans-Serif" font-size="10.00">Multi3DStructure</text>
</a>
</g>
</g>
<!-- Node5&#45;&gt;Node6 -->
<g id="edge5" class="edge">
<title>Node5&#45;&gt;Node6</title>
<path fill="none" stroke="midnightblue" d="M951.85,-302.52C943.22,-302.81 934.59,-303.1 926.2,-303.38"/>
<polygon fill="midnightblue" stroke="midnightblue" points="952.1,-306.02 961.98,-302.18 951.87,-299.02 952.1,-306.02"/>
</g>
<!-- Node7 -->
<g id="node7" class="node">
<title>Node7</title>
<g id="a_node7"><a xlink:href="classdenoptim_1_1programs_1_1moldecularmodelbuilder_1_1_molecular_model_builder.html#ad2e44290de6a861274def677044e9754" target="_top" xlink:title=" ">
<polygon fill="white" stroke="black" points="526,-291 526,-321 732,-321 732,-291 526,-291"/>
<text text-anchor="start" x="534" y="-309" font-family="Helvetica,sans-Serif" font-size="10.00">denoptim.programs.moldecularmodelbuilder.</text>
<text text-anchor="middle" x="629" y="-298" font-family="Helvetica,sans-Serif" font-size="10.00">MolecularModelBuilder.runProgram</text>
</a>
</g>
</g>
<!-- Node6&#45;&gt;Node7 -->
<g id="edge6" class="edge">
<title>Node6&#45;&gt;Node7</title>
<path fill="none" stroke="midnightblue" d="M757.55,-306C749.14,-306 740.57,-306 732.05,-306"/>
<polygon fill="midnightblue" stroke="midnightblue" points="757.71,-309.5 767.71,-306 757.71,-302.5 757.71,-309.5"/>
</g>
<!-- Node9 -->
<g id="node9" class="node">
<title>Node9</title>
<g id="a_node9"><a xlink:href="classdenoptim_1_1graph_1_1rings_1_1_cyclic_graph_handler.html#a08b02946eaac7c2cbbe6e71332d702e6" target="_top" xlink:title="Identifies a random combination of ring closing paths and returns it as list of DENOPTIMRings ready t...">
<polygon fill="white" stroke="black" points="1191,-186.5 1191,-227.5 1373,-227.5 1373,-186.5 1191,-186.5"/>
<text text-anchor="start" x="1199" y="-215.5" font-family="Helvetica,sans-Serif" font-size="10.00">denoptim.graph.rings.Cyclic</text>
<text text-anchor="start" x="1199" y="-204.5" font-family="Helvetica,sans-Serif" font-size="10.00">GraphHandler.getRandomCombination</text>
<text text-anchor="middle" x="1282" y="-193.5" font-family="Helvetica,sans-Serif" font-size="10.00">OfRings</text>
</a>
</g>
</g>
<!-- Node8&#45;&gt;Node9 -->
<g id="edge8" class="edge">
<title>Node8&#45;&gt;Node9</title>
<path fill="none" stroke="midnightblue" d="M1403.04,-207.56C1393.11,-207.51 1383.05,-207.46 1373.19,-207.42"/>
<polygon fill="midnightblue" stroke="midnightblue" points="1403.3,-211.06 1413.32,-207.6 1403.34,-204.06 1403.3,-211.06"/>
</g>
<!-- Node10 -->
<g id="node10" class="node">
<title>Node10</title>
<g id="a_node10"><a xlink:href="classdenoptim_1_1ga_1_1_e_a_utils.html#a1ddb932d4618434d435e4f85ce5e5eb5" target="_top" xlink:title="Evaluates the possibility of closing rings in a given graph and if any ring can be closed,...">
<polygon fill="white" stroke="black" points="992.5,-188 992.5,-218 1123.5,-218 1123.5,-188 992.5,-188"/>
<text text-anchor="start" x="1000.5" y="-206" font-family="Helvetica,sans-Serif" font-size="10.00">denoptim.ga.EAUtils.setup</text>
<text text-anchor="middle" x="1058" y="-195" font-family="Helvetica,sans-Serif" font-size="10.00">Rings</text>
</a>
</g>
</g>
<!-- Node9&#45;&gt;Node10 -->
<g id="edge9" class="edge">
<title>Node9&#45;&gt;Node10</title>
<path fill="none" stroke="midnightblue" d="M1180.64,-205.19C1161.3,-204.84 1141.53,-204.49 1123.7,-204.17"/>
<polygon fill="midnightblue" stroke="midnightblue" points="1180.64,-208.69 1190.7,-205.37 1180.77,-201.69 1180.64,-208.69"/>
</g>
<!-- Node11 -->
<g id="node11" class="node">
<title>Node11</title>
<g id="a_node11"><a xlink:href="classdenoptim_1_1ga_1_1_e_a_utils.html#a8122818f58919fce84dce75e7506025a" target="_top" xlink:title=" ">
<polygon fill="white" stroke="black" points="783.5,-237 783.5,-267 910.5,-267 910.5,-237 783.5,-237"/>
<text text-anchor="start" x="791.5" y="-255" font-family="Helvetica,sans-Serif" font-size="10.00">denoptim.ga.EAUtils.build</text>
<text text-anchor="middle" x="847" y="-244" font-family="Helvetica,sans-Serif" font-size="10.00">CandidateByMutation</text>
</a>
</g>
</g>
<!-- Node10&#45;&gt;Node11 -->
<g id="edge10" class="edge">
<title>Node10&#45;&gt;Node11</title>
<path fill="none" stroke="midnightblue" d="M982.89,-220.37C959.24,-225.92 933.32,-232 910.57,-237.33"/>
<polygon fill="midnightblue" stroke="midnightblue" points="983.94,-223.72 992.87,-218.03 982.34,-216.91 983.94,-223.72"/>
</g>
<!-- Node18 -->
<g id="node18" class="node">
<title>Node18</title>
<g id="a_node18"><a xlink:href="classdenoptim_1_1ga_1_1_e_a_utils.html#ad3d2daeb11e68a356e971ca1846596b5" target="_top" xlink:title=" ">
<polygon fill="white" stroke="black" points="783.5,-188 783.5,-218 910.5,-218 910.5,-188 783.5,-188"/>
<text text-anchor="start" x="791.5" y="-206" font-family="Helvetica,sans-Serif" font-size="10.00">denoptim.ga.EAUtils.build</text>
<text text-anchor="middle" x="847" y="-195" font-family="Helvetica,sans-Serif" font-size="10.00">CandidateFromScratch</text>
</a>
</g>
</g>
<!-- Node10&#45;&gt;Node18 -->
<g id="edge18" class="edge">
<title>Node10&#45;&gt;Node18</title>
<path fill="none" stroke="midnightblue" d="M982.07,-203C958.65,-203 933.08,-203 910.6,-203"/>
<polygon fill="midnightblue" stroke="midnightblue" points="982.3,-206.5 992.3,-203 982.3,-199.5 982.3,-206.5"/>
</g>
<!-- Node20 -->
<g id="node20" class="node">
<title>Node20</title>
<g id="a_node20"><a xlink:href="classdenoptim_1_1ga_1_1_e_a_utils.html#a0b958439d79fae30f14530213ad22e3a" target="_top" xlink:title="Generates up to a pair of new offspring by performing a crossover operation.">
<polygon fill="white" stroke="black" points="783.5,-139 783.5,-169 910.5,-169 910.5,-139 783.5,-139"/>
<text text-anchor="start" x="791.5" y="-157" font-family="Helvetica,sans-Serif" font-size="10.00">denoptim.ga.EAUtils.build</text>
<text text-anchor="middle" x="847" y="-146" font-family="Helvetica,sans-Serif" font-size="10.00">CandidatesByXOver</text>
</a>
</g>
</g>
<!-- Node10&#45;&gt;Node20 -->
<g id="edge23" class="edge">
<title>Node10&#45;&gt;Node20</title>
<path fill="none" stroke="midnightblue" d="M982.89,-185.63C959.24,-180.08 933.32,-174 910.57,-168.67"/>
<polygon fill="midnightblue" stroke="midnightblue" points="982.34,-189.09 992.87,-187.97 983.94,-182.28 982.34,-189.09"/>
</g>
<!-- Node12 -->
<g id="node12" class="node">
<title>Node12</title>
<g id="a_node12"><a xlink:href="classdenoptim_1_1ga_1_1_evolutionary_algorithm.html#a0c2e353b243250b4959a3f86608f1020" target="_top" xlink:title="Generates one offspring according to the method where crossover and mutation are decoupled,...">
<polygon fill="white" stroke="black" points="564,-237 564,-267 694,-267 694,-237 564,-237"/>
<text text-anchor="start" x="572" y="-255" font-family="Helvetica,sans-Serif" font-size="10.00">denoptim.ga.Evolutionary</text>
<text text-anchor="middle" x="629" y="-244" font-family="Helvetica,sans-Serif" font-size="10.00">Algorithm.makeOffspringA</text>
</a>
</g>
</g>
<!-- Node11&#45;&gt;Node12 -->
<g id="edge11" class="edge">
<title>Node11&#45;&gt;Node12</title>
<path fill="none" stroke="midnightblue" d="M773.19,-252C747.54,-252 718.92,-252 694.05,-252"/>
<polygon fill="midnightblue" stroke="midnightblue" points="773.23,-255.5 783.23,-252 773.23,-248.5 773.23,-255.5"/>
</g>
<!-- Node17 -->
<g id="node17" class="node">
<title>Node17</title>
<g id="a_node17"><a xlink:href="classdenoptim_1_1ga_1_1_evolutionary_algorithm.html#ae7a90a911b109ed47b3acf54193acc35" target="_top" xlink:title="Generates one offspring according to the method where crossover and mutation are coupled,...">
<polygon fill="white" stroke="black" points="564,-188 564,-218 694,-218 694,-188 564,-188"/>
<text text-anchor="start" x="572" y="-206" font-family="Helvetica,sans-Serif" font-size="10.00">denoptim.ga.Evolutionary</text>
<text text-anchor="middle" x="629" y="-195" font-family="Helvetica,sans-Serif" font-size="10.00">Algorithm.makeOffspringB</text>
</a>
</g>
</g>
<!-- Node11&#45;&gt;Node17 -->
<g id="edge16" class="edge">
<title>Node11&#45;&gt;Node17</title>
<path fill="none" stroke="midnightblue" d="M773.19,-235.48C747.54,-229.66 718.92,-223.17 694.05,-217.53"/>
<polygon fill="midnightblue" stroke="midnightblue" points="772.71,-238.96 783.23,-237.76 774.26,-232.14 772.71,-238.96"/>
</g>
<!-- Node13 -->
<g id="node13" class="node">
<title>Node13</title>
<g id="a_node13"><a xlink:href="classdenoptim_1_1ga_1_1_evolutionary_algorithm.html#a596b2f5f0b097c5b67a6e5163bd6fe66" target="_top" xlink:title="Generates a given number of new candidate items and adds them to the current population.">
<polygon fill="white" stroke="black" points="353,-193 353,-223 487,-223 487,-193 353,-193"/>
<text text-anchor="start" x="361" y="-211" font-family="Helvetica,sans-Serif" font-size="10.00">denoptim.ga.Evolutionary</text>
<text text-anchor="middle" x="420" y="-200" font-family="Helvetica,sans-Serif" font-size="10.00">Algorithm.evolvePopulation</text>
</a>
</g>
</g>
<!-- Node12&#45;&gt;Node13 -->
<g id="edge12" class="edge">
<title>Node12&#45;&gt;Node13</title>
<path fill="none" stroke="midnightblue" d="M554.06,-236.28C532.26,-231.65 508.56,-226.61 487.28,-222.09"/>
<polygon fill="midnightblue" stroke="midnightblue" points="553.41,-239.72 563.92,-238.38 554.87,-232.88 553.41,-239.72"/>
</g>
<!-- Node14 -->
<g id="node14" class="node">
<title>Node14</title>
<g id="a_node14"><a xlink:href="classdenoptim_1_1ga_1_1_evolutionary_algorithm.html#a6bfc2fa59b199da6259b5b6bad3d6de7" target="_top" xlink:title=" ">
<polygon fill="white" stroke="black" points="190,-168 190,-198 314,-198 314,-168 190,-168"/>
<text text-anchor="start" x="198" y="-186" font-family="Helvetica,sans-Serif" font-size="10.00">denoptim.ga.Evolutionary</text>
<text text-anchor="middle" x="252" y="-175" font-family="Helvetica,sans-Serif" font-size="10.00">Algorithm.run</text>
</a>
</g>
</g>
<!-- Node13&#45;&gt;Node14 -->
<g id="edge13" class="edge">
<title>Node13&#45;&gt;Node14</title>
<path fill="none" stroke="midnightblue" d="M342.9,-196.54C333.21,-195.08 323.41,-193.6 314.01,-192.19"/>
<polygon fill="midnightblue" stroke="midnightblue" points="342.51,-200.02 352.92,-198.05 343.55,-193.1 342.51,-200.02"/>
</g>
<!-- Node15 -->
<g id="node15" class="node">
<title>Node15</title>
<g id="a_node15"><a xlink:href="classdenoptim_1_1ga_1_1_evolutionary_algorithm.html#a0f2063b722b7291daf83d62acaa683d3" target="_top" xlink:title=" ">
<polygon fill="white" stroke="black" points="0,-193 0,-223 154,-223 154,-193 0,-193"/>
<text text-anchor="start" x="8" y="-211" font-family="Helvetica,sans-Serif" font-size="10.00">denoptim.ga.Evolutionary</text>
<text text-anchor="middle" x="77" y="-200" font-family="Helvetica,sans-Serif" font-size="10.00">Algorithm.EvolutionaryAlgorithm</text>
</a>
</g>
</g>
<!-- Node14&#45;&gt;Node15 -->
<g id="edge14" class="edge">
<title>Node14&#45;&gt;Node15</title>
<path fill="none" stroke="midnightblue" d="M179.44,-193.34C171.09,-194.55 162.54,-195.78 154.12,-197"/>
<polygon fill="midnightblue" stroke="midnightblue" points="180.12,-196.78 189.52,-191.88 179.12,-189.85 180.12,-196.78"/>
</g>
<!-- Node16 -->
<g id="node16" class="node">
<title>Node16</title>
<g id="a_node16"><a xlink:href="classdenoptim_1_1programs_1_1denovo_1_1_g_a_runner.html#a7cafd6d78727b89dce3e2c8d06f0dd7c" target="_top" xlink:title=" ">
<polygon fill="white" stroke="black" points="9.5,-144 9.5,-174 144.5,-174 144.5,-144 9.5,-144"/>
<text text-anchor="start" x="17.5" y="-162" font-family="Helvetica,sans-Serif" font-size="10.00">denoptim.programs.denovo.</text>
<text text-anchor="middle" x="77" y="-151" font-family="Helvetica,sans-Serif" font-size="10.00">GARunner.runProgram</text>
</a>
</g>
</g>
<!-- Node14&#45;&gt;Node16 -->
<g id="edge15" class="edge">
<title>Node14&#45;&gt;Node16</title>
<path fill="none" stroke="midnightblue" d="M179.48,-173.08C167.92,-171.47 156,-169.82 144.57,-168.23"/>
<polygon fill="midnightblue" stroke="midnightblue" points="179.13,-176.56 189.52,-174.47 180.1,-169.63 179.13,-176.56"/>
</g>
<!-- Node17&#45;&gt;Node13 -->
<g id="edge17" class="edge">
<title>Node17&#45;&gt;Node13</title>
<path fill="none" stroke="midnightblue" d="M553.76,-204.79C532.05,-205.32 508.46,-205.89 487.28,-206.4"/>
<polygon fill="midnightblue" stroke="midnightblue" points="554.01,-208.29 563.92,-204.55 553.84,-201.29 554.01,-208.29"/>
</g>
<!-- Node18&#45;&gt;Node12 -->
<g id="edge21" class="edge">
<title>Node18&#45;&gt;Node12</title>
<path fill="none" stroke="midnightblue" d="M773.19,-219.52C747.54,-225.34 718.92,-231.83 694.05,-237.47"/>
<polygon fill="midnightblue" stroke="midnightblue" points="774.26,-222.86 783.23,-217.24 772.71,-216.04 774.26,-222.86"/>
</g>
<!-- Node18&#45;&gt;Node17 -->
<g id="edge22" class="edge">
<title>Node18&#45;&gt;Node17</title>
<path fill="none" stroke="midnightblue" d="M773.19,-203C747.54,-203 718.92,-203 694.05,-203"/>
<polygon fill="midnightblue" stroke="midnightblue" points="773.23,-206.5 783.23,-203 773.23,-199.5 773.23,-206.5"/>
</g>
<!-- Node19 -->
<g id="node19" class="node">
<title>Node19</title>
<g id="a_node19"><a xlink:href="classdenoptim_1_1ga_1_1_evolutionary_algorithm.html#ad43588620dab3340e0d8b0042ec73618" target="_top" xlink:title="Fills up the population with candidates build from scratch.">
<polygon fill="white" stroke="black" points="350,-144 350,-174 490,-174 490,-144 350,-144"/>
<text text-anchor="start" x="358" y="-162" font-family="Helvetica,sans-Serif" font-size="10.00">denoptim.ga.Evolutionary</text>
<text text-anchor="middle" x="420" y="-151" font-family="Helvetica,sans-Serif" font-size="10.00">Algorithm.initializePopulation</text>
</a>
</g>
</g>
<!-- Node18&#45;&gt;Node19 -->
<g id="edge19" class="edge">
<title>Node18&#45;&gt;Node19</title>
<path fill="none" stroke="midnightblue" d="M773.41,-186.1C759.71,-183.37 745.46,-180.84 732,-179 649.31,-167.7 553.36,-162.75 490.15,-160.61"/>
<polygon fill="midnightblue" stroke="midnightblue" points="772.77,-189.54 783.27,-188.11 774.17,-182.68 772.77,-189.54"/>
</g>
<!-- Node19&#45;&gt;Node14 -->
<g id="edge20" class="edge">
<title>Node19&#45;&gt;Node14</title>
<path fill="none" stroke="midnightblue" d="M339.6,-170.48C331.08,-171.71 322.5,-172.95 314.24,-174.15"/>
<polygon fill="midnightblue" stroke="midnightblue" points="340.17,-173.93 349.56,-169.04 339.16,-167.01 340.17,-173.93"/>
</g>
<!-- Node21&#45;&gt;Node21 -->
<g id="edge25" class="edge">
<title>Node21&#45;&gt;Node21</title>
<path fill="none" stroke="midnightblue" d="M1760.41,-111.86C1755.29,-116.7 1743.82,-120 1726,-120 1697.48,-120 1685.23,-111.54 1689.24,-101.86"/>
<polygon fill="midnightblue" stroke="midnightblue" points="1763.88,-112.4 1762.76,-101.86 1757.06,-110.8 1763.88,-112.4"/>
</g>
<!-- Node22 -->
<g id="node22" class="node">
<title>Node22</title>
<g id="a_node22"><a xlink:href="classdenoptim_1_1molecularmodeling_1_1_three_dim_tree_builder.html#acbaf5061621ed283eecc80a51b523422" target="_top" xlink:title="Created a three&#45;dimensional molecular representation from a given DGraph.">
<polygon fill="white" stroke="black" points="1415.5,-60.5 1415.5,-101.5 1584.5,-101.5 1584.5,-60.5 1415.5,-60.5"/>
<text text-anchor="start" x="1423.5" y="-89.5" font-family="Helvetica,sans-Serif" font-size="10.00">denoptim.molecularmodeling.</text>
<text text-anchor="start" x="1423.5" y="-78.5" font-family="Helvetica,sans-Serif" font-size="10.00">ThreeDimTreeBuilder.convertGraph</text>
<text text-anchor="middle" x="1500" y="-67.5" font-family="Helvetica,sans-Serif" font-size="10.00">To3DAtomContainer</text>
</a>
</g>
</g>
<!-- Node21&#45;&gt;Node22 -->
<g id="edge26" class="edge">
<title>Node21&#45;&gt;Node22</title>
<path fill="none" stroke="midnightblue" d="M1615.47,-81C1605.14,-81 1594.79,-81 1584.76,-81"/>
<polygon fill="midnightblue" stroke="midnightblue" points="1615.77,-84.5 1625.77,-81 1615.77,-77.5 1615.77,-84.5"/>
</g>
<!-- Node24 -->
<g id="node24" class="node">
<title>Node24</title>
<g id="a_node24"><a xlink:href="classdenoptim_1_1graph_1_1rings_1_1_cyclic_graph_handler.html#abd43d52fe626625dab3da6a32038e57b" target="_top" xlink:title="Method to evaluate the closability of a single path in a graph representing a molecule.">
<polygon fill="white" stroke="black" points="1410,-139 1410,-169 1590,-169 1590,-139 1410,-139"/>
<text text-anchor="start" x="1418" y="-157" font-family="Helvetica,sans-Serif" font-size="10.00">denoptim.graph.rings.Cyclic</text>
<text text-anchor="middle" x="1500" y="-146" font-family="Helvetica,sans-Serif" font-size="10.00">GraphHandler.evaluatePathClosability</text>
</a>
</g>
</g>
<!-- Node23&#45;&gt;Node24 -->
<g id="edge29" class="edge">
<title>Node23&#45;&gt;Node24</title>
<path fill="none" stroke="midnightblue" d="M1628.34,-156.84C1615.72,-156.56 1602.83,-156.27 1590.34,-155.99"/>
<polygon fill="midnightblue" stroke="midnightblue" points="1628.32,-160.34 1638.4,-157.07 1628.48,-153.34 1628.32,-160.34"/>
</g>
<!-- Node24&#45;&gt;Node9 -->
<g id="edge34" class="edge">
<title>Node24&#45;&gt;Node9</title>
<path fill="none" stroke="midnightblue" d="M1427.92,-171.44C1408.33,-176.25 1386.89,-181.51 1366.65,-186.47"/>
<polygon fill="midnightblue" stroke="midnightblue" points="1428.8,-174.83 1437.68,-169.05 1427.13,-168.03 1428.8,-174.83"/>
</g>
<!-- Node25 -->
<g id="node25" class="node">
<title>Node25</title>
<g id="a_node25"><a xlink:href="classdenoptim_1_1graph_1_1rings_1_1_cyclic_graph_handler.html#a3ce96322723f45d9285a248ebcef94d3" target="_top" xlink:title="Identifies all possible ring closing paths and returns them as list of DENOPTIMRings ready to be appe...">
<polygon fill="white" stroke="black" points="1190,-126.5 1190,-167.5 1374,-167.5 1374,-126.5 1190,-126.5"/>
<text text-anchor="start" x="1198" y="-155.5" font-family="Helvetica,sans-Serif" font-size="10.00">denoptim.graph.rings.Cyclic</text>
<text text-anchor="start" x="1198" y="-144.5" font-family="Helvetica,sans-Serif" font-size="10.00">GraphHandler.getPossibleCombination</text>
<text text-anchor="middle" x="1282" y="-133.5" font-family="Helvetica,sans-Serif" font-size="10.00">OfRings</text>
</a>
</g>
</g>
<!-- Node24&#45;&gt;Node25 -->
<g id="edge30" class="edge">
<title>Node24&#45;&gt;Node25</title>
<path fill="none" stroke="midnightblue" d="M1399.66,-150.78C1391.22,-150.51 1382.71,-150.23 1374.34,-149.96"/>
<polygon fill="midnightblue" stroke="midnightblue" points="1399.79,-154.29 1409.9,-151.11 1400.02,-147.29 1399.79,-154.29"/>
</g>
<!-- Node25&#45;&gt;Node10 -->
<g id="edge33" class="edge">
<title>Node25&#45;&gt;Node10</title>
<path fill="none" stroke="midnightblue" d="M1189.74,-170.02C1165.7,-176.08 1140.38,-182.47 1118.49,-187.99"/>
<polygon fill="midnightblue" stroke="midnightblue" points="1190.76,-173.37 1199.6,-167.53 1189.04,-166.59 1190.76,-173.37"/>
</g>
<!-- Node26 -->
<g id="node26" class="node">
<title>Node26</title>
<g id="a_node26"><a xlink:href="classdenoptim_1_1graph_1_1_d_graph.html#a7a4743d014e860237f4b20703ef9779b" target="_top" xlink:title="Evaluates the possibility of closing rings in this graph and generates all alternative graphs resulti...">
<polygon fill="white" stroke="black" points="980.5,-111 980.5,-141 1135.5,-141 1135.5,-111 980.5,-111"/>
<text text-anchor="start" x="988.5" y="-129" font-family="Helvetica,sans-Serif" font-size="10.00">denoptim.graph.DGraph.make</text>
<text text-anchor="middle" x="1058" y="-118" font-family="Helvetica,sans-Serif" font-size="10.00">AllGraphsWithDifferentRingSets</text>
</a>
</g>
</g>
<!-- Node25&#45;&gt;Node26 -->
<g id="edge31" class="edge">
<title>Node25&#45;&gt;Node26</title>
<path fill="none" stroke="midnightblue" d="M1179.59,-137.41C1164.85,-136.01 1149.89,-134.6 1135.75,-133.26"/>
<polygon fill="midnightblue" stroke="midnightblue" points="1179.46,-140.91 1189.74,-138.37 1180.12,-133.94 1179.46,-140.91"/>
</g>
<!-- Node27 -->
<g id="node27" class="node">
<title>Node27</title>
<g id="a_node27"><a xlink:href="classdenoptim_1_1combinatorial_1_1_graph_building_task.html#a3eaee724fc921194fa158714aafe182d" target="_top" xlink:title="Calls the task.">
<polygon fill="white" stroke="black" points="774.5,-90 774.5,-120 919.5,-120 919.5,-90 774.5,-90"/>
<text text-anchor="start" x="782.5" y="-108" font-family="Helvetica,sans-Serif" font-size="10.00">denoptim.combinatorial.Graph</text>
<text text-anchor="middle" x="847" y="-97" font-family="Helvetica,sans-Serif" font-size="10.00">BuildingTask.call</text>
</a>
</g>
</g>
<!-- Node26&#45;&gt;Node27 -->
<g id="edge32" class="edge">
<title>Node26&#45;&gt;Node27</title>
<path fill="none" stroke="midnightblue" d="M970.04,-117.26C953.3,-115.58 935.95,-113.84 919.77,-112.21"/>
<polygon fill="midnightblue" stroke="midnightblue" points="970.06,-120.78 980.36,-118.3 970.76,-113.82 970.06,-120.78"/>
</g>
<!-- Node28&#45;&gt;Node22 -->
<g id="edge36" class="edge">
<title>Node28&#45;&gt;Node22</title>
<path fill="none" stroke="midnightblue" d="M1652.82,-44.4C1631.15,-49.62 1607.19,-55.4 1584.83,-60.79"/>
<polygon fill="midnightblue" stroke="midnightblue" points="1653.7,-47.79 1662.6,-42.04 1652.06,-40.98 1653.7,-47.79"/>
</g>
<!-- Node29 -->
<g id="node29" class="node">
<title>Node29</title>
<g id="a_node29"><a xlink:href="classdenoptim_1_1gui_1_1_graph_vertex_mol_viewer_panel.html#afb0f2245fdfc8158581b4cbcf2b239d1" target="_top" xlink:title="Updates the molecular representation of the loaded graph.">
<polygon fill="white" stroke="black" points="1419.5,-0.5 1419.5,-41.5 1580.5,-41.5 1580.5,-0.5 1419.5,-0.5"/>
<text text-anchor="start" x="1427.5" y="-29.5" font-family="Helvetica,sans-Serif" font-size="10.00">denoptim.gui.GraphVertex</text>
<text text-anchor="start" x="1427.5" y="-18.5" font-family="Helvetica,sans-Serif" font-size="10.00">MolViewerPanel.updateMolevular</text>
<text text-anchor="middle" x="1500" y="-7.5" font-family="Helvetica,sans-Serif" font-size="10.00">Viewer</text>
</a>
</g>
</g>
<!-- Node28&#45;&gt;Node29 -->
<g id="edge37" class="edge">
<title>Node28&#45;&gt;Node29</title>
<path fill="none" stroke="midnightblue" d="M1629.34,-24.44C1613.13,-24 1596.45,-23.56 1580.71,-23.13"/>
<polygon fill="midnightblue" stroke="midnightblue" points="1629.27,-27.94 1639.36,-24.71 1629.45,-20.94 1629.27,-27.94"/>
</g>
<!-- Node30 -->
<g id="node30" class="node">
<title>Node30</title>
<g id="a_node30"><a xlink:href="classdenoptim_1_1gui_1_1_g_u_i_graph_handler.html#ad54901fb2a09953591c971ffc48f3de1" target="_top" xlink:title=" ">
<polygon fill="white" stroke="black" points="1194.5,-6 1194.5,-36 1369.5,-36 1369.5,-6 1194.5,-6"/>
<text text-anchor="start" x="1202.5" y="-24" font-family="Helvetica,sans-Serif" font-size="10.00">denoptim.gui.GUIGraphHandler.save</text>
<text text-anchor="middle" x="1282" y="-13" font-family="Helvetica,sans-Serif" font-size="10.00">UnsavedChanges</text>
</a>
</g>
</g>
<!-- Node29&#45;&gt;Node30 -->
<g id="edge38" class="edge">
<title>Node29&#45;&gt;Node30</title>
<path fill="none" stroke="midnightblue" d="M1409.11,-21C1396.04,-21 1382.61,-21 1369.61,-21"/>
<polygon fill="midnightblue" stroke="midnightblue" points="1409.49,-24.5 1419.49,-21 1409.49,-17.5 1409.49,-24.5"/>
</g>
<!-- Node31 -->
<g id="node31" class="node">
<title>Node31</title>
<g id="a_node31"><a xlink:href="classdenoptim_1_1gui_1_1_g_u_i_graph_handler.html#af5b000c105018cbd7c262b34f9750044" target="_top" xlink:title="Initialize the panel and add buttons.">
<polygon fill="white" stroke="black" points="964,-11.5 964,-30.5 1152,-30.5 1152,-11.5 964,-11.5"/>
<text text-anchor="middle" x="1058" y="-18.5" font-family="Helvetica,sans-Serif" font-size="10.00">denoptim.gui.GUIGraphHandler.initialize</text>
</a>
</g>
</g>
<!-- Node30&#45;&gt;Node31 -->
<g id="edge39" class="edge">
<title>Node30&#45;&gt;Node31</title>
<path fill="none" stroke="midnightblue" d="M1184.15,-21C1173.59,-21 1162.85,-21 1152.33,-21"/>
<polygon fill="midnightblue" stroke="midnightblue" points="1184.22,-24.5 1194.22,-21 1184.22,-17.5 1184.22,-24.5"/>
</g>
<!-- Node32 -->
<g id="node32" class="node">
<title>Node32</title>
<g id="a_node32"><a xlink:href="classdenoptim_1_1gui_1_1_g_u_i_graph_handler.html#ab7d010d9a384f6b85edce47c95d6723b" target="_top" xlink:title="Constructor.">
<polygon fill="white" stroke="black" points="770,-6 770,-36 924,-36 924,-6 770,-6"/>
<text text-anchor="start" x="778" y="-24" font-family="Helvetica,sans-Serif" font-size="10.00">denoptim.gui.GUIGraphHandler.</text>
<text text-anchor="middle" x="847" y="-13" font-family="Helvetica,sans-Serif" font-size="10.00">GUIGraphHandler</text>
</a>
</g>
</g>
<!-- Node31&#45;&gt;Node32 -->
<g id="edge40" class="edge">
<title>Node31&#45;&gt;Node32</title>
<path fill="none" stroke="midnightblue" d="M953.5,-21C943.59,-21 933.67,-21 924.1,-21"/>
<polygon fill="midnightblue" stroke="midnightblue" points="953.81,-24.5 963.81,-21 953.81,-17.5 953.81,-24.5"/>
</g>
</g>
</svg>
        <g id="navigator" transform="translate(0 0)" fill="#404254">
                <rect fill="#f2f5e9" fill-opacity="0.5" stroke="#606060" stroke-width=".5" x="0" y="0" width="60" height="60"/>
                <use id="zoomplus" xlink:href="#zoomPlus" x="17" y="9" onmousedown="handleZoom(evt,'in')"/>
                <use id="zoomminus" xlink:href="#zoomMin" x="42" y="9" onmousedown="handleZoom(evt,'out')"/>
                <use id="reset" xlink:href="#resetDef" x="30" y="36" onmousedown="handleReset()"/>
                <g id="arrowUp" xlink:href="#dirArrow" transform="translate(30 24)" onmousedown="handlePan(0,-1)">
                  <use xlink:href="#rim" fill="#404040">
                        <set attributeName="fill" to="#808080" begin="arrowUp.mouseover" end="arrowUp.mouseout"/>
                  </use>
                  <path fill="none" stroke="white" stroke-width="1.5" d="M0,-3.0v7 M-2.5,-0.5L0,-3.0L2.5,-0.5"/>
                </g>
                <g id="arrowRight" xlink:href="#dirArrow" transform="rotate(90) translate(36 -43)" onmousedown="handlePan(1,0)">
                  <use xlink:href="#rim" fill="#404040">
                        <set attributeName="fill" to="#808080" begin="arrowRight.mouseover" end="arrowRight.mouseout"/>
                  </use>
                  <path fill="none" stroke="white" stroke-width="1.5" d="M0,-3.0v7 M-2.5,-0.5L0,-3.0L2.5,-0.5"/>
                </g>
                <g id="arrowDown" xlink:href="#dirArrow" transform="rotate(180) translate(-30 -48)" onmousedown="handlePan(0,1)">
                  <use xlink:href="#rim" fill="#404040">
                        <set attributeName="fill" to="#808080" begin="arrowDown.mouseover" end="arrowDown.mouseout"/>
                  </use>
                  <path fill="none" stroke="white" stroke-width="1.5" d="M0,-3.0v7 M-2.5,-0.5L0,-3.0L2.5,-0.5"/>
                </g>
                <g id="arrowLeft" xlink:href="#dirArrow" transform="rotate(270) translate(-36 17)" onmousedown="handlePan(-1,0)">
                  <use xlink:href="#rim" fill="#404040">
                        <set attributeName="fill" to="#808080" begin="arrowLeft.mouseover" end="arrowLeft.mouseout"/>
                  </use>
                  <path fill="none" stroke="white" stroke-width="1.5" d="M0,-3.0v7 M-2.5,-0.5L0,-3.0L2.5,-0.5"/>
                </g>
        </g>
        <svg viewBox="0 0 15 15" width="100%" height="30px" preserveAspectRatio="xMaxYMin meet">
         <g id="arrow_out" transform="scale(0.3 0.3)">
          <a xlink:href="enumdenoptim_1_1graph_1_1_edge_1_1_bond_type_a8be61f74c1beaa52e4a53ff70d32a614_icgraph_org.svg" target="_base">
           <rect id="button" ry="5" rx="5" y="6" x="6" height="38" width="38"
                fill="#f2f5e9" fill-opacity="0.5" stroke="#606060" stroke-width="1.0"/>
           <path id="arrow"
             d="M 11.500037,31.436501 C 11.940474,20.09759 22.043105,11.32322 32.158766,21.979434 L 37.068811,17.246167 C 37.068811,17.246167 37.088388,32 37.088388,32 L 22.160133,31.978069 C 22.160133,31.978069 26.997745,27.140456 26.997745,27.140456 C 18.528582,18.264221 13.291696,25.230495 11.500037,31.436501 z"
             style="fill:#404040;"/>
          </a>
         </g>
        </svg>
</svg>
